<svg xmlns="http://www.w3.org/2000/svg" xmlns:xlink="http://www.w3.org/1999/xlink" viewBox="0 0 190.49 96.95"><defs><style>.cls-1{stroke:#c83b1c;stroke-miterlimit:10;stroke-width:10px;fill:url(#linear-gradient);}.cls-2{fill:#fff;}</style><linearGradient id="linear-gradient" x1="5" y1="48.48" x2="185.49" y2="48.48" gradientUnits="userSpaceOnUse"><stop offset="0" stop-color="#ff4c24"/><stop offset="0.47" stop-color="#f64923"/><stop offset="1" stop-color="#e54420"/></linearGradient></defs><title>back</title><g id="Layer_2" data-name="Layer 2"><g id="Layer_1-2" data-name="Layer 1"><rect class="cls-1" x="5" y="5" width="180.49" height="86.95" rx="33.88" ry="33.88"/><path class="cls-2" d="M92.35,71.41a1.1,1.1,0,0,0,.69-1V58.24h27.71a1.11,1.11,0,0,0,1.11-1.1V39.4a1.11,1.11,0,0,0-1.11-1.11H93V26.1a1.11,1.11,0,0,0-1.89-.79L69,47.43A1.1,1.1,0,0,0,69,49L91.14,71.18A1.11,1.11,0,0,0,92.35,71.41Z"/></g></g></svg>