<svg xmlns="http://www.w3.org/2000/svg" xmlns:xlink="http://www.w3.org/1999/xlink" viewBox="0 0 180.49 180.49"><defs><style>.cls-1{stroke:#c83b1c;stroke-miterlimit:10;stroke-width:10px;fill:url(#New_Gradient_Swatch_1);}.cls-2{fill:#fff;}</style><linearGradient id="New_Gradient_Swatch_1" x1="5" y1="90.24" x2="175.49" y2="90.24" gradientUnits="userSpaceOnUse"><stop offset="0" stop-color="#ff4c24"/><stop offset="0.47" stop-color="#f64923"/><stop offset="1" stop-color="#e54420"/></linearGradient></defs><title>check</title><g id="Layer_2" data-name="Layer 2"><g id="Layer_4" data-name="Layer 4"><rect class="cls-1" x="5" y="5" width="170.49" height="170.49" rx="30" ry="30"/><path class="cls-2" d="M141.69,53.42c-1.21,2-2.36,4.14-3.65,6.14C121.32,85.35,104.4,111,88,137c-4.18,6.61-12.59,7.14-17.53,1.16C61.08,126.85,51.21,116,41.57,105c-3.54-4.06-3.7-8.81-.45-12.25,3.4-3.59,8-3.6,12.44-.22C61.18,98.34,68.87,104.08,76.7,110c.61-.76,1.2-1.46,1.76-2.19,15.18-19.87,30.64-39.54,45.41-59.72,5.41-7.4,13.88-7.37,17.82,1.22Z"/></g></g></svg>