<svg xmlns="http://www.w3.org/2000/svg" xmlns:xlink="http://www.w3.org/1999/xlink" viewBox="0 0 180.49 180.49"><defs><style>.cls-1{stroke:#c83b1c;stroke-miterlimit:10;stroke-width:10px;fill:url(#linear-gradient);}.cls-2{fill:#fff;}</style><linearGradient id="linear-gradient" x1="5" y1="91.75" x2="175.49" y2="91.75" gradientTransform="matrix(1, 0, 0, -1, 0, 182)" gradientUnits="userSpaceOnUse"><stop offset="0" stop-color="#ff4c24"/><stop offset="0.47" stop-color="#f64923"/><stop offset="1" stop-color="#e54420"/></linearGradient></defs><title>refresh</title><g id="Layer_2" data-name="Layer 2"><g id="Layer_1-2" data-name="Layer 1"><g id="Layer_2-2" data-name="Layer 2"><g id="Layer_2-2-2" data-name="Layer 2-2"><rect class="cls-1" x="5" y="5" width="170.49" height="170.49" rx="30" ry="30"/><path class="cls-2" d="M32,41.35a4.35,4.35,0,0,1,8.63-1.09l2.6,20.22a53.65,53.65,0,0,1,95.22,12.46,4.35,4.35,0,0,1-2.68,5.51,4.54,4.54,0,0,1-1.45.22,4.45,4.45,0,0,1-4.13-2.9,44.94,44.94,0,0,0-80.8-8.84l21.74-2.46a4.27,4.27,0,0,1,4.78,3.84,4.32,4.32,0,0,1-3.84,4.78l-31.3,3.55h-.51A4.25,4.25,0,0,1,36,72.87ZM139.7,99.54l-31.3,3.55a4.34,4.34,0,0,0,.94,8.62l18.91-2.1a44.91,44.91,0,0,1-83.55-6.23,4.35,4.35,0,0,0-8.33,2.53,54.28,54.28,0,0,0,19.06,27.32,53.6,53.6,0,0,0,81.37-21.3l3,24.13a4.36,4.36,0,0,0,4.28,3.76h.58a4.33,4.33,0,0,0,3.77-4.85l-4.06-31.52A4.27,4.27,0,0,0,139.7,99.54Z"/></g></g></g></g></svg>