<svg xmlns="http://www.w3.org/2000/svg" xmlns:xlink="http://www.w3.org/1999/xlink" viewBox="0 0 180.49 180.49"><defs><style>.cls-1{stroke:#c83b1c;stroke-miterlimit:10;stroke-width:10px;fill:url(#New_Gradient_Swatch_1);}.cls-2{fill:#fff;}</style><linearGradient id="New_Gradient_Swatch_1" x1="5" y1="90.24" x2="175.49" y2="90.24" gradientUnits="userSpaceOnUse"><stop offset="0" stop-color="#ff4c24"/><stop offset="0.47" stop-color="#f64923"/><stop offset="1" stop-color="#e54420"/></linearGradient></defs><title>repeat</title><g id="Layer_2" data-name="Layer 2"><g id="Layer_2-2" data-name="Layer 2"><rect class="cls-1" x="5" y="5" width="170.49" height="170.49" rx="30" ry="30"/><path class="cls-2" d="M59,38.7a5.38,5.38,0,0,0-3.6,3.12"/><path class="cls-2" d="M149.41,89.67v.72a5.45,5.45,0,0,1-2.61,3.54Q129.86,103.18,113,112.5,91.61,124.25,70.24,136c-3.39,1.86-6.85,3.59-10.28,5.38h-.72a5.37,5.37,0,0,1-3.84-3.13V41.82A5.38,5.38,0,0,1,59,38.7h1.2c.58.25,1.19.47,1.74.77l41.38,22.76c14.25,7.84,28.48,15.71,42.76,23.49A5.92,5.92,0,0,1,149.41,89.67Z"/><path class="cls-2" d="M55.4,138.24a5.37,5.37,0,0,0,3.84,3.13"/></g></g></svg>