<svg xmlns="http://www.w3.org/2000/svg" viewBox="0 0 82.11 91.33"><defs><style>.cls-1{fill:#ba1a00;}.cls-1,.cls-2,.cls-3,.cls-4,.cls-5,.cls-6,.cls-7,.cls-8{fill-rule:evenodd;}.cls-2{fill:#e52600;}.cls-3{fill:#dd1000;}.cls-4{fill:#8c6239;}.cls-5{fill:#009245;}.cls-6{fill:#006837;}.cls-7{fill:#754c24;}.cls-8{fill:#a67c52;}</style></defs><title>apple</title><g id="Layer_2" data-name="Layer 2"><g id="Layer_2-2" data-name="Layer 2"><polygon class="cls-1" points="82.11 21.48 41 42.84 41 91.33 82.11 69.96 82.11 21.48"/><polygon class="cls-2" points="82.11 21.48 41 0 0 21.48 41 42.84 82.11 21.48"/><polygon class="cls-3" points="41 42.84 0 21.48 0 69.96 41 91.33 41 42.84"/><polygon class="cls-4" points="41.67 23.65 39.21 22.41 37.33 11.19 41.67 13.46 41.67 23.65"/><polygon class="cls-5" points="62.71 15.31 51.19 13.14 42.86 21.35 54.35 23.5 62.71 15.31"/><polygon class="cls-6" points="54.34 23.5 42.82 21.33 42.37 21.97 53.86 24.12 54.34 23.5"/><polygon class="cls-7" points="44.12 22.41 41.67 23.65 41.67 13.46 46.01 11.19 44.12 22.41"/><polygon class="cls-8" points="46.01 11.19 41.66 8.92 37.33 11.19 41.66 13.45 46.01 11.19"/></g></g></svg>