<svg xmlns="http://www.w3.org/2000/svg" viewBox="0 0 74.13 138.31"><defs><style>.cls-1{fill:#563a29;}.cls-1,.cls-10,.cls-11,.cls-12,.cls-13,.cls-2,.cls-3,.cls-4,.cls-5,.cls-6,.cls-7,.cls-8,.cls-9{fill-rule:evenodd;}.cls-2{fill:#452f21;}.cls-3{fill:#78533a;}.cls-4{fill:#6b4b36;}.cls-5{fill:#2e1d16;}.cls-6{fill:#8a6853;}.cls-7{fill:#4a2f24;}.cls-8{fill:#cfa985;}.cls-9{fill:#a6876a;}.cls-10{fill:#352b20;}.cls-11{fill:#946749;}.cls-13{fill:#654d3d;}</style></defs><title>bear</title><g id="Layer_2" data-name="Layer 2"><g id="Layer_1-2" data-name="Layer 1"><polygon class="cls-1" points="21.07 64.66 9.96 58.89 9.96 47.22 21.07 47.37 21.07 64.66"/><polygon class="cls-2" points="11.11 85.02 21.07 64.66 21.07 47.37 32.18 41.6 31.92 63.27 22.48 82.25 11.11 85.02"/><polygon class="cls-3" points="21.07 47.37 9.96 47.22 21.07 41.4 32.18 41.6 21.07 47.37"/><polygon class="cls-4" points="9.96 58.89 21.07 64.66 11.11 85.02 0 79.25 9.96 58.89"/><polygon class="cls-2" points="23.03 121.89 23.7 106.95 32.93 104.66 32.93 118.64 20.89 124.89 23.03 121.89"/><polygon class="cls-1" points="23.7 106.95 23.03 121.89 11.29 116.14 11.32 100.51 18.95 100.51 23.7 106.95"/><polygon class="cls-3" points="11.29 116.14 23.03 121.89 20.89 124.89 9.33 118.88 11.29 116.14"/><path class="cls-1" d="M47.06,119.1l-8.79-4.58-2.75-1.43-6-3.11-2.91-1.52L23.7,107l-6.05-3.13-6.33-3.31L17,41.68l4.47-1.77L26,42.24l4.47,2.34,4.48,2.31,4.47,2.33,4.45,6.42,2.81,54.51Zm-17-68.82-2.9-1.51-6.05-3.13L18.06,95l6,5.3,2.9,1.51h0l2.89,1.51,6,1L39,54.91,33,51.8Z"/><polygon class="cls-3" points="65.47 35.65 39.37 49.22 34.9 46.89 30.42 44.58 25.95 42.24 21.48 39.91 17 41.68 43.13 28.09 47.6 26.31 52.06 28.65 61 33.32 65.47 35.65"/><polygon class="cls-5" points="47.06 119.1 46.63 110.15 43.82 55.64 69.93 42.09 73.17 105.53 47.06 119.1"/><polygon class="cls-6" points="30.08 50.28 32.99 51.8 39.02 54.91 35.93 104.29 29.9 103.34 27.01 101.83 26.99 101.83 24.09 100.32 18.06 95.02 21.13 45.64 27.18 48.77 30.08 50.28"/><polygon class="cls-7" points="43.82 55.64 39.37 49.22 65.47 35.65 69.93 42.09 43.82 55.64"/><polygon class="cls-2" points="39.83 22.25 60.47 11.55 64.92 35.05 39.83 48.03 39.83 22.25"/><polygon class="cls-1" points="39.83 22.25 39.83 48.03 17.96 36.67 17.96 10.86 39.83 22.25"/><polygon class="cls-3" points="60.47 11.55 39.83 22.25 17.96 10.86 38.64 0.14 60.47 11.55"/><polygon class="cls-8" points="23.65 37.65 13.08 32.18 22.22 23.84 34.46 30.21 23.65 37.65"/><polygon class="cls-9" points="23.65 48.06 23.65 46.2 23.65 45.05 23.65 37.65 34.46 30.21 34.46 45.25 23.65 48.06"/><polygon class="cls-10" points="13.08 32.18 23.65 37.65 23.65 45.05 23.65 46.2 23.65 48.06 21.48 46.94 13.08 42.59 13.08 32.18"/><polygon class="cls-2" points="42.15 13 44.67 11.27 44.67 18.91 42.15 20.64 42.15 13"/><polygon class="cls-1" points="35.66 9.62 42.15 13 42.15 20.64 35.66 17.25 35.66 9.62"/><polygon class="cls-11" points="44.67 11.27 42.15 13 35.66 9.62 38.21 7.88 44.67 11.27"/><polygon class="cls-2" points="26.48 5.12 29 3.38 29 11.03 26.48 12.76 26.48 5.12"/><polygon class="cls-1" points="20 1.74 26.48 5.12 26.48 12.76 20 9.37 20 1.74"/><polygon class="cls-11" points="29 3.38 26.48 5.12 20 1.74 22.54 0 29 3.38"/><polygon class="cls-12" points="21.44 20.78 21.44 18.36 23.52 19.44 23.52 21.86 21.44 20.78"/><polygon class="cls-12" points="32.23 26.32 32.23 23.89 34.3 24.98 34.3 27.39 32.23 26.32"/><polygon class="cls-13" points="33.59 42.16 33.53 42.88 23.65 46.2 23.65 45.05 33.59 42.16"/><polygon class="cls-1" points="47.06 119.1 47.81 134.59 31.05 126.12 31.05 126.11 29.51 109.98 40.23 109.98 47.06 119.1"/><path class="cls-5" d="M47.81,134.59l-.75-15.49q15.39-17.7,26.11-13.58l-3.61,11,.09,9.25-24.06,12.5,1.11-1.85Z"/><polygon class="cls-3" points="47.81 134.59 46.7 136.46 45.59 138.31 28.93 129.65 30.03 127.81 31.05 126.11 31.05 126.12 47.81 134.59"/><polygon class="cls-1" points="58.11 81.84 47 76.07 47 59.64 58.11 71.03 58.11 81.84"/><polygon class="cls-2" points="48.15 102.2 58.11 81.84 58.11 71.03 74.13 62.77 68.96 80.45 59.52 99.43 48.15 102.2"/><polygon class="cls-3" points="58.11 71.03 47 59.64 63.02 51.34 74.13 62.77 58.11 71.03"/><polygon class="cls-4" points="47 76.07 58.11 81.84 48.15 102.2 37.04 96.42 47 76.07"/></g></g></svg>