<svg xmlns="http://www.w3.org/2000/svg" viewBox="0 0 125.48 87.65"><defs><style>.cls-1{fill:#b86c36;}.cls-1,.cls-2,.cls-3,.cls-4,.cls-5,.cls-6,.cls-7{fill-rule:evenodd;}.cls-2{fill:#b7591a;}.cls-3{fill:#e5b97a;}.cls-4{fill:#b7632a;}.cls-5{fill:#d17d43;}.cls-6{fill:#c6743c;}.cls-7{fill:#c67842;}</style></defs><title>bread</title><g id="Layer_2" data-name="Layer 2"><g id="Layer_3" data-name="Layer 3"><polygon class="cls-1" points="125.48 53.68 110.22 53.68 94.96 53.68 79.7 53.68 64.44 53.68 64.44 40.26 70.06 23.15 64.44 13.42 69.77 5.23 79.7 0 94.96 0 110.22 0 121.48 5.23 125.48 13.42 121.65 23.15 125.48 40.26 125.48 53.68"/><polygon class="cls-2" points="61.04 87.65 45.78 87.65 30.52 87.65 15.26 87.65 0 87.65 0 74.23 5.62 57.12 0 47.39 4.46 39.2 15.26 33.97 30.52 33.97 45.78 33.97 57.04 39.2 61.04 47.39 57.21 57.12 61.04 74.23 61.04 87.65"/><polygon class="cls-3" points="58.62 85.52 44.57 85.52 30.52 85.52 16.47 85.52 2.42 85.52 2.42 73.16 7.6 57.41 2.42 48.45 6.53 40.92 16.47 36.1 30.52 36.1 44.57 36.1 54.93 40.92 58.62 48.45 55.09 57.41 58.62 73.16 58.62 85.52"/><polygon class="cls-1" points="45.78 33.97 15.26 33.97 79.7 0 110.22 0 45.78 33.97"/><polygon class="cls-4" points="57.04 39.2 45.78 33.97 110.22 0 121.48 5.23 57.04 39.2"/><polygon class="cls-4" points="61.04 47.39 57.04 39.2 121.48 5.23 125.48 13.42 61.04 47.39"/><polygon class="cls-5" points="57.21 57.12 61.04 47.39 125.48 13.42 121.65 23.15 57.21 57.12"/><polygon class="cls-6" points="61.04 87.65 61.04 74.23 125.48 40.26 125.48 53.68 61.04 87.65"/><polygon class="cls-7" points="57.21 57.12 61.04 74.23 125.48 40.26 121.65 23.15 57.21 57.12"/><polygon class="cls-3" points="64.8 40.66 60.1 39.5 56.85 30.48 47.16 24.61 42.2 23.74 39.04 21.51 50.56 20.92 62.74 28.38 64.8 40.66"/><polygon class="cls-3" points="82.35 31.8 77.66 30.64 74.41 21.61 64.72 15.75 59.76 14.88 56.59 12.64 67.37 11.38 80.2 18.71 82.35 31.8"/><polygon class="cls-3" points="99.93 23.22 95.24 22.06 91.99 13.03 82.3 7.16 77.34 6.3 74.17 4.06 84.87 2.38 97.7 11.38 99.93 23.22"/></g></g></svg>