<svg xmlns="http://www.w3.org/2000/svg" viewBox="0 0 52.34 149.5"><defs><style>.cls-1{fill:#f15a24;}.cls-1,.cls-2,.cls-3,.cls-4,.cls-5,.cls-6{fill-rule:evenodd;}.cls-2{fill:#fbb03b;}.cls-3{fill:#f7931e;}.cls-4{fill:#006837;}.cls-5{fill:#39b54a;}.cls-6{fill:#009245;}</style></defs><title>carrot</title><g id="Layer_2" data-name="Layer 2"><g id="Layer_2-2" data-name="Layer 2"><polygon class="cls-1" points="39.01 127.59 26.12 134.29 26.12 149.5 36.83 143.93 39.01 127.59"/><polygon class="cls-2" points="39.01 127.59 26.12 120.86 13.26 127.59 26.12 134.29 39.01 127.59"/><polygon class="cls-3" points="26.12 134.29 13.26 127.59 15.48 143.96 26.12 149.5 26.12 134.29"/><polygon class="cls-1" points="42.04 104.25 26.15 112.51 26.15 131.25 39.01 124.56 42.04 104.25"/><polygon class="cls-2" points="42.04 104.25 26.15 95.95 10.3 104.25 26.15 112.51 42.04 104.25"/><polygon class="cls-3" points="26.15 112.51 10.3 104.25 13.26 124.53 26.15 131.25 26.15 112.51"/><polygon class="cls-1" points="47.52 72.36 26.14 83.47 26.14 108.69 42.04 100.42 47.52 72.36"/><polygon class="cls-2" points="47.52 72.36 26.14 61.19 4.82 72.36 26.14 83.47 47.52 72.36"/><polygon class="cls-3" points="26.14 83.47 4.82 72.36 10.3 100.43 26.14 108.69 26.14 83.47"/><polygon class="cls-1" points="52.34 33.66 26.14 47.28 26.14 78.19 47.52 67.07 52.34 33.66"/><polygon class="cls-2" points="52.34 33.66 26.14 19.97 0 33.66 26.14 47.28 52.34 33.66"/><polygon class="cls-3" points="26.14 47.28 0 33.66 4.82 67.08 26.14 78.19 26.14 47.28"/><polygon class="cls-4" points="34.93 4.62 26.1 9.21 26.09 37.56 34.92 32.97 34.93 4.62"/><polygon class="cls-5" points="34.93 4.62 26.1 0 17.29 4.62 26.1 9.21 34.93 4.62"/><polygon class="cls-6" points="26.1 9.21 17.29 4.62 17.29 33 26.1 37.59 26.1 9.21"/></g></g></svg>