<svg xmlns="http://www.w3.org/2000/svg" viewBox="0 0 108.57 138.91"><defs><style>.cls-1{fill:#666;}.cls-1,.cls-2,.cls-3,.cls-4,.cls-5,.cls-6,.cls-7{fill-rule:evenodd;}.cls-2{fill:#919191;}.cls-3{fill:#bbb;}.cls-4{fill:#d5d5d5;}.cls-5{fill:#999;}.cls-6{fill:#d67e7e;}</style></defs><title>cat</title><g id="Layer_2" data-name="Layer 2"><g id="Layer_1-2" data-name="Layer 1"><polygon class="cls-1" points="30.71 124.34 30.71 62.83 22.24 58.51 30.71 54.02 39.12 58.51 39.12 119.84 30.71 124.34"/><polygon class="cls-2" points="30.71 124.34 22.24 119.84 22.24 58.51 30.71 62.83 30.71 124.34"/><polygon class="cls-1" points="89.45 117.19 89.45 79.3 80.99 74.98 89.45 70.49 97.86 74.98 97.86 112.7 89.45 117.19"/><polygon class="cls-2" points="89.45 117.19 80.99 112.7 80.99 74.98 89.45 79.3 89.45 117.19"/><polygon class="cls-1" points="53.63 136.6 53.63 57.82 45.16 53.5 53.63 49.01 62.04 53.5 62.04 132.11 53.63 136.6"/><polygon class="cls-2" points="53.63 136.6 45.16 132.11 45.16 53.5 53.63 57.82 53.63 136.6"/><polygon class="cls-2" points="94.28 3.69 101.43 7.43 101.43 16.47 94.28 12.79 94.28 3.69"/><polygon class="cls-1" points="101.43 7.43 108.57 3.69 108.57 12.79 101.43 16.47 101.43 7.43"/><polygon class="cls-3" points="94.28 3.69 101.43 0 108.57 3.69 101.43 7.43 94.28 3.69"/><polygon class="cls-2" points="94.28 11.13 94.28 58.77 87.14 55.04 87.14 7.41 94.28 11.13"/><polygon class="cls-1" points="94.28 58.77 94.28 11.13 101.43 7.41 101.43 55.04 94.28 58.77"/><polygon class="cls-3" points="101.43 7.41 94.28 11.13 87.14 7.41 94.28 3.68 101.43 7.41"/><polygon class="cls-2" points="79.98 51.34 87.13 55.08 87.13 64.12 79.98 60.44 79.98 51.34"/><polygon class="cls-1" points="87.13 55.08 94.27 51.34 94.27 60.44 87.13 64.12 87.13 55.08"/><polygon class="cls-3" points="79.98 51.34 87.13 47.65 94.27 51.34 87.13 55.08 79.98 51.34"/><polygon class="cls-1" points="98.5 92.08 60.66 111.78 60.66 107.58 60.66 107.55 60.66 95.42 52.48 99.69 40.79 105.73 40.79 101.13 40.79 75.04 74.31 57.59 74.31 73.51 98.44 60.93 98.5 60.93 98.5 79.59 98.5 92.08"/><polygon class="cls-3" points="40.79 75.04 1.45 54.53 34.97 37.03 59.56 49.9 68.55 45.2 98.44 60.93 74.31 73.51 74.31 57.59 40.79 75.04"/><polygon class="cls-2" points="40.79 105.73 1.45 85.29 1.45 80.68 1.45 54.53 40.79 75.04 40.79 101.13 40.79 105.73"/><polygon class="cls-4" points="1.45 85.29 40.79 105.73 40.79 117.89 1.45 97.44 1.45 85.29"/><path class="cls-5" d="M60.66,111.78,98.5,92.08v4.27L60.66,116Zm-19.87,6.11V105.73l11.69-6,8.18-4.27v12.13l-8.18,4.26Z"/><polygon class="cls-1" points="49.43 138.85 49.43 132.72 53.63 130.56 53.63 136.6 49.43 138.85"/><polygon class="cls-2" points="49.43 138.85 49.37 138.91 45.22 136.72 40.96 134.42 40.96 132.69 40.96 128.37 49.43 132.69 49.43 132.72 49.43 138.85"/><polygon class="cls-3" points="40.96 128.37 45.22 126.06 53.63 130.56 49.43 132.72 49.43 132.69 40.96 128.37"/><polygon class="cls-2" points="27.55 42.89 27.55 59.26 12.33 51.36 12.33 34.99 19.96 31.66 27.55 42.89"/><polygon class="cls-3" points="35.14 38.94 27.55 42.89 19.96 31.66 27.61 27.68 35.14 38.89 35.14 38.94"/><path class="cls-1" d="M20,31.66,12.33,35,20,31l7.58-3.3Zm7.58,11.23,7.59-4V55.36l-7.59,3.9Z"/><polygon class="cls-2" points="9.28 89.61 12.42 91.25 15.45 96.52 19.82 95.14 21.61 96.06 21.61 104.64 18.5 103.03 18.5 107.98 15.45 106.37 12.34 104.75 12.34 99.8 9.28 98.19 9.28 89.61"/><polygon class="cls-1" points="18.5 107.98 18.5 103.03 21.61 104.64 21.61 96.06 26.91 93.35 26.91 101.88 23.8 103.49 23.8 105.22 21.61 106.37 18.56 107.98 18.5 107.98"/><polygon class="cls-3" points="12.42 91.25 9.28 89.61 14.58 86.9 26.91 93.35 21.61 96.06 19.82 95.14 12.42 91.25"/><polygon class="cls-6" points="19.82 95.14 15.45 96.52 12.42 91.25 19.82 95.14"/><polygon class="cls-2" points="47.15 52.89 47.15 69.26 31.93 61.36 31.93 44.99 39.56 41.66 47.15 52.89"/><polygon class="cls-3" points="54.74 48.94 47.15 52.89 39.56 41.66 47.2 37.69 54.74 48.89 54.74 48.94"/><path class="cls-1" d="M39.56,41.66,31.93,45l7.69-4,7.58-3.3Zm7.59,11.23,7.59-4V65.36l-7.59,3.9Z"/><polygon class="cls-3" points="11.07 68.69 0 62.92 5.61 60.04 16.58 65.81 11.07 68.69"/><polygon class="cls-1" points="11.07 68.69 16.58 65.81 16.58 78.89 11.07 81.72 11.07 68.69"/><polygon class="cls-2" points="0 62.92 11.07 68.69 11.07 81.72 0 75.95 0 62.92"/><polygon class="cls-7" points="3.33 73.66 3.33 67.89 8.28 70.47 8.28 76.23 3.33 73.66"/><polygon class="cls-3" points="30.12 78.94 19.05 73.17 24.66 70.29 35.63 76.06 30.12 78.94"/><polygon class="cls-1" points="35.63 76.06 35.63 89.14 30.12 91.97 30.12 78.94 35.63 76.06"/><polygon class="cls-2" points="19.05 73.17 30.12 78.94 30.12 91.97 19.05 86.2 19.05 73.17"/><polygon class="cls-7" points="22.38 83.91 22.38 78.14 27.33 80.72 27.33 86.48 22.38 83.91"/><polygon class="cls-1" points="26.5 120.48 30.71 118.29 30.71 124.34 26.5 126.58 26.5 120.48"/><polygon class="cls-2" points="18.04 116.1 26.5 120.42 26.5 120.48 26.5 126.58 26.45 126.64 22.3 124.45 18.04 122.15 18.04 120.42 18.04 116.1"/><polygon class="cls-3" points="30.71 118.29 26.5 120.48 26.5 120.42 18.04 116.1 22.3 113.8 30.71 118.29"/><polygon class="cls-1" points="85.25 119.44 85.25 113.34 89.45 111.15 89.45 117.19 85.25 119.44"/><polygon class="cls-2" points="85.25 113.34 85.25 119.44 85.19 119.5 81.05 117.31 76.78 115.01 76.78 113.28 76.78 108.96 85.25 113.28 85.25 113.34"/><polygon class="cls-3" points="89.45 111.15 85.25 113.34 85.25 113.28 76.78 108.96 81.05 106.66 89.45 111.15"/></g></g></svg>