<svg xmlns="http://www.w3.org/2000/svg" viewBox="0 0 101.91 55.49"><defs><style>.cls-1{fill:#f9d212;}.cls-1,.cls-2,.cls-3,.cls-4{fill-rule:evenodd;}.cls-2{fill:#fffa39;}.cls-3{fill:#f7931e;}.cls-4{fill:#fbb03b;}</style></defs><title>cheese</title><g id="Layer_2" data-name="Layer 2"><g id="Layer_2-2" data-name="Layer 2"><polyline class="cls-1" points="0 54.53 71.66 23.49 87.92 55.49"/><polyline class="cls-2" points="87.42 0 79.54 11.75 71.66 23.49 0 54.53 19.17 27.27"/><polyline class="cls-3" points="87.42 0 101.91 31.18 87.92 55.49 71.66 23.49"/><polygon class="cls-4" points="70.6 38.24 64.44 34.56 67.87 29.48 72.49 31.72 70.6 38.24"/><polygon class="cls-4" points="25.04 34.62 20.31 33.35 23.74 28.27 28.36 30.52 25.04 34.62"/><polygon class="cls-4" points="65.64 53.87 59.01 48.74 65.14 43.24 69.86 49.78 65.64 53.87"/><polygon class="cls-4" points="39.7 42.61 40.35 49.76 34.22 49.97 33.32 44.91 39.7 42.61"/><polygon class="cls-4" points="55.55 26.59 50.72 24.99 54.74 21.97 57.65 23.7 55.55 26.59"/><polyline class="cls-4" points="71.66 23.49 87.92 55.49 86.17 55.49 69.88 24.28"/><polyline class="cls-4" points="87.42 0 71.66 23.49 69.88 24.28 85.7 0.63"/></g></g></svg>