<svg xmlns="http://www.w3.org/2000/svg" viewBox="0 0 147.16 97.9"><defs><style>.cls-1{fill:#838341;}.cls-1,.cls-10,.cls-11,.cls-12,.cls-13,.cls-14,.cls-15,.cls-16,.cls-17,.cls-2,.cls-3,.cls-4,.cls-5,.cls-6,.cls-7,.cls-8,.cls-9{fill-rule:evenodd;}.cls-2{fill:#737d46;}.cls-3{fill:#777f49;}.cls-4{fill:#a7873f;}.cls-5{fill:#525e33;}.cls-6{fill:#81913c;}.cls-7{fill:#4d7a38;}.cls-8{fill:#83a530;}.cls-9{fill:#70913c;}.cls-10{fill:#5f913c;}.cls-11{fill:#5f9746;}.cls-12{fill:#456f33;}.cls-13{fill:#f4f2f0;}.cls-14{fill:#c1b5a4;}.cls-15{fill:#e3dcd7;}.cls-16{fill:#333;}.cls-17{fill:#c97067;}</style></defs><title>cricket</title><g id="Layer_2" data-name="Layer 2"><g id="Layer_3" data-name="Layer 3"><polygon class="cls-1" points="71 2.4 62.38 38.57 66.42 35.25 71 5.15 71 2.4"/><polygon class="cls-2" points="62.03 44.45 71 2.4 69.75 0.52 58.65 43.42 62.03 44.45"/><polygon class="cls-1" points="71 2.4 74.12 48.74 78.83 46.38 74.12 0.77 71 2.4"/><polygon class="cls-3" points="74.12 48.74 71 2.4 71 2.4 70.94 47.55 74.12 48.74"/><polygon class="cls-4" points="72.15 0 69.75 0.52 71 2.4 74.12 0.77 72.15 0"/><polygon class="cls-1" points="55.9 74.69 61.28 77.67 61.46 81.55 55.9 78.75 55.9 74.69"/><polygon class="cls-5" points="61.28 77.67 66.04 74.37 66.04 78.81 61.46 81.55 61.28 77.67"/><polygon class="cls-4" points="66.04 74.37 61.28 77.67 55.9 74.69 62.65 72.59 66.04 74.37"/><polygon class="cls-1" points="31.8 81.62 37.18 84.6 37.36 88.48 31.8 85.68 31.8 81.62"/><polygon class="cls-5" points="37.18 84.6 41.94 81.3 41.94 85.74 37.36 88.48 37.18 84.6"/><polygon class="cls-4" points="41.94 81.3 37.18 84.6 31.8 81.62 38.55 79.52 41.94 81.3"/><polygon class="cls-6" points="92.03 43.38 54.04 53.33 51.18 85.16 34.98 73.32 34.98 43.42 73.04 33.42 92.03 43.38"/><polygon class="cls-7" points="51.18 85.16 54.04 53.33 92.03 43.38 92.03 65.84 51.18 85.16"/><polygon class="cls-6" points="54.04 53.33 36.39 57.41 36.36 57.41 36.36 80.32 17.34 70.43 17.34 47.48 34.98 43.42 54.04 53.33"/><polygon class="cls-7" points="36.36 80.32 36.36 57.41 36.39 57.41 54.04 53.33 51.18 85.16 36.36 80.37 36.36 80.32"/><polygon class="cls-6" points="0 61.47 14.85 68.29 14.85 78.7 0 72.16 0 61.47"/><polygon class="cls-7" points="14.85 68.29 36.36 57.41 36.36 80.32 14.85 78.7 14.85 68.29"/><polygon class="cls-8" points="14.85 68.29 0 61.47 17.34 47.48 36.36 57.41 14.85 68.29"/><path class="cls-7" d="M92,43.36l22.73-9.78,26-15.6,6.43,3.17L114.75,49.24l-9,6.57L92,65.83Z"/><polygon class="cls-9" points="114.75 33.58 92.02 43.36 73.03 33.41 100.38 26.05 114.75 33.58"/><polygon class="cls-10" points="135.63 15.1 140.73 17.98 114.75 33.58 100.38 26.05 135.63 15.1"/><polygon class="cls-1" points="103.07 15.79 94.83 54.42 98.88 51.1 103.46 18.25 103.07 15.79"/><polygon class="cls-2" points="94.83 54.42 103.8 12.37 101.26 9.41 89.13 51.43 94.83 54.42"/><polygon class="cls-1" points="99.11 73.47 110.64 79.46 110.64 83.93 99.11 77.94 99.11 73.47"/><polygon class="cls-5" points="110.64 79.46 124.91 69.57 124.91 74.01 110.64 83.93 110.64 79.46"/><polygon class="cls-2" points="124.91 69.57 110.64 79.46 99.11 73.47 118.07 65.98 124.91 69.57"/><polygon class="cls-6" points="32.44 72.86 35.36 74.38 35.36 81.28 32.43 79.75 32.43 72.86 32.44 72.86"/><polygon class="cls-11" points="35.36 81.28 35.36 74.38 41.18 69.03 47.04 68.29 47.04 75.2 41.48 80.06 35.36 81.28"/><polygon class="cls-8" points="38.28 67.51 41.18 69.03 35.36 74.38 32.44 72.86 38.28 67.51"/><polygon class="cls-12" points="41.18 69.03 38.28 67.51 44.12 66.77 47.04 68.29 41.18 69.03"/><polygon class="cls-13" points="18.97 67.99 21.09 69.1 25.37 66.88 23.2 65.76 18.97 67.99"/><polygon class="cls-14" points="18.97 67.99 18.97 73.04 21.09 74.13 21.09 69.1 18.97 67.99"/><polygon class="cls-15" points="21.09 69.1 21.09 74.13 25.37 71.91 25.37 66.88 21.09 69.1"/><polygon class="cls-16" points="24.22 71.17 24.22 68.94 22.31 69.94 22.31 72.16 24.22 71.17"/><polygon class="cls-1" points="103.8 12.37 114.75 71.4 119.47 69.03 106.94 10.02 103.8 12.37"/><polygon class="cls-3" points="114.75 71.4 103.8 12.37 103.07 15.79 111.58 70.2 114.75 71.4"/><polygon class="cls-4" points="103.8 12.37 101.26 9.41 104.8 8.73 106.94 10.02 103.8 12.37"/><polygon class="cls-1" points="54.6 61.11 62.78 66.77 62.75 71.66 54.53 66.77 54.6 61.11"/><polygon class="cls-4" points="59.98 65.02 54.6 61.11 59.5 59.52 64.11 63.84 59.98 65.02"/><polygon class="cls-1" points="66.03 95.19 59.3 91.7 62.66 89.65 62.78 66.77 66.03 68.79 66.03 88.39 66.03 95.19"/><polygon class="cls-5" points="68.68 67.98 69.45 93.07 66.03 95.19 66.03 88.39 66.03 68.79 68.68 67.98"/><polygon class="cls-4" points="59.98 65.02 64.11 63.84 68.68 67.98 66.03 68.79 59.98 65.02"/><polygon class="cls-1" points="55.9 91.04 61.28 94.02 61.46 97.9 55.9 95.1 55.9 91.04"/><polygon class="cls-5" points="61.28 94.02 66.04 90.72 66.04 95.16 61.46 97.9 61.28 94.02"/><polygon class="cls-4" points="66.04 90.72 61.28 94.02 55.9 91.04 62.65 88.94 66.04 90.72"/><polygon class="cls-1" points="78.55 54.79 86.72 60.45 86.7 65.34 78.47 60.45 78.55 54.79"/><polygon class="cls-4" points="83.92 58.7 78.55 54.79 83.45 53.2 88.06 57.52 83.92 58.7"/><polygon class="cls-1" points="89.97 88.87 83.24 85.38 86.61 83.33 86.72 60.45 89.97 62.47 89.97 82.07 89.97 88.87"/><polygon class="cls-5" points="92.63 61.66 93.4 86.75 89.97 88.87 89.97 82.07 89.97 62.47 92.63 61.66"/><polygon class="cls-4" points="83.92 58.7 88.06 57.52 92.63 61.66 89.97 62.47 83.92 58.7"/><polygon class="cls-1" points="79.84 84.72 85.22 87.7 85.41 91.58 79.84 88.78 79.84 84.72"/><polygon class="cls-5" points="85.22 87.7 89.98 84.4 89.98 88.84 85.41 91.58 85.22 87.7"/><polygon class="cls-4" points="89.98 84.4 85.22 87.7 79.84 84.72 86.59 82.62 89.98 84.4"/><polygon class="cls-1" points="0 72.16 7.42 75.43 14.85 78.7 23.64 79.23 32.43 79.75 34.58 80.87 8.21 78.7 3.71 75.61 0 72.16"/><polygon class="cls-2" points="13.35 58.7 6.15 14.84 5.97 14.39 12.19 58.35 13.35 58.7"/><polygon class="cls-17" points="14.3 57.89 13.35 58.7 5.97 14.39 6.15 14.84 14.3 57.89"/><polygon class="cls-2" points="20.47 61.21 37.48 28.18 37.84 27.23 19.39 60.88 20.47 61.21"/><polygon class="cls-17" points="21.97 59.92 20.47 61.21 37.84 27.23 37.63 27.91 21.97 59.92"/></g></g></svg>