<svg xmlns="http://www.w3.org/2000/svg" viewBox="0 0 111.02 159.6"><defs><style>.cls-1{fill:#4f4743;}.cls-1,.cls-10,.cls-11,.cls-12,.cls-13,.cls-14,.cls-15,.cls-16,.cls-17,.cls-18,.cls-19,.cls-2,.cls-20,.cls-21,.cls-3,.cls-4,.cls-5,.cls-6,.cls-7,.cls-8,.cls-9{fill-rule:evenodd;}.cls-2{fill:#a09388;}.cls-3{fill:#aba398;}.cls-4{fill:#6d635d;}.cls-5{fill:#452f21;}.cls-7{fill:#d9d6d0;}.cls-8{fill:#e9d21b;}.cls-9{fill:#e6ab28;}.cls-10{fill:#ac9c8e;}.cls-11{fill:#383330;}.cls-12{fill:#443933;}.cls-13{fill:#443733;}.cls-14{fill:#f9ea7e;}.cls-15{fill:#fff;}.cls-16{fill:#756a64;}.cls-17{fill:#5e5350;}.cls-18{fill:#3a3531;}.cls-19{fill:#77625a;}.cls-20{fill:#452c21;}.cls-21{fill:#41332e;}.cls-22{fill:#725752;}</style></defs><title>donkey</title><g id="Layer_2" data-name="Layer 2"><g id="Layer_3" data-name="Layer 3"><polygon class="cls-1" points="43.53 4.33 46.31 2.9 46.31 23.07 43.53 24.5 43.53 4.33"/><polygon class="cls-2" points="46.31 2.9 43.53 4.33 38 1.45 40.79 0 46.31 2.88 46.31 2.9"/><polygon class="cls-3" points="41.87 23.64 39.3 22.3 39.34 5.45 41.89 6.79 41.87 23.64"/><polygon class="cls-4" points="43.53 4.33 43.53 24.5 42.59 24.01 42.1 23.75 41.87 23.64 41.87 6.89 39.34 5.45 39.3 22.3 38 21.62 38 1.45 43.53 4.33"/><polygon class="cls-5" points="100.9 130.5 100.9 127.7 100.9 123.94 93.38 120.08 100.9 116.1 108.42 120.08 108.42 123.73 108.42 126.52 100.9 130.5"/><polygon class="cls-6" points="93.38 120.08 100.9 123.94 100.9 127.7 100.9 130.5 93.38 126.52 93.38 123.73 93.38 120.08"/><polygon class="cls-7" points="93.25 58 100.75 54.05 108.29 58 108.29 103.64 100.75 107.63 100.75 61.89 93.25 58"/><polygon class="cls-3" points="100.75 107.63 93.25 103.64 93.25 58 100.75 61.89 100.75 107.63"/><polygon class="cls-7" points="100.75 124.08 100.75 107.63 108.29 103.64 108.29 120.12 100.75 124.08"/><polygon class="cls-3" points="100.75 107.63 100.75 124.08 93.25 120.12 93.25 103.64 100.75 107.63"/><polygon class="cls-5" points="81 119.4 81 116.6 81 112.84 73.48 108.97 81 105 88.52 108.97 88.52 112.63 88.52 115.42 81 119.4"/><polygon class="cls-6" points="73.48 108.97 81 112.84 81 116.6 81 119.4 73.48 115.42 73.48 112.63 73.48 108.97"/><polygon class="cls-8" points="88.45 92.51 80.92 96.5 80.92 50.77 73.41 46.88 80.92 42.93 88.45 46.88 88.45 92.51"/><polygon class="cls-9" points="73.41 46.88 80.92 50.77 80.92 96.5 73.41 92.51 73.41 46.88"/><polygon class="cls-10" points="80.92 112.95 73.41 109 73.41 92.51 80.92 96.5 80.92 112.95"/><polygon class="cls-7" points="88.45 92.51 88.45 109 80.92 112.95 80.92 96.5 88.45 92.51"/><polygon class="cls-5" points="46 159.6 46 156.8 46 153.04 38.48 149.18 46 145.2 53.52 149.18 53.52 152.83 53.52 155.62 46 159.6"/><polygon class="cls-6" points="38.48 149.18 46 153.04 46 156.8 46 159.6 38.48 155.62 38.48 152.83 38.48 149.18"/><polygon class="cls-7" points="53.41 132.67 45.87 136.66 45.87 50.72 38.36 46.83 45.87 42.88 53.41 46.83 53.41 132.67"/><polygon class="cls-3" points="38.36 132.67 38.36 46.83 45.87 50.72 45.87 136.66 38.36 132.67"/><polygon class="cls-7" points="53.41 132.67 53.41 149.16 45.87 153.11 45.87 136.66 53.41 132.67"/><polygon class="cls-3" points="38.36 132.67 45.87 136.66 45.87 153.11 38.36 149.16 38.36 132.67"/><polygon class="cls-5" points="26.15 148.5 26.15 145.7 26.15 141.94 18.63 138.07 26.15 134.1 33.67 138.07 33.67 141.73 33.67 144.52 26.15 148.5"/><polygon class="cls-6" points="18.63 138.07 26.15 141.94 26.15 145.7 26.15 148.5 18.63 144.52 18.63 141.73 18.63 138.07"/><polygon class="cls-7" points="18.53 35.71 26.03 31.75 33.57 35.71 33.57 121.55 26.03 125.54 26.03 39.59 18.53 35.71"/><polygon class="cls-3" points="26.03 125.54 18.53 121.55 18.53 35.71 26.03 39.59 26.03 125.54"/><polygon class="cls-7" points="33.57 121.55 33.57 138.03 26.03 141.99 26.03 125.54 33.57 121.55"/><polygon class="cls-3" points="18.53 121.55 26.03 125.54 26.03 141.99 18.53 138.03 18.53 121.55"/><polygon class="cls-8" points="98.01 48 98.01 58.41 89.86 54.17 89.86 43.76 98.01 48"/><polygon class="cls-11" points="107.55 43.02 98.01 48 89.86 43.76 99.41 38.77 107.55 43.02"/><polygon class="cls-1" points="98.01 58.41 98.01 48 107.55 43.02 107.55 53.44 98.01 58.41"/><polygon class="cls-4" points="49.74 86.74 16.44 69.35 77.72 37.42 111.02 54.78 49.74 86.74"/><polygon class="cls-7" points="49.74 126.08 49.74 86.74 111.02 54.78 111.02 94.18 49.74 126.08"/><polygon class="cls-3" points="49.74 126.08 16.44 108.76 16.44 69.35 49.74 86.74 49.74 126.08"/><polygon class="cls-12" points="66.12 26.58 52.97 33.38 41.62 39.24 41.62 26.25 63.57 15.66 66.12 26.58"/><polygon class="cls-13" points="52.97 33.38 66.12 26.58 66.12 62.8 58.98 67.76 52.97 33.38"/><polygon class="cls-1" points="24.78 50.06 24.78 49.99 47.8 37.96 65.02 46.91 65.02 50.41 65.02 52.99 65.02 55.99 65.02 58.57 65.02 61.55 65.02 64.13 65.02 70.53 41.84 82.59 41.84 58.93 24.78 50.06"/><polygon class="cls-11" points="41.84 82.59 24.78 73.68 24.78 50.06 41.84 58.93 41.84 82.59"/><polygon class="cls-11" points="49.74 86.69 49.74 104.26 49.74 121.83 16.44 104.52 16.44 69.35 49.74 86.69"/><path class="cls-1" d="M41.78,58.94V35.29L60,25.82,65,46.88Q59.9,52.75,41.78,58.94Z"/><path class="cls-4" d="M60,25.82,41.78,35.29V58.94L24.73,50V26.34l18.11-9.46ZM30.31,37l7.15-3.88Zm-5.58-6.13,4.12-2.23Z"/><path d="M29.87,37.2a.49.49,0,0,1,.2-.68h0l7.15-3.88a.49.49,0,0,1,.68.2h0a.49.49,0,0,1-.2.67h0L30.54,37.4a.46.46,0,0,1-.23.06h0a.49.49,0,0,1-.44-.26Zm-8.62-4.49a.5.5,0,0,1,.21-.68h0l3-1.64,4.12-2.23a.51.51,0,0,1,.68.2h0a.5.5,0,0,1-.21.68h0L25,31.27l-3,1.64a.5.5,0,0,1-.24.06h0a.5.5,0,0,1-.44-.26Z"/><polygon class="cls-1" points="34.44 62.76 34.44 39.12 41.78 35.32 41.78 58.94 34.44 62.76"/><polygon class="cls-4" points="41.78 35.32 34.44 39.12 34.44 39.11 30.31 36.96 28.98 36.27 27.98 35.74 25.98 34.7 22.48 32.88 21.69 32.47 17.39 30.23 24.56 26.38 28.85 28.6 33.15 30.85 35.18 31.89 37.46 33.08 41.78 35.32"/><polygon class="cls-3" points="34.44 39.12 34.44 62.76 17.39 53.85 17.39 48.24 17.39 30.23 21.69 32.47 22.48 32.88 25.98 34.7 27.98 35.74 28.98 36.27 30.31 36.96 34.44 39.11 34.44 39.12"/><polygon class="cls-14" points="16.44 52.17 16.41 52.17 16.41 52.13 16.44 52.17"/><polygon class="cls-7" points="16.41 70.09 16.41 52.17 16.44 52.17 32.32 43.76 32.32 61.65 16.41 70.09"/><polygon class="cls-15" points="32.32 43.76 16.44 52.17 16.41 52.13 16.41 52.17 16.41 70.09 3.47 63.32 3.47 45.4 19.29 36.96 22.54 38.66 25.79 40.34 29.04 42.05 32.32 43.76"/><polygon class="cls-2" points="16.92 51.87 2.98 44.6 10.22 40.61 24.29 47.95 16.92 51.87"/><polygon class="cls-16" points="13.94 66.11 0 58.88 2.98 44.6 16.92 51.87 13.94 66.11"/><polygon class="cls-17" points="13.94 66.11 16.92 51.87 24.29 47.95 24.29 67.25 16.15 71.57 13.94 66.11"/><polygon class="cls-18" points="0 58.88 13.94 66.11 16.15 71.57 16.05 71.62 2.21 64.34 0 58.88"/><polygon class="cls-7" points="49.92 36.94 42.02 41.05 42.02 50.35 49.92 46.23 49.92 36.94"/><polygon class="cls-15" points="42.02 41.05 49.92 36.94 45.91 34.88 38.09 38.99 42.02 41.05"/><polygon class="cls-3" points="38.09 38.99 38.09 48.33 42.02 50.35 42.02 41.05 38.09 38.99"/><polygon class="cls-6" points="44.06 42.26 44.06 46.37 47.58 44.54 47.58 40.42 44.06 42.26"/><polygon class="cls-19" points="57.01 7.04 32.77 19.59 29.82 18.05 32.77 16.54 54.06 5.5 57.01 7.04"/><polygon class="cls-12" points="32.77 19.59 57.01 7.04 63.62 15.67 32.77 31.62 32.77 19.59"/><polygon class="cls-20" points="32.77 19.59 32.77 31.62 29.82 30.07 29.82 18.05 32.77 19.59"/><polygon class="cls-21" points="7.5 54.94 6.9 57.78 4.12 56.34 4.72 53.49 7.5 54.94"/><polygon class="cls-21" points="11.75 57.19 11.15 60.03 8.37 58.59 8.97 55.74 11.75 57.19"/><polygon class="cls-1" points="110.94 54.71 110.94 72.28 110.94 89.85 49.65 121.76 49.65 86.67 80.39 70.77 110.94 54.71"/><line class="cls-22" x1="29.37" y1="63.16" x2="27.53" y2="64.16"/><polygon class="cls-1" points="53.22 8.52 56.01 7.1 56.01 27.27 53.22 28.7 53.22 8.52"/><polygon class="cls-2" points="56.01 7.1 53.22 8.52 47.69 5.64 50.48 4.2 56.01 7.07 56.01 7.1"/><polygon class="cls-3" points="51.56 27.83 48.99 26.5 49.03 9.65 51.58 10.98 51.56 27.83"/><polygon class="cls-4" points="53.22 8.52 53.22 28.7 52.28 28.2 51.79 27.95 51.56 27.83 51.56 11.08 49.03 9.65 48.99 26.5 47.69 25.82 47.69 5.64 53.22 8.52"/></g></g></svg>