<svg xmlns="http://www.w3.org/2000/svg" viewBox="0 0 133.22 150.05"><defs><style>.cls-1{fill:#70593a;}.cls-1,.cls-10,.cls-11,.cls-12,.cls-13,.cls-14,.cls-15,.cls-16,.cls-17,.cls-18,.cls-19,.cls-2,.cls-20,.cls-21,.cls-22,.cls-23,.cls-24,.cls-25,.cls-26,.cls-27,.cls-28,.cls-29,.cls-3,.cls-30,.cls-31,.cls-32,.cls-33,.cls-34,.cls-35,.cls-36,.cls-4,.cls-5,.cls-6,.cls-7,.cls-8,.cls-9{fill-rule:evenodd;}.cls-2{fill:#4c3e31;}.cls-3{fill:#423125;}.cls-4{fill:#e9d21b;}.cls-5{fill:#b59575;}.cls-6{fill:#5e4733;}.cls-7{fill:#b8722e;}.cls-8{fill:#7a4b1f;}.cls-9{fill:#a46628;}.cls-10{fill:#66401a;}.cls-11{fill:#852;}.cls-12{fill:#e6ab28;}.cls-13{fill:#f9ea7e;}.cls-14{fill:#3a2b20;}.cls-15{fill:#fff;}.cls-16{fill:#84766a;}.cls-17{fill:#493629;}.cls-18{fill:#49392b;}.cls-19{fill:#352a1c;}.cls-20{fill:#f7cfaa;}.cls-21{fill:#e25836;}.cls-22{fill:#f4f4f4;}.cls-23{fill:#e0e0e0;}.cls-24{fill:#eae8e8;}.cls-25{fill:#e5e5e5;}.cls-26{fill:#eaeaea;}.cls-27{fill:#b5b5b5;}.cls-28{fill:#b68616;}.cls-29{fill:#a43428;}.cls-30{fill:#c4c4c0;}.cls-31{fill:#f4f2f0;}.cls-32{fill:#c1b5a4;}.cls-33{fill:#e3dcd7;}.cls-34{fill:#333;}.cls-35{fill:#e8e8e8;}.cls-36{fill:#d8d8d8;}</style></defs><title>eagle</title><g id="Layer_2" data-name="Layer 2"><g id="Layer_1-2" data-name="Layer 1"><polygon class="cls-1" points="44.99 23.37 59.55 22.68 59.55 71.36 59.55 96.16 30.48 86.51 30.48 37.83 44.99 23.37"/><polygon class="cls-2" points="34.26 17.74 44.99 23.37 30.48 37.83 19.73 32.27 19.73 32.22 34.26 17.74"/><path class="cls-3" d="M45,23.37,34.26,17.74l14.54-.69,10.75,5.63ZM30.48,37.83V86.51L19.73,81V32.27Z"/><polygon class="cls-4" points="63.37 89.15 86.69 101.28 86.69 115.05 63.37 102.92 63.37 89.15"/><polygon class="cls-5" points="133.22 108.27 86.69 101.28 63.37 89.15 109.95 96.08 133.22 108.27"/><polygon class="cls-6" points="86.69 101.28 133.22 108.27 133.22 122.01 86.69 115.05 86.69 101.28"/><polygon class="cls-7" points="103.11 138.58 79.47 126.31 79.46 126.31 79.47 126.27 89.14 121.26 112.8 133.55 103.11 138.58"/><polygon class="cls-8" points="103.11 138.58 112.8 133.55 112.8 144.99 103.11 150.05 103.11 138.58"/><polygon class="cls-9" points="79.47 126.31 103.11 138.58 103.11 150.05 79.47 137.76 79.47 126.31"/><polygon class="cls-10" points="79.47 126.31 79.47 137.76 0 96.44 0 85 79.46 126.31 79.47 126.31"/><polygon class="cls-11" points="89.14 121.26 79.47 126.27 79.46 126.31 0 85 9.69 79.94 89.14 121.26"/><polygon class="cls-12" points="60.99 131.83 60.99 118.77 63.53 117.4 63.53 130.56 60.99 131.83"/><polygon class="cls-13" points="63.53 117.4 60.99 118.77 58.45 117.4 60.99 116.08 63.53 117.4"/><polygon class="cls-4" points="60.99 118.77 60.99 131.83 58.45 130.56 58.45 117.4 60.99 118.77"/><polygon class="cls-12" points="65.01 133.99 65.01 120.94 67.55 119.57 67.55 132.72 65.01 133.99"/><polygon class="cls-13" points="62.47 119.57 65.01 118.25 67.55 119.57 65.01 120.94 62.47 119.57"/><polygon class="cls-4" points="65.01 120.94 65.01 133.99 62.47 132.72 62.47 119.57 65.01 120.94"/><polygon class="cls-12" points="69.06 136.15 69.06 123.09 71.6 121.72 71.6 134.87 69.06 136.15"/><polygon class="cls-13" points="69.06 123.09 66.52 121.72 69.06 120.4 71.6 121.72 69.06 123.09"/><polygon class="cls-4" points="69.06 123.09 69.06 136.15 66.52 134.87 66.52 121.72 69.06 123.09"/><polygon class="cls-12" points="31.84 117.03 31.84 103.97 34.38 102.6 34.38 115.76 31.84 117.03"/><polygon class="cls-13" points="34.38 102.6 31.84 103.97 29.3 102.6 31.84 101.28 34.38 102.6"/><polygon class="cls-4" points="31.84 103.97 31.84 117.03 29.3 115.76 29.3 102.6 31.84 103.97"/><polygon class="cls-12" points="35.86 119.19 35.86 106.14 38.4 104.77 38.4 117.92 35.86 119.19"/><polygon class="cls-13" points="38.4 104.77 35.86 106.14 33.32 104.77 35.86 103.45 38.4 104.77"/><polygon class="cls-4" points="35.86 106.14 35.86 119.19 33.32 117.92 33.32 104.77 35.86 106.14"/><polygon class="cls-12" points="39.86 121.39 39.86 108.34 42.4 106.97 42.4 120.12 39.86 121.39"/><polygon class="cls-13" points="37.32 106.97 39.86 105.65 42.4 106.97 39.86 108.34 37.32 106.97"/><polygon class="cls-4" points="39.86 108.34 39.86 121.39 37.32 120.12 37.32 106.97 39.86 108.34"/><polygon class="cls-14" points="28.3 87.77 34.71 105.68 27.43 99.38 21.82 44.65 28.3 48 28.3 87.77"/><polygon class="cls-15" points="55.51 62.13 55.47 62.13 28.3 48 39.26 42.24 47.75 37.83 74.99 51.97 66.47 56.41 55.51 62.13"/><polygon class="cls-16" points="55.47 62.13 55.47 101.9 28.3 87.77 28.3 48 55.47 62.13"/><polygon class="cls-17" points="72.6 122.74 62.54 65.81 103.15 44.65 103.15 52.29 103.15 74.08 114.26 105.07 83.7 120.99 83.7 120.99 72.6 122.74"/><polygon class="cls-18" points="103.15 44.65 62.54 65.81 55.51 62.13 66.47 56.41 74.99 51.97 47.75 37.83 39.26 42.24 28.3 48 21.82 44.65 62.54 23.34 68.98 26.73 96.12 40.93 103.15 44.65"/><polygon class="cls-14" points="62.54 65.81 72.6 122.74 60.73 117.26 34.71 105.68 28.3 87.77 55.47 101.9 55.47 62.13 55.51 62.13 62.54 65.81"/><polygon class="cls-19" points="92.49 48.07 107.05 47.38 107.05 96.06 101.3 108.73 77.97 111.21 77.97 62.53 92.49 48.07"/><polygon class="cls-2" points="81.76 42.44 92.49 48.07 77.97 62.53 67.22 56.97 67.22 56.92 81.76 42.44"/><path class="cls-3" d="M92.49,48.07,81.76,42.44l14.54-.7,10.75,5.64ZM78,62.53v48.68l-10.75-5.55V57Z"/><polygon class="cls-20" points="34.63 32.4 50.09 24.32 65.49 32.4 50.09 40.41 34.63 32.4"/><polygon class="cls-21" points="65.49 32.4 65.49 51.34 50.09 59.38 34.63 51.34 34.63 32.4 50.09 40.41 65.49 32.4"/><polygon class="cls-22" points="67.79 21.92 52.38 29.93 36.94 21.92 52.38 13.83 67.79 13.83 67.79 21.92"/><polygon class="cls-23" points="52.38 63.7 52.38 29.93 67.79 21.92 67.79 55.72 52.38 63.7"/><polygon class="cls-24" points="52.38 29.93 52.38 63.7 36.94 56.72 36.94 21.92 52.38 29.93"/><g id="glowa"><polygon class="cls-22" points="23.96 13.73 50.24 0 76.45 13.73 50.24 27.39 23.96 13.73"/><polygon class="cls-25" points="50.24 27.39 76.45 13.73 76.45 44.73 50.24 58.39 50.24 27.39"/><polygon class="cls-26" points="23.96 13.73 50.24 27.39 50.24 58.39 23.96 44.73 23.96 13.73"/><polygon class="cls-27" points="43.06 26.45 43.06 39.92 40.2 41.41 43.06 42.91 43.06 51.8 29.22 54.35 22.26 50.74 22.26 47.37 13.99 48.04 13.99 38.25 33.37 21.35 43.06 26.45"/><polygon class="cls-4" points="27.91 50.9 27.91 54.69 20.96 51.09 20.96 47.3 27.91 50.9"/><polygon class="cls-28" points="41.76 43.26 41.76 52.14 27.91 54.69 27.91 50.9 41.76 43.26"/><polygon class="cls-29" points="41.76 43.26 27.91 50.9 20.96 47.3 34.84 39.61 41.76 43.26"/><polygon class="cls-12" points="22.41 53.41 22.41 44.46 41.76 26.79 41.76 40.26 26.79 48.06 22.41 53.41"/><polygon class="cls-13" points="41.76 26.79 22.41 44.46 12.69 39.25 32.07 21.69 41.76 26.79"/><polygon class="cls-4" points="22.41 44.46 22.41 53.41 12.69 48.38 12.69 39.25 22.41 44.46"/><polygon class="cls-30" points="61.17 43.36 57.2 41.29 57.2 31.85 65.1 27.7 69.15 29.78 69.15 39.18 61.17 43.36"/><polygon class="cls-31" points="54.92 30.05 58.89 32.13 66.88 27.96 62.83 25.88 54.92 30.05"/><polygon class="cls-32" points="54.92 30.05 54.92 39.48 58.89 41.52 58.89 32.13 54.92 30.05"/><polygon class="cls-33" points="58.89 32.13 58.89 41.52 66.88 37.36 66.88 27.96 58.89 32.13"/><polygon class="cls-34" points="64.54 35.88 64.54 31.72 60.97 33.58 60.97 37.74 64.54 35.88"/><polygon class="cls-35" points="58.36 30.11 69.78 24.15 69.78 30.91 58.36 36.87 58.36 30.11"/><polygon class="cls-36" points="52.63 27.13 58.36 30.11 58.36 36.87 52.63 33.89 52.63 27.13"/><polygon class="cls-22" points="69.78 24.15 58.36 30.11 52.63 27.13 64.07 21.16 69.78 24.15"/></g></g></g></svg>