<svg xmlns="http://www.w3.org/2000/svg" viewBox="0 0 98.09 63.52"><defs><style>.cls-1{fill:#a67c52;}.cls-1,.cls-2,.cls-3{fill-rule:evenodd;}.cls-2{fill:#754c24;}.cls-3{fill:#39b54a;}</style></defs><title>leaves</title><g id="Layer_2" data-name="Layer 2"><g id="Layer_3" data-name="Layer 3"><polygon class="cls-1" points="2.09 56.25 5.19 54.1 8.29 51.95 50.73 32.71 96.48 9.21 96.48 12.84 49.28 36.01 2.09 56.25"/><polygon class="cls-2" points="5.73 55.62 3.91 55.93 2.09 56.25 49.28 36.01 96.48 12.84 98.09 13.84 51.1 36.93 5.73 55.62"/><path class="cls-3" d="M80.67,18.42,66.46,15.18A14.56,14.56,0,0,1,55.69,5L54.37.37,60.72,0A18.12,18.12,0,0,1,79.08,13Z"/><path class="cls-3" d="M71.29,60.74l-9.2-11.31a14.53,14.53,0,0,1-2.2-14.66l1.81-4.46L66.9,34a18.14,18.14,0,0,1,6.47,21.54Z"/><path class="cls-3" d="M0,36.69l7.74,4a8.71,8.71,0,0,1,4.68,7.53l.06,2.87-3.72-.76A10.85,10.85,0,0,1,.1,40.06Z"/><path class="cls-3" d="M46,36.09,34.12,35a11.91,11.91,0,0,1-9.83-7.12l-1.57-3.61,5.12-1a14.85,14.85,0,0,1,16.29,8.58Z"/><path class="cls-3" d="M28.59,45.53l-4.33,7.12a8.29,8.29,0,0,0-.11,8.48l1.37,2.39,2.67-2.47a10.37,10.37,0,0,0,2-12.71Z"/></g></g></svg>