<svg xmlns="http://www.w3.org/2000/svg" viewBox="0 0 107.71 141.9"><defs><style>.cls-1{fill:#c89d8c;}.cls-1,.cls-10,.cls-11,.cls-12,.cls-13,.cls-14,.cls-15,.cls-16,.cls-17,.cls-18,.cls-19,.cls-2,.cls-3,.cls-4,.cls-5,.cls-6,.cls-7,.cls-8,.cls-9{fill-rule:evenodd;}.cls-2{fill:#af7258;}.cls-3{fill:#dec5ba;}.cls-4{fill:#664733;}.cls-5{fill:#452f21;}.cls-6{fill:#78533a;}.cls-7{fill:#563a29;}.cls-8{fill:#996a4d;}.cls-9{fill:#885f44;}.cls-10{fill:#39241c;}.cls-11{fill:#39211c;}.cls-12{fill:#684b31;}.cls-13{fill:#cda798;}.cls-14{fill:#ac6d53;}.cls-15{fill:#6d4534;}.cls-16{fill:#f4f2f0;}.cls-17{fill:#c1b5a4;}.cls-18{fill:#e3dcd7;}.cls-19{fill:#333;}</style></defs><title>monkey</title><g id="Layer_2" data-name="Layer 2"><g id="Layer_1-2" data-name="Layer 1"><polygon class="cls-1" points="18.82 22.64 18.82 41.04 6.07 34.41 6.07 16.01 18.82 22.64"/><polygon class="cls-2" points="18.82 41.04 18.82 22.64 25.18 19.34 25.18 37.74 18.82 41.04"/><polygon class="cls-3" points="18.82 22.64 6.07 16.01 12.49 12.68 25.18 19.3 25.18 19.34 18.82 22.64"/><polygon class="cls-4" points="0 107.33 13.02 114.09 13.02 121.2 0 114.44 0 107.33"/><polygon class="cls-5" points="13.02 114.09 29.23 105.64 29.25 112.75 13.02 121.2 13.02 114.09"/><polygon class="cls-6" points="29.23 105.64 13.02 114.09 0 107.33 16.28 98.83 29.23 105.61 29.23 105.64"/><polygon class="cls-7" points="25.32 52.67 25.32 81.47 15.54 76.38 15.54 47.57 25.32 52.67"/><polygon class="cls-5" points="25.32 81.47 25.32 52.67 35.06 47.57 35.06 76.38 28.43 105.18 18.69 110.28 25.32 81.47"/><polygon class="cls-6" points="25.32 52.67 15.54 47.57 25.32 42.48 35.06 47.57 25.32 52.67"/><polygon class="cls-4" points="15.54 76.38 25.32 81.47 18.69 110.28 8.91 105.18 15.54 76.38"/><polygon class="cls-7" points="81.85 57.53 81.85 34.52 86.86 37.42 86.86 60.43 81.85 57.53"/><polygon class="cls-6" points="92.62 24.78 87.61 21.92 99.05 16.04 104.1 18.94 98.01 22.05 92.62 24.78"/><polygon class="cls-8" points="81.85 34.52 87.61 21.92 92.62 24.78 86.86 37.42 81.85 34.52"/><polygon class="cls-9" points="83.88 73.52 78.82 70.62 81.85 57.53 86.86 60.43 83.88 73.52"/><polygon class="cls-5" points="104.1 18.94 107.71 24.2 103.56 29.34 101.03 26.15 95.94 28.76 92.12 36.02 92.12 59.56 88.81 75.84 83.88 73.52 86.86 60.43 86.86 37.42 92.62 24.78 98.01 22.05 104.1 18.94"/><polygon class="cls-6" points="28.17 53.05 76.13 67.35 91.79 75.56 43.88 61.22 28.17 53.05"/><polygon class="cls-10" points="43.88 61.22 46.99 90.52 31.28 82.35 28.17 53.05 43.88 61.22"/><polygon class="cls-11" points="43.88 61.22 91.79 75.56 91.79 94.08 46.99 90.52 43.88 61.22"/><polygon class="cls-12" points="69.99 23.62 56.81 30.5 39.99 39.25 9.81 23.62 39.99 7.87 69.99 23.62"/><polygon class="cls-7" points="39.99 39.25 39.99 78.08 9.81 62.46 9.81 23.62 39.99 39.25"/><polygon class="cls-5" points="69.99 23.62 69.99 37.3 69.99 62.5 56.81 69.34 39.99 78.08 39.99 39.25 56.81 30.5 69.99 23.62"/><polygon class="cls-5" points="39.99 23.5 62.49 11.77 69.99 23.62 56.81 30.5 39.99 39.25 39.99 23.5"/><polygon class="cls-6" points="62.49 11.77 39.99 23.5 17.36 11.77 39.99 0 62.49 11.77"/><polygon class="cls-7" points="39.99 23.5 39.99 39.25 9.81 23.62 17.36 11.77 39.99 23.5"/><polygon class="cls-1" points="37.72 54.38 13.04 41.57 13.04 27.72 37.72 40.54 37.72 54.38"/><path class="cls-1" d="M25.15,65.61l-15.5-8V53.8l3.89,2.07V50.48l3.86,2,3.85,2v5.43l3.9,2Zm0,6.88-15.5-8V59.31l15.5,8Z"/><path class="cls-2" d="M25.15,61.88l8-12.52V59.81l-8,5.8Zm-3.9-2V54.46l8.13-7.13Zm3.9,12.6V67.35l8-5.85v9.66Z"/><polygon class="cls-3" points="29.38 47.33 21.25 54.46 17.4 52.47 13.54 50.48 21.71 43.27 29.38 47.33"/><path class="cls-13" d="M21.71,43.27l-8.17,7.21v5.39L9.65,53.8l8.2-12.48Zm11.48,6.09-8,12.52-3.9-2,8.13-12.56,3.81,2Z"/><polygon class="cls-14" points="25.15 67.35 9.65 59.31 9.65 57.57 25.15 65.61 25.15 67.35"/><polygon class="cls-15" points="25.15 67.35 25.15 65.61 33.19 59.81 33.19 61.5 25.15 67.35"/><polygon class="cls-16" points="21.77 34.21 19.2 35.56 14.04 32.87 16.66 31.52 21.77 34.21"/><polygon class="cls-17" points="21.77 34.21 21.77 40.31 19.2 41.64 19.2 35.56 21.77 34.21"/><polygon class="cls-18" points="19.2 35.56 19.2 41.64 14.04 38.95 14.04 32.87 19.2 35.56"/><polygon class="cls-19" points="15.43 37.91 15.43 35.22 17.73 36.42 17.73 39.11 15.43 37.91"/><polygon class="cls-16" points="34.63 40.51 32.05 41.86 26.89 39.17 29.51 37.82 34.63 40.51"/><polygon class="cls-17" points="34.63 40.51 34.63 46.61 32.05 47.94 32.05 41.86 34.63 40.51"/><polygon class="cls-18" points="32.05 41.86 32.05 47.94 26.89 45.24 26.89 39.17 32.05 41.86"/><polygon class="cls-19" points="28.33 44.16 28.33 41.47 30.63 42.67 30.63 45.36 28.33 44.16"/><polygon class="cls-19" points="14.84 55.22 14.84 53.04 16.71 54.01 16.71 56.19 14.84 55.22"/><polygon class="cls-19" points="18.04 56.67 18.04 54.49 19.91 55.46 19.91 57.64 18.04 56.67"/><polygon class="cls-4" points="72.8 103.63 85.82 110.39 85.82 117.5 72.8 110.74 72.8 103.63"/><polygon class="cls-5" points="85.82 110.39 102.03 101.94 102.05 109.05 85.82 117.5 85.82 110.39"/><polygon class="cls-6" points="102.03 101.94 85.82 110.39 72.8 103.63 89.08 95.12 102.03 101.91 102.03 101.94"/><polygon class="cls-5" points="97.85 96.31 97.85 105.57 77.07 107.16 69.26 103.1 69.26 93.79 90.03 92.25 97.85 96.31"/><polygon class="cls-5" points="97.88 82.41 97.88 91.67 77.1 102.49 69.28 98.43 69.28 89.16 77.1 93.26 97.88 82.41"/><path class="cls-6" d="M69.28,89.16,84,81.49l.36-.19.38-.19,5.35-2.79,7.81,4.09L77.1,93.26Z"/><polygon class="cls-4" points="36.8 128.03 49.82 134.79 49.82 141.9 36.8 135.14 36.8 128.03"/><polygon class="cls-5" points="49.82 134.79 66.03 126.34 66.05 133.45 49.82 141.9 49.82 134.79"/><polygon class="cls-6" points="66.03 126.34 49.82 134.79 36.8 128.03 53.08 119.52 66.03 126.31 66.03 126.34"/><polygon class="cls-7" points="52.09 97.03 52.09 68.22 61.87 73.32 61.87 102.13 52.09 97.03"/><polygon class="cls-5" points="71.61 68.22 71.61 97.03 64.98 125.83 55.24 130.93 61.87 102.13 61.87 73.32 71.61 68.22"/><polygon class="cls-6" points="71.61 68.22 61.87 73.32 52.09 68.22 61.87 63.13 71.61 68.22"/><polygon class="cls-4" points="55.24 130.93 45.46 125.83 52.09 97.03 61.87 102.13 55.24 130.93"/><polygon class="cls-1" points="62.24 46.25 62.24 64.65 49.48 58.02 49.48 54.75 57.56 58.94 57.56 55.64 57.56 47.29 52.63 44.74 49.48 43.1 49.48 39.62 62.24 46.25"/><path class="cls-2" d="M62.24,64.65V46.25l6.34-3.31v18.4Zm-4.68-9-4.91-2.55h0V44.74l4.93,2.55Z"/><path class="cls-3" d="M62.24,46.25,49.48,39.62l6.42-3.31L68.58,42.9v0Zm-12.76,8.5,3.17-1.66,4.91,2.55v3.3Z"/></g></g></svg>