<svg xmlns="http://www.w3.org/2000/svg" viewBox="0 0 140.18 108.45"><defs><style>.cls-1{fill:#f9ea7e;}.cls-1,.cls-10,.cls-11,.cls-12,.cls-13,.cls-14,.cls-15,.cls-2,.cls-3,.cls-4,.cls-5,.cls-6,.cls-7,.cls-8,.cls-9{fill-rule:evenodd;}.cls-2{fill:#f1eceb;}.cls-3{fill:#beafaf;}.cls-4{fill:#fff;}.cls-6{fill:#dc8278;}.cls-7{fill:#ca4435;}.cls-8{fill:#d5695e;}.cls-9{fill:#5f4e43;}.cls-10{fill:#2d2420;}.cls-11{fill:#d9d9d9;}.cls-12{fill:#a6a6a6;}.cls-13{fill:#32281b;}.cls-14{fill:#ddd5d5;}.cls-15{fill:#e0dada;}</style></defs><title>mouse</title><g id="Layer_2" data-name="Layer 2"><g id="Layer_1-2" data-name="Layer 1"><polygon class="cls-1" points="71.85 74.9 63.64 79.18 55.41 74.9 63.64 70.6 71.85 74.9"/><polygon class="cls-2" points="63.64 79.18 63.64 108.43 55.41 104.15 55.41 74.9 63.64 79.18"/><polygon class="cls-3" points="63.64 108.43 63.64 79.18 71.85 74.9 71.85 104.15 63.64 108.43"/><polygon class="cls-1" points="122.4 51.93 114.19 56.21 105.96 51.93 114.19 47.63 122.4 51.93"/><polygon class="cls-2" points="114.19 56.21 114.19 85.46 105.96 81.18 105.96 51.93 114.19 56.21"/><polygon class="cls-3" points="114.19 85.46 114.19 56.21 122.4 51.93 122.4 81.18 114.19 85.46"/><polygon class="cls-4" points="140.16 2.36 106.87 19.7 106.87 25.01 102.39 22.69 102.39 17.38 120.36 7.98 120.4 7.98 135.68 0 140.16 2.36"/><polygon class="cls-3" points="140.16 2.36 140.18 2.36 140.18 7.69 133.85 10.97 124.89 15.65 115.88 20.33 106.87 25.01 106.87 19.7 140.16 2.36"/><polygon class="cls-4" points="118.36 25.76 47.21 62.81 12.13 44.6 83.47 7.36 118.36 25.76"/><polygon class="cls-2" points="12.13 44.6 47.21 62.81 47.21 104.18 12.13 85.97 12.13 44.6"/><polygon class="cls-3" points="47.21 62.81 118.36 25.76 118.4 25.8 118.44 67.09 82.18 85.97 47.21 104.18 47.21 62.81"/><path class="cls-5" d="M12.17,90a.12.12,0,0,1-.08,0l-6.68.55a.07.07,0,0,1-.06,0,.12.12,0,0,1,0-.08.07.07,0,0,1,0-.06.2.2,0,0,1,.08,0l6.68-.55a.08.08,0,0,1,.06,0,.09.09,0,0,1,0,.08S12.19,90,12.17,90Zm0-2.87a.08.08,0,0,1,0,.08s0,0,0,.06l-.08,0-9.36-1.5a.07.07,0,0,1,0,0,.08.08,0,0,1,0-.08.09.09,0,0,1,0-.06.12.12,0,0,1,.08,0l9.36,1.49A.07.07,0,0,1,12.21,87.17Zm.36-1.4.06,0a.19.19,0,0,1,0,.08.09.09,0,0,1,0,.06.11.11,0,0,1-.08,0L.06,79.72a.09.09,0,0,1-.06,0,.11.11,0,0,1,0-.08.09.09,0,0,1,0-.06.12.12,0,0,1,.08,0Z"/><polygon class="cls-4" points="36.61 81.02 20.51 86.4 11.59 81.75 21.71 73.25 36.61 81.02"/><polygon class="cls-2" points="8.99 88.06 16.46 91.95 16.41 95.07 12.7 93.15 8.94 91.22 8.99 88.06"/><polygon class="cls-3" points="16.41 95.07 16.46 91.95 20.51 86.4 36.61 81.02 36.61 98.61 16.41 95.07"/><polygon class="cls-6" points="16.46 87.72 9.03 83.88 11.59 81.75 20.51 86.4 16.46 87.72"/><polygon class="cls-7" points="16.46 87.72 20.51 86.4 16.46 91.95 16.46 87.72"/><polygon class="cls-8" points="9.03 83.88 16.46 87.72 16.46 91.95 8.99 88.06 9.03 83.88"/><polygon class="cls-4" points="36.52 29.04 31.8 31.52 22.28 26.6 27.08 24.04 36.52 29.04"/><polygon class="cls-2" points="31.8 31.52 31.8 49.73 22.28 44.81 22.28 26.6 31.8 31.52"/><polygon class="cls-3" points="31.8 49.73 31.8 31.52 36.52 29.04 36.52 47.25 31.8 49.73"/><polygon class="cls-2" points="82.22 58.91 90.59 63.28 90.59 90.33 82.18 85.97 82.18 58.91 82.22 58.91"/><polygon class="cls-4" points="122.37 46.68 90.59 63.28 82.22 58.91 113.99 42.32 122.37 46.68"/><polygon class="cls-3" points="90.59 63.28 122.37 46.68 122.37 73.78 90.59 90.33 90.59 63.28"/><polygon class="cls-4" points="45.76 38.63 36.24 33.72 41.04 31.16 50.48 36.16 45.76 38.63"/><polygon class="cls-2" points="45.76 38.63 45.76 56.84 36.24 51.93 36.24 33.72 45.76 38.63"/><polygon class="cls-3" points="45.76 56.84 45.76 38.63 50.48 36.16 50.48 54.37 45.76 56.84"/><polygon class="cls-9" points="59.76 106.96 61.51 106.04 62.38 106.5 60.63 107.41 59.76 106.96"/><polygon class="cls-10" points="59.76 106.96 60.63 107.41 62.38 106.5 62.38 107.53 60.63 108.44 59.76 107.99 59.76 106.96"/><polygon class="cls-9" points="57.11 105.63 58.86 104.72 59.73 105.18 57.99 106.09 57.11 105.63"/><polygon class="cls-10" points="59.73 105.18 59.73 106.21 57.99 107.12 57.11 106.67 57.11 105.63 57.99 106.09 59.73 105.18"/><polygon class="cls-9" points="54.55 104.27 56.3 103.35 57.17 103.81 55.42 104.72 54.55 104.27"/><polygon class="cls-10" points="54.55 104.27 55.42 104.72 57.17 103.81 57.17 104.84 55.42 105.76 54.55 105.3 54.55 104.27"/><polygon class="cls-4" points="38.76 68.13 28.55 62.81 33.73 60.15 43.84 65.47 38.76 68.13"/><polygon class="cls-11" points="28.55 62.81 38.76 68.13 38.76 80.14 28.55 74.82 28.55 62.81"/><polygon class="cls-12" points="38.76 80.14 38.76 68.13 43.84 65.47 43.84 77.53 38.76 80.14"/><polygon class="cls-13" points="35.81 75.13 31.25 72.76 31.25 67.44 35.81 69.81 35.81 75.13"/><polygon class="cls-4" points="21.04 59.67 10.83 54.35 16.01 51.7 26.13 57.01 21.04 59.67"/><polygon class="cls-11" points="10.83 54.35 21.04 59.67 21.04 71.69 10.83 66.37 10.83 54.35"/><polygon class="cls-12" points="21.04 71.69 21.04 59.67 26.13 57.01 26.13 69.08 21.04 71.69"/><polygon class="cls-13" points="18.09 66.72 13.53 64.35 13.53 59.03 18.09 61.4 18.09 66.72"/><polygon class="cls-9" points="110.82 83.77 112.57 82.86 113.44 83.32 111.7 84.23 110.82 83.77"/><polygon class="cls-10" points="113.44 83.32 113.44 84.35 111.7 85.26 110.82 84.81 110.82 83.77 111.7 84.23 113.44 83.32"/><polygon class="cls-9" points="108.22 82.45 109.97 81.54 110.84 81.99 109.09 82.91 108.22 82.45"/><polygon class="cls-10" points="108.22 82.45 109.09 82.91 110.84 81.99 110.84 83.03 109.09 83.94 108.22 83.48 108.22 82.45"/><path class="cls-14" d="M95.19,14.29l1.26.63-4.72,2.52-1.26-.67Zm-4.68,7.16L85.79,24l-1.22-.67,4.72-2.48Zm-6.68-11L79.11,13l-1.26-.66,4.72-2.48Zm-7.91,4.28L71.2,17.24l-1.26-.67,4.72-2.48Zm1,5.59-4.76,2.48-1.22-.67,4.72-2.44ZM75.1,17.79l-4.72,2.52-1.26-.67,4.72-2.48Zm11.05-3.7,1.26.63-4.72,2.52-1.26-.67ZM79.78,33.48l-1.26-.67,4.72-2.47L84.5,31Zm19.07-9.24,4.72-2.48,1.26.63-4.72,2.52Zm2.79,6.92-4.72,2.52L95.66,33l4.72-2.48ZM67,19.13l1.22.63-4.72,2.51-1.22-.66ZM54.69,25.58l4.72-2.48,1.21.63L55.9,26.21Zm4.87,4.05,4.72-2.48,1.26.63L60.82,30.3Zm0,8.38,4.72-2.48,1.26.63-4.72,2.51Zm2.24,10.1,1.26.63-4.72,2.52-1.26-.67Zm39.49,2L106,47.68l1.26.63-4.72,2.52Zm16.48-40,1.26.63-4.72,2.52-1.26-.67Zm-2,35.2L117,46l-4.72,2.51L111,47.88Z"/><path class="cls-5" d="M27.55,101.68a.12.12,0,0,1-.08,0l-6.68-7.2a0,0,0,0,1,0,0,.09.09,0,0,1,0-.08,0,0,0,0,1,.05,0,.09.09,0,0,1,.08,0l6.69,7.19a.14.14,0,0,1,0,.06.2.2,0,0,1,0,.08A.07.07,0,0,1,27.55,101.68ZM20.39,89.86s0,0-.06,0a.19.19,0,0,1,0-.07.09.09,0,0,1,0-.06.08.08,0,0,1,.08,0L32.9,95.92A.09.09,0,0,1,33,96a.24.24,0,0,1,0,.08s0,0,0,.06l-.08,0Zm.38,1.77a.08.08,0,0,1,0-.08,0,0,0,0,1,0,0,.08.08,0,0,1,.08,0,0,0,0,0,1,.05,0l9.36,7.87a.09.09,0,0,1,0,.08s0,0,0,.06a.15.15,0,0,1-.08,0l-.05,0Z"/><path class="cls-15" d="M129.17,10.86l-4.91,2.51v-1.3l4.91-2.55ZM103.26,42.2l-4.92,2.52v-1.3l4.92-2.56ZM78.05,51.56l-4.92,2.52v-1.3l4.92-2.56ZM94.88,41.18v1.33L90,45v-1.3Zm.9,21.94,4.92-2.56V61.9l-4.92,2.52ZM77.46,60.25v1.34L72.54,64.1V62.81ZM71.91,74.84,67,77.36v-1.3l4.91-2.56Zm21.63,5.43,4.92-2.56v1.34l-4.92,2.52Zm-31-16.5v1.34l-4.91,2.53V66.35Zm53.64-5.45-4.91,2.52v-1.3L116.19,57Zm-3.54,6.77v1.33l-4.91,2.52v-1.3Z"/></g></g></svg>