<svg xmlns="http://www.w3.org/2000/svg" viewBox="0 0 86.87 81.45"><defs><style>.cls-1{fill:#0071bc;}.cls-1,.cls-2,.cls-3,.cls-4,.cls-5{fill-rule:evenodd;}.cls-2{fill:#29abe2;}.cls-3{fill:#ddd8d5;}.cls-4{fill:#ece9e8;}.cls-5{fill:#27a2cc;}</style></defs><title>mult2</title><g id="Layer_2" data-name="Layer 2"><g id="Layer_3" data-name="Layer 3"><polygon class="cls-1" points="86.87 56.95 79.37 60.85 79.37 69.7 86.87 65.8 86.87 56.95"/><polygon class="cls-2" points="86.87 56.95 79.37 53.03 71.89 56.95 79.37 60.85 86.87 56.95"/><polygon class="cls-3" points="79.37 60.85 71.89 56.95 71.89 65.8 79.37 69.7 79.37 60.85"/><polygon class="cls-1" points="79.37 60.87 71.87 64.77 71.87 73.62 79.37 69.72 79.37 60.87"/><polygon class="cls-2" points="79.37 60.87 71.87 56.95 64.39 60.87 71.87 64.77 79.37 60.87"/><polygon class="cls-3" points="71.87 64.77 64.39 60.87 64.39 69.72 71.87 73.62 71.87 64.77"/><polygon class="cls-1" points="71.88 64.78 64.38 68.68 64.38 77.53 71.88 73.63 71.88 64.78"/><polygon class="cls-2" points="71.88 64.78 64.38 60.86 56.89 64.78 64.38 68.68 71.88 64.78"/><polygon class="cls-3" points="64.38 68.68 56.89 64.78 56.89 73.63 64.38 77.53 64.38 68.68"/><polygon class="cls-1" points="64.39 68.7 56.88 72.6 56.88 81.45 64.39 77.55 64.39 68.7"/><polygon class="cls-4" points="64.39 68.7 56.88 64.78 49.4 68.7 56.88 72.6 64.39 68.7"/><polygon class="cls-5" points="56.88 72.6 49.4 68.7 49.4 77.55 56.88 81.45 56.88 72.6"/><polygon class="cls-1" points="64.38 59.85 56.87 63.75 56.87 72.6 64.38 68.7 64.38 59.85"/><polygon class="cls-4" points="64.38 59.85 56.87 55.93 49.39 59.85 56.87 63.75 64.38 59.85"/><polygon class="cls-5" points="56.87 63.75 49.39 59.85 49.39 68.7 56.87 72.6 56.87 63.75"/><polygon class="cls-1" points="64.39 51.01 56.88 54.91 56.88 63.75 64.39 59.85 64.39 51.01"/><polygon class="cls-4" points="64.39 51.01 56.88 47.09 49.4 51.01 56.88 54.91 64.39 51.01"/><polygon class="cls-5" points="56.88 54.91 49.4 51.01 49.4 59.85 56.88 63.75 56.88 54.91"/><polygon class="cls-1" points="86.84 30.46 79.34 34.36 79.34 43.21 86.84 39.31 86.84 30.46"/><polygon class="cls-4" points="86.84 30.46 79.34 26.54 71.86 30.46 79.34 34.36 86.84 30.46"/><polygon class="cls-3" points="79.34 34.36 71.86 30.46 71.86 39.31 79.34 43.21 79.34 34.36"/><polygon class="cls-1" points="79.35 34.36 71.85 38.26 71.85 47.11 79.35 43.21 79.35 34.36"/><polygon class="cls-2" points="79.35 34.36 71.85 30.44 64.37 34.36 71.85 38.26 79.35 34.36"/><polygon class="cls-3" points="71.85 38.26 64.37 34.36 64.37 43.21 71.85 47.11 71.85 38.26"/><polygon class="cls-1" points="71.86 38.26 64.36 42.16 64.36 51.01 71.86 47.11 71.86 38.26"/><polygon class="cls-2" points="71.86 38.26 64.36 34.34 56.87 38.26 64.36 42.16 71.86 38.26"/><polygon class="cls-3" points="64.36 42.16 56.87 38.26 56.87 47.11 64.36 51.01 64.36 42.16"/><polygon class="cls-1" points="64.37 42.17 56.86 46.07 56.86 54.91 64.37 51.02 64.37 42.17"/><polygon class="cls-2" points="64.37 42.17 56.86 38.25 49.38 42.17 56.86 46.07 64.37 42.17"/><polygon class="cls-5" points="56.86 46.07 49.38 42.17 49.38 51.02 56.86 54.91 56.86 46.07"/><polygon class="cls-1" points="86.84 21.62 79.34 25.52 79.34 34.37 86.84 30.46 86.84 21.62"/><polygon class="cls-4" points="86.84 21.62 79.34 17.7 71.86 21.62 79.34 25.52 86.84 21.62"/><polygon class="cls-5" points="79.34 25.52 71.86 21.62 71.86 30.46 79.34 34.37 79.34 25.52"/><polygon class="cls-1" points="86.84 12.77 79.34 16.67 79.34 25.52 86.84 21.62 86.84 12.77"/><polygon class="cls-4" points="86.84 12.77 79.34 8.85 71.86 12.77 79.34 16.67 86.84 12.77"/><polygon class="cls-5" points="79.34 16.67 71.86 12.77 71.86 21.62 79.34 25.52 79.34 16.67"/><polygon class="cls-1" points="86.87 3.92 79.37 7.82 79.37 16.67 86.87 12.77 86.87 3.92"/><polygon class="cls-2" points="86.87 3.92 79.37 0 71.89 3.92 79.37 7.82 86.87 3.92"/><polygon class="cls-3" points="79.37 7.82 71.89 3.92 71.89 12.77 79.37 16.67 79.37 7.82"/><polygon class="cls-1" points="79.38 7.83 71.88 11.73 71.88 20.58 79.38 16.68 79.38 7.83"/><polygon class="cls-2" points="79.38 7.83 71.88 3.91 64.39 7.83 71.88 11.73 79.38 7.83"/><polygon class="cls-3" points="71.88 11.73 64.39 7.83 64.39 16.68 71.88 20.58 71.88 11.73"/><polygon class="cls-1" points="71.88 11.75 64.38 15.65 64.38 24.5 71.88 20.6 71.88 11.75"/><polygon class="cls-2" points="71.88 11.75 64.38 7.83 56.9 11.75 64.38 15.65 71.88 11.75"/><polygon class="cls-3" points="64.38 15.65 56.9 11.75 56.9 20.6 64.38 24.5 64.38 15.65"/><polygon class="cls-1" points="64.39 15.67 56.88 19.57 56.88 28.42 64.39 24.52 64.39 15.67"/><polygon class="cls-2" points="64.39 15.67 56.88 11.75 49.4 15.67 56.88 19.57 64.39 15.67"/><polygon class="cls-5" points="56.88 19.57 49.4 15.67 49.4 24.52 56.88 28.42 56.88 19.57"/><polygon class="cls-1" points="29.99 54.18 22.49 58.08 22.49 66.93 29.99 63.03 29.99 54.18"/><polygon class="cls-2" points="29.99 54.18 22.49 50.26 15.01 54.18 22.49 58.08 29.99 54.18"/><polygon class="cls-5" points="22.49 58.08 15.01 54.18 15.01 63.03 22.49 66.93 22.49 58.08"/><polygon class="cls-1" points="29.99 36.46 22.49 40.36 22.49 49.21 29.99 45.31 29.99 36.46"/><polygon class="cls-2" points="29.99 36.46 22.49 32.54 15.01 36.46 22.49 40.36 29.99 36.46"/><polygon class="cls-5" points="22.49 40.36 15.01 36.46 15.01 45.31 22.49 49.21 22.49 40.36"/><polygon class="cls-1" points="22.5 49.21 14.99 53.11 14.99 61.96 22.5 58.06 22.5 49.21"/><polygon class="cls-2" points="22.5 49.21 14.99 45.29 7.51 49.21 14.99 53.11 22.5 49.21"/><polygon class="cls-5" points="14.99 53.11 7.51 49.21 7.51 58.06 14.99 61.96 14.99 53.11"/><polygon class="cls-1" points="15.01 61.94 7.5 65.83 7.5 74.68 15.01 70.78 15.01 61.94"/><polygon class="cls-2" points="15.01 61.94 7.5 58.02 0.02 61.94 7.5 65.83 15.01 61.94"/><polygon class="cls-5" points="7.5 65.83 0.02 61.94 0.02 70.78 7.5 74.68 7.5 65.83"/><polygon class="cls-1" points="14.99 44.27 7.48 48.17 7.48 57.02 14.99 53.12 14.99 44.27"/><polygon class="cls-2" points="14.99 44.27 7.48 40.36 0 44.27 7.48 48.17 14.99 44.27"/><polygon class="cls-5" points="7.48 48.17 0 44.27 0 53.12 7.48 57.02 7.48 48.17"/></g></g></svg>