<svg xmlns="http://www.w3.org/2000/svg" viewBox="0 0 98.08 161.2"><defs><style>.cls-1{fill:#ac5028;}.cls-1,.cls-10,.cls-11,.cls-12,.cls-13,.cls-14,.cls-15,.cls-16,.cls-17,.cls-18,.cls-19,.cls-2,.cls-3,.cls-4,.cls-5,.cls-6,.cls-7,.cls-8,.cls-9{fill-rule:evenodd;}.cls-2{fill:#3c2922;}.cls-3{fill:#8d5b50;}.cls-4{fill:#463e39;}.cls-5{fill:#211d1b;}.cls-6{fill:#38312e;}.cls-7{fill:#e9d21b;}.cls-8{fill:#e17e1e;}.cls-9{fill:#573c31;}.cls-10{fill:#734940;}.cls-11{fill:#aa7a66;}.cls-12{fill:#785243;}.cls-13{fill:#e2dcd8;}.cls-14{fill:#e6ab28;}.cls-15{fill:#f4f2f0;}.cls-16{fill:#c1b5a4;}.cls-17{fill:#e3dcd7;}.cls-18{fill:#333;}.cls-19{fill:#e9b18d;}</style></defs><title>owl</title><g id="Layer_2" data-name="Layer 2"><g id="Layer_1-2" data-name="Layer 1"><polygon class="cls-1" points="67.2 127.01 22.34 103.71 44.88 91.95 89.52 115.36 89.52 115.41 67.2 127.01"/><polygon class="cls-2" points="58.49 161.2 67.2 127.01 89.52 115.41 76.46 150.85 58.49 161.2"/><polygon class="cls-3" points="22.34 103.71 67.2 127.01 58.49 161.2 35.46 150.31 22.34 103.71"/><polygon class="cls-4" points="85 140.29 73.63 146.17 1.44 107.19 12.76 101.2 85 140.29"/><polygon class="cls-5" points="85 140.29 85 153.69 73.63 159.62 73.63 146.17 85 140.29"/><polygon class="cls-6" points="1.44 107.19 73.63 146.17 73.63 159.62 1.38 120.58 1.38 107.19 1.44 107.19"/><polygon class="cls-7" points="43.46 125.58 40.74 127.05 40.74 141.04 38.02 139.68 38.02 125.58 40.74 124.17 43.46 125.58"/><polygon class="cls-8" points="40.74 141.04 40.74 127.05 43.46 125.58 43.46 139.68 40.74 141.04"/><polygon class="cls-7" points="47.77 127.95 45.04 129.42 45.04 143.41 42.32 142.05 42.32 127.95 45.04 126.53 47.77 127.95"/><polygon class="cls-8" points="45.04 143.41 45.04 129.42 47.77 127.95 47.77 142.05 45.04 143.41"/><polygon class="cls-7" points="52.06 130.3 49.34 131.77 49.34 145.76 46.62 144.4 46.62 130.3 49.34 128.88 52.06 130.3"/><polygon class="cls-8" points="49.34 145.76 49.34 131.77 52.06 130.3 52.06 144.4 49.34 145.76"/><polygon class="cls-7" points="20.11 112.5 17.39 113.97 17.39 127.96 14.67 126.6 14.67 112.5 17.39 111.08 20.11 112.5"/><polygon class="cls-8" points="17.39 127.96 17.39 113.97 20.11 112.5 20.11 126.6 17.39 127.96"/><polygon class="cls-7" points="24.41 114.85 21.69 116.32 21.69 130.31 18.97 128.95 18.97 114.85 21.69 113.43 24.41 114.85"/><polygon class="cls-8" points="21.69 130.31 21.69 116.32 24.41 114.85 24.41 128.95 21.69 130.31"/><polygon class="cls-7" points="28.71 117.15 25.99 118.62 25.99 132.61 23.27 131.25 23.27 117.15 25.99 115.73 28.71 117.15"/><polygon class="cls-8" points="25.99 132.61 25.99 118.62 28.71 117.15 28.71 131.25 25.99 132.61"/><polygon class="cls-9" points="49.22 141.67 44.86 99.64 0 76.34 44.86 52.88 89.56 76.34 89.56 118.37 49.22 141.67"/><polygon class="cls-10" points="0 76.34 44.86 99.64 49.22 141.67 4.36 118.37 0 76.34"/><polygon class="cls-11" points="98.08 19 88 24.28 75.92 17.97 98.08 19"/><polygon class="cls-9" points="88 24.28 98.08 19 88 38.6 88 24.28"/><polygon class="cls-9" points="44.89 46.77 89.58 23.46 89.58 76.33 44.89 99.63 44.89 46.77"/><polygon class="cls-11" points="89.58 23.46 44.89 46.77 0.03 23.46 44.89 0 89.58 23.46"/><polygon class="cls-3" points="0.03 23.46 44.89 46.77 44.89 99.63 0.03 76.33 0.03 23.46"/><polygon class="cls-12" points="87.72 89.02 87.72 133.45 76.58 128.51 68.19 117.58 68.19 99.23 87.72 89.02"/><polygon class="cls-11" points="87.72 89.02 68.19 99.23 60.7 95.32 80.24 85.11 87.72 89.02"/><polygon class="cls-3" points="60.7 113.66 60.7 95.32 68.19 99.23 68.19 117.58 60.7 113.66"/><polygon class="cls-10" points="68.19 117.58 76.58 128.51 69.09 124.6 60.7 113.66 68.19 117.58"/><polygon class="cls-11" points="44.89 46.79 25.45 56.94 33.48 40.83 44.89 46.79"/><polygon class="cls-9" points="44.89 46.79 44.89 46.82 44.89 57.79 25.45 56.94 44.89 46.79"/><polygon class="cls-13" points="82.98 34.35 89.01 45.62 82.98 62.94 70.94 69.01 67.94 63.44 64.94 72.03 52.9 78.11 46.87 66.89 52.9 49.53 64.94 43.45 67.94 49.05 70.94 40.43 82.98 34.35"/><polygon class="cls-14" points="73.09 75.62 70.26 78.59 66 72.38 73.09 75.62"/><polygon class="cls-7" points="66 72.38 69.85 62.69 73.09 70.15 73.09 75.62 66 72.38"/><polygon class="cls-15" points="69.17 49.91 73.39 52.12 81.89 47.7 77.58 45.49 69.17 49.91"/><polygon class="cls-16" points="69.17 49.91 69.17 59.94 73.39 62.12 73.39 52.12 69.17 49.91"/><polygon class="cls-17" points="73.39 52.12 73.39 62.12 81.89 57.69 81.89 47.7 73.39 52.12"/><polygon class="cls-18" points="79.41 56.05 79.41 51.63 75.62 53.6 75.62 58.03 79.41 56.05"/><polygon class="cls-15" points="59.27 55.51 63.49 57.72 71.99 53.3 67.68 51.09 59.27 55.51"/><polygon class="cls-16" points="59.27 55.51 59.27 65.54 63.49 67.72 63.49 57.72 59.27 55.51"/><polygon class="cls-17" points="63.49 57.72 63.49 67.72 71.99 63.29 71.99 53.3 63.49 57.72"/><polygon class="cls-18" points="69.61 61.75 69.61 57.33 65.82 59.3 65.82 63.73 69.61 61.75"/><polygon class="cls-19" points="8.77 84.2 36.37 98.52 40.35 137 12.74 122.66 8.77 84.2"/></g></g></svg>