<svg xmlns="http://www.w3.org/2000/svg" viewBox="0 0 121.24 161.35"><defs><style>.cls-1{fill:#e6ab28;}.cls-1,.cls-10,.cls-11,.cls-12,.cls-13,.cls-14,.cls-15,.cls-16,.cls-17,.cls-18,.cls-19,.cls-2,.cls-20,.cls-21,.cls-22,.cls-23,.cls-24,.cls-25,.cls-26,.cls-27,.cls-28,.cls-29,.cls-3,.cls-4,.cls-5,.cls-6,.cls-7,.cls-8,.cls-9{fill-rule:evenodd;}.cls-2{fill:#2c7c8f;}.cls-3{fill:#1c505b;}.cls-4{fill:#9f6660;}.cls-5{fill:#86443e;}.cls-6{fill:#683631;}.cls-7{fill:#7e6d67;}.cls-8{fill:#cdc2c2;}.cls-9{fill:#5cb7cd;}.cls-10{fill:#c5e6ed;}.cls-11{fill:#e8bd17;}.cls-12{fill:#e9d21b;}.cls-13{fill:#fff;}.cls-14{fill:#c1b8b5;}.cls-15{fill:#559f35;}.cls-16{fill:#a8e250;}.cls-17{fill:#81d75b;}.cls-18{fill:#2b2b2b;}.cls-19{fill:#444;}.cls-20{fill:#e25836;}.cls-21{fill:#555;}.cls-22{fill:#3c3c3c;}.cls-23{fill:gray;}.cls-24{fill:#328ca3;}.cls-25{fill:#92cedc;}.cls-26{fill:#f4f2f0;}.cls-27{fill:#c1b5a4;}.cls-28{fill:#e3dcd7;}.cls-29{fill:#333;}</style></defs><title>parrot</title><g id="Layer_2" data-name="Layer 2"><g id="Layer_1-2" data-name="Layer 1"><polygon class="cls-1" points="84.99 112.39 48.39 93.34 60.83 86.85 97.43 105.9 84.99 112.39"/><polygon class="cls-2" points="86.89 161.35 84.99 112.39 97.43 105.9 95.93 156.65 86.89 161.35"/><polygon class="cls-3" points="84.99 112.39 86.89 161.35 65.49 150.17 48.39 93.34 84.99 112.39"/><polygon class="cls-4" points="121.23 135.44 107.76 142.47 107.7 142.49 107.72 142.45 0 86.48 13.58 79.38 121.23 135.44"/><polygon class="cls-5" points="107.7 142.49 107.7 158.44 0 102.49 0 86.48 107.72 142.45 107.7 142.49"/><polygon class="cls-6" points="107.7 158.44 107.7 142.49 107.76 142.47 121.23 135.44 121.23 149.48 121.23 151.45 107.76 158.48 107.7 158.44"/><polygon class="cls-7" points="58.28 110.03 58.28 125.77 55.24 127.29 55.24 111.67 58.28 110.03"/><polygon class="cls-8" points="55.24 127.29 52.2 125.77 52.2 110.03 55.24 108.45 58.28 110.03 55.24 111.67 55.24 127.29"/><polygon class="cls-7" points="63.15 112.63 63.15 128.37 60.12 129.89 60.12 114.27 63.15 112.63"/><polygon class="cls-8" points="60.12 129.89 57.08 128.37 57.08 112.63 60.12 111.05 63.15 112.63 60.12 114.27 60.12 129.89"/><polygon class="cls-7" points="67.95 115.23 67.95 130.97 64.92 132.49 64.92 116.87 67.95 115.23"/><polygon class="cls-8" points="64.92 132.49 61.88 130.97 61.88 115.23 64.92 113.65 67.95 115.23 64.92 116.87 64.92 132.49"/><polygon class="cls-7" points="40.43 100.88 40.43 116.62 37.39 118.14 37.39 102.52 40.43 100.88"/><polygon class="cls-8" points="40.43 100.88 37.39 102.52 37.39 118.14 34.35 116.62 34.35 100.88 37.39 99.3 40.43 100.88"/><polygon class="cls-7" points="45.3 103.48 45.3 119.22 42.27 120.73 42.27 105.12 45.3 103.48"/><polygon class="cls-8" points="42.27 120.73 39.23 119.22 39.23 103.48 42.27 101.9 45.3 103.48 42.27 105.12 42.27 120.73"/><polygon class="cls-7" points="50.05 106.13 50.05 121.87 47.02 123.39 47.02 107.77 50.05 106.13"/><polygon class="cls-8" points="47.02 123.39 43.98 121.87 43.98 106.13 47.02 104.55 50.05 106.13 47.02 107.77 47.02 123.39"/><path class="cls-9" d="M31,53.09V109.4l-6.61-3.49V49.65Zm30,15.56V125l-6.25-3.28V65.42Z"/><polygon class="cls-2" points="97.47 49.65 97.47 105.91 85.04 112.36 60.91 124.96 60.91 68.65 97.47 49.65"/><polygon class="cls-10" points="54.66 65.42 30.95 53.09 24.34 49.65 60.91 30.44 97.47 49.65 60.91 68.65 54.66 65.42"/><polygon class="cls-11" points="54.66 121.68 52.81 120.72 30.95 109.4 30.95 53.09 54.66 65.42 54.66 121.68"/><polygon class="cls-12" points="54.66 57.15 54.66 65.38 30.42 52.73 30.42 44.51 54.66 57.15"/><polygon class="cls-13" points="30.42 18.93 54.66 31.58 54.66 57.15 30.42 44.51 30.42 18.93"/><polygon class="cls-2" points="54.66 65.38 54.66 57.15 74.56 21.2 80.86 17.92 91.26 46.37 54.66 65.38"/><polygon class="cls-14" points="54.66 31.58 60.41 28.58 74.56 21.2 54.66 57.15 54.66 31.58"/><polygon class="cls-15" points="54.66 25.29 78.94 12.65 80.86 17.92 74.56 21.2 60.41 28.58 54.66 31.58 54.66 25.29"/><polygon class="cls-16" points="54.66 25.29 30.42 12.65 54.66 0 78.94 12.65 54.66 25.29"/><polygon class="cls-17" points="54.66 31.58 30.42 18.93 30.42 12.65 54.66 25.29 54.66 31.58"/><polygon class="cls-18" points="43.39 61.33 38.09 52.46 47.21 47.68 47.21 59.37 43.37 61.37 43.39 61.33"/><polygon class="cls-19" points="38.09 52.46 43.39 61.33 36.33 57.64 31.02 48.77 38.09 52.46"/><polygon class="cls-20" points="47.21 47.68 38.09 52.46 31.02 48.77 40.15 43.99 47.21 47.68"/><polygon class="cls-21" points="32.17 26.82 40.73 31.28 35.17 43.6 35.17 48.31 26.58 43.85 26.58 39.15 32.17 26.82"/><polygon class="cls-22" points="47.13 27.92 47.13 42.06 35.17 48.31 35.17 43.6 40.73 31.28 47.13 27.92"/><polygon class="cls-23" points="40.73 31.28 32.17 26.82 38.58 23.46 47.13 27.92 40.73 31.28"/><polygon class="cls-24" points="74.65 98.24 74.65 65.05 84.54 55.16 94.47 54.71 94.47 87.91 94.47 104.81 74.65 98.24"/><polygon class="cls-9" points="74.65 65.05 74.65 98.24 67.31 94.43 67.31 61.23 74.65 65.05"/><polygon class="cls-25" points="77.25 51.35 84.54 55.16 74.65 65.05 67.31 61.23 67.31 61.2 77.25 51.35"/><polygon class="cls-3" points="94.47 54.71 84.54 55.16 77.25 51.35 87.14 50.86 94.47 54.71"/><polygon class="cls-26" points="58.19 31.01 61.2 32.59 67.25 29.43 64.18 27.86 58.19 31.01"/><polygon class="cls-27" points="58.19 31.01 58.19 38.16 61.2 39.71 61.2 32.59 58.19 31.01"/><polygon class="cls-28" points="61.2 32.59 61.2 39.71 67.25 36.56 67.25 29.43 61.2 32.59"/><polygon class="cls-29" points="65.43 35.42 65.43 32.27 62.73 33.68 62.73 36.83 65.43 35.42"/></g></g></svg>