<svg xmlns="http://www.w3.org/2000/svg" viewBox="0 0 53.27 111.83"><defs><style>.cls-1{fill:#bc7d31;}.cls-1,.cls-2,.cls-3,.cls-4,.cls-5,.cls-6,.cls-7,.cls-8{fill-rule:evenodd;}.cls-2{fill:#e89f3b;}.cls-3{fill:#a3682e;}.cls-4{fill:#a67c52;}.cls-5{fill:#ba7236;}.cls-6{fill:#ad712f;}.cls-7{fill:#c47a37;}.cls-8{fill:#ce8338;}</style></defs><title>peanut</title><g id="Layer_2" data-name="Layer 2"><g id="Layer_2-2" data-name="Layer 2"><polygon class="cls-1" points="46.55 64.78 26.64 75.03 26.59 93.59 53.25 79.21 46.55 64.78"/><polygon class="cls-2" points="46.54 64.79 26.61 54.48 6.74 64.79 26.61 75.05 46.54 64.79"/><polygon class="cls-3" points="41.36 46.89 26.77 54.48 26.77 71.68 41.36 64.1 41.36 46.89"/><polygon class="cls-4" points="41.36 46.89 26.77 39.27 12.22 46.89 26.77 54.48 41.36 46.89"/><polygon class="cls-5" points="26.77 54.48 12.22 46.89 12.22 64.1 26.77 71.68 26.77 54.48"/><polygon class="cls-6" points="53.25 25.7 26.59 40.08 26.59 58.32 48.35 46.58 53.25 25.7"/><polygon class="cls-2" points="46.56 11.3 26.63 0 6.75 11.3 26.66 21.54 46.56 11.3"/><polygon class="cls-7" points="26.59 40.08 0 25.7 4.75 46.43 26.59 58.32 26.59 40.08"/><polygon class="cls-1" points="13.99 11.01 11.45 9.63 8.92 11.01 11.45 12.38 13.99 11.01"/><polygon class="cls-1" points="24.12 5.52 21.59 4.14 19.05 5.52 21.59 6.89 24.12 5.52"/><polygon class="cls-1" points="29.32 2.78 26.79 1.4 24.26 2.78 26.79 4.14 29.32 2.78"/><polygon class="cls-1" points="19.05 8.26 16.52 6.89 13.99 8.26 16.52 9.63 19.05 8.26"/><polygon class="cls-1" points="19.05 13.75 16.52 12.38 13.99 13.75 16.52 15.12 19.05 13.75"/><polygon class="cls-1" points="29.19 8.26 26.65 6.89 24.12 8.26 26.65 9.63 29.19 8.26"/><polygon class="cls-1" points="34.39 5.52 31.85 4.14 29.32 5.52 31.85 6.89 34.39 5.52"/><polygon class="cls-1" points="24.12 11.01 21.59 9.63 19.05 11.01 21.59 12.38 24.12 11.01"/><polygon class="cls-1" points="24.12 16.5 21.59 15.12 19.05 16.5 21.59 17.86 24.12 16.5"/><polygon class="cls-1" points="34.26 11.01 31.72 9.63 29.19 11.01 31.72 12.38 34.26 11.01"/><polygon class="cls-1" points="39.46 8.26 36.92 6.89 34.39 8.26 36.92 9.63 39.46 8.26"/><polygon class="cls-1" points="29.19 13.75 26.65 12.38 24.12 13.75 26.65 15.12 29.19 13.75"/><polygon class="cls-1" points="29.19 19.24 26.65 17.86 24.12 19.24 26.65 20.61 29.19 19.24"/><polygon class="cls-1" points="39.33 13.75 36.79 12.38 34.26 13.75 36.79 15.12 39.33 13.75"/><polygon class="cls-1" points="44.53 11.01 41.99 9.63 39.46 11.01 41.99 12.38 44.53 11.01"/><polygon class="cls-1" points="34.26 16.5 31.72 15.12 29.19 16.5 31.72 17.86 34.26 16.5"/><polygon class="cls-8" points="26.64 75.03 6.73 64.79 0 79.21 26.59 93.59 26.64 75.03"/><polygon class="cls-6" points="53.25 79.21 26.59 93.59 26.59 111.83 48.35 100.1 53.25 79.21"/><polygon class="cls-7" points="26.59 93.59 0 79.21 4.75 99.94 26.59 111.83 26.59 93.59"/><polygon class="cls-1" points="46.56 11.3 26.66 21.54 26.61 40.1 53.27 25.73 46.56 11.3"/><polygon class="cls-8" points="26.66 21.54 6.75 11.3 0.01 25.73 26.61 40.1 26.66 21.54"/></g></g></svg>