<svg xmlns="http://www.w3.org/2000/svg" viewBox="0 0 147.16 98.65"><defs><style>.cls-1{fill:#a2c165;}.cls-1,.cls-2,.cls-3,.cls-4,.cls-5,.cls-6{fill-rule:evenodd;}.cls-2{fill:#b1da71;}.cls-3{fill:#469254;}.cls-4{fill:#366fa1;}.cls-5{fill:#346a7b;}.cls-6{fill:#d9dd66;}</style></defs><title>platform</title><g id="Layer_2" data-name="Layer 2"><g id="Layer_2-2" data-name="Layer 2"><polygon class="cls-1" points="72.88 9.34 55 18.63 55 39.71 72.88 30.42 72.88 9.34"/><polygon class="cls-2" points="72.88 9.34 55 0 37.17 9.34 55 18.63 72.88 9.34"/><polygon class="cls-3" points="55 18.63 37.17 9.34 37.17 30.42 55 39.71 55 18.63"/><polygon class="cls-1" points="110.03 9.34 92.15 18.63 92.15 39.71 110.03 30.42 110.03 9.34"/><polygon class="cls-2" points="110.03 9.34 92.15 0 74.33 9.34 92.15 18.63 110.03 9.34"/><polygon class="cls-3" points="92.15 18.63 74.33 9.34 74.33 30.42 92.15 39.71 92.15 18.63"/><polygon class="cls-1" points="91.45 19.15 73.58 28.45 73.58 49.52 91.45 40.23 91.45 19.15"/><polygon class="cls-2" points="91.45 19.15 73.58 9.82 55.75 19.15 73.58 28.45 91.45 19.15"/><polygon class="cls-3" points="73.58 28.45 55.75 19.15 55.75 40.23 73.58 49.52 73.58 28.45"/><polygon class="cls-1" points="128.58 19.15 110.71 28.45 110.71 49.52 128.58 40.23 128.58 19.15"/><polygon class="cls-2" points="128.58 19.15 110.71 9.82 92.88 19.15 110.71 28.45 128.58 19.15"/><polygon class="cls-3" points="110.71 28.45 92.88 19.15 92.88 40.23 110.71 49.52 110.71 28.45"/><polygon class="cls-1" points="110 28.97 92.13 38.26 92.13 59.34 110 50.05 110 28.97"/><polygon class="cls-2" points="110 28.97 92.13 19.63 74.3 28.97 92.13 38.26 110 28.97"/><polygon class="cls-3" points="92.13 38.26 74.3 28.97 74.3 50.05 92.13 59.34 92.13 38.26"/><polygon class="cls-1" points="147.16 28.97 129.28 38.26 129.28 59.34 147.16 50.05 147.16 28.97"/><polygon class="cls-2" points="147.16 28.97 129.28 19.63 111.45 28.97 129.28 38.26 147.16 28.97"/><polygon class="cls-3" points="129.28 38.26 111.45 28.97 111.45 50.05 129.28 59.34 129.28 38.26"/><polygon class="cls-1" points="128.58 38.78 110.71 48.08 110.71 69.16 128.58 59.87 128.58 38.78"/><polygon class="cls-2" points="128.58 38.78 110.71 29.45 92.88 38.78 110.71 48.08 128.58 38.78"/><polygon class="cls-3" points="110.71 48.08 92.88 38.78 92.88 59.87 110.71 69.16 110.71 48.08"/><polygon class="cls-1" points="54.28 19.15 36.4 28.45 36.4 49.52 54.28 40.23 54.28 19.15"/><polygon class="cls-2" points="54.28 19.15 36.4 9.82 18.58 19.15 36.4 28.45 54.28 19.15"/><polygon class="cls-3" points="36.4 28.45 18.58 19.15 18.58 40.23 36.4 49.52 36.4 28.45"/><polygon class="cls-4" points="35.7 28.97 17.83 38.26 17.83 59.34 35.7 50.05 35.7 28.97"/><polygon class="cls-2" points="35.7 28.97 17.83 19.63 0 28.97 17.83 38.26 35.7 28.97"/><polygon class="cls-5" points="17.83 38.26 0 28.97 0 50.05 17.83 59.34 17.83 38.26"/><polygon class="cls-1" points="72.85 28.97 54.98 38.26 54.98 59.34 72.85 50.05 72.85 28.97"/><polygon class="cls-2" points="72.85 28.97 54.98 19.63 37.15 28.97 54.98 38.26 72.85 28.97"/><polygon class="cls-3" points="54.98 38.26 37.15 28.97 37.15 50.05 54.98 59.34 54.98 38.26"/><polygon class="cls-1" points="54.28 38.78 36.4 48.08 36.4 69.16 54.28 59.87 54.28 38.78"/><polygon class="cls-2" points="54.28 38.78 36.4 29.45 18.58 38.78 36.4 48.08 54.28 38.78"/><polygon class="cls-3" points="36.4 48.08 18.58 38.78 18.58 59.87 36.4 69.16 36.4 48.08"/><polygon class="cls-1" points="91.41 38.78 73.53 48.08 73.53 69.16 91.41 59.87 91.41 38.78"/><polygon class="cls-2" points="91.41 38.78 73.53 29.45 55.7 38.78 73.53 48.08 91.41 38.78"/><polygon class="cls-3" points="73.53 48.08 55.7 38.78 55.7 59.87 73.53 69.16 73.53 48.08"/><polygon class="cls-1" points="72.83 48.6 54.96 57.89 54.96 78.97 72.83 69.68 72.83 48.6"/><polygon class="cls-6" points="72.83 48.6 54.96 39.26 37.13 48.6 54.96 57.89 72.83 48.6"/><polygon class="cls-3" points="54.96 57.89 37.13 48.6 37.13 69.68 54.96 78.97 54.96 57.89"/><polygon class="cls-1" points="109.98 48.6 92.11 57.89 92.11 78.97 109.98 69.68 109.98 48.6"/><polygon class="cls-2" points="109.98 48.6 92.11 39.26 74.28 48.6 92.11 57.89 109.98 48.6"/><polygon class="cls-3" points="92.11 57.89 74.28 48.6 74.28 69.68 92.11 78.97 92.11 57.89"/><polygon class="cls-1" points="91.41 58.42 73.53 67.71 73.53 88.79 91.41 79.5 91.41 58.42"/><polygon class="cls-6" points="91.41 58.42 73.53 49.08 55.7 58.42 73.53 67.71 91.41 58.42"/><polygon class="cls-3" points="73.53 67.71 55.7 58.42 55.7 79.5 73.53 88.79 73.53 67.71"/><polygon class="cls-1" points="147.16 48.52 129.28 57.81 129.28 78.89 147.16 69.6 147.16 48.52"/><polygon class="cls-2" points="147.16 48.52 129.28 39.18 111.45 48.52 129.28 57.81 147.16 48.52"/><polygon class="cls-3" points="129.28 57.81 111.45 48.52 111.45 69.6 129.28 78.89 129.28 57.81"/><polygon class="cls-1" points="128.56 58.34 110.68 67.63 110.68 88.71 128.56 79.42 128.56 58.34"/><polygon class="cls-6" points="128.56 58.34 110.68 49 92.86 58.34 110.68 67.63 128.56 58.34"/><polygon class="cls-3" points="110.68 67.63 92.86 58.34 92.86 79.42 110.68 88.71 110.68 67.63"/><polygon class="cls-1" points="109.98 68.15 92.11 77.44 92.11 98.52 109.98 89.23 109.98 68.15"/><polygon class="cls-6" points="109.98 68.15 92.11 58.81 74.28 68.15 92.11 77.44 109.98 68.15"/><polygon class="cls-3" points="92.11 77.44 74.28 68.15 74.28 89.23 92.11 98.52 92.11 77.44"/><polygon class="cls-4" points="35.7 48.64 17.83 57.94 17.83 79.02 35.7 69.72 35.7 48.64"/><polygon class="cls-6" points="35.7 48.64 17.83 39.31 0 48.64 17.83 57.94 35.7 48.64"/><polygon class="cls-5" points="17.83 57.94 0 48.64 0 69.72 17.83 79.02 17.83 57.94"/><polygon class="cls-4" points="54.25 58.46 36.38 67.75 36.38 88.83 54.25 79.54 54.25 58.46"/><polygon class="cls-6" points="54.25 58.46 36.38 49.12 18.55 58.46 36.38 67.75 54.25 58.46"/><polygon class="cls-5" points="36.38 67.75 18.55 58.46 18.55 79.54 36.38 88.83 36.38 67.75"/><polygon class="cls-4" points="72.83 68.28 54.96 77.57 54.96 98.65 72.83 89.36 72.83 68.28"/><polygon class="cls-6" points="72.83 68.28 54.96 58.94 37.13 68.28 54.96 77.57 72.83 68.28"/><polygon class="cls-5" points="54.96 77.57 37.13 68.28 37.13 89.36 54.96 98.65 54.96 77.57"/></g></g></svg>