<svg xmlns="http://www.w3.org/2000/svg" viewBox="0 0 132.42 121.77"><defs><style>.cls-1{fill:#6a6a6a;}.cls-1,.cls-10,.cls-11,.cls-12,.cls-13,.cls-2,.cls-3,.cls-4,.cls-5,.cls-6,.cls-7,.cls-8,.cls-9{fill-rule:evenodd;}.cls-2{fill:#333;}.cls-3{fill:#fff;}.cls-4{fill:#a2a2a2;}.cls-5{fill:#ccc;}.cls-6{fill:#5e5e5e;}.cls-7{fill:#888;}.cls-8{fill:#c8c8c8;}.cls-9{fill:#ddd;}.cls-10{fill:#aeaeae;}.cls-11{fill:#f4f2f0;}.cls-12{fill:#c1b5a4;}.cls-13{fill:#e3dcd7;}</style></defs><title>sheep</title><g id="Layer_2" data-name="Layer 2"><g id="Layer_1-2" data-name="Layer 1"><polygon class="cls-1" points="52.67 78.42 45.7 82.06 45.7 107.46 38.66 103.75 38.66 78.42 45.7 74.71 52.67 78.42"/><polygon class="cls-2" points="45.7 107.46 45.7 82.06 52.67 78.42 52.73 78.42 52.73 103.75 45.7 107.46"/><polygon class="cls-1" points="78.47 92.73 71.5 96.38 71.5 121.77 64.46 118.06 64.46 92.73 71.5 89.03 78.47 92.73"/><polygon class="cls-2" points="71.5 121.77 71.5 96.38 78.47 92.73 78.53 92.73 78.53 118.06 71.5 121.77"/><polygon class="cls-3" points="71.39 88.48 56.28 80.65 69.02 74.01 84.05 81.84 84.05 81.88 71.39 88.48"/><polygon class="cls-4" points="71.39 106.28 71.39 88.48 84.05 81.88 84.05 99.68 71.39 106.28"/><polygon class="cls-5" points="56.28 80.65 71.39 88.48 71.39 106.28 56.28 98.45 56.28 80.65"/><polygon class="cls-1" points="124.38 65.96 117.41 69.61 117.41 95 110.37 91.29 110.37 65.96 117.41 62.25 124.38 65.96"/><polygon class="cls-2" points="124.38 65.96 124.44 65.96 124.44 91.29 117.41 95 117.41 69.61 124.38 65.96"/><polygon class="cls-3" points="116.88 63.75 101.77 55.91 114.51 49.27 129.54 57.1 129.54 57.14 116.88 63.75"/><polygon class="cls-4" points="116.88 81.55 116.88 63.75 129.54 57.14 129.54 74.94 116.88 81.55"/><polygon class="cls-5" points="101.77 55.91 116.88 63.75 116.88 81.55 101.77 73.72 101.77 55.91"/><polygon class="cls-3" points="45.68 75.88 30.57 68.05 43.31 61.41 58.34 69.24 58.34 69.28 45.68 75.88"/><polygon class="cls-4" points="45.68 93.68 45.68 75.88 58.34 69.28 58.34 87.08 45.68 93.68"/><polygon class="cls-5" points="30.57 68.05 45.68 75.88 45.68 93.68 30.57 85.85 30.57 68.05"/><polygon class="cls-3" points="118.7 15.61 102.42 7.17 116.15 0 132.35 8.44 132.35 8.49 118.7 15.61"/><polygon class="cls-4" points="118.7 34.8 118.7 15.61 132.35 8.49 132.35 27.68 118.7 34.8"/><polygon class="cls-5" points="102.42 7.17 118.7 15.61 118.7 34.8 102.42 26.36 102.42 7.17"/><polygon class="cls-3" points="66.73 54.02 28.41 34.1 92.82 0.48 130.99 20.55 66.73 54.02"/><polygon class="cls-4" points="66.73 99.22 66.73 54.02 130.99 20.55 131.03 20.55 131.03 65.7 66.73 99.22"/><polygon class="cls-5" points="28.41 34.1 66.73 54.02 66.73 99.22 28.41 79.3 28.41 34.1"/><polygon class="cls-3" points="40.58 57.53 21.27 47.52 37.54 39.02 56.76 49.03 56.76 49.09 40.58 57.53"/><polygon class="cls-4" points="40.58 80.28 40.58 57.53 56.76 49.09 56.76 71.83 40.58 80.28"/><polygon class="cls-5" points="21.27 47.52 40.58 57.53 40.58 80.28 21.27 70.27 21.27 47.52"/><polygon class="cls-2" points="29.49 94.15 30 77.02 9.31 66.23 26.8 57.13 47.42 67.91 47.42 67.98 41.15 88.03 41.15 88.1 29.49 94.15"/><polygon class="cls-6" points="9.31 66.23 30 77.02 29.49 94.15 15.57 86.93 9.31 66.23"/><polygon class="cls-2" points="14.95 49.39 14.95 58.23 18.71 56.27 18.71 47.45 18.7 47.44 14.95 49.39"/><polygon class="cls-1" points="14.95 49.39 0 41.6 0 50.44 14.95 58.23 14.95 49.39"/><polygon class="cls-7" points="0 41.6 14.95 49.39 18.7 47.44 3.74 39.64 0 41.6"/><polygon class="cls-2" points="30.05 59.51 47.47 50.4 47.47 67.89 30.05 77 30.05 59.51"/><polygon class="cls-1" points="9.35 48.72 30.05 59.51 30.05 77 9.35 66.21 9.35 48.72"/><polygon class="cls-7" points="47.47 50.4 30.05 59.51 9.35 48.72 26.84 39.61 47.47 50.4"/><polygon class="cls-2" points="56.73 66.43 52.98 68.38 52.98 77.22 56.74 75.26 56.74 66.44 56.73 66.43"/><polygon class="cls-1" points="52.98 68.38 38.03 60.59 38.03 69.43 52.98 77.22 52.98 68.38"/><polygon class="cls-7" points="38.03 60.59 52.98 68.38 56.73 66.43 41.77 58.63 38.03 60.59"/><polygon class="cls-3" points="41.59 30.74 37.99 28.87 37.99 28.85 41.76 26.87 45.37 28.75 45.37 28.78 41.59 30.74"/><polygon class="cls-8" points="41.59 34.43 41.59 30.74 45.37 28.78 45.37 32.47 41.59 34.43"/><polygon class="cls-9" points="41.59 30.74 41.59 34.43 37.99 32.56 37.99 28.87 41.59 30.74"/><polygon class="cls-3" points="71.36 13.35 67.57 15.31 63.98 13.45 63.98 13.42 67.75 11.45 71.36 13.33 71.36 13.35"/><polygon class="cls-8" points="67.57 19 67.57 15.31 71.36 13.35 71.36 17.04 67.57 19"/><polygon class="cls-9" points="67.57 15.31 67.57 19 63.98 17.14 63.98 13.45 67.57 15.31"/><polygon class="cls-3" points="63.82 30.09 60.23 28.22 60.23 28.2 64 26.23 67.61 28.11 67.61 28.13 63.82 30.09"/><polygon class="cls-8" points="63.82 33.78 63.82 30.09 67.61 28.13 67.61 31.82 63.82 33.78"/><polygon class="cls-9" points="63.82 30.09 63.82 33.78 60.23 31.91 60.23 28.22 63.82 30.09"/><polygon class="cls-3" points="89.42 4.64 85.64 6.61 82.04 4.74 82.04 4.71 85.82 2.74 89.42 4.62 89.42 4.64"/><polygon class="cls-8" points="85.64 10.3 85.64 6.61 89.42 4.64 89.42 8.33 85.64 10.3"/><polygon class="cls-9" points="85.64 6.61 85.64 10.3 82.04 8.43 82.04 4.74 85.64 6.61"/><polygon class="cls-3" points="83.65 20.23 80.05 18.36 80.05 18.33 83.83 16.36 87.43 18.24 87.43 18.26 83.65 20.23"/><polygon class="cls-8" points="83.65 23.92 83.65 20.23 87.43 18.26 87.43 21.95 83.65 23.92"/><polygon class="cls-9" points="83.65 20.23 83.65 23.92 80.05 22.05 80.05 18.36 83.65 20.23"/><polygon class="cls-3" points="72.52 44.57 68.73 46.54 65.14 44.67 65.14 44.65 68.91 42.67 72.52 44.55 72.52 44.57"/><polygon class="cls-8" points="68.73 50.23 68.73 46.54 72.52 44.57 72.52 48.27 68.73 50.23"/><polygon class="cls-9" points="68.73 46.54 68.73 50.23 65.14 48.36 65.14 44.67 68.73 46.54"/><polygon class="cls-3" points="78.46 34.08 74.86 32.21 74.86 32.18 78.64 30.21 82.25 32.09 82.25 32.11 78.46 34.08"/><polygon class="cls-8" points="78.46 37.77 78.46 34.08 82.25 32.11 82.25 35.8 78.46 37.77"/><polygon class="cls-9" points="78.46 34.08 78.46 37.77 74.86 35.9 74.86 32.21 78.46 34.08"/><polygon class="cls-3" points="108.74 24.19 104.96 26.15 101.36 24.29 101.36 24.26 105.13 22.29 108.74 24.17 108.74 24.19"/><polygon class="cls-8" points="104.96 29.84 104.96 26.15 108.74 24.19 108.74 27.88 104.96 29.84"/><polygon class="cls-9" points="104.96 26.15 104.96 29.84 101.36 27.98 101.36 24.29 104.96 26.15"/><polygon class="cls-3" points="120.52 17.12 116.92 15.25 116.92 15.23 120.7 13.25 124.31 15.13 124.31 15.16 120.52 17.12"/><polygon class="cls-8" points="120.52 20.81 120.52 17.12 124.31 15.16 124.31 18.85 120.52 20.81"/><polygon class="cls-9" points="120.52 17.12 120.52 20.81 116.92 18.94 116.92 15.25 120.52 17.12"/><polygon class="cls-3" points="105.59 5.43 101.81 7.39 98.21 5.52 98.21 5.5 101.98 3.52 105.59 5.41 105.59 5.43"/><polygon class="cls-8" points="101.81 11.08 101.81 7.39 105.59 5.43 105.59 9.12 101.81 11.08"/><polygon class="cls-9" points="101.81 7.39 101.81 11.08 98.21 9.21 98.21 5.52 101.81 7.39"/><polygon class="cls-3" points="98.56 17.72 94.97 15.86 94.97 15.83 98.74 13.86 102.35 15.74 102.35 15.76 98.56 17.72"/><polygon class="cls-8" points="98.56 21.41 98.56 17.72 102.35 15.76 102.35 19.45 98.56 21.41"/><polygon class="cls-9" points="98.56 17.72 98.56 21.41 94.97 19.55 94.97 15.86 98.56 17.72"/><polygon class="cls-3" points="45.74 37.49 41.96 39.45 38.36 37.58 38.36 37.56 42.13 35.58 45.74 37.46 45.74 37.49"/><polygon class="cls-8" points="41.96 43.14 41.96 39.45 45.74 37.49 45.74 41.18 41.96 43.14"/><polygon class="cls-9" points="41.96 39.45 41.96 43.14 38.36 41.27 38.36 37.58 41.96 39.45"/><polygon class="cls-3" points="59.19 40.28 55.59 38.41 55.59 38.39 59.37 36.42 62.97 38.3 62.97 38.32 59.19 40.28"/><polygon class="cls-8" points="59.19 43.97 59.19 40.28 62.97 38.32 62.97 42.01 59.19 43.97"/><polygon class="cls-9" points="59.19 40.28 59.19 43.97 55.59 42.1 55.59 38.41 59.19 40.28"/><polygon class="cls-3" points="60.38 19.51 56.59 21.48 53 19.61 53 19.58 56.77 17.61 60.38 19.49 60.38 19.51"/><polygon class="cls-8" points="56.59 25.17 56.59 21.48 60.38 19.51 60.38 23.2 56.59 25.17"/><polygon class="cls-9" points="56.59 21.48 56.59 25.17 53 23.3 53 19.61 56.59 21.48"/><polygon class="cls-3" points="94.91 33.01 91.31 31.14 91.31 31.12 95.08 29.14 98.69 31.02 98.69 31.05 94.91 33.01"/><polygon class="cls-8" points="94.91 36.7 94.91 33.01 98.69 31.05 98.69 34.74 94.91 36.7"/><polygon class="cls-9" points="94.91 33.01 94.91 36.7 91.31 34.83 91.31 31.14 94.91 33.01"/><polygon class="cls-3" points="117.04 37.41 120 35.88 117.51 34.57 114.56 36.11 114.56 36.12 117.04 37.41"/><polygon class="cls-9" points="114.56 36.12 114.56 39.6 117.04 40.9 117.04 37.41 114.56 36.12"/><polygon class="cls-10" points="120 35.88 117.04 37.41 117.04 40.9 120 39.37 120 35.88"/><polygon class="cls-3" points="76.74 56.77 79.7 55.24 77.21 53.94 74.26 55.47 74.26 55.48 76.74 56.77"/><polygon class="cls-9" points="74.26 55.48 74.26 58.97 76.74 60.26 76.74 56.77 74.26 55.48"/><polygon class="cls-10" points="79.7 55.24 76.74 56.77 76.74 60.26 79.7 58.73 79.7 55.24"/><polygon class="cls-3" points="95.32 43.16 98.28 41.62 95.78 40.32 92.84 41.85 92.84 41.86 95.32 43.16"/><polygon class="cls-9" points="92.84 41.86 92.84 45.35 95.32 46.64 95.32 43.16 92.84 41.86"/><polygon class="cls-10" points="98.28 41.62 95.32 43.16 95.32 46.64 98.28 45.11 98.28 41.62"/><polygon class="cls-3" points="89.2 56.77 92.17 55.24 89.67 53.94 86.72 55.47 86.72 55.48 89.2 56.77"/><polygon class="cls-9" points="86.72 55.48 86.72 58.97 89.2 60.26 89.2 56.77 86.72 55.48"/><polygon class="cls-10" points="92.17 55.24 89.2 56.77 89.2 60.26 92.17 58.73 92.17 55.24"/><polygon class="cls-3" points="111.16 51.54 114.12 50 111.63 48.7 108.68 50.24 108.68 50.24 111.16 51.54"/><polygon class="cls-9" points="108.68 50.24 108.68 53.73 111.16 55.03 111.16 51.54 108.68 50.24"/><polygon class="cls-10" points="114.12 50 111.16 51.54 111.16 55.03 114.12 53.49 114.12 50"/><polygon class="cls-3" points="96.43 69.75 99.39 68.21 96.89 66.91 93.95 68.44 93.95 68.45 96.43 69.75"/><polygon class="cls-9" points="93.95 68.45 93.95 71.94 96.43 73.23 96.43 69.75 93.95 68.45"/><polygon class="cls-10" points="99.39 68.21 96.43 69.75 96.43 73.23 99.39 71.7 99.39 68.21"/><polygon class="cls-3" points="76.79 71.88 79.75 70.34 77.25 69.04 74.31 70.57 74.31 70.58 76.79 71.88"/><polygon class="cls-9" points="74.31 70.58 74.31 74.07 76.79 75.36 76.79 71.88 74.31 70.58"/><polygon class="cls-10" points="79.75 70.34 76.79 71.88 76.79 75.36 79.75 73.83 79.75 70.34"/><polygon class="cls-3" points="129.27 44.92 132.24 43.38 129.74 42.08 126.79 43.61 126.79 43.62 129.27 44.92"/><polygon class="cls-9" points="126.79 43.62 126.79 47.11 129.27 48.4 129.27 44.92 126.79 43.62"/><polygon class="cls-10" points="132.24 43.38 129.27 44.92 129.27 48.4 132.24 46.87 132.24 43.38"/><polygon class="cls-3" points="129.46 34.31 132.42 32.77 129.92 31.47 126.98 33.01 126.98 33.01 129.46 34.31"/><polygon class="cls-9" points="126.98 33.01 126.98 36.5 129.46 37.8 129.46 34.31 126.98 33.01"/><polygon class="cls-10" points="132.42 32.77 129.46 34.31 129.46 37.8 132.42 36.26 132.42 32.77"/><polygon class="cls-11" points="15.31 58.56 12.44 60.06 6.67 57.06 9.6 55.56 15.31 58.56"/><polygon class="cls-12" points="15.31 58.56 15.31 65.37 12.44 66.84 12.44 60.06 15.31 58.56"/><polygon class="cls-13" points="12.44 60.06 12.44 66.84 6.67 63.84 6.67 57.06 12.44 60.06"/><polygon class="cls-2" points="8.35 62.65 8.35 59.65 10.92 60.99 10.92 63.99 8.35 62.65"/><polygon class="cls-11" points="29.71 65.6 26.84 67.1 21.08 64.1 24 62.6 29.71 65.6"/><polygon class="cls-12" points="29.71 65.6 29.71 72.41 26.84 73.88 26.84 67.1 29.71 65.6"/><polygon class="cls-13" points="26.84 67.1 26.84 73.88 21.08 70.88 21.08 64.1 26.84 67.1"/><polygon class="cls-2" points="22.61 69.64 22.61 66.64 25.19 67.98 25.19 70.98 22.61 69.64"/></g></g></svg>