<svg xmlns="http://www.w3.org/2000/svg" viewBox="0 0 98.34 141.79"><defs><style>.cls-1{fill:#736357;}.cls-1,.cls-10,.cls-11,.cls-12,.cls-13,.cls-14,.cls-15,.cls-16,.cls-17,.cls-18,.cls-19,.cls-2,.cls-20,.cls-21,.cls-22,.cls-3,.cls-4,.cls-5,.cls-6,.cls-7,.cls-8,.cls-9{fill-rule:evenodd;}.cls-2{fill:#998675;}.cls-3{fill:#534741;}.cls-4{fill:#9a886d;}.cls-5{fill:#554a3c;}.cls-6{fill:#603813;}.cls-7{fill:#754c24;}.cls-8{fill:#c6bcb9;}.cls-9{fill:#c69c6d;}.cls-10{fill:#8c6239;}.cls-11{fill:#c32727;}.cls-12{fill:#9e1627;}.cls-13{fill:#ed1c24;}.cls-14{fill:#cc1d32;}.cls-15{fill:#9a2727;}.cls-16{fill:#cf2727;}.cls-17{fill:#5930e6;}.cls-18{fill:#f4f2f0;}.cls-19{fill:#c1b5a4;}.cls-20{fill:#e3dcd7;}.cls-21{fill:#333;}.cls-22{fill:#aea29d;}</style></defs><title>turkey</title><g id="Layer_2" data-name="Layer 2"><g id="Layer_3" data-name="Layer 3"><polygon class="cls-1" points="9.6 117.25 30.44 106.37 48.2 115.65 27.39 126.5 20.72 123.03 20.71 123.02 27.99 119.23 23.56 116.92 16.29 120.72 16.28 120.72 9.6 117.25"/><path class="cls-2" d="M20.72,123.58V123l6.66,3.47v5l-6.66-3.47Zm-4.43,2.17L9.6,122.29v-5l6.68,3.47h0Z"/><path class="cls-3" d="M27.38,131.54v-5L48.2,115.65v5Zm-6.66-8-4.43,2.17v-5l7.27-3.8L28,119.23,20.71,123h0Z"/><polygon class="cls-1" points="29.65 127.5 50.49 116.62 68.25 125.9 47.44 136.75 40.77 133.28 40.76 133.27 48.04 129.48 43.61 127.17 36.34 130.97 36.33 130.97 29.65 127.5"/><path class="cls-2" d="M40.77,133.83v-.55l6.67,3.47v5l-6.67-3.47ZM36.34,136l-6.69-3.46v-5L36.33,131h0Z"/><path class="cls-3" d="M47.44,141.79v-5L68.25,125.9v5Zm-6.67-8L36.34,136v-5l7.27-3.8L48,129.48l-7.28,3.79h0Z"/><polygon class="cls-4" points="41.21 86.51 33.72 90.41 33.72 117.09 26.21 113.19 26.21 86.51 33.72 82.59 41.21 86.51"/><polygon class="cls-5" points="33.72 117.09 33.72 90.41 41.21 86.51 41.21 113.19 33.72 117.09"/><polygon class="cls-4" points="60.51 97.21 53.02 101.11 53.02 127.79 45.51 123.89 45.51 97.21 53.02 93.29 60.51 97.21"/><polygon class="cls-5" points="53.02 127.79 53.02 101.11 60.51 97.21 60.51 123.89 53.02 127.79"/><polygon class="cls-6" points="98.34 17.21 81.43 85.68 44.08 6.17 45.03 3.68 63.34 0 87.03 3.61 98.34 17.21"/><polygon class="cls-7" points="95.21 19.7 78.98 84.76 46.78 25.62 44.08 6.17 62.78 3.14 83.86 6.77 95.21 19.7"/><polygon class="cls-8" points="89.21 43.47 87.24 50.92 85.27 58.38 67.27 52.83 49.26 47.29 47.8 34.82 46.33 22.35 53.42 23.81 60.51 25.27 71.21 28.67 81.43 34.84 85.32 39.16 89.21 43.47"/><polygon class="cls-7" points="41.5 114.41 41.5 71.61 88.16 47.29 88.16 96.26 47.4 117.48 41.5 114.41"/><polygon class="cls-9" points="88.16 47.29 41.5 71.61 0 50.01 46.78 25.62 70.17 34.3 88.16 47.29"/><polygon class="cls-10" points="41.5 71.61 41.5 114.41 0 92.87 0 50.01 41.5 71.61"/><polygon class="cls-7" points="25.32 63.27 25.32 43.08 16.91 38.72 25.32 34.33 33.71 38.72 33.71 58.89 25.32 63.27"/><polygon class="cls-10" points="25.32 72.97 16.91 68.58 16.91 38.72 25.32 43.08 25.32 72.97"/><polygon class="cls-11" points="24.21 44.58 18.02 41.36 18.02 55.16 24.21 58.38 24.21 44.58"/><polygon class="cls-12" points="21.02 54.83 16.86 56.99 16.86 61.89 21.02 59.73 21.02 54.83"/><polygon class="cls-13" points="21.02 54.83 16.86 52.66 12.72 54.83 16.86 56.99 21.02 54.83"/><polygon class="cls-14" points="16.86 56.99 12.72 54.83 12.72 59.73 16.86 61.89 16.86 56.99"/><polygon class="cls-12" points="26.26 57.44 22.11 59.6 22.11 64.5 26.26 62.34 26.26 57.44"/><polygon class="cls-13" points="26.26 57.44 22.11 55.27 17.96 57.44 22.11 59.6 26.26 57.44"/><polygon class="cls-14" points="22.11 59.6 17.96 57.44 17.96 62.34 22.11 64.5 22.11 59.6"/><polygon class="cls-15" points="41.07 20.45 25.31 28.64 25.31 47.23 41.07 39.04 41.07 20.45"/><polygon class="cls-16" points="41.07 20.45 25.31 12.22 9.59 20.45 25.31 28.64 41.07 20.45"/><polygon class="cls-11" points="25.31 28.64 9.59 20.45 9.59 39.04 25.31 47.23 25.31 28.64"/><polygon class="cls-17" points="33.9 25.38 26.03 29.47 26.03 38.76 33.9 34.66 33.9 25.38"/><polygon class="cls-18" points="27.17 30.49 29.21 31.56 33.3 29.43 31.22 28.36 27.17 30.49"/><polygon class="cls-19" points="27.17 30.49 27.17 35.32 29.21 36.37 29.21 31.56 27.17 30.49"/><polygon class="cls-20" points="29.21 31.56 29.21 36.37 33.3 34.24 33.3 29.43 29.21 31.56"/><polygon class="cls-21" points="32.12 33.5 32.12 31.37 30.29 32.32 30.29 34.45 32.12 33.5"/><polygon class="cls-9" points="77.59 67.43 54.35 79.53 44.02 74.16 85.27 52.62 77.59 67.43"/><polygon class="cls-10" points="54.35 79.53 54.35 103.93 44.02 98.56 44.02 74.16 54.35 79.53"/><polygon class="cls-22" points="77.59 91.82 77.59 67.43 85.27 52.62 77.59 91.82"/><polygon class="cls-8" points="77.59 91.82 54.35 103.93 54.35 79.53 77.59 67.43 77.59 91.82"/><polygon class="cls-12" points="7.6 50.76 7.6 42.21 20.87 32.48 20.87 41.74 10.6 47.09 7.6 50.76"/><polygon class="cls-13" points="20.87 32.48 7.6 42.21 0.92 38.74 14.22 28.98 20.87 32.48"/><polygon class="cls-14" points="7.6 42.21 7.6 50.76 0.92 47.31 0.92 38.74 7.6 42.21"/></g></g></svg>