<svg xmlns="http://www.w3.org/2000/svg" viewBox="0 0 148.33 106.21"><defs><style>.cls-1{fill:#c14324;}.cls-1,.cls-10,.cls-11,.cls-12,.cls-13,.cls-14,.cls-15,.cls-16,.cls-17,.cls-18,.cls-19,.cls-2,.cls-20,.cls-21,.cls-3,.cls-4,.cls-5,.cls-6,.cls-7,.cls-8,.cls-9{fill-rule:evenodd;}.cls-2{fill:#e3d8ce;}.cls-3{fill:#bda58e;}.cls-4{fill:#89837e;}.cls-5{fill:#827c77;}.cls-6{fill:#e0d1c9;}.cls-7{fill:#4d4d4d;}.cls-8{fill:gray;}.cls-9{fill:#b39480;}.cls-10{fill:#666;}.cls-11{fill:#999;}.cls-12{fill:#b3b3b3;}.cls-13{fill:#554e44;}.cls-14{fill:#464039;}.cls-15{fill:#2c2621;}.cls-16{fill:#c6d7db;}.cls-17{fill:#d6d8d8;}.cls-18{fill:#b2d3db;}.cls-19{fill:#333;}.cls-20{fill:#919191;}.cls-21{fill:#bbb;}</style></defs><title>wolf</title><g id="Layer_2" data-name="Layer 2"><g id="Layer_2-2" data-name="Layer 2"><polygon class="cls-1" points="56.87 63.22 45.82 68.99 34.78 63.22 45.82 57.48 56.87 63.22"/><polygon class="cls-2" points="45.82 83.03 34.78 77.25 34.78 63.22 45.82 68.99 45.82 83.03"/><polygon class="cls-3" points="45.82 83.03 45.82 68.99 56.87 63.22 56.87 77.25 45.82 83.03"/><polygon class="cls-4" points="34.78 77.25 45.82 83.03 45.82 97.78 34.78 92.01 34.78 77.25"/><polygon class="cls-5" points="45.82 97.78 45.82 83.03 56.87 77.25 56.87 92.01 45.82 97.78"/><polygon class="cls-1" points="62.18 77.42 51.13 71.65 62.18 65.91 73.22 71.65 62.18 77.42"/><polygon class="cls-2" points="62.18 91.25 51.13 85.47 51.13 71.65 62.18 77.42 62.18 91.25"/><polygon class="cls-3" points="73.22 85.47 62.18 91.25 62.18 77.42 73.22 71.65 73.22 85.47"/><polygon class="cls-4" points="51.13 85.47 62.18 91.25 62.18 106.21 51.13 100.44 51.13 85.47"/><polygon class="cls-5" points="62.18 106.21 62.18 91.25 73.22 85.47 73.22 100.44 62.18 106.21"/><polygon class="cls-1" points="99.57 57.21 88.53 62.99 77.48 57.21 77.48 41.07 88.53 35.33 99.57 41.07 99.57 57.21"/><polygon class="cls-5" points="77.48 57.21 88.53 62.99 99.57 57.21 99.57 69.86 88.53 75.63 77.48 69.86 77.48 57.21"/><polygon class="cls-1" points="116.77 48.97 105.73 54.74 94.68 48.97 105.73 43.23 116.77 48.97"/><polygon class="cls-2" points="94.68 48.97 105.73 54.74 105.73 70.89 94.68 65.11 94.68 48.97"/><polygon class="cls-3" points="105.73 54.74 116.77 48.97 116.77 65.11 105.73 70.89 105.73 54.74"/><polygon class="cls-4" points="105.73 70.89 105.73 83.53 94.68 77.76 94.68 65.11 105.73 70.89"/><polygon class="cls-5" points="105.73 83.53 105.73 70.89 116.77 65.11 116.77 77.76 105.73 83.53"/><polygon class="cls-6" points="145.85 14.85 127.41 11.66 148.33 11.23 145.85 14.85"/><polygon class="cls-7" points="102.4 16.42 145.85 14.85 131.39 27.49 106.4 22.32 102.4 16.42"/><polygon class="cls-8" points="102.4 16.42 98.86 10.44 125.92 11.34 145.85 14.85 102.4 16.42"/><polygon class="cls-9" points="148.33 11.23 131.39 27.49 147.03 21.17 148.33 11.23"/><path class="cls-10" d="M116.77,43.65,62.18,72.11v-27l54.59-28.46Zm-68.29-5.6L34.78,63.22V30.92L48.48,38Z"/><polygon class="cls-11" points="116.77 16.67 62.18 45.13 48.48 38.03 34.78 30.92 89.5 2.34 116.77 16.67"/><polygon class="cls-2" points="34.78 63.22 48.48 38.05 62.18 72.11 62.18 77.42 34.78 63.22"/><polygon class="cls-3" points="62.18 72.11 116.77 43.66 116.77 48.97 62.18 77.42 62.18 72.11"/><polygon class="cls-8" points="62.18 45.13 62.18 72.11 48.48 38.05 48.48 38.03 62.18 45.13"/><polygon class="cls-10" points="62.64 47.95 41.15 59.13 41.15 31.09 62.6 19.96 62.64 19.96 62.64 47.95"/><polygon class="cls-8" points="41.15 31.09 41.15 59.13 33.66 55.27 26.35 57.67 12.1 50.27 12.1 16 41.15 31.09"/><polygon class="cls-11" points="62.6 19.96 41.15 31.09 12.1 16 33.64 4.75 62.6 19.96"/><polygon class="cls-2" points="41.15 59.13 41.15 65.37 26.35 57.67 33.66 55.27 41.15 59.13"/><polygon class="cls-3" points="41.15 59.13 62.64 47.95 62.64 54.19 41.15 65.37 41.15 59.13"/><polygon class="cls-7" points="16.69 25.32 20.53 23.34 28.08 27.3 28.08 28.71 29.42 28.01 36.97 31.98 36.97 40.96 33.18 42.9 25.59 38.93 25.59 37.54 24.28 38.22 16.69 34.25 16.69 25.32"/><polygon class="cls-10" points="13.26 54.8 33.64 44.2 33.64 55.29 9.23 63.3 13.26 54.8"/><polygon class="cls-3" points="9.23 63.3 33.64 55.29 33.64 61.49 9.23 67.81 9.23 63.3"/><polygon class="cls-2" points="0 58.49 9.23 63.3 9.23 67.81 0 63 0 58.49"/><polygon class="cls-12" points="13.26 54.8 3.12 49.51 18.97 36.49 33.64 44.2 13.26 54.8"/><polygon class="cls-13" points="3.12 49.51 13.26 54.8 9.23 56.89 0 52.09 3.12 49.51"/><polygon class="cls-14" points="9.23 63.3 0 58.49 0 52.09 9.23 56.89 9.23 63.3"/><polygon class="cls-15" points="13.26 54.8 9.23 63.3 9.23 56.89 13.26 54.8"/><polygon class="cls-16" points="26.54 26.81 22.75 28.79 15.13 24.83 18.99 22.84 26.54 26.81"/><polygon class="cls-17" points="26.54 26.81 26.54 35.8 22.75 37.75 22.75 28.79 26.54 26.81"/><polygon class="cls-18" points="22.75 28.79 22.75 37.75 15.13 33.78 15.13 24.83 22.75 28.79"/><polygon class="cls-19" points="17.32 32.34 17.32 28.38 20.72 30.15 20.72 34.12 17.32 32.34"/><polygon class="cls-16" points="35.38 31.46 31.6 33.44 23.98 29.48 27.84 27.49 35.38 31.46"/><polygon class="cls-17" points="35.38 31.46 35.38 40.45 31.6 42.4 31.6 33.44 35.38 31.46"/><polygon class="cls-18" points="31.6 33.44 31.6 42.4 23.98 38.44 23.98 29.48 31.6 33.44"/><polygon class="cls-19" points="26.17 37.05 26.17 33.08 29.57 34.85 29.57 38.81 26.17 37.05"/><polygon class="cls-20" points="30.55 9.7 30.55 20.14 20.84 15.1 20.84 4.66 25.71 2.54 30.55 9.7"/><polygon class="cls-21" points="35.39 7.18 30.55 9.7 25.71 2.54 30.58 0 35.39 7.14 35.39 7.18"/><path class="cls-10" d="M25.71,2.54,20.83,4.66l4.91-2.55L30.58,0ZM30.55,9.7l4.84-2.52V17.65l-4.84,2.49Z"/><polygon class="cls-20" points="43.05 16.07 43.05 26.52 33.34 21.48 33.34 11.04 38.21 8.91 43.05 16.07"/><polygon class="cls-21" points="47.89 13.55 43.05 16.07 38.21 8.91 43.08 6.38 47.89 13.52 47.89 13.55"/><path class="cls-10" d="M38.21,8.91,33.34,11l4.9-2.56,4.84-2.1Zm4.84,7.16,4.84-2.51V24l-4.84,2.48Z"/></g></g></svg>