<svg xmlns="http://www.w3.org/2000/svg" viewBox="0 0 161.98 100.31"><defs><style>.cls-1{fill:#ba9bc9;}.cls-13,.cls-2{fill:#977dad;}.cls-10,.cls-11,.cls-12,.cls-14,.cls-2,.cls-3,.cls-4,.cls-5,.cls-6,.cls-7,.cls-8,.cls-9{fill-rule:evenodd;}.cls-3{fill:#b08bc6;}.cls-4{fill:#876d99;}.cls-5{fill:#c19cdb;}.cls-6{fill:#776389;}.cls-7{fill:#8a73a0;}.cls-8{fill:#cda6e8;}.cls-9{fill:#b18dc6;}.cls-10{fill:#876e99;}.cls-11{fill:#bd99d6;}.cls-12{fill:#f2f2f2;}</style></defs><title>worm</title><g id="Layer_2" data-name="Layer 2"><g id="Layer_3" data-name="Layer 3"><rect class="cls-1" x="25.15" y="79.96" width="13.22" height="13.22"/><path class="cls-2" d="M49.73,18.9l66.68,34.81v11.6L49.73,30.5ZM95.9,15.13l16.25,4.08,0,0,19.89,10.39-10.12,5.28-9.77-4.78ZM0,36.14,0,25.36,76.11,65.07V75.82Z"/><polygon class="cls-3" points="48.22 31.29 94.53 55.42 76.11 65.06 0 25.36 48.62 0 103.42 28.59 118.75 36.57 121.94 34.91 132.06 29.63 112.17 19.24 112.15 19.21 126.76 11.55 161.98 29.92 116.42 53.71 49.73 18.9 37.1 25.48 48.22 31.29"/><path class="cls-4" d="M162,41.49,116.41,65.31V53.71L162,29.92ZM49.73,30.5l-1.52.79L37.1,25.48,49.73,18.9ZM94.52,66.17,76.11,75.82V65.07l18.41-9.65V66.17Z"/><polygon class="cls-5" points="95.9 15.13 126.76 11.55 112.15 19.21 95.9 15.13"/><path class="cls-6" d="M116.41,70.27v-5L162,41.49v5Zm-40.3,5.55,18.41-9.65V72L76.11,81.6Z"/><path class="cls-7" d="M103.42,28.59,95.9,15.13l16.27,15,9.77,4.78-3.19,1.66Zm-8.9,26.83L48.21,31.29l1.52-.79,66.68,34.81v5L94.52,58.85ZM76.11,81.6,0,41.92V36.14L76.11,75.82Z"/><polygon class="cls-3" points="76.11 65.06 50.26 78.57 30.74 68.39 56.58 54.89 56.58 54.87 76.11 65.06"/><polygon class="cls-4" points="76.11 75.82 50.26 89.32 50.26 78.57 76.11 65.06 76.11 75.82"/><polygon class="cls-6" points="50.26 89.32 76.11 75.82 76.11 81.6 50.26 95.1 50.26 89.32"/><path class="cls-8" d="M19.55,100.29l-4.89-2.56L9.23,94.91V84.16l10.32,5.38v10.75ZM17,79.53l-1,2.6-2.22-1.27,1-2.58Z"/><polygon class="cls-9" points="21.46 75.19 22.25 75.65 16.95 79.53 14.73 78.28 14.71 78.25 20.01 74.37 21.46 75.19"/><polygon class="cls-4" points="22.25 75.65 23.55 76.59 15.94 82.13 16.95 79.53 22.25 75.65"/><polygon class="cls-10" points="19.55 100.29 19.55 89.56 50.26 78.57 50.26 95.1 19.55 100.31 19.55 100.29"/><polygon class="cls-11" points="21.46 75.19 30.74 68.39 50.26 78.57 19.55 89.56 19.55 89.53 9.23 84.16 13.72 80.86 15.94 82.13 23.55 76.59 22.25 75.65 21.46 75.19"/><polygon class="cls-8" points="25.72 87.34 22.59 85.56 23.89 82.81 27.02 84.59 25.72 87.34"/><polygon class="cls-9" points="23.89 82.81 31.36 80.13 34.47 81.92 27.02 84.59 23.89 82.81"/><polygon class="cls-4" points="27.02 84.59 34.47 81.92 36.43 83.51 25.72 87.34 27.02 84.59"/><polygon class="cls-12" points="27.92 90.09 27.92 84.35 34.23 82.13 34.23 87.86 27.92 90.09"/><polygon class="cls-13" points="72.84 44.16 70.33 42.85 51.95 52.51 54.57 53.87 72.84 44.16"/><polygon class="cls-13" points="56.57 35.72 54.06 34.41 35.69 44.06 38.3 45.42 56.57 35.72"/><polygon class="cls-13" points="41.03 27.56 38.52 26.25 20.15 35.9 22.76 37.26 41.03 27.56"/><polygon class="cls-13" points="101.42 27.48 98.91 26.17 81.34 35.4 83.95 36.76 101.42 27.48"/><polygon class="cls-13" points="84.85 18.79 82.33 17.48 64.71 26.73 67.33 28.09 84.85 18.79"/><polygon class="cls-13" points="71.12 11.69 68.6 10.38 51.05 19.6 53.66 20.96 71.12 11.69"/><polygon class="cls-13" points="117.7 36.01 115.18 34.69 97.61 43.92 100.23 45.28 117.7 36.01"/><polygon class="cls-13" points="145.16 21.11 142.64 19.79 127.97 27.5 130.59 28.86 145.16 21.11"/><polygon class="cls-13" points="119.8 36.01 122.32 34.69 137.55 42.67 134.93 44.03 119.8 36.01"/><polygon class="cls-13" points="24.49 12.6 27 11.29 45.08 21.34 42.46 22.7 24.49 12.6"/><polygon class="cls-13" points="128.39 31.55 130.91 30.24 146.13 38.22 143.51 39.58 128.39 31.55"/><polygon class="cls-14" points="27.92 87.82 27.92 84.33 31.76 82.98 31.76 86.47 27.92 87.82"/><polygon class="cls-13" points="35.35 66.02 37.72 64.77 57.45 74.84 54.84 76.2 35.35 66.02"/><polygon class="cls-13" points="50.8 57.93 53.18 56.68 72.91 66.74 70.29 68.1 50.8 57.93"/></g></g></svg>