<?xml version="1.0" encoding="utf-8"?>
<!-- Generator: Adobe Illustrator 22.0.1, SVG Export Plug-In . SVG Version: 6.00 Build 0)  -->
<svg version="1.1" xmlns="http://www.w3.org/2000/svg" xmlns:xlink="http://www.w3.org/1999/xlink" x="0px" y="0px" width="100px"
	 height="60px" viewBox="0 0 100 60" style="enable-background:new 0 0 100 60;" xml:space="preserve">
<style type="text/css">
	.st0{clip-path:url(#SVGID_2_);}
	.st1{fill-rule:evenodd;clip-rule:evenodd;fill:#FDD535;}
	.st2{fill-rule:evenodd;clip-rule:evenodd;fill:#EF9818;}
	.st3{fill-rule:evenodd;clip-rule:evenodd;fill:#666666;}
	.st4{fill-rule:evenodd;clip-rule:evenodd;fill:#919191;}
	.st5{fill-rule:evenodd;clip-rule:evenodd;fill:#BBBBBB;}
	.st6{fill-rule:evenodd;clip-rule:evenodd;fill:#D5D5D5;}
	.st7{fill-rule:evenodd;clip-rule:evenodd;fill:#999999;}
	.st8{fill-rule:evenodd;clip-rule:evenodd;fill:#D67E7E;}
	.st9{fill-rule:evenodd;clip-rule:evenodd;}
	.st10{fill-rule:evenodd;clip-rule:evenodd;fill:#B4DDE7;}
	.st11{fill-rule:evenodd;clip-rule:evenodd;fill:#83B3D1;}
	.st12{fill-rule:evenodd;clip-rule:evenodd;fill:#B78C62;}
	.st13{fill-rule:evenodd;clip-rule:evenodd;fill:#D3C19A;}
	.st14{fill-rule:evenodd;clip-rule:evenodd;fill:#684B31;}
	.st15{fill-rule:evenodd;clip-rule:evenodd;fill:#B0894F;}
	.st16{fill-rule:evenodd;clip-rule:evenodd;fill:#F9EA7E;}
	.st17{fill-rule:evenodd;clip-rule:evenodd;fill:#DF3E44;}
	.st18{fill-rule:evenodd;clip-rule:evenodd;fill:#FB597A;}
	.st19{fill-rule:evenodd;clip-rule:evenodd;fill:#FC728D;}
	.st20{fill-rule:evenodd;clip-rule:evenodd;fill:#E9D21B;}
	.st21{fill-rule:evenodd;clip-rule:evenodd;fill:#FFFFFF;}
	.st22{fill-rule:evenodd;clip-rule:evenodd;fill:#B3B3B3;}
	.st23{fill-rule:evenodd;clip-rule:evenodd;fill:#CCCCCC;}
	.st24{fill-rule:evenodd;clip-rule:evenodd;fill:#88775E;}
	.st25{fill-rule:evenodd;clip-rule:evenodd;fill:#42382D;}
	.st26{fill-rule:evenodd;clip-rule:evenodd;fill:#322923;}
	.st27{fill-rule:evenodd;clip-rule:evenodd;fill:#E6AB28;}
	.st28{fill-rule:evenodd;clip-rule:evenodd;fill:#605342;}
	.st29{fill-rule:evenodd;clip-rule:evenodd;fill:#959595;}
	.st30{fill-rule:evenodd;clip-rule:evenodd;fill:#FE929D;}
	.st31{fill-rule:evenodd;clip-rule:evenodd;fill:#DA4765;}
	.st32{fill-rule:evenodd;clip-rule:evenodd;fill:#FF7F86;}
	.st33{fill-rule:evenodd;clip-rule:evenodd;fill:#FE707E;}
	.st34{fill-rule:evenodd;clip-rule:evenodd;fill:#EDE3D6;}
	.st35{fill-rule:evenodd;clip-rule:evenodd;fill:#C8A684;}
	.st36{fill-rule:evenodd;clip-rule:evenodd;fill:#333333;}
	.st37{fill-rule:evenodd;clip-rule:evenodd;fill:#BDAB64;}
	.st38{fill-rule:evenodd;clip-rule:evenodd;fill:#9E7B47;}
	.st39{fill-rule:evenodd;clip-rule:evenodd;fill:#C14324;}
	.st40{fill-rule:evenodd;clip-rule:evenodd;fill:#E3D8CE;}
	.st41{fill-rule:evenodd;clip-rule:evenodd;fill:#BDA58E;}
	.st42{fill-rule:evenodd;clip-rule:evenodd;fill:#6A5140;}
	.st43{fill-rule:evenodd;clip-rule:evenodd;fill:#3A2C23;}
	.st44{fill-rule:evenodd;clip-rule:evenodd;fill:#E0D1C9;}
	.st45{fill-rule:evenodd;clip-rule:evenodd;fill:#96341D;}
	.st46{fill-rule:evenodd;clip-rule:evenodd;fill:#D55F11;}
	.st47{fill-rule:evenodd;clip-rule:evenodd;fill:#B39480;}
	.st48{fill-rule:evenodd;clip-rule:evenodd;fill:#DA870C;}
	.st49{fill-rule:evenodd;clip-rule:evenodd;fill:#D07315;}
	.st50{fill-rule:evenodd;clip-rule:evenodd;fill:#554E44;}
	.st51{fill-rule:evenodd;clip-rule:evenodd;fill:#464039;}
	.st52{fill-rule:evenodd;clip-rule:evenodd;fill:#2C2621;}
	.st53{fill-rule:evenodd;clip-rule:evenodd;fill:#F4F2F0;}
	.st54{fill-rule:evenodd;clip-rule:evenodd;fill:#C1B5A4;}
	.st55{fill-rule:evenodd;clip-rule:evenodd;fill:#E3DCD7;}
	.st56{clip-path:url(#SVGID_4_);}
	.st57{clip-path:url(#SVGID_6_);}
	.st58{clip-path:url(#SVGID_8_);}
	.st59{clip-path:url(#SVGID_10_);}
</style>
<g id="_x32__x5F_2">
</g>
<g id="_x31__x5F_2">
	<g>
		<defs>
			<path id="SVGID_3_" d="M100,0H0v50h15c0,5.5,4.5,10,10,10c5.5,0,10-4.5,10-10h65V0z"/>
		</defs>
		<clipPath id="SVGID_2_">
			<use xlink:href="#SVGID_3_"  style="overflow:visible;"/>
		</clipPath>
		<g class="st0">
			<rect x="0" class="st1" width="100" height="100"/>
			<g>
				<polygon class="st2" points="48.9,58.4 75.5,72.5 39,91.7 12.3,77.7 				"/>
				<g>
					<polygon class="st3" points="30.2,78.3 30.2,42.3 25.3,39.7 30.2,37.1 35.1,39.7 35.1,75.7 					"/>
					<polygon class="st4" points="30.2,78.3 25.3,75.7 25.3,39.7 30.2,42.3 					"/>
				</g>
				<g>
					<polygon class="st3" points="64.3,74.1 64.3,51.9 59.4,49.4 64.3,46.8 69.1,49.4 69.1,71.5 					"/>
					<polygon class="st4" points="64.3,74.1 59.4,71.5 59.4,49.4 64.3,51.9 					"/>
				</g>
				<g>
					<polygon class="st3" points="43.5,85.5 43.5,39.3 38.6,36.8 43.5,34.2 48.4,36.8 48.4,82.9 					"/>
					<polygon class="st4" points="43.5,85.5 38.6,82.9 38.6,36.8 43.5,39.3 					"/>
				</g>
				<g>
					<polygon class="st4" points="67.1,7.6 71.2,9.8 71.2,15.1 67.1,12.9 					"/>
					<polygon class="st3" points="71.2,9.8 75.4,7.6 75.4,12.9 71.2,15.1 					"/>
					<polygon class="st5" points="67.1,7.6 71.2,5.4 75.4,7.6 71.2,9.8 					"/>
				</g>
				<g>
					<polygon class="st4" points="67.1,11.9 67.1,39.9 62.9,37.7 62.9,9.8 					"/>
					<polygon class="st3" points="67.1,39.9 67.1,11.9 71.2,9.8 71.2,37.7 					"/>
					<polygon class="st5" points="71.2,9.8 67.1,11.9 62.9,9.8 67.1,7.6 					"/>
				</g>
				<g>
					<polygon class="st4" points="58.8,35.5 62.9,37.7 62.9,43 58.8,40.9 					"/>
					<polygon class="st3" points="62.9,37.7 67.1,35.5 67.1,40.9 62.9,43 					"/>
					<polygon class="st5" points="58.8,35.5 62.9,33.4 67.1,35.5 62.9,37.7 					"/>
				</g>
				<g>
					<polygon class="st3" points="69.5,59.4 47.6,71 47.6,68.5 47.6,68.5 47.6,61.4 42.8,63.9 36,67.4 36,64.7 36,49.4 55.5,39.2 
						55.5,48.5 69.5,41.1 69.5,41.1 69.5,52.1 					"/>
					<polygon class="st5" points="36,49.4 13.2,37.4 32.7,27.1 46.9,34.7 52.1,31.9 69.5,41.1 55.5,48.5 55.5,39.2 					"/>
					<polygon class="st4" points="36,67.4 13.2,55.4 13.2,52.7 13.2,37.4 36,49.4 36,64.7 					"/>
					<polygon class="st6" points="13.2,55.4 36,67.4 36,74.6 13.2,62.6 					"/>
					<path class="st7" d="M47.6,71l22-11.6v2.5l-22,11.6V71z M36,74.6v-7.1l6.8-3.5l4.7-2.5v7.1L42.8,71L36,74.6z"/>
				</g>
				<g>
					<polygon class="st4" points="28.3,30.6 28.3,40.2 19.5,35.5 19.5,25.9 23.9,24 					"/>
					<polygon class="st5" points="32.8,28.2 28.3,30.6 23.9,24 28.4,21.6 32.8,28.2 					"/>
					<path class="st3" d="M23.9,24l-4.4,2l4.5-2.3l4.4-1.9L23.9,24z M28.3,30.6l4.4-2.3v9.6l-4.4,2.3V30.6z"/>
				</g>
				<g>
					<polygon class="st4" points="17.7,58 19.6,58.9 21.3,62 23.9,61.2 24.9,61.8 24.9,66.8 23.1,65.8 23.1,68.7 21.3,67.8 
						19.5,66.9 19.5,63.9 17.7,63 					"/>
					<polygon class="st5" points="19.6,58.9 17.7,58 20.8,56.4 28,60.2 24.9,61.8 23.9,61.2 					"/>
					<polygon class="st8" points="23.9,61.2 21.3,62 19.6,58.9 					"/>
				</g>
				<g>
					<polygon class="st4" points="39.7,36.4 39.7,46 30.9,41.4 30.9,31.8 35.3,29.8 					"/>
					<polygon class="st5" points="44.1,34.1 39.7,36.4 35.3,29.8 39.7,27.5 44.1,34.1 					"/>
					<path class="st3" d="M35.3,29.8l-4.4,2l4.5-2.3l4.4-1.9L35.3,29.8z M39.7,36.4l4.4-2.3v9.6L39.7,46V36.4z"/>
				</g>
				<g>
					<g>
						<polygon class="st5" points="18.8,45.7 12.4,42.3 15.6,40.6 22,44 						"/>
						<polygon class="st3" points="18.8,45.7 22,44 22,51.7 18.8,53.3 						"/>
						<polygon class="st4" points="12.4,42.3 18.8,45.7 18.8,53.3 12.4,50 						"/>
					</g>
					<polygon class="st9" points="14.3,48.6 14.3,45.2 17.2,46.7 17.2,50.1 					"/>
				</g>
				<g>
					<g>
						<polygon class="st5" points="29.8,51.7 23.4,48.3 26.7,46.6 33,50 						"/>
						<polygon class="st3" points="33,50 33,57.7 29.8,59.4 29.8,51.7 						"/>
						<polygon class="st4" points="23.4,48.3 29.8,51.7 29.8,59.4 23.4,56 						"/>
					</g>
					<polygon class="st9" points="25.3,54.6 25.3,51.2 28.2,52.8 28.2,56.1 					"/>
				</g>
			</g>
		</g>
		<g class="st0">
			<rect x="0" class="st10" width="100" height="100"/>
			<g>
				<polygon class="st11" points="84.9,67.6 39.9,91.3 14.6,77.9 59.6,54.2 				"/>
				<g>
					<polygon class="st12" points="76.6,52.3 76.6,65.8 72.4,68 72.4,54.4 					"/>
					<polygon class="st13" points="72.4,68 67.9,65.6 67.9,52 72.1,49.8 76.6,52.3 72.4,54.4 					"/>
				</g>
				<g>
					<polygon class="st12" points="34.3,59.6 34.3,73.2 30.1,75.4 30.1,61.8 					"/>
					<polygon class="st13" points="34.3,59.6 30.1,61.8 30.1,75.4 25.6,73 25.6,59.4 29.8,57.2 					"/>
				</g>
				<g>
					<polygon class="st16" points="58.1,54.4 48,49.1 57.3,44.2 67.4,49.5 					"/>
					<polygon class="st17" points="58.1,70 58.1,54.4 67.4,49.5 67.4,65.1 					"/>
					<polygon class="st19" points="58.1,54.4 58.1,70 48,64.7 48,49.1 					"/>
				</g>
				<g>
					<polygon class="st20" points="69.5,30.2 69.5,34.9 66.5,33.3 66.5,28.6 					"/>
					<polygon class="st21" points="72.3,28.8 69.5,30.2 66.5,28.6 69.3,27.2 					"/>
					<polygon class="st22" points="72.3,28.8 72.3,33.4 69.5,34.9 69.5,30.2 					"/>
				</g>
				<g>
					<path class="st21" d="M32.8,39.7l17.5,9.2l-7.6,4l-17.5-9.2L32.8,39.7z M77.7,34.5l-4.8,2.5v0l-4.4-2.3l-5,2.6l4.3,2.3v0v0
						l-3,1.6v0v0L47.5,32l12.7-6.7L77.7,34.5z"/>
					<polygon class="st23" points="44.6,63.2 42.7,73.6 25.2,64.4 23.5,53.1 25.2,43.7 42.7,52.9 					"/>
					<path class="st6" d="M64.9,41.3l3-1.6l0.9,5.2l5-2.7l-0.9-5.1l4.8-2.5l1.8,10.3l-4.8,2.5l-5,2.7l-3,1.6l0-0.1v0L64.9,41.3z
						 M42.7,52.9l7.6-4l1.8,10.3l-7.6,4L42.7,52.9z"/>
					<polygon class="st22" points="52.2,59.3 50.9,66.3 65.5,58.6 66.7,51.6 69.7,50 74.7,47.4 79.5,44.9 77.7,55.2 64.9,61.9 
						50.3,69.6 42.7,73.6 44.6,63.2 					"/>
					<path class="st24" d="M47.5,32l17.4,9.2v0v0l-14.6,7.7l-17.5-9.2L47.5,32z M72.8,37.1l-5,2.6v0v0l-4.3-2.3l5-2.6L72.8,37.1
						L72.8,37.1z"/>
					<path class="st25" d="M72.8,37.1l0.9,5.1l-5,2.7l-0.9-5.2L72.8,37.1z M50.3,48.9l14.6-7.7l1.8,10.2v0l0,0.1l-14.5,7.7
						L50.3,48.9z"/>
					<polygon class="st26" points="66.7,51.6 65.5,58.6 50.9,66.3 52.2,59.3 					"/>
				</g>
				<polygon class="st24" points="56.8,30.3 56.8,30.2 53.8,28.7 57.3,26.8 60.3,28.4 60.3,28.5 56.8,30.3 				"/>
				<g>
					<polygon class="st27" points="30.5,17.9 33.6,16.3 33.6,23 30.5,24.7 					"/>
					<polygon class="st28" points="24.6,14.9 30.5,17.9 30.5,24.7 24.6,21.6 					"/>
					<polygon class="st24" points="30.5,17.9 24.6,14.9 27.8,13.2 33.6,16.3 					"/>
				</g>
				<g>
					<polygon class="st25" points="42.7,27.6 55,21.1 55.1,21.1 55.1,46.4 42.7,52.9 					"/>
					<path class="st28" d="M29.6,20.7V46l-4.3-2.3V18.4L29.6,20.7z M42.7,52.9l-4.4-2.3V25.3v0l0,0l4.4,2.3V52.9z"/>
					<path class="st24" d="M25.2,18.4l12.4-6.5l4.3,2.3l-12.3,6.5L25.2,18.4z M42.7,27.6l-4.4-2.3l12.3-6.5l4.4,2.3L42.7,27.6z"/>
					<polygon class="st21" points="29.6,20.7 41.9,14.2 50.6,18.8 38.4,25.3 38.3,25.3 					"/>
					<polygon class="st23" points="38.3,50.6 33.9,48.3 29.6,46 29.6,20.7 38.3,25.3 38.3,25.3 					"/>
				</g>
				<g>
					<polygon class="st29" points="40.5,37.5 40.5,47.9 40.5,51.7 38.2,53 38.2,49.1 38.2,38.6 					"/>
					<polygon class="st21" points="25.8,32.1 28.1,30.9 40.5,37.5 38.2,38.6 38.2,38.6 					"/>
					<polygon class="st30" points="33.6,41 21.2,34.5 25.8,32.1 38.2,38.6 38.2,38.6 					"/>
					<polygon class="st31" points="33.6,51.5 33.6,41 38.2,38.6 38.2,49.1 38.2,53 35.6,54.4 35.6,50.5 					"/>
					<polygon class="st32" points="21.2,34.5 33.6,41 33.6,51.5 23.2,46 21.2,45 					"/>
					<polygon class="st33" points="23.2,46 33.6,51.5 35.6,50.5 35.6,54.4 23.2,47.8 					"/>
				</g>
				<g>
					<polygon class="st28" points="46.3,27.2 52.2,30.2 52.2,37 46.3,33.9 					"/>
					<polygon class="st24" points="52.2,37 52.2,30.2 46.3,27.2 49.5,25.5 55.3,28.6 55.3,35.3 					"/>
				</g>
				<g>
					<polygon class="st21" points="33.5,24.4 31.5,25.4 31.5,29.7 27.8,27.7 27.8,23.5 29.8,22.5 					"/>
					<polygon class="st23" points="31.5,29.7 31.5,25.4 33.5,24.4 33.5,28.7 					"/>
				</g>
				<g>
					<polygon class="st21" points="39.2,27.2 37.2,28.2 37.2,32.5 33.6,30.6 33.6,26.3 35.6,25.3 					"/>
					<polygon class="st23" points="37.2,32.5 37.2,28.2 39.2,27.2 39.2,31.5 					"/>
				</g>
				<g>
					<polygon class="st21" points="37.4,19.5 32.8,17.1 37,14.9 38.3,15.6 37.4,16 					"/>
					<polygon class="st23" points="37.4,19.5 37.4,23 32.8,20.6 32.8,17.1 					"/>
					<path class="st13" d="M28.3,11.2l4.5,2.4v3.5v3.5l-4.5-2.4V11.2z M37.4,23v-3.5V16l4.5,2.4v7L37.4,23L37.4,23z"/>
					<path class="st34" d="M28.3,11.2L32.5,9l4.5,2.4l-4.2,2.1L28.3,11.2z M42,18.4L37.4,16l0.9-0.4l3.3-1.8l4.5,2.4L42,18.4z"/>
					<path class="st35" d="M37,11.4l0,3.5l-4.2,2.1v-3.5L37,11.4z M46.1,16.3l0,7L42,25.5v-7L46.1,16.3z"/>
				</g>
				<polygon class="st17" points="23.5,39.7 26.2,41.1 26.2,44.2 23.5,42.8 				"/>
				<polygon class="st17" points="27.8,45 27.8,41.9 30.5,43.3 30.5,46.4 				"/>
				<polygon class="st24" points="60.3,37.4 60.3,37.3 57.3,35.7 60.8,33.9 63.8,35.5 63.8,35.6 60.3,37.4 				"/>
				<polygon class="st25" points="45.9,56 49.4,54.2 50,57.7 46.6,59.6 				"/>
				<polygon class="st26" points="71.1,53.5 71.6,50.2 74,49 73.4,52.3 				"/>
				<polygon class="st22" points="63.5,60 64.1,56.7 66.4,55.5 65.8,58.8 				"/>
				<polygon class="st6" points="63.2,46.4 66.7,44.6 67.4,48.1 63.9,50 				"/>
				<polygon class="st36" points="28.8,25.1 30.4,26 30.4,27.9 28.8,27 				"/>
				<polygon class="st36" points="34.6,28.1 36.2,29 36.2,30.8 34.6,30 				"/>
				<polygon class="st21" points="29.6,49.4 29.6,50.2 26.9,48.8 26.9,48 				"/>
			</g>
		</g>
		<g class="st0">
			<rect x="0" class="st37" width="100" height="100"/>
			<g>
				<polygon class="st38" points="84.4,62.4 34.9,88.5 10.1,75.5 59.7,49.3 				"/>
				<g>
					<polygon class="st39" points="36.3,56.6 29.9,60 23.5,56.6 29.9,53.2 					"/>
					<polygon class="st40" points="29.9,68.2 23.5,64.8 23.5,56.6 29.9,60 					"/>
					<polygon class="st41" points="29.9,68.2 29.9,60 36.3,56.6 36.3,64.8 					"/>
				</g>
				<g>
					<polygon class="st39" points="39.4,64.9 33,61.5 39.4,58.2 45.8,61.5 					"/>
				</g>
				<g>
					<polygon class="st39" points="61.1,53.1 54.7,56.5 48.3,53.1 48.3,43.6 54.7,40.2 61.1,43.6 					"/>
					<polygon class="st43" points="48.3,53.1 54.7,56.5 61.1,53.1 61.1,60.5 54.7,63.9 48.3,60.5 					"/>
				</g>
				<g>
					<polygon class="st39" points="71.1,48.2 64.7,51.6 58.3,48.2 64.7,44.9 					"/>
					<polygon class="st40" points="58.3,48.2 64.7,51.6 64.7,61.1 58.3,57.7 					"/>
					<polygon class="st41" points="64.7,51.6 71.1,48.2 71.1,57.7 64.7,61.1 					"/>
					<polygon class="st42" points="64.7,61.1 64.7,68.5 58.3,65.1 58.3,57.7 					"/>
					<polygon class="st43" points="64.7,68.5 64.7,61.1 71.1,57.7 71.1,65.1 					"/>
				</g>
				<g>
					<polygon class="st44" points="90.1,29.1 75.9,24.4 97.3,18.5 					"/>
					<polygon class="st45" points="62.8,29.1 90.1,29.1 85.2,42.6 65.1,32.6 					"/>
					<polygon class="st46" points="62.8,29.1 60.7,25.6 75.9,24.4 90.1,29.1 					"/>
					<polygon class="st47" points="97.3,18.5 85.2,42.6 90.1,29.1 					"/>
				</g>
				<g>
					<path class="st39" d="M71.1,45.1L39.4,61.8V46l31.7-16.7V45.1z M31.5,41.8l-8,14.8V37.6L31.5,41.8L31.5,41.8z"/>
					<polygon class="st48" points="71.1,29.3 39.4,46 31.5,41.8 23.5,37.6 55.3,20.9 					"/>
					<polygon class="st40" points="23.5,56.6 31.5,41.8 39.4,61.8 39.4,64.9 					"/>
					<polygon class="st41" points="39.4,61.8 71.1,45.1 71.1,48.2 39.4,64.9 					"/>
					<polygon class="st46" points="39.4,46 39.4,61.8 31.5,41.8 31.5,41.8 					"/>
				</g>
				<g>
					<polygon class="st39" points="39.7,47.6 27.2,54.2 27.2,37.7 39.7,31.2 39.7,31.2 					"/>
					<polygon class="st49" points="27.2,37.7 27.2,54.2 22.9,51.9 18.6,53.3 10.3,49 10.3,28.9 					"/>
					<polygon class="st48" points="39.7,31.2 27.2,37.7 10.3,28.9 22.9,22.3 					"/>
					<polygon class="st40" points="27.2,54.2 27.2,57.8 18.6,53.3 22.9,51.9 					"/>
					<polygon class="st41" points="27.2,54.2 39.7,47.6 39.7,51.3 27.2,57.8 					"/>
				</g>
				<polygon class="st39" points="13,34.4 15.2,33.2 19.6,35.5 19.6,36.3 20.4,35.9 24.8,38.3 24.8,43.5 22.6,44.7 18.2,42.3 
					18.2,41.5 17.4,41.9 13,39.6 				"/>
				<g>
					<polygon class="st39" points="11,51.7 22.9,45.4 22.9,51.9 8.7,56.6 					"/>
					<polygon class="st41" points="8.7,56.6 22.9,51.9 22.9,55.6 8.7,59.3 					"/>
					<polygon class="st40" points="3.3,53.8 8.7,56.6 8.7,59.3 3.3,56.5 					"/>
					<polygon class="st48" points="11,51.7 5.1,48.5 14.3,40.9 22.9,45.4 					"/>
					<polygon class="st50" points="5.1,48.5 11,51.7 8.7,52.9 3.3,50.1 					"/>
					<polygon class="st51" points="8.7,56.6 3.3,53.8 3.3,50.1 8.7,52.9 					"/>
					<polygon class="st52" points="11,51.7 8.7,56.6 8.7,52.9 					"/>
				</g>
				<g>
					<polygon class="st39" points="22.9,19.7 22.9,28.9 19.9,30.4 19.9,21.2 					"/>
					<polygon class="st48" points="19.9,21.2 14,18.1 17,16.6 22.9,19.7 22.9,19.7 					"/>
					<polygon class="st40" points="18.1,29.5 15.4,28.1 15.4,21.6 18.1,23.1 					"/>
					<polygon class="st46" points="19.9,30.4 18.9,29.9 18.4,29.6 18.1,29.5 18.1,23.1 15.4,21.6 15.4,28.1 14,27.4 14,18.1 
						19.9,21.2 					"/>
				</g>
				<g>
					<polygon class="st39" points="29.7,26.3 32.7,24.7 32.7,34 29.7,35.5 					"/>
					<polygon class="st48" points="32.7,24.7 29.7,26.3 23.8,23.2 26.8,21.6 32.7,24.7 					"/>
					<polygon class="st40" points="27.9,34.6 25.2,33.1 25.2,26.7 27.9,28.1 					"/>
					<polygon class="st46" points="29.7,26.3 29.7,35.5 28.7,35 28.2,34.7 27.9,34.6 27.9,28.1 25.2,26.7 25.2,33.1 23.8,32.4 
						23.8,23.2 					"/>
				</g>
				<g>
					<g>
						<g>
							<polygon class="st53" points="18.7,35.2 16.5,36.4 12.1,34.1 14.4,32.9 							"/>
							<polygon class="st54" points="18.7,35.2 18.7,40.5 16.5,41.6 16.5,36.4 							"/>
							<polygon class="st55" points="16.5,36.4 16.5,41.6 12.1,39.3 12.1,34.1 							"/>
						</g>
						<polygon class="st36" points="13.4,38.5 13.4,36.2 15.4,37.2 15.4,39.5 						"/>
					</g>
					<g>
						<g>
							<polygon class="st53" points="23.9,38 21.7,39.1 17.3,36.8 19.5,35.6 							"/>
							<polygon class="st54" points="23.9,38 23.9,43.2 21.7,44.4 21.7,39.1 							"/>
							<polygon class="st55" points="21.7,39.1 21.7,44.4 17.3,42.1 17.3,36.8 							"/>
						</g>
						<polygon class="st36" points="18.5,41.2 18.5,38.9 20.5,39.9 20.5,42.3 						"/>
					</g>
				</g>
			</g>
		</g>
	</g>
</g>
<g id="_x33__x5F_3">
</g>
<g id="_x32__x5F_3">
</g>
<g id="_x31__x5F_3">
</g>
</svg>
