<?xml version="1.0" encoding="utf-8"?>
<!-- Generator: Adobe Illustrator 22.0.1, SVG Export Plug-In . SVG Version: 6.00 Build 0)  -->
<svg version="1.1" xmlns="http://www.w3.org/2000/svg" xmlns:xlink="http://www.w3.org/1999/xlink" x="0px" y="0px" width="100px"
	 height="43.4px" viewBox="0 0 100 43.4" style="enable-background:new 0 0 100 43.4;" xml:space="preserve">
<style type="text/css">
	.st0{clip-path:url(#SVGID_2_);}
	.st1{fill-rule:evenodd;clip-rule:evenodd;fill:#FDD535;}
	.st2{fill-rule:evenodd;clip-rule:evenodd;fill:#EF9818;}
	.st3{fill-rule:evenodd;clip-rule:evenodd;fill:#666666;}
	.st4{fill-rule:evenodd;clip-rule:evenodd;fill:#919191;}
	.st5{fill-rule:evenodd;clip-rule:evenodd;fill:#BBBBBB;}
	.st6{fill-rule:evenodd;clip-rule:evenodd;fill:#D5D5D5;}
	.st7{fill-rule:evenodd;clip-rule:evenodd;fill:#999999;}
	.st8{fill-rule:evenodd;clip-rule:evenodd;fill:#D67E7E;}
	.st9{fill-rule:evenodd;clip-rule:evenodd;}
	.st10{fill-rule:evenodd;clip-rule:evenodd;fill:#B4DDE7;}
	.st11{fill-rule:evenodd;clip-rule:evenodd;fill:#83B3D1;}
	.st12{fill-rule:evenodd;clip-rule:evenodd;fill:#B78C62;}
	.st13{fill-rule:evenodd;clip-rule:evenodd;fill:#D3C19A;}
	.st14{fill-rule:evenodd;clip-rule:evenodd;fill:#684B31;}
	.st15{fill-rule:evenodd;clip-rule:evenodd;fill:#B0894F;}
	.st16{fill-rule:evenodd;clip-rule:evenodd;fill:#F9EA7E;}
	.st17{fill-rule:evenodd;clip-rule:evenodd;fill:#DF3E44;}
	.st18{fill-rule:evenodd;clip-rule:evenodd;fill:#FB597A;}
	.st19{fill-rule:evenodd;clip-rule:evenodd;fill:#FC728D;}
	.st20{fill-rule:evenodd;clip-rule:evenodd;fill:#E9D21B;}
	.st21{fill-rule:evenodd;clip-rule:evenodd;fill:#FFFFFF;}
	.st22{fill-rule:evenodd;clip-rule:evenodd;fill:#B3B3B3;}
	.st23{fill-rule:evenodd;clip-rule:evenodd;fill:#CCCCCC;}
	.st24{fill-rule:evenodd;clip-rule:evenodd;fill:#88775E;}
	.st25{fill-rule:evenodd;clip-rule:evenodd;fill:#42382D;}
	.st26{fill-rule:evenodd;clip-rule:evenodd;fill:#322923;}
	.st27{fill-rule:evenodd;clip-rule:evenodd;fill:#E6AB28;}
	.st28{fill-rule:evenodd;clip-rule:evenodd;fill:#605342;}
	.st29{fill-rule:evenodd;clip-rule:evenodd;fill:#959595;}
	.st30{fill-rule:evenodd;clip-rule:evenodd;fill:#FE929D;}
	.st31{fill-rule:evenodd;clip-rule:evenodd;fill:#DA4765;}
	.st32{fill-rule:evenodd;clip-rule:evenodd;fill:#FF7F86;}
	.st33{fill-rule:evenodd;clip-rule:evenodd;fill:#FE707E;}
	.st34{fill-rule:evenodd;clip-rule:evenodd;fill:#EDE3D6;}
	.st35{fill-rule:evenodd;clip-rule:evenodd;fill:#C8A684;}
	.st36{fill-rule:evenodd;clip-rule:evenodd;fill:#333333;}
	.st37{fill-rule:evenodd;clip-rule:evenodd;fill:#BDAB64;}
	.st38{fill-rule:evenodd;clip-rule:evenodd;fill:#9E7B47;}
	.st39{fill-rule:evenodd;clip-rule:evenodd;fill:#C14324;}
	.st40{fill-rule:evenodd;clip-rule:evenodd;fill:#E3D8CE;}
	.st41{fill-rule:evenodd;clip-rule:evenodd;fill:#BDA58E;}
	.st42{fill-rule:evenodd;clip-rule:evenodd;fill:#6A5140;}
	.st43{fill-rule:evenodd;clip-rule:evenodd;fill:#3A2C23;}
	.st44{fill-rule:evenodd;clip-rule:evenodd;fill:#E0D1C9;}
	.st45{fill-rule:evenodd;clip-rule:evenodd;fill:#96341D;}
	.st46{fill-rule:evenodd;clip-rule:evenodd;fill:#D55F11;}
	.st47{fill-rule:evenodd;clip-rule:evenodd;fill:#B39480;}
	.st48{fill-rule:evenodd;clip-rule:evenodd;fill:#DA870C;}
	.st49{fill-rule:evenodd;clip-rule:evenodd;fill:#D07315;}
	.st50{fill-rule:evenodd;clip-rule:evenodd;fill:#554E44;}
	.st51{fill-rule:evenodd;clip-rule:evenodd;fill:#464039;}
	.st52{fill-rule:evenodd;clip-rule:evenodd;fill:#2C2621;}
	.st53{fill-rule:evenodd;clip-rule:evenodd;fill:#F4F2F0;}
	.st54{fill-rule:evenodd;clip-rule:evenodd;fill:#C1B5A4;}
	.st55{fill-rule:evenodd;clip-rule:evenodd;fill:#E3DCD7;}
	.st56{clip-path:url(#SVGID_4_);}
	.st57{clip-path:url(#SVGID_6_);}
	.st58{clip-path:url(#SVGID_8_);}
	.st59{clip-path:url(#SVGID_10_);}
</style>
<g id="_x32__x5F_2">
</g>
<g id="_x31__x5F_2">
</g>
<g id="_x33__x5F_3">
</g>
<g id="_x32__x5F_3">
	<g>
		<g>
			<defs>
				<path id="SVGID_7_" d="M35,0C35,0,35,0,35,0c0,5.5-4.5,10-10,10S15,5.5,15,0c0,0,0,0,0,0H0v33.3h15c0,5.5,4.5,10,10,10
					s10-4.5,10-10h65V0H35z"/>
			</defs>
			<clipPath id="SVGID_2_">
				<use xlink:href="#SVGID_7_"  style="overflow:visible;"/>
			</clipPath>
			<g class="st0">
				<rect x="0" y="-33.3" class="st1" width="100" height="100"/>
				<g>
					<polygon class="st2" points="48.9,25 75.5,39.1 39,58.4 12.3,44.4 					"/>
					<g>
						<polygon class="st3" points="30.2,45 30.2,8.9 25.3,6.4 30.2,3.8 35.1,6.4 35.1,42.4 						"/>
						<polygon class="st4" points="30.2,45 25.3,42.4 25.3,6.4 30.2,8.9 						"/>
					</g>
					<g>
						<polygon class="st3" points="64.3,40.8 64.3,18.6 59.4,16.1 64.3,13.4 69.1,16.1 69.1,38.2 						"/>
						<polygon class="st4" points="64.3,40.8 59.4,38.2 59.4,16.1 64.3,18.6 						"/>
					</g>
					<g>
						<polygon class="st3" points="43.5,52.2 43.5,6 38.6,3.5 43.5,0.8 48.4,3.5 48.4,49.6 						"/>
						<polygon class="st4" points="43.5,52.2 38.6,49.6 38.6,3.5 43.5,6 						"/>
					</g>
					<g>
						<polygon class="st4" points="67.1,-21.4 67.1,6.5 62.9,4.4 62.9,-23.6 						"/>
						<polygon class="st3" points="67.1,6.5 67.1,-21.4 71.2,-23.6 71.2,4.4 						"/>
					</g>
					<g>
						<polygon class="st4" points="58.8,2.2 62.9,4.4 62.9,9.7 58.8,7.5 						"/>
						<polygon class="st3" points="62.9,4.4 67.1,2.2 67.1,7.5 62.9,9.7 						"/>
						<polygon class="st5" points="58.8,2.2 62.9,0 67.1,2.2 62.9,4.4 						"/>
					</g>
					<g>
						<polygon class="st3" points="69.5,26.1 47.6,37.6 47.6,35.2 47.6,35.2 47.6,28 42.8,30.5 36,34.1 36,31.4 36,16.1 55.5,5.9 
							55.5,15.2 69.5,7.8 69.5,7.8 69.5,18.8 						"/>
						<polygon class="st5" points="36,16.1 13.2,4.1 32.7,-6.2 46.9,1.3 52.1,-1.4 69.5,7.8 55.5,15.2 55.5,5.9 						"/>
						<polygon class="st4" points="36,34.1 13.2,22.1 13.2,19.4 13.2,4.1 36,16.1 36,31.4 						"/>
						<polygon class="st6" points="13.2,22.1 36,34.1 36,41.2 13.2,29.2 						"/>
						<path class="st7" d="M47.6,37.6l22-11.6v2.5l-22,11.6V37.6z M36,41.2v-7.1l6.8-3.5l4.7-2.5v7.1l-4.7,2.5L36,41.2z"/>
					</g>
					<g>
						<polygon class="st4" points="28.3,-2.8 28.3,6.8 19.5,2.2 19.5,-7.4 23.9,-9.3 						"/>
						<path class="st3" d="M23.9-9.3l-4.4,2L24-9.7l4.4-1.9L23.9-9.3z M28.3-2.8l4.4-2.3v9.6l-4.4,2.3V-2.8z"/>
					</g>
					<g>
						<polygon class="st4" points="17.7,24.6 19.6,25.6 21.3,28.7 23.9,27.9 24.9,28.4 24.9,33.5 23.1,32.5 23.1,35.4 21.3,34.5 
							19.5,33.5 19.5,30.6 17.7,29.7 						"/>
						<polygon class="st3" points="23.1,35.4 23.1,32.5 24.9,33.5 24.9,28.4 28,26.8 28,31.8 26.2,32.8 26.2,33.8 24.9,34.5 
							23.1,35.4 						"/>
						<polygon class="st5" points="19.6,25.6 17.7,24.6 20.8,23 28,26.8 24.9,28.4 23.9,27.9 						"/>
						<polygon class="st8" points="23.9,27.9 21.3,28.7 19.6,25.6 						"/>
					</g>
					<g>
						<polygon class="st4" points="39.7,3.1 39.7,12.7 30.9,8.1 30.9,-1.5 35.3,-3.5 						"/>
						<polygon class="st5" points="44.1,0.8 39.7,3.1 35.3,-3.5 39.7,-5.8 44.1,0.8 						"/>
						<path class="st3" d="M35.3-3.5l-4.4,2l4.5-2.3l4.4-1.9L35.3-3.5z M39.7,3.1l4.4-2.3v9.6l-4.4,2.3V3.1z"/>
					</g>
					<g>
						<g>
							<polygon class="st5" points="18.8,12.4 12.4,9 15.6,7.3 22,10.7 							"/>
							<polygon class="st3" points="18.8,12.4 22,10.7 22,18.4 18.8,20 							"/>
							<polygon class="st4" points="12.4,9 18.8,12.4 18.8,20 12.4,16.6 							"/>
						</g>
						<polygon class="st9" points="14.3,15.3 14.3,11.9 17.2,13.4 17.2,16.8 						"/>
					</g>
					<g>
						<g>
							<polygon class="st5" points="29.8,18.4 23.4,15 26.7,13.3 33,16.7 							"/>
							<polygon class="st3" points="33,16.7 33,24.4 29.8,26 29.8,18.4 							"/>
							<polygon class="st4" points="23.4,15 29.8,18.4 29.8,26 23.4,22.6 							"/>
						</g>
						<polygon class="st9" points="25.3,21.3 25.3,17.9 28.2,19.4 28.2,22.8 						"/>
					</g>
					<g>
						<polygon class="st3" points="27.7,42.7 30.2,41.5 30.2,45 27.7,46.3 						"/>
						<polygon class="st4" points="22.8,40.2 27.7,42.7 27.7,42.7 27.7,46.3 27.7,46.4 25.3,45.1 22.8,43.7 22.8,42.7 						"/>
						<polygon class="st5" points="30.2,41.5 27.7,42.7 27.7,42.7 22.8,40.2 25.3,38.8 						"/>
					</g>
					<g>
						<polygon class="st3" points="61.8,42.1 61.8,38.6 64.3,37.3 64.3,40.8 						"/>
						<polygon class="st4" points="61.8,38.6 61.8,42.1 61.8,42.2 59.4,40.9 56.9,39.5 56.9,38.5 56.9,36 61.8,38.5 						"/>
						<polygon class="st5" points="64.3,37.3 61.8,38.6 61.8,38.5 56.9,36 59.4,34.6 						"/>
					</g>
				</g>
			</g>
			<g class="st0">
				<rect y="-33.3" class="st10" width="100" height="100"/>
				<g>
					<polygon class="st11" points="84.9,34.2 39.9,58 14.6,44.6 59.6,20.9 					"/>
					<g>
						<polygon class="st12" points="76.6,18.9 76.6,32.5 72.4,34.7 72.4,21.1 						"/>
						<polygon class="st13" points="72.4,34.7 67.9,32.3 67.9,18.7 72.1,16.5 76.6,18.9 72.4,21.1 						"/>
						<polygon class="st14" points="76.6,32.5 76.6,35.3 72.4,37.5 72.4,34.7 						"/>
						<polygon class="st15" points="72.4,37.5 67.9,35.1 67.9,32.3 72.4,34.7 						"/>
					</g>
					<g>
						<polygon class="st12" points="47.8,47 43.6,49.2 43.6,35.6 47.8,33.5 						"/>
						<polygon class="st13" points="47.8,33.5 43.6,35.6 43.6,49.2 39.1,46.8 39.1,33.2 43.3,31 						"/>
					</g>
					<g>
						<polygon class="st12" points="34.3,26.3 34.3,39.9 30.1,42 30.1,28.5 						"/>
						<polygon class="st13" points="34.3,26.3 30.1,28.5 30.1,42 25.6,39.7 25.6,26.1 29.8,23.9 						"/>
						<polygon class="st14" points="34.3,39.9 34.3,42.7 30.1,44.8 30.1,42 						"/>
						<polygon class="st15" points="30.1,42 30.1,44.8 25.6,42.5 25.6,39.7 						"/>
					</g>
					<g>
						<polygon class="st16" points="66.2,32.1 64.7,32.9 63,32 64.5,31.2 						"/>
						<polygon class="st17" points="66.2,32.1 66.2,34.6 64.7,35.5 64.7,32.9 						"/>
						<polygon class="st18" points="64.7,32.9 64.7,35.5 63,34.6 63,32 						"/>
					</g>
					<g>
						<polygon class="st16" points="61.6,34.6 60,33.7 61.5,32.9 63.2,33.8 						"/>
						<polygon class="st17" points="61.6,37.1 61.6,34.6 63.2,33.8 63.2,36.3 						"/>
						<polygon class="st18" points="61.6,34.6 61.6,37.1 60,36.3 60,33.7 						"/>
					</g>
					<g>
						<polygon class="st16" points="58.1,21 48,15.7 57.3,10.8 67.4,16.2 						"/>
						<polygon class="st17" points="58.1,36.7 58.1,21 67.4,16.2 67.4,31.8 						"/>
						<polygon class="st19" points="58.1,21 58.1,36.7 48,31.4 48,15.7 						"/>
					</g>
					<g>
						<polygon class="st20" points="69.5,-3.1 69.5,1.6 66.5,0 66.5,-4.7 						"/>
						<polygon class="st22" points="72.3,-4.6 72.3,0.1 69.5,1.6 69.5,-3.1 						"/>
					</g>
					<g>
						<path class="st21" d="M32.8,6.4l17.5,9.2l-7.6,4l-17.5-9.2L32.8,6.4z M77.7,1.2l-4.8,2.5v0l-4.4-2.3l-5,2.6l4.3,2.3v0v0
							l-3,1.6v0v0L47.5-1.3L60.2-8L77.7,1.2z"/>
						<polygon class="st23" points="44.6,29.9 42.7,40.3 25.2,31.1 23.5,19.8 25.2,10.4 42.7,19.6 						"/>
						<path class="st6" d="M64.9,7.9l3-1.6l0.9,5.2l5-2.7l-0.9-5.1l4.8-2.5l1.8,10.3L74.7,14l-5,2.7l-3,1.6l0-0.1v0L64.9,7.9z
							 M42.7,19.6l7.6-4l1.8,10.3l-7.6,4L42.7,19.6z"/>
						<polygon class="st22" points="52.2,25.9 50.9,32.9 65.5,25.3 66.7,18.3 69.7,16.7 74.7,14 79.5,11.5 77.7,21.9 64.9,28.6 
							50.3,36.3 42.7,40.3 44.6,29.9 						"/>
						<path class="st24" d="M47.5-1.3l17.4,9.2v0v0l-14.6,7.7L32.8,6.4L47.5-1.3z M72.8,3.7l-5,2.6v0v0L63.5,4l5-2.6L72.8,3.7
							L72.8,3.7z"/>
						<path class="st25" d="M72.8,3.7l0.9,5.1l-5,2.7l-0.9-5.2L72.8,3.7z M50.3,15.6l14.6-7.7l1.8,10.2v0l0,0.1l-14.5,7.7L50.3,15.6
							z"/>
						<polygon class="st26" points="66.7,18.3 65.5,25.3 50.9,32.9 52.2,25.9 						"/>
					</g>
					<g>
						<polygon class="st25" points="42.7,-5.7 55,-12.2 55.1,-12.2 55.1,13.1 42.7,19.6 						"/>
						<path class="st28" d="M29.6-12.7v25.3l-4.3-2.3v-25.3L29.6-12.7z M42.7,19.6l-4.4-2.3V-8v0l0,0l4.4,2.3V19.6z"/>
						<polygon class="st23" points="38.3,17.3 33.9,15 29.6,12.7 29.6,-12.7 38.3,-8.1 38.3,-8 						"/>
					</g>
					<g>
						<polygon class="st29" points="40.5,4.1 40.5,14.6 40.5,18.4 38.2,19.6 38.2,15.7 38.2,5.3 						"/>
						<polygon class="st21" points="25.8,-1.2 28.1,-2.4 40.5,4.1 38.2,5.3 38.2,5.3 						"/>
						<polygon class="st30" points="33.6,7.7 21.2,1.2 25.8,-1.2 38.2,5.3 38.2,5.3 						"/>
						<polygon class="st31" points="33.6,18.2 33.6,7.7 38.2,5.3 38.2,15.7 38.2,19.6 35.6,21 35.6,17.1 						"/>
						<polygon class="st32" points="21.2,1.2 33.6,7.7 33.6,18.2 23.2,12.7 21.2,11.6 						"/>
						<polygon class="st33" points="23.2,12.7 33.6,18.2 35.6,17.1 35.6,21 23.2,14.5 						"/>
					</g>
					<g>
						<polygon class="st28" points="46.3,-6.2 52.2,-3.1 52.2,3.6 46.3,0.6 						"/>
						<polygon class="st24" points="52.2,3.6 52.2,-3.1 46.3,-6.2 49.5,-7.8 55.3,-4.7 55.3,2 						"/>
					</g>
					<polygon class="st17" points="23.5,6.4 26.2,7.8 26.2,10.9 23.5,9.5 					"/>
					<polygon class="st17" points="27.8,11.7 27.8,8.6 30.5,10 30.5,13.1 					"/>
					<polygon class="st24" points="60.3,4 60.3,4 57.3,2.4 60.8,0.6 63.8,2.2 63.8,2.2 60.3,4 					"/>
					<polygon class="st25" points="45.9,22.7 49.4,20.9 50,24.4 46.6,26.3 					"/>
					<polygon class="st26" points="71.1,20.2 71.6,16.9 74,15.7 73.4,19 					"/>
					<polygon class="st22" points="63.5,26.7 64.1,23.4 66.4,22.1 65.8,25.4 					"/>
					<polygon class="st22" points="50.6,33.1 51.2,29.8 53.5,28.5 53,31.8 					"/>
					<polygon class="st6" points="63.2,13.1 66.7,11.3 67.4,14.8 63.9,16.7 					"/>
					<polygon class="st21" points="29.6,16.1 29.6,16.8 26.9,15.4 26.9,14.7 					"/>
				</g>
			</g>
			<g class="st0">
				<rect y="-33.3" class="st37" width="100" height="100"/>
				<g>
					<polygon class="st38" points="84.4,29.1 34.9,55.1 10.1,42.1 59.7,16 					"/>
					<g>
						<polygon class="st39" points="36.3,23.3 29.9,26.6 23.5,23.3 29.9,19.9 						"/>
						<polygon class="st40" points="29.9,34.9 23.5,31.5 23.5,23.3 29.9,26.6 						"/>
						<polygon class="st41" points="29.9,34.9 29.9,26.6 36.3,23.3 36.3,31.5 						"/>
						<polygon class="st42" points="23.5,31.5 29.9,34.9 29.9,43.5 23.5,40.1 						"/>
						<polygon class="st43" points="29.9,43.5 29.9,34.9 36.3,31.5 36.3,40.1 						"/>
					</g>
					<g>
						<polygon class="st39" points="39.4,31.6 33,28.2 39.4,24.8 45.8,28.2 						"/>
						<polygon class="st40" points="39.4,39.7 33,36.3 33,28.2 39.4,31.6 						"/>
						<polygon class="st41" points="45.8,36.3 39.4,39.7 39.4,31.6 45.8,28.2 						"/>
						<polygon class="st42" points="33,36.3 39.4,39.7 39.4,48.5 33,45.1 						"/>
						<polygon class="st43" points="39.4,48.5 39.4,39.7 45.8,36.3 45.8,45.1 						"/>
					</g>
					<g>
						<polygon class="st39" points="61.1,19.7 54.7,23.1 48.3,19.7 48.3,10.3 54.7,6.9 61.1,10.3 						"/>
						<polygon class="st43" points="48.3,19.7 54.7,23.1 61.1,19.7 61.1,27.2 54.7,30.5 48.3,27.2 						"/>
					</g>
					<g>
						<polygon class="st39" points="71.1,14.9 64.7,18.3 58.3,14.9 64.7,11.5 						"/>
						<polygon class="st40" points="58.3,14.9 64.7,18.3 64.7,27.8 58.3,24.4 						"/>
						<polygon class="st41" points="64.7,18.3 71.1,14.9 71.1,24.4 64.7,27.8 						"/>
						<polygon class="st42" points="64.7,27.8 64.7,35.2 58.3,31.8 58.3,24.4 						"/>
						<polygon class="st43" points="64.7,35.2 64.7,27.8 71.1,24.4 71.1,31.8 						"/>
					</g>
					<g>
						<polygon class="st45" points="62.8,-4.2 90.1,-4.2 85.2,9.3 65.1,-0.7 						"/>
						<polygon class="st47" points="97.3,-14.9 85.2,9.3 90.1,-4.2 						"/>
					</g>
					<g>
						<path class="st39" d="M71.1,11.8L39.4,28.5V12.6L71.1-4V11.8z M31.5,8.5l-8,14.8V4.3L31.5,8.5L31.5,8.5z"/>
						<polygon class="st48" points="71.1,-4 39.4,12.6 31.5,8.5 23.5,4.3 55.3,-12.4 						"/>
						<polygon class="st40" points="23.5,23.3 31.5,8.5 39.4,28.5 39.4,31.6 						"/>
						<polygon class="st41" points="39.4,28.5 71.1,11.8 71.1,14.9 39.4,31.6 						"/>
						<polygon class="st46" points="39.4,12.6 39.4,28.5 31.5,8.5 31.5,8.5 						"/>
					</g>
					<g>
						<polygon class="st39" points="39.7,14.3 27.2,20.9 27.2,4.4 39.7,-2.1 39.7,-2.1 						"/>
						<polygon class="st49" points="27.2,4.4 27.2,20.9 22.9,18.6 18.6,20 10.3,15.7 10.3,-4.4 						"/>
						<polygon class="st48" points="39.7,-2.1 27.2,4.4 10.3,-4.4 22.9,-11 						"/>
						<polygon class="st40" points="27.2,20.9 27.2,24.5 18.6,20 22.9,18.6 						"/>
						<polygon class="st41" points="27.2,20.9 39.7,14.3 39.7,18 27.2,24.5 						"/>
					</g>
					<polygon class="st39" points="13,1 15.2,-0.1 19.6,2.2 19.6,3 20.4,2.6 24.8,4.9 24.8,10.2 22.6,11.3 18.2,9 18.2,8.2 
						17.4,8.6 13,6.3 					"/>
					<g>
						<polygon class="st39" points="11,18.3 22.9,12.1 22.9,18.6 8.7,23.3 						"/>
						<polygon class="st41" points="8.7,23.3 22.9,18.6 22.9,22.2 8.7,25.9 						"/>
						<polygon class="st40" points="3.3,20.5 8.7,23.3 8.7,25.9 3.3,23.1 						"/>
						<polygon class="st48" points="11,18.3 5.1,15.2 14.3,7.6 22.9,12.1 						"/>
						<polygon class="st50" points="5.1,15.2 11,18.3 8.7,19.5 3.3,16.7 						"/>
						<polygon class="st51" points="8.7,23.3 3.3,20.5 3.3,16.7 8.7,19.5 						"/>
						<polygon class="st52" points="11,18.3 8.7,23.3 8.7,19.5 						"/>
					</g>
					<g>
						<polygon class="st39" points="29.7,-7.1 32.7,-8.6 32.7,0.6 29.7,2.2 						"/>
						<polygon class="st40" points="27.9,1.2 25.2,-0.2 25.2,-6.7 27.9,-5.2 						"/>
						<polygon class="st46" points="29.7,-7.1 29.7,2.2 28.7,1.6 28.2,1.4 27.9,1.2 27.9,-5.2 25.2,-6.7 25.2,-0.2 23.8,-0.9 
							23.8,-10.1 						"/>
					</g>
					<g>
						<g>
							<g>
								<polygon class="st53" points="18.7,1.9 16.5,3.1 12.1,0.7 14.4,-0.4 								"/>
								<polygon class="st54" points="18.7,1.9 18.7,7.2 16.5,8.3 16.5,3.1 								"/>
								<polygon class="st55" points="16.5,3.1 16.5,8.3 12.1,6 12.1,0.7 								"/>
							</g>
							<polygon class="st36" points="13.4,5.1 13.4,2.8 15.4,3.9 15.4,6.2 							"/>
						</g>
						<g>
							<g>
								<polygon class="st53" points="23.9,4.6 21.7,5.8 17.3,3.5 19.5,2.3 								"/>
								<polygon class="st54" points="23.9,4.6 23.9,9.9 21.7,11 21.7,5.8 								"/>
								<polygon class="st55" points="21.7,5.8 21.7,11 17.3,8.7 17.3,3.5 								"/>
							</g>
							<polygon class="st36" points="18.5,7.9 18.5,5.6 20.5,6.6 20.5,8.9 							"/>
						</g>
					</g>
				</g>
			</g>
		</g>
	</g>
</g>
<g id="_x31__x5F_3">
</g>
</svg>
