<svg xmlns="http://www.w3.org/2000/svg" viewBox="0 0 134.94 77.17"><defs><style>.cls-1{fill:#efdb22;}.cls-2{fill:#fcee21;}.cls-10,.cls-11,.cls-12,.cls-13,.cls-14,.cls-15,.cls-16,.cls-2,.cls-3,.cls-4,.cls-5,.cls-6,.cls-7,.cls-8,.cls-9{fill-rule:evenodd;}.cls-3{fill:#ead721;}.cls-4{fill:#2b2b2b;}.cls-5{fill:#474747;}.cls-6{fill:#1a1a1a;}.cls-7{fill:#333;}.cls-8{fill:#e6e6e6;opacity:0.8;}.cls-9{fill:#b3b3b3;opacity:0.8;}.cls-10{fill:#ccc;opacity:0.8;}.cls-11{fill:#5e5e5e;}.cls-12{fill:#6f7070;}.cls-13{fill:#515151;}.cls-14{fill:#f4f2f0;}.cls-15{fill:#c1b5a4;}.cls-16{fill:#e3dcd7;}</style></defs><title>bee_down</title><g id="Layer_2" data-name="Layer 2"><g id="Layer_5" data-name="Layer 5"><rect class="cls-1" x="56.62" y="55.8" width="21.37" height="21.37"/><polygon class="cls-2" points="78 55.8 56.62 55.8 47.44 40.76 47.44 10.76 55.44 0 66.56 0 79.94 0 87.18 10.76 87.18 40.76 78 55.8"/><polygon class="cls-3" points="56.62 77.17 56.62 55.8 47.44 40.76 47.44 48.09 56.62 77.17 56.62 77.17"/><polygon class="cls-3" points="78 77.17 78 55.8 87.18 40.76 87.18 48.09 78 77.17 78 77.17"/><polygon class="cls-4" points="84.03 45.91 50.67 46.05 47.44 40.76 87.18 40.76 84.03 45.91"/><polygon class="cls-4" points="87.18 21.79 47.44 21.93 47.44 16.63 87.18 16.63 87.18 21.79"/><polygon class="cls-4" points="87.18 33.46 47.44 33.6 47.44 28.3 87.18 28.3 87.18 33.46"/><polygon class="cls-4" points="83.75 58.97 87.18 48.09 87.18 40.76 84.03 45.91 83.75 58.97"/><polygon class="cls-4" points="50.87 58.97 47.44 48.09 47.44 40.76 50.59 45.91 50.87 58.97"/><polygon class="cls-5" points="47.48 14.34 40.83 15.91 40.83 20.52 47.54 18.84 47.48 14.34"/><polygon class="cls-6" points="37.81 39.44 33.69 37.42 33.69 40.33 37.81 42.2 37.81 39.44"/><polygon class="cls-7" points="33.69 37.42 37.81 39.44 42.97 36.48 38.46 34.58 33.69 37.42"/><polygon class="cls-5" points="37.81 37.42 40.83 35.58 40.83 15.91 37.81 16.62 37.81 37.42"/><polygon class="cls-6" points="35.78 14.43 35.67 36.24 37.81 37.42 37.81 16.62 35.78 14.43"/><polygon class="cls-7" points="47.48 14.34 47.48 11.11 35.78 14.43 37.81 16.62 47.48 14.34"/><polygon class="cls-5" points="37.81 42.2 42.97 39.13 42.97 36.48 37.81 39.44 37.81 42.2"/><polygon class="cls-5" points="47.44 27.88 35.08 29.14 35.08 33.75 47.44 32.03 47.44 27.88"/><polygon class="cls-6" points="32.06 52.68 27.93 50.66 27.93 53.56 32.06 55.43 32.06 52.68"/><polygon class="cls-7" points="27.93 50.66 32.06 52.68 37.22 49.71 32.71 47.81 27.93 50.66"/><polygon class="cls-5" points="32.06 50.66 35.08 48.81 35.08 29.14 32.06 29.86 32.06 50.66"/><polygon class="cls-6" points="30.03 27.66 29.92 49.47 32.06 50.66 32.06 29.86 30.03 27.66"/><polygon class="cls-7" points="47.44 27.95 47.44 23.93 30.03 27.66 32.06 29.86 47.44 27.95"/><polygon class="cls-5" points="32.06 55.43 37.22 52.37 37.22 49.71 32.06 52.68 32.06 55.43"/><polygon class="cls-5" points="47.45 39.06 40.8 40.63 40.8 45.24 47.51 43.56 47.45 39.06"/><polygon class="cls-6" points="37.78 64.17 33.66 62.15 33.66 65.05 37.78 66.92 37.78 64.17"/><polygon class="cls-7" points="33.66 62.15 37.78 64.17 42.94 61.2 38.44 59.3 33.66 62.15"/><polygon class="cls-5" points="37.78 62.15 40.8 60.3 40.8 40.63 37.78 41.34 37.78 62.15"/><polygon class="cls-6" points="35.75 39.15 35.65 60.96 37.78 62.15 37.78 41.34 35.75 39.15"/><polygon class="cls-7" points="47.45 39.06 47.45 35.84 35.75 39.15 37.78 41.34 47.45 39.06"/><polygon class="cls-5" points="37.78 66.92 42.94 63.85 42.94 61.2 37.78 64.17 37.78 66.92"/><polygon class="cls-5" points="87.24 14.43 93.89 16 93.89 20.61 87.18 18.93 87.24 14.43"/><polygon class="cls-6" points="96.91 39.53 101.03 37.51 101.03 40.41 96.91 42.28 96.91 39.53"/><polygon class="cls-7" points="101.03 37.51 96.91 39.53 91.75 36.57 96.26 34.67 101.03 37.51"/><polygon class="cls-5" points="96.91 37.51 93.89 35.66 93.89 16 96.91 16.71 96.91 37.51"/><polygon class="cls-6" points="98.94 14.51 99.05 36.33 96.91 37.51 96.91 16.71 98.94 14.51"/><polygon class="cls-7" points="87.24 14.43 87.24 11.2 98.94 14.51 96.91 16.71 87.24 14.43"/><polygon class="cls-5" points="96.91 42.28 91.75 39.22 91.75 36.57 96.91 39.53 96.91 42.28"/><polygon class="cls-5" points="87.28 27.97 99.64 29.23 99.64 33.84 87.28 32.12 87.28 27.97"/><polygon class="cls-6" points="102.66 52.77 106.78 50.74 106.78 53.65 102.66 55.52 102.66 52.77"/><polygon class="cls-7" points="106.78 50.74 102.66 52.77 97.5 49.8 102.01 47.9 106.78 50.74"/><polygon class="cls-5" points="102.66 50.74 99.64 48.9 99.64 29.23 102.66 29.95 102.66 50.74"/><polygon class="cls-6" points="104.69 27.75 104.8 49.56 102.66 50.74 102.66 29.95 104.69 27.75"/><polygon class="cls-7" points="87.28 28.04 87.28 24.01 104.69 27.75 102.66 29.95 87.28 28.04"/><polygon class="cls-5" points="102.66 55.52 97.5 52.45 97.5 49.8 102.66 52.77 102.66 55.52"/><polygon class="cls-5" points="87.27 39.15 93.92 40.72 93.92 45.33 87.21 43.65 87.27 39.15"/><polygon class="cls-6" points="96.94 64.26 101.06 62.23 101.06 65.14 96.94 67.01 96.94 64.26"/><polygon class="cls-7" points="101.06 62.23 96.94 64.26 91.78 61.29 96.28 59.39 101.06 62.23"/><polygon class="cls-5" points="96.94 62.23 93.92 60.39 93.92 40.72 96.94 41.43 96.94 62.23"/><polygon class="cls-6" points="98.97 39.24 99.07 61.05 96.94 62.23 96.94 41.43 98.97 39.24"/><polygon class="cls-7" points="87.27 39.15 87.27 35.93 98.97 39.24 96.94 41.43 87.27 39.15"/><polygon class="cls-5" points="96.94 67.01 91.78 63.94 91.78 61.29 96.94 64.26 96.94 67.01"/><polygon class="cls-8" points="72.13 20.21 72.13 31.94 123.88 39.51 134.94 24.68 123.19 12.44 72.13 20.21"/><polygon class="cls-9" points="123.88 40.76 134.92 25.79 134.86 24.68 123.88 39.51 123.88 40.76"/><polygon class="cls-10" points="72.13 32.98 123.88 40.76 123.88 39.51 72.13 31.94 72.13 32.98"/><polygon class="cls-8" points="62.81 20.21 62.81 31.94 11.06 39.51 0 24.68 11.75 12.44 62.81 20.21"/><polygon class="cls-9" points="11.06 40.76 0.01 25.79 0.07 24.68 11.06 39.51 11.06 40.76"/><polygon class="cls-10" points="62.81 32.98 11.06 40.76 11.06 39.51 62.81 31.94 62.81 32.98"/><polygon class="cls-11" points="72.95 61.27 61.7 61.27 63.77 75.97 70.9 75.97 72.95 61.27"/><polygon class="cls-12" points="72.95 61.27 61.7 61.27 54.99 53.13 79.67 53.1 72.95 61.27"/><polygon class="cls-13" points="78 77.17 70.9 75.97 72.95 61.27 78 55.8 78 77.17"/><polygon class="cls-13" points="56.62 77.17 63.77 75.97 61.7 61.27 54.99 53.13 54.99 72.01 56.62 77.17"/><polygon class="cls-13" points="78 77.17 70.9 75.93 72.97 61.24 79.67 53.1 79.67 71.86 78 77.17"/><polygon class="cls-12" points="70.9 75.97 63.77 75.97 56.62 77.17 78 77.17 70.9 75.97"/><polygon class="cls-14" points="74.11 62.45 75.67 63.23 78.81 61.66 77.22 60.87 74.11 62.45"/><polygon class="cls-15" points="74.11 62.45 74.11 66.01 75.67 66.79 75.67 63.23 74.11 62.45"/><polygon class="cls-16" points="75.67 63.23 75.67 66.79 78.81 65.21 78.81 61.66 75.67 63.23"/><polygon class="cls-7" points="77.9 64.67 77.9 63.09 76.5 63.8 76.5 65.37 77.9 64.67"/><polygon class="cls-14" points="60.93 62.45 59.37 63.23 56.23 61.66 57.82 60.87 60.93 62.45"/><polygon class="cls-15" points="60.93 62.45 60.93 66.01 59.37 66.79 59.37 63.23 60.93 62.45"/><polygon class="cls-16" points="59.37 63.23 59.37 66.79 56.23 65.21 56.23 61.66 59.37 63.23"/><polygon class="cls-7" points="57.14 64.67 57.14 63.09 58.54 63.8 58.54 65.37 57.14 64.67"/><polygon class="cls-11" points="57.8 44.34 64.11 60.69 65.32 60 57.8 44.34"/><polygon class="cls-7" points="57.8 44.34 64.11 60.69 62.85 60.23 57.8 44.34"/><polygon class="cls-11" points="76.82 44.34 70.51 60.69 69.3 60 76.82 44.34"/><polygon class="cls-7" points="76.82 44.34 70.51 60.69 71.77 60.23 76.82 44.34"/></g></g></svg>