<svg xmlns="http://www.w3.org/2000/svg" viewBox="0 0 134.94 94.25"><defs><style>.cls-1{fill:#efdb22;}.cls-2{fill:#fcee21;}.cls-10,.cls-11,.cls-12,.cls-13,.cls-14,.cls-15,.cls-2,.cls-3,.cls-5,.cls-6,.cls-7,.cls-8,.cls-9{fill-rule:evenodd;}.cls-3{fill:#ead721;}.cls-4,.cls-5{fill:#2b2b2b;}.cls-6{fill:#474747;}.cls-7{fill:#1a1a1a;}.cls-8{fill:#333;}.cls-9{fill:#e6e6e6;opacity:0.8;}.cls-10{fill:#b3b3b3;opacity:0.8;}.cls-11{fill:#ccc;opacity:0.8;}.cls-12{fill:#6f7070;}.cls-13{fill:#c1b5a4;}.cls-14{fill:#f4f2f0;}.cls-15{fill:#5e5e5e;}</style></defs><title>bee_up</title><g id="Layer_2" data-name="Layer 2"><g id="Layer_4" data-name="Layer 4"><rect class="cls-1" x="55.44" y="75.55" width="24.5" height="18.71"/><polygon class="cls-2" points="79.94 75.55 55.44 75.55 47.44 60.5 47.44 30.5 55.44 19.74 66.56 19.74 79.94 19.74 87.18 30.5 87.18 60.5 79.94 75.55"/><polygon class="cls-3" points="55.44 94.25 55.44 75.55 47.44 60.5 47.44 67.83 55.44 94.25"/><polygon class="cls-3" points="79.94 94.25 79.94 75.55 87.18 60.5 87.18 67.83 79.94 94.25"/><rect class="cls-4" x="47.44" y="55.17" width="39.74" height="5.33"/><polygon class="cls-5" points="87.18 35.66 47.44 35.8 47.44 30.5 87.18 30.5 87.18 35.66"/><polygon class="cls-5" points="87.18 47.36 47.44 47.49 47.44 42.2 87.18 42.2 87.18 47.36"/><polygon class="cls-6" points="47.48 34.08 40.83 35.65 40.83 40.26 47.54 38.58 47.48 34.08"/><polygon class="cls-7" points="37.81 59.19 33.69 57.16 33.69 60.07 37.81 61.94 37.81 59.19"/><polygon class="cls-8" points="33.69 57.16 37.81 59.19 42.97 56.22 38.46 54.32 33.69 57.16"/><polygon class="cls-6" points="37.81 57.16 40.83 55.32 40.83 35.65 37.81 36.37 37.81 57.16"/><polygon class="cls-7" points="35.78 34.17 35.67 55.98 37.81 57.16 37.81 36.37 35.78 34.17"/><polygon class="cls-8" points="47.48 34.08 47.48 30.86 35.78 34.17 37.81 36.37 47.48 34.08"/><polygon class="cls-6" points="37.81 61.94 42.97 58.87 42.97 56.22 37.81 59.19 37.81 61.94"/><polygon class="cls-6" points="47.44 47.63 35.08 48.89 35.08 53.5 47.44 51.77 47.44 47.63"/><polygon class="cls-7" points="32.06 72.42 27.93 70.4 27.93 73.31 32.06 75.18 32.06 72.42"/><polygon class="cls-8" points="27.93 70.4 32.06 72.42 37.22 69.46 32.71 67.56 27.93 70.4"/><polygon class="cls-6" points="32.06 70.4 35.08 68.56 35.08 48.89 32.06 49.6 32.06 70.4"/><polygon class="cls-7" points="30.03 47.41 29.92 69.22 32.06 70.4 32.06 49.6 30.03 47.41"/><polygon class="cls-8" points="47.44 47.69 47.44 43.67 30.03 47.41 32.06 49.6 47.44 47.69"/><polygon class="cls-6" points="32.06 75.18 37.22 72.11 37.22 69.46 32.06 72.42 32.06 75.18"/><polygon class="cls-6" points="47.45 58.8 40.8 60.38 40.8 64.99 47.51 63.3 47.45 58.8"/><polygon class="cls-7" points="37.78 83.91 33.66 81.89 33.66 84.8 37.78 86.67 37.78 83.91"/><polygon class="cls-8" points="33.66 81.89 37.78 83.91 42.94 80.95 38.44 79.05 33.66 81.89"/><polygon class="cls-6" points="37.78 81.89 40.8 80.05 40.8 60.38 37.78 61.09 37.78 81.89"/><polygon class="cls-7" points="35.75 58.89 35.65 80.71 37.78 81.89 37.78 61.09 35.75 58.89"/><polygon class="cls-8" points="47.45 58.8 47.45 55.58 35.75 58.89 37.78 61.09 47.45 58.8"/><polygon class="cls-6" points="37.78 86.67 42.94 83.6 42.94 80.95 37.78 83.91 37.78 86.67"/><polygon class="cls-6" points="87.18 34.17 93.82 35.74 93.82 40.35 87.11 38.67 87.18 34.17"/><polygon class="cls-7" points="96.85 59.28 100.97 57.25 100.97 60.16 96.85 62.03 96.85 59.28"/><polygon class="cls-8" points="100.97 57.25 96.85 59.28 91.69 56.31 96.19 54.41 100.97 57.25"/><polygon class="cls-6" points="96.85 57.25 93.82 55.41 93.82 35.74 96.85 36.45 96.85 57.25"/><polygon class="cls-7" points="98.88 34.26 98.98 56.07 96.85 57.25 96.85 36.45 98.88 34.26"/><polygon class="cls-8" points="87.18 34.17 87.18 30.95 98.88 34.26 96.85 36.45 87.18 34.17"/><polygon class="cls-6" points="96.85 62.03 91.69 58.96 91.69 56.31 96.85 59.28 96.85 62.03"/><polygon class="cls-6" points="87.22 47.72 99.58 48.98 99.58 53.59 87.22 51.86 87.22 47.72"/><polygon class="cls-7" points="102.6 72.51 106.72 70.49 106.72 73.39 102.6 75.27 102.6 72.51"/><polygon class="cls-8" points="106.72 70.49 102.6 72.51 97.44 69.55 101.94 67.65 106.72 70.49"/><polygon class="cls-6" points="102.6 70.49 99.58 68.64 99.58 48.98 102.6 49.69 102.6 70.49"/><polygon class="cls-7" points="104.63 47.49 104.73 69.31 102.6 70.49 102.6 49.69 104.63 47.49"/><polygon class="cls-8" points="87.22 47.78 87.22 43.76 104.63 47.49 102.6 49.69 87.22 47.78"/><polygon class="cls-6" points="102.6 75.27 97.44 72.2 97.44 69.55 102.6 72.51 102.6 75.27"/><polygon class="cls-6" points="87.2 58.89 93.85 60.46 93.85 65.07 87.14 63.39 87.2 58.89"/><polygon class="cls-7" points="96.87 84 100.99 81.98 100.99 84.88 96.87 86.75 96.87 84"/><polygon class="cls-8" points="100.99 81.98 96.87 84 91.71 81.04 96.22 79.14 100.99 81.98"/><polygon class="cls-6" points="96.87 81.98 93.85 80.13 93.85 60.46 96.87 61.18 96.87 81.98"/><polygon class="cls-7" points="98.9 58.98 99 80.8 96.87 81.98 96.87 61.18 98.9 58.98"/><polygon class="cls-8" points="87.2 58.89 87.2 55.67 98.9 58.98 96.87 61.18 87.2 58.89"/><polygon class="cls-6" points="96.87 86.75 91.71 83.69 91.71 81.04 96.87 84 96.87 86.75"/><polygon class="cls-9" points="72.13 39.95 72.13 51.69 123.88 59.25 134.94 44.43 123.19 32.19 72.13 39.95"/><polygon class="cls-10" points="123.88 60.5 134.92 45.53 134.86 44.43 123.88 59.25 123.88 60.5"/><polygon class="cls-11" points="72.13 52.72 123.88 60.5 123.88 59.25 72.13 51.69 72.13 52.72"/><polygon class="cls-9" points="62.81 39.95 62.81 51.69 11.06 59.25 0 44.43 11.75 32.19 62.81 39.95"/><polygon class="cls-10" points="11.06 60.5 0.01 45.53 0.07 44.43 11.06 59.25 11.06 60.5"/><polygon class="cls-11" points="62.81 52.72 11.06 60.5 11.06 59.25 62.81 51.69 62.81 52.72"/><polygon class="cls-12" points="72.95 14.27 61.7 14.27 56.62 19.74 78 19.74 72.95 14.27"/><polygon class="cls-13" points="58.11 16.08 58.11 18.15 59.42 16.73 58.11 16.08"/><polygon class="cls-13" points="76.53 16.08 76.53 18.15 75.22 16.73 76.53 16.08"/><polygon class="cls-14" points="61.2 14.82 59.91 14.17 58.11 16.08 59.42 16.73 61.2 14.82"/><polygon class="cls-14" points="73.45 14.81 74.73 14.17 76.53 16.08 75.22 16.73 73.45 14.81"/><polygon class="cls-15" points="57.8 0 64.11 16.35 65.32 15.65 57.8 0"/><polygon class="cls-8" points="57.8 0 64.11 16.35 62.85 15.89 57.8 0"/><polygon class="cls-15" points="76.82 0 70.52 16.35 69.31 15.65 76.82 0"/><polygon class="cls-8" points="76.82 0 70.52 16.35 71.77 15.89 76.82 0"/></g></g></svg>