<?xml version="1.0" encoding="utf-8"?>
<!-- Generator: Adobe Illustrator 22.0.1, SVG Export Plug-In . SVG Version: 6.00 Build 0)  -->
<svg version="1.1" id="Layer_1" xmlns="http://www.w3.org/2000/svg" xmlns:xlink="http://www.w3.org/1999/xlink" x="0px" y="0px"
	 viewBox="0 0 85.6 93.3" style="enable-background:new 0 0 85.6 93.3;" xml:space="preserve">
<style type="text/css">
	.st0{opacity:0.1;fill:#1A1A1A;}
	.st1{opacity:0.25;fill:#BFBBBA;enable-background:new    ;}
	.st2{opacity:0.25;fill:#DDD8D5;enable-background:new    ;}
	.st3{fill:#BA6A00;}
	.st4{fill:#D37800;}
	.st5{fill:#F79A09;}
	.st6{opacity:0.25;fill:#BCB8B7;enable-background:new    ;}
	.st7{fill:#A88A80;}
	.st8{fill:#C4A297;}
	.st9{fill:#F8CCB7;}
	.st10{fill:#BC9B8E;}
	.st11{fill:#D1AC9F;}
	.st12{fill:#C1272D;}
	.st13{fill:#ED1C24;}
	.st14{fill:#CBAF8E;}
	.st15{fill:#7F5634;}
	.st16{fill:#A67C52;}
	.st17{fill:#DDD8D5;}
	.st18{fill:#8C6239;}
	.st19{fill:#C69C6D;}
	.st20{fill:#754C24;}
</style>
<title>honey</title>
<g id="Layer_2_1_">
	<g id="miod">
		<g id="honey">
			<polygon class="st0" points="83.3,58.9 22.5,87.6 40.4,93.3 85.6,58.9 			"/>
			<polygon class="st0" points="30.3,49.9 6.2,57.8 43.5,77.3 75.8,59.6 			"/>
			<polygon class="st1" points="30.4,11.1 60.8,26.9 54.5,57.8 30.4,47.2 			"/>
			<polygon class="st2" points="30.4,11.1 0,26.9 6.2,57.8 30.3,49.9 			"/>
			<polygon class="st3" points="58.3,33.1 30.4,47.2 30.4,67.5 53.9,55.9 			"/>
			<polygon class="st4" points="30.4,47.2 2.3,33.1 6.9,55.8 30.4,67.5 			"/>
			<polygon class="st5" points="58.3,33.1 30.4,18.9 2.3,33.1 30.4,47.2 			"/>
			<polygon class="st6" points="60.8,26.9 30.4,42.9 30.4,70.4 54.5,57.8 			"/>
			<polygon class="st2" points="30.4,42.9 0,26.9 6.2,57.8 30.4,70.4 			"/>
			<polygon class="st1" points="30.4,7.8 52.8,19.4 60.8,26.9 30.4,11.1 			"/>
			<polygon class="st6" points="30.6,32.2 52.8,19.4 60.8,26.9 30.4,42.9 			"/>
			<polygon class="st2" points="5.9,20.1 30.4,7.8 30.4,11.1 0,26.9 			"/>
			<polygon class="st2" points="5.9,20.1 30.6,32.2 30.4,42.9 0,26.9 			"/>
			<polygon class="st7" points="53.9,20.5 30.6,32.2 30.4,40.3 59.2,25.4 			"/>
			<polygon class="st8" points="30.6,32.2 6.1,20 1.4,25.3 30.4,40.3 			"/>
			<polygon class="st9" points="58.5,14.2 30.5,0 2.5,14.2 30.5,28.3 			"/>
			<polygon class="st10" points="58.5,14.2 30.5,28.3 30.6,32.7 58.4,18.7 			"/>
			<polygon class="st11" points="30.5,28.3 2.5,14.2 2.5,18.2 30.6,32.7 			"/>
			<polygon class="st12" points="54.9,21.4 30.6,33.6 30.5,36.4 56.5,22.9 			"/>
			<polygon class="st13" points="30.6,33.6 5.4,20.7 4,22.3 30.5,36.4 			"/>
			<polygon class="st14" points="25.9,43.5 6.9,34 7.2,41.4 25.9,50.9 			"/>
			<path d="M13.3,43.1l0.2-1.7L13,42.8l-0.7-0.4l-0.2-1.8l-0.2,1.7L11,41.9l0.5-3.9l1,0.5l0.3,2.5l0,0l0.9-1.7l0.9,0.5l-0.5,3.8
				L13.3,43.1z"/>
			<path d="M14.6,43.8l0.5-3.8l0.9,0.5l-0.5,3.8L14.6,43.8z"/>
			<path d="M18.5,45.6c-0.1,0.1-0.2,0.1-0.3,0l-2-1c-0.1-0.1-0.2-0.1-0.2-0.3c0-0.1,0-0.3,0-0.4l0.4-2.9c0-0.1,0.1-0.2,0.1-0.3
				c0.1-0.1,0.2,0,0.3,0l2,1c0.1,0.1,0.2,0.1,0.2,0.3c0,0.1,0,0.3,0,0.4l-0.4,2.8C18.6,45.4,18.5,45.5,18.5,45.6z M17.9,41.2
				l-0.7-0.4l0,0l0.6-0.5l1.1,0.6l0,0L17.9,41.2z M18,42.4l-0.9-0.5l-0.3,2l0.9,0.5L18,42.4z"/>
			<path d="M21.3,46.9c-0.2,0.1-0.5,0.1-0.7-0.1L18.9,46l0.5-3.8l1.7,0.9c0.3,0.1,0.5,0.4,0.6,0.6c0.1,0.3,0.2,0.7,0.1,1l-0.2,1.5
				C21.7,46.5,21.5,46.7,21.3,46.9z M21,44.4c0-0.1,0-0.2,0-0.3c-0.1-0.1-0.1-0.2-0.2-0.2l-0.6-0.3l-0.3,2l0.6,0.3
				c0.1,0,0.2,0,0.3,0c0.1,0,0.1-0.1,0.1-0.3L21,44.4z"/>
			<polygon class="st15" points="83.3,52.6 37,76.2 37,82.5 83.3,58.9 			"/>
			<polygon class="st16" points="83.3,52.7 78,49.9 31.7,73.4 37,76.2 			"/>
			<polygon class="st17" points="37,76.2 31.7,73.4 31.7,79.7 37,82.5 			"/>
			<polygon class="st18" points="37.9,75.4 28.8,80.1 28.8,90.9 37.9,86.2 			"/>
			<polygon class="st19" points="37.9,75.4 28.8,70.6 19.7,75.4 28.8,80.1 			"/>
			<polygon class="st16" points="28.8,80.1 19.7,75.4 19.7,86.2 28.8,90.9 			"/>
			<polygon class="st18" points="37.1,75.8 28,71.1 26.6,71.8 35.7,76.6 			"/>
			<polygon class="st18" points="34.3,77.3 25.2,72.5 23.8,73.3 32.9,78 			"/>
			<polygon class="st18" points="31.2,78.9 22.1,74.2 20.6,74.9 29.8,79.6 			"/>
			<polygon class="st20" points="37.1,75.8 35.7,76.6 35.6,87.3 37.1,86.6 			"/>
			<polygon class="st20" points="34.3,77.3 32.9,78 32.9,88.8 34.3,88 			"/>
			<polygon class="st20" points="31.1,78.9 29.8,79.7 29.7,90.4 31.2,89.7 			"/>
		</g>
	</g>
</g>
</svg>
