<?xml version="1.0" encoding="utf-8"?>
<!-- Generator: Adobe Illustrator 22.0.1, SVG Export Plug-In . SVG Version: 6.00 Build 0)  -->
<svg version="1.1" id="Layer_1" xmlns="http://www.w3.org/2000/svg" xmlns:xlink="http://www.w3.org/1999/xlink" x="0px" y="0px"
	 viewBox="0 0 143.5 156.1" style="enable-background:new 0 0 143.5 156.1;" xml:space="preserve">
<style type="text/css">
	.st0{opacity:0.1;}
	.st1{fill:#242737;}
	.st2{fill:#2E3756;}
	.st3{fill:#283049;}
	.st4{fill:#BEB5AF;}
	.st5{fill:#DDD8D5;}
	.st6{fill:#ECE9E8;}
	.st7{opacity:0.7;}
	.st8{fill:#C4BE45;}
	.st9{fill:#E5CC51;}
	.st10{fill:#FFEF5A;}
	.st11{fill:#DBCD4D;}
	.st12{fill:#E5D353;}
	.st13{fill:#96908C;}
	.st14{fill:#BFBBBA;}
	.st15{fill:#EC1C24;}
	.st16{fill:#F05A24;}
	.st17{opacity:0.5;fill:#F6921E;enable-background:new    ;}
	.st18{fill:#E5E5E5;}
	.st19{opacity:0.5;fill:#FFFFFF;enable-background:new    ;}
	.st20{fill:#4D4D4D;}
	.st21{fill:#808080;}
	.st22{fill:#666666;}
	.st23{fill:#989898;}
	.st24{fill:#B2B2B2;}
</style>
<title>head</title>
<g id="Layer_2_1_">
	<g id="Layer_1-2">
		<g class="st0">
			<polygon points="0,114 65.3,87 143.5,125.3 80.4,156.1 			"/>
		</g>
		<polygon class="st1" points="52.3,29.6 50.3,35.8 45.5,30.9 47.6,24.8 		"/>
		<polygon class="st2" points="45.5,30.9 39.3,32.8 41.3,26.6 47.6,24.8 		"/>
		<polygon class="st3" points="50.3,35.8 44.1,37.7 39.3,32.8 45.5,30.9 		"/>
		<polygon class="st4" points="42.4,29.1 42.2,29.7 32.8,23 33,22.5 		"/>
		<polygon class="st5" points="42.2,29.7 41.7,29.8 32.2,23.2 32.8,23 		"/>
		<polygon class="st4" points="35.2,22.4 35,23 33.2,21.2 33.8,21 		"/>
		<polygon class="st5" points="35,23 34.4,23.1 32.2,20.9 32.8,20.7 		"/>
		<polygon class="st4" points="36.8,22.5 36.6,23.1 35.7,22.2 35.9,21.6 		"/>
		<polygon class="st6" points="35.7,22.2 35.1,22.3 35.3,21.8 35.9,21.6 		"/>
		<polygon class="st5" points="36.1,22.6 35.6,22.8 35.1,22.3 35.7,22.2 		"/>
		<polygon class="st4" points="38.9,22.4 38.7,23 36.1,20.3 36.7,20.1 		"/>
		<polygon class="st4" points="37.2,23 37,23.5 36.6,23.1 36.8,22.5 		"/>
		<polygon class="st5" points="37,23.5 36.4,23.7 36,23.2 36.6,23.1 		"/>
		<polygon class="st5" points="37,23.5 36.4,23.7 33.8,21 34.4,20.8 		"/>
		<polygon class="st5" points="38.7,23 37,23.5 36.6,23.1 38.3,22.6 		"/>
		<polygon class="st6" points="33.9,20.4 32.2,20.9 32.4,20.3 34.1,19.8 		"/>
		<polygon class="st5" points="34.4,20.8 32.7,21.3 32.2,20.9 33.9,20.4 		"/>
		<polygon class="st4" points="35.9,21.6 35.7,22.2 33.9,20.4 34.1,19.8 		"/>
		<polygon class="st6" points="37.7,22.7 36.6,23.1 36.8,22.5 37.3,22.3 		"/>
		<polygon class="st6" points="36.8,19.5 35.1,20 35.3,19.5 37,18.9 		"/>
		<polygon class="st5" points="38.3,22.6 37.7,22.7 35.1,20 35.7,19.9 		"/>
		<polygon class="st4" points="38.8,20.7 38.6,21.3 36.8,19.5 37,18.9 		"/>
		<polygon class="st5" points="37.2,20 36.1,20.3 35.7,19.9 36.8,19.5 		"/>
		<polygon class="st5" points="38.6,21.3 38,21.5 36.7,20.1 37.2,20 		"/>
		<polygon class="st6" points="34,22.7 32.2,23.2 32.4,22.6 33.6,22.3 		"/>
		<polygon class="st5" points="35,23 33.2,23.5 32.8,23 34.5,22.5 		"/>
		<polygon class="st4" points="45.1,28.2 44.9,28.8 40.3,20.8 40.5,20.2 		"/>
		<polygon class="st5" points="44.9,28.8 44.3,28.9 39.7,21 40.3,20.8 		"/>
		<polygon class="st6" points="40.3,20.8 38.6,21.3 38.8,20.7 40.5,20.2 		"/>
		<polygon class="st5" points="40.1,21.4 38.4,21.9 38,21.5 40,20.9 		"/>
		<g class="st7">
			<polygon class="st8" points="46.7,25.5 45.1,30.5 42.3,27.6 45.4,18.1 			"/>
			<polygon class="st9" points="45.1,30.5 40.1,32 32.7,30.5 42.3,27.6 			"/>
			<polygon class="st10" points="31.9,17 25.4,23 34,19.1 38.1,10.6 			"/>
			<polygon class="st11" points="45.4,18.1 42.3,27.6 29.4,14.5 38.1,10.6 			"/>
			<polygon class="st12" points="42.3,27.6 32.7,30.5 25.4,23 29.4,14.5 			"/>
		</g>
		<polygon class="st13" points="58.5,124.8 74.3,133 74.3,114.3 58.5,106.1 		"/>
		<polygon class="st6" points="74.3,114.3 90.1,106.1 74.3,97.8 58.5,106.1 		"/>
		<polygon class="st14" points="74.3,133 90.1,124.8 90.1,106.1 74.3,114.3 		"/>
		<polygon class="st4" points="21.8,96 85.7,129.3 85.7,63.2 21.8,30 		"/>
		<polygon class="st6" points="85.7,63.2 130,40.1 66.1,6.7 21.8,30 		"/>
		<polygon class="st5" points="85.7,129.3 130,106.2 130,40.1 85.7,63.2 		"/>
		<path class="st15" d="M37.5,66.7c3.9,0,6.8-4.7,6.8-10.2s-2.8-10-6.7-10l-2.1,0.3v19.9"/>
		<ellipse class="st16" cx="35.3" cy="56.8" rx="7.2" ry="10"/>
		<path class="st17" d="M39.3,65c2.1-2.2,3.3-5.2,3.2-8.2c0-5.5-3.2-10-7.2-10c-2.3,0-4.3,1.5-5.6,3.8"/>
		<path class="st15" d="M67.5,82.3c3.9,0,6.7-4.7,6.7-10.2s-2.7-10-6.7-10l-2.1,0.3v19.9"/>
		<ellipse class="st16" cx="65.3" cy="72.3" rx="7.2" ry="9.9"/>
		<path class="st17" d="M69.3,80.6c2.1-2.2,3.3-5.2,3.2-8.3c0-5.5-3.2-9.9-7.2-9.9c-2.3,0-4.3,1.5-5.6,3.8"/>
		<path class="st18" d="M62.5,110l-25-13c-0.2-0.1-0.3-0.3-0.3-0.4V76.1c0-0.2,0.1-0.3,0.2-0.4c0.1,0,0.2-0.1,0.3-0.1
			c0.1,0,0.2,0,0.2,0l25,13c0.2,0.1,0.3,0.3,0.3,0.4v20.4c0,0.2-0.1,0.3-0.2,0.4c-0.1,0-0.2,0.1-0.3,0.1C62.7,110,62.6,110,62.5,110
			z"/>
		<path d="M37.8,76.1l25,13v20.5l-25-13V76.1 M37.8,75.1c-0.2,0-0.4,0-0.5,0.1c-0.3,0.2-0.5,0.5-0.5,0.9v20.4c0,0.4,0.2,0.7,0.5,0.9
			l25,13c0.1,0.1,0.3,0.1,0.5,0.1c0.6,0,1-0.4,1-1V89.1c0-0.4-0.2-0.7-0.5-0.9l-25-13C38.1,75.1,38,75.1,37.8,75.1L37.8,75.1z"/>
		<polyline class="st19" points="62.8,109.5 62.8,89.1 37.8,76.1 		"/>
		<polygon class="st1" points="107.2,62.5 101.8,66.1 107.7,69.4 113.1,65.8 		"/>
		<polygon class="st2" points="107.7,69.4 107.6,75.9 113,72.3 113.1,65.8 		"/>
		<polygon class="st3" points="101.8,66.1 101.6,72.6 107.6,75.9 107.7,69.4 		"/>
		<polygon class="st4" points="110.3,71.9 109.8,72.2 118.7,79.6 119.2,79.2 		"/>
		<polygon class="st5" points="109.8,72.2 109.8,72.8 118.7,80.2 118.7,79.6 		"/>
		<polygon class="st4" points="118.7,77.1 118.2,77.4 120.4,78.7 120.4,78.1 		"/>
		<polygon class="st5" points="118.2,77.4 118.2,78.1 121,79.6 121,79 		"/>
		<polygon class="st4" points="118.2,75.6 117.7,75.9 118.8,76.5 119.3,76.2 		"/>
		<polygon class="st6" points="118.8,76.5 118.8,77.1 119.3,76.8 119.3,76.2 		"/>
		<polygon class="st5" points="118.2,76.2 118.2,76.8 118.8,77.1 118.8,76.5 		"/>
		<polygon class="st4" points="117.7,73.5 117.2,73.8 120.5,75.7 120.5,75.1 		"/>
		<polygon class="st4" points="117.6,75.3 117.1,75.6 117.7,75.9 118.2,75.6 		"/>
		<polygon class="st5" points="117.1,75.6 117.1,76.2 117.7,76.5 117.7,75.9 		"/>
		<polygon class="st5" points="117.1,75.6 117.1,76.2 120.4,78.1 120.5,77.5 		"/>
		<polygon class="st5" points="117.2,73.8 117.1,75.6 117.7,75.9 117.7,74.2 		"/>
		<polygon class="st6" points="121,77.8 121,79.6 121.5,79.2 121.5,77.4 		"/>
		<polygon class="st5" points="120.5,77.5 120.4,79.2 121,79.6 121,77.8 		"/>
		<polygon class="st4" points="119.3,76.2 118.8,76.5 121,77.8 121.5,77.4 		"/>
		<polygon class="st6" points="117.7,74.8 117.7,75.9 118.2,75.6 118.2,75 		"/>
		<polygon class="st6" points="121.1,74.8 121,76.6 121.5,76.2 121.6,74.4 		"/>
		<polygon class="st5" points="117.7,74.2 117.7,74.8 121,76.6 121,76 		"/>
		<polygon class="st4" points="119.4,73.2 118.9,73.6 121.1,74.8 121.6,74.4 		"/>
		<polygon class="st5" points="120.5,74.5 120.5,75.7 121,76 121.1,74.8 		"/>
		<polygon class="st5" points="118.9,73.6 118.8,74.2 120.5,75.1 120.5,74.5 		"/>
		<polygon class="st6" points="118.8,78.3 118.7,80.2 119.2,79.8 119.2,78.6 		"/>
		<polygon class="st5" points="118.2,77.4 118.2,79.2 118.7,79.6 118.8,77.8 		"/>
		<polygon class="st4" points="110.5,69.1 110,69.4 118.9,71.8 119.4,71.4 		"/>
		<polygon class="st5" points="110,69.4 110,70.1 118.9,72.4 118.9,71.8 		"/>
		<polygon class="st6" points="118.9,71.8 118.9,73.6 119.4,73.2 119.4,71.4 		"/>
		<polygon class="st5" points="118.3,72.1 118.3,73.8 118.8,74.2 118.9,72.1 		"/>
		<g class="st7">
			<polygon class="st8" points="112.6,66.8 108.3,69.7 111.8,71.6 120.1,66.1 			"/>
			<polygon class="st9" points="108.3,69.7 108.2,74.9 111.6,81.6 111.8,71.6 			"/>
			<polygon class="st11" points="120.1,66.1 111.8,71.6 121,76.7 129.3,71.1 			"/>
			<polygon class="st10" points="121,76.7 120.8,86.7 129.1,81.2 129.3,71.1 			"/>
			<polygon class="st12" points="111.8,71.6 111.6,81.6 120.8,86.7 121,76.7 			"/>
		</g>
		<polygon class="st20" points="66.1,35 75.2,39.8 75.2,36.9 66.1,32.2 		"/>
		<polygon class="st21" points="75.2,36.9 84.2,32.2 75.2,27.5 66.1,32.2 		"/>
		<polygon class="st22" points="75.2,39.8 84.2,35 84.2,32.2 75.2,36.9 		"/>
		<polygon class="st23" points="75.2,10.6 79,8.6 79,32 75.2,34 		"/>
		<polygon class="st24" points="75.2,10.6 71.3,8.6 71.3,32 75.2,34 		"/>
		<polygon class="st4" points="67.4,13.2 75.2,17.2 75.2,8.1 67.4,4.1 		"/>
		<polygon class="st6" points="75.2,8.1 82.9,4.1 75.2,0 67.4,4.1 		"/>
		<polygon class="st5" points="75.2,17.2 82.9,13.2 82.9,4.1 75.2,8.1 		"/>
	</g>
</g>
</svg>
