<?xml version="1.0" encoding="utf-8"?>
<!-- Generator: Adobe Illustrator 22.0.1, SVG Export Plug-In . SVG Version: 6.00 Build 0)  -->
<svg version="1.1" id="Layer_1" xmlns="http://www.w3.org/2000/svg" xmlns:xlink="http://www.w3.org/1999/xlink" x="0px" y="0px"
	 viewBox="0 0 180.5 180.5" style="enable-background:new 0 0 180.5 180.5;" xml:space="preserve">
<style type="text/css">
	.st0{fill:url(#SVGID_1_);stroke:#C83B1C;stroke-width:10;stroke-miterlimit:10;}
	.st1{fill:#FFFFFF;}
</style>
<g id="Layer_2_1_">
	<g id="Layer_1-2">
		<g id="Layer_2-2">
			<g id="Layer_2-2-2">
				
					<linearGradient id="SVGID_1_" gradientUnits="userSpaceOnUse" x1="5" y1="988.245" x2="175.49" y2="988.245" gradientTransform="matrix(1 0 0 1 0 -898)">
					<stop  offset="0" style="stop-color:#FF4C24"/>
					<stop  offset="0.47" style="stop-color:#F64923"/>
					<stop  offset="1" style="stop-color:#E54420"/>
				</linearGradient>
				<path class="st0" d="M35,5h110.5c16.6,0,30,13.4,30,30v110.5c0,16.6-13.4,30-30,30H35c-16.6,0-30-13.4-30-30V35
					C5,18.4,18.4,5,35,5z"/>
				<path class="st1" d="M32,41.3c-0.3-2.4,1.5-4.5,3.9-4.8c2.3-0.3,4.4,1.4,4.8,3.7l2.6,20.2c16.5-24.6,49.9-31.1,74.5-14.5
					c9.7,6.5,17,16,20.8,27c0.8,2.3-0.4,4.7-2.7,5.5c-0.5,0.2-1,0.2-1.4,0.2c-1.8,0-3.5-1.2-4.1-2.9c-8.1-23.5-33.7-35.9-57.1-27.8
					c-9.9,3.4-18.2,10.1-23.7,19l21.7-2.5c2.3-0.3,4.5,1.4,4.8,3.7c0,0,0,0.1,0,0.1c0.3,2.4-1.4,4.5-3.8,4.8c0,0,0,0,0,0l-31.3,3.6
					h-0.5c-2.2,0-4-1.6-4.3-3.8L32,41.3z M139.7,99.5l-31.3,3.6c-2.4,0.4-4,2.6-3.6,5c0.3,2.2,2.3,3.8,4.6,3.7l18.9-2.1
					c-10.6,22.4-37.4,31.9-59.8,21.3c-11.4-5.4-20-15.4-23.7-27.5c-0.7-2.3-3.1-3.6-5.4-2.9s-3.6,3.1-2.9,5.4
					c3.3,10.9,10,20.4,19.1,27.3c23.6,17.8,57.2,13.1,75.1-10.5c2.5-3.3,4.6-6.9,6.3-10.8l3,24.1c0.3,2.1,2.1,3.7,4.3,3.8h0.6
					c2.4-0.3,4.1-2.4,3.8-4.8c0,0,0,0,0,0l-4.1-31.5C144.2,101.1,142.1,99.3,139.7,99.5C139.7,99.5,139.7,99.5,139.7,99.5z"/>
			</g>
		</g>
	</g>
</g>
</svg>
