<?xml version="1.0" encoding="utf-8"?>
<!-- Generator: Adobe Illustrator 22.0.1, SVG Export Plug-In . SVG Version: 6.00 Build 0)  -->
<svg version="1.1" xmlns="http://www.w3.org/2000/svg" xmlns:xlink="http://www.w3.org/1999/xlink" x="0px" y="0px" width="100px"
	 height="60px" viewBox="0 0 100 60" style="enable-background:new 0 0 100 60;" xml:space="preserve">
<style type="text/css">
	.st0{clip-path:url(#SVGID_2_);}
	.st1{fill-rule:evenodd;clip-rule:evenodd;fill:#93CDDB;}
	.st2{fill-rule:evenodd;clip-rule:evenodd;fill:#7092B1;}
	.st3{fill-rule:evenodd;clip-rule:evenodd;fill:#4F4743;}
	.st4{fill-rule:evenodd;clip-rule:evenodd;fill:#A09388;}
	.st5{fill-rule:evenodd;clip-rule:evenodd;fill:#ABA398;}
	.st6{fill-rule:evenodd;clip-rule:evenodd;fill:#6D635D;}
	.st7{fill-rule:evenodd;clip-rule:evenodd;fill:#452F21;}
	.st8{fill-rule:evenodd;clip-rule:evenodd;}
	.st9{fill-rule:evenodd;clip-rule:evenodd;fill:#D9D6D0;}
	.st10{fill-rule:evenodd;clip-rule:evenodd;fill:#E9D21B;}
	.st11{fill-rule:evenodd;clip-rule:evenodd;fill:#E6AB28;}
	.st12{fill-rule:evenodd;clip-rule:evenodd;fill:#AC9C8E;}
	.st13{fill-rule:evenodd;clip-rule:evenodd;fill:#383330;}
	.st14{fill-rule:evenodd;clip-rule:evenodd;fill:#443933;}
	.st15{fill-rule:evenodd;clip-rule:evenodd;fill:#443733;}
	.st16{fill-rule:evenodd;clip-rule:evenodd;fill:#F9EA7E;}
	.st17{fill-rule:evenodd;clip-rule:evenodd;fill:#FFFFFF;}
	.st18{fill-rule:evenodd;clip-rule:evenodd;fill:#756A64;}
	.st19{fill-rule:evenodd;clip-rule:evenodd;fill:#5E5350;}
	.st20{fill-rule:evenodd;clip-rule:evenodd;fill:#3A3531;}
	.st21{fill-rule:evenodd;clip-rule:evenodd;fill:#77625A;}
	.st22{fill-rule:evenodd;clip-rule:evenodd;fill:#452C21;}
	.st23{fill-rule:evenodd;clip-rule:evenodd;fill:#41332E;}
	.st24{fill-rule:evenodd;clip-rule:evenodd;fill:#725752;}
	.st25{fill-rule:evenodd;clip-rule:evenodd;fill:#39B54A;}
	.st26{fill-rule:evenodd;clip-rule:evenodd;fill:#009245;}
	.st27{fill-rule:evenodd;clip-rule:evenodd;fill:#474747;}
	.st28{fill-rule:evenodd;clip-rule:evenodd;fill:#1A1A1A;}
	.st29{fill-rule:evenodd;clip-rule:evenodd;fill:#333333;}
	.st30{fill-rule:evenodd;clip-rule:evenodd;fill:#4D4D4D;}
	.st31{fill-rule:evenodd;clip-rule:evenodd;fill:#5E5E5E;}
	.st32{fill-rule:evenodd;clip-rule:evenodd;fill:#515151;}
	.st33{fill-rule:evenodd;clip-rule:evenodd;fill:#6F7070;}
	.st34{fill-rule:evenodd;clip-rule:evenodd;fill:#E8D521;}
	.st35{fill-rule:evenodd;clip-rule:evenodd;fill:#FCEE21;}
	.st36{fill-rule:evenodd;clip-rule:evenodd;fill:#EAD721;}
	.st37{fill-rule:evenodd;clip-rule:evenodd;fill:#2B2B2B;}
	.st38{opacity:0.7955;fill-rule:evenodd;clip-rule:evenodd;fill:#E6E6E6;}
	.st39{opacity:0.8033;fill-rule:evenodd;clip-rule:evenodd;fill:#B3B3B3;}
	.st40{opacity:0.801;fill-rule:evenodd;clip-rule:evenodd;fill:#CCCCCC;}
	.st41{opacity:0.8045;fill-rule:evenodd;clip-rule:evenodd;fill:#E6E6E6;}
	.st42{opacity:0.7966;fill-rule:evenodd;clip-rule:evenodd;fill:#B3B3B3;}
	.st43{opacity:0.8011;fill-rule:evenodd;clip-rule:evenodd;fill:#CCCCCC;}
	.st44{fill-rule:evenodd;clip-rule:evenodd;fill:#F4F2F0;}
	.st45{fill-rule:evenodd;clip-rule:evenodd;fill:#C1B5A4;}
	.st46{fill-rule:evenodd;clip-rule:evenodd;fill:#E3DCD7;}
	.st47{fill-rule:evenodd;clip-rule:evenodd;fill:#77AEBB;}
	.st48{fill-rule:evenodd;clip-rule:evenodd;fill:#6A6A6A;}
	.st49{fill-rule:evenodd;clip-rule:evenodd;fill:#A2A2A2;}
	.st50{fill-rule:evenodd;clip-rule:evenodd;fill:#CCCCCC;}
	.st51{fill-rule:evenodd;clip-rule:evenodd;fill:#888888;}
	.st52{fill-rule:evenodd;clip-rule:evenodd;fill:#C8C8C8;}
	.st53{fill-rule:evenodd;clip-rule:evenodd;fill:#DDDDDD;}
	.st54{fill-rule:evenodd;clip-rule:evenodd;fill:#AEAEAE;}
	.st55{clip-path:url(#SVGID_4_);}
	.st56{clip-path:url(#SVGID_6_);}
	.st57{clip-path:url(#SVGID_8_);}
	.st58{clip-path:url(#SVGID_10_);}
</style>
<g id="_x32__x5F_2">
</g>
<g id="_x31__x5F_2">
	<g>
		<defs>
			<path id="SVGID_3_" d="M100,0H0v50h15c0,5.5,4.5,10,10,10c5.5,0,10-4.5,10-10h65V0z"/>
		</defs>
		<clipPath id="SVGID_2_">
			<use xlink:href="#SVGID_3_"  style="overflow:visible;"/>
		</clipPath>
		<g class="st0">
			<rect class="st1" width="100" height="100"/>
			<g>
				<g>
					<polygon class="st3" points="41.1,4.1 42.7,3.2 42.7,15.1 41.1,15.9 					"/>
					<polygon class="st4" points="42.7,3.2 41.1,4.1 37.9,2.4 39.5,1.5 42.7,3.2 					"/>
					<polygon class="st5" points="40.1,15.4 38.6,14.6 38.6,4.7 40.1,5.5 					"/>
					<polygon class="st6" points="41.1,4.1 41.1,15.9 40.5,15.6 40.2,15.5 40.1,15.4 40.1,5.6 38.6,4.7 38.6,14.6 37.9,14.2 
						37.9,2.4 					"/>
				</g>
				<g>
					<polygon class="st9" points="69.9,35.6 74.3,33.3 78.6,35.6 78.6,62.5 74.3,64.8 74.3,37.9 					"/>
					<polygon class="st5" points="74.3,64.8 69.9,62.5 69.9,35.6 74.3,37.9 					"/>
				</g>
				<g>
					<polygon class="st10" points="67.1,55.9 62.8,58.3 62.8,31.4 58.4,29.1 62.8,26.8 67.1,29.1 					"/>
					<polygon class="st11" points="58.4,29.1 62.8,31.4 62.8,58.3 58.4,55.9 					"/>
					<polygon class="st12" points="62.8,67.9 58.4,65.6 58.4,55.9 62.8,58.3 					"/>
					<polygon class="st9" points="67.1,55.9 67.1,65.6 62.8,67.9 62.8,58.3 					"/>
				</g>
				<g>
					<polygon class="st9" points="46.8,79.5 42.4,81.9 42.4,31.3 38.1,29 42.4,26.7 46.8,29 					"/>
					<polygon class="st5" points="38.1,79.5 38.1,29 42.4,31.3 42.4,81.9 					"/>
				</g>
				<g>
					<polygon class="st9" points="26.6,22.5 30.9,20.2 35.3,22.5 35.3,73 30.9,75.3 30.9,24.8 					"/>
					<polygon class="st5" points="30.9,75.3 26.6,73 26.6,22.5 30.9,24.8 					"/>
				</g>
				<g>
					<polygon class="st10" points="72.7,29.7 72.7,35.9 68,33.4 68,27.2 					"/>
					<polygon class="st13" points="78.2,26.8 72.7,29.7 68,27.2 73.5,24.3 					"/>
					<polygon class="st3" points="72.7,35.9 72.7,29.7 78.2,26.8 78.2,32.9 					"/>
				</g>
				<g>
					<polygon class="st6" points="44.7,52.5 25.4,42.3 60.9,23.5 80.2,33.7 					"/>
					<polygon class="st9" points="44.7,75.6 44.7,52.5 80.2,33.7 80.2,56.9 					"/>
					<polygon class="st5" points="44.7,75.6 25.4,65.5 25.4,42.3 44.7,52.5 					"/>
				</g>
				<g>
					<polygon class="st14" points="54.2,17.1 46.5,21.1 40,24.6 40,16.9 52.7,10.7 					"/>
					<polygon class="st15" points="46.5,21.1 54.2,17.1 54.2,38.4 50,41.4 					"/>
				</g>
				<g>
					<polygon class="st3" points="30.2,30.9 30.2,30.9 43.6,23.8 53.5,29.1 53.5,31.2 53.5,32.7 53.5,34.4 53.5,35.9 53.5,37.7 
						53.5,39.2 53.5,43 40.1,50.1 40.1,36.2 					"/>
					<polygon class="st13" points="40.1,50.1 30.2,44.8 30.2,30.9 40.1,36.2 					"/>
				</g>
				<polygon class="st13" points="44.7,52.5 44.7,62.8 44.7,73.2 25.4,63 25.4,42.3 				"/>
				<g>
					<path class="st3" d="M40.1,36.2V22.3l10.6-5.6l2.9,12.4C51.6,31.4,47.1,33.7,40.1,36.2z"/>
					<path class="st6" d="M50.6,16.7l-10.6,5.6v13.9l-9.9-5.2V19.6V17v0l10.5-5.6L50.6,16.7z M33.4,23.2l4.2-2.3L33.4,23.2z
						 M30.2,19.6l2.4-1.3L30.2,19.6z"/>
					<g>
						<path d="M33.1,23.4c-0.1-0.1,0-0.3,0.1-0.4l0,0l4.1-2.3c0.1-0.1,0.3,0,0.4,0.1l0,0c0.1,0.1,0,0.3-0.1,0.4l0,0l-4.2,2.3
							c0,0-0.1,0-0.1,0l0,0C33.3,23.5,33.2,23.5,33.1,23.4L33.1,23.4z M28.1,20.7c-0.1-0.1,0-0.3,0.1-0.4l0,0l1.8-1l2.4-1.3
							c0.1-0.1,0.3,0,0.4,0.1l0,0c0.1,0.1,0,0.3-0.1,0.4l0,0l-2.4,1.3l-1.8,1c0,0-0.1,0-0.1,0l0,0C28.3,20.9,28.2,20.8,28.1,20.7
							L28.1,20.7z"/>
					</g>
				</g>
				<g>
					<polygon class="st3" points="35.8,38.4 35.8,24.5 40.1,22.3 40.1,36.2 					"/>
					<polygon class="st6" points="40.1,22.3 35.8,24.5 35.8,24.5 33.4,23.2 32.6,22.8 32.1,22.5 30.9,21.9 28.9,20.8 28.4,20.6 
						25.9,19.3 30.1,17 32.6,18.3 35.1,19.6 36.2,20.3 37.6,21 					"/>
					<polygon class="st5" points="35.8,24.5 35.8,38.4 25.9,33.2 25.9,29.9 25.9,19.3 28.4,20.6 28.9,20.8 30.9,21.9 32.1,22.5 
						32.6,22.8 33.4,23.2 35.8,24.5 					"/>
				</g>
				<g>
					<polygon class="st16" points="25.4,32.2 25.3,32.2 25.3,32.2 					"/>
					<polygon class="st9" points="25.3,42.7 25.3,32.2 25.4,32.2 34.6,27.2 34.6,37.8 					"/>
					<polygon class="st17" points="34.6,27.2 25.4,32.2 25.3,32.2 25.3,32.2 25.3,42.7 17.8,38.7 17.8,28.2 27,23.2 28.9,24.2 
						30.8,25.2 32.7,26.2 					"/>
				</g>
				<g>
					<polygon class="st4" points="25.6,32 17.5,27.7 21.7,25.4 29.9,29.7 					"/>
					<polygon class="st18" points="23.9,40.4 15.8,36.1 17.5,27.7 25.6,32 					"/>
					<polygon class="st19" points="23.9,40.4 25.6,32 29.9,29.7 29.9,41.1 25.2,43.6 					"/>
					<polygon class="st20" points="15.8,36.1 23.9,40.4 25.2,43.6 25.1,43.6 17.1,39.3 					"/>
				</g>
				<g>
					<polygon class="st9" points="44.8,23.2 40.2,25.6 40.2,31.1 44.8,28.7 					"/>
					<polygon class="st17" points="40.2,25.6 44.8,23.2 42.5,22 37.9,24.4 					"/>
					<polygon class="st5" points="37.9,24.4 37.9,29.9 40.2,31.1 40.2,25.6 					"/>
				</g>
				<polygon class="st8" points="41.4,26.4 41.4,28.8 43.4,27.7 43.4,25.3 				"/>
				<g>
					<polygon class="st21" points="48.9,5.6 34.8,13 33.1,12.1 34.8,11.2 47.2,4.7 					"/>
					<polygon class="st14" points="34.8,13 48.9,5.6 52.7,10.7 34.8,20.1 					"/>
					<polygon class="st22" points="34.8,13 34.8,20.1 33.1,19.2 33.1,12.1 					"/>
				</g>
				<polygon class="st23" points="20.2,33.8 19.8,35.5 18.2,34.6 18.6,33 				"/>
				<polygon class="st23" points="22.6,35.1 22.3,36.8 20.7,36 21,34.3 				"/>
				<polygon class="st3" points="80.2,33.7 80.2,44 80.2,54.3 44.6,73.1 44.6,52.5 62.5,43.1 				"/>
				<line class="st24" x1="32.9" y1="38.6" x2="31.8" y2="39.2"/>
				<g>
					<polygon class="st3" points="46.7,6.5 48.3,5.7 48.3,17.5 46.7,18.4 					"/>
					<polygon class="st4" points="48.3,5.7 46.7,6.5 43.5,4.8 45.1,4 48.3,5.7 					"/>
					<polygon class="st5" points="45.7,17.9 44.2,17.1 44.3,7.2 45.7,8 					"/>
					<polygon class="st6" points="46.7,6.5 46.7,18.4 46.1,18.1 45.9,17.9 45.7,17.9 45.7,8 44.3,7.2 44.2,17.1 43.5,16.7 43.5,4.8 
											"/>
				</g>
			</g>
		</g>
		<g class="st0">
			<rect x="0" class="st25" width="100" height="100"/>
			<g>
				<polygon class="st26" points="65.3,50.6 31.4,63 12.7,78.1 22.4,82.9 53.2,77.5 80.6,66 87.9,58.6 80.8,51.6 				"/>
				<g>
					<g>
						<polygon class="st30" points="44,51.3 35.9,56 35.8,56 35.8,64.8 27.1,62.1 27.1,51.3 33.7,46 						"/>
						<polygon class="st29" points="35.5,65.9 35.8,56 35.9,56 44,51.3 44.2,66.5 37.2,66.5 						"/>
					</g>
					<g>
						<polygon class="st31" points="19.5,56.8 25.9,60.2 25.9,68.5 19.5,64.8 						"/>
						<polygon class="st32" points="25.9,60.2 35.8,56 35.5,65.9 25.9,68.5 						"/>
						<polygon class="st33" points="25.9,60.2 19.5,56.8 27.1,51.3 35.8,56 						"/>
					</g>
					<g>
						<path class="st34" d="M67.9,45.5l10.8-1.9l2.6,3.3L79,54.5l-6.7,3.2l-3.9,1.8L67.9,45.5z"/>
						<polygon class="st35" points="70.3,38.9 78.6,43.6 67.9,45.5 56.7,40.3 						"/>
						<g>
							<polygon class="st35" points="63.6,46.8 44,51.3 33.7,46 51.8,41.5 							"/>
							<polygon class="st36" points="44.2,66.5 44,51.3 63.6,46.8 65.1,61.1 54.3,63.9 							"/>
						</g>
					</g>
					<g>
						<polygon class="st37" points="75.1,56.4 72.3,57.8 71.7,44.3 74.8,43.2 						"/>
						<polygon class="st37" points="74.8,43.2 71.7,44.3 62.4,39.7 66.7,39.2 						"/>
						<polygon class="st37" points="67.9,45.5 63.6,46.8 51.8,41.5 56.7,40.3 						"/>
						<polygon class="st37" points="68.4,59.6 65.1,61.1 63.6,46.8 67.9,45.5 						"/>
						<polygon class="st37" points="58.5,62.8 54.3,63.9 53.9,49.1 58.4,48 						"/>
						<polygon class="st37" points="58.4,48 53.9,49.1 42.5,43.8 47.3,42.6 						"/>
					</g>
					<g id="Nogi_4_">
						<g>
							<g>
								<polygon class="st27" points="44.3,57.7 48.1,60.4 48,62.6 44.2,60.4 								"/>
								<polygon class="st29" points="46.8,59.5 44.3,57.7 46.5,57 48.7,59 								"/>
							</g>
							<g>
								<polygon class="st29" points="46.8,59.5 48.7,59 50.8,60.9 49.6,61.3 								"/>
							</g>
						</g>
						<g>
							<g>
								<polygon class="st27" points="55.3,54.7 59.1,57.4 59.1,59.7 55.3,57.4 								"/>
								<polygon class="st29" points="57.8,56.6 55.3,54.7 57.6,54 59.7,56 								"/>
							</g>
							<g>
								<polygon class="st27" points="60.6,70.7 57.5,69.1 59.1,68.1 59.1,57.4 60.6,58.3 60.6,67.5 								"/>
								<polygon class="st28" points="61.9,58 62.2,69.7 60.6,70.7 60.6,67.5 60.6,58.3 								"/>
								<polygon class="st29" points="57.8,56.6 59.7,56 61.9,58 60.6,58.3 								"/>
							</g>
						</g>
						<g>
							<g>
								<polygon class="st27" points="60.9,53.8 69.3,55.5 69.3,57.8 60.9,56.6 								"/>
								<polygon class="st29" points="69.3,55.5 60.9,53.8 63.3,53.2 69.9,54.1 								"/>
							</g>
							<g>
								<polyline class="st27" points="69.2,66.2 69.3,55.5 70.8,56.4 70.8,65.6 70.8,68.8 								"/>
								<polygon class="st28" points="72,56 72.3,67.8 70.8,68.8 70.8,65.6 70.8,56.4 								"/>
								<polygon class="st29" points="69.3,55.5 69.9,54.1 72,56 70.8,56.4 								"/>
							</g>
						</g>
					</g>
					<g>
						<polygon class="st38" points="47.4,44.6 43.2,46.1 38.9,47.6 30.7,36.9 22.5,26.3 31.6,17.6 44.9,21.8 46.2,33.2 						"/>
						<polygon class="st39" points="47.4,45.6 38.9,48.3 38.9,47.6 47.4,44.6 						"/>
						<polygon class="st40" points="38.9,48.3 22.5,27.5 22.5,26.3 38.9,47.6 						"/>
					</g>
					<g>
						<polygon class="st41" points="80.3,52.3 75.3,58 63.2,58.6 52.8,53.9 42.4,49.1 49.8,47 65.2,50 						"/>
						<polygon class="st42" points="75.4,58.9 63.2,59.6 63.2,59.1 63.2,58.6 75.3,58 80.3,52.3 80.5,53.2 						"/>
						<polygon class="st43" points="63.2,59.6 42.4,49.9 42.4,49.1 63.2,58.6 						"/>
					</g>
					<g>
						<polygon class="st31" points="19.3,42.9 21.5,57 20.8,56.6 						"/>
						<polygon class="st29" points="19.3,42.9 21.5,57 22.2,56.5 						"/>
					</g>
					<g>
						<polygon class="st31" points="30.7,47 25.9,59.5 25,58.9 						"/>
						<polygon class="st29" points="30.7,47 25.9,59.5 26.9,58.7 						"/>
					</g>
					<g>
						<g>
							<g>
								<polygon class="st44" points="27.1,61.3 28.5,62.1 31.5,60.6 30,59.8 								"/>
							</g>
						</g>
					</g>
				</g>
			</g>
		</g>
		<g class="st0">
			<rect y="-0.1" class="st1" width="100" height="100"/>
			<g>
				<polygon class="st47" points="94.7,60.4 37.6,90.5 9,75.5 66.2,45.3 				"/>
				<g>
					<g>
						<polygon class="st48" points="37.5,54.7 33.4,56.9 33.4,71.8 29.4,69.6 29.4,54.7 33.4,52.6 						"/>
						<polygon class="st29" points="33.4,71.8 33.4,56.9 37.5,54.7 37.5,54.7 37.5,69.6 						"/>
					</g>
					<g>
						<polygon class="st17" points="48.4,60.6 39.6,56 47,52.1 55.7,56.7 55.7,56.8 						"/>
						<polygon class="st49" points="48.4,71.1 48.4,60.6 55.7,56.8 55.7,67.2 						"/>
						<polygon class="st50" points="39.6,56 48.4,60.6 48.4,71.1 39.6,66.5 						"/>
					</g>
					<g>
						<polygon class="st48" points="79.1,47.4 75,49.6 75,64.5 71,62.3 71,47.4 75,45.2 						"/>
						<polygon class="st29" points="79.1,47.4 79.1,47.4 79.1,62.3 75,64.5 75,49.6 						"/>
					</g>
					<g>
						<polygon class="st17" points="74.7,46.1 66,41.5 73.4,37.6 82.1,42.2 82.1,42.2 						"/>
						<polygon class="st49" points="74.7,56.6 74.7,46.1 82.1,42.2 82.1,52.7 						"/>
						<polygon class="st50" points="66,41.5 74.7,46.1 74.7,56.6 66,52 						"/>
					</g>
					<g>
						<polygon class="st17" points="33.4,53.2 24.7,48.6 32.1,44.7 40.8,49.3 40.8,49.4 						"/>
						<polygon class="st49" points="33.4,63.7 33.4,53.2 40.8,49.4 40.8,59.8 						"/>
						<polygon class="st50" points="24.7,48.6 33.4,53.2 33.4,63.7 24.7,59.1 						"/>
					</g>
					<g>
						<polygon class="st17" points="75.8,17.9 66.4,12.9 74.3,8.7 83.7,13.7 83.7,13.7 						"/>
						<polygon class="st49" points="75.8,29.1 75.8,17.9 83.7,13.7 83.7,25 						"/>
						<polygon class="st50" points="66.4,12.9 75.8,17.9 75.8,29.1 66.4,24.2 						"/>
					</g>
					<g>
						<polygon class="st17" points="45.6,40.4 23.4,28.7 60.8,9 82.9,20.8 						"/>
						<polygon class="st49" points="45.6,66.9 45.6,40.4 82.9,20.8 83,20.8 83,47.3 						"/>
						<polygon class="st50" points="23.4,28.7 45.6,40.4 45.6,66.9 23.4,55.2 						"/>
					</g>
					<g>
						<polygon class="st17" points="30.5,42.5 19.3,36.6 28.7,31.6 39.9,37.5 39.9,37.5 						"/>
						<polygon class="st49" points="30.5,55.8 30.5,42.5 39.9,37.5 39.9,50.9 						"/>
						<polygon class="st50" points="19.3,36.6 30.5,42.5 30.5,55.8 19.3,49.9 						"/>
					</g>
					<g>
						<polygon class="st29" points="24,64 24.3,53.9 12.3,47.6 22.5,42.2 34.4,48.6 34.4,48.6 30.8,60.4 30.8,60.4 						"/>
						<polygon class="st31" points="12.3,47.6 24.3,53.9 24,64 16,59.7 						"/>
					</g>
					<g>
						<polygon class="st29" points="15.6,37.7 15.6,42.9 17.8,41.7 17.8,36.6 17.8,36.6 						"/>
						<polygon class="st48" points="15.6,37.7 6.9,33.1 6.9,38.3 15.6,42.9 						"/>
						<polygon class="st51" points="6.9,33.1 15.6,37.7 17.8,36.6 9.1,32 						"/>
					</g>
					<g>
						<polygon class="st29" points="24.4,43.6 34.5,38.3 34.5,48.6 24.4,53.9 						"/>
						<polygon class="st48" points="12.4,37.3 24.4,43.6 24.4,53.9 12.4,47.6 						"/>
						<polygon class="st51" points="34.5,38.3 24.4,43.6 12.4,37.3 22.5,32 						"/>
					</g>
					<g>
						<polygon class="st29" points="39.8,47.7 37.7,48.8 37.7,54 39.8,52.9 39.8,47.7 						"/>
						<polygon class="st48" points="37.7,48.8 29,44.3 29,49.5 37.7,54 						"/>
						<polygon class="st51" points="29,44.3 37.7,48.8 39.8,47.7 31.2,43.1 						"/>
					</g>
					<g>
						<polygon class="st17" points="31.1,26.8 29,25.7 29,25.7 31.2,24.5 33.3,25.6 33.3,25.6 						"/>
						<polygon class="st52" points="31.1,28.9 31.1,26.8 33.3,25.6 33.3,27.8 						"/>
						<polygon class="st53" points="31.1,26.8 31.1,28.9 29,27.8 29,25.7 						"/>
					</g>
					<g>
						<polygon class="st17" points="48.3,16.6 46.1,17.7 44,16.6 44,16.6 46.2,15.4 48.3,16.6 						"/>
						<polygon class="st52" points="46.1,19.9 46.1,17.7 48.3,16.6 48.3,18.7 						"/>
						<polygon class="st53" points="46.1,17.7 46.1,19.9 44,18.8 44,16.6 						"/>
					</g>
					<g>
						<polygon class="st17" points="44,26.4 41.9,25.3 41.9,25.3 44.1,24.1 46.2,25.2 46.2,25.2 						"/>
						<polygon class="st52" points="44,28.5 44,26.4 46.2,25.2 46.2,27.4 						"/>
						<polygon class="st53" points="44,26.4 44,28.5 41.9,27.5 41.9,25.3 						"/>
					</g>
					<g>
						<polygon class="st17" points="58.8,11.5 56.6,12.6 54.5,11.5 54.5,11.5 56.7,10.3 58.8,11.4 						"/>
						<polygon class="st52" points="56.6,14.8 56.6,12.6 58.8,11.5 58.8,13.6 						"/>
						<polygon class="st53" points="56.6,12.6 56.6,14.8 54.5,13.7 54.5,11.5 						"/>
					</g>
					<g>
						<polygon class="st17" points="55.5,20.6 53.4,19.5 53.4,19.5 55.6,18.3 57.7,19.4 57.7,19.4 						"/>
						<polygon class="st52" points="55.5,22.8 55.5,20.6 57.7,19.4 57.7,21.6 						"/>
						<polygon class="st53" points="55.5,20.6 55.5,22.8 53.4,21.7 53.4,19.5 						"/>
					</g>
					<g>
						<polygon class="st17" points="49,34.9 46.8,36 44.7,34.9 44.7,34.9 46.9,33.8 49,34.9 						"/>
						<polygon class="st52" points="46.8,38.2 46.8,36 49,34.9 49,37 						"/>
						<polygon class="st53" points="46.8,36 46.8,38.2 44.7,37.1 44.7,34.9 						"/>
					</g>
					<g>
						<polygon class="st17" points="52.5,28.7 50.4,27.6 50.4,27.6 52.6,26.5 54.6,27.6 54.6,27.6 						"/>
						<polygon class="st52" points="52.5,30.9 52.5,28.7 54.6,27.6 54.6,29.7 						"/>
						<polygon class="st53" points="52.5,28.7 52.5,30.9 50.4,29.8 50.4,27.6 						"/>
					</g>
					<g>
						<polygon class="st17" points="70,22.9 67.8,24.1 65.7,23 65.7,23 67.9,21.8 70,22.9 						"/>
						<polygon class="st52" points="67.8,26.2 67.8,24.1 70,22.9 70,25.1 						"/>
						<polygon class="st53" points="67.8,24.1 67.8,26.2 65.7,25.1 65.7,23 						"/>
					</g>
					<g>
						<polygon class="st17" points="76.9,18.8 74.8,17.7 74.8,17.7 77,16.5 79.1,17.6 79.1,17.6 						"/>
						<polygon class="st52" points="76.9,20.9 76.9,18.8 79.1,17.6 79.1,19.8 						"/>
						<polygon class="st53" points="76.9,18.8 76.9,20.9 74.8,19.8 74.8,17.7 						"/>
					</g>
					<g>
						<polygon class="st17" points="68.2,11.9 66,13.1 63.9,12 63.9,12 66.1,10.8 68.2,11.9 						"/>
						<polygon class="st52" points="66,15.2 66,13.1 68.2,11.9 68.2,14.1 						"/>
						<polygon class="st53" points="66,13.1 66,15.2 63.9,14.1 63.9,12 						"/>
					</g>
					<g>
						<polygon class="st17" points="64.1,19.1 62,18 62,18 64.2,16.9 66.3,18 66.3,18 						"/>
						<polygon class="st52" points="64.1,21.3 64.1,19.1 66.3,18 66.3,20.1 						"/>
						<polygon class="st53" points="64.1,19.1 64.1,21.3 62,20.2 62,18 						"/>
					</g>
					<g>
						<polygon class="st17" points="33.5,30.7 31.3,31.9 29.2,30.8 29.2,30.8 31.4,29.6 33.5,30.7 						"/>
						<polygon class="st52" points="31.3,34 31.3,31.9 33.5,30.7 33.5,32.9 						"/>
						<polygon class="st53" points="31.3,31.9 31.3,34 29.2,32.9 29.2,30.8 						"/>
					</g>
					<g>
						<polygon class="st17" points="41.3,32.4 39.2,31.3 39.2,31.3 41.4,30.1 43.5,31.2 43.5,31.2 						"/>
						<polygon class="st52" points="41.3,34.5 41.3,32.4 43.5,31.2 43.5,33.4 						"/>
						<polygon class="st53" points="41.3,32.4 41.3,34.5 39.2,33.4 39.2,31.3 						"/>
					</g>
					<g>
						<polygon class="st17" points="42,20.2 39.8,21.3 37.7,20.2 37.7,20.2 39.9,19.1 42,20.2 						"/>
						<polygon class="st52" points="39.8,23.5 39.8,21.3 42,20.2 42,22.3 						"/>
						<polygon class="st53" points="39.8,21.3 39.8,23.5 37.7,22.4 37.7,20.2 						"/>
					</g>
					<g>
						<polygon class="st17" points="62,28.1 59.9,27 59.9,27 62.1,25.8 64.2,26.9 64.2,26.9 						"/>
						<polygon class="st52" points="62,30.3 62,28.1 64.2,26.9 64.2,29.1 						"/>
						<polygon class="st53" points="62,28.1 62,30.3 59.9,29.2 59.9,27 						"/>
					</g>
					<g>
						<polygon class="st17" points="74.8,30.7 76.6,29.8 75.1,29 73.4,29.9 73.4,29.9 						"/>
						<polygon class="st53" points="73.4,29.9 73.4,32 74.8,32.7 74.8,30.7 						"/>
						<polygon class="st54" points="76.6,29.8 74.8,30.7 74.8,32.7 76.6,31.8 						"/>
					</g>
					<g>
						<polygon class="st17" points="51.5,42 53.2,41.1 51.7,40.4 50,41.3 50,41.3 						"/>
						<polygon class="st53" points="50,41.3 50,43.3 51.5,44.1 51.5,42 						"/>
						<polygon class="st54" points="53.2,41.1 51.5,42 51.5,44.1 53.2,43.2 						"/>
					</g>
					<g>
						<polygon class="st17" points="62.2,34 64,33.1 62.5,32.4 60.8,33.3 60.8,33.3 						"/>
						<polygon class="st53" points="60.8,33.3 60.8,35.3 62.2,36.1 62.2,34 						"/>
						<polygon class="st54" points="64,33.1 62.2,34 62.2,36.1 64,35.2 						"/>
					</g>
					<g>
						<polygon class="st17" points="58.7,42 60.4,41.1 59,40.4 57.2,41.3 57.2,41.3 						"/>
						<polygon class="st53" points="57.2,41.3 57.2,43.3 58.7,44.1 58.7,42 						"/>
						<polygon class="st54" points="60.4,41.1 58.7,42 58.7,44.1 60.4,43.2 						"/>
					</g>
					<g>
						<polygon class="st17" points="71.4,39 73.1,38.1 71.7,37.3 70,38.2 70,38.2 						"/>
						<polygon class="st53" points="70,38.2 70,40.2 71.4,41 71.4,39 						"/>
						<polygon class="st54" points="73.1,38.1 71.4,39 71.4,41 73.1,40.1 						"/>
					</g>
					<g>
						<polygon class="st17" points="62.9,49.6 64.6,48.7 63.1,48 61.4,48.9 61.4,48.9 						"/>
						<polygon class="st53" points="61.4,48.9 61.4,50.9 62.9,51.7 62.9,49.6 						"/>
						<polygon class="st54" points="64.6,48.7 62.9,49.6 62.9,51.7 64.6,50.8 						"/>
					</g>
					<g>
						<polygon class="st17" points="51.5,50.9 53.2,50 51.8,49.2 50,50.1 50,50.1 						"/>
						<polygon class="st53" points="50,50.1 50,52.2 51.5,52.9 51.5,50.9 						"/>
						<polygon class="st54" points="53.2,50 51.5,50.9 51.5,52.9 53.2,52 						"/>
					</g>
					<g>
						<polygon class="st17" points="81.9,35.1 83.7,34.2 82.2,33.4 80.5,34.3 80.5,34.3 						"/>
						<polygon class="st53" points="80.5,34.3 80.5,36.4 81.9,37.1 81.9,35.1 						"/>
						<polygon class="st54" points="83.7,34.2 81.9,35.1 81.9,37.1 83.7,36.2 						"/>
					</g>
					<g>
						<polygon class="st17" points="82,28.9 83.8,28 82.3,27.2 80.6,28.1 80.6,28.1 						"/>
						<polygon class="st53" points="80.6,28.1 80.6,30.1 82,30.9 82,28.9 						"/>
						<polygon class="st54" points="83.8,28 82,28.9 82,30.9 83.8,30 						"/>
					</g>
					<g>
						<g>
							<polygon class="st44" points="15.8,43.1 14.1,44 10.8,42.2 12.5,41.3 							"/>
							<polygon class="st45" points="15.8,43.1 15.8,47.1 14.1,47.9 14.1,44 							"/>
							<polygon class="st46" points="14.1,44 14.1,47.9 10.8,46.2 10.8,42.2 							"/>
						</g>
						<polygon class="st29" points="11.8,45.5 11.8,43.7 13.3,44.5 13.3,46.3 						"/>
					</g>
					<g>
						<g>
							<polygon class="st44" points="24.2,47.2 22.5,48.1 19.2,46.3 20.9,45.4 							"/>
							<polygon class="st45" points="24.2,47.2 24.2,51.2 22.5,52.1 22.5,48.1 							"/>
							<polygon class="st46" points="22.5,48.1 22.5,52.1 19.2,50.3 19.2,46.3 							"/>
						</g>
						<polygon class="st29" points="20,49.6 20,47.8 21.5,48.6 21.5,50.4 						"/>
					</g>
				</g>
			</g>
		</g>
	</g>
</g>
<g id="_x33__x5F_3">
</g>
<g id="_x32__x5F_3">
</g>
<g id="_x31__x5F_3">
</g>
</svg>
