<?xml version="1.0" encoding="utf-8"?>
<!-- Generator: Adobe Illustrator 22.0.1, SVG Export Plug-In . SVG Version: 6.00 Build 0)  -->
<svg version="1.1" xmlns="http://www.w3.org/2000/svg" xmlns:xlink="http://www.w3.org/1999/xlink" x="0px" y="0px" width="100px"
	 height="43.4px" viewBox="0 0 100 43.4" style="enable-background:new 0 0 100 43.4;" xml:space="preserve">
<style type="text/css">
	.st0{clip-path:url(#SVGID_2_);}
	.st1{fill-rule:evenodd;clip-rule:evenodd;fill:#93CDDB;}
	.st2{fill-rule:evenodd;clip-rule:evenodd;fill:#7092B1;}
	.st3{fill-rule:evenodd;clip-rule:evenodd;fill:#4F4743;}
	.st4{fill-rule:evenodd;clip-rule:evenodd;fill:#A09388;}
	.st5{fill-rule:evenodd;clip-rule:evenodd;fill:#ABA398;}
	.st6{fill-rule:evenodd;clip-rule:evenodd;fill:#6D635D;}
	.st7{fill-rule:evenodd;clip-rule:evenodd;fill:#452F21;}
	.st8{fill-rule:evenodd;clip-rule:evenodd;}
	.st9{fill-rule:evenodd;clip-rule:evenodd;fill:#D9D6D0;}
	.st10{fill-rule:evenodd;clip-rule:evenodd;fill:#E9D21B;}
	.st11{fill-rule:evenodd;clip-rule:evenodd;fill:#E6AB28;}
	.st12{fill-rule:evenodd;clip-rule:evenodd;fill:#AC9C8E;}
	.st13{fill-rule:evenodd;clip-rule:evenodd;fill:#383330;}
	.st14{fill-rule:evenodd;clip-rule:evenodd;fill:#443933;}
	.st15{fill-rule:evenodd;clip-rule:evenodd;fill:#443733;}
	.st16{fill-rule:evenodd;clip-rule:evenodd;fill:#F9EA7E;}
	.st17{fill-rule:evenodd;clip-rule:evenodd;fill:#FFFFFF;}
	.st18{fill-rule:evenodd;clip-rule:evenodd;fill:#756A64;}
	.st19{fill-rule:evenodd;clip-rule:evenodd;fill:#5E5350;}
	.st20{fill-rule:evenodd;clip-rule:evenodd;fill:#3A3531;}
	.st21{fill-rule:evenodd;clip-rule:evenodd;fill:#77625A;}
	.st22{fill-rule:evenodd;clip-rule:evenodd;fill:#452C21;}
	.st23{fill-rule:evenodd;clip-rule:evenodd;fill:#41332E;}
	.st24{fill-rule:evenodd;clip-rule:evenodd;fill:#725752;}
	.st25{fill-rule:evenodd;clip-rule:evenodd;fill:#39B54A;}
	.st26{fill-rule:evenodd;clip-rule:evenodd;fill:#009245;}
	.st27{fill-rule:evenodd;clip-rule:evenodd;fill:#474747;}
	.st28{fill-rule:evenodd;clip-rule:evenodd;fill:#1A1A1A;}
	.st29{fill-rule:evenodd;clip-rule:evenodd;fill:#333333;}
	.st30{fill-rule:evenodd;clip-rule:evenodd;fill:#4D4D4D;}
	.st31{fill-rule:evenodd;clip-rule:evenodd;fill:#5E5E5E;}
	.st32{fill-rule:evenodd;clip-rule:evenodd;fill:#515151;}
	.st33{fill-rule:evenodd;clip-rule:evenodd;fill:#6F7070;}
	.st34{fill-rule:evenodd;clip-rule:evenodd;fill:#E8D521;}
	.st35{fill-rule:evenodd;clip-rule:evenodd;fill:#FCEE21;}
	.st36{fill-rule:evenodd;clip-rule:evenodd;fill:#EAD721;}
	.st37{fill-rule:evenodd;clip-rule:evenodd;fill:#2B2B2B;}
	.st38{opacity:0.7955;fill-rule:evenodd;clip-rule:evenodd;fill:#E6E6E6;}
	.st39{opacity:0.8033;fill-rule:evenodd;clip-rule:evenodd;fill:#B3B3B3;}
	.st40{opacity:0.801;fill-rule:evenodd;clip-rule:evenodd;fill:#CCCCCC;}
	.st41{opacity:0.8045;fill-rule:evenodd;clip-rule:evenodd;fill:#E6E6E6;}
	.st42{opacity:0.7966;fill-rule:evenodd;clip-rule:evenodd;fill:#B3B3B3;}
	.st43{opacity:0.8011;fill-rule:evenodd;clip-rule:evenodd;fill:#CCCCCC;}
	.st44{fill-rule:evenodd;clip-rule:evenodd;fill:#F4F2F0;}
	.st45{fill-rule:evenodd;clip-rule:evenodd;fill:#C1B5A4;}
	.st46{fill-rule:evenodd;clip-rule:evenodd;fill:#E3DCD7;}
	.st47{fill-rule:evenodd;clip-rule:evenodd;fill:#77AEBB;}
	.st48{fill-rule:evenodd;clip-rule:evenodd;fill:#6A6A6A;}
	.st49{fill-rule:evenodd;clip-rule:evenodd;fill:#A2A2A2;}
	.st50{fill-rule:evenodd;clip-rule:evenodd;fill:#CCCCCC;}
	.st51{fill-rule:evenodd;clip-rule:evenodd;fill:#888888;}
	.st52{fill-rule:evenodd;clip-rule:evenodd;fill:#C8C8C8;}
	.st53{fill-rule:evenodd;clip-rule:evenodd;fill:#DDDDDD;}
	.st54{fill-rule:evenodd;clip-rule:evenodd;fill:#AEAEAE;}
	.st55{clip-path:url(#SVGID_4_);}
	.st56{clip-path:url(#SVGID_6_);}
	.st57{clip-path:url(#SVGID_8_);}
	.st58{clip-path:url(#SVGID_10_);}
</style>
<g id="_x32__x5F_2">
</g>
<g id="_x31__x5F_2">
</g>
<g id="_x33__x5F_3">
</g>
<g id="_x32__x5F_3">
</g>
<g id="_x31__x5F_3">
	<g>
		<g>
			<defs>
				<path id="SVGID_9_" d="M0,0v33.3h15c0,5.5,4.5,10,10,10s10-4.5,10-10h65V0H0z"/>
			</defs>
			<clipPath id="SVGID_2_">
				<use xlink:href="#SVGID_9_"  style="overflow:visible;"/>
			</clipPath>
			<g class="st0">
				<rect class="st1" width="100" height="100"/>
				<g>
					<g>
						<polygon class="st3" points="41.1,4.1 42.7,3.2 42.7,15.1 41.1,15.9 						"/>
						<polygon class="st4" points="42.7,3.2 41.1,4.1 37.9,2.4 39.5,1.5 42.7,3.2 						"/>
						<polygon class="st5" points="40.1,15.4 38.6,14.6 38.6,4.7 40.1,5.5 						"/>
						<polygon class="st6" points="41.1,4.1 41.1,15.9 40.5,15.6 40.2,15.5 40.1,15.4 40.1,5.6 38.6,4.7 38.6,14.6 37.9,14.2 
							37.9,2.4 						"/>
					</g>
					<g>
						<polygon class="st9" points="69.9,35.6 74.3,33.3 78.6,35.6 78.6,62.5 74.3,64.8 74.3,37.9 						"/>
						<polygon class="st5" points="74.3,64.8 69.9,62.5 69.9,35.6 74.3,37.9 						"/>
					</g>
					<g>
						<polygon class="st10" points="67.1,55.9 62.8,58.3 62.8,31.4 58.4,29.1 62.8,26.8 67.1,29.1 						"/>
						<polygon class="st11" points="58.4,29.1 62.8,31.4 62.8,58.3 58.4,55.9 						"/>
					</g>
					<g>
						<polygon class="st9" points="46.8,79.5 42.4,81.9 42.4,31.3 38.1,29 42.4,26.7 46.8,29 						"/>
						<polygon class="st5" points="38.1,79.5 38.1,29 42.4,31.3 42.4,81.9 						"/>
					</g>
					<g>
						<polygon class="st9" points="26.6,22.5 30.9,20.2 35.3,22.5 35.3,73 30.9,75.3 30.9,24.8 						"/>
						<polygon class="st5" points="30.9,75.3 26.6,73 26.6,22.5 30.9,24.8 						"/>
					</g>
					<g>
						<polygon class="st10" points="72.7,29.7 72.7,35.9 68,33.4 68,27.2 						"/>
						<polygon class="st13" points="78.2,26.8 72.7,29.7 68,27.2 73.5,24.3 						"/>
						<polygon class="st3" points="72.7,35.9 72.7,29.7 78.2,26.8 78.2,32.9 						"/>
					</g>
					<g>
						<polygon class="st6" points="44.7,52.5 25.4,42.3 60.9,23.5 80.2,33.7 						"/>
						<polygon class="st9" points="44.7,75.6 44.7,52.5 80.2,33.7 80.2,56.9 						"/>
						<polygon class="st5" points="44.7,75.6 25.4,65.5 25.4,42.3 44.7,52.5 						"/>
					</g>
					<g>
						<polygon class="st14" points="54.2,17.1 46.5,21.1 40,24.6 40,16.9 52.7,10.7 						"/>
						<polygon class="st15" points="46.5,21.1 54.2,17.1 54.2,38.4 50,41.4 						"/>
					</g>
					<g>
						<polygon class="st3" points="30.2,30.9 30.2,30.9 43.6,23.8 53.5,29.1 53.5,31.2 53.5,32.7 53.5,34.4 53.5,35.9 53.5,37.7 
							53.5,39.2 53.5,43 40.1,50.1 40.1,36.2 						"/>
						<polygon class="st13" points="40.1,50.1 30.2,44.8 30.2,30.9 40.1,36.2 						"/>
					</g>
					<polygon class="st13" points="44.7,52.5 44.7,62.8 44.7,73.2 25.4,63 25.4,42.3 					"/>
					<g>
						<path class="st3" d="M40.1,36.2V22.3l10.6-5.6l2.9,12.4C51.6,31.4,47.1,33.7,40.1,36.2z"/>
						<path class="st6" d="M50.6,16.7l-10.6,5.6v13.9l-9.9-5.2V19.6V17v0l10.5-5.6L50.6,16.7z M33.4,23.2l4.2-2.3L33.4,23.2z
							 M30.2,19.6l2.4-1.3L30.2,19.6z"/>
						<g>
							<path d="M33.1,23.4c-0.1-0.1,0-0.3,0.1-0.4l0,0l4.1-2.3c0.1-0.1,0.3,0,0.4,0.1l0,0c0.1,0.1,0,0.3-0.1,0.4l0,0l-4.2,2.3
								c0,0-0.1,0-0.1,0l0,0C33.3,23.5,33.2,23.5,33.1,23.4L33.1,23.4z M28.1,20.7c-0.1-0.1,0-0.3,0.1-0.4l0,0l1.8-1l2.4-1.3
								c0.1-0.1,0.3,0,0.4,0.1l0,0c0.1,0.1,0,0.3-0.1,0.4l0,0l-2.4,1.3l-1.8,1c0,0-0.1,0-0.1,0l0,0C28.3,20.9,28.2,20.8,28.1,20.7
								L28.1,20.7z"/>
						</g>
					</g>
					<g>
						<polygon class="st3" points="35.8,38.4 35.8,24.5 40.1,22.3 40.1,36.2 						"/>
						<polygon class="st6" points="40.1,22.3 35.8,24.5 35.8,24.5 33.4,23.2 32.6,22.8 32.1,22.5 30.9,21.9 28.9,20.8 28.4,20.6 
							25.9,19.3 30.1,17 32.6,18.3 35.1,19.6 36.2,20.3 37.6,21 						"/>
						<polygon class="st5" points="35.8,24.5 35.8,38.4 25.9,33.2 25.9,29.9 25.9,19.3 28.4,20.6 28.9,20.8 30.9,21.9 32.1,22.5 
							32.6,22.8 33.4,23.2 35.8,24.5 						"/>
					</g>
					<g>
						<polygon class="st16" points="25.4,32.2 25.3,32.2 25.3,32.2 						"/>
						<polygon class="st9" points="25.3,42.7 25.3,32.2 25.4,32.2 34.6,27.2 34.6,37.8 						"/>
						<polygon class="st17" points="34.6,27.2 25.4,32.2 25.3,32.2 25.3,32.2 25.3,42.7 17.8,38.7 17.8,28.2 27,23.2 28.9,24.2 
							30.8,25.2 32.7,26.2 						"/>
					</g>
					<g>
						<polygon class="st4" points="25.6,32 17.5,27.7 21.7,25.4 29.9,29.7 						"/>
						<polygon class="st18" points="23.9,40.4 15.8,36.1 17.5,27.7 25.6,32 						"/>
						<polygon class="st19" points="23.9,40.4 25.6,32 29.9,29.7 29.9,41.1 25.2,43.6 						"/>
						<polygon class="st20" points="15.8,36.1 23.9,40.4 25.2,43.6 25.1,43.6 17.1,39.3 						"/>
					</g>
					<g>
						<polygon class="st9" points="44.8,23.2 40.2,25.6 40.2,31.1 44.8,28.7 						"/>
						<polygon class="st17" points="40.2,25.6 44.8,23.2 42.5,22 37.9,24.4 						"/>
						<polygon class="st5" points="37.9,24.4 37.9,29.9 40.2,31.1 40.2,25.6 						"/>
					</g>
					<polygon class="st8" points="41.4,26.4 41.4,28.8 43.4,27.7 43.4,25.3 					"/>
					<g>
						<polygon class="st21" points="48.9,5.6 34.8,13 33.1,12.1 34.8,11.2 47.2,4.7 						"/>
						<polygon class="st14" points="34.8,13 48.9,5.6 52.7,10.7 34.8,20.1 						"/>
						<polygon class="st22" points="34.8,13 34.8,20.1 33.1,19.2 33.1,12.1 						"/>
					</g>
					<polygon class="st23" points="20.2,33.8 19.8,35.5 18.2,34.6 18.6,33 					"/>
					<polygon class="st23" points="22.6,35.1 22.3,36.8 20.7,36 21,34.3 					"/>
					<polygon class="st3" points="80.2,33.7 80.2,44 80.2,54.3 44.6,73.1 44.6,52.5 62.5,43.1 					"/>
					<line class="st24" x1="32.9" y1="38.6" x2="31.8" y2="39.2"/>
					<g>
						<polygon class="st3" points="46.7,6.5 48.3,5.7 48.3,17.5 46.7,18.4 						"/>
						<polygon class="st4" points="48.3,5.7 46.7,6.5 43.5,4.8 45.1,4 48.3,5.7 						"/>
						<polygon class="st5" points="45.7,17.9 44.2,17.1 44.3,7.2 45.7,8 						"/>
						<polygon class="st6" points="46.7,6.5 46.7,18.4 46.1,18.1 45.9,17.9 45.7,17.9 45.7,8 44.3,7.2 44.2,17.1 43.5,16.7 
							43.5,4.8 						"/>
					</g>
				</g>
			</g>
			<g class="st0">
				<rect x="0" class="st25" width="100" height="100"/>
				<g>
					<g>
						<g>
							<polygon class="st35" points="70.3,38.9 78.6,43.6 67.9,45.5 56.7,40.3 							"/>
							<g>
								<polygon class="st35" points="63.6,46.8 44,51.3 33.7,46 51.8,41.5 								"/>
							</g>
						</g>
						<g>
							<polygon class="st37" points="75.1,56.4 72.3,57.8 71.7,44.3 74.8,43.2 							"/>
							<polygon class="st37" points="74.8,43.2 71.7,44.3 62.4,39.7 66.7,39.2 							"/>
							<polygon class="st37" points="67.9,45.5 63.6,46.8 51.8,41.5 56.7,40.3 							"/>
							<polygon class="st37" points="58.4,48 53.9,49.1 42.5,43.8 47.3,42.6 							"/>
						</g>
						<g>
							<polygon class="st38" points="47.4,44.6 43.2,46.1 38.9,47.6 30.7,36.9 22.5,26.3 31.6,17.6 44.9,21.8 46.2,33.2 							"/>
							<polygon class="st40" points="38.9,48.3 22.5,27.5 22.5,26.3 38.9,47.6 							"/>
						</g>
						<g>
							<polygon class="st31" points="19.3,42.9 21.5,57 20.8,56.6 							"/>
							<polygon class="st29" points="19.3,42.9 21.5,57 22.2,56.5 							"/>
						</g>
					</g>
				</g>
			</g>
			<g class="st0">
				<rect x="0" y="0" class="st1" width="100" height="100"/>
				<g>
					<g>
						<g>
							<polygon class="st17" points="74.7,46.2 66,41.6 73.4,37.7 82.1,42.3 82.1,42.4 							"/>
							<polygon class="st49" points="74.7,56.7 74.7,46.2 82.1,42.4 82.1,52.8 							"/>
							<polygon class="st50" points="66,41.6 74.7,46.2 74.7,56.7 66,52.1 							"/>
						</g>
						<g>
							<polygon class="st17" points="75.8,18 66.4,13 74.3,8.8 83.7,13.8 83.7,13.8 							"/>
							<polygon class="st49" points="75.8,29.2 75.8,18 83.7,13.8 83.7,25.1 							"/>
							<polygon class="st50" points="66.4,13 75.8,18 75.8,29.2 66.4,24.3 							"/>
						</g>
						<g>
							<polygon class="st17" points="45.6,40.5 23.4,28.8 60.8,9.1 82.9,20.9 							"/>
							<polygon class="st49" points="45.6,67 45.6,40.5 82.9,20.9 83,20.9 83,47.4 							"/>
							<polygon class="st50" points="23.4,28.8 45.6,40.5 45.6,67 23.4,55.3 							"/>
						</g>
						<g>
							<polygon class="st17" points="30.5,42.6 19.3,36.7 28.7,31.7 39.9,37.6 39.9,37.6 							"/>
							<polygon class="st49" points="30.5,55.9 30.5,42.6 39.9,37.6 39.9,51 							"/>
							<polygon class="st50" points="19.3,36.7 30.5,42.6 30.5,55.9 19.3,50.1 							"/>
						</g>
						<g>
							<polygon class="st29" points="24,64.1 24.3,54 12.3,47.7 22.5,42.3 34.4,48.7 34.4,48.7 30.8,60.5 30.8,60.5 							"/>
						</g>
						<g>
							<polygon class="st29" points="15.6,37.8 15.6,43 17.8,41.8 17.8,36.7 17.8,36.7 							"/>
							<polygon class="st48" points="15.6,37.8 6.9,33.2 6.9,38.4 15.6,43 							"/>
							<polygon class="st51" points="6.9,33.2 15.6,37.8 17.8,36.7 9.1,32.1 							"/>
						</g>
						<g>
							<polygon class="st29" points="24.4,43.7 34.5,38.4 34.5,48.7 24.4,54 							"/>
							<polygon class="st48" points="12.4,37.4 24.4,43.7 24.4,54 12.4,47.7 							"/>
							<polygon class="st51" points="34.5,38.4 24.4,43.7 12.4,37.4 22.5,32.1 							"/>
						</g>
						<g>
							<polygon class="st51" points="29,44.4 37.7,48.9 39.8,47.8 31.2,43.2 							"/>
						</g>
						<g>
							<polygon class="st17" points="31.1,26.9 29,25.8 29,25.8 31.2,24.6 33.3,25.7 33.3,25.7 							"/>
							<polygon class="st52" points="31.1,29 31.1,26.9 33.3,25.7 33.3,27.9 							"/>
							<polygon class="st53" points="31.1,26.9 31.1,29 29,27.9 29,25.8 							"/>
						</g>
						<g>
							<polygon class="st17" points="48.3,16.7 46.1,17.8 44,16.7 44,16.7 46.2,15.6 48.3,16.7 							"/>
							<polygon class="st52" points="46.1,20 46.1,17.8 48.3,16.7 48.3,18.8 							"/>
							<polygon class="st53" points="46.1,17.8 46.1,20 44,18.9 44,16.7 							"/>
						</g>
						<g>
							<polygon class="st17" points="44,26.5 41.9,25.4 41.9,25.4 44.1,24.2 46.2,25.3 46.2,25.3 							"/>
							<polygon class="st52" points="44,28.7 44,26.5 46.2,25.3 46.2,27.5 							"/>
							<polygon class="st53" points="44,26.5 44,28.7 41.9,27.6 41.9,25.4 							"/>
						</g>
						<g>
							<polygon class="st17" points="58.8,11.6 56.6,12.7 54.5,11.6 54.5,11.6 56.7,10.4 58.8,11.5 							"/>
							<polygon class="st52" points="56.6,14.9 56.6,12.7 58.8,11.6 58.8,13.7 							"/>
							<polygon class="st53" points="56.6,12.7 56.6,14.9 54.5,13.8 54.5,11.6 							"/>
						</g>
						<g>
							<polygon class="st17" points="55.5,20.7 53.4,19.6 53.4,19.6 55.6,18.4 57.7,19.5 57.7,19.5 							"/>
							<polygon class="st52" points="55.5,22.9 55.5,20.7 57.7,19.5 57.7,21.7 							"/>
							<polygon class="st53" points="55.5,20.7 55.5,22.9 53.4,21.8 53.4,19.6 							"/>
						</g>
						<g>
							<polygon class="st17" points="49,35 46.8,36.1 44.7,35 44.7,35 46.9,33.9 49,35 							"/>
							<polygon class="st52" points="46.8,38.3 46.8,36.1 49,35 49,37.1 							"/>
							<polygon class="st53" points="46.8,36.1 46.8,38.3 44.7,37.2 44.7,35 							"/>
						</g>
						<g>
							<polygon class="st17" points="52.5,28.8 50.4,27.7 50.4,27.7 52.6,26.6 54.6,27.7 54.6,27.7 							"/>
							<polygon class="st52" points="52.5,31 52.5,28.8 54.6,27.7 54.6,29.8 							"/>
							<polygon class="st53" points="52.5,28.8 52.5,31 50.4,29.9 50.4,27.7 							"/>
						</g>
						<g>
							<polygon class="st17" points="70,23 67.8,24.2 65.7,23.1 65.7,23.1 67.9,21.9 70,23 							"/>
							<polygon class="st52" points="67.8,26.3 67.8,24.2 70,23 70,25.2 							"/>
							<polygon class="st53" points="67.8,24.2 67.8,26.3 65.7,25.2 65.7,23.1 							"/>
						</g>
						<g>
							<polygon class="st17" points="76.9,18.9 74.8,17.8 74.8,17.8 77,16.6 79.1,17.7 79.1,17.7 							"/>
							<polygon class="st52" points="76.9,21 76.9,18.9 79.1,17.7 79.1,19.9 							"/>
							<polygon class="st53" points="76.9,18.9 76.9,21 74.8,19.9 74.8,17.8 							"/>
						</g>
						<g>
							<polygon class="st17" points="68.2,12 66,13.2 63.9,12.1 63.9,12.1 66.1,10.9 68.2,12 							"/>
							<polygon class="st52" points="66,15.3 66,13.2 68.2,12 68.2,14.2 							"/>
							<polygon class="st53" points="66,13.2 66,15.3 63.9,14.2 63.9,12.1 							"/>
						</g>
						<g>
							<polygon class="st17" points="64.1,19.2 62,18.1 62,18.1 64.2,17 66.3,18.1 66.3,18.1 							"/>
							<polygon class="st52" points="64.1,21.4 64.1,19.2 66.3,18.1 66.3,20.2 							"/>
							<polygon class="st53" points="64.1,19.2 64.1,21.4 62,20.3 62,18.1 							"/>
						</g>
						<g>
							<polygon class="st17" points="33.5,30.8 31.3,32 29.2,30.9 29.2,30.9 31.4,29.7 33.5,30.8 							"/>
							<polygon class="st52" points="31.3,34.1 31.3,32 33.5,30.8 33.5,33 							"/>
							<polygon class="st53" points="31.3,32 31.3,34.1 29.2,33 29.2,30.9 							"/>
						</g>
						<g>
							<polygon class="st17" points="41.3,32.5 39.2,31.4 39.2,31.4 41.4,30.2 43.5,31.3 43.5,31.3 							"/>
							<polygon class="st52" points="41.3,34.6 41.3,32.5 43.5,31.3 43.5,33.5 							"/>
							<polygon class="st53" points="41.3,32.5 41.3,34.6 39.2,33.5 39.2,31.4 							"/>
						</g>
						<g>
							<polygon class="st17" points="42,20.3 39.8,21.4 37.7,20.3 37.7,20.3 39.9,19.2 42,20.3 							"/>
							<polygon class="st52" points="39.8,23.6 39.8,21.4 42,20.3 42,22.4 							"/>
							<polygon class="st53" points="39.8,21.4 39.8,23.6 37.7,22.5 37.7,20.3 							"/>
						</g>
						<g>
							<polygon class="st17" points="62,28.2 59.9,27.1 59.9,27.1 62.1,25.9 64.2,27 64.2,27 							"/>
							<polygon class="st52" points="62,30.4 62,28.2 64.2,27 64.2,29.2 							"/>
							<polygon class="st53" points="62,28.2 62,30.4 59.9,29.3 59.9,27.1 							"/>
						</g>
						<g>
							<polygon class="st17" points="74.8,30.8 76.6,29.9 75.1,29.1 73.4,30 73.4,30 							"/>
							<polygon class="st53" points="73.4,30 73.4,32.1 74.8,32.8 74.8,30.8 							"/>
							<polygon class="st54" points="76.6,29.9 74.8,30.8 74.8,32.8 76.6,31.9 							"/>
						</g>
						<g>
							<polygon class="st17" points="51.5,42.1 53.2,41.2 51.7,40.5 50,41.4 50,41.4 							"/>
							<polygon class="st53" points="50,41.4 50,43.4 51.5,44.2 51.5,42.1 							"/>
							<polygon class="st54" points="53.2,41.2 51.5,42.1 51.5,44.2 53.2,43.3 							"/>
						</g>
						<g>
							<polygon class="st17" points="62.2,34.1 64,33.2 62.5,32.5 60.8,33.4 60.8,33.4 							"/>
							<polygon class="st53" points="60.8,33.4 60.8,35.4 62.2,36.2 62.2,34.1 							"/>
							<polygon class="st54" points="64,33.2 62.2,34.1 62.2,36.2 64,35.3 							"/>
						</g>
						<g>
							<polygon class="st17" points="58.7,42.1 60.4,41.2 59,40.5 57.2,41.4 57.2,41.4 							"/>
							<polygon class="st53" points="57.2,41.4 57.2,43.4 58.7,44.2 58.7,42.1 							"/>
							<polygon class="st54" points="60.4,41.2 58.7,42.1 58.7,44.2 60.4,43.3 							"/>
						</g>
						<g>
							<polygon class="st17" points="71.4,39.1 73.1,38.2 71.7,37.4 70,38.3 70,38.3 							"/>
							<polygon class="st53" points="70,38.3 70,40.4 71.4,41.1 71.4,39.1 							"/>
							<polygon class="st54" points="73.1,38.2 71.4,39.1 71.4,41.1 73.1,40.2 							"/>
						</g>
						<g>
							<polygon class="st17" points="81.9,35.2 83.7,34.3 82.2,33.5 80.5,34.4 80.5,34.4 							"/>
							<polygon class="st53" points="80.5,34.4 80.5,36.5 81.9,37.2 81.9,35.2 							"/>
							<polygon class="st54" points="83.7,34.3 81.9,35.2 81.9,37.2 83.7,36.3 							"/>
						</g>
						<g>
							<polygon class="st17" points="82,29 83.8,28.1 82.3,27.3 80.6,28.2 80.6,28.2 							"/>
							<polygon class="st53" points="80.6,28.2 80.6,30.2 82,31 82,29 							"/>
							<polygon class="st54" points="83.8,28.1 82,29 82,31 83.8,30.1 							"/>
						</g>
						<g>
							<g>
								<polygon class="st44" points="15.8,43.2 14.1,44.1 10.8,42.3 12.5,41.4 								"/>
								<polygon class="st45" points="15.8,43.2 15.8,47.2 14.1,48 14.1,44.1 								"/>
								<polygon class="st46" points="14.1,44.1 14.1,48 10.8,46.3 10.8,42.3 								"/>
							</g>
						</g>
					</g>
				</g>
			</g>
		</g>
	</g>
</g>
</svg>
