<?xml version="1.0" encoding="utf-8"?>
<!-- Generator: Adobe Illustrator 22.0.1, SVG Export Plug-In . SVG Version: 6.00 Build 0)  -->
<svg version="1.1" xmlns="http://www.w3.org/2000/svg" xmlns:xlink="http://www.w3.org/1999/xlink" x="0px" y="0px" width="100px"
	 height="33.4px" viewBox="0 0 100 33.4" style="enable-background:new 0 0 100 33.4;" xml:space="preserve">
<style type="text/css">
	.st0{clip-path:url(#SVGID_2_);}
	.st1{fill-rule:evenodd;clip-rule:evenodd;fill:#93CDDB;}
	.st2{fill-rule:evenodd;clip-rule:evenodd;fill:#7092B1;}
	.st3{fill-rule:evenodd;clip-rule:evenodd;fill:#4F4743;}
	.st4{fill-rule:evenodd;clip-rule:evenodd;fill:#A09388;}
	.st5{fill-rule:evenodd;clip-rule:evenodd;fill:#ABA398;}
	.st6{fill-rule:evenodd;clip-rule:evenodd;fill:#6D635D;}
	.st7{fill-rule:evenodd;clip-rule:evenodd;fill:#452F21;}
	.st8{fill-rule:evenodd;clip-rule:evenodd;}
	.st9{fill-rule:evenodd;clip-rule:evenodd;fill:#D9D6D0;}
	.st10{fill-rule:evenodd;clip-rule:evenodd;fill:#E9D21B;}
	.st11{fill-rule:evenodd;clip-rule:evenodd;fill:#E6AB28;}
	.st12{fill-rule:evenodd;clip-rule:evenodd;fill:#AC9C8E;}
	.st13{fill-rule:evenodd;clip-rule:evenodd;fill:#383330;}
	.st14{fill-rule:evenodd;clip-rule:evenodd;fill:#443933;}
	.st15{fill-rule:evenodd;clip-rule:evenodd;fill:#443733;}
	.st16{fill-rule:evenodd;clip-rule:evenodd;fill:#F9EA7E;}
	.st17{fill-rule:evenodd;clip-rule:evenodd;fill:#FFFFFF;}
	.st18{fill-rule:evenodd;clip-rule:evenodd;fill:#756A64;}
	.st19{fill-rule:evenodd;clip-rule:evenodd;fill:#5E5350;}
	.st20{fill-rule:evenodd;clip-rule:evenodd;fill:#3A3531;}
	.st21{fill-rule:evenodd;clip-rule:evenodd;fill:#77625A;}
	.st22{fill-rule:evenodd;clip-rule:evenodd;fill:#452C21;}
	.st23{fill-rule:evenodd;clip-rule:evenodd;fill:#41332E;}
	.st24{fill-rule:evenodd;clip-rule:evenodd;fill:#725752;}
	.st25{fill-rule:evenodd;clip-rule:evenodd;fill:#39B54A;}
	.st26{fill-rule:evenodd;clip-rule:evenodd;fill:#009245;}
	.st27{fill-rule:evenodd;clip-rule:evenodd;fill:#474747;}
	.st28{fill-rule:evenodd;clip-rule:evenodd;fill:#1A1A1A;}
	.st29{fill-rule:evenodd;clip-rule:evenodd;fill:#333333;}
	.st30{fill-rule:evenodd;clip-rule:evenodd;fill:#4D4D4D;}
	.st31{fill-rule:evenodd;clip-rule:evenodd;fill:#5E5E5E;}
	.st32{fill-rule:evenodd;clip-rule:evenodd;fill:#515151;}
	.st33{fill-rule:evenodd;clip-rule:evenodd;fill:#6F7070;}
	.st34{fill-rule:evenodd;clip-rule:evenodd;fill:#E8D521;}
	.st35{fill-rule:evenodd;clip-rule:evenodd;fill:#FCEE21;}
	.st36{fill-rule:evenodd;clip-rule:evenodd;fill:#EAD721;}
	.st37{fill-rule:evenodd;clip-rule:evenodd;fill:#2B2B2B;}
	.st38{opacity:0.7955;fill-rule:evenodd;clip-rule:evenodd;fill:#E6E6E6;}
	.st39{opacity:0.8033;fill-rule:evenodd;clip-rule:evenodd;fill:#B3B3B3;}
	.st40{opacity:0.801;fill-rule:evenodd;clip-rule:evenodd;fill:#CCCCCC;}
	.st41{opacity:0.8045;fill-rule:evenodd;clip-rule:evenodd;fill:#E6E6E6;}
	.st42{opacity:0.7966;fill-rule:evenodd;clip-rule:evenodd;fill:#B3B3B3;}
	.st43{opacity:0.8011;fill-rule:evenodd;clip-rule:evenodd;fill:#CCCCCC;}
	.st44{fill-rule:evenodd;clip-rule:evenodd;fill:#F4F2F0;}
	.st45{fill-rule:evenodd;clip-rule:evenodd;fill:#C1B5A4;}
	.st46{fill-rule:evenodd;clip-rule:evenodd;fill:#E3DCD7;}
	.st47{fill-rule:evenodd;clip-rule:evenodd;fill:#77AEBB;}
	.st48{fill-rule:evenodd;clip-rule:evenodd;fill:#6A6A6A;}
	.st49{fill-rule:evenodd;clip-rule:evenodd;fill:#A2A2A2;}
	.st50{fill-rule:evenodd;clip-rule:evenodd;fill:#CCCCCC;}
	.st51{fill-rule:evenodd;clip-rule:evenodd;fill:#888888;}
	.st52{fill-rule:evenodd;clip-rule:evenodd;fill:#C8C8C8;}
	.st53{fill-rule:evenodd;clip-rule:evenodd;fill:#DDDDDD;}
	.st54{fill-rule:evenodd;clip-rule:evenodd;fill:#AEAEAE;}
	.st55{clip-path:url(#SVGID_4_);}
	.st56{clip-path:url(#SVGID_6_);}
	.st57{clip-path:url(#SVGID_8_);}
	.st58{clip-path:url(#SVGID_10_);}
</style>
<g id="_x32__x5F_2">
</g>
<g id="_x31__x5F_2">
</g>
<g id="_x33__x5F_3">
	<g>
		<g>
			<defs>
				<path id="SVGID_5_" d="M35,0c0,5.5-4.5,10-10,10S15,5.5,15,0H0v33.3h100V0H35z"/>
			</defs>
			<clipPath id="SVGID_2_">
				<use xlink:href="#SVGID_5_"  style="overflow:visible;"/>
			</clipPath>
			<g class="st0">
				<rect x="0" y="-66.7" class="st1" width="100" height="100"/>
				<polygon class="st2" points="20.8,19.2 63.6,-3.3 85,7.9 42.2,30.6 				"/>
				<g>
					<g>
						<polygon class="st7" points="74.4,11.6 74.4,9.9 74.4,7.7 70,5.5 74.4,3.1 78.7,5.5 78.7,7.6 78.7,9.2 						"/>
						<polygon class="st8" points="70,5.5 74.4,7.7 74.4,9.9 74.4,11.6 70,9.2 70,7.6 						"/>
					</g>
					<g>
						<polygon class="st9" points="74.3,7.8 74.3,-1.9 78.6,-4.2 78.6,5.5 						"/>
						<polygon class="st5" points="74.3,-1.9 74.3,7.8 69.9,5.5 69.9,-4.2 						"/>
					</g>
					<g>
						<polygon class="st7" points="62.8,5.1 62.8,3.4 62.8,1.2 58.5,-1.1 62.8,-3.4 67.2,-1.1 67.2,1.1 67.2,2.7 						"/>
						<polygon class="st8" points="58.5,-1.1 62.8,1.2 62.8,3.4 62.8,5.1 58.5,2.7 58.5,1.1 						"/>
					</g>
					<g>
						<polygon class="st12" points="62.8,1.3 58.4,-1.1 58.4,-10.8 62.8,-8.4 						"/>
						<polygon class="st9" points="67.1,-10.8 67.1,-1.1 62.8,1.3 62.8,-8.4 						"/>
					</g>
					<g>
						<polygon class="st7" points="42.5,28.7 42.5,27.1 42.5,24.8 38.1,22.6 42.5,20.2 46.9,22.6 46.9,24.7 46.9,26.4 						"/>
						<polygon class="st8" points="38.1,22.6 42.5,24.8 42.5,27.1 42.5,28.7 38.1,26.4 38.1,24.7 						"/>
					</g>
					<g>
						<polygon class="st9" points="46.8,12.9 42.4,15.2 42.4,-35.3 38.1,-37.6 42.4,-39.9 46.8,-37.6 						"/>
						<polygon class="st5" points="38.1,12.9 38.1,-37.6 42.4,-35.3 42.4,15.2 						"/>
						<polygon class="st9" points="46.8,12.9 46.8,22.6 42.4,24.9 42.4,15.2 						"/>
						<polygon class="st5" points="38.1,12.9 42.4,15.2 42.4,24.9 38.1,22.6 						"/>
					</g>
					<g>
						<polygon class="st7" points="31,22.2 31,20.5 31,18.3 26.6,16 31,13.7 35.4,16 35.4,18.2 35.4,19.8 						"/>
						<polygon class="st8" points="26.6,16 31,18.3 31,20.5 31,22.2 26.6,19.8 26.6,18.2 						"/>
					</g>
					<g>
						<polygon class="st9" points="26.6,-44.2 30.9,-46.5 35.3,-44.2 35.3,6.3 30.9,8.7 30.9,-41.9 						"/>
						<polygon class="st5" points="30.9,8.7 26.6,6.3 26.6,-44.2 30.9,-41.9 						"/>
						<polygon class="st9" points="35.3,6.3 35.3,16 30.9,18.3 30.9,8.7 						"/>
						<polygon class="st5" points="26.6,6.3 30.9,8.7 30.9,18.3 26.6,16 						"/>
					</g>
					<g>
						<polygon class="st9" points="44.7,9 44.7,-14.1 80.2,-32.9 80.2,-9.8 						"/>
						<polygon class="st5" points="44.7,9 25.4,-1.2 25.4,-24.4 44.7,-14.1 						"/>
					</g>
					<polygon class="st13" points="44.7,-14.2 44.7,-3.8 44.7,6.5 25.4,-3.7 25.4,-24.4 					"/>
					<polygon class="st3" points="80.2,-33 80.2,-22.7 80.2,-12.3 44.6,6.4 44.6,-14.2 62.5,-23.5 					"/>
				</g>
			</g>
			<g class="st0">
				<rect x="0" y="-66.7" class="st25" width="100" height="100"/>
				<g>
					<polygon class="st26" points="65.3,-16.1 31.4,-3.6 12.7,11.4 22.4,16.2 53.2,10.8 80.6,-0.7 87.9,-8 80.8,-15.1 					"/>
					<g>
						<g>
							<g>
								<polygon class="st27" points="44.9,-2.6 47.4,-1.2 47.4,0.6 44.9,-0.7 								"/>
								<polygon class="st28" points="47.4,-1.2 49.6,-2.8 49.6,-0.7 47.4,0.6 								"/>
							</g>
							<g>
								<polygon class="st27" points="34.7,0 37.2,1.4 37.2,3.2 34.7,1.9 								"/>
								<polygon class="st28" points="37.2,1.4 39.4,-0.2 39.4,1.9 37.2,3.2 								"/>
								<polygon class="st29" points="39.4,-0.2 37.2,1.4 34.7,0 37.8,-1 								"/>
							</g>
						</g>
						<g>
							<polygon class="st31" points="19.5,-9.9 25.9,-6.5 25.9,1.9 19.5,-1.8 							"/>
							<polygon class="st32" points="25.9,-6.5 35.8,-10.7 35.5,-0.8 25.9,1.9 							"/>
						</g>
						<g id="Nogi_3_">
							<g>
								<g>
									<polygon class="st27" points="49.6,7 46.4,5.4 48,4.4 48.1,-6.3 49.6,-5.4 49.6,3.8 									"/>
									<polygon class="st28" points="50.8,-5.7 51.1,6 49.6,7 49.6,3.8 49.6,-5.4 									"/>
								</g>
								<g>
									<polygon class="st27" points="44.9,5.1 47.4,6.4 47.4,8.3 44.9,7 									"/>
									<polygon class="st28" points="47.4,6.4 49.6,4.9 49.6,7 47.4,8.3 									"/>
									<polygon class="st29" points="49.6,4.9 47.4,6.4 44.9,5.1 48,4.1 									"/>
								</g>
							</g>
							<g>
								<g>
									<polygon class="st27" points="60.6,4 57.5,2.4 59.1,1.4 59.1,-9.3 60.6,-8.3 60.6,0.9 									"/>
									<polygon class="st28" points="61.9,-8.7 62.2,3 60.6,4 60.6,0.9 60.6,-8.3 									"/>
								</g>
								<g>
									<polygon class="st27" points="55.9,2.1 58.4,3.5 58.5,5.3 55.9,4 									"/>
									<polygon class="st28" points="58.4,3.5 60.6,1.9 60.6,4 58.5,5.3 									"/>
									<polygon class="st29" points="60.6,1.9 58.4,3.5 55.9,2.1 59.1,1.1 									"/>
								</g>
							</g>
							<g>
								<g>
									<polyline class="st27" points="69.2,-0.5 69.3,-11.2 70.8,-10.2 70.8,-1.1 70.8,2.1 									"/>
									<polygon class="st28" points="72,-10.6 72.3,1.1 70.8,2.1 70.8,-1.1 70.8,-10.2 									"/>
								</g>
								<g>
									<polygon class="st27" points="66.1,0.2 68.6,1.6 68.7,3.4 66.1,2.1 									"/>
									<polygon class="st28" points="68.6,1.6 70.8,0 70.8,2.1 68.7,3.4 									"/>
									<polygon class="st29" points="70.8,0 68.6,1.6 66.1,0.2 69.2,-0.8 									"/>
								</g>
							</g>
						</g>
					</g>
				</g>
			</g>
			<g class="st0">
				<rect x="0" y="-66.7" class="st1" width="100" height="100"/>
				<g>
					<polygon class="st47" points="94.7,-6.1 37.6,23.9 9,8.9 66.2,-21.3 					"/>
					<g>
						<g>
							<polygon class="st48" points="37.5,-11.8 33.4,-9.7 33.4,5.2 29.4,3 29.4,-11.8 33.4,-14 							"/>
							<polygon class="st29" points="33.4,5.2 33.4,-9.7 37.5,-11.8 37.5,-11.8 37.5,3 							"/>
						</g>
						<g>
							<polygon class="st48" points="52.5,-3.4 48.4,-1.3 48.4,13.6 44.3,11.4 44.3,-3.4 48.4,-5.6 							"/>
							<polygon class="st29" points="48.4,13.6 48.4,-1.3 52.5,-3.4 52.5,-3.4 52.5,11.4 							"/>
						</g>
						<g>
							<polygon class="st49" points="48.4,4.5 48.4,-5.9 55.7,-9.8 55.7,0.6 							"/>
							<polygon class="st50" points="39.6,-10.5 48.4,-5.9 48.4,4.5 39.6,-0.1 							"/>
						</g>
						<g>
							<polygon class="st49" points="45.6,0.4 45.6,-26.1 82.9,-45.8 83,-45.8 83,-19.3 							"/>
							<polygon class="st50" points="23.4,-37.8 45.6,-26.1 45.6,0.4 23.4,-11.3 							"/>
						</g>
					</g>
				</g>
			</g>
		</g>
	</g>
</g>
<g id="_x32__x5F_3">
</g>
<g id="_x31__x5F_3">
</g>
</svg>
