<svg xmlns="http://www.w3.org/2000/svg" viewBox="0 0 68.31 61.05"><defs><style>.cls-1,.cls-10,.cls-11,.cls-12,.cls-13,.cls-14,.cls-15,.cls-2,.cls-3,.cls-4,.cls-5,.cls-6,.cls-7,.cls-8,.cls-9{fill-rule:evenodd;}.cls-1{opacity:0.1;}.cls-2{fill:#010109;}.cls-3{fill:#4c5051;}.cls-4{fill:#2b2f32;}.cls-5{fill:#b97d0f;}.cls-6{fill:#cc9c05;}.cls-7{fill:#ffcb04;}.cls-8{fill:#a36a0f;}.cls-9{fill:#eab306;}.cls-10{fill:#15739f;}.cls-11{fill:#0ba5e0;}.cls-12{fill:#0293d2;}.cls-13{fill:#9d0b0e;}.cls-14{fill:#ee3823;}.cls-15{fill:#c5161d;}</style></defs><title>battery</title><g id="Layer_2" data-name="Layer 2"><g id="Layer_3" data-name="Layer 3"><polygon class="cls-1" points="68.31 45.51 29.81 25.36 0 40.98 38.42 61.05 68.31 45.51"/><polygon class="cls-2" points="60.66 41.14 37.49 53.19 37.49 58.08 60.66 46.03 60.66 41.14"/><polygon class="cls-3" points="60.63 41.17 30.78 25.55 7.67 37.66 37.46 53.22 60.63 41.17"/><polygon class="cls-4" points="37.49 53.19 7.67 37.66 7.67 42.55 37.49 58.08 37.49 53.19"/><polygon class="cls-5" points="56.93 22.1 37.48 32.21 37.5 50.59 56.95 40.48 56.93 22.1"/><polygon class="cls-5" points="56.93 22.07 31.88 8.96 12.48 19.12 37.48 32.18 56.93 22.07"/><polygon class="cls-5" points="37.48 32.18 12.48 19.12 12.48 37.52 37.5 50.56 37.48 32.18"/><polygon class="cls-5" points="56.93 22.07 37.48 32.18 37.49 37.44 56.94 27.34 56.93 22.07"/><polygon class="cls-5" points="37.48 32.18 12.48 19.12 12.48 24.42 37.49 37.44 37.48 32.18"/><polygon class="cls-5" points="56.93 22.1 37.48 32.21 37.5 50.59 56.95 40.48 56.93 22.1"/><polygon class="cls-6" points="56.93 22.07 31.88 8.96 12.48 19.12 37.48 32.18 56.93 22.07"/><polygon class="cls-7" points="37.48 32.18 12.48 19.12 12.48 37.52 37.5 50.56 37.48 32.18"/><polygon class="cls-8" points="56.93 22.07 37.48 32.18 37.49 37.44 56.94 27.34 56.93 22.07"/><polygon class="cls-9" points="37.48 32.18 12.48 19.12 12.48 24.42 37.49 37.44 37.48 32.18"/><polygon class="cls-4" points="23.45 29.55 27.8 31.88 23.3 34.48 26.32 35.93 20.54 39.18 22.27 35.6 20.43 34.69 23.45 29.55"/><polygon class="cls-2" points="60.65 16.43 37.47 28.47 37.47 34.84 60.65 22.79 60.65 16.43"/><polygon class="cls-3" points="60.62 16.46 30.77 0.83 7.66 12.94 37.44 28.5 60.62 16.46"/><polygon class="cls-4" points="37.47 28.47 7.66 12.94 7.66 19.31 37.47 34.84 37.47 28.47"/><polygon class="cls-4" points="22.36 7.63 18.51 5.64 18.51 9.43 22.33 11.4 22.36 7.63"/><polygon class="cls-3" points="33.06 2.02 29.2 0 18.51 5.64 22.36 7.63 33.06 2.02"/><polygon class="cls-2" points="50.87 11.31 37.06 18.49 37.06 22.28 50.87 15.1 50.87 11.31"/><polygon class="cls-3" points="50.87 11.31 33.06 2.02 19.3 9.24 37.04 18.51 50.87 11.31"/><polygon class="cls-4" points="37.06 18.49 19.3 9.24 19.3 13.03 37.06 22.28 37.06 18.49"/><polygon class="cls-2" points="54.93 13.47 45.1 18.59 45.1 22.38 54.93 17.28 54.93 13.47"/><polygon class="cls-4" points="45.1 18.59 40.97 16.46 40.97 20.25 45.1 22.38 45.1 18.59"/><polygon class="cls-3" points="54.93 13.47 50.87 11.31 40.97 16.46 45.11 18.58 54.93 13.47"/><polygon class="cls-10" points="17.19 9.36 13.98 11.03 13.98 14.82 17.19 13.15 17.19 9.36"/><polygon class="cls-11" points="17.19 9.36 13.98 7.68 10.77 9.36 13.98 11.03 17.19 9.36"/><polygon class="cls-12" points="13.98 11.03 10.77 9.36 10.77 13.15 13.98 14.82 13.98 11.03"/><polygon class="cls-13" points="40.73 21.57 37.52 23.24 37.52 27.03 40.73 25.36 40.73 21.57"/><polygon class="cls-14" points="40.73 21.57 37.52 19.89 34.31 21.57 37.52 23.24 40.73 21.57"/><polygon class="cls-15" points="37.52 23.24 34.31 21.57 34.31 25.36 37.52 27.03 37.52 23.24"/></g></g></svg>