<svg xmlns="http://www.w3.org/2000/svg" viewBox="0 0 112.75 82.46"><defs><style>.cls-1{fill:#474747;}.cls-1,.cls-10,.cls-11,.cls-12,.cls-13,.cls-14,.cls-15,.cls-2,.cls-3,.cls-4,.cls-5,.cls-6,.cls-7,.cls-8,.cls-9{fill-rule:evenodd;}.cls-2{fill:#1a1a1a;}.cls-3{fill:#333;}.cls-4{fill:#fcee21;}.cls-5{fill:#ead721;}.cls-6{fill:#515151;}.cls-7{fill:#6f7070;}.cls-8{fill:#5e5e5e;}.cls-9{fill:#f4f2f0;}.cls-10{fill:#c1b5a4;}.cls-11{fill:#e3dcd7;}.cls-12{fill:#2b2b2b;}.cls-13{fill:#e6e6e6;opacity:0.8;}.cls-14{fill:#b3b3b3;opacity:0.8;}.cls-15{fill:#ccc;opacity:0.8;}</style></defs><title>bee_left</title><g id="Layer_2" data-name="Layer 2"><g id="Layer_6" data-name="Layer 6"><polygon class="cls-1" points="25.47 38.76 31.7 43.33 28.67 45.53 25.41 43.26 25.47 38.76"/><polygon class="cls-2" points="29.82 66.11 34.96 63.38 34.96 66.29 29.82 68.87 29.82 66.11"/><polygon class="cls-3" points="34.96 63.38 29.82 66.11 24.66 63.15 30.19 60.54 34.96 63.38"/><polygon class="cls-1" points="31.7 64.13 28.67 62.29 28.67 42.62 31.7 43.33 31.7 64.13"/><polygon class="cls-2" points="33.73 41.14 33.83 62.95 31.7 64.13 31.7 43.33 33.73 41.14"/><polygon class="cls-3" points="25.45 38.7 30.78 37.16 33.73 41.14 31.7 43.33 25.45 38.7"/><polygon class="cls-1" points="29.82 68.87 24.66 65.8 24.66 63.15 29.82 66.11 29.82 68.87"/><polygon class="cls-1" points="48.93 38.77 55.16 43.35 52.14 45.55 48.87 43.27 48.93 38.77"/><polygon class="cls-2" points="53.28 66.13 58.43 63.4 58.43 66.3 53.28 68.88 53.28 66.13"/><polygon class="cls-3" points="58.43 63.4 53.28 66.13 48.12 63.16 53.65 60.55 58.43 63.4"/><polygon class="cls-1" points="55.16 64.15 52.14 62.3 52.14 42.63 55.16 43.35 55.16 64.15"/><polygon class="cls-2" points="57.19 41.15 57.29 62.96 55.16 64.15 55.16 43.35 57.19 41.15"/><polygon class="cls-3" points="48.92 38.71 54.25 37.17 57.19 41.15 55.16 43.35 48.92 38.71"/><polygon class="cls-1" points="53.28 68.88 48.12 65.81 48.12 63.16 53.28 66.13 53.28 68.88"/><polygon class="cls-1" points="70.18 37.88 76.41 42.46 73.39 44.66 70.12 42.38 70.18 37.88"/><polygon class="cls-2" points="74.53 65.24 79.68 62.51 79.68 65.42 74.53 68 74.53 65.24"/><polygon class="cls-3" points="79.68 62.51 74.53 65.24 69.37 62.28 74.9 59.67 79.68 62.51"/><polygon class="cls-1" points="76.41 63.26 73.39 61.42 73.39 41.75 76.41 42.46 76.41 63.26"/><polygon class="cls-2" points="78.44 40.27 78.54 62.08 76.41 63.26 76.41 42.46 78.44 40.27"/><polygon class="cls-3" points="70.17 37.83 75.5 36.29 78.44 40.27 76.41 42.46 70.17 37.83"/><polygon class="cls-1" points="74.53 68 69.37 64.93 69.37 62.28 74.53 65.24 74.53 68"/><polygon class="cls-4" points="25 41.73 18.48 34.34 29.82 31.82 51.14 27.08 96.18 28.06 108.34 33.46 112.75 44.66 109.28 38.4 56.23 35.92 25 41.73"/><polygon class="cls-5" points="24.5 60.55 25 41.73 55.66 35.92 93.96 35.8 109.2 38.4 112.75 44.66 112.37 54.2 103.19 60.27 82.1 64.33 37.94 64.21 24.5 60.55"/><polygon class="cls-6" points="12.58 60.84 6.01 58.86 6.63 47.54 24.93 41.73 24.5 60.55 12.58 60.84"/><polygon class="cls-7" points="6.63 47.54 2.87 42.16 18.48 34.34 24.93 41.73 6.63 47.54"/><polygon class="cls-8" points="6.63 47.54 2.87 42.16 2.37 54.61 6.01 58.86 6.63 47.54"/><polygon class="cls-9" points="8.98 48.68 9.61 49.33 14.37 48.18 13.95 47.52 8.98 48.68"/><polygon class="cls-10" points="8.98 48.68 8.97 53.24 9.6 53.8 9.61 49.33 8.98 48.68"/><polygon class="cls-11" points="9.61 49.34 9.61 53.8 14.37 52.64 14.37 48.18 9.61 49.34"/><polygon class="cls-3" points="12.91 51.62 12.91 49.64 10.84 50.04 10.84 52.02 12.91 51.62"/><polygon class="cls-12" points="46.37 64.24 39.31 64.22 39.67 38.99 46.62 37.63 46.37 64.24"/><polygon class="cls-12" points="69.6 64.3 62.24 64.24 62.02 35.87 69.6 35.84 69.6 64.3"/><polygon class="cls-12" points="89.64 62.79 83.56 64.26 83.06 35.87 89.64 35.8 89.64 62.79"/><polygon class="cls-12" points="46.62 37.63 39.67 38.99 33.35 31.03 39.8 29.6 46.62 37.63"/><polygon class="cls-12" points="69.6 35.84 62.02 35.87 52.08 27.08 60.1 27.28 69.6 35.84"/><polygon class="cls-12" points="89.64 35.8 83.06 35.87 74.5 27.59 81.56 27.74 89.64 35.8"/><polygon class="cls-1" points="39.47 48.29 45.7 52.87 42.67 55.07 39.41 52.79 39.47 48.29"/><polygon class="cls-2" points="43.82 75.65 48.97 72.92 48.97 75.83 43.82 78.4 43.82 75.65"/><polygon class="cls-3" points="48.97 72.92 43.82 75.65 38.66 72.69 44.19 70.08 48.97 72.92"/><polygon class="cls-1" points="45.7 73.67 42.67 71.83 42.67 52.16 45.7 52.87 45.7 73.67"/><polygon class="cls-2" points="47.73 50.67 47.83 72.49 45.7 73.67 45.7 52.87 47.73 50.67"/><polygon class="cls-3" points="39.45 48.24 44.78 46.69 47.73 50.67 45.7 52.87 39.45 48.24"/><polygon class="cls-1" points="43.82 78.4 38.66 75.33 38.66 72.69 43.82 75.65 43.82 78.4"/><polygon class="cls-1" points="63.01 48.51 69.81 53.67 66.51 56.15 62.94 53.58 63.01 48.51"/><polygon class="cls-2" points="67.76 79.36 73.39 76.28 73.39 79.55 67.76 82.46 67.76 79.36"/><polygon class="cls-3" points="73.39 76.28 67.76 79.36 62.12 76.01 68.17 73.07 73.39 76.28"/><polygon class="cls-1" points="69.81 77.12 66.51 75.04 66.51 52.87 69.81 53.67 69.81 77.12"/><polygon class="cls-2" points="72.03 51.2 72.15 75.79 69.81 77.12 69.81 53.67 72.03 51.2"/><polygon class="cls-3" points="62.99 48.45 68.82 46.71 72.03 51.2 69.81 53.67 62.99 48.45"/><polygon class="cls-1" points="67.76 82.46 62.12 79 62.12 76.01 67.76 79.36 67.76 82.46"/><polygon class="cls-1" points="84.18 47.42 90.41 52 87.39 54.2 84.12 51.92 84.18 47.42"/><polygon class="cls-2" points="88.53 74.78 93.68 72.05 93.68 74.95 88.53 77.53 88.53 74.78"/><polygon class="cls-3" points="93.68 72.05 88.53 74.78 83.37 71.81 88.9 69.2 93.68 72.05"/><polygon class="cls-1" points="90.41 72.8 87.39 70.95 87.39 51.28 90.41 52 90.41 72.8"/><polygon class="cls-2" points="92.44 49.8 92.54 71.61 90.41 72.8 90.41 52 92.44 49.8"/><polygon class="cls-3" points="84.17 47.36 89.5 45.82 92.44 49.8 90.41 52 84.17 47.36"/><polygon class="cls-1" points="88.53 77.53 83.37 74.46 83.37 71.81 88.53 74.78 88.53 77.53"/><polygon class="cls-13" points="70.25 32.17 56.8 32.4 54.46 66.14 72.44 73.43 85.13 62.79 70.25 32.17"/><polygon class="cls-14" points="72.44 75.17 85.53 64.57 85.13 62.79 72.44 73.43 72.44 75.17"/><polygon class="cls-15" points="54.36 68 72.44 75.17 72.44 73.43 54.46 66.14 54.36 68"/><polygon class="cls-13" points="69.6 29.9 55.62 29.9 40.59 7.99 49.1 0 66.19 5.6 69.6 29.9"/><polygon class="cls-14" points="55.62 29.9 69.6 29.9 69.55 30.8 55.62 30.8 55.62 29.9"/><polygon class="cls-15" points="55.62 30.8 40.59 9.38 40.59 7.99 55.62 29.9 55.62 30.8"/><polygon class="cls-8" points="0 26.27 5.15 43.02 6.46 42.56 0 26.27"/><polygon class="cls-3" points="0 26.27 5.15 43.02 4.53 41.97 0 26.27"/><polygon class="cls-3" points="13.52 33.35 7.31 46.38 8.81 45.68 13.52 33.35"/><polygon class="cls-8" points="13.52 33.35 7.31 46.38 6.63 45.49 13.52 33.35"/></g></g></svg>