<svg xmlns="http://www.w3.org/2000/svg" viewBox="0 0 112.75 82.46"><defs><style>.cls-1{fill:#474747;}.cls-1,.cls-10,.cls-11,.cls-12,.cls-13,.cls-14,.cls-15,.cls-2,.cls-3,.cls-4,.cls-5,.cls-6,.cls-7,.cls-8,.cls-9{fill-rule:evenodd;}.cls-2{fill:#1a1a1a;}.cls-3{fill:#333;}.cls-4{fill:#fcee21;}.cls-5{fill:#ead721;}.cls-6{fill:#515151;}.cls-7{fill:#6f7070;}.cls-8{fill:#5e5e5e;}.cls-9{fill:#f4f2f0;}.cls-10{fill:#c1b5a4;}.cls-11{fill:#e3dcd7;}.cls-12{fill:#2b2b2b;}.cls-13{fill:#e6e6e6;opacity:0.8;}.cls-14{fill:#b3b3b3;opacity:0.8;}.cls-15{fill:#ccc;opacity:0.8;}</style></defs><title>bee_right</title><g id="Layer_2" data-name="Layer 2"><g id="Layer_7" data-name="Layer 7"><polygon class="cls-1" points="87.28 38.76 81.05 43.33 84.08 45.53 87.34 43.26 87.28 38.76"/><polygon class="cls-2" points="82.93 66.11 77.78 63.38 77.78 66.29 82.93 68.87 82.93 66.11"/><polygon class="cls-3" points="77.78 63.38 82.93 66.11 88.09 63.15 82.56 60.54 77.78 63.38"/><polygon class="cls-1" points="81.05 64.13 84.08 62.29 84.08 42.62 81.05 43.33 81.05 64.13"/><polygon class="cls-2" points="79.02 41.14 78.92 62.95 81.05 64.13 81.05 43.33 79.02 41.14"/><polygon class="cls-3" points="87.3 38.7 81.97 37.16 79.02 41.14 81.05 43.33 87.3 38.7"/><polygon class="cls-1" points="82.93 68.87 88.09 65.8 88.09 63.15 82.93 66.11 82.93 68.87"/><polygon class="cls-1" points="63.82 38.77 57.59 43.35 60.61 45.55 63.88 43.27 63.82 38.77"/><polygon class="cls-2" points="59.47 66.13 54.32 63.4 54.32 66.3 59.47 68.88 59.47 66.13"/><polygon class="cls-3" points="54.32 63.4 59.47 66.13 64.63 63.16 59.1 60.55 54.32 63.4"/><polygon class="cls-1" points="57.59 64.15 60.61 62.3 60.61 42.63 57.59 43.35 57.59 64.15"/><polygon class="cls-2" points="55.56 41.15 55.46 62.96 57.59 64.15 57.59 43.35 55.56 41.15"/><polygon class="cls-3" points="63.83 38.71 58.5 37.17 55.56 41.15 57.59 43.35 63.83 38.71"/><polygon class="cls-1" points="59.47 68.88 64.63 65.81 64.63 63.16 59.47 66.13 59.47 68.88"/><polygon class="cls-1" points="42.57 37.88 36.34 42.46 39.36 44.66 42.63 42.38 42.57 37.88"/><polygon class="cls-2" points="38.22 65.24 33.07 62.51 33.07 65.42 38.22 68 38.22 65.24"/><polygon class="cls-3" points="33.07 62.51 38.22 65.24 43.38 62.28 37.85 59.67 33.07 62.51"/><polygon class="cls-1" points="36.34 63.26 39.36 61.42 39.36 41.75 36.34 42.46 36.34 63.26"/><polygon class="cls-2" points="34.31 40.27 34.21 62.08 36.34 63.26 36.34 42.46 34.31 40.27"/><polygon class="cls-3" points="42.58 37.83 37.25 36.29 34.31 40.27 36.34 42.46 42.58 37.83"/><polygon class="cls-1" points="38.22 68 43.38 64.93 43.38 62.28 38.22 65.24 38.22 68"/><polygon class="cls-4" points="87.75 41.73 94.27 34.34 82.93 31.82 61.61 27.08 16.57 28.06 4.4 33.46 0 44.66 3.47 38.4 56.52 35.92 87.75 41.73"/><polygon class="cls-5" points="88.25 60.55 87.75 41.73 57.09 35.92 18.79 35.8 3.55 38.4 0 44.66 0.38 54.2 9.56 60.27 30.64 64.33 74.81 64.21 88.25 60.55"/><polygon class="cls-6" points="100.17 60.84 106.74 58.86 106.12 47.54 87.82 41.73 88.25 60.55 100.17 60.84"/><polygon class="cls-7" points="106.12 47.54 109.88 42.16 94.27 34.34 87.82 41.73 106.12 47.54"/><polygon class="cls-8" points="106.12 47.54 109.88 42.16 110.38 54.61 106.74 58.86 106.12 47.54"/><polygon class="cls-9" points="103.77 48.68 103.14 49.33 98.38 48.18 98.8 47.52 103.77 48.68"/><polygon class="cls-10" points="103.77 48.68 103.77 53.24 103.14 53.8 103.14 49.33 103.77 48.68"/><polygon class="cls-11" points="103.14 49.34 103.14 53.8 98.38 52.64 98.38 48.18 103.14 49.34"/><polygon class="cls-3" points="99.84 51.62 99.84 49.64 101.91 50.04 101.91 52.02 99.84 51.62"/><polygon class="cls-12" points="66.38 64.24 73.44 64.22 73.08 38.99 66.13 37.63 66.38 64.24"/><polygon class="cls-12" points="43.15 64.3 50.51 64.24 50.73 35.87 43.15 35.84 43.15 64.3"/><polygon class="cls-12" points="23.11 62.79 29.19 64.26 29.69 35.87 23.11 35.8 23.11 62.79"/><polygon class="cls-12" points="66.13 37.63 73.08 38.99 79.4 31.03 72.95 29.6 66.13 37.63"/><polygon class="cls-12" points="43.15 35.84 50.73 35.87 60.67 27.08 52.65 27.28 43.15 35.84"/><polygon class="cls-12" points="23.11 35.8 29.69 35.87 38.25 27.59 31.19 27.74 23.11 35.8"/><polygon class="cls-1" points="73.28 48.29 67.05 52.87 70.08 55.07 73.34 52.79 73.28 48.29"/><polygon class="cls-2" points="68.93 75.65 63.78 72.92 63.78 75.83 68.93 78.4 68.93 75.65"/><polygon class="cls-3" points="63.78 72.92 68.93 75.65 74.09 72.69 68.56 70.08 63.78 72.92"/><polygon class="cls-1" points="67.05 73.67 70.07 71.83 70.07 52.16 67.05 52.87 67.05 73.67"/><polygon class="cls-2" points="65.02 50.67 64.92 72.49 67.05 73.67 67.05 52.87 65.02 50.67"/><polygon class="cls-3" points="73.29 48.24 67.96 46.69 65.02 50.67 67.05 52.87 73.29 48.24"/><polygon class="cls-1" points="68.93 78.4 74.09 75.33 74.09 72.69 68.93 75.65 68.93 78.4"/><polygon class="cls-1" points="49.74 48.51 42.93 53.67 46.24 56.15 49.81 53.58 49.74 48.51"/><polygon class="cls-2" points="44.98 79.36 39.36 76.28 39.36 79.55 44.98 82.46 44.98 79.36"/><polygon class="cls-3" points="39.36 76.28 44.98 79.36 50.63 76.01 44.58 73.07 39.36 76.28"/><polygon class="cls-1" points="42.93 77.12 46.24 75.04 46.24 52.87 42.93 53.67 42.93 77.12"/><polygon class="cls-2" points="40.72 51.2 40.6 75.79 42.93 77.12 42.93 53.67 40.72 51.2"/><polygon class="cls-3" points="49.76 48.45 43.93 46.71 40.72 51.2 42.93 53.67 49.76 48.45"/><polygon class="cls-1" points="44.98 82.46 50.63 79 50.63 76.01 44.98 79.36 44.98 82.46"/><polygon class="cls-1" points="28.57 47.42 22.34 52 25.36 54.2 28.63 51.92 28.57 47.42"/><polygon class="cls-2" points="24.21 74.78 19.07 72.05 19.07 74.95 24.21 77.53 24.21 74.78"/><polygon class="cls-3" points="19.07 72.05 24.21 74.78 29.38 71.81 23.85 69.2 19.07 72.05"/><polygon class="cls-1" points="22.34 72.8 25.36 70.95 25.36 51.28 22.34 52 22.34 72.8"/><polygon class="cls-2" points="20.31 49.8 20.2 71.61 22.34 72.8 22.34 52 20.31 49.8"/><polygon class="cls-3" points="28.58 47.36 23.25 45.82 20.31 49.8 22.34 52 28.58 47.36"/><polygon class="cls-1" points="24.21 77.53 29.38 74.46 29.38 71.81 24.21 74.78 24.21 77.53"/><polygon class="cls-13" points="42.5 32.17 55.95 32.4 58.29 66.14 40.31 73.43 27.62 62.79 42.5 32.17"/><polygon class="cls-14" points="40.31 75.17 27.22 64.57 27.62 62.79 40.31 73.43 40.31 75.17"/><polygon class="cls-15" points="58.39 68 40.31 75.17 40.31 73.43 58.29 66.14 58.39 68"/><polygon class="cls-13" points="43.15 29.9 57.13 29.9 72.16 7.99 63.65 0 46.56 5.6 43.15 29.9"/><polygon class="cls-14" points="57.13 29.9 43.15 29.9 43.2 30.8 57.13 30.8 57.13 29.9"/><polygon class="cls-15" points="57.13 30.8 72.16 9.38 72.16 7.99 57.13 29.9 57.13 30.8"/><polygon class="cls-8" points="112.75 26.27 107.59 43.02 106.29 42.56 112.75 26.27"/><polygon class="cls-3" points="112.75 26.27 107.59 43.02 108.22 41.97 112.75 26.27"/><polygon class="cls-3" points="99.23 33.35 105.44 46.38 103.94 45.68 99.23 33.35"/><polygon class="cls-8" points="99.23 33.35 105.44 46.38 106.12 45.49 99.23 33.35"/></g></g></svg>