<svg xmlns="http://www.w3.org/2000/svg" viewBox="0 0 75.65 44.57"><defs><style>.cls-1,.cls-2{fill:#965d0c;}.cls-2,.cls-3,.cls-4,.cls-5,.cls-6,.cls-7,.cls-8,.cls-9{fill-rule:evenodd;}.cls-3{fill:#b28242;}.cls-4{fill:#dfaa5c;}.cls-5{fill:#f1cb84;}.cls-6{fill:#cc9e55;}.cls-7{fill:#d2a562;}.cls-8{fill:#c6984d;}.cls-9{fill:#b97125;}.cls-10{fill:#a2631e;}.cls-11{fill:#c59549;}</style></defs><title>paleta</title><g id="Layer_2" data-name="Layer 2"><g id="Layer_3" data-name="Layer 3"><polygon class="cls-1" points="41.29 43.2 0.63 21.95 34.96 4.58 75.59 26.05 41.29 43.2"/><polygon class="cls-2" points="65.74 17.33 43.6 5.79 43.6 4.58 66.97 16.72 65.74 17.33"/><polygon class="cls-3" points="43.6 4.58 9.3 21.68 9.3 22.75 43.6 5.79 43.6 4.58"/><polygon class="cls-4" points="43.6 4.58 34.93 0 0.63 17.17 9.25 21.69 43.6 4.58"/><polygon class="cls-3" points="54.2 10.11 19.84 27.22 19.84 28.35 54.2 11.32 54.2 10.11"/><polygon class="cls-4" points="54.2 10.11 45.53 5.53 11.22 22.7 19.84 27.22 54.2 10.11"/><polygon class="cls-3" points="64.91 15.69 30.55 32.8 30.55 33.86 64.91 16.9 64.91 15.69"/><polygon class="cls-4" points="64.91 15.69 56.23 11.11 21.91 28.29 30.55 32.8 64.91 15.69"/><polygon class="cls-3" points="75.59 21.31 40.67 38.72 40.67 39.79 75.59 22.52 75.59 21.31"/><polygon class="cls-4" points="75.65 21.3 66.97 16.72 32.65 33.9 41.29 38.41 75.65 21.3"/><polygon class="cls-5" points="40.67 38.72 0 17.48 0 18.69 40.67 39.79 40.67 38.72"/><polygon class="cls-6" points="40.67 38.72 0 17.48 0.63 17.17 41.29 38.41 40.67 38.72"/><polygon class="cls-5" points="40.67 43.51 0 22.26 0 23.48 40.67 44.58 40.67 43.51"/><polygon class="cls-7" points="40.67 43.51 0 22.26 0.63 21.95 41.29 43.2 40.67 43.51"/><polygon class="cls-8" points="5.76 24.64 1.27 22.29 1.27 19.35 5.76 21.69 5.76 24.64"/><polygon class="cls-9" points="6.16 24.84 5.76 24.64 5.76 21.69 6.16 21.9 6.16 24.84"/><polygon class="cls-8" points="23.04 33.66 18.22 31.14 18.22 28.15 23.04 30.65 23.04 33.66"/><polygon class="cls-9" points="23.44 33.87 23.04 33.66 23.04 30.65 23.44 30.86 23.44 33.87"/><polygon class="cls-8" points="39.82 42.43 36.01 40.44 36.01 37.38 39.82 39.35 39.82 42.43"/><polygon class="cls-9" points="40.22 42.64 39.82 42.43 39.82 39.35 40.22 39.56 40.22 42.64"/><polygon class="cls-10" points="74.69 25.57 72.14 24.23 74.33 23.15 74.69 22.97 74.69 25.57"/><polygon class="cls-11" points="75.59 27.11 40.67 44.58 40.67 43.51 75.59 26.05 75.59 27.11"/></g></g></svg>