<svg xmlns="http://www.w3.org/2000/svg" viewBox="0 0 78.78 86.83"><defs><style>.cls-1{opacity:0.1;}.cls-2,.cls-7{fill:none;}.cls-3{fill:#bababa;}.cls-4{fill:#a5a5a5;}.cls-5{fill:#8d8d8d;}.cls-6{fill:#c9c9c9;}.cls-7{stroke:#c9c9c9;stroke-linecap:round;stroke-linejoin:round;stroke-width:0;}</style></defs><title>cog</title><g id="Layer_2" data-name="Layer 2"><g id="Layer_3" data-name="Layer 3"><polygon class="cls-1" points="78.78 76.46 17.58 38.02 0 48.06 62.1 86.83 78.78 76.46"/><path class="cls-2" d="M41.77,49.11a15.08,15.08,0,0,0,5,1.89,14.88,14.88,0,0,0,.84-5.12c0-9.35-6.55-20.73-14.68-25.42a14.69,14.69,0,0,0-5-1.89,15,15,0,0,0-.84,5.11C27.06,33,33.63,44.41,41.77,49.11Z"/><polygon class="cls-3" points="57.63 47.75 57.72 48.37 58.02 50.58 63.64 47.31 66.95 45.39 65.85 37.4 56.91 42.59 57.63 47.75"/><polygon class="cls-3" points="52.82 66.48 61.75 61.29 65.01 56.71 56.08 61.9 52.82 66.48"/><path class="cls-4" d="M55.52,49.64l-.7.41v.12a21.14,21.14,0,0,1-1.55,8.25l8.94-5.2a19.49,19.49,0,0,0,1.43-5.91L58,50.58Z"/><polygon class="cls-5" points="53.27 58.42 54.74 60.24 54.85 60.38 56.08 61.9 65.01 56.71 62.21 53.22 53.27 58.42"/><polygon class="cls-5" points="56.91 42.59 65.85 37.4 62.65 36.2 53.72 41.4 56.91 42.59"/><path class="cls-4" d="M53.72,41.4l8.93-5.2A49.57,49.57,0,0,0,58.29,25l-8.93,5.19A49.46,49.46,0,0,1,53.72,41.4Z"/><polygon class="cls-3" points="46.71 21.16 51.46 28.5 60.39 23.31 55.44 15.65 53.11 17.01 46.5 20.85 46.71 21.16"/><path class="cls-4" d="M44.41,22.5l2.09-1.65L53.11,17a43.43,43.43,0,0,0-8-7.89l-8.94,5.19A43.93,43.93,0,0,1,44.41,22.5Z"/><path class="cls-6" d="M54.85,60.38l-.11-.14-1.47-1.82a21.14,21.14,0,0,0,1.55-8.25v-.12l.7-.41,2.5.94-.31-2.21-.08-.62-.71-5.16-3.2-1.19a49.46,49.46,0,0,0-4.36-11.25l2.1-1.65-4.75-7.34-.21-.31L44.41,22.5a43.93,43.93,0,0,0-8.22-8.19V10.58L32.93,8.69,29.72,6.84v3.72a16.52,16.52,0,0,0-8.24-1.31L19.39,5.19l-5,1.92,1.8,3.51.28.56a12.59,12.59,0,0,0-4.41,6.18L8.89,14.87,7.75,21.56l3.19,2.49c0,.22,0,.44,0,.66a35.94,35.94,0,0,0,1.18,8.92c.1.4.21.8.32,1.2l-2.81.25,3.22,8.32,2.82-.24A52.6,52.6,0,0,0,22.35,53.5l-1.12,2.86,6.08,6.06,1.12-2.86c.54.44,1.09.86,1.64,1.26a30.31,30.31,0,0,0,2.74,1.77,25,25,0,0,0,4.38,2l1.1,4.14,6.09,1-1.09-4.14a11.17,11.17,0,0,0,5.17-1.49l.09-.06,1.58-.91,1.79,2.23.9,1.12,3.26-4.58ZM43.11,55.44l-.18.09a6.31,6.31,0,0,1-.75.33l-.21.07-.19.06-.2.06a7.63,7.63,0,0,1-.83.17l-.26,0-.16,0h-.19l-.19,0h-.51a10.91,10.91,0,0,1-2.7-.36,13.38,13.38,0,0,1-1.36-.44,16.34,16.34,0,0,1-2.55-1.22C25.42,50,19.31,40.21,18.3,31.43c-.05-.45-.09-.89-.12-1.33s0-.82,0-1.22v-.36c0-.09,0-.17,0-.26l0-.59c0-.08,0-.15,0-.23a.49.49,0,0,1,0-.12c0-.07,0-.15,0-.23s0-.38.07-.56a2.7,2.7,0,0,1,0-.28l.09-.53c0-.08,0-.16,0-.24s.05-.21.07-.32l.12-.45c.07-.25.15-.49.23-.73,0-.07.05-.13.07-.19a1.46,1.46,0,0,1,.07-.19l.12-.3.21-.46.09-.18a8.1,8.1,0,0,1,1.46-2l.12-.12a2.39,2.39,0,0,1,.23-.22l.18-.16a6.9,6.9,0,0,1,1-.7,8.12,8.12,0,0,1,5.46-.85,14.69,14.69,0,0,1,5,1.89c8.13,4.69,14.7,16.07,14.68,25.42A14.88,14.88,0,0,1,46.77,51a8.16,8.16,0,0,1-3.46,4.33Zm5.72,8.43c.12-.08.24-.15.35-.24C49.07,63.72,49,63.79,48.83,63.87Zm.43-.29.21-.16Z"/><polygon class="cls-5" points="49.36 30.15 58.29 24.96 60.39 23.31 51.46 28.5 49.36 30.15"/><path class="cls-7" d="M49.26,63.58l.21-.16"/><path class="cls-7" d="M48.83,63.87c.12-.08.24-.15.35-.24"/><path class="cls-5" d="M48.55,64l-.09.06a11.17,11.17,0,0,1-5.17,1.49l1.09,4.14,7.54-4.37-1.79-2.23Z"/><polygon class="cls-5" points="36.19 14.31 45.13 9.12 45.14 5.39 36.2 10.58 36.19 14.31"/><path class="cls-4" d="M46.77,51a15.08,15.08,0,0,1-5-1.89C33.63,44.41,27.06,33,27.08,23.68a15,15,0,0,1,.84-5.11,8.12,8.12,0,0,0-5.46.85,6.9,6.9,0,0,0-1,.7l-.18.16a2.39,2.39,0,0,0-.23.22l-.12.12a8.1,8.1,0,0,0-1.46,2l-.09.18-.21.46-.12.3a1.46,1.46,0,0,0-.07.19c0,.06-.05.12-.07.19-.08.24-.16.48-.23.73l-.12.45c0,.11,0,.21-.07.32s0,.16,0,.24l-.09.53a2.7,2.7,0,0,0,0,.28c0,.18,0,.37-.07.56s0,.16,0,.23a.49.49,0,0,0,0,.12c0,.08,0,.15,0,.23l0,.59c0,.09,0,.17,0,.26v.36c0,.4,0,.81,0,1.22s.07.88.12,1.33c1,8.78,7.12,18.6,14.53,22.87a16.34,16.34,0,0,0,2.55,1.22,13.38,13.38,0,0,0,1.36.44,10.91,10.91,0,0,0,2.7.36H40l.19,0h.19l.16,0,.26,0a7.63,7.63,0,0,0,.83-.17l.2-.06.19-.06.21-.07a6.31,6.31,0,0,0,.75-.33l.18-.09.2-.11A8.16,8.16,0,0,0,46.77,51Z"/><path class="cls-7" d="M42.93,55.53l.18-.09"/><path class="cls-7" d="M41.78,56l-.2.06"/><path class="cls-7" d="M40.14,56.29h.19"/><polygon class="cls-3" points="32.93 8.69 36.2 10.58 45.14 5.39 38.65 1.64 34.35 4.14 29.72 6.84 32.93 8.69"/><polygon class="cls-5" points="21.47 9.25 30.4 4.06 28.33 0 19.39 5.19 21.47 9.25"/><path class="cls-5" d="M27.31,62.42l2.76-1.6c-.55-.4-1.1-.82-1.64-1.26Z"/><path class="cls-4" d="M29.71,10.56V6.84l4.63-2.69a14.25,14.25,0,0,0-4-.09L21.47,9.25A16.52,16.52,0,0,1,29.71,10.56Z"/><path class="cls-7" d="M19.38,22.84l.09-.18"/><polygon class="cls-3" points="28.33 0 23.35 1.92 14.41 7.11 19.39 5.19 28.33 0"/><path class="cls-7" d="M18.91,24c0-.07.05-.13.07-.19"/><path class="cls-7" d="M18.56,25.16l.12-.45"/><path class="cls-7" d="M18.49,25.48c0,.08,0,.16,0,.24"/><path class="cls-7" d="M18.35,26.25a2.7,2.7,0,0,0,0,.28"/><path class="cls-7" d="M18.24,27.09c0,.08,0,.16,0,.23"/><path class="cls-7" d="M18.21,27.44c0,.08,0,.15,0,.23"/><path class="cls-7" d="M18.16,28.26l0-.59"/><path class="cls-7" d="M18.15,28.52c0-.09,0-.17,0-.26"/><path class="cls-5" d="M16.49,11.18l-.28-.56L8.89,14.87l3.19,2.49A12.59,12.59,0,0,1,16.49,11.18Z"/><path class="cls-5" d="M12.11,33.63,9.62,35.08l2.81-.25C12.32,34.43,12.21,34,12.11,33.63Z"/></g></g></svg>