<svg xmlns="http://www.w3.org/2000/svg" viewBox="0 0 624.04 763.99"><defs><style>.cls-1,.cls-2,.cls-3,.cls-4,.cls-5,.cls-6,.cls-7,.cls-8,.cls-9{fill-rule:evenodd;}.cls-1{opacity:0.1;}.cls-2{fill:#97bdc9;}.cls-3{fill:#b3d1d9;}.cls-4{fill:#70a5b4;}.cls-5{fill:#5d9cae;}.cls-6{fill:#015976;}.cls-7{fill:#167892;}.cls-8{fill:#d3145a;stroke:#9d005d;stroke-miterlimit:10;stroke-width:30px;opacity:0.95;}.cls-9{fill:#8db8c3;}</style></defs><title>gate</title><g id="Layer_2" data-name="Layer 2"><g id="Layer_3" data-name="Layer 3"><polygon class="cls-1" points="466.7 763.99 0 496.69 153.63 413.13 624.04 680.42 466.7 763.99"/><polygon class="cls-2" points="43.97 465.33 143.56 516.95 143.56 549.26 43.97 496.64 43.97 465.33"/><polygon class="cls-3" points="43.97 465.2 143.63 413.13 243.03 465.2 143.63 517.01 43.97 465.2"/><polygon class="cls-4" points="143.56 516.95 243.03 465.2 243.03 497.42 143.56 549.26 143.56 516.95"/><polygon class="cls-5" points="75.14 379.23 140.92 415.94 140.92 499.23 75.14 462.52 75.14 379.23"/><polygon class="cls-6" points="75.14 379.23 140.92 342.34 206.53 379.23 140.92 415.94 75.14 379.23"/><polygon class="cls-7" points="140.92 415.94 206.53 379.23 206.53 462.52 140.92 499.23 140.92 415.94"/><polygon class="cls-5" points="75.14 287.37 140.92 324.07 140.92 407.36 75.14 370.65 75.14 287.37"/><polygon class="cls-6" points="75.14 287.37 140.92 250.47 206.53 287.37 140.92 324.07 75.14 287.37"/><polygon class="cls-7" points="140.92 324.07 206.53 287.37 206.53 370.65 140.92 407.36 140.92 324.07"/><polygon class="cls-5" points="75.14 194.91 140.92 231.62 140.92 314.91 75.14 278.2 75.14 194.91"/><polygon class="cls-6" points="75.14 194.91 140.92 158.02 206.53 194.91 140.92 231.62 75.14 194.91"/><polygon class="cls-7" points="140.92 231.62 206.53 194.91 206.53 278.2 140.92 314.91 140.92 231.62"/><polygon class="cls-5" points="78.19 129.14 143.33 190.35 140.83 226.12 76.17 188.27 78.19 129.14"/><polygon class="cls-6" points="78.19 129.14 150.69 90.97 208.22 158.69 143.33 190.35 78.19 129.14"/><polygon class="cls-7" points="143.33 190.35 208.22 158.69 206.53 189.02 140.83 226.12 143.33 190.35"/><polygon class="cls-5" points="126.76 78.12 162.33 158.02 143.33 186.19 80.33 125.35 126.76 78.12"/><polygon class="cls-7" points="162.33 158.02 215.78 138.59 215.78 150.09 143.33 186.19 162.33 158.02"/><polygon class="cls-6" points="126.76 78.12 172.03 50.74 215.78 138.59 162.33 158.02 126.76 78.12"/><polygon class="cls-5" points="167.17 158.69 131.33 73.02 202 47.69 215.78 150.09 167.17 158.69"/><polygon class="cls-7" points="131.33 73.02 198.6 36.71 259.42 30.16 202 47.69 131.33 73.02"/><path class="cls-8" d="M361.48,396c-7.42,14.41-8.61,27.15.24,39.77-12.33,11.84-14.62,23.56-4.47,36-14.82,10.35-18.95,19.75-12.56,33.41-15.09,3.45-19.66,11.15-18.56,25.18-16.05,5-27.65,12.29-39.72,19-12.69-6.66-24.29-13.94-40-17.85.79-15.13-3.79-22.83-19.5-25.14,6.89-14.62,2.64-23.84-13.85-33.82,12.07-13.13,9.77-24.85-4.81-36.85,11.12-12.48,9.95-25.23,1.31-40.14,9.31-12.59,10.14-25.63,1.86-36.55,10.14-13,11.16-24,2.61-34.89,14.38-10.73,19.2-21.49,17.39-36.08,8.87-4.88,11.11-13.61,10.33-23.81,20.4-6.79,32-14.07,44.18-23.34,12.58,9.27,24.18,16.55,44.46,23.15-.72,10.33,1.55,19.08,10.5,23.9-1.82,14.74,3,25.55,17.63,36.37-8.75,10.85-7.78,21.71,1.85,35.33C352.53,369.83,353.36,382.87,361.48,396Z"/><polygon class="cls-6" points="350.93 107.11 443.5 68.16 415.42 189.23 326.87 226.12 350.93 107.11"/><polygon class="cls-4" points="210.5 172.32 192.51 37.81 350.93 107.11 326.87 226.12 210.5 172.32"/><polygon class="cls-9" points="192.51 37.81 275.72 0 443.5 68.16 350.93 107.11 192.51 37.81"/><polygon class="cls-2" points="367.75 652.02 467.34 703.64 467.34 735.95 367.75 683.33 367.75 652.02"/><polygon class="cls-3" points="367.75 651.89 467.41 599.82 566.81 651.89 467.41 703.7 367.75 651.89"/><polygon class="cls-4" points="467.34 703.64 566.81 651.89 566.81 684.11 467.34 735.95 467.34 703.64"/><polygon class="cls-5" points="394.17 566.51 464.79 603.22 464.79 686.51 394.17 649.8 394.17 566.51"/><polygon class="cls-6" points="394.17 566.51 464.79 529.62 535.23 566.51 464.79 603.22 394.17 566.51"/><polygon class="cls-7" points="464.79 603.22 535.23 566.51 535.23 649.8 464.79 686.51 464.79 603.22"/><polygon class="cls-5" points="394.17 474.65 464.79 511.36 464.79 594.64 394.17 557.94 394.17 474.65"/><polygon class="cls-6" points="394.17 474.65 464.79 437.75 535.23 474.65 464.79 511.36 394.17 474.65"/><polygon class="cls-7" points="464.79 511.36 535.23 474.65 535.23 557.94 464.79 594.64 464.79 511.36"/><polygon class="cls-5" points="394.17 380.7 464.79 417.4 464.79 500.69 394.17 463.99 394.17 380.7"/><polygon class="cls-6" points="394.17 380.7 464.79 343.8 535.23 380.7 464.79 417.4 394.17 380.7"/><polygon class="cls-7" points="464.79 417.4 535.23 380.7 535.23 463.99 464.79 500.69 464.79 417.4"/><polygon class="cls-5" points="387.23 304.17 450.31 305.5 464.79 408.3 394.17 371.6 387.23 304.17"/><polygon class="cls-6" points="387.23 304.17 458.36 261.79 519.59 265.79 450.31 305.5 387.23 304.17"/><polygon class="cls-7" points="450.31 305.5 519.59 265.79 535.23 371.6 464.79 408.3 450.31 305.5"/><polygon class="cls-5" points="336.82 213.49 353.78 124.02 409.25 183.49 368.74 246.82 336.82 213.49"/><polygon class="cls-7" points="353.78 124.02 448.83 83.19 482.84 150.16 409.25 183.49 353.78 124.02"/><polygon class="cls-6" points="409.25 183.49 482.84 150.16 482.84 187.82 368.74 246.82 409.25 183.49"/><polygon class="cls-5" points="372.2 255.22 415.42 189.23 446.3 297.05 388.05 297.05 372.2 255.22"/><polygon class="cls-7" points="415.42 189.23 486.88 155.96 516.65 260.02 446.3 297.05 415.42 189.23"/></g></g></svg>