<svg xmlns="http://www.w3.org/2000/svg" viewBox="0 0 52.99 88.02"><defs><style>.cls-1{opacity:0.1;}.cls-2{fill:#242737;}.cls-10,.cls-11,.cls-12,.cls-13,.cls-2,.cls-3,.cls-4,.cls-5,.cls-6,.cls-7,.cls-9{fill-rule:evenodd;}.cls-3{fill:#2e3756;}.cls-4{fill:#283049;}.cls-5{fill:#beb5af;}.cls-6{fill:#ddd8d5;}.cls-7{fill:#ece9e8;}.cls-8{opacity:0.7;}.cls-9{fill:#c4be45;}.cls-10{fill:#e5cc51;}.cls-11{fill:#dbcd4d;}.cls-12{fill:#ffef5a;}.cls-13{fill:#e5d353;}</style></defs><title>lightbulb</title><g id="Layer_2" data-name="Layer 2"><g id="Layer_3" data-name="Layer 3"><polygon class="cls-1" points="52.99 74.25 26.06 60.23 0 73.61 26.18 88.02 52.99 74.25"/><polygon class="cls-2" points="41.04 55.85 26.04 63.65 26.04 81.34 41.04 73.55 41.04 55.85"/><polygon class="cls-3" points="41.04 55.85 26.04 48.01 11.07 55.85 26.04 63.65 41.04 55.85"/><polygon class="cls-4" points="26.04 63.65 11.07 55.85 11.07 73.55 26.04 81.34 26.04 63.65"/><polygon class="cls-5" points="18.06 25 16.67 25.72 22.2 55.3 23.59 54.58 18.06 25"/><polygon class="cls-6" points="16.67 25.72 15.29 25 20.82 54.58 22.2 55.3 16.67 25.72"/><polygon class="cls-5" points="22.22 23.72 20.83 22.99 20.82 29.54 22.21 28.82 22.22 23.72"/><polygon class="cls-6" points="20.83 21.36 19.45 20.64 19.43 28.82 20.82 29.54 20.83 21.36"/><polygon class="cls-5" points="25 28.66 23.61 29.38 23.61 32.66 25 31.93 25 28.66"/><polygon class="cls-7" points="25 28.66 23.61 27.93 22.22 28.66 23.61 29.38 25 28.66"/><polygon class="cls-6" points="23.61 29.38 22.22 28.66 22.22 30.3 23.61 31.02 23.61 29.38"/><polygon class="cls-5" points="29.14 27.34 27.75 26.62 27.75 36.46 29.14 35.73 29.14 27.34"/><polygon class="cls-5" points="25 31.93 23.61 32.66 23.61 34.3 25 33.57 25 31.93"/><polygon class="cls-6" points="23.61 32.66 22.22 31.93 22.22 33.57 23.61 34.3 23.61 32.66"/><polygon class="cls-6" points="23.61 24.45 22.22 23.72 22.22 33.57 23.61 34.3 23.61 24.45"/><polygon class="cls-6" points="27.75 34.82 23.61 32.66 23.61 34.3 27.75 36.45 27.75 34.82"/><polygon class="cls-7" points="25 22.09 20.83 19.91 19.45 20.64 23.61 22.81 25 22.09"/><polygon class="cls-6" points="23.61 22.81 19.45 20.64 19.45 22.28 23.61 24.45 23.61 22.81"/><polygon class="cls-5" points="25 22.09 23.61 22.81 23.61 29.38 25 28.66 25 22.09"/><polygon class="cls-7" points="26.38 32.66 25 31.93 23.61 32.66 26.36 34.09 26.38 32.66"/><polygon class="cls-7" points="31.92 25.7 27.75 23.52 26.36 24.25 30.53 26.42 31.92 25.7"/><polygon class="cls-6" points="27.75 24.97 26.36 24.25 26.36 34.09 27.75 34.82 27.75 24.97"/><polygon class="cls-5" points="31.92 25.7 30.53 26.42 30.53 32.98 31.92 32.25 31.92 25.7"/><polygon class="cls-6" points="30.53 26.42 27.75 24.97 27.75 26.62 30.53 28.06 30.53 26.42"/><polygon class="cls-6" points="30.53 28.06 29.14 27.34 29.14 32.25 30.53 32.98 30.53 28.06"/><polygon class="cls-7" points="19.45 25.73 16.67 24.28 15.29 25 19.44 27.17 19.45 25.73"/><polygon class="cls-6" points="20.82 27.9 16.67 25.73 16.67 27.37 20.82 29.54 20.82 27.9"/><polygon class="cls-5" points="36.07 34.42 34.68 35.15 28.76 58.4 30.15 57.68 36.07 34.42"/><polygon class="cls-6" points="34.68 35.15 33.3 34.42 27.38 57.68 28.76 58.4 34.68 35.15"/><polygon class="cls-7" points="36.07 34.42 31.92 32.25 30.53 32.98 34.68 35.15 36.07 34.42"/><polygon class="cls-6" points="33.98 34.79 29.14 32.25 29.14 33.89 33.29 36.06 33.98 34.79"/><g class="cls-8"><polygon class="cls-9" points="49.23 39.49 26.02 51.55 26 61.97 38.14 55.66 49.23 39.49"/><polygon class="cls-10" points="26.02 51.55 2.88 39.49 13.89 55.66 26 61.97 26.02 51.55"/><polygon class="cls-11" points="49.23 12.12 26.03 24.18 26.03 51.55 49.23 39.49 49.23 12.12"/><polygon class="cls-12" points="49.23 12.12 26.03 0 2.88 12.12 26.03 24.18 49.23 12.12"/><polygon class="cls-13" points="26.03 24.18 2.88 12.12 2.88 39.49 26.03 51.55 26.03 24.18"/></g></g></g></svg>