<?xml version="1.0" encoding="utf-8"?>
<!-- Generator: Adobe Illustrator 22.0.1, SVG Export Plug-In . SVG Version: 6.00 Build 0)  -->
<svg version="1.1" xmlns="http://www.w3.org/2000/svg" xmlns:xlink="http://www.w3.org/1999/xlink" x="0px" y="0px" width="100px"
	 height="60px" viewBox="0 0 100 60" style="enable-background:new 0 0 100 60;" xml:space="preserve">
<style type="text/css">
	.st0{clip-path:url(#SVGID_2_);}
	.st1{fill-rule:evenodd;clip-rule:evenodd;fill:#B4DDE7;}
	.st2{fill-rule:evenodd;clip-rule:evenodd;fill:#9BD2D1;}
	.st3{fill-rule:evenodd;clip-rule:evenodd;fill:#C89D8C;}
	.st4{fill-rule:evenodd;clip-rule:evenodd;fill:#AF7258;}
	.st5{fill-rule:evenodd;clip-rule:evenodd;fill:#DEC5BA;}
	.st6{fill-rule:evenodd;clip-rule:evenodd;fill:#664733;}
	.st7{fill-rule:evenodd;clip-rule:evenodd;fill:#452F21;}
	.st8{fill-rule:evenodd;clip-rule:evenodd;fill:#78533A;}
	.st9{fill-rule:evenodd;clip-rule:evenodd;fill:#563A29;}
	.st10{fill-rule:evenodd;clip-rule:evenodd;fill:#996A4D;}
	.st11{fill-rule:evenodd;clip-rule:evenodd;fill:#885F44;}
	.st12{fill-rule:evenodd;clip-rule:evenodd;fill:#39241C;}
	.st13{fill-rule:evenodd;clip-rule:evenodd;fill:#39211C;}
	.st14{fill-rule:evenodd;clip-rule:evenodd;fill:#684B31;}
	.st15{fill-rule:evenodd;clip-rule:evenodd;fill:#CDA798;}
	.st16{fill-rule:evenodd;clip-rule:evenodd;fill:#AC6D53;}
	.st17{fill-rule:evenodd;clip-rule:evenodd;fill:#6D4534;}
	.st18{fill-rule:evenodd;clip-rule:evenodd;fill:#F4F2F0;}
	.st19{fill-rule:evenodd;clip-rule:evenodd;fill:#C1B5A4;}
	.st20{fill-rule:evenodd;clip-rule:evenodd;fill:#E3DCD7;}
	.st21{fill-rule:evenodd;clip-rule:evenodd;fill:#333333;}
	.st22{clip-path:url(#SVGID_4_);}
	.st23{clip-path:url(#SVGID_6_);}
	.st24{clip-path:url(#SVGID_8_);}
	.st25{clip-path:url(#SVGID_10_);}
</style>
<g id="_x32__x5F_2">
</g>
<g id="_x31__x5F_2">
	<g>
		<defs>
			<path id="SVGID_3_" d="M100,0H0v50h15c0,5.5,4.5,10,10,10c5.5,0,10-4.5,10-10h65V0z"/>
		</defs>
		<clipPath id="SVGID_2_">
			<use xlink:href="#SVGID_3_"  style="overflow:visible;"/>
		</clipPath>
		<g class="st0">
			<rect x="0" y="0" class="st1" width="100" height="100"/>
			<g>
				<polygon class="st2" points="51.4,50.3 91.1,71.2 45.7,95.1 6,74.3 				"/>
				<g>
					<g>
						<polygon class="st3" points="25.6,20.4 25.6,31.1 18.2,27.3 18.2,16.5 						"/>
						<polygon class="st4" points="25.6,31.1 25.6,20.4 29.3,18.4 29.3,29.2 						"/>
						<polygon class="st5" points="25.6,20.4 18.2,16.5 21.9,14.5 29.3,18.4 29.3,18.4 						"/>
					</g>
					<g>
						<polygon class="st9" points="29.3,38 29.3,54.9 23.7,51.9 23.7,35 						"/>
						<polygon class="st7" points="29.3,54.9 29.3,38 35,35 35,51.9 31.1,68.8 25.5,71.7 						"/>
						<polygon class="st8" points="29.3,38 23.7,35 29.3,32 35,35 						"/>
						<polygon class="st6" points="23.7,51.9 29.3,54.9 25.5,71.7 19.8,68.8 						"/>
					</g>
					<g>
						<polygon class="st9" points="62.1,40.8 62.1,27.3 65,29 65,42.5 						"/>
						<polygon class="st8" points="68.4,21.6 65.5,19.9 72.1,16.5 75.1,18.2 71.5,20 						"/>
						<polygon class="st10" points="62.1,27.3 65.5,19.9 68.4,21.6 65,29 						"/>
						<polygon class="st11" points="63.3,50.2 60.4,48.5 62.1,40.8 65,42.5 						"/>
						<polygon class="st7" points="75.1,18.2 77.1,21.3 74.7,24.3 73.3,22.4 70.3,24 68.1,28.2 68.1,42 66.2,51.6 63.3,50.2 
							65,42.5 65,29 68.4,21.6 71.5,20 						"/>
					</g>
					<g>
						<polygon class="st8" points="31,38.2 58.8,46.6 67.9,51.4 40.1,43 						"/>
						<polygon class="st12" points="40.1,43 41.9,60.2 32.8,55.4 31,38.2 						"/>
						<polygon class="st13" points="40.1,43 67.9,51.4 67.9,62.3 41.9,60.2 						"/>
					</g>
					<g>
						<polygon class="st14" points="55.3,20.9 47.6,25 37.8,30.1 20.3,20.9 37.8,11.7 						"/>
						<polygon class="st9" points="37.8,30.1 37.8,52.9 20.3,43.7 20.3,20.9 						"/>
						<polygon class="st7" points="55.3,20.9 55.3,29 55.3,43.7 47.6,47.7 37.8,52.9 37.8,30.1 47.6,25 						"/>
					</g>
					<g>
						<polygon class="st7" points="37.8,20.9 50.9,14 55.3,20.9 47.6,25 37.8,30.1 						"/>
						<polygon class="st8" points="50.9,14 37.8,20.9 24.7,14 37.8,7.1 						"/>
						<polygon class="st9" points="37.8,20.9 37.8,30.1 20.3,20.9 24.7,14 						"/>
					</g>
					<g>
						<polygon class="st3" points="36.5,39 22.2,31.5 22.2,23.3 36.5,30.9 						"/>
						<g>
							<path class="st3" d="M29.2,45.6l-9-4.7v-2.2l2.3,1.2v0v-3.1l2.2,1.2L27,39v3.1v0l2.3,1.2V45.6z M29.2,49.6l-9-4.7v-3l9,4.7
								V49.6z"/>
							<path class="st4" d="M29.2,43.4l4.7-7.3v6.1l-4.7,3.4V43.4z M27,42.2L27,42.2V39l4.7-4.2L27,42.2z M29.2,49.6v-3l4.7-3.4v5.7
								L29.2,49.6z"/>
							<polygon class="st5" points="31.7,34.8 27,39 24.7,37.9 22.5,36.7 27.2,32.5 							"/>
							<path class="st15" d="M27.2,32.5l-4.7,4.2v3.1v0l-2.3-1.2l4.8-7.3L27.2,32.5z M33.9,36l-4.7,7.3L27,42.2l4.7-7.4L33.9,36
								L33.9,36z"/>
							<polygon class="st16" points="29.2,46.6 20.2,41.9 20.2,40.8 29.2,45.6 							"/>
							<polygon class="st17" points="29.2,46.6 29.2,45.6 33.9,42.2 33.9,43.2 							"/>
						</g>
						<g>
							<g>
								<polygon class="st18" points="27.3,27.1 25.8,27.9 22.8,26.4 24.3,25.6 								"/>
								<polygon class="st19" points="27.3,27.1 27.3,30.7 25.8,31.5 25.8,27.9 								"/>
								<polygon class="st20" points="25.8,27.9 25.8,31.5 22.8,29.9 22.8,26.4 								"/>
							</g>
							<polygon class="st21" points="23.6,29.3 23.6,27.7 24.9,28.4 24.9,30 							"/>
						</g>
						<g>
							<g>
								<polygon class="st18" points="34.7,30.8 33.2,31.6 30.3,30.1 31.8,29.3 								"/>
								<polygon class="st19" points="34.7,30.8 34.7,34.4 33.2,35.2 33.2,31.6 								"/>
								<polygon class="st20" points="33.2,31.6 33.2,35.2 30.3,33.6 30.3,30.1 								"/>
							</g>
							<polygon class="st21" points="31.1,33 31.1,31.4 32.4,32.1 32.4,33.7 							"/>
						</g>
						<g>
							<polygon class="st21" points="23.3,39.5 23.3,38.2 24.3,38.8 24.3,40 							"/>
							<polygon class="st21" points="25.1,40.3 25.1,39 26.2,39.6 26.2,40.9 							"/>
						</g>
					</g>
					<g>
						<polygon class="st7" points="71.4,55.4 71.4,60.8 59.4,67.2 54.8,64.8 54.8,59.4 59.4,61.8 						"/>
						<path class="st8" d="M54.8,59.4c2.8-1.5,5.7-3,8.5-4.5c0.1,0,0.1-0.1,0.2-0.1c0.1,0,0.1-0.1,0.2-0.1l3.1-1.6l4.5,2.4
							l-12.1,6.4L54.8,59.4z"/>
					</g>
					<g>
						<polygon class="st9" points="44.9,64 44.9,47.1 50.5,50.1 50.5,67 						"/>
						<polygon class="st7" points="56.2,47.1 56.2,64 52.3,80.9 46.7,83.9 50.5,67 50.5,50.1 						"/>
						<polygon class="st8" points="56.2,47.1 50.5,50.1 44.9,47.1 50.5,44.1 						"/>
					</g>
					<g>
						<polygon class="st3" points="50.8,34.2 50.8,45 43.4,41.1 43.4,39.2 48,41.6 48,39.7 48,34.8 45.2,33.3 43.4,32.4 43.4,30.3 
													"/>
						<path class="st4" d="M50.8,45V34.2l3.7-1.9v10.8L50.8,45z M48,39.7l-2.8-1.5h0v-4.9l2.9,1.5V39.7z"/>
						<path class="st5" d="M50.8,34.2l-7.4-3.9l3.7-1.9l7.4,3.9v0L50.8,34.2z M43.4,39.2l1.8-1l2.8,1.5v1.9L43.4,39.2z"/>
					</g>
				</g>
			</g>
		</g>
	</g>
</g>
<g id="_x33__x5F_3">
</g>
<g id="_x32__x5F_3">
</g>
<g id="_x31__x5F_3">
</g>
</svg>
