<?xml version="1.0" encoding="utf-8"?>
<!-- Generator: Adobe Illustrator 22.0.1, SVG Export Plug-In . SVG Version: 6.00 Build 0)  -->
<svg version="1.1" xmlns="http://www.w3.org/2000/svg" xmlns:xlink="http://www.w3.org/1999/xlink" x="0px" y="0px" width="100px"
	 height="49.9px" viewBox="0 0 100 49.9" style="enable-background:new 0 0 100 49.9;" xml:space="preserve">
<style type="text/css">
	.st0{clip-path:url(#SVGID_2_);}
	.st1{fill-rule:evenodd;clip-rule:evenodd;fill:#B4DDE7;}
	.st2{fill-rule:evenodd;clip-rule:evenodd;fill:#9BD2D1;}
	.st3{fill-rule:evenodd;clip-rule:evenodd;fill:#C89D8C;}
	.st4{fill-rule:evenodd;clip-rule:evenodd;fill:#AF7258;}
	.st5{fill-rule:evenodd;clip-rule:evenodd;fill:#DEC5BA;}
	.st6{fill-rule:evenodd;clip-rule:evenodd;fill:#664733;}
	.st7{fill-rule:evenodd;clip-rule:evenodd;fill:#452F21;}
	.st8{fill-rule:evenodd;clip-rule:evenodd;fill:#78533A;}
	.st9{fill-rule:evenodd;clip-rule:evenodd;fill:#563A29;}
	.st10{fill-rule:evenodd;clip-rule:evenodd;fill:#996A4D;}
	.st11{fill-rule:evenodd;clip-rule:evenodd;fill:#885F44;}
	.st12{fill-rule:evenodd;clip-rule:evenodd;fill:#39241C;}
	.st13{fill-rule:evenodd;clip-rule:evenodd;fill:#39211C;}
	.st14{fill-rule:evenodd;clip-rule:evenodd;fill:#684B31;}
	.st15{fill-rule:evenodd;clip-rule:evenodd;fill:#CDA798;}
	.st16{fill-rule:evenodd;clip-rule:evenodd;fill:#AC6D53;}
	.st17{fill-rule:evenodd;clip-rule:evenodd;fill:#6D4534;}
	.st18{fill-rule:evenodd;clip-rule:evenodd;fill:#F4F2F0;}
	.st19{fill-rule:evenodd;clip-rule:evenodd;fill:#C1B5A4;}
	.st20{fill-rule:evenodd;clip-rule:evenodd;fill:#E3DCD7;}
	.st21{fill-rule:evenodd;clip-rule:evenodd;fill:#333333;}
	.st22{clip-path:url(#SVGID_4_);}
	.st23{clip-path:url(#SVGID_6_);}
	.st24{clip-path:url(#SVGID_8_);}
	.st25{clip-path:url(#SVGID_10_);}
</style>
<g id="_x32__x5F_2">
	<g>
		<defs>
			<path id="SVGID_1_" d="M35,0C35,0,35,0,35,0c0,5.5-4.5,10-10,10c-5.5,0-10-4.5-10-10c0,0,0,0,0,0H0v50h100V0H35z"/>
		</defs>
		<clipPath id="SVGID_2_">
			<use xlink:href="#SVGID_1_"  style="overflow:visible;"/>
		</clipPath>
		<g class="st0">
			<rect x="0" y="-50" class="st1" width="100" height="100"/>
			<g>
				<polygon class="st2" points="51.4,0.3 91.1,21.2 45.7,45.1 6,24.3 				"/>
				<g>
					<g>
						<polygon class="st6" points="14.6,20 22.2,24 22.2,28.2 14.6,24.2 						"/>
						<polygon class="st7" points="22.2,24 31.6,19 31.6,23.2 22.2,28.2 						"/>
						<polygon class="st8" points="31.6,19 22.2,24 14.6,20 24.1,15 31.6,19 						"/>
					</g>
					<g>
						<polygon class="st9" points="29.3,-12 29.3,4.9 23.7,1.9 23.7,-15 						"/>
						<polygon class="st7" points="29.3,4.9 29.3,-12 35,-15 35,1.9 31.1,18.8 25.5,21.7 						"/>
						<polygon class="st6" points="23.7,1.9 29.3,4.9 25.5,21.7 19.8,18.8 						"/>
					</g>
					<g>
						<polygon class="st11" points="63.3,0.2 60.4,-1.5 62.1,-9.2 65,-7.5 						"/>
						<polygon class="st7" points="75.1,-31.8 77.1,-28.7 74.7,-25.7 73.3,-27.6 70.3,-26 68.1,-21.8 68.1,-8 66.2,1.6 63.3,0.2 
							65,-7.5 65,-21 68.4,-28.4 71.5,-30 						"/>
					</g>
					<g>
						<polygon class="st8" points="31,-11.8 58.8,-3.4 67.9,1.4 40.1,-7 						"/>
						<polygon class="st12" points="40.1,-7 41.9,10.2 32.8,5.4 31,-11.8 						"/>
						<polygon class="st13" points="40.1,-7 67.9,1.4 67.9,12.3 41.9,10.2 						"/>
					</g>
					<g>
						<polygon class="st9" points="37.8,-19.9 37.8,2.9 20.3,-6.3 20.3,-29.1 						"/>
						<polygon class="st7" points="55.3,-29.1 55.3,-21 55.3,-6.3 47.6,-2.3 37.8,2.9 37.8,-19.9 47.6,-25 						"/>
					</g>
					<g>
						<polygon class="st6" points="56.9,17.8 64.4,21.8 64.4,26 56.9,22 						"/>
						<polygon class="st7" points="64.4,21.8 73.9,16.9 73.9,21 64.4,26 						"/>
						<polygon class="st8" points="73.9,16.9 64.4,21.8 56.9,17.8 66.3,12.9 73.9,16.8 						"/>
					</g>
					<polygon class="st7" points="71.4,13.6 71.4,19 59.4,19.9 54.8,17.5 54.8,12.1 66.9,11.2 					"/>
					<g>
						<polygon class="st7" points="71.4,5.4 71.4,10.8 59.4,17.2 54.8,14.8 54.8,9.4 59.4,11.8 						"/>
						<path class="st8" d="M54.8,9.4c2.8-1.5,5.7-3,8.5-4.5c0.1,0,0.1-0.1,0.2-0.1c0.1,0,0.1-0.1,0.2-0.1L66.9,3l4.5,2.4l-12.1,6.4
							L54.8,9.4z"/>
					</g>
					<g>
						<polygon class="st6" points="36,32.2 43.6,36.1 43.6,40.3 36,36.3 						"/>
						<polygon class="st7" points="43.6,36.1 53,31.2 53,35.3 43.6,40.3 						"/>
						<polygon class="st8" points="53,31.2 43.6,36.1 36,32.2 45.4,27.2 53,31.1 						"/>
					</g>
					<g>
						<polygon class="st9" points="44.9,14 44.9,-2.9 50.5,0.1 50.5,17 						"/>
						<polygon class="st7" points="56.2,-2.9 56.2,14 52.3,30.9 46.7,33.9 50.5,17 50.5,0.1 						"/>
						<polygon class="st8" points="56.2,-2.9 50.5,0.1 44.9,-2.9 50.5,-5.9 						"/>
						<polygon class="st6" points="46.7,33.9 41,30.9 44.9,14 50.5,17 						"/>
					</g>
				</g>
			</g>
		</g>
	</g>
</g>
<g id="_x31__x5F_2">
</g>
<g id="_x33__x5F_3">
</g>
<g id="_x32__x5F_3">
</g>
<g id="_x31__x5F_3">
</g>
</svg>
