<?xml version="1.0" encoding="utf-8"?>
<!-- Generator: Adobe Illustrator 22.0.1, SVG Export Plug-In . SVG Version: 6.00 Build 0)  -->
<svg version="1.1" xmlns="http://www.w3.org/2000/svg" xmlns:xlink="http://www.w3.org/1999/xlink" x="0px" y="0px" width="100px"
	 height="43.4px" viewBox="0 0 100 43.4" style="enable-background:new 0 0 100 43.4;" xml:space="preserve">
<style type="text/css">
	.st0{clip-path:url(#SVGID_2_);}
	.st1{fill-rule:evenodd;clip-rule:evenodd;fill:#B4DDE7;}
	.st2{fill-rule:evenodd;clip-rule:evenodd;fill:#9BD2D1;}
	.st3{fill-rule:evenodd;clip-rule:evenodd;fill:#C89D8C;}
	.st4{fill-rule:evenodd;clip-rule:evenodd;fill:#AF7258;}
	.st5{fill-rule:evenodd;clip-rule:evenodd;fill:#DEC5BA;}
	.st6{fill-rule:evenodd;clip-rule:evenodd;fill:#664733;}
	.st7{fill-rule:evenodd;clip-rule:evenodd;fill:#452F21;}
	.st8{fill-rule:evenodd;clip-rule:evenodd;fill:#78533A;}
	.st9{fill-rule:evenodd;clip-rule:evenodd;fill:#563A29;}
	.st10{fill-rule:evenodd;clip-rule:evenodd;fill:#996A4D;}
	.st11{fill-rule:evenodd;clip-rule:evenodd;fill:#885F44;}
	.st12{fill-rule:evenodd;clip-rule:evenodd;fill:#39241C;}
	.st13{fill-rule:evenodd;clip-rule:evenodd;fill:#39211C;}
	.st14{fill-rule:evenodd;clip-rule:evenodd;fill:#684B31;}
	.st15{fill-rule:evenodd;clip-rule:evenodd;fill:#CDA798;}
	.st16{fill-rule:evenodd;clip-rule:evenodd;fill:#AC6D53;}
	.st17{fill-rule:evenodd;clip-rule:evenodd;fill:#6D4534;}
	.st18{fill-rule:evenodd;clip-rule:evenodd;fill:#F4F2F0;}
	.st19{fill-rule:evenodd;clip-rule:evenodd;fill:#C1B5A4;}
	.st20{fill-rule:evenodd;clip-rule:evenodd;fill:#E3DCD7;}
	.st21{fill-rule:evenodd;clip-rule:evenodd;fill:#333333;}
	.st22{clip-path:url(#SVGID_4_);}
	.st23{clip-path:url(#SVGID_6_);}
	.st24{clip-path:url(#SVGID_8_);}
	.st25{clip-path:url(#SVGID_10_);}
</style>
<g id="_x32__x5F_2">
</g>
<g id="_x31__x5F_2">
</g>
<g id="_x33__x5F_3">
</g>
<g id="_x32__x5F_3">
	<g>
		<g>
			<defs>
				<path id="SVGID_7_" d="M35,0C35,0,35,0,35,0c0,5.5-4.5,10-10,10S15,5.5,15,0c0,0,0,0,0,0H0v33.3h15c0,5.5,4.5,10,10,10
					s10-4.5,10-10h65V0H35z"/>
			</defs>
			<clipPath id="SVGID_2_">
				<use xlink:href="#SVGID_7_"  style="overflow:visible;"/>
			</clipPath>
			<g class="st0">
				<rect x="0" y="-33.3" class="st1" width="100" height="100"/>
				<g>
					<polygon class="st2" points="51.4,17 91.1,37.8 45.7,61.8 6,40.9 					"/>
					<g>
						<g>
							<polygon class="st6" points="14.6,36.7 22.2,40.7 22.2,44.8 14.6,40.9 							"/>
							<polygon class="st7" points="22.2,40.7 31.6,35.7 31.6,39.9 22.2,44.8 							"/>
							<polygon class="st8" points="31.6,35.7 22.2,40.7 14.6,36.7 24.1,31.7 31.6,35.7 							"/>
						</g>
						<g>
							<polygon class="st9" points="29.3,4.6 29.3,21.5 23.7,18.5 23.7,1.7 							"/>
							<polygon class="st7" points="29.3,21.5 29.3,4.6 35,1.7 35,18.5 31.1,35.4 25.5,38.4 							"/>
							<polygon class="st8" points="29.3,4.6 23.7,1.7 29.3,-1.3 35,1.7 							"/>
							<polygon class="st6" points="23.7,18.5 29.3,21.5 25.5,38.4 19.8,35.4 							"/>
						</g>
						<g>
							<polygon class="st9" points="62.1,7.5 62.1,-6 65,-4.3 65,9.2 							"/>
							<polygon class="st11" points="63.3,16.9 60.4,15.2 62.1,7.5 65,9.2 							"/>
							<polygon class="st7" points="75.1,-15.1 77.1,-12 74.7,-9 73.3,-10.9 70.3,-9.4 68.1,-5.1 68.1,8.7 66.2,18.2 63.3,16.9 
								65,9.2 65,-4.3 68.4,-11.7 71.5,-13.3 							"/>
						</g>
						<g>
							<polygon class="st8" points="31,4.9 58.8,13.2 67.9,18.1 40.1,9.7 							"/>
							<polygon class="st12" points="40.1,9.7 41.9,26.8 32.8,22 31,4.9 							"/>
							<polygon class="st13" points="40.1,9.7 67.9,18.1 67.9,28.9 41.9,26.8 							"/>
						</g>
						<g>
							<polygon class="st9" points="37.8,-3.2 37.8,19.5 20.3,10.4 20.3,-12.4 							"/>
							<polygon class="st7" points="55.3,-12.4 55.3,-4.4 55.3,10.4 47.6,14.4 37.8,19.5 37.8,-3.2 47.6,-8.4 							"/>
						</g>
						<g>
							<polygon class="st3" points="36.5,5.6 22.2,-1.9 22.2,-10 36.5,-2.5 							"/>
							<g>
								<path class="st3" d="M29.2,12.2l-9-4.7V5.3l2.3,1.2v0V3.4l2.2,1.2L27,5.7v3.1v0l2.3,1.2V12.2z M29.2,16.3l-9-4.7v-3l9,4.7
									V16.3z"/>
								<path class="st4" d="M29.2,10l4.7-7.3v6.1l-4.7,3.4V10z M27,8.9L27,8.9V5.7l4.7-4.2L27,8.9z M29.2,16.3v-3l4.7-3.4v5.7
									L29.2,16.3z"/>
								<polygon class="st5" points="31.7,1.5 27,5.7 24.7,4.5 22.5,3.4 27.2,-0.9 								"/>
								<path class="st15" d="M27.2-0.9l-4.7,4.2v3.1v0l-2.3-1.2L25-2L27.2-0.9z M33.9,2.7L29.2,10L27,8.9l4.7-7.4L33.9,2.7
									L33.9,2.7z"/>
								<polygon class="st16" points="29.2,13.2 20.2,8.5 20.2,7.5 29.2,12.2 								"/>
								<polygon class="st17" points="29.2,13.2 29.2,12.2 33.9,8.8 33.9,9.8 								"/>
							</g>
							<g>
								<g>
									<polygon class="st19" points="34.7,-2.5 34.7,1.1 33.2,1.9 33.2,-1.7 									"/>
									<polygon class="st20" points="33.2,-1.7 33.2,1.9 30.3,0.3 30.3,-3.3 									"/>
								</g>
								<polygon class="st21" points="31.1,-0.3 31.1,-1.9 32.4,-1.2 32.4,0.4 								"/>
							</g>
							<g>
								<polygon class="st21" points="23.3,6.1 23.3,4.9 24.3,5.4 24.3,6.7 								"/>
								<polygon class="st21" points="25.1,7 25.1,5.7 26.2,6.3 26.2,7.6 								"/>
							</g>
						</g>
						<g>
							<polygon class="st6" points="56.9,34.5 64.4,38.5 64.4,42.7 56.9,38.7 							"/>
							<polygon class="st7" points="64.4,38.5 73.9,33.5 73.9,37.7 64.4,42.7 							"/>
							<polygon class="st8" points="73.9,33.5 64.4,38.5 56.9,34.5 66.3,29.5 73.9,33.5 							"/>
						</g>
						<polygon class="st7" points="71.4,30.2 71.4,35.7 59.4,36.6 54.8,34.2 54.8,28.7 66.9,27.8 						"/>
						<g>
							<polygon class="st7" points="71.4,22.1 71.4,27.5 59.4,33.9 54.8,31.5 54.8,26 59.4,28.4 							"/>
							<path class="st8" d="M54.8,26c2.8-1.5,5.7-3,8.5-4.5c0.1,0,0.1-0.1,0.2-0.1c0.1,0,0.1-0.1,0.2-0.1l3.1-1.6l4.5,2.4l-12.1,6.4
								L54.8,26z"/>
						</g>
						<g>
							<polygon class="st9" points="44.9,30.6 44.9,13.8 50.5,16.7 50.5,33.6 							"/>
							<polygon class="st7" points="56.2,13.8 56.2,30.6 52.3,47.5 46.7,50.5 50.5,33.6 50.5,16.7 							"/>
							<polygon class="st8" points="56.2,13.8 50.5,16.7 44.9,13.8 50.5,10.8 							"/>
							<polygon class="st6" points="46.7,50.5 41,47.5 44.9,30.6 50.5,33.6 							"/>
						</g>
						<g>
							<polygon class="st3" points="50.8,0.9 50.8,11.7 43.4,7.8 43.4,5.9 48,8.3 48,6.4 48,1.5 45.2,0 43.4,-1 43.4,-3 							"/>
							<path class="st4" d="M50.8,11.7V0.9l3.7-1.9V9.7L50.8,11.7z M48,6.4l-2.8-1.5h0V0L48,1.5V6.4z"/>
							<path class="st5" d="M50.8,0.9L43.4-3L47.1-5l7.4,3.9v0L50.8,0.9z M43.4,5.9l1.8-1L48,6.4v1.9L43.4,5.9z"/>
						</g>
					</g>
				</g>
			</g>
		</g>
	</g>
</g>
<g id="_x31__x5F_3">
</g>
</svg>
