<svg xmlns="http://www.w3.org/2000/svg" viewBox="0 0 47.22 43.23"><defs><style>.cls-1{fill:#beb5af;}.cls-1,.cls-2,.cls-3{fill-rule:evenodd;}.cls-2{fill:#ece9e8;}.cls-3{fill:#ddd8d5;}</style></defs><title>cloud4</title><g id="Layer_2" data-name="Layer 2"><g id="Layer_2-2" data-name="Layer 2"><polygon class="cls-1" points="47.22 8.23 31.47 16.42 31.47 35 47.22 26.81 47.22 8.23"/><polygon class="cls-2" points="47.22 8.23 31.47 0 15.75 8.23 31.47 16.42 47.22 8.23"/><polygon class="cls-3" points="31.47 16.42 15.75 8.23 15.75 26.81 31.47 35 31.47 16.42"/><polygon class="cls-1" points="31.47 16.46 15.71 24.65 15.71 43.23 31.47 35.04 31.47 16.46"/><polygon class="cls-2" points="31.47 16.46 15.71 8.23 0 16.46 15.71 24.65 31.47 16.46"/><polygon class="cls-3" points="15.71 24.65 0 16.46 0 35.04 15.71 43.23 15.71 24.65"/></g></g></svg>