<svg xmlns="http://www.w3.org/2000/svg" viewBox="0 0 40.13 37.74"><defs><style>.cls-1{fill:#beb5af;}.cls-1,.cls-2,.cls-3{fill-rule:evenodd;}.cls-2{fill:#ece9e8;}.cls-3{fill:#ddd8d5;}</style></defs><title>cloud3</title><g id="Layer_2" data-name="Layer 2"><g id="Layer_2-2" data-name="Layer 2"><polygon class="cls-1" points="31.47 8.23 15.71 16.42 15.71 35 31.47 26.81 31.47 8.23"/><polygon class="cls-2" points="31.47 8.23 15.71 0 0 8.23 15.71 16.42 31.47 8.23"/><polygon class="cls-3" points="15.71 16.42 0 8.23 0 26.81 15.71 35 15.71 16.42"/><polygon class="cls-1" points="40.13 21.29 30.44 26.32 30.44 37.74 40.13 32.71 40.13 21.29"/><polygon class="cls-2" points="40.13 21.29 30.44 16.23 20.79 21.29 30.44 26.32 40.13 21.29"/><polygon class="cls-3" points="30.44 26.32 20.79 21.29 20.79 32.71 30.44 37.74 30.44 26.32"/></g></g></svg>