<svg xmlns="http://www.w3.org/2000/svg" viewBox="0 0 47.2 43.18"><defs><style>.cls-1{fill:#beb5af;}.cls-1,.cls-2,.cls-3{fill-rule:evenodd;}.cls-2{fill:#ece9e8;}.cls-3{fill:#ddd8d5;}</style></defs><title>cloud2</title><g id="Layer_2" data-name="Layer 2"><g id="Layer_2-2" data-name="Layer 2"><polygon class="cls-1" points="31.47 8.23 15.71 16.42 15.71 35 31.47 26.81 31.47 8.23"/><polygon class="cls-2" points="31.47 8.23 15.71 0 0 8.23 15.71 16.42 31.47 8.23"/><polygon class="cls-3" points="15.71 16.42 0 8.23 0 26.81 15.71 35 15.71 16.42"/><polygon class="cls-1" points="47.2 16.41 31.45 24.6 31.45 43.18 47.2 34.99 47.2 16.41"/><polygon class="cls-2" points="47.2 16.41 31.45 8.18 15.73 16.41 31.45 24.6 47.2 16.41"/><polygon class="cls-3" points="31.45 24.6 15.73 16.41 15.73 34.99 31.45 43.18 31.45 24.6"/></g></g></svg>