<svg xmlns="http://www.w3.org/2000/svg" viewBox="0 0 50.43 44.85"><defs><style>.cls-1{fill:#beb5af;}.cls-1,.cls-2,.cls-3{fill-rule:evenodd;}.cls-2{fill:#ece9e8;}.cls-3{fill:#ddd8d5;}</style></defs><title>cloud1</title><g id="Layer_2" data-name="Layer 2"><g id="Layer_2-2" data-name="Layer 2"><polygon class="cls-1" points="41.78 15.29 26.02 23.47 26.02 42.05 41.78 33.87 41.78 15.29"/><polygon class="cls-2" points="41.78 15.29 26.02 7.05 10.31 15.29 26.02 23.47 41.78 15.29"/><polygon class="cls-3" points="26.02 23.47 10.31 15.29 10.31 33.87 26.02 42.05 26.02 23.47"/><polygon class="cls-1" points="50.44 28.35 40.75 33.38 40.75 44.8 50.44 39.77 50.44 28.35"/><polygon class="cls-2" points="50.44 28.35 40.75 23.29 31.09 28.35 40.75 33.38 50.44 28.35"/><polygon class="cls-3" points="40.75 33.38 31.09 28.35 31.09 39.77 40.75 44.8 40.75 33.38"/><polygon class="cls-1" points="20.62 27.31 10.29 32.67 10.29 44.84 20.62 39.48 20.62 27.31"/><polygon class="cls-2" points="20.62 27.31 10.29 21.91 0 27.31 10.29 32.67 20.62 27.31"/><polygon class="cls-3" points="10.29 32.67 0 27.31 0 39.48 10.29 44.84 10.29 32.67"/><polygon class="cls-1" points="32.15 3.29 25.84 6.57 25.84 14 32.15 10.72 32.15 3.29"/><polygon class="cls-2" points="32.15 3.29 25.84 0 19.56 3.29 25.84 6.57 32.15 3.29"/><polygon class="cls-3" points="25.84 6.57 19.56 3.29 19.56 10.72 25.84 14 25.84 6.57"/></g></g></svg>