<svg xmlns="http://www.w3.org/2000/svg" viewBox="0 0 159.3 79.99"><defs><style>.cls-1{fill:#8c6239;}.cls-1,.cls-2,.cls-3,.cls-4,.cls-5,.cls-6{fill-rule:evenodd;}.cls-2{fill:#754c24;}.cls-3{fill:#ff0;}.cls-4{fill:#f2de22;}.cls-5{fill:#fcee21;}.cls-6{fill:#e0da00;}</style></defs><title>banana</title><g id="Layer_2" data-name="Layer 2"><g id="Layer_2-2" data-name="Layer 2"><polygon class="cls-1" points="145.1 9.84 150.8 12.82 159.31 2.99 159.31 9.74 150.8 19.55 145.1 16.59 145.1 9.84"/><polygon class="cls-2" points="159.31 2.99 150.8 12.82 145.1 9.84 153.6 0 159.31 2.99"/><polygon class="cls-3" points="96.46 47.07 77.47 52.05 58.47 57.03 58.47 68.51 58.47 79.98 48.94 78.5 39.41 77.02 39.41 62.07 38.53 49.2 59.85 45.04 79.74 40.2 88.1 43.64 96.46 47.07"/><polygon class="cls-4" points="58.47 79.98 58.47 57.03 96.46 47.07 96.46 69.54 58.47 79.98"/><polygon class="cls-4" points="58.47 57.03 40.81 61.11 40.79 61.11 40.79 77.74 22.72 71.34 21.77 51.18 38.53 49.2 58.47 57.03"/><polygon class="cls-5" points="40.79 77.74 40.79 61.11 40.81 61.11 58.47 57.03 58.47 79.98 40.79 77.74 40.79 77.74"/><polygon class="cls-3" points="7.94 55.86 25.23 60.24 40.79 61.11 40.79 69.43 40.79 77.74 20.07 71.34 3.38 60.53 0 52.03 7.94 55.86"/><polygon class="cls-5" points="7.94 55.86 0 52.03 4.66 49.2 13.22 50.19 21.77 51.18 31.28 56.15 40.79 61.11 25.23 60.24 7.94 55.86"/><polygon class="cls-6" points="96.45 47.06 107.82 42.17 119.18 37.27 126.77 33.07 134.35 28.87 149.09 15.29 152.84 17.2 144.04 37.27 133.54 51.84 114.71 62.77 96.45 69.53 96.45 58.29 96.45 47.06"/><polygon class="cls-4" points="119.18 37.27 96.45 47.06 79.74 40.2 107.59 31.2 119.18 37.27"/><polygon class="cls-5" points="141.56 16.01 145.1 11.27 149.09 15.29 134.35 28.87 119.18 37.27 111.99 33.51 107.59 31.2 114.63 28.62 120.8 25.85 128.63 22.44 141.56 16.01"/><polygon class="cls-2" points="1 50.81 4.06 49.65 5.51 50.81 6.45 52.34 5.48 54.09 2.93 54.59 0.29 53.66 0 52.03 1 50.81"/></g></g></svg>