<svg xmlns="http://www.w3.org/2000/svg" viewBox="0 0 64.13 139.24"><defs><style>.cls-1{fill:#beb5af;}.cls-1,.cls-2,.cls-3{fill-rule:evenodd;}.cls-2{fill:#ece9e8;}.cls-3{fill:#ddd8d5;}</style></defs><title>bone</title><g id="Layer_2" data-name="Layer 2"><g id="Layer_2-2" data-name="Layer 2"><polygon class="cls-1" points="35.2 9.04 17.89 18.05 17.89 38.47 35.2 29.47 35.2 9.04"/><polygon class="cls-2" points="35.2 9.04 17.89 0 0.62 9.04 17.89 18.05 35.2 9.04"/><polygon class="cls-3" points="17.89 18.05 0.62 9.04 0.62 29.47 17.89 38.47 17.89 18.05"/><polygon class="cls-1" points="34.58 94.87 17.27 103.87 17.27 124.29 34.58 115.29 34.58 94.87"/><polygon class="cls-2" points="34.58 94.87 17.27 85.83 0 94.87 17.27 103.87 34.58 94.87"/><polygon class="cls-3" points="17.27 103.87 0 94.87 0 115.29 17.27 124.29 17.27 103.87"/><polygon class="cls-1" points="42.39 25.99 31.74 31.52 31.74 118.66 42.39 113.12 42.39 25.99"/><polygon class="cls-2" points="42.39 25.99 31.74 20.42 21.11 25.99 31.74 31.52 42.39 25.99"/><polygon class="cls-3" points="31.74 31.52 21.11 25.99 21.11 113.12 31.74 118.66 31.74 31.52"/><polygon class="cls-1" points="64.13 23.99 46.81 32.99 46.81 53.41 64.13 44.41 64.13 23.99"/><polygon class="cls-2" points="64.13 23.99 46.81 14.94 29.54 23.99 46.81 32.99 64.13 23.99"/><polygon class="cls-3" points="46.81 32.99 29.54 23.99 29.54 44.41 46.81 53.41 46.81 32.99"/><polygon class="cls-1" points="63.51 109.81 46.19 118.82 46.19 139.24 63.51 130.24 63.51 109.81"/><polygon class="cls-2" points="63.51 109.81 46.19 100.77 28.92 109.81 46.19 118.82 63.51 109.81"/><polygon class="cls-3" points="46.19 118.82 28.92 109.81 28.92 130.24 46.19 139.24 46.19 118.82"/></g></g></svg>