<svg xmlns="http://www.w3.org/2000/svg" xmlns:xlink="http://www.w3.org/1999/xlink" viewBox="0 0 180.05 180.05"><defs><style>.cls-1{stroke:#c83b1c;stroke-miterlimit:10;stroke-width:10px;fill:url(#linear-gradient);}.cls-2{fill:#fff;}</style><linearGradient id="linear-gradient" x1="24.89" y1="144.68" x2="155.16" y2="35.37" gradientUnits="userSpaceOnUse"><stop offset="0" stop-color="#ff4c24"/><stop offset="0.47" stop-color="#f64923"/><stop offset="1" stop-color="#e54420"/></linearGradient></defs><title>Asset 4</title><g id="Layer_2" data-name="Layer 2"><g id="Layer_2-2" data-name="Layer 2"><circle class="cls-1" cx="90.02" cy="90.02" r="85.02"/><g id="_59KTx6.tif" data-name="59KTx6.tif"><path class="cls-2" d="M137.9,53c-1.22,2-2.36,4.14-3.66,6.14-16.72,25.79-33.63,51.46-50.08,77.42-4.19,6.61-12.59,7.14-17.54,1.16-9.33-11.29-19.2-22.13-28.84-33.16-3.55-4.06-3.71-8.81-.45-12.25,3.4-3.59,8-3.6,12.43-.22,7.62,5.83,15.31,11.57,23.14,17.48.61-.76,1.2-1.46,1.76-2.19,15.19-19.87,30.65-39.54,45.41-59.72,5.42-7.4,13.88-7.37,17.83,1.22Z"/></g></g></g></svg>