<svg xmlns="http://www.w3.org/2000/svg" viewBox="0 0 104 144.29"><defs><style>.cls-1{fill:#fff;}.cls-1,.cls-10,.cls-11,.cls-12,.cls-13,.cls-14,.cls-15,.cls-2,.cls-3,.cls-4,.cls-5,.cls-6,.cls-7,.cls-8,.cls-9{fill-rule:evenodd;}.cls-2{fill:#b3b3b3;}.cls-3{fill:#d5d5d5;}.cls-4{fill:#f9ea7e;}.cls-5{fill:#e9d21b;}.cls-6{fill:#e6ab28;}.cls-7{fill:#9a886d;}.cls-8{fill:#554a3c;}.cls-9{fill:#e56b4b;}.cls-10{fill:#ce2020;}.cls-11{fill:#e04537;}.cls-12{fill:#e79348;}.cls-13{fill:#e6e6e6;}.cls-14{fill:#c8c8c8;}.cls-15{fill:#161d18;}</style></defs><title>chicken</title><g id="Layer_2" data-name="Layer 2"><g id="Layer_1-2" data-name="Layer 1"><polygon class="cls-1" points="70.46 36.34 89.67 26.32 104 33.79 104 33.82 84.82 43.86 70.46 36.34"/><polygon class="cls-2" points="104 33.82 104 75.06 84.82 85.02 84.82 43.86 104 33.82"/><polygon class="cls-3" points="84.82 85.02 70.41 77.56 70.41 36.34 70.46 36.34 84.82 43.86 84.82 85.02"/><polygon class="cls-4" points="15.7 121.87 34.69 111.96 50.88 120.42 31.91 130.3 25.84 127.14 25.82 127.13 32.46 123.68 28.42 121.57 21.8 125.03 21.78 125.03 15.7 121.87"/><path class="cls-5" d="M25.84,127.64v-.5l6.07,3.16v4.59l-6.07-3.16Zm-4,2-6.1-3.17v-4.59L21.78,125h0Z"/><path class="cls-6" d="M31.91,134.89V130.3l19-9.88V125Zm-6.07-7.25-4,2V125l6.62-3.46,4,2.11-6.64,3.45h0Z"/><polygon class="cls-4" points="33.95 131.27 52.94 121.36 69.13 129.82 50.16 139.7 44.09 136.54 44.07 136.53 50.71 133.08 46.67 130.97 40.05 134.43 40.03 134.43 33.95 131.27"/><path class="cls-5" d="M44.09,137v-.5l6.07,3.16v4.59l-6.07-3.16Zm-4,2L34,135.86v-4.59L40,134.43h0Z"/><path class="cls-6" d="M50.16,144.29V139.7l19-9.88v4.59ZM44.09,137l-4,2v-4.6L46.67,131l4,2.11-6.64,3.45h0Z"/><polygon class="cls-7" points="44.6 93.85 37.78 97.4 37.78 121.72 30.94 118.16 30.94 93.85 37.78 90.27 44.6 93.85"/><polygon class="cls-8" points="37.78 121.72 37.78 97.4 44.6 93.85 44.6 118.16 37.78 121.72"/><polygon class="cls-7" points="62.05 103.6 55.23 107.15 55.23 131.47 48.39 127.91 48.39 103.6 55.23 100.02 62.05 103.6"/><polygon class="cls-8" points="55.23 131.47 55.23 107.15 62.05 103.6 62.05 127.91 55.23 131.47"/><path class="cls-1" d="M2.92,25.12,40.17,5.71,77.41,25.12,40.48,44.37l-.31.2ZM86.84,55.93l-9.43,4.9V51Z"/><polygon class="cls-2" points="86.84 55.93 86.84 94.13 40.17 118.47 40.17 44.57 40.48 44.37 77.42 25.12 77.42 51.04 77.42 60.83 86.84 55.93"/><polygon class="cls-3" points="2.92 25.12 40.17 44.57 40.17 118.47 2.92 99.06 2.92 25.12"/><polygon class="cls-9" points="15.86 79.56 15.86 79.62 15.82 79.59 3.4 73.15 3.4 57.62 12.49 52.85 24.95 59.32 15.82 64.09 15.86 64.13 15.86 79.56"/><polygon class="cls-10" points="15.86 79.56 15.86 64.13 15.82 64.09 24.95 59.32 24.95 74.85 15.86 79.56"/><polygon class="cls-9" points="12.45 72.53 0 66.06 0 50.53 12.45 57.03 12.45 72.53"/><polygon class="cls-11" points="12.45 72.53 12.45 57.03 24.91 43.99 24.91 66.06 12.45 72.53"/><polygon class="cls-12" points="12.45 57.03 0 50.53 12.45 37.52 24.91 43.99 12.45 57.03"/><polygon class="cls-1" points="62.22 82.84 49.84 76.39 74.58 63.5 86.95 69.94 62.22 82.84"/><polygon class="cls-3" points="62.22 82.84 86.95 69.94 86.95 84.57 62.22 97.46 62.22 82.84"/><polygon class="cls-13" points="49.84 76.39 62.22 82.84 62.22 97.46 49.84 91.02 49.84 76.39"/><polygon class="cls-1" points="46.78 47.36 55.2 42.97 59.49 45.14 51.02 49.59 46.78 47.36"/><polygon class="cls-3" points="51.02 49.59 51.02 59.55 46.78 57.38 46.78 47.36 51.02 49.59"/><polygon class="cls-14" points="59.49 45.14 59.49 55.15 51.02 59.55 51.02 49.59 59.49 45.14"/><polygon class="cls-15" points="57.15 53.63 57.15 49.22 53.37 51.19 53.37 55.61 57.15 53.63"/><polygon class="cls-12" points="31.11 19.34 18.74 12.89 43.48 0 55.85 6.44 31.11 19.34"/><polygon class="cls-9" points="18.74 12.89 31.11 19.34 31.11 33.96 18.74 27.52 18.74 12.89"/><polygon class="cls-11" points="31.11 19.34 55.85 6.44 55.85 21.07 31.11 33.96 31.11 19.34"/></g></g></svg>