<svg xmlns="http://www.w3.org/2000/svg" viewBox="0 0 119.91 147.8"><defs><style>.cls-1{fill:#b78c62;}.cls-1,.cls-10,.cls-11,.cls-12,.cls-13,.cls-14,.cls-2,.cls-3,.cls-4,.cls-5,.cls-6,.cls-7,.cls-8,.cls-9{fill-rule:evenodd;}.cls-2{fill:#d3c19a;}.cls-3{fill:#684b31;}.cls-4{fill:#b0894f;}.cls-5{fill:#e9d21b;}.cls-6{fill:#ede3d6;}.cls-7{fill:#c8a684;}.cls-8{fill:#5f1f33;}.cls-9{fill:#9b4a53;}.cls-10{fill:#7f3e43;}.cls-11{fill:#fff;}.cls-12{fill:#ccc;}.cls-13{fill:#490c12;}.cls-14{fill:#333;}</style></defs><title>dog</title><g id="Layer_2" data-name="Layer 2"><g id="Layer_1-2" data-name="Layer 1"><polygon class="cls-1" points="116.09 82.83 116.18 109.44 107.83 113.75 107.83 87.05 116.09 82.83"/><polygon class="cls-2" points="116.09 82.83 107.83 87.05 107.83 113.75 98.84 109.08 98.84 82.37 107.19 78.06 116.09 82.83"/><polygon class="cls-3" points="116.18 109.44 116.18 114.95 107.83 119.26 107.83 113.75 116.18 109.44"/><polygon class="cls-4" points="107.83 113.75 107.83 119.26 98.84 114.58 98.84 109.08 107.83 113.75"/><polygon class="cls-1" points="59.02 137.98 50.67 142.29 50.67 115.59 58.93 111.37 59.02 137.98"/><polygon class="cls-2" points="58.93 111.37 50.67 115.59 50.67 142.29 41.67 137.61 41.67 110.91 50.02 106.6 58.93 111.37"/><polygon class="cls-3" points="50.67 142.29 59.02 137.98 59.02 143.49 50.67 147.8 50.67 142.29"/><polygon class="cls-4" points="41.67 137.61 50.67 142.29 50.67 147.8 41.67 143.12 41.67 137.61"/><polygon class="cls-1" points="32.13 97.33 32.23 123.94 23.87 128.25 23.87 101.55 32.13 97.33"/><polygon class="cls-2" points="32.13 97.33 23.87 101.55 23.87 128.25 14.88 123.57 14.88 96.87 23.23 92.56 32.13 97.33"/><polygon class="cls-3" points="32.23 123.94 32.23 129.45 23.87 133.76 23.87 128.25 32.23 123.94"/><polygon class="cls-4" points="23.87 128.25 23.87 133.76 14.88 129.08 14.88 123.57 23.87 128.25"/><polygon class="cls-5" points="100.27 36.1 100.27 45.31 94.24 42.19 94.25 32.97 100.27 36.1"/><polygon class="cls-6" points="100.27 36.1 94.25 32.97 99.81 30.09 105.8 33.23 100.27 36.1"/><polygon class="cls-7" points="100.27 45.31 100.27 36.1 105.8 33.23 105.82 42.42 100.27 45.31"/><polygon class="cls-2" points="12.08 62.69 46.89 80.75 50.53 101.02 46.89 121.41 12.08 103.3 8.63 81.11 12.08 62.69"/><polygon class="cls-6" points="116.27 44.58 46.89 80.75 12.08 62.69 81.58 26.4 116.27 44.58"/><polygon class="cls-7" points="46.89 80.75 116.27 44.58 119.91 64.85 102.47 73.97 74.62 88.57 50.53 101.02 46.89 80.75"/><polygon class="cls-1" points="46.89 121.41 50.53 101.02 74.62 88.57 102.47 73.97 119.91 64.85 116.27 85.24 98.84 94.3 70.92 108.91 46.89 121.41"/><polygon class="cls-8" points="9.97 12.58 17.75 16.63 31.87 9.28 31.94 9.28 31.94 32.71 17.75 40.09 9.94 36.03 9.94 12.6 9.97 12.58"/><polygon class="cls-9" points="31.87 9.28 17.75 16.63 9.97 12.58 24.15 5.22 31.87 9.28"/><polygon class="cls-8" points="46.85 30.88 71.26 18.17 71.35 18.21 71.35 67.95 46.85 80.7 46.85 30.88"/><polygon class="cls-10" points="12.07 12.8 46.85 30.88 46.85 80.7 12.07 62.63 12.07 12.8"/><polygon class="cls-9" points="71.26 18.17 46.85 30.88 12.07 12.8 36.62 0 71.26 18.17"/><polygon class="cls-10" points="0 38.91 28.41 53.76 28.41 77.54 4.5 65.03 0 62.69 0 38.91"/><polygon class="cls-8" points="28.41 53.76 32.87 51.45 32.9 51.48 32.9 51.54 32.9 75.26 28.41 77.54 28.41 53.76"/><polygon class="cls-9" points="32.87 51.45 28.41 53.76 0 38.91 4.53 36.56 32.87 51.45"/><polygon class="cls-6" points="32.87 51.45 4.53 36.56 14.6 31.39 43.01 46.24 32.87 51.45"/><polygon class="cls-7" points="32.87 51.45 43.01 46.24 43.01 70.02 43.01 78.71 32.9 84.07 32.9 75.26 32.9 51.54 32.9 51.48 32.87 51.45"/><polygon class="cls-1" points="32.9 84.07 4.5 69.16 4.5 65.03 28.41 77.54 32.9 75.26 32.9 84.07"/><polygon class="cls-11" points="28.51 24.7 24.64 26.66 24.64 35.03 17.37 31.22 17.37 22.91 21.3 20.89 28.51 24.7"/><polygon class="cls-12" points="24.64 35.03 24.64 26.66 28.51 24.7 28.57 33.01 24.64 35.03"/><polygon class="cls-11" points="39.91 30.5 36.05 32.46 36.05 40.83 28.77 37.02 28.77 28.71 32.7 26.69 39.91 30.5"/><polygon class="cls-12" points="36.05 40.83 36.05 32.46 39.91 30.5 39.97 38.81 36.05 40.83"/><polygon class="cls-13" points="6.82 58.5 6.82 52.46 12.06 55.18 12.06 61.23 6.82 58.5"/><polygon class="cls-13" points="14.91 62.85 14.91 56.81 20.16 59.53 20.16 65.58 14.91 62.85"/><polygon class="cls-14" points="19.33 26.18 22.52 27.84 22.52 31.51 19.33 29.85 19.33 26.18"/><polygon class="cls-14" points="30.78 32.08 33.98 33.73 33.98 37.41 30.78 35.75 30.78 32.08"/><polygon class="cls-8" points="61.3 38.38 75.42 31.03 75.49 31.03 75.49 54.46 61.3 61.84 61.3 38.38"/><polygon class="cls-10" points="61.3 38.38 61.3 61.84 53.49 57.78 53.49 34.35 53.52 34.33 61.3 38.38"/><polygon class="cls-9" points="75.42 31.03 61.3 38.38 53.52 34.33 67.7 26.97 75.42 31.03"/></g></g></svg>