<svg xmlns="http://www.w3.org/2000/svg" viewBox="0 0 134.12 149.2"><defs><style>.cls-1{fill:#f9ea7e;}.cls-1,.cls-10,.cls-11,.cls-12,.cls-13,.cls-14,.cls-15,.cls-16,.cls-2,.cls-3,.cls-4,.cls-5,.cls-6,.cls-7,.cls-8,.cls-9{fill-rule:evenodd;}.cls-2{fill:#4d7788;}.cls-3{fill:#729daf;}.cls-4{fill:#d6bd87;}.cls-5{fill:#fed370;}.cls-6{fill:#fff2d5;}.cls-7{fill:#a3bfcb;}.cls-8{fill:#92b5c2;}.cls-9{fill:#6193a7;}.cls-10{fill:#a6d1c3;}.cls-11{fill:#78a0b1;}.cls-12{fill:#c9dae0;}.cls-13{fill:#34433a;}.cls-14{fill:#759381;}.cls-15{fill:#8da596;}.cls-16{fill:#5c540a;}</style></defs><title>elephant</title><g id="Layer_2" data-name="Layer 2"><g id="Layer_1-2" data-name="Layer 1"><polygon class="cls-1" points="55.62 85.32 39.88 93.53 24.14 85.32 39.88 77.11 55.62 85.32"/><polygon class="cls-2" points="39.88 134.5 39.88 93.53 55.62 85.32 55.62 126.29 39.88 134.5"/><polygon class="cls-3" points="39.88 93.53 39.88 134.5 24.14 126.29 24.14 85.32 39.88 93.53"/><polygon class="cls-1" points="103.77 57.42 88.03 65.63 72.29 57.42 88.03 49.21 103.77 57.42"/><polygon class="cls-2" points="88.03 106.6 88.03 65.63 103.77 57.42 103.77 98.39 88.03 106.6"/><polygon class="cls-3" points="88.03 65.63 88.03 106.6 72.29 98.39 72.29 57.42 88.03 65.63"/><polygon class="cls-1" points="99.49 72.12 115.23 63.91 130.97 72.12 115.23 80.33 99.49 72.12"/><polygon class="cls-2" points="130.97 72.12 130.97 113.09 115.23 121.3 115.23 80.33 130.97 72.12"/><polygon class="cls-3" points="115.23 80.33 115.23 121.3 99.49 113.09 99.49 72.12 115.23 80.33"/><polygon class="cls-1" points="51.29 100.02 67.03 91.81 82.77 100.02 67.03 108.23 51.29 100.02"/><polygon class="cls-2" points="82.77 100.02 82.77 140.99 67.03 149.2 67.03 108.23 82.77 100.02"/><polygon class="cls-3" points="67.03 108.23 67.03 149.2 51.29 140.99 51.29 100.02 67.03 108.23"/><polygon class="cls-4" points="6.31 107.79 31.42 94.7 31.42 102.11 6.31 115.19 6.31 107.79"/><polygon class="cls-5" points="0 104.5 6.31 107.79 6.31 115.19 0 111.91 0 104.5"/><polygon class="cls-6" points="0 104.5 25.11 91.4 31.42 94.7 6.31 107.79 0 104.5"/><polygon class="cls-7" points="39.63 108.19 29.91 113.27 26.74 133.37 17.02 128.3 13.9 104.89 23.62 99.81 39.63 108.19"/><polygon class="cls-8" points="26.74 133.37 29.54 144.82 19.81 139.75 17.02 128.3 26.74 133.37"/><polygon class="cls-9" points="29.54 144.82 26.74 133.37 29.91 113.27 39.63 108.19 36.47 128.3 39.26 139.75 29.54 144.82"/><polygon class="cls-4" points="31.76 120.69 56.87 107.6 56.87 115.01 31.76 128.09 31.76 120.69"/><polygon class="cls-5" points="25.45 117.4 31.76 120.69 31.76 128.09 25.45 124.81 25.45 117.4"/><polygon class="cls-6" points="25.45 117.4 50.56 104.3 56.87 107.6 31.76 120.69 25.45 117.4"/><polygon class="cls-7" points="2.73 44.38 48.99 68.54 48.99 123.18 2.73 99.11 2.73 44.38"/><polygon class="cls-10" points="134.1 24.11 48.99 68.54 2.73 44.38 87.83 0 134.1 24.11"/><polygon class="cls-9" points="48.99 68.54 134.1 24.11 134.12 24.13 134.12 78.84 48.99 123.18 48.99 68.54"/><polygon class="cls-10" points="92.05 64.3 64.78 69.09 64.78 69 82.88 59.55 92.05 64.3"/><polygon class="cls-11" points="64.78 69.09 92.05 64.3 92.05 88.92 64.78 90.5 64.78 69.09"/><polygon class="cls-12" points="52.92 136.32 52.92 141.81 57.61 144.25 57.61 138.77 52.92 136.32"/><polygon class="cls-12" points="59.37 139.63 59.37 145.11 64.06 147.55 64.06 142.07 59.37 139.63"/><polygon class="cls-12" points="101.67 108.88 101.67 114.36 106.36 116.8 106.36 111.32 101.67 108.88"/><polygon class="cls-12" points="108.07 112.17 108.07 117.66 112.76 120.1 112.76 114.62 108.07 112.17"/><polygon class="cls-13" points="38.26 89.27 43.24 86.66 43.24 98.48 38.26 101.04 38.26 89.27"/><polygon class="cls-14" points="28.25 84.05 38.26 89.27 38.26 101.04 28.25 95.83 28.25 84.05"/><polygon class="cls-15" points="38.26 89.27 28.25 84.05 33.32 81.45 43.24 86.66 38.26 89.27"/><polygon class="cls-16" points="31.16 93.81 31.16 88.6 35.63 90.92 35.63 96.14 31.16 93.81"/><polygon class="cls-13" points="13.76 87.99 13.76 76.22 18.74 73.61 18.74 85.43 13.76 87.99"/><polygon class="cls-14" points="3.75 71 13.76 76.22 13.76 87.99 3.75 82.78 3.75 71"/><polygon class="cls-15" points="13.76 76.22 3.75 71 8.82 68.4 18.74 73.61 13.76 76.22"/><polygon class="cls-16" points="6.53 80.92 6.53 75.69 10.98 78.01 10.98 83.24 6.53 80.92"/></g></g></svg>