<svg xmlns="http://www.w3.org/2000/svg" viewBox="0 0 128.24 111.2"><defs><style>.cls-1{fill:#e6ab28;}.cls-1,.cls-10,.cls-11,.cls-12,.cls-13,.cls-14,.cls-15,.cls-2,.cls-3,.cls-4,.cls-5,.cls-6,.cls-7,.cls-8,.cls-9{fill-rule:evenodd;}.cls-2{fill:#f9ea7e;}.cls-3{fill:#e9d21b;}.cls-4{fill:#e8bd17;}.cls-5{fill:#dba424;}.cls-6{fill:#edc834;}.cls-7{fill:#6bafb2;}.cls-8{fill:#6ba0b3;}.cls-9{fill:#82cab9;}.cls-10{fill:#e15143;}.cls-11{fill:#b72d1e;}.cls-12{fill:#e77e3a;}.cls-13{fill:#46a9c1;}.cls-14{fill:#fff;}.cls-15{fill:#338599;}</style></defs><title>fish</title><g id="Layer_2" data-name="Layer 2"><g id="Layer_1-2" data-name="Layer 1"><polygon class="cls-1" points="104.87 12.75 112.09 16.51 112.09 42.07 112.09 67.78 104.72 64.02 104.8 38.3 104.87 12.75"/><polygon class="cls-2" points="112.09 16.51 104.87 12.75 104.72 12.75 120.87 4.44 128.08 8.04 128.08 8.2 112.09 16.51"/><polygon class="cls-3" points="112.09 16.51 128.08 8.2 120.24 37.83 128.24 59.47 112.09 67.78 112.09 42.07 112.09 16.51"/><polygon class="cls-1" points="51.16 89.3 51.16 101.8 48.76 100.55 48.76 88.05 51.16 89.3"/><polygon class="cls-2" points="48.76 88.05 51.16 86.8 81.96 70.85 84.36 72.1 51.16 89.3 48.76 88.05"/><polygon class="cls-4" points="51.16 101.8 51.16 89.3 84.36 72.1 84.36 90.75 51.16 101.8"/><polygon class="cls-2" points="115.56 31.1 56.11 50.85 41.36 43.3 41.36 43.15 100.66 23.4 115.56 31.1"/><polygon class="cls-3" points="41.36 43.3 56.11 50.85 115.56 31.1 115.56 42.4 115.56 53.65 56.11 95.85 41.36 88.3 41.36 43.3"/><polygon class="cls-1" points="26.66 66.2 26.66 111.2 11.91 103.7 11.91 58.7 26.66 66.2"/><polygon class="cls-5" points="26.66 111.2 26.66 66.2 56.26 50.85 60.21 59.95 56.26 73.25 60.21 82.5 56.26 95.85 26.66 111.2"/><polygon class="cls-6" points="26.66 66.2 11.91 58.7 41.36 43.15 56.26 50.85 26.66 66.2"/><polygon class="cls-7" points="41.23 75.43 53.02 69.29 47.04 66.22 35.36 72.36 41.23 75.43"/><polygon class="cls-8" points="53.02 69.29 41.23 75.43 41.23 89.3 53.02 83.16 53.02 69.29"/><polygon class="cls-9" points="41.23 75.43 35.36 72.36 35.36 86.28 41.23 89.3 41.23 75.43"/><polygon class="cls-9" points="44.31 77.25 44.31 83.39 49.58 80.65 49.58 74.51 44.31 77.25"/><polygon class="cls-10" points="8.42 97.48 11.87 99.2 22.22 104.54 22.84 104.85 22.84 107.98 22.22 107.67 19.71 106.42 19.08 106.11 11.87 102.34 8.42 100.62 8.42 97.48"/><polygon class="cls-11" points="22.84 107.98 22.84 104.85 22.22 104.54 11.87 99.2 8.42 97.48 11.87 95.6 22.22 100.93 26.61 103.12 26.61 106.26 22.84 107.98"/><polygon class="cls-10" points="22.84 100.2 22.84 103.33 22.22 103.02 19.71 101.77 19.08 101.45 11.87 97.69 8.42 95.97 8.42 92.83 11.87 94.56 22.22 99.89 22.84 100.2"/><polygon class="cls-11" points="22.84 103.33 22.84 100.2 26.61 98.47 26.61 101.61 22.84 103.33"/><polygon class="cls-12" points="22.84 100.2 22.22 99.89 11.87 94.56 8.42 92.83 11.87 90.95 22.22 96.28 26.61 98.47 22.84 100.2"/><polygon class="cls-1" points="78.04 82.13 60.21 72.84 60.21 77.72 78.04 87.02 78.04 82.13"/><polygon class="cls-2" points="60.21 72.84 78.04 82.13 86.97 77.49 69.12 68.17 60.21 72.84"/><polygon class="cls-3" points="78.04 87.02 86.97 82.37 86.97 77.49 78.04 82.13 78.04 87.02"/><polygon class="cls-3" points="51.16 34.3 84.36 17.1 84.36 35.75 51.16 46.8 51.16 34.3"/><polygon class="cls-1" points="51.16 34.3 51.16 46.8 48.76 45.55 48.76 33.05 51.16 34.3"/><polygon class="cls-2" points="84.36 17.1 51.16 34.3 48.76 33.05 51.16 31.8 81.96 15.85 84.36 17.1"/><polygon class="cls-13" points="0 19.31 6.13 22.5 6.13 30.32 0 27.14 0 19.31"/><polygon class="cls-14" points="13.3 18.76 6.13 22.5 0 19.31 7.18 15.56 13.3 18.76"/><polygon class="cls-15" points="6.13 22.5 13.3 18.76 13.3 26.59 6.13 30.32 6.13 22.5"/><polygon class="cls-13" points="16.03 47.18 18.55 48.49 18.55 51.7 16.03 50.39 16.03 47.18"/><polygon class="cls-14" points="21.49 46.96 18.55 48.49 16.03 47.18 18.98 45.65 21.49 46.96"/><polygon class="cls-15" points="18.55 48.49 21.49 46.96 21.49 50.17 18.55 51.7 18.55 48.49"/><polygon class="cls-13" points="17.11 1.55 19.61 2.85 19.61 6.05 17.11 4.75 17.11 1.55"/><polygon class="cls-14" points="19.61 2.85 17.11 1.55 20.01 0 22.56 1.3 19.61 2.85"/><polygon class="cls-15" points="19.61 6.05 19.61 2.85 22.56 1.3 22.56 4.5 19.61 6.05"/><polygon class="cls-14" points="47.7 75.48 44.28 77.26 44.28 81.24 47.7 79.46 47.7 75.48"/></g></g></svg>