<svg xmlns="http://www.w3.org/2000/svg" viewBox="0 0 155.8 91.3"><defs><style>.cls-1{fill:#754c24;}.cls-1,.cls-11,.cls-12,.cls-13,.cls-14,.cls-15,.cls-16,.cls-17,.cls-18,.cls-2,.cls-3,.cls-4,.cls-5,.cls-6,.cls-7,.cls-8,.cls-9{fill-rule:evenodd;}.cls-2{fill:#474747;}.cls-3{fill:#1a1a1a;}.cls-4{fill:#333;}.cls-5{fill:#666;}.cls-6{fill:#4d4d4d;}.cls-7{fill:#6b6b6b;}.cls-8{fill:#db9c6d;}.cls-10,.cls-9{fill:#9c6239;}.cls-11{fill:#be7c52;}.cls-12{fill:#884c24;}.cls-13{fill:#ab6239;}.cls-14,.cls-16{fill:#e6e6e6;}.cls-14{opacity:0.8;}.cls-15,.cls-17{fill:#b3b3b3;}.cls-15{opacity:0.8;}.cls-16{opacity:0.8;}.cls-17{opacity:0.8;}.cls-18{fill:#ccc;}</style></defs><title>fly</title><g id="Layer_2" data-name="Layer 2"><g id="Layer_3" data-name="Layer 3"><polygon class="cls-1" points="3.89 70.81 9.8 73.41 15.71 76.01 22.71 76.43 29.7 76.85 32.84 77.3 10.43 76.01 6.84 73.56 3.89 70.81"/><polygon class="cls-2" points="48.39 72.82 52.67 75.19 52.82 78.28 48.39 76.05 48.39 72.82"/><polygon class="cls-3" points="52.67 75.19 56.46 72.56 56.46 76.1 52.82 78.28 52.67 75.19"/><polygon class="cls-4" points="56.46 72.56 52.67 75.19 48.39 72.82 53.76 71.15 56.46 72.56"/><polygon class="cls-2" points="30.81 77.24 35.1 79.61 35.24 82.7 30.81 80.47 30.81 77.24"/><polygon class="cls-3" points="35.1 79.61 38.88 76.98 38.88 80.52 35.24 82.7 35.1 79.61"/><polygon class="cls-4" points="38.88 76.98 35.1 79.61 30.81 77.24 36.18 75.57 38.88 76.98"/><polygon class="cls-5" points="80.68 43.55 46.91 54.31 30.81 45.75 60.37 34.39 80.68 43.55"/><polygon class="cls-6" points="45.07 76.01 46.91 54.31 80.68 43.55 87.38 64.18 45.07 76.01"/><polygon class="cls-6" points="46.91 54.31 32.85 59.07 32.84 59.07 32.84 77.3 17.7 69.43 17.7 51.16 30.81 45.75 46.91 54.31"/><polygon class="cls-4" points="32.84 77.3 32.84 59.07 32.85 59.07 46.91 54.31 45.07 76.01 32.84 77.34 32.84 77.3"/><polygon class="cls-7" points="3.89 62.3 15.71 67.73 15.71 76.01 3.89 70.81 3.89 62.3"/><polygon class="cls-7" points="15.71 67.73 32.84 59.07 32.84 77.3 15.71 76.01 15.71 67.73"/><polygon class="cls-7" points="15.71 67.73 3.89 62.3 17.7 51.16 32.84 59.07 15.71 67.73"/><path class="cls-4" d="M80.68,43.55l19.25-6.62,4.93-1.09,4.83,6.8-3.41,14.83L95.16,61.31l-7.78,2.87Z"/><polygon class="cls-6" points="99.94 36.93 80.68 43.55 60.37 34.39 77.54 30.31 99.94 36.93"/><polygon class="cls-5" points="92.99 29.88 104.86 35.84 99.94 36.93 77.54 30.31 92.99 29.88"/><polygon class="cls-2" points="47.36 62.01 53.87 66.51 53.85 70.41 47.3 66.51 47.36 62.01"/><polygon class="cls-4" points="51.64 65.12 47.36 62.01 51.26 60.74 54.93 64.18 51.64 65.12"/><polygon class="cls-2" points="56.45 89.14 51.1 86.36 53.77 84.73 53.87 66.51 56.45 68.13 56.45 83.73 56.45 89.14"/><polygon class="cls-3" points="58.57 67.48 59.18 87.45 56.45 89.14 56.45 83.73 56.45 68.13 58.57 67.48"/><polygon class="cls-4" points="51.64 65.12 54.93 64.18 58.57 67.48 56.45 68.13 51.64 65.12"/><polygon class="cls-2" points="48.39 85.84 52.67 88.21 52.82 91.3 48.39 89.07 48.39 85.84"/><polygon class="cls-3" points="52.67 88.21 56.46 85.58 56.46 89.12 52.82 91.3 52.67 88.21"/><polygon class="cls-4" points="56.46 85.58 52.67 88.21 48.39 85.84 53.76 84.17 56.46 85.58"/><polygon class="cls-2" points="66.42 56.98 72.93 61.48 72.91 65.38 66.36 61.48 66.42 56.98"/><polygon class="cls-4" points="70.7 60.09 66.42 56.98 70.32 55.71 73.99 59.15 70.7 60.09"/><polygon class="cls-2" points="75.52 84.11 70.16 81.33 72.84 79.7 72.93 61.48 75.52 63.09 75.52 78.7 75.52 84.11"/><polygon class="cls-3" points="77.63 62.45 78.24 82.42 75.52 84.11 75.52 78.7 75.52 63.09 77.63 62.45"/><polygon class="cls-4" points="70.7 60.09 73.99 59.15 77.63 62.45 75.52 63.09 70.7 60.09"/><polygon class="cls-2" points="67.45 80.81 71.74 83.18 71.88 86.27 67.45 84.04 67.45 80.81"/><polygon class="cls-3" points="71.74 83.18 75.53 80.55 75.53 84.09 71.88 86.27 71.74 83.18"/><polygon class="cls-4" points="75.53 80.55 71.74 83.18 67.45 80.81 72.82 79.13 75.53 80.55"/><polygon class="cls-2" points="75.98 55.32 90.39 58.22 90.38 62.12 75.98 60.09 75.98 55.32"/><polygon class="cls-4" points="90.39 58.22 75.98 55.32 80.15 54.31 91.46 55.89 90.39 58.22"/><polyline class="cls-2" points="90.3 76.44 90.39 58.22 92.98 59.83 92.98 75.44 92.98 80.85"/><polygon class="cls-3" points="95.1 59.19 95.71 79.16 92.98 80.85 92.98 75.44 92.98 59.83 95.1 59.19"/><polygon class="cls-4" points="90.39 58.22 91.46 55.89 95.1 59.19 92.98 59.83 90.39 58.22"/><polygon class="cls-2" points="84.92 77.55 89.2 79.92 89.35 83.01 84.92 80.78 84.92 77.55"/><polygon class="cls-3" points="89.2 79.92 92.99 77.29 92.99 80.83 89.35 83.01 89.2 79.92"/><polygon class="cls-4" points="92.99 77.29 89.2 79.92 84.92 77.55 90.29 75.87 92.99 77.29"/><polygon class="cls-8" points="15.5 58.82 21.15 59.96 27.91 58.64 23.85 57.47 15.5 58.82"/><polyline class="cls-9" points="11.51 70.78 18.07 76.29 22.6 76.37 20.45 69.3"/><line class="cls-10" x1="20.45" y1="69.3" x2="11.51" y2="70.78"/><polyline class="cls-11" points="21.35 62.93 26.09 66.02 31.33 64.97 35 64.23 27.91 58.64 21.15 59.96 15.5 58.82 13.59 60.06"/><polyline class="cls-12" points="20.45 69.3 22.6 76.37 32.77 72.65 35.96 69.72 35 64.23 26.09 66.02"/><polygon class="cls-8" points="4.12 53.25 10.05 54.28 17.7 51.16 9.8 50.71 4.12 53.25"/><polyline class="cls-13" points="17.7 51.16 10.05 54.28 4.12 53.25 1.9 54.31 0 60.44 3.89 65.38"/><polygon class="cls-14" points="116.68 17.9 38.13 44.77 45.93 29.71 90.3 0 116.68 17.9"/><polygon class="cls-15" points="116.73 19.41 38.17 46.05 38.13 44.77 116.68 17.9 116.73 19.41"/><polygon class="cls-16" points="155.8 31.98 81.68 46.88 45.79 48.02 120.91 25.29 155.8 31.98"/><polygon class="cls-17" points="155.8 33.51 81.63 48.19 81.68 46.88 155.8 31.98 155.8 33.51"/><polygon class="cls-18" points="81.63 48.19 45.75 49.26 45.79 48.02 81.68 46.88 81.63 48.19"/><polygon class="cls-8" points="16.48 66.21 20.45 69.3 26.09 66.02 21.35 62.93 16.48 66.21"/><polygon class="cls-12" points="10.91 65.52 11.51 70.78 20.45 69.3 16.48 66.21 10.91 65.52"/><polyline class="cls-9" points="13.59 60.06 10.91 65.52 16.48 66.21 21.35 62.93"/><polygon class="cls-12" points="21.15 59.96 21.35 62.93 26.09 66.02 27.91 58.64 21.15 59.96"/><polygon class="cls-12" points="1.9 54.31 0 60.44 3.89 65.38 9.04 60.06 1.9 54.31"/></g></g></svg>