<svg xmlns="http://www.w3.org/2000/svg" xmlns:xlink="http://www.w3.org/1999/xlink" viewBox="0 0 110 109.91"><defs><style>.cls-1{stroke:#c83b1c;stroke-miterlimit:10;stroke-width:10px;fill:url(#linear-gradient);}.cls-2{fill:#fff;}</style><linearGradient id="linear-gradient" x1="4.83" y1="97.05" x2="105.17" y2="12.86" gradientUnits="userSpaceOnUse"><stop offset="0" stop-color="#ff4c24"/><stop offset="0.47" stop-color="#f64923"/><stop offset="1" stop-color="#e54420"/></linearGradient></defs><title>forward</title><g id="Layer_2" data-name="Layer 2"><g id="Layer_2-2" data-name="Layer 2"><rect class="cls-1" x="5" y="5" width="100" height="99.91" rx="12" ry="12"/><g id="Layer_2-3" data-name="Layer 2"><g id="Layer_2-2-2" data-name="Layer 2-2"><path class="cls-2" d="M27.74,51.52a1.33,1.33,0,0,0,1.22.81H43.24v32.6a1.3,1.3,0,0,0,1.3,1.3H65.41a1.3,1.3,0,0,0,1.3-1.3V52.33H81.06A1.31,1.31,0,0,0,82.36,51,1.34,1.34,0,0,0,82,50.1L56,24a1.32,1.32,0,0,0-1.84,0L28,50.1A1.31,1.31,0,0,0,27.74,51.52Z"/></g></g></g></g></svg>