<svg xmlns="http://www.w3.org/2000/svg" viewBox="0 0 163.61 97.3"><defs><style>.cls-1{fill:#838341;}.cls-1,.cls-10,.cls-11,.cls-12,.cls-13,.cls-14,.cls-15,.cls-16,.cls-17,.cls-18,.cls-19,.cls-2,.cls-20,.cls-3,.cls-4,.cls-5,.cls-6,.cls-7,.cls-8,.cls-9{fill-rule:evenodd;}.cls-2{fill:#525e33;}.cls-3{fill:#81913c;}.cls-4{fill:#426831;}.cls-5{fill:#4d7a38;}.cls-6{fill:#818e35;}.cls-7{fill:#457529;}.cls-8{fill:#84a323;}.cls-9{fill:#6e8e36;}.cls-10{fill:#a7873f;}.cls-11{fill:#737d46;}.cls-12{fill:#c45b43;}.cls-13{fill:#c64720;}.cls-14{fill:#d84725;}.cls-15{fill:#8e2f19;}.cls-16{fill:#83a530;}.cls-17{fill:#f4f2f0;}.cls-18{fill:#c1b5a4;}.cls-19{fill:#e3dcd7;}.cls-20{fill:#333;}</style></defs><title>frog</title><g id="Layer_2" data-name="Layer 2"><g id="Layer_3" data-name="Layer 3"><polygon class="cls-1" points="34.9 85.48 16.56 75.98 16.56 68.84 46.68 56.94 57.57 62.66 34.9 78.37 34.9 85.48"/><polygon class="cls-2" points="34.9 85.48 34.9 78.37 57.57 62.66 57.57 69.72 34.9 85.48"/><polygon class="cls-3" points="66.34 45.67 23.63 65.82 15.76 61.74 58.47 41.55 66.34 45.67"/><polygon class="cls-4" points="34.86 80.68 23.63 65.82 66.34 45.67 66.34 64.28 54.55 80.68 34.86 80.68"/><polygon class="cls-5" points="23.63 65.82 34.86 80.68 26.95 76.56 15.71 61.74 15.76 61.74 23.63 65.82"/><polygon class="cls-6" points="95.55 10.48 66.45 29.26 66.41 29.26 66.41 68.52 33.82 51.57 33.82 12.23 76.35 2.29 95.55 10.48"/><polygon class="cls-7" points="66.41 68.52 66.41 29.26 66.45 29.26 95.55 10.48 96.82 61.12 66.41 68.6 66.41 68.52"/><polygon class="cls-6" points="0 39.57 22.06 51.69 20.02 65.88 0 55.39 0 39.57"/><polygon class="cls-7" points="22.06 51.69 66.41 29.26 66.41 68.52 20.02 65.88 22.06 51.69"/><polygon class="cls-8" points="22.06 51.69 0 39.51 33.82 12.23 66.41 29.26 22.06 51.69"/><path class="cls-7" d="M95.55,10.48H125l10.79,22.2L120.34,43.94,96.82,61.12Z"/><polygon class="cls-9" points="125 10.48 95.55 10.48 76.35 2.29 103.84 0 125 10.48"/><polygon class="cls-1" points="90.85 84.47 82.12 79.93 82.12 75.65 82.12 45.68 90.85 50.21 90.85 75.65 90.85 84.47"/><polygon class="cls-2" points="99.55 47.57 99.55 75.65 99.55 79.93 90.85 84.47 90.85 75.65 90.85 50.21 99.55 47.57"/><polygon class="cls-10" points="82.12 45.68 90.85 43.03 99.55 47.57 90.85 50.21 82.12 45.68"/><polygon class="cls-1" points="57.39 83.72 72.35 91.5 72.35 97.3 57.39 89.52 57.39 83.72"/><polygon class="cls-2" points="72.35 91.5 90.87 78.66 90.87 84.43 72.35 97.3 72.35 91.5"/><polygon class="cls-10" points="90.87 78.66 72.35 91.5 57.39 83.72 81.99 74 90.87 78.66"/><polygon class="cls-1" points="73.71 50.09 82.44 54.66 82.44 64.62 73.71 60.05 73.71 51.98 73.71 50.09"/><polygon class="cls-2" points="82.44 64.62 82.44 54.66 90.85 50.25 90.85 60.2 82.44 64.62"/><polygon class="cls-10" points="82.44 54.66 73.71 50.09 82.12 45.68 90.85 50.25 82.44 54.66"/><polygon class="cls-1" points="111.49 35.29 121.27 40.41 135.84 23.55 135.84 35.12 121.27 51.94 111.49 46.86 111.49 35.29"/><polygon class="cls-11" points="135.84 23.55 121.27 40.41 111.49 35.29 126.06 18.43 135.84 23.55"/><polygon class="cls-1" points="119.39 54.15 139.16 64.42 139.16 72.09 119.39 61.81 119.39 54.15"/><polygon class="cls-2" points="139.16 64.42 163.62 47.47 163.62 55.09 139.16 72.09 139.16 64.42"/><polygon class="cls-11" points="163.62 47.47 139.16 64.42 119.39 54.15 151.88 41.32 163.62 47.47"/><polygon class="cls-1" points="157.99 41.16 122.4 40.95 122.4 53.81 111.49 48.15 111.49 35.29 147.08 35.45 157.99 41.16"/><polygon class="cls-2" points="122.4 53.81 122.4 40.95 157.99 41.16 157.99 50.69 122.4 53.81"/><polygon class="cls-12" points="49.85 54.16 53.81 56.22 53.81 65.55 49.84 63.48 49.84 54.17 49.85 54.16"/><polygon class="cls-13" points="53.81 65.55 53.81 56.22 61.68 48.99 69.59 47.99 69.59 57.32 62.08 63.9 53.81 65.55"/><polygon class="cls-14" points="57.75 46.92 61.68 48.99 53.81 56.22 49.85 54.16 57.75 46.92"/><polygon class="cls-15" points="61.68 48.99 57.75 46.92 65.65 45.92 69.59 47.99 61.68 48.99"/><polygon class="cls-3" points="44.25 40.49 38.88 37.24 41.09 32.91 45.58 35.33 44.25 40.49"/><polygon class="cls-7" points="45.57 35.32 56.02 29.4 59.77 32.61 44.24 40.48 45.57 35.32"/><polygon class="cls-16" points="41.09 32.91 51.49 27 56.03 29.41 45.58 35.33 41.09 32.91"/><polygon class="cls-17" points="47.99 37.05 51.63 38.95 58.95 35.14 55.24 33.23 47.99 37.05"/><polygon class="cls-18" points="47.99 37.05 47.99 45.7 51.63 47.57 51.63 38.95 47.99 37.05"/><polygon class="cls-19" points="51.63 38.95 51.63 47.57 58.95 43.76 58.95 35.14 51.63 38.95"/><polygon class="cls-20" points="56.99 42.49 56.99 38.68 53.72 40.38 53.72 44.19 56.99 42.49"/><polygon class="cls-3" points="23.49 28.14 18.12 24.89 20.33 20.56 24.82 22.97 23.49 28.14"/><polygon class="cls-5" points="24.82 22.97 33.73 15.94 37.06 19.52 23.49 28.14 24.82 22.97"/><polygon class="cls-16" points="20.33 20.56 29.2 13.9 33.73 15.94 24.82 22.97 20.33 20.56"/></g></g></svg>