<svg xmlns="http://www.w3.org/2000/svg" viewBox="0 0 108.66 159.88"><defs><style>.cls-1{fill:#e6ab28;}.cls-1,.cls-10,.cls-11,.cls-12,.cls-13,.cls-14,.cls-2,.cls-3,.cls-4,.cls-5,.cls-6,.cls-7,.cls-8,.cls-9{fill-rule:evenodd;}.cls-2{fill:#f9ea7e;}.cls-3{fill:#e9d21b;}.cls-4{fill:#beb5af;}.cls-5{fill:#ece9e8;}.cls-6{fill:#ddd8d5;}.cls-7{fill:#a99c9a;}.cls-8{fill:#e48323;}.cls-9{fill:#f4f2f0;}.cls-10{fill:#c1b5a4;}.cls-11{fill:#e3dcd7;}.cls-12{fill:#333;}.cls-13{fill:#aea29d;}.cls-14{fill:#c6bcb9;}</style></defs><title>goose</title><g id="Layer_2" data-name="Layer 2"><g id="Layer_1-2" data-name="Layer 1"><polygon class="cls-1" points="56.02 153.54 80.94 140.55 80.94 146.88 56.02 159.88 56.02 153.54"/><polygon class="cls-2" points="80.94 140.55 56.02 153.54 39.64 145.02 64.62 132 80.94 140.54 80.94 140.55"/><polygon class="cls-3" points="39.64 145.02 56.02 153.54 56.02 159.88 39.64 151.36 39.64 145.02"/><polygon class="cls-1" points="28.02 139.24 52.94 126.25 52.94 132.58 28.02 145.58 28.02 139.24"/><polygon class="cls-2" points="52.94 126.25 28.02 139.24 11.64 130.72 36.62 117.7 52.94 126.24 52.94 126.25"/><polygon class="cls-3" points="11.64 130.72 28.02 139.24 28.02 145.58 11.64 137.06 11.64 130.72"/><polygon class="cls-1" points="65.19 143.38 65.19 121.33 71.38 118.11 71.38 140.15 65.19 143.38"/><polygon class="cls-2" points="71.38 118.11 65.19 121.33 58.99 118.11 65.19 114.86 71.38 118.11"/><polygon class="cls-3" points="65.19 121.33 65.19 143.38 58.99 140.15 58.99 118.11 65.19 121.33"/><polygon class="cls-4" points="46.57 130.69 46.57 87.9 93.23 63.57 93.23 112.54 52.47 133.76 46.57 130.69"/><polygon class="cls-5" points="93.23 63.57 46.57 87.9 5.07 66.29 51.85 41.9 108.66 33.84 93.23 63.57"/><polygon class="cls-6" points="46.57 87.9 46.57 130.69 5.07 109.15 5.07 66.29 46.57 87.9"/><polygon class="cls-7" points="93.23 112.54 93.23 63.57 108.66 33.84 93.23 112.54"/><polygon class="cls-4" points="32.43 80.53 32.43 33.08 19.08 26.15 32.43 19.19 45.75 26.15 45.75 73.57 32.43 80.53"/><polygon class="cls-6" points="32.43 80.53 19.08 73.57 19.08 26.15 32.43 33.08 32.43 80.53"/><polygon class="cls-4" points="48.22 8.23 32.46 16.43 32.46 35.01 48.22 26.82 48.22 8.23"/><polygon class="cls-5" points="48.22 8.23 32.46 0 16.74 8.23 32.46 16.43 48.22 8.23"/><polygon class="cls-6" points="32.46 16.43 16.74 8.23 16.74 26.82 32.46 35.01 32.46 16.43"/><polygon class="cls-8" points="0 30.16 9.93 35.32 29.75 17.92 29.75 29.63 9.93 39.96 0 34.8 0 30.16"/><polygon class="cls-1" points="29.75 17.92 9.93 35.32 0 30.16 19.84 12.73 29.75 17.92"/><polygon class="cls-9" points="34.32 18.28 36.35 19.34 40.44 17.21 38.37 16.15 34.32 18.28"/><polygon class="cls-10" points="34.32 18.28 34.32 23.11 36.35 24.15 36.35 19.34 34.32 18.28"/><polygon class="cls-11" points="36.35 19.34 36.35 24.15 40.44 22.02 40.44 17.21 36.35 19.34"/><polygon class="cls-12" points="39.26 21.28 39.26 19.15 37.44 20.1 37.44 22.23 39.26 21.28"/><polygon class="cls-5" points="82.66 83.71 59.42 95.81 49.09 90.44 90.34 68.9 82.66 83.71"/><polygon class="cls-6" points="59.42 95.81 59.42 120.21 49.09 114.84 49.09 90.44 59.42 95.81"/><polygon class="cls-13" points="82.66 108.11 82.66 83.71 90.34 68.9 82.66 108.11"/><polygon class="cls-14" points="82.66 108.11 59.42 120.21 59.42 95.81 82.66 83.71 82.66 108.11"/></g></g></svg>