<svg xmlns="http://www.w3.org/2000/svg" viewBox="0 0 147.66 135.25"><defs><style>.cls-1{fill:#22b573;}.cls-1,.cls-2,.cls-3,.cls-4{fill-rule:evenodd;}.cls-2{fill:#006837;}.cls-3{fill:#009245;}.cls-4{fill:#39b54a;}</style></defs><title>grass</title><g id="Layer_2" data-name="Layer 2"><g id="Layer_2-2" data-name="Layer 2"><polygon class="cls-1" points="35.68 134.18 24.67 133.74 0 0 2.18 8.21 35.68 134.18"/><polygon class="cls-2" points="42.08 130.13 35.68 134.18 0 0 0 0 42.08 130.13"/><polygon class="cls-1" points="96.68 132.04 104.92 131.72 96.68 25.75 96.68 25.75 96.68 132.04"/><polygon class="cls-2" points="91.9 129.01 96.68 132.04 96.68 25.75 95.75 28.94 91.9 129.01"/><polygon class="cls-3" points="30.04 4.89 29.68 9.04 18.73 134.59 23.66 131.09 30.04 4.89"/><polygon class="cls-2" points="30.04 4.89 28.51 10.14 11.51 134.59 18.73 134.59 30.04 4.89"/><polygon class="cls-3" points="59.63 4.95 59.27 9.1 48.32 134.64 53.25 131.14 59.63 4.95"/><polygon class="cls-4" points="59.63 4.95 58.1 10.2 41.1 134.64 48.32 134.64 59.63 4.95"/><polygon class="cls-3" points="38.52 45.14 38.56 47.98 39.55 133.91 36.38 131.27 38.52 45.14"/><polygon class="cls-2" points="38.52 45.14 39.3 48.78 44.46 134.28 39.55 133.91 38.52 45.14"/><polygon class="cls-4" points="21.04 8.43 20.78 12.83 33.73 134.9 40.95 134.9 21.04 8.43"/><polygon class="cls-3" points="21.04 8.43 22.08 15.07 40.95 134.9 45.88 131.4 21.04 8.43"/><polygon class="cls-4" points="63.72 54.85 63.74 57.23 64.58 129.48 61.91 127.27 63.72 54.85"/><polygon class="cls-2" points="63.72 54.85 64.36 57.91 68.71 129.79 64.58 129.48 63.72 54.85"/><polygon class="cls-4" points="93.94 1.21 94.4 5.83 80.04 134.85 70.31 135.08 93.94 1.21"/><polygon class="cls-3" points="93.94 1.21 92.69 8.23 70.31 135.08 63.57 131.55 93.94 1.21"/><polygon class="cls-2" points="48.53 33.97 48.32 37.46 58.6 134.28 64.33 134.28 48.53 33.97"/><polygon class="cls-3" points="48.53 33.97 49.36 39.23 64.33 134.28 68.23 131.5 48.53 33.97"/><polygon class="cls-3" points="115.43 4.79 115.79 8.94 126.74 134.49 121.81 130.98 115.43 4.79"/><polygon class="cls-2" points="115.43 4.79 116.96 10.04 133.96 134.49 126.74 134.49 115.43 4.79"/><polygon class="cls-3" points="81.41 10.2 81.75 14.18 91.78 134.64 87.26 131.28 81.41 10.2"/><polygon class="cls-4" points="81.41 10.2 82.82 15.24 98.41 134.64 91.78 134.64 81.41 10.2"/><polygon class="cls-3" points="106.94 45.03 106.91 47.88 105.92 133.8 109.09 131.17 106.94 45.03"/><polygon class="cls-2" points="106.94 45.03 106.17 48.68 101.01 134.18 105.92 133.8 106.94 45.03"/><polygon class="cls-4" points="126.62 8.33 126.89 12.73 113.93 134.8 106.71 134.8 126.62 8.33"/><polygon class="cls-3" points="126.62 8.33 125.58 14.97 106.71 134.8 101.78 131.3 126.62 8.33"/><polygon class="cls-4" points="79.69 54.9 79.66 57.29 78.83 129.53 81.49 127.32 79.69 54.9"/><polygon class="cls-2" points="79.69 54.9 79.04 57.97 74.7 129.85 78.83 129.53 79.69 54.9"/><polygon class="cls-2" points="96.94 33.87 97.14 37.36 86.87 134.18 81.14 134.18 96.94 33.87"/><polygon class="cls-3" points="96.94 33.87 96.11 39.13 81.14 134.18 77.24 131.4 96.94 33.87"/><polygon class="cls-1" points="56.3 134.28 59.23 133.52 48.83 100.6 48.83 100.6 56.3 134.28"/><polygon class="cls-2" points="54.37 133.7 56.3 134.28 48.83 100.6 48.72 101.68 54.37 133.7"/><polygon class="cls-1" points="114.74 134.86 117.75 135.25 120.42 100.83 120.42 100.83 114.74 134.86"/><polygon class="cls-2" points="113.17 133.6 114.74 134.86 120.42 100.83 119.92 101.8 113.17 133.6"/><polygon class="cls-1" points="118.41 134.64 127.44 134.29 147.66 24.66 145.87 31.39 118.41 134.64"/><polygon class="cls-2" points="113.17 131.33 118.41 134.64 147.66 24.66 147.66 24.66 113.17 131.33"/><polygon class="cls-4" points="99.25 98.7 99.27 99.84 99.67 134.49 98.39 133.43 99.25 98.7"/><polygon class="cls-2" points="99.25 98.7 99.56 100.17 101.65 134.64 99.67 134.49 99.25 98.7"/></g></g></svg>