<svg xmlns="http://www.w3.org/2000/svg" viewBox="0 0 43.66 125.3"><defs><style>.cls-1{fill:#c4a41c;}.cls-1,.cls-2,.cls-3,.cls-4,.cls-5,.cls-6{fill-rule:evenodd;}.cls-2{fill:#f7d51e;}.cls-3{fill:#e5bf1f;}.cls-4{fill:#754c24;}.cls-5{fill:#a67c52;}.cls-6{fill:#8c6239;}</style></defs><title>hay</title><g id="Layer_2" data-name="Layer 2"><g id="Layer_2-2" data-name="Layer 2"><polygon class="cls-1" points="38.17 90.86 21.86 99.33 21.79 125.3 43.66 113.85 38.17 90.86"/><polygon class="cls-2" points="38.16 90.86 21.84 82.33 5.55 90.86 21.84 99.35 38.16 90.86"/><polygon class="cls-3" points="21.86 99.33 5.55 90.86 0 113.95 21.79 125.3 21.86 99.33"/><polygon class="cls-1" points="31.72 75.76 21.82 80.9 21.78 96.66 38.06 88.13 31.72 75.76"/><polygon class="cls-2" points="31.71 75.76 21.81 70.58 11.93 75.76 21.81 80.91 31.71 75.76"/><polygon class="cls-3" points="21.82 80.9 11.93 75.76 5.5 88.18 21.78 96.66 21.82 80.9"/><polygon class="cls-4" points="31.71 61.95 21.83 67.09 21.83 78.74 31.71 73.61 31.71 61.95"/><polygon class="cls-5" points="31.71 61.95 21.83 56.78 11.97 61.95 21.83 67.09 31.71 61.95"/><polygon class="cls-6" points="21.83 67.09 11.97 61.95 11.97 73.61 21.83 78.74 21.83 67.09"/><polygon class="cls-1" points="38.06 40.57 21.82 49.02 21.82 64.7 31.71 59.56 38.06 40.57"/><polygon class="cls-2" points="38.04 40.55 21.78 31.93 5.5 40.49 21.78 49.01 38.04 40.55"/><polygon class="cls-3" points="21.82 49 5.5 40.49 11.97 59.55 21.82 64.69 21.82 49"/><polygon class="cls-1" points="41.73 10.79 21.82 21.54 21.82 45.91 38.07 37.14 41.73 10.79"/><polygon class="cls-2" points="41.73 10.79 21.82 0 1.95 10.79 21.82 21.54 41.73 10.79"/><polygon class="cls-3" points="21.82 21.54 1.95 10.79 5.62 37.15 21.82 45.91 21.82 21.54"/><polygon class="cls-3" points="9 10.77 6.46 9.39 3.93 10.77 6.46 12.14 9 10.77"/><polygon class="cls-3" points="19.14 5.28 16.61 3.9 14.07 5.28 16.61 6.65 19.14 5.28"/><polygon class="cls-3" points="24.35 2.53 21.81 1.15 19.28 2.53 21.81 3.9 24.35 2.53"/><polygon class="cls-3" points="14.07 8.03 11.53 6.65 9 8.03 11.53 9.39 14.07 8.03"/><polygon class="cls-3" points="14.07 13.52 11.53 12.14 9 13.52 11.53 14.89 14.07 13.52"/><polygon class="cls-3" points="24.22 8.03 21.68 6.65 19.14 8.03 21.68 9.39 24.22 8.03"/><polygon class="cls-3" points="29.43 5.28 26.89 3.9 24.35 5.28 26.89 6.65 29.43 5.28"/><polygon class="cls-3" points="19.14 10.77 16.61 9.39 14.07 10.77 16.61 12.14 19.14 10.77"/><polygon class="cls-3" points="19.14 16.27 16.61 14.89 14.07 16.27 16.61 17.64 19.14 16.27"/><polygon class="cls-3" points="29.29 10.77 26.75 9.39 24.22 10.77 26.75 12.14 29.29 10.77"/><polygon class="cls-3" points="34.5 8.03 31.96 6.65 29.43 8.03 31.96 9.39 34.5 8.03"/><polygon class="cls-3" points="24.22 13.52 21.68 12.14 19.14 13.52 21.68 14.89 24.22 13.52"/><polygon class="cls-3" points="24.22 19.01 21.68 17.64 19.14 19.01 21.68 20.38 24.22 19.01"/><polygon class="cls-3" points="34.37 13.52 31.82 12.14 29.29 13.52 31.82 14.89 34.37 13.52"/><polygon class="cls-3" points="39.57 10.77 37.03 9.39 34.5 10.77 37.03 12.14 39.57 10.77"/><polygon class="cls-3" points="29.29 16.27 26.75 14.89 24.22 16.27 26.75 17.64 29.29 16.27"/></g></g></svg>