<svg xmlns="http://www.w3.org/2000/svg" viewBox="0 0 112.02 150.02"><defs><style>.cls-1{fill:#452f21;}.cls-1,.cls-10,.cls-11,.cls-12,.cls-13,.cls-14,.cls-15,.cls-16,.cls-17,.cls-18,.cls-19,.cls-2,.cls-3,.cls-4,.cls-5,.cls-6,.cls-7,.cls-8,.cls-9{fill-rule:evenodd;}.cls-2{fill:#784d3a;}.cls-4{fill:#773911;}.cls-5{fill:#c9611d;}.cls-6{fill:#d0c8bf;}.cls-7{fill:#ac9c8e;}.cls-8{fill:#e9d21b;}.cls-9{fill:#e6ab28;}.cls-10{fill:#e88f51;}.cls-11{fill:#452c21;}.cls-12{fill:#f9ea7e;}.cls-13{fill:#a44f17;}.cls-14{fill:#f3c9ad;}.cls-15{fill:#a29180;}.cls-16{fill:#776255;}.cls-17{fill:#5f4a43;}.cls-18{fill:#3c332b;}.cls-19{fill:#41332e;}</style></defs><title>horse</title><g id="Layer_2" data-name="Layer 2"><g id="Layer_1-2" data-name="Layer 1"><polygon class="cls-1" points="112.02 32.74 112.02 77.17 104.71 81.05 104.71 36.52 112.02 32.74"/><polygon class="cls-2" points="104.71 81.05 97.37 77.17 97.37 32.74 104.71 28.89 112.02 32.74 104.71 36.52 104.71 81.05"/><polygon class="cls-1" points="98.22 121.72 98.22 119 98.22 115.34 90.89 111.57 98.22 107.7 105.54 111.57 105.54 115.13 105.54 117.85 98.22 121.72"/><polygon class="cls-3" points="90.89 111.57 98.22 115.34 98.22 119 98.22 121.72 90.89 117.85 90.89 115.13 90.89 111.57"/><polygon class="cls-4" points="98.09 99.41 90.78 95.53 90.78 51.1 98.09 54.88 98.09 99.41"/><polygon class="cls-5" points="105.43 95.53 98.09 99.41 98.09 54.88 90.78 51.1 98.09 47.25 105.43 51.1 105.43 95.53"/><polygon class="cls-6" points="98.09 115.43 98.09 99.41 105.43 95.53 105.43 111.58 98.09 115.43"/><polygon class="cls-7" points="90.78 95.53 98.09 99.41 98.09 115.43 90.78 111.58 90.78 95.53"/><polygon class="cls-1" points="78.92 110.87 78.92 108.15 78.92 104.49 71.59 100.72 78.92 96.85 86.24 100.72 86.24 104.28 86.24 107 78.92 110.87"/><polygon class="cls-3" points="71.59 100.72 78.92 104.49 78.92 108.15 78.92 110.87 71.59 107 71.59 104.28 71.59 100.72"/><polygon class="cls-8" points="86.12 84.7 78.78 88.58 78.78 44.05 71.47 40.27 78.78 36.42 86.12 40.27 86.12 84.7"/><polygon class="cls-9" points="71.47 40.27 78.78 44.05 78.78 88.58 71.47 84.7 71.47 40.27"/><polygon class="cls-7" points="78.78 104.6 71.47 100.75 71.47 84.7 78.78 88.58 78.78 104.6"/><polygon class="cls-6" points="86.12 84.7 86.12 100.75 78.78 104.6 78.78 88.58 86.12 84.7"/><polygon class="cls-1" points="44.81 150.02 44.81 147.3 44.81 143.64 37.49 139.87 44.81 136 52.14 139.87 52.14 143.43 52.14 146.15 44.81 150.02"/><polygon class="cls-3" points="37.49 139.87 44.81 143.64 44.81 147.3 44.81 150.02 37.49 146.15 37.49 143.43 37.49 139.87"/><polygon class="cls-4" points="37.35 123.84 37.35 40.27 44.66 44.05 44.66 127.72 37.35 123.84"/><polygon class="cls-5" points="52 123.84 44.66 127.72 44.66 44.05 37.35 40.27 44.66 36.42 52 40.27 52 123.84"/><polygon class="cls-6" points="44.66 143.74 44.66 127.72 52 123.84 52 139.89 44.66 143.74"/><polygon class="cls-7" points="37.35 123.84 44.66 127.72 44.66 143.74 37.35 139.89 37.35 123.84"/><polygon class="cls-1" points="25.47 139.22 25.47 136.5 25.47 132.84 18.14 129.07 25.47 125.2 32.79 129.07 32.79 132.63 32.79 135.35 25.47 139.22"/><polygon class="cls-3" points="18.14 129.07 25.47 132.84 25.47 136.5 25.47 139.22 18.14 135.35 18.14 132.63 18.14 129.07"/><polygon class="cls-4" points="25.35 116.89 18.04 113.01 18.04 29.44 25.35 33.22 25.35 116.89"/><polygon class="cls-5" points="32.69 113.01 25.35 116.89 25.35 33.22 18.04 29.44 25.35 25.59 32.69 29.44 32.69 113.01"/><polygon class="cls-6" points="32.69 113.01 32.69 129.06 25.35 132.91 25.35 116.89 32.69 113.01"/><polygon class="cls-7" points="18.04 113.01 25.35 116.89 25.35 132.91 18.04 129.06 18.04 113.01"/><polygon class="cls-8" points="95.38 41.37 95.38 51.5 87.45 47.38 87.45 37.24 95.38 41.37"/><polygon class="cls-10" points="104.67 36.53 95.38 41.37 87.45 37.24 96.75 32.39 104.67 36.53"/><polygon class="cls-5" points="95.38 51.5 95.38 41.37 104.67 36.53 104.67 46.66 95.38 51.5"/><polygon class="cls-10" points="48.39 79.14 15.97 62.22 75.63 31.13 108.06 48.02 48.39 79.14"/><polygon class="cls-5" points="48.39 79.14 108.06 48.02 108.06 86.39 48.39 117.44 48.39 79.14"/><polygon class="cls-4" points="15.97 62.22 48.39 79.14 48.39 117.44 15.97 100.58 15.97 62.22"/><polygon class="cls-1" points="64.38 20.59 51.57 27.21 40.53 32.92 40.53 20.27 61.9 9.96 64.38 20.59"/><polygon class="cls-11" points="51.57 27.21 64.38 20.59 64.38 55.85 57.43 60.68 51.57 27.21"/><polygon class="cls-12" points="40.68 52.01 24.07 43.37 24.07 43.3 46.48 31.59 63.25 40.3 40.68 52.01"/><polygon class="cls-4" points="24.07 43.37 40.68 52.01 40.68 75.04 24.07 66.37 24.07 43.37"/><polygon class="cls-5" points="40.68 52.01 63.25 40.3 63.25 63.3 40.68 75.04 40.68 52.01"/><path class="cls-10" d="M58.44,19.77,40.68,29V52L24.07,43.34V20.27l17.64-9.21ZM29.5,30.62l7-3.79Zm-5.43-6,4-2.17Z"/><path class="cls-5" d="M40.68,52V29l17.76-9.21,4.81,20.5Q58.32,46,40.68,52Z"/><path d="M29.07,30.85a.49.49,0,0,1,.2-.68h0l7-3.78a.51.51,0,0,1,.68.2h0a.51.51,0,0,1-.2.68h0l-7,3.78a.48.48,0,0,1-.24.06h0a.49.49,0,0,1-.43-.26Zm-8.39-4.37a.51.51,0,0,1,.2-.68h0l2.95-1.59,4-2.17a.48.48,0,0,1,.67.2h0a.48.48,0,0,1-.2.67h0l-4,2.17-2.95,1.6a.53.53,0,0,1-.24.06h0a.49.49,0,0,1-.44-.26Z"/><polygon class="cls-10" points="16.93 24.06 23.91 20.31 28.09 22.48 32.28 24.66 34.25 25.67 36.47 26.83 40.68 29.02 33.53 32.72 33.53 32.7 29.5 30.61 28.22 29.95 27.24 29.42 25.3 28.41 21.89 26.64 21.12 26.24 16.93 24.06"/><polygon class="cls-4" points="33.53 32.72 33.53 55.73 16.93 47.05 16.93 41.59 16.93 24.06 21.12 26.24 21.89 26.64 21.89 32.28 19.59 40.17 28.22 35.57 28.22 29.95 29.5 30.61 33.53 32.7 33.53 32.72"/><polygon class="cls-5" points="33.53 55.73 33.53 32.72 40.68 29.02 40.68 52.01 33.53 55.73"/><polygon class="cls-13" points="21.89 26.64 25.3 28.41 27.24 29.42 28.22 29.95 28.22 35.57 19.59 40.17 21.89 32.28 21.89 26.64"/><polygon class="cls-12" points="15.94 45.42 15.92 45.42 15.92 45.39 15.94 45.42"/><polygon class="cls-5" points="15.92 62.88 15.92 45.42 15.94 45.42 31.41 37.24 31.41 54.66 15.92 62.88"/><polygon class="cls-10" points="15.92 45.42 15.92 62.88 3.33 56.29 3.33 38.84 18.72 30.61 21.87 32.26 6.48 40.48 9.65 42.15 12.8 43.79 28.22 35.57 31.41 37.24 15.94 45.42 15.92 45.39 15.92 45.42"/><polygon class="cls-14" points="28.22 35.57 12.8 43.79 9.65 42.15 6.48 40.48 21.87 32.26 21.89 32.28 25.05 33.91 28.22 35.57"/><polygon class="cls-15" points="2.9 38.05 9.95 34.17 23.65 41.31 16.47 45.13 2.9 38.05"/><polygon class="cls-16" points="16.47 45.13 13.57 58.99 0 51.95 2.9 38.05 16.47 45.13"/><polygon class="cls-17" points="13.57 58.99 16.47 45.13 23.65 41.31 23.65 60.1 15.72 64.31 13.57 58.99"/><polygon class="cls-18" points="15.72 64.31 15.63 64.36 2.15 57.27 0 51.95 13.57 58.99 15.72 64.31"/><polygon class="cls-10" points="40.89 34.56 48.58 30.56 44.68 28.56 37.06 32.56 40.89 34.56"/><polygon class="cls-4" points="40.89 34.56 37.06 32.56 37.06 41.65 40.89 43.61 40.89 34.56"/><polygon class="cls-5" points="48.58 30.56 40.89 34.56 40.89 43.61 48.58 39.61 48.58 30.56"/><polygon class="cls-3" points="42.93 35.77 42.93 39.77 46.36 37.98 46.36 33.98 42.93 35.77"/><polygon class="cls-2" points="55.44 1.5 31.84 13.72 28.97 12.22 31.84 10.75 52.57 0 55.44 1.5"/><polygon class="cls-1" points="31.84 13.72 55.44 1.5 61.88 9.9 31.84 25.43 31.84 13.72"/><polygon class="cls-11" points="31.84 13.72 31.84 25.43 28.97 23.93 28.97 12.22 31.84 13.72"/><polygon class="cls-19" points="7.26 48.12 6.68 50.89 3.97 49.48 4.55 46.71 7.26 48.12"/><polygon class="cls-19" points="11.46 50.37 10.88 53.14 8.17 51.73 8.75 48.96 11.46 50.37"/></g></g></svg>