<svg xmlns="http://www.w3.org/2000/svg" viewBox="0 0 156.16 117.3"><defs><style>.cls-1{fill:#e6ab28;}.cls-1,.cls-10,.cls-11,.cls-12,.cls-13,.cls-2,.cls-3,.cls-4,.cls-5,.cls-6,.cls-7,.cls-8,.cls-9{fill-rule:evenodd;}.cls-2{fill:#f9ea7e;}.cls-3{fill:#e9d21b;}.cls-4{fill:#cb841b;}.cls-5{fill:#bd6428;}.cls-6{fill:#e1593b;}.cls-7{fill:#9a5121;}.cls-8{fill:#c96b2e;}.cls-9{fill:#683717;}.cls-10{fill:#924e21;}.cls-11{fill:#e04b27;}.cls-12{fill:#4b2812;}</style></defs><title>lion</title><g id="Layer_2" data-name="Layer 2"><g id="Layer_1-2" data-name="Layer 1"><polygon class="cls-1" points="148.27 6.47 153.69 11.14 153.69 20.49 150.59 26.65 139.27 32.55 105.32 29.36 100.61 26.92 100.61 21.37 105.32 23.81 139.27 26.96 147.22 22.81 149.37 18.57 149.37 14.59 145.74 10.75 148.27 6.47"/><path class="cls-2" d="M148.27,6.47l-2.53,4.28,3.63,3.84-4.72-2.44L141,8.3,143.55,4Zm-47.66,14.9,33.94,3.14,8-4.15,2.14-4.24,4.72,2.45-2.15,4.24L139.27,27l-34-3.15Z"/><polygon class="cls-3" points="144.65 12.15 149.37 14.59 149.37 18.57 144.65 16.12 144.65 12.15"/><polygon class="cls-3" points="39.34 32.53 48.09 27.89 56.77 32.53 56.77 98.87 48.09 103.51 48.09 37 39.34 32.53"/><polygon class="cls-1" points="48.09 103.51 39.34 98.87 39.34 32.53 48.09 37 48.09 103.51"/><polygon class="cls-1" points="55.18 23.83 63.93 19.15 72.61 23.83 72.61 108 63.93 112.61 55.18 108 55.18 23.83"/><polygon class="cls-3" points="39.39 108.2 30.64 103.56 30.64 94.34 39.39 89.7 48.07 94.34 39.39 98.8 39.39 108.2"/><polygon class="cls-4" points="48.07 94.34 48.07 103.56 39.39 108.2 39.39 98.8 48.07 94.34"/><polygon class="cls-1" points="94.39 80.96 85.64 76.32 85.64 9.98 94.39 14.45 94.39 80.96"/><polygon class="cls-4" points="94.39 80.96 94.39 14.45 85.64 9.98 94.39 5.34 103.07 9.98 103.07 76.32 94.39 80.96"/><polygon class="cls-3" points="101.46 19.14 110.21 23.61 110.21 90.11 101.46 85.47 101.46 19.14"/><polygon class="cls-1" points="110.21 90.11 110.21 23.61 101.46 19.14 110.21 14.5 118.89 19.14 118.89 85.47 110.21 90.11"/><polygon class="cls-3" points="85.69 76.25 76.94 71.79 85.69 67.15 94.38 71.79 85.69 76.25"/><polygon class="cls-1" points="85.69 85.65 76.94 81.01 76.94 71.79 85.69 76.25 85.69 85.65"/><polygon class="cls-4" points="85.69 85.65 85.69 76.25 94.38 71.79 94.38 81.01 85.69 85.65"/><polygon class="cls-1" points="61.24 48.48 123.11 16.18 123.11 52.83 61.24 85.07 61.24 48.48"/><polygon class="cls-2" points="30.19 32.36 92.18 0 123.11 16.18 61.24 48.48 30.19 32.36"/><polygon class="cls-3" points="30.19 32.36 61.24 48.48 61.24 85.07 30.19 68.95 30.19 32.36"/><polygon class="cls-1" points="37.99 54.62 61.69 42.3 61.69 70.3 37.99 82.69 37.99 54.62"/><polygon class="cls-2" points="14.22 42.3 37.99 29.85 61.69 42.3 37.99 54.62 14.22 42.3"/><polygon class="cls-3" points="14.22 42.3 37.99 54.62 37.99 82.69 14.22 70.3 14.22 42.3"/><polygon class="cls-3" points="55.24 117.3 46.49 112.66 46.49 103.44 55.24 98.8 63.92 103.44 55.24 107.9 55.24 117.3"/><polygon class="cls-1" points="63.92 103.44 63.92 112.66 55.24 117.3 55.24 107.9 63.92 103.44"/><polygon class="cls-1" points="29.83 91.14 29.83 59.13 36.67 55.59 36.7 87.59 29.83 91.14"/><polygon class="cls-2" points="29.83 59.13 2.69 45.02 9.53 41.48 9.57 41.52 36.67 55.59 29.83 59.13"/><polygon class="cls-3" points="29.83 59.13 29.83 91.14 2.69 77.03 2.69 45.02 29.83 59.13"/><path class="cls-5" d="M54.6,48.61,44.29,54,2.05,32l10.38-5.4L54.6,48.53Z"/><polygon class="cls-6" points="9.53 41.48 9.57 41.45 9.57 41.52 9.53 41.48"/><polygon class="cls-7" points="54.6 48.6 54.6 101.52 44.29 102.31 44.29 53.98 54.6 48.6"/><path class="cls-8" d="M44.29,54v48.33L23.17,96.58,2.05,80.32V32ZM2.69,45V77L29.83,91.14l6.87-3.55,0-32L9.57,41.52v-.07l0,0Z"/><polygon class="cls-9" points="91.12 29.63 91.12 77.93 75.08 99.94 54.6 101.52 54.6 48.6 91.12 29.63"/><path class="cls-10" d="M91.12,29.63l-36.52,19v-.08L12.43,26.59,29,18l1.93-1,18-9.35Z"/><polygon class="cls-1" points="11.44 89.09 22.32 83.22 19.96 92.6 11.44 97.04 11.44 89.09"/><polygon class="cls-3" points="2.92 84.66 11.44 89.09 11.44 97.04 2.92 92.6 2.92 84.66"/><polygon class="cls-11" points="22.32 83.22 11.44 89.09 2.92 84.66 11.44 80.22 22.32 83.22"/><path class="cls-1" d="M15,91.55V78.81l8.73-4.59V87ZM.07,70.93l6.59-3.51,5.87-3.15L3.79,71.72l-.07-.07Z"/><polygon class="cls-2" points="3.79 71.72 12.53 64.27 16.32 66.21 17.22 66.67 20.05 68.21 23.77 74.22 15.04 78.81 15.04 78.74 11.31 75.66 11.24 75.58 7.52 73.65 3.79 71.72"/><polygon class="cls-3" points="3.79 71.72 7.52 80.67 11.31 75.66 15.04 78.74 15.04 78.81 15.04 91.55 7.52 85.54 0 83.75 0 71 0 70.93 0.07 70.93 3.72 71.65 3.79 71.72"/><polygon class="cls-10" points="11.31 75.66 7.52 80.67 3.79 71.72 7.52 73.65 11.24 75.58 11.31 75.66"/><polygon class="cls-3" points="92.74 80.84 101.49 76.2 110.17 80.84 101.49 85.3 92.74 80.84"/><polygon class="cls-1" points="110.17 80.84 110.17 90.06 101.49 94.7 92.74 90.06 92.74 80.84 101.49 85.3 110.17 80.84"/><polygon class="cls-9" points="148.47 4.74 156.16 11.38 150.04 16.32 144.88 10.86 148.47 4.74"/><polygon class="cls-10" points="144.88 10.86 138.16 7.37 141.78 1.29 148.47 4.74 144.88 10.86"/><polygon class="cls-12" points="138.16 7.37 144.88 10.86 150.04 16.32 143.31 12.83 138.16 7.37"/><polygon class="cls-1" points="41.93 34.68 41.93 44.28 37.87 46.39 37.87 36.78 41.93 34.68"/><polygon class="cls-2" points="37.87 36.78 29.72 32.55 33.83 30.42 41.93 34.66 41.93 34.68 37.87 36.78"/><polygon class="cls-3" points="29.72 32.55 37.87 36.78 37.87 46.39 29.72 42.16 29.72 32.55"/><polygon class="cls-1" points="24.13 26.03 24.13 35.63 20.07 37.74 20.07 28.13 24.13 26.03"/><polygon class="cls-2" points="24.13 26.03 20.07 28.13 11.92 23.9 16.03 21.77 24.13 26 24.13 26.03"/><polygon class="cls-3" points="20.07 37.74 11.92 33.51 11.92 23.9 20.07 28.13 20.07 37.74"/><polygon class="cls-2" points="8.86 54 3.74 51.33 6.33 49.99 11.41 52.66 8.86 54"/><polygon class="cls-1" points="8.86 54 11.41 52.66 11.41 58.72 8.86 60.02 8.86 54"/><polygon class="cls-3" points="3.74 51.33 8.86 54 8.86 60.02 3.74 57.36 3.74 51.33"/><polygon class="cls-13" points="5.32 53.69 7.61 54.88 7.61 57.54 5.32 56.35 5.32 53.69"/><polygon class="cls-2" points="20.05 62.48 11.24 75.58 7.52 73.65 3.79 71.72 12.53 58.54 16.32 60.48 20.05 62.48"/><polygon class="cls-3" points="11.24 75.58 20.05 62.48 20.05 68.21 11.24 75.58"/><polygon class="cls-2" points="24.81 62.6 19.69 59.93 22.28 58.59 27.36 61.26 24.81 62.6"/><polygon class="cls-1" points="27.36 61.26 27.36 67.31 24.81 68.63 24.81 62.6 27.36 61.26"/><polygon class="cls-3" points="19.69 59.93 24.81 62.6 24.81 68.63 19.69 65.96 19.69 59.93"/><polygon class="cls-13" points="21.12 62.23 23.41 63.43 23.41 66.09 21.12 64.9 21.12 62.23"/></g></g></svg>