<svg xmlns="http://www.w3.org/2000/svg" viewBox="0 0 129.91 79.89"><defs><style>.cls-1{fill:#9e1e40;}.cls-1,.cls-2,.cls-3,.cls-4,.cls-5,.cls-6,.cls-7{fill-rule:evenodd;}.cls-2{fill:#f2f2f2;}.cls-3{fill:#bc1948;}.cls-4{fill:#cb173c;}.cls-5{fill:#beb5af;}.cls-6{fill:#ece9e8;}.cls-7{fill:#ddd8d5;}</style></defs><title>meat</title><g id="Layer_2" data-name="Layer 2"><g id="Layer_2-2" data-name="Layer 2"><polygon class="cls-1" points="129.55 36.8 74.36 65.49 74.36 79.84 129.55 51.16 129.55 36.8"/><polygon class="cls-2" points="129.91 16.81 97.74 0 74.36 0 51.04 0 0 26.74 37.18 46.11 74.36 65.49 129.55 36.8 129.91 16.81"/><polygon class="cls-3" points="74.36 65.49 0 26.74 0 41.14 74.36 79.89 74.36 65.49"/><polygon class="cls-4" points="125.64 17.99 97.53 3.3 75.04 3.3 51.27 3.3 6.48 26.76 40.43 44.45 74.37 62.14 125.64 35.49 125.64 17.99"/><polygon class="cls-5" points="65.49 23.34 53.27 29.7 53.27 36.51 65.49 30.16 65.49 23.34"/><polygon class="cls-6" points="65.49 23.34 53.27 16.96 41.09 23.34 53.27 29.7 65.49 23.34"/><polygon class="cls-7" points="53.27 29.7 41.09 23.34 41.09 30.15 53.27 36.51 53.27 29.7"/></g></g></svg>