<svg xmlns="http://www.w3.org/2000/svg" viewBox="0 0 80.32 88.43"><defs><style>.cls-1{fill:#f2f2f2;}.cls-2{fill:#9b724e;}.cls-3{fill:#a67c52;}.cls-10,.cls-11,.cls-12,.cls-13,.cls-3,.cls-4,.cls-7,.cls-8,.cls-9{fill-rule:evenodd;}.cls-4{fill:#c69c6d;}.cls-5{fill:#fff;}.cls-6,.cls-7,.cls-8{fill:#754c24;}.cls-6,.cls-7,.cls-9{stroke:#42210b;stroke-miterlimit:10;stroke-width:0.01px;}.cls-9{fill:#8c6239;}.cls-10{fill:#999;}.cls-11{fill:#b3b3b3;}.cls-12{fill:#ccc;}.cls-13{fill:#c7b299;}</style></defs><title>milk</title><g id="Layer_2" data-name="Layer 2"><g id="Layer_3" data-name="Layer 3"><ellipse class="cls-1" cx="37.15" cy="18.39" rx="30.84" ry="11.73"/><polygon class="cls-2" points="74.29 17.81 64.3 79.14 56.99 83.7 62.7 28.14 74.29 17.81"/><polygon class="cls-3" points="56.99 83.7 46.2 85.41 46.93 31.12 62.7 28.14 56.99 83.7"/><polygon class="cls-2" points="1.77 17.81 11.77 79.14 19.07 83.7 13.37 28.14 1.77 17.81"/><polygon class="cls-3" points="19.07 83.7 29.87 85.41 29.13 31.12 13.37 28.14 19.07 83.7"/><polygon class="cls-4" points="29.87 85.41 46.2 85.41 46.93 31.12 29.13 31.12 29.87 85.41"/><path class="cls-5" d="M67.51,21.71c0,4.32-20.79,8.64-32.16,8.64s-11.5-3.37-9-8.64c1.86-3.9,14.09-10.28,25.45-10.28S67.51,17.39,67.51,21.71Z"/><polygon class="cls-6" points="13.37 28.14 16.74 25.3 8.06 17.97 1.77 17.81 13.37 28.14"/><polygon class="cls-6" points="29.13 31.12 29.48 27.79 16.74 25.3 13.37 28.14 29.13 31.12"/><polygon class="cls-6" points="62.7 28.14 59.32 25.3 68 17.97 74.29 17.81 62.7 28.14"/><polygon class="cls-6" points="46.93 31.12 46.58 27.79 59.32 25.3 62.7 28.14 46.93 31.12"/><polyline class="cls-7" points="46.93 31.12 46.58 27.79 29.48 27.79 29.13 31.12 46.93 31.12"/><polyline class="cls-7" points="1.77 13.32 1.77 17.81 8.06 17.97 8.06 13.16 1.77 13.32"/><polygon class="cls-8" points="74.29 13.32 68 13.16 68 17.97 74.29 17.81 74.29 13.32"/><polyline class="cls-9" points="16.74 5.83 17.06 13.16 9.26 18.97 8.06 17.97 8.06 13.16 16.74 5.83"/><polygon class="cls-6" points="62.7 2.99 59.32 5.83 68 13.16 74.29 13.32 62.7 2.99"/><polygon class="cls-6" points="46.93 0.01 46.58 3.34 59.32 5.83 62.7 2.99 46.93 0.01"/><polygon class="cls-6" points="13.37 2.99 16.74 5.83 8.06 13.16 1.77 13.32 13.37 2.99"/><polygon class="cls-6" points="29.13 0.01 29.48 3.34 16.74 5.83 13.37 2.99 29.13 0.01"/><polyline class="cls-7" points="29.13 0.01 29.48 3.34 46.58 3.34 46.93 0.01 29.13 0.01"/><polygon class="cls-9" points="16.74 5.83 17.06 13.16 29.44 11.14 29.48 3.34 16.74 5.83"/><polyline class="cls-9" points="59.32 5.83 59 13.16 66.81 18.97 68 17.97 68 13.16 59.32 5.83"/><polygon class="cls-9" points="59.32 5.83 59 13.16 46.54 11.14 46.58 3.34 59.32 5.83"/><polyline class="cls-9" points="29.48 3.34 46.58 3.34 46.54 11.14 29.44 11.14 29.48 3.34"/><polygon class="cls-10" points="6.07 44.16 15.56 49.47 16.66 60.15 7.87 55.24 6.07 44.16"/><polygon class="cls-11" points="29.41 52.52 15.56 49.47 16.66 60.15 29.55 63.36 29.41 52.52"/><polygon class="cls-12" points="46.69 52.52 29.41 52.52 29.55 63.36 46.54 63.36 46.69 52.52"/><polygon class="cls-10" points="70.03 44.16 60.53 49.47 59.44 60.15 68.22 55.26 70.03 44.16"/><polygon class="cls-11" points="46.69 52.52 60.53 49.47 59.44 60.15 46.54 63.36 46.69 52.52"/><polyline class="cls-13" points="74.29 14.06 78.42 21.47 80.32 36.11 75.47 61.11 68 73.85 48.56 88.44 28.22 86.02 17.06 77.75 9.26 59.69 2.23 41.43 0 18.39 1.77 13.32 1.96 18.39 2.72 28.17 4.92 42 9.97 56.41 18.29 76.01 28.7 84.12 47.94 86.19 66.81 72.23 73.57 60.15 77.75 35.82 75.75 22.04 74.1 18.97 74.29 16.14"/></g></g></svg>