<svg xmlns="http://www.w3.org/2000/svg" viewBox="0 0 140.06 108.16"><defs><style>.cls-1{fill:#f9ea7e;}.cls-1,.cls-10,.cls-11,.cls-12,.cls-13,.cls-14,.cls-15,.cls-16,.cls-17,.cls-18,.cls-2,.cls-3,.cls-4,.cls-5,.cls-6,.cls-7,.cls-8,.cls-9{fill-rule:evenodd;}.cls-2{fill:#c4c4c6;}.cls-3{fill:#8a8a93;}.cls-4{fill:#d8d8d8;}.cls-5{fill:#d6d6d6;}.cls-7{fill:#968c8c;}.cls-8{fill:#dc8278;}.cls-9{fill:#ca4435;}.cls-10{fill:#d5695e;}.cls-11{fill:#5f4e43;}.cls-12{fill:#2d2420;}.cls-13{fill:#fff;}.cls-14{fill:#d9d9d9;}.cls-15{fill:#a6a6a6;}.cls-16{fill:#32281b;}.cls-17{fill:#afafb2;}.cls-18{fill:#b4b4b5;}</style></defs><title>mouse_2</title><g id="Layer_2" data-name="Layer 2"><g id="Layer_2-2" data-name="Layer 2"><polygon class="cls-1" points="71.78 74.7 63.58 78.97 55.36 74.7 63.58 70.42 71.78 74.7"/><polygon class="cls-2" points="63.58 78.97 63.58 108.14 55.36 103.88 55.36 74.7 63.58 78.97"/><polygon class="cls-3" points="63.58 108.14 63.58 78.97 71.78 74.7 71.78 103.88 63.58 108.14"/><polygon class="cls-1" points="122.29 51.8 114.08 56.06 105.86 51.8 114.08 47.51 122.29 51.8"/><polygon class="cls-2" points="114.08 56.06 114.08 85.24 105.86 80.97 105.86 51.8 114.08 56.06"/><polygon class="cls-3" points="114.08 85.24 114.08 56.06 122.29 51.8 122.29 80.97 114.08 85.24"/><polygon class="cls-4" points="140.04 2.35 106.78 19.65 106.78 24.95 102.3 22.63 102.3 17.34 120.25 7.96 120.29 7.96 135.56 0 140.04 2.35"/><polygon class="cls-3" points="140.04 2.35 140.06 2.35 140.06 7.67 133.73 10.94 124.77 15.61 115.78 20.28 106.78 24.95 106.78 19.65 140.04 2.35"/><polygon class="cls-5" points="118.25 25.69 47.17 62.64 12.12 44.48 83.4 7.33 118.25 25.69"/><polygon class="cls-2" points="12.12 44.48 47.17 62.64 47.17 103.9 12.12 85.74 12.12 44.48"/><polygon class="cls-3" points="47.17 62.64 118.25 25.69 118.29 25.73 118.33 66.92 82.1 85.74 47.17 103.9 47.17 62.64"/><path class="cls-6" d="M12.16,89.8a.12.12,0,0,1-.08,0l-6.68.55s0,0-.05,0a.09.09,0,0,1,0-.08s0,0,0-.06l.07,0,6.68-.55.06,0s0,0,0,.08A0,0,0,0,1,12.16,89.8Zm0-2.86a.11.11,0,0,1,0,.08s0,0,0,.06l-.08,0L2.75,85.6a.07.07,0,0,1-.06,0,.14.14,0,0,1,0-.07.09.09,0,0,1,0-.06.08.08,0,0,1,.08,0l9.35,1.49A.07.07,0,0,1,12.2,86.94Zm.36-1.39a.05.05,0,0,1,0,0,.07.07,0,0,1,0,.07.06.06,0,0,1,0,.06.08.08,0,0,1-.08,0L.06,79.51a.09.09,0,0,1-.06,0,.11.11,0,0,1,0-.08.09.09,0,0,1,0-.06.08.08,0,0,1,.08,0Z"/><polygon class="cls-4" points="36.58 80.81 20.5 86.17 11.58 81.53 21.69 73.06 36.58 80.81"/><polygon class="cls-2" points="8.98 87.83 16.44 91.71 16.4 94.82 12.69 92.9 8.94 90.98 8.98 87.83"/><polygon class="cls-7" points="16.4 94.82 16.44 91.71 20.5 86.17 36.58 80.81 36.58 98.35 16.4 94.82"/><polygon class="cls-8" points="16.44 87.49 9.02 83.66 11.58 81.53 20.5 86.17 16.44 87.49"/><polygon class="cls-9" points="16.44 87.49 20.5 86.17 16.44 91.71 16.44 87.49"/><polygon class="cls-10" points="9.02 83.66 16.44 87.49 16.44 91.71 8.98 87.83 9.02 83.66"/><polygon class="cls-5" points="36.48 28.96 31.77 31.43 22.26 26.53 27.05 23.98 36.48 28.96"/><polygon class="cls-2" points="31.77 31.43 31.77 49.59 22.26 44.69 22.26 26.53 31.77 31.43"/><polygon class="cls-3" points="31.77 49.59 31.77 31.43 36.48 28.96 36.48 47.12 31.77 49.59"/><polygon class="cls-2" points="82.14 58.76 90.51 63.11 90.51 90.1 82.1 85.74 82.1 58.76 82.14 58.76"/><polygon class="cls-5" points="122.26 46.56 90.51 63.11 82.14 58.76 113.89 42.2 122.26 46.56"/><polygon class="cls-3" points="90.51 63.11 122.26 46.56 122.26 73.58 90.51 90.1 90.51 63.11"/><polygon class="cls-5" points="45.72 38.53 36.21 33.63 41 31.08 50.43 36.06 45.72 38.53"/><polygon class="cls-2" points="45.72 38.53 45.72 56.69 36.21 51.79 36.21 33.63 45.72 38.53"/><polygon class="cls-3" points="45.72 56.69 45.72 38.53 50.43 36.06 50.43 54.22 45.72 56.69"/><polygon class="cls-11" points="59.7 106.67 61.45 105.76 62.33 106.22 60.58 107.13 59.7 106.67"/><polygon class="cls-12" points="59.7 106.67 60.58 107.13 62.33 106.22 62.33 107.25 60.58 108.16 59.7 107.7 59.7 106.67"/><polygon class="cls-11" points="57.06 105.35 58.81 104.44 59.68 104.9 57.93 105.81 57.06 105.35"/><polygon class="cls-12" points="59.68 104.9 59.68 105.93 57.93 106.84 57.06 106.39 57.06 105.35 57.93 105.81 59.68 104.9"/><polygon class="cls-11" points="54.5 103.99 56.25 103.08 57.12 103.54 55.38 104.44 54.5 103.99"/><polygon class="cls-12" points="54.5 103.99 55.38 104.44 57.12 103.54 57.12 104.57 55.38 105.48 54.5 105.02 54.5 103.99"/><polygon class="cls-13" points="38.73 67.95 28.52 62.64 33.7 59.99 43.8 65.29 38.73 67.95"/><polygon class="cls-14" points="28.52 62.64 38.73 67.95 38.73 79.93 28.52 74.63 28.52 62.64"/><polygon class="cls-15" points="38.73 79.93 38.73 67.95 43.8 65.29 43.8 77.33 38.73 79.93"/><polygon class="cls-16" points="35.77 74.93 31.22 72.57 31.22 67.26 35.77 69.63 35.77 74.93"/><polygon class="cls-13" points="21.02 59.52 10.82 54.21 15.99 51.56 26.1 56.86 21.02 59.52"/><polygon class="cls-14" points="10.82 54.21 21.02 59.52 21.02 71.5 10.82 66.19 10.82 54.21"/><polygon class="cls-15" points="21.02 71.5 21.02 59.52 26.1 56.86 26.1 68.89 21.02 71.5"/><polygon class="cls-16" points="18.07 66.55 13.52 64.18 13.52 58.87 18.07 61.24 18.07 66.55"/><polygon class="cls-11" points="110.72 83.55 112.47 82.64 113.34 83.1 111.6 84.01 110.72 83.55"/><polygon class="cls-12" points="113.34 83.1 113.34 84.13 111.6 85.04 110.72 84.58 110.72 83.55 111.6 84.01 113.34 83.1"/><polygon class="cls-11" points="108.12 82.23 109.87 81.32 110.74 81.78 108.99 82.69 108.12 82.23"/><polygon class="cls-12" points="108.12 82.23 108.99 82.69 110.74 81.78 110.74 82.81 108.99 83.72 108.12 83.26 108.12 82.23"/><path class="cls-17" d="M95.11,14.25l1.25.63-4.71,2.51-1.26-.66Zm-4.68,7.14L85.72,23.9l-1.22-.66,4.71-2.48Zm-6.68-11L79,12.92l-1.26-.67,4.71-2.47Zm-7.9,4.27L71.14,17.2l-1.26-.67,4.72-2.47Zm1,5.57-4.76,2.48-1.22-.67,4.72-2.43ZM75,17.74l-4.72,2.51-1.25-.66,4.71-2.47Zm11-3.68,1.26.62L82.61,17.2l-1.25-.67ZM79.71,33.39l-1.26-.66,4.71-2.47,1.26.62Zm19.05-9.21,4.72-2.47,1.25.62L100,24.84Zm2.79,6.9-4.71,2.51-1.26-.67,4.71-2.47Zm-34.65-12,1.21.63L63.4,22.22l-1.22-.67ZM54.64,25.51,59.35,23l1.22.63-4.72,2.47Zm4.87,4,4.71-2.47,1.26.63-4.71,2.51Zm0,8.36,4.71-2.48,1.26.63-4.71,2.51ZM61.75,48l1.26.62-4.72,2.51L57,50.46Zm39.45,2,4.71-2.48,1.26.63-4.71,2.51Zm16.46-39.85,1.26.62-4.72,2.51L113,12.65Zm-2,35.1,1.25.63-4.71,2.51-1.26-.67Z"/><path class="cls-6" d="M27.53,101.41a.08.08,0,0,1-.08,0l-6.68-7.18a0,0,0,0,1,0,0,.09.09,0,0,1,0-.08,0,0,0,0,1,.06,0,.1.1,0,0,1,.07,0l6.68,7.17s0,0,0,.06a.09.09,0,0,1,0,.08A0,0,0,0,1,27.53,101.41ZM20.37,89.63a.1.1,0,0,1-.05,0,.11.11,0,0,1,0-.08.09.09,0,0,1,0-.06.11.11,0,0,1,.08,0l12.42,6.2a.05.05,0,0,1,.06,0,.1.1,0,0,1,0,.07.09.09,0,0,1,0,.06.08.08,0,0,1-.08,0Zm.38,1.76a.09.09,0,0,1,0-.08s0,0,0-.06l.08,0,.06,0,9.35,7.85a.2.2,0,0,1,0,.08.14.14,0,0,1,0,.06.13.13,0,0,1-.08,0,.07.07,0,0,1-.06,0Z"/><path class="cls-18" d="M129.06,10.83l-4.92,2.51V12l4.92-2.55Zm-25.9,31.26L98.25,44.6V43.3l4.91-2.55ZM78,51.42l-4.91,2.51V52.64L78,50.09ZM94.79,41.07V42.4l-4.91,2.51V43.62ZM95.7,63l4.91-2.55v1.34L95.7,64.25ZM77.39,60.09v1.33l-4.91,2.51V62.64ZM71.85,74.64l-4.91,2.51V75.86l4.91-2.55Zm21.61,5.42,4.91-2.55v1.33l-4.91,2.51ZM62.5,63.6v1.34l-4.92,2.52V66.17Zm53.59-5.43-4.91,2.51v-1.3l4.91-2.55Zm-3.54,6.74v1.34l-4.91,2.51v-1.3Z"/></g></g></svg>