<svg xmlns="http://www.w3.org/2000/svg" viewBox="0 0 86.86 75.68"><defs><style>.cls-1{fill:#c1451f;}.cls-1,.cls-2,.cls-3,.cls-4,.cls-5{fill-rule:evenodd;}.cls-2{fill:#ece9e8;}.cls-3{fill:#d84d23;}.cls-4{fill:#ddd8d5;}.cls-5{fill:#f15a24;}</style></defs><title>mult4</title><g id="Layer_2" data-name="Layer 2"><g id="Layer_3" data-name="Layer 3"><polygon class="cls-1" points="86.86 56.95 79.36 60.85 79.36 69.7 86.86 65.8 86.86 56.95"/><polygon class="cls-2" points="86.86 56.95 79.36 53.03 71.88 56.95 79.36 60.85 86.86 56.95"/><polygon class="cls-3" points="79.36 60.85 71.88 56.95 71.88 65.8 79.36 69.7 79.36 60.85"/><polygon class="cls-1" points="86.86 48.1 79.36 52.01 79.36 60.85 86.86 56.95 86.86 48.1"/><polygon class="cls-2" points="86.86 48.1 79.36 44.19 71.88 48.1 79.36 52.01 86.86 48.1"/><polygon class="cls-3" points="79.36 52.01 71.88 48.1 71.88 56.95 79.36 60.85 79.36 52.01"/><polygon class="cls-1" points="86.86 39.28 79.36 43.19 79.36 52.03 86.86 48.13 86.86 39.28"/><polygon class="cls-2" points="86.86 39.28 79.36 35.37 71.88 39.28 79.36 43.19 86.86 39.28"/><polygon class="cls-3" points="79.36 43.19 71.88 39.28 71.88 48.13 79.36 52.03 79.36 43.19"/><polygon class="cls-1" points="86.83 30.46 79.33 34.36 79.33 43.21 86.83 39.31 86.83 30.46"/><polygon class="cls-2" points="86.83 30.46 79.33 26.54 71.85 30.46 79.33 34.36 86.83 30.46"/><polygon class="cls-4" points="79.33 34.36 71.85 30.46 71.85 39.31 79.33 43.21 79.33 34.36"/><polygon class="cls-1" points="79.34 34.36 71.84 38.26 71.84 47.11 79.34 43.21 79.34 34.36"/><polygon class="cls-5" points="79.34 34.36 71.84 30.44 64.36 34.36 71.84 38.26 79.34 34.36"/><polygon class="cls-4" points="71.84 38.26 64.36 34.36 64.36 43.21 71.84 47.11 71.84 38.26"/><polygon class="cls-1" points="71.85 38.26 64.35 42.16 64.35 51.01 71.85 47.11 71.85 38.26"/><polygon class="cls-5" points="71.85 38.26 64.35 34.34 56.86 38.26 64.35 42.16 71.85 38.26"/><polygon class="cls-4" points="64.35 42.16 56.86 38.26 56.86 47.11 64.35 51.01 64.35 42.16"/><polygon class="cls-1" points="64.36 42.17 56.85 46.07 56.85 54.91 64.36 51.02 64.36 42.17"/><polygon class="cls-2" points="64.36 42.17 56.85 38.25 49.37 42.17 56.85 46.07 64.36 42.17"/><polygon class="cls-3" points="56.85 46.07 49.37 42.17 49.37 51.02 56.85 54.91 56.85 46.07"/><polygon class="cls-1" points="86.83 21.62 79.33 25.52 79.33 34.37 86.83 30.46 86.83 21.62"/><polygon class="cls-2" points="86.83 21.62 79.33 17.7 71.85 21.62 79.33 25.52 86.83 21.62"/><polygon class="cls-3" points="79.33 25.52 71.85 21.62 71.85 30.46 79.33 34.37 79.33 25.52"/><polygon class="cls-1" points="86.83 12.77 79.33 16.67 79.33 25.52 86.83 21.62 86.83 12.77"/><polygon class="cls-2" points="86.83 12.77 79.33 8.85 71.85 12.77 79.33 16.67 86.83 12.77"/><polygon class="cls-3" points="79.33 16.67 71.85 12.77 71.85 21.62 79.33 25.52 79.33 16.67"/><polygon class="cls-1" points="86.86 3.92 79.36 7.82 79.36 16.67 86.86 12.77 86.86 3.92"/><polygon class="cls-5" points="86.86 3.92 79.36 0 71.88 3.92 79.36 7.82 86.86 3.92"/><polygon class="cls-3" points="79.36 7.82 71.88 3.92 71.88 12.77 79.36 16.67 79.36 7.82"/><polygon class="cls-1" points="64.35 33.34 56.84 37.24 56.84 46.09 64.35 42.19 64.35 33.34"/><polygon class="cls-2" points="64.35 33.34 56.84 29.42 49.36 33.34 56.84 37.24 64.35 33.34"/><polygon class="cls-3" points="56.84 37.24 49.36 33.34 49.36 42.19 56.84 46.09 56.84 37.24"/><polygon class="cls-1" points="64.34 24.48 56.83 28.38 56.83 37.23 64.34 33.33 64.34 24.48"/><polygon class="cls-2" points="64.34 24.48 56.83 20.56 49.35 24.48 56.83 28.38 64.34 24.48"/><polygon class="cls-3" points="56.83 28.38 49.35 24.48 49.35 33.33 56.83 37.23 56.83 28.38"/><polygon class="cls-1" points="64.38 15.67 56.88 19.57 56.88 28.42 64.38 24.52 64.38 15.67"/><polygon class="cls-5" points="64.38 15.67 56.88 11.75 49.39 15.67 56.88 19.57 64.38 15.67"/><polygon class="cls-3" points="56.88 19.57 49.39 15.67 49.39 24.52 56.88 28.42 56.88 19.57"/><polygon class="cls-1" points="29.99 55.18 22.49 59.08 22.49 67.93 29.99 64.03 29.99 55.18"/><polygon class="cls-5" points="29.99 55.18 22.49 51.26 15.01 55.18 22.49 59.08 29.99 55.18"/><polygon class="cls-3" points="22.49 59.08 15.01 55.18 15.01 64.03 22.49 67.93 22.49 59.08"/><polygon class="cls-1" points="29.99 37.46 22.49 41.36 22.49 50.21 29.99 46.31 29.99 37.46"/><polygon class="cls-5" points="29.99 37.46 22.49 33.54 15.01 37.46 22.49 41.36 29.99 37.46"/><polygon class="cls-3" points="22.49 41.36 15.01 37.46 15.01 46.31 22.49 50.21 22.49 41.36"/><polygon class="cls-1" points="22.5 50.21 14.99 54.11 14.99 62.96 22.5 59.06 22.5 50.21"/><polygon class="cls-5" points="22.5 50.21 14.99 46.29 7.51 50.21 14.99 54.11 22.5 50.21"/><polygon class="cls-3" points="14.99 54.11 7.51 50.21 7.51 59.06 14.99 62.96 14.99 54.11"/><polygon class="cls-1" points="15.01 62.94 7.5 66.84 7.5 75.68 15.01 71.78 15.01 62.94"/><polygon class="cls-5" points="15.01 62.94 7.5 59.02 0.02 62.94 7.5 66.84 15.01 62.94"/><polygon class="cls-3" points="7.5 66.84 0.02 62.94 0.02 71.78 7.5 75.68 7.5 66.84"/><polygon class="cls-1" points="14.99 45.28 7.48 49.18 7.48 58.02 14.99 54.12 14.99 45.28"/><polygon class="cls-5" points="14.99 45.28 7.48 41.36 0 45.28 7.48 49.18 14.99 45.28"/><polygon class="cls-3" points="7.48 49.18 0 45.28 0 54.12 7.48 58.02 7.48 49.18"/></g></g></svg>