<svg xmlns="http://www.w3.org/2000/svg" viewBox="0 0 118.26 130.84"><defs><style>.cls-1{fill:#9a886d;}.cls-1,.cls-10,.cls-11,.cls-12,.cls-13,.cls-14,.cls-15,.cls-16,.cls-2,.cls-3,.cls-4,.cls-5,.cls-6,.cls-7,.cls-8,.cls-9{fill-rule:evenodd;}.cls-2{fill:#554a3c;}.cls-3{fill:#df3e44;}.cls-4{fill:#e05e54;}.cls-5{fill:#fd8aa2;}.cls-6{fill:#fc728d;}.cls-7{fill:#f9ea7e;}.cls-8{fill:#7c5e3f;}.cls-9{fill:#99734d;}.cls-10{fill:#b38c66;}.cls-11{fill:#ad845a;}.cls-12{fill:#fecdd8;}.cls-13{fill:#eb9494;}.cls-14{fill:#e35766;}.cls-15{fill:#df5353;}.cls-16{fill:#353006;}</style></defs><title>pig</title><g id="Layer_2" data-name="Layer 2"><g id="Layer_1-2" data-name="Layer 1"><polygon class="cls-1" points="45.67 83.14 36.66 87.84 36.66 119.95 27.62 115.25 27.62 83.14 36.66 78.42 45.67 83.14"/><polygon class="cls-2" points="36.66 119.95 36.66 87.84 45.67 83.14 45.67 115.25 36.66 119.95"/><polygon class="cls-1" points="51.03 121.98 60 126.64 60 130.84 51.03 126.18 51.03 121.98"/><polygon class="cls-2" points="60 130.84 60 126.64 69.09 121.98 69.09 126.18 60 130.84"/><polygon class="cls-3" points="69.09 121.98 60 126.64 60 98.8 69.09 94.14 69.09 121.98"/><polygon class="cls-4" points="60 126.64 51.03 121.98 51.03 94.14 60 89.36 69.09 94.14 60 98.8 60 126.64"/><polygon class="cls-1" points="98.08 96.68 107.05 101.34 107.05 105.54 98.08 100.88 98.08 96.68"/><polygon class="cls-2" points="107.05 105.54 107.05 101.34 116.14 96.68 116.14 100.88 107.05 105.54"/><polygon class="cls-3" points="116.14 96.68 107.05 101.34 107.05 73.5 116.14 68.84 116.14 96.68"/><polygon class="cls-4" points="107.05 101.34 98.08 96.68 98.08 68.84 107.05 64.06 116.14 68.84 107.05 73.5 107.05 101.34"/><polygon class="cls-3" points="47.89 59.77 118.26 23.07 118.26 83.31 47.89 120 47.89 59.77"/><polygon class="cls-5" points="3.73 36.82 74.27 0 118.26 23.07 47.89 59.77 3.73 36.82"/><polygon class="cls-6" points="3.73 36.82 47.89 59.77 47.89 120 3.73 97.05 3.73 36.82"/><polygon class="cls-7" points="25.44 95.49 25.41 95.49 25.41 95.43 25.44 95.49"/><polygon class="cls-5" points="22.66 96.89 9.67 90.18 15.33 87.22 28.22 94.03 25.44 95.49 25.41 95.43 25.41 95.49 22.66 96.89"/><polygon class="cls-8" points="25.44 95.49 28.22 94.03 28.22 102.61 25.44 104.06 22.66 105.52 22.66 96.89 25.41 95.49 25.44 95.49"/><polygon class="cls-9" points="9.67 90.18 22.66 96.89 22.66 105.52 9.67 98.76 9.67 90.18"/><polygon class="cls-7" points="35.3 81.44 35.36 81.56 35.3 81.56 35.3 81.44"/><polygon class="cls-3" points="35.36 81.56 41.59 78.29 41.59 97.52 35.36 100.78 35.3 81.56 35.36 81.56"/><polygon class="cls-5" points="35.36 81.56 35.3 81.44 6.52 66.23 12.7 63.03 41.59 78.29 35.36 81.56"/><polygon class="cls-8" points="29.13 104.04 29.13 84.7 35.3 81.56 35.36 100.78 29.13 104.04"/><polygon class="cls-10" points="29.13 84.7 0 69.67 6.52 66.23 35.3 81.44 35.3 81.56 29.13 84.7"/><polygon class="cls-11" points="0 69.67 29.13 84.7 29.13 104.04 0 88.89 0 69.67"/><polygon class="cls-12" points="30.76 29.13 17.13 22.14 23.07 18.99 36.59 26.1 30.76 29.13"/><path class="cls-13" d="M17.13,22.14l13.63,7V41.71l-3.15-1.63q-.24-5.74-.17-8.27L21,29.13l-.17,7.4L17.13,34.6Z"/><polygon class="cls-14" points="30.76 29.13 36.59 26.1 36.59 38.68 30.76 41.71 30.76 29.13"/><path class="cls-15" d="M27.61,40.08,20.8,36.53l.17-7.4,6.47,2.68Q27.37,34.33,27.61,40.08Z"/><polygon class="cls-12" points="37.87 32.85 43.81 29.71 57.32 36.82 51.5 39.85 37.87 32.85"/><polygon class="cls-13" points="51.5 39.85 51.5 52.43 47.36 50.27 47.65 42.87 41.36 40.43 42.47 47.71 37.87 45.32 37.87 32.85 51.5 39.85"/><polygon class="cls-14" points="57.32 36.82 57.32 49.4 51.5 52.43 51.5 39.85 57.32 36.82"/><polygon class="cls-15" points="47.36 50.27 42.47 47.71 41.36 40.43 47.65 42.87 47.36 50.27"/><polygon class="cls-16" points="21.47 86.67 21.47 93.28 15.53 90.19 15.53 83.64 21.47 86.67"/><polygon class="cls-16" points="12.92 82.12 12.92 88.73 6.98 85.64 6.98 79.08 12.92 82.12"/><polygon class="cls-5" points="22.51 66.53 14.47 62.34 14.47 52.89 18.55 50.8 26.5 54.98 22.51 57.08 22.51 66.53"/><polygon class="cls-3" points="22.51 66.53 22.51 57.08 26.5 54.98 26.5 64.47 22.51 66.53"/><polygon class="cls-16" points="16.66 56.74 20.16 58.6 20.16 62.8 16.66 60.93 16.66 56.74"/><polygon class="cls-5" points="34.01 72.58 25.98 68.39 25.98 58.94 30.05 56.85 38.01 61.03 34.01 63.13 34.01 72.58"/><polygon class="cls-3" points="38.01 61.03 38.01 70.52 34.01 72.58 34.01 63.13 38.01 61.03"/><polygon class="cls-16" points="28.2 62.8 31.69 64.66 31.69 68.86 28.2 66.99 28.2 62.8"/></g></g></svg>