<svg xmlns="http://www.w3.org/2000/svg" xmlns:xlink="http://www.w3.org/1999/xlink" viewBox="0 0 180.05 180.05"><defs><style>.cls-1{stroke:#c83b1c;stroke-miterlimit:10;stroke-width:10px;fill:url(#linear-gradient);}.cls-2{fill:#fff;}</style><linearGradient id="linear-gradient" x1="24.89" y1="144.68" x2="155.16" y2="35.37" gradientUnits="userSpaceOnUse"><stop offset="0" stop-color="#ff4c24"/><stop offset="0.47" stop-color="#f64923"/><stop offset="1" stop-color="#e54420"/></linearGradient></defs><title>Play Again Button</title><g id="Layer_2" data-name="Layer 2"><g id="Layer_2-2" data-name="Layer 2"><circle class="cls-1" cx="90.02" cy="90.02" r="85.02"/><path class="cls-2" d="M149.12,89.45v.72a5.43,5.43,0,0,1-2.62,3.54q-16.92,9.26-33.82,18.57Q91.31,124,69.94,135.77c-3.39,1.86-6.85,3.59-10.27,5.38H59A5.39,5.39,0,0,1,55.1,138V41.6a5.42,5.42,0,0,1,3.61-3.12h1.2c.58.25,1.18.47,1.73.77Q82.34,50.62,103,62c14.25,7.84,28.49,15.71,42.77,23.49A6,6,0,0,1,149.12,89.45Z"/><path class="cls-2" d="M55.1,138A5.39,5.39,0,0,0,59,141.15"/><path class="cls-2" d="M58.71,38.48A5.42,5.42,0,0,0,55.1,41.6"/></g></g></svg>