<svg xmlns="http://www.w3.org/2000/svg" viewBox="0 0 120.5 95.75"><defs><style>.cls-1{fill:#e1a734;}.cls-1,.cls-2,.cls-3{fill-rule:evenodd;}.cls-2{fill:#d69b34;}.cls-3{fill:#dd9e37;}.cls-4{fill:#7e4c27;}</style></defs><title>potato</title><g id="Layer_2" data-name="Layer 2"><g id="Layer_3" data-name="Layer 3"><polygon class="cls-1" points="5.08 65 17.5 90.25 48.25 95.75 86 86.75 112.75 56.25 120.5 26 100.5 2.67 57 0 15.75 12.75 0 37.75 5.08 65"/><polygon class="cls-2" points="109.29 12.92 100.46 47.52 62.08 74.2 34.83 77.5 12.73 80.55 17.5 90.25 48.25 95.75 86 86.75 112.75 56.25 120.5 26 109.29 12.92"/><polygon class="cls-3" points="6.07 67.01 12.73 80.55 62.08 74.2 100.46 47.52 109.29 12.92 84.34 37.95 48.38 60.63 6.07 67.01"/><circle class="cls-4" cx="28.37" cy="34.88" r="1.37"/><circle class="cls-4" cx="55.17" cy="58.29" r="1.37"/><circle class="cls-4" cx="18.62" cy="60.63" r="1.87"/><circle class="cls-4" cx="45.69" cy="25.19" r="0.69"/><circle class="cls-4" cx="49.02" cy="21.31" r="0.64"/><circle class="cls-4" cx="53.58" cy="25" r="0.5"/><circle class="cls-4" cx="97.08" cy="44.96" r="1.59"/><circle class="cls-4" cx="56.56" cy="38.47" r="1.59"/><circle class="cls-4" cx="90.85" cy="13.81" r="2.16"/><circle class="cls-4" cx="77.41" cy="65.25" r="1.08"/><circle class="cls-4" cx="76.2" cy="73.19" r="1.01"/><circle class="cls-4" cx="67.05" cy="72.08" r="0.79"/><circle class="cls-4" cx="39.37" cy="69.86" r="1.37"/><circle class="cls-4" cx="70.14" cy="51.99" r="1.37"/><circle class="cls-4" cx="60.64" cy="87.35" r="1.87"/><circle class="cls-4" cx="15.82" cy="45.99" r="0.69"/><circle class="cls-4" cx="12.73" cy="41.59" r="0.64"/><circle class="cls-4" cx="17.69" cy="38.45" r="0.5"/><circle class="cls-4" cx="85.35" cy="22.36" r="1.01"/><circle class="cls-4" cx="66.51" cy="15.18" r="1.37"/><circle class="cls-4" cx="80.02" cy="39.2" r="0.87"/><circle class="cls-4" cx="95.8" cy="56.25" r="1.19"/></g></g></svg>