<svg xmlns="http://www.w3.org/2000/svg" xmlns:xlink="http://www.w3.org/1999/xlink" viewBox="0 0 110 109.91"><defs><style>.cls-1{stroke:#c83b1c;stroke-miterlimit:10;stroke-width:10px;fill:url(#linear-gradient);}.cls-2{fill:#fff;}</style><linearGradient id="linear-gradient" x1="4.83" y1="97.05" x2="105.17" y2="12.86" gradientUnits="userSpaceOnUse"><stop offset="0" stop-color="#ff4c24"/><stop offset="0.47" stop-color="#f64923"/><stop offset="1" stop-color="#e54420"/></linearGradient></defs><title>put_back</title><g id="Layer_2" data-name="Layer 2"><g id="Layer_2-2" data-name="Layer 2"><rect class="cls-1" x="5" y="5" width="100" height="99.91" rx="12" ry="12"/><path class="cls-2" d="M74.53,57.5a1.12,1.12,0,0,0-.11-.47,1,1,0,0,0-.73-.58L55.44,47.6a1.1,1.1,0,0,0-.94,0L36.06,56.53a1.07,1.07,0,0,0-.6.93h0V79.93a1.08,1.08,0,0,0,.6,1L54.5,89.83h0l.08,0h0l.08,0h0l.09,0h.29l.09,0h0l.08,0h0l.08,0h0l18.49-9a1.08,1.08,0,0,0,.6-1V57.53A0,0,0,0,1,74.53,57.5ZM55,49.76l16,7.75-5.89,2.86-16-7.75Zm0,15.5L39,57.51l7.63-3.7,16,7.75Zm-17.35-6,16.28,7.89v20L37.61,79.25ZM56,87.14v-20l7.64-3.71v5.24a1.08,1.08,0,0,0,2.15,0V62.38l6.55-3.18v20Z"/><path class="cls-2" d="M62.74,35.54a.81.81,0,0,0,0-1.15.82.82,0,0,0-1.13,0l-5.8,5.81V21.05a.8.8,0,0,0-.8-.8.81.81,0,0,0-.82.8V40.2L48.4,34.39a.83.83,0,0,0-1.14,0,.81.81,0,0,0,0,1.15l7.17,7.17a.8.8,0,0,0,1.14,0Z"/></g></g></svg>