<svg xmlns="http://www.w3.org/2000/svg" xmlns:xlink="http://www.w3.org/1999/xlink" viewBox="0 0 110 109.91"><defs><style>.cls-1{stroke:#c83b1c;stroke-miterlimit:10;stroke-width:10px;fill:url(#linear-gradient);}.cls-2{fill:#fff;}</style><linearGradient id="linear-gradient" x1="4.83" y1="97.05" x2="105.17" y2="12.86" gradientUnits="userSpaceOnUse"><stop offset="0" stop-color="#ff4c24"/><stop offset="0.47" stop-color="#f64923"/><stop offset="1" stop-color="#e54420"/></linearGradient></defs><title>right</title><g id="Layer_2" data-name="Layer 2"><g id="Layer_2-2" data-name="Layer 2"><rect class="cls-1" x="5" y="5" width="100" height="99.91" rx="12" ry="12"/><path class="cls-2" d="M21.88,89.66h13a47.94,47.94,0,0,1,3.14-17.08A44.26,44.26,0,0,1,53.13,52.48,40.29,40.29,0,0,1,63,47.15V58.42L88.12,39.33,63,20.23V32.4a52.67,52.67,0,0,0-17.19,8.37A58.07,58.07,0,0,0,26,67.2,63.05,63.05,0,0,0,21.88,89.66Z"/></g></g></svg>