<svg xmlns="http://www.w3.org/2000/svg" viewBox="0 0 102.09 152.06"><defs><style>.cls-1{fill:#736357;}.cls-1,.cls-10,.cls-11,.cls-12,.cls-2,.cls-3,.cls-4,.cls-5,.cls-6,.cls-7,.cls-8,.cls-9{fill-rule:evenodd;}.cls-2{fill:#998675;}.cls-3{fill:#534741;}.cls-4{fill:#9a886d;}.cls-5{fill:#554a3c;}.cls-6{fill:#8c6239;}.cls-7{fill:#c69c6d;}.cls-8{fill:#603813;}.cls-9{fill:#a67c52;}.cls-10{fill:#28332c;}.cls-11{fill:#75573e;}.cls-12{fill:#594637;}</style></defs><title>sparrow</title><g id="Layer_2" data-name="Layer 2"><g id="Layer_2-2" data-name="Layer 2"><polygon class="cls-1" points="23.95 127.52 44.79 116.65 62.55 125.92 41.73 136.77 35.07 133.3 35.06 133.29 42.34 129.5 37.91 127.19 30.64 130.99 30.63 130.99 23.95 127.52"/><path class="cls-2" d="M35.07,133.85v-.55l6.66,3.47v5l-6.66-3.47ZM30.64,136,24,132.56v-5L30.63,131h0Z"/><path class="cls-3" d="M41.73,141.81v-5l20.82-10.85v5Zm-6.66-8L30.64,136v-5l7.27-3.8,4.43,2.31-7.28,3.79h0Z"/><polygon class="cls-1" points="44 137.77 64.84 126.9 82.6 136.17 61.78 147.02 55.12 143.55 55.11 143.54 62.39 139.75 57.96 137.44 50.69 141.24 50.68 141.24 44 137.77"/><path class="cls-2" d="M55.12,144.1v-.55L61.78,147v5l-6.66-3.47Zm-4.43,2.18L44,142.81v-5l6.68,3.47h0Z"/><path class="cls-3" d="M61.78,152.06v-5L82.6,136.17v5Zm-6.66-8-4.43,2.18v-5l7.27-3.8,4.43,2.31-7.28,3.79h0Z"/><polygon class="cls-4" points="55.55 96.78 48.07 100.68 48.07 127.36 40.56 123.46 40.56 96.78 48.07 92.86 55.55 96.78"/><polygon class="cls-5" points="48.07 127.36 48.07 100.68 55.55 96.78 55.55 123.46 48.07 127.36"/><polygon class="cls-4" points="74.86 107.48 67.37 111.38 67.37 138.06 59.86 134.16 59.86 107.48 67.37 103.56 74.86 107.48"/><polygon class="cls-5" points="67.37 138.06 67.37 111.38 74.86 107.48 74.86 134.16 67.37 138.06"/><polygon class="cls-6" points="102.03 55.11 102.03 97.02 50.81 123.73 50.81 42.64 51.16 42.43 91.69 21.3 91.69 49.74 91.69 60.48 102.03 55.11"/><polygon class="cls-7" points="9.95 21.3 50.81 42.64 50.81 123.73 9.95 102.44 9.95 21.3"/><path class="cls-8" d="M9.94,21.3,50.81,0,91.69,21.3,51.16,42.43l-.35.21ZM102,55.11,91.69,60.48V49.75Z"/><polygon class="cls-9" points="74.95 84.63 102.08 70.48 102.08 86.53 74.95 100.67 74.95 84.63"/><polygon class="cls-8" points="74.95 84.63 61.38 77.55 88.51 63.41 102.08 70.48 74.95 84.63"/><polygon class="cls-7" points="61.38 77.55 74.95 84.63 74.95 100.67 61.38 93.6 61.38 77.55"/><polygon class="cls-3" points="21.33 92.95 38.66 101.88 38.53 72.76 20.61 62.99 21.33 92.95"/><polygon class="cls-1" points="72.03 43.35 72.03 54.3 62.72 59.15 62.72 48.19 72.03 43.35"/><polygon class="cls-3" points="72.03 43.35 62.72 48.19 58.09 45.77 67.31 40.92 72.03 43.35"/><polygon class="cls-2" points="62.72 59.15 58.09 56.77 58.09 45.77 62.72 48.19 62.72 59.15"/><polygon class="cls-10" points="69.46 52.61 69.46 47.76 65.31 49.93 65.31 54.78 69.46 52.61"/><polygon class="cls-11" points="38.53 54.84 38.53 73.07 0.28 75.84 38.53 54.84"/><polygon class="cls-12" points="38.53 54.84 0.28 75.84 0.02 76 0 76 0.02 75.98 23.12 46.77 38.53 54.84"/></g></g></svg>