<svg xmlns="http://www.w3.org/2000/svg" viewBox="0 0 94.02 102.67"><defs><style>.cls-1{fill:#fff;}</style></defs><title>start</title><g id="Layer_2" data-name="Layer 2"><g id="Layer_2-2" data-name="Layer 2"><path class="cls-1" d="M94,51v.72a5.43,5.43,0,0,1-2.62,3.54Q74.48,64.48,57.58,73.81,36.21,85.56,14.84,97.3c-3.39,1.85-6.85,3.58-10.27,5.37H3.85A5.35,5.35,0,0,1,0,99.55V3.13A5.41,5.41,0,0,1,3.61,0h1.2C5.39.26,6,.47,6.54.78q20.7,11.37,41.38,22.76Q69.3,35.3,90.69,47A6,6,0,0,1,94,51Z"/><path class="cls-1" d="M0,99.55a5.35,5.35,0,0,0,3.85,3.12"/><path class="cls-1" d="M3.61,0A5.41,5.41,0,0,0,0,3.13"/></g></g></svg>