<svg xmlns="http://www.w3.org/2000/svg" viewBox="0 0 85.95 142.57"><defs><style>.cls-1{fill:#a02b1f;}.cls-1,.cls-10,.cls-11,.cls-12,.cls-13,.cls-2,.cls-3,.cls-4,.cls-5,.cls-6,.cls-7,.cls-8,.cls-9{fill-rule:evenodd;}.cls-2{fill:#d8371d;}.cls-3{fill:#bc3019;}.cls-4{fill:#f9ea7e;}.cls-5{fill:#beb5af;}.cls-6{fill:#ece9e8;}.cls-7{fill:#ddd8d5;}.cls-8{fill:#a99c9a;}.cls-9{fill:#f4f2f0;}.cls-10{fill:#c1b5a4;}.cls-11{fill:#e3dcd7;}.cls-12{fill:#333;}.cls-13{fill:#c6bcb9;}</style></defs><title>stork</title><g id="Layer_2" data-name="Layer 2"><g id="Layer_3" data-name="Layer 3"><polygon class="cls-1" points="39.06 131.23 55.14 122.85 55.14 126.93 39.06 135.32 39.06 131.23"/><polygon class="cls-2" points="55.14 122.85 39.06 131.23 28.49 125.73 44.62 117.33 55.14 122.84 55.14 122.85"/><polygon class="cls-3" points="28.49 125.73 39.06 131.23 39.06 135.32 28.49 129.83 28.49 125.73"/><polygon class="cls-1" points="43.97 126.31 43.97 72.15 48.41 69.84 48.41 124 43.97 126.31"/><polygon class="cls-4" points="50.21 71.64 44.02 74.86 37.82 71.64 44.02 68.4 50.21 71.64"/><polygon class="cls-3" points="44.02 72.07 44.02 126.33 39.45 123.93 39.45 69.67 44.02 72.07"/><polygon class="cls-1" points="54.92 138.48 71 130.1 71 134.18 54.92 142.57 54.92 138.48"/><polygon class="cls-2" points="71 130.1 54.92 138.48 44.35 132.98 60.47 124.58 71 130.09 71 130.1"/><polygon class="cls-3" points="44.35 132.98 54.92 138.48 54.92 142.57 44.35 137.08 44.35 132.98"/><polygon class="cls-1" points="59.83 133.56 59.83 79.4 64.26 77.09 64.26 131.25 59.83 133.56"/><polygon class="cls-4" points="66.07 78.89 59.88 82.11 53.68 78.89 59.88 75.65 66.07 78.89"/><polygon class="cls-3" points="59.88 79.32 59.88 133.58 55.31 131.18 55.31 76.92 59.88 79.32"/><polygon class="cls-5" points="52.87 82.96 52.87 60.16 77.73 47.2 77.73 73.29 56.02 84.59 52.87 82.96"/><polygon class="cls-6" points="77.73 47.2 52.87 60.16 30.76 48.65 55.69 35.66 85.95 31.36 77.73 47.2"/><polygon class="cls-7" points="52.87 60.16 52.87 82.96 30.76 71.48 30.76 48.65 52.87 60.16"/><polygon class="cls-8" points="77.73 73.29 77.73 47.2 85.95 31.36 77.73 73.29"/><polygon class="cls-5" points="47.1 57.57 47.1 27.6 38.67 23.23 47.1 18.83 55.52 23.23 55.52 53.18 47.1 57.57"/><polygon class="cls-7" points="47.1 57.57 38.67 53.18 38.67 23.23 47.1 27.6 47.1 57.57"/><polygon class="cls-5" points="62.05 8.23 46.29 16.43 46.29 35.01 62.05 26.82 62.05 8.23"/><polygon class="cls-6" points="62.05 8.23 46.29 0 30.57 8.23 46.29 16.43 62.05 8.23"/><polygon class="cls-7" points="46.29 16.43 30.57 8.23 30.57 26.82 46.29 35.01 46.29 16.43"/><polygon class="cls-1" points="0 49.13 42.32 19.84 42.32 26.82 0 49.13"/><polygon class="cls-2" points="42.32 19.84 0 49.13 35.8 16.43 42.32 19.84"/><polygon class="cls-9" points="48.15 18.28 50.18 19.34 54.27 17.21 52.2 16.15 48.15 18.28"/><polygon class="cls-10" points="48.15 18.28 48.15 23.11 50.18 24.15 50.18 19.34 48.15 18.28"/><polygon class="cls-11" points="50.18 19.34 50.18 24.15 54.27 22.02 54.27 17.21 50.18 19.34"/><polygon class="cls-12" points="53.09 21.28 53.09 19.15 51.26 20.1 51.26 22.23 53.09 21.28"/><polygon class="cls-6" points="72.1 57.93 59.72 64.38 54.22 61.52 76.19 50.04 72.1 57.93"/><polygon class="cls-7" points="59.72 64.38 59.72 77.38 54.22 74.52 54.22 61.52 59.72 64.38"/><polygon class="cls-12" points="72.1 70.93 72.1 57.93 76.19 50.04 72.1 70.93"/><polygon class="cls-13" points="72.1 70.93 59.72 77.38 59.72 64.38 72.1 57.93 72.1 70.93"/></g></g></svg>