<svg xmlns="http://www.w3.org/2000/svg" viewBox="0 0 128.5 106.25"><defs><style>.cls-1,.cls-7{fill:#a67c52;}.cls-1,.cls-2,.cls-3,.cls-4,.cls-5{fill-rule:evenodd;}.cls-2{fill:#ba9168;}.cls-3{fill:#c69c6d;}.cls-4{fill:#754c24;}.cls-5{fill:#fce621;opacity:0.94;}.cls-6{fill:none;}.cls-8{fill:#f7931e;}.cls-9{fill:#fbb03b;}.cls-10{fill:#fcbc21;}.cls-11{fill:#ea9e39;}.cls-12{fill:#f15a24;}</style></defs><title>ziarno</title><g id="Layer_2" data-name="Layer 2"><g id="Layer_3" data-name="Layer 3"><polygon class="cls-1" points="128.5 20.42 91.34 55.63 90 62.25 126 27.08 128.5 20.42"/><polygon class="cls-2" points="15.16 40.51 45.36 20.75 60.16 4.42 75.22 0 106.87 2.58 123.32 11.66 128.5 20.42 104 44.58 91.34 55.63 15.16 40.51"/><polyline class="cls-3" points="5.87 50.53 23.37 30.75 60.16 27.08 87.5 38.58 92.5 50.8 90.5 65.64 51 74.96 25.24 70.08 8.87 62.42"/><polyline class="cls-4" points="16 50.25 31.5 36.75 56.5 35 74.5 42.06 83.5 51.5 80.75 61.5 49.75 68 31.25 64.5 19.5 59"/><polygon class="cls-5" points="32.33 42.06 16 50.25 9.72 67.54 25.32 83.86 56.09 86.02 72.41 79.71 80.01 72.97 80.53 67.07 82.42 55.41 59.81 40.08 32.33 42.06"/><line class="cls-6" y1="74.58" x2="0.17" y2="86.75"/><polygon class="cls-7" points="92.5 46.52 99 40.08 109.67 30.58 119.5 23.42 125.83 15.89 126.86 17.64 120.83 24.92 111.09 32.25 102.83 40.08 93.42 47.99 92.5 46.52"/><path class="cls-8" d="M17.71,76.11a4.55,4.55,0,0,1,.11,2.81,4,4,0,0,1-2.05-4.85A4.62,4.62,0,0,1,17.71,76.11Z"/><path class="cls-8" d="M30.62,63.26A4.6,4.6,0,0,1,31.27,66,4.58,4.58,0,0,1,29,64.37a4.63,4.63,0,0,1-.65-2.74A4.63,4.63,0,0,1,30.62,63.26Z"/><path class="cls-8" d="M34.13,78.32a4.58,4.58,0,0,1-2.31,1.61,4.57,4.57,0,0,1,.67-2.72,4.63,4.63,0,0,1,2.31-1.62A4.59,4.59,0,0,1,34.13,78.32Z"/><path class="cls-8" d="M21.12,65.37a4.61,4.61,0,0,1-1.65,2.27,4,4,0,0,1,1.38-5.07A4.6,4.6,0,0,1,21.12,65.37Z"/><path class="cls-8" d="M46.5,80.53a4.54,4.54,0,0,1,1.58,2.32,4.62,4.62,0,0,1-2.72-.7,4.54,4.54,0,0,1-1.58-2.32A4.54,4.54,0,0,1,46.5,80.53Z"/><path class="cls-8" d="M42.9,58.36a4.61,4.61,0,0,1-2.42,1.43,4,4,0,0,1,3.3-4.1A4.61,4.61,0,0,1,42.9,58.36Z"/><path class="cls-8" d="M49.75,70.62a4.63,4.63,0,0,1-1.09,2.59,4,4,0,0,1,.2-5.25A4.53,4.53,0,0,1,49.75,70.62Z"/><path class="cls-8" d="M34.7,49.79a4.6,4.6,0,0,1,.87,2.68A4.59,4.59,0,0,1,33.15,51a4.64,4.64,0,0,1-.87-2.67A4.61,4.61,0,0,1,34.7,49.79Z"/><path class="cls-8" d="M12,84.78a4.56,4.56,0,0,1,.12,2.8,4.56,4.56,0,0,1-1.94-2,4.55,4.55,0,0,1-.11-2.81A4.57,4.57,0,0,1,12,84.78Z"/><path class="cls-8" d="M19.88,92.1A4.64,4.64,0,0,1,20,94.91a4,4,0,0,1-2-4.85A4.62,4.62,0,0,1,19.88,92.1Z"/><path class="cls-8" d="M27.85,75.37A4.6,4.6,0,0,1,26.79,78a4,4,0,0,1,.15-5.26A4.56,4.56,0,0,1,27.85,75.37Z"/><path class="cls-8" d="M22.38,56.68a4.54,4.54,0,0,1-2.57-1.12,4.58,4.58,0,0,1,2.67-.86,4.59,4.59,0,0,1,2.58,1.12A4.59,4.59,0,0,1,22.38,56.68Z"/><path class="cls-8" d="M38.22,67.53A4.57,4.57,0,0,1,41,67.22a4.6,4.6,0,0,1-1.89,2.08,4.57,4.57,0,0,1-2.79.31A4.6,4.6,0,0,1,38.22,67.53Z"/><path class="cls-8" d="M11.87,91.6a4.57,4.57,0,0,1,2.79-.31,4.6,4.6,0,0,1-1.89,2.08,4.57,4.57,0,0,1-2.79.31A4.53,4.53,0,0,1,11.87,91.6Z"/><path class="cls-8" d="M55.78,55.79a4.6,4.6,0,0,1-1.24,2.52,4,4,0,0,1,.5-5.24A4.59,4.59,0,0,1,55.78,55.79Z"/><path class="cls-8" d="M26.86,97.71a4.6,4.6,0,0,1-1.24,2.52A4,4,0,0,1,26.13,95,4.61,4.61,0,0,1,26.86,97.71Z"/><path class="cls-8" d="M46.56,48.61A4.62,4.62,0,0,1,48,51.05,4,4,0,0,1,43.9,47.7,4.55,4.55,0,0,1,46.56,48.61Z"/><path class="cls-8" d="M52.16,63.82a4.6,4.6,0,0,1,2.8-.27,4,4,0,0,1-4.73,2.31A4.58,4.58,0,0,1,52.16,63.82Z"/><path class="cls-8" d="M5.73,76.87a4.64,4.64,0,0,1,2.8-.26,4.53,4.53,0,0,1-1.93,2,4.6,4.6,0,0,1-2.8.27A4.65,4.65,0,0,1,5.73,76.87Z"/><path class="cls-8" d="M36.48,57.92a4.59,4.59,0,0,1,.12,2.81,4.63,4.63,0,0,1-1.94-2,4.55,4.55,0,0,1-.11-2.81A4.58,4.58,0,0,1,36.48,57.92Z"/><path class="cls-8" d="M58,74.27a4.67,4.67,0,0,1-1.5,2.38A4.64,4.64,0,0,1,56,73.87a4.55,4.55,0,0,1,1.5-2.37A4.6,4.6,0,0,1,58,74.27Z"/><path class="cls-8" d="M54.09,80.07a4.58,4.58,0,0,1-1.35,2.47,4.64,4.64,0,0,1-.61-2.74,4.58,4.58,0,0,1,1.35-2.47A4.64,4.64,0,0,1,54.09,80.07Z"/><path class="cls-8" d="M39.58,82.35a4.59,4.59,0,0,1,.12,2.81,4,4,0,0,1-2.06-4.84A4.57,4.57,0,0,1,39.58,82.35Z"/><path class="cls-8" d="M31.91,89.68a4.61,4.61,0,0,1,.11,2.8,4.56,4.56,0,0,1-1.94-2A4.64,4.64,0,0,1,30,87.64,4.62,4.62,0,0,1,31.91,89.68Z"/><path class="cls-8" d="M23.21,47.74a4.64,4.64,0,0,1,.87,2.67A4.61,4.61,0,0,1,21.66,49a4.58,4.58,0,0,1-.87-2.67A4.61,4.61,0,0,1,23.21,47.74Z"/><path class="cls-8" d="M12.05,58.65a4.57,4.57,0,0,1-1.82,2.13,4.61,4.61,0,0,1,0-2.81A4.63,4.63,0,0,1,12,55.84,4.56,4.56,0,0,1,12.05,58.65Z"/><path class="cls-8" d="M62.66,61a4.64,4.64,0,0,1,.87,2.67,4,4,0,0,1-3.29-4.11A4.59,4.59,0,0,1,62.66,61Z"/><path class="cls-8" d="M39.56,93.3a4.65,4.65,0,0,1-2.3,1.61,4,4,0,0,1,3-4.34A4.6,4.6,0,0,1,39.56,93.3Z"/><path class="cls-8" d="M51.22,92.36a4.56,4.56,0,0,1-1,2.63,4.55,4.55,0,0,1-1-2.62,4.61,4.61,0,0,1,1-2.64A4.6,4.6,0,0,1,51.22,92.36Z"/><path class="cls-8" d="M30.6,44a4.6,4.6,0,0,1-1,2.63,4.6,4.6,0,0,1-1-2.63,4.63,4.63,0,0,1,1-2.63A4.54,4.54,0,0,1,30.6,44Z"/><path class="cls-8" d="M9.72,67.54a4.58,4.58,0,0,1-1,2.62,4,4,0,0,1,0-5.26A4.58,4.58,0,0,1,9.72,67.54Z"/><path class="cls-9" d="M77.75,64.61A4.28,4.28,0,0,1,75.48,66a4.34,4.34,0,0,1,.82-2.51,4.27,4.27,0,0,1,2.28-1.34A4.28,4.28,0,0,1,77.75,64.61Z"/><path class="cls-10" d="M42.69,85.61A5.11,5.11,0,0,1,44.76,88a4.44,4.44,0,0,1-5.18-2.75A5.12,5.12,0,0,1,42.69,85.61Z"/><path class="cls-10" d="M44.8,65.41a5.09,5.09,0,0,1,2.49,1.9,5.12,5.12,0,0,1-3.13.21,5.15,5.15,0,0,1-2.49-1.9A5.12,5.12,0,0,1,44.8,65.41Z"/><path class="cls-10" d="M58.45,76a5.15,5.15,0,0,1-.86,3,4.47,4.47,0,0,1-.49-5.85A5.16,5.16,0,0,1,58.45,76Z"/><path class="cls-10" d="M38.07,73.92a5.18,5.18,0,0,1,.18,3.13,4.44,4.44,0,0,1-2.38-5.36A5.12,5.12,0,0,1,38.07,73.92Z"/><path class="cls-10" d="M70.7,69.16a5.09,5.09,0,0,1,3,.89,4.45,4.45,0,0,1-5.85.42A5.08,5.08,0,0,1,70.7,69.16Z"/><path class="cls-10" d="M52,52.52a5.11,5.11,0,0,1-1.09,2.94,4.45,4.45,0,0,1,0-5.87A5.14,5.14,0,0,1,52,52.52Z"/><path class="cls-10" d="M66.53,58.3a5.15,5.15,0,0,1,.88,3,5.16,5.16,0,0,1-2.65-1.69,5.08,5.08,0,0,1-.87-3A5.06,5.06,0,0,1,66.53,58.3Z"/><path class="cls-10" d="M38.85,50.89a5.12,5.12,0,0,1,2.63,1.69,5.11,5.11,0,0,1-3.1.47,5.22,5.22,0,0,1-2.64-1.7A5.16,5.16,0,0,1,38.85,50.89Z"/><path class="cls-10" d="M43.88,97.1A5.1,5.1,0,0,1,46,99.45a4.47,4.47,0,0,1-5.19-2.74A5.08,5.08,0,0,1,43.88,97.1Z"/><path class="cls-10" d="M55.82,97.91a5.1,5.1,0,0,1,2.08,2.35,4.46,4.46,0,0,1-5.19-2.75A5.12,5.12,0,0,1,55.82,97.91Z"/><path class="cls-10" d="M50.94,77.83a5.06,5.06,0,0,1,.91,3,4.44,4.44,0,0,1-3.57-4.65A5.12,5.12,0,0,1,50.94,77.83Z"/><path class="cls-10" d="M33.05,65.52a5.09,5.09,0,0,1-3,.84,5.08,5.08,0,0,1,1.71-2.62,5.13,5.13,0,0,1,3-.85A5.17,5.17,0,0,1,33.05,65.52Z"/><path class="cls-10" d="M54.39,63.75a5.13,5.13,0,0,1,2.19-2.24,4.44,4.44,0,0,1-2.37,5.37A5.1,5.1,0,0,1,54.39,63.75Z"/><path class="cls-10" d="M48.55,103.12a5.12,5.12,0,0,1,2.2-2.24,5.18,5.18,0,0,1-.18,3.13,5.06,5.06,0,0,1-2.19,2.24A5.14,5.14,0,0,1,48.55,103.12Z"/><path class="cls-10" d="M61.29,41.22A5.14,5.14,0,0,1,62,44.28a5.2,5.2,0,0,1-2.55-1.83,5.18,5.18,0,0,1-.7-3.06A5.12,5.12,0,0,1,61.29,41.22Z"/><path class="cls-10" d="M65.81,97.84a5.14,5.14,0,0,1,.71,3.06A4.46,4.46,0,0,1,63.27,96,5.08,5.08,0,0,1,65.81,97.84Z"/><path class="cls-10" d="M48.27,41.51a5.07,5.07,0,0,1,2.92,1.13,5.14,5.14,0,0,1-2.94,1.08,5.2,5.2,0,0,1-2.93-1.13A5.18,5.18,0,0,1,48.27,41.51Z"/><path class="cls-10" d="M63.82,50.72a5.13,5.13,0,0,1,2.24-2.2,4.44,4.44,0,0,1-2.47,5.32A5.11,5.11,0,0,1,63.82,50.72Z"/><path class="cls-10" d="M32.87,94.71a5.13,5.13,0,0,1,2.24-2.2,4.44,4.44,0,0,1-2.47,5.32A5.11,5.11,0,0,1,32.87,94.71Z"/><path class="cls-10" d="M46.11,56.66A5.1,5.1,0,0,1,48.19,59,4.46,4.46,0,0,1,43,56.26,5.12,5.12,0,0,1,46.11,56.66Z"/><path class="cls-10" d="M76.2,55.67a5.12,5.12,0,0,1,.38,3.11,4.43,4.43,0,0,1-2.71-5.2A5.1,5.1,0,0,1,76.2,55.67Z"/><path class="cls-10" d="M76.94,63.41a5.12,5.12,0,0,1,.57,3.09,5.16,5.16,0,0,1-2.46-2,5.09,5.09,0,0,1-.57-3.08A5.13,5.13,0,0,1,76.94,63.41Z"/><path class="cls-10" d="M66,75.6A5.17,5.17,0,0,1,68.08,78a4.44,4.44,0,0,1-5.19-2.74A5.16,5.16,0,0,1,66,75.6Z"/><path class="cls-10" d="M64.52,87.34a5.17,5.17,0,0,1,2.08,2.35A4.47,4.47,0,0,1,61.41,87,5.08,5.08,0,0,1,64.52,87.34Z"/><path class="cls-10" d="M27.46,57.21A5.17,5.17,0,0,1,30.1,58.9a5.13,5.13,0,0,1-3.11.47,5.17,5.17,0,0,1-2.63-1.7A5.14,5.14,0,0,1,27.46,57.21Z"/><path class="cls-10" d="M25.5,74.49a5.16,5.16,0,0,1-.08,3.14,5.18,5.18,0,0,1-2-2.41,5.12,5.12,0,0,1,.08-3.13A5.12,5.12,0,0,1,25.5,74.49Z"/><path class="cls-10" d="M70.93,40.9a5.1,5.1,0,0,1,2.63,1.7,4.46,4.46,0,0,1-5.74-1.24A5.16,5.16,0,0,1,70.93,40.9Z"/><path class="cls-10" d="M73.69,85.08a5.11,5.11,0,0,1-.86,3,4.46,4.46,0,0,1-.48-5.85A5.11,5.11,0,0,1,73.69,85.08Z"/><path class="cls-10" d="M83.12,76.06a5.17,5.17,0,0,1,1,3,4.46,4.46,0,0,1-3.72-4.54A5.17,5.17,0,0,1,83.12,76.06Z"/><path class="cls-10" d="M31.18,48.72a5.15,5.15,0,0,1,1,3,4.44,4.44,0,0,1-3.71-4.55A5.13,5.13,0,0,1,31.18,48.72Z"/><path class="cls-9" d="M54.08,81.29a4.26,4.26,0,0,1,.11,2.64,3.75,3.75,0,0,1-1.93-4.55A4.27,4.27,0,0,1,54.08,81.29Z"/><path class="cls-9" d="M66.21,69.22a4.3,4.3,0,0,1,.62,2.57,3.75,3.75,0,0,1-2.77-4.1A4.32,4.32,0,0,1,66.21,69.22Z"/><path class="cls-9" d="M69.51,83.37a4.31,4.31,0,0,1-2.16,1.52A4.26,4.26,0,0,1,68,82.32a4.33,4.33,0,0,1,2.16-1.51A4.31,4.31,0,0,1,69.51,83.37Z"/><path class="cls-9" d="M57.28,71.2a4.36,4.36,0,0,1-1.55,2.14,4.35,4.35,0,0,1-.24-2.63A4.3,4.3,0,0,1,57,68.57,4.33,4.33,0,0,1,57.28,71.2Z"/><path class="cls-9" d="M81.13,85.45a4.28,4.28,0,0,1,1.49,2.18,3.75,3.75,0,0,1-4-2.84A4.25,4.25,0,0,1,81.13,85.45Z"/><path class="cls-11" d="M51.31,60.41a4.32,4.32,0,0,1,2.63-.25,3.77,3.77,0,0,1-4.45,2.17A4.28,4.28,0,0,1,51.31,60.41Z"/><path class="cls-11" d="M7.68,72.68a4.31,4.31,0,0,1,2.63-.25A4.35,4.35,0,0,1,8.5,74.35a4.31,4.31,0,0,1-2.63.25A4.23,4.23,0,0,1,7.68,72.68Z"/><path class="cls-11" d="M36.57,54.87a4.27,4.27,0,0,1,.11,2.64A3.77,3.77,0,0,1,34.75,53,4.32,4.32,0,0,1,36.57,54.87Z"/><path class="cls-11" d="M56.75,70.23a4.25,4.25,0,0,1-1.41,2.23,3.75,3.75,0,0,1,1-4.84A4.29,4.29,0,0,1,56.75,70.23Z"/><path class="cls-11" d="M53.12,75.68A4.33,4.33,0,0,1,51.85,78a3.76,3.76,0,0,1,.7-4.9A4.36,4.36,0,0,1,53.12,75.68Z"/><path class="cls-11" d="M39.49,77.82a4.31,4.31,0,0,1,.1,2.64,3.73,3.73,0,0,1-1.92-4.55A4.39,4.39,0,0,1,39.49,77.82Z"/><path class="cls-11" d="M32.27,84.7a4.26,4.26,0,0,1,.11,2.64,4.27,4.27,0,0,1-1.82-1.91,4.35,4.35,0,0,1-.11-2.64A4.33,4.33,0,0,1,32.27,84.7Z"/><path class="cls-11" d="M24.1,45.3a4.34,4.34,0,0,1,.82,2.51A3.73,3.73,0,0,1,21.83,44,4.31,4.31,0,0,1,24.1,45.3Z"/><path class="cls-11" d="M13.62,55.55a4.33,4.33,0,0,1-1.72,2,3.75,3.75,0,0,1,1.68-4.64A4.32,4.32,0,0,1,13.62,55.55Z"/><path class="cls-11" d="M61.17,57.77A4.35,4.35,0,0,1,62,60.28a3.74,3.74,0,0,1-3.09-3.86A4.36,4.36,0,0,1,61.17,57.77Z"/><path class="cls-11" d="M39.47,88.11a4.34,4.34,0,0,1-2.17,1.51,3.74,3.74,0,0,1,2.8-4.08A4.35,4.35,0,0,1,39.47,88.11Z"/><path class="cls-11" d="M50.42,87.23a4.35,4.35,0,0,1-.92,2.47,4.27,4.27,0,0,1-.94-2.47,4.33,4.33,0,0,1,.93-2.47A4.29,4.29,0,0,1,50.42,87.23Z"/><path class="cls-11" d="M31,41.73a4.29,4.29,0,0,1-.92,2.48,4.39,4.39,0,0,1-.94-2.48,4.33,4.33,0,0,1,.93-2.47A4.33,4.33,0,0,1,31,41.73Z"/><path class="cls-11" d="M49,66.8a4.24,4.24,0,0,1-1,2.43,4.33,4.33,0,0,1-.83-2.5,4.29,4.29,0,0,1,1-2.44A4.38,4.38,0,0,1,49,66.8Z"/><path class="cls-11" d="M34.9,47.23a4.34,4.34,0,0,1,.82,2.51,3.76,3.76,0,0,1-3.09-3.86A4.28,4.28,0,0,1,34.9,47.23Z"/><path class="cls-11" d="M13.6,80.1a4.35,4.35,0,0,1,.11,2.64,4.33,4.33,0,0,1-1.82-1.91,4.26,4.26,0,0,1-.11-2.64A4.27,4.27,0,0,1,13.6,80.1Z"/><path class="cls-11" d="M21,87a4.31,4.31,0,0,1,.1,2.64,4.39,4.39,0,0,1-1.82-1.91,4.31,4.31,0,0,1-.1-2.64A4.27,4.27,0,0,1,21,87Z"/><path class="cls-11" d="M28.47,71.26a4.33,4.33,0,0,1-1,2.45,4.34,4.34,0,0,1-.86-2.5,4.28,4.28,0,0,1,1-2.45A4.39,4.39,0,0,1,28.47,71.26Z"/><path class="cls-11" d="M23.33,53.7a4.34,4.34,0,0,1-2.43-1.05,4.29,4.29,0,0,1,2.52-.81,4.34,4.34,0,0,1,2.42,1A4.28,4.28,0,0,1,23.33,53.7Z"/><path class="cls-11" d="M38.21,63.9a4.33,4.33,0,0,1,2.62-.3,4.29,4.29,0,0,1-1.78,2,4.28,4.28,0,0,1-2.62.29A4.29,4.29,0,0,1,38.21,63.9Z"/><path class="cls-11" d="M13.44,86.51a4.32,4.32,0,0,1,2.63-.29,4.29,4.29,0,0,1-1.78,2,4.36,4.36,0,0,1-2.63.3A4.36,4.36,0,0,1,13.44,86.51Z"/><path class="cls-11" d="M54.7,52.86a4.3,4.3,0,0,1-1.16,2.37A3.75,3.75,0,0,1,54,50.31,4.32,4.32,0,0,1,54.7,52.86Z"/><path class="cls-11" d="M27.53,92.25a4.3,4.3,0,0,1-1.16,2.37,3.75,3.75,0,0,1,.47-4.92A4.32,4.32,0,0,1,27.53,92.25Z"/><path class="cls-11" d="M46,46.11a4.33,4.33,0,0,1,1.31,2.3,4.3,4.3,0,0,1-2.49-.86,4.24,4.24,0,0,1-1.31-2.29A4.25,4.25,0,0,1,46,46.11Z"/><path class="cls-12" d="M25.83,76a4.33,4.33,0,0,1-2.57.59,4.36,4.36,0,0,1,1.54-2.14,4.33,4.33,0,0,1,2.58-.6A4.35,4.35,0,0,1,25.83,76Z"/><path class="cls-12" d="M67.45,58.06a4.34,4.34,0,0,1-2.57.59,4.25,4.25,0,0,1,1.54-2.14,4.3,4.3,0,0,1,2.57-.6A4.3,4.3,0,0,1,67.45,58.06Z"/><path class="cls-12" d="M41.17,79.54a4.37,4.37,0,0,1-.46-2.6,3.75,3.75,0,0,1,2.52,4.25A4.31,4.31,0,0,1,41.17,79.54Z"/><path class="cls-12" d="M19.13,67a4.36,4.36,0,0,1,1.1-2.4,3.75,3.75,0,0,1-.34,4.94A4.36,4.36,0,0,1,19.13,67Z"/><path class="cls-12" d="M22,61.1A4.32,4.32,0,0,1,23,58.63a3.76,3.76,0,0,1,0,4.95A4.35,4.35,0,0,1,22,61.1Z"/><path class="cls-12" d="M35.24,57.17a4.32,4.32,0,0,1-.45-2.6,3.75,3.75,0,0,1,2.51,4.25A4.35,4.35,0,0,1,35.24,57.17Z"/><path class="cls-12" d="M41.48,49.39a4.28,4.28,0,0,1-.46-2.6,4.29,4.29,0,0,1,2.06,1.66,4.36,4.36,0,0,1,.46,2.6A4.29,4.29,0,0,1,41.48,49.39Z"/><path class="cls-12" d="M54.8,87.37A4.37,4.37,0,0,1,53.66,85a3.73,3.73,0,0,1,3.57,3.41A4.32,4.32,0,0,1,54.8,87.37Z"/><path class="cls-12" d="M63.83,75.82a4.41,4.41,0,0,1,1.44-2.22,3.76,3.76,0,0,1-1,4.83A4.29,4.29,0,0,1,63.83,75.82Z"/><path class="cls-12" d="M16.41,79.92a4.34,4.34,0,0,1-1.15-2.38,4.3,4.3,0,0,1,2.43,1A4.31,4.31,0,0,1,18.84,81,4.3,4.3,0,0,1,16.41,79.92Z"/><path class="cls-12" d="M33.9,47a4.31,4.31,0,0,1,1.94-1.78,3.74,3.74,0,0,1-2.23,4.41A4.32,4.32,0,0,1,33.9,47Z"/><path class="cls-12" d="M23.15,49.3a4.32,4.32,0,0,1,.6-2.58,3.76,3.76,0,0,1,.66,4.9A4.34,4.34,0,0,1,23.15,49.3Z"/><path class="cls-12" d="M48.39,91.82A4.33,4.33,0,0,1,49,89.25a3.72,3.72,0,0,1,.66,4.9A4.29,4.29,0,0,1,48.39,91.82Z"/><path class="cls-12" d="M27.23,69.36a4.29,4.29,0,0,1,.7-2.55,3.77,3.77,0,0,1,.46,4.92A4.3,4.3,0,0,1,27.23,69.36Z"/><path class="cls-12" d="M43.84,86.89a4.37,4.37,0,0,1-1.14-2.38,4.32,4.32,0,0,1,2.43,1,4.26,4.26,0,0,1,1.14,2.38A4.32,4.32,0,0,1,43.84,86.89Z"/><path class="cls-12" d="M60.6,51.48a4.28,4.28,0,0,1-.46-2.6,4.29,4.29,0,0,1,2.06,1.66,4.36,4.36,0,0,1,.46,2.6A4.29,4.29,0,0,1,60.6,51.48Z"/><path class="cls-12" d="M52.38,45.64a4.32,4.32,0,0,1-.45-2.6,3.75,3.75,0,0,1,2.51,4.25A4.35,4.35,0,0,1,52.38,45.64Z"/><path class="cls-12" d="M47,62.21a4.3,4.3,0,0,1,.67-2.55,3.76,3.76,0,0,1,.52,4.91A4.34,4.34,0,0,1,47,62.21Z"/><path class="cls-12" d="M54.46,78.94a4.35,4.35,0,0,1,2.54.72,4.32,4.32,0,0,1-2.39,1.13,4.27,4.27,0,0,1-2.54-.72A4.32,4.32,0,0,1,54.46,78.94Z"/><path class="cls-12" d="M38.35,70.8a4.27,4.27,0,0,1-2.56.64,3.76,3.76,0,0,1,4.07-2.81A4.27,4.27,0,0,1,38.35,70.8Z"/><path class="cls-12" d="M59.9,45.1a4.27,4.27,0,0,1-2.56.64,4.33,4.33,0,0,1,1.5-2.17,4.4,4.4,0,0,1,2.57-.64A4.34,4.34,0,0,1,59.9,45.1Z"/><path class="cls-12" d="M23.47,83.93a4.26,4.26,0,0,1,.83-2.5,3.76,3.76,0,0,1,.19,4.94A4.35,4.35,0,0,1,23.47,83.93Z"/><path class="cls-12" d="M45.18,41.28a4.31,4.31,0,0,1,.84-2.5,4.3,4.3,0,0,1,1,2.43,4.32,4.32,0,0,1-.84,2.51A4.31,4.31,0,0,1,45.18,41.28Z"/><path class="cls-12" d="M32.94,89.47a4.39,4.39,0,0,1-1.6-2.1,4.34,4.34,0,0,1,2.59.52,4.27,4.27,0,0,1,1.6,2.1A4.34,4.34,0,0,1,32.94,89.47Z"/><path class="cls-8" d="M83,89.88A3.86,3.86,0,0,1,85.22,89,3.36,3.36,0,0,1,82,92,3.87,3.87,0,0,1,83,89.88Z"/><path class="cls-8" d="M69.21,83.35a3.88,3.88,0,0,1,2-1.29,3.36,3.36,0,0,1-2.6,3.57A3.87,3.87,0,0,1,69.21,83.35Z"/><path class="cls-8" d="M80.1,76.29A3.82,3.82,0,0,1,82,77.65a3.35,3.35,0,0,1-4.28-1.11A3.84,3.84,0,0,1,80.1,76.29Z"/><path class="cls-8" d="M73.58,90.26a3.84,3.84,0,0,1,2.27.65,3.89,3.89,0,0,1-2.14,1,3.82,3.82,0,0,1-2.26-.65A3.81,3.81,0,0,1,73.58,90.26Z"/><path class="cls-8" d="M78.31,65.89A3.82,3.82,0,0,1,79.69,64a3.35,3.35,0,0,1-1.16,4.26A3.86,3.86,0,0,1,78.31,65.89Z"/><path class="cls-8" d="M61.84,75.06a3.8,3.8,0,0,1,1.81,1.5,3.79,3.79,0,0,1-2.35.07,3.85,3.85,0,0,1-1.82-1.5A3.82,3.82,0,0,1,61.84,75.06Z"/><path class="cls-8" d="M69.56,66.15a3.88,3.88,0,0,1,2.36.12,3.79,3.79,0,0,1-1.86,1.46,3.84,3.84,0,0,1-2.35-.12A3.86,3.86,0,0,1,69.56,66.15Z"/><path class="cls-8" d="M57.41,84a3.87,3.87,0,0,1,1.86-1.45,3.82,3.82,0,0,1-.44,2.32A3.87,3.87,0,0,1,57,86.29,3.9,3.9,0,0,1,57.41,84Z"/><path class="cls-8" d="M91.5,91.89A3.82,3.82,0,0,1,93.68,91a3.36,3.36,0,0,1-3.24,3A3.84,3.84,0,0,1,91.5,91.89Z"/><path class="cls-8" d="M95,83.61a3.82,3.82,0,0,1,2.18-.89,3.34,3.34,0,0,1-3.24,3A3.84,3.84,0,0,1,95,83.61Z"/><path class="cls-8" d="M79.56,82.08a3.85,3.85,0,0,1,2.35.1,3.34,3.34,0,0,1-4.19,1.38A3.85,3.85,0,0,1,79.56,82.08Z"/><path class="cls-8" d="M66.36,91.73a3.84,3.84,0,0,1-.15,2.36,3.92,3.92,0,0,1-1.44-1.87,3.84,3.84,0,0,1,.15-2.36A3.92,3.92,0,0,1,66.36,91.73Z"/><path class="cls-8" d="M70.41,76.13a3.82,3.82,0,0,1-1-2.11,3.34,3.34,0,0,1,3.22,3A3.84,3.84,0,0,1,70.41,76.13Z"/><path class="cls-8" d="M96.93,90.07a3.83,3.83,0,0,1-1-2.12,3.36,3.36,0,0,1,3.22,3A3.87,3.87,0,0,1,96.93,90.07Z"/><path class="cls-8" d="M56.13,65.62a3.85,3.85,0,0,1,2.34.26A3.36,3.36,0,0,1,54.2,67,3.89,3.89,0,0,1,56.13,65.62Z"/><path class="cls-8" d="M97.47,76.49a3.87,3.87,0,0,1,2.35.26,3.36,3.36,0,0,1-4.28,1.1A3.89,3.89,0,0,1,97.47,76.49Z"/><path class="cls-8" d="M53.09,75a3.84,3.84,0,0,1,1.53-1.8,3.35,3.35,0,0,1-1.49,4.16A3.86,3.86,0,0,1,53.09,75Z"/><path class="cls-8" d="M63.5,66.19a3.88,3.88,0,0,1-1-2.14,3.38,3.38,0,0,1,3.17,3.08A3.87,3.87,0,0,1,63.5,66.19Z"/><path class="cls-8" d="M87.05,99.11a3.83,3.83,0,0,1-1-2.13,3.36,3.36,0,0,1,3.17,3.07A3.87,3.87,0,0,1,87.05,99.11Z"/><path class="cls-8" d="M63.32,80.25a3.86,3.86,0,0,1,2.19-.89,3.36,3.36,0,0,1-3.24,3A3.87,3.87,0,0,1,63.32,80.25Z"/><path class="cls-8" d="M70.1,58.63a3.77,3.77,0,0,1,2.3.51,3.37,3.37,0,0,1-4.37.63A3.82,3.82,0,0,1,70.1,58.63Z"/><path class="cls-8" d="M75.78,60a3.88,3.88,0,0,1,2.34.36,3.37,3.37,0,0,1-4.33.9A3.88,3.88,0,0,1,75.78,60Z"/><path class="cls-8" d="M81.72,70.83a3.86,3.86,0,0,1,2.19-.89,3.36,3.36,0,0,1-3.24,3A3.87,3.87,0,0,1,81.72,70.83Z"/><path class="cls-8" d="M89.69,74.8a3.86,3.86,0,0,1,2.19-.89,3.36,3.36,0,0,1-3.24,3A3.87,3.87,0,0,1,89.69,74.8Z"/><path class="cls-8" d="M59.07,93.63a3.87,3.87,0,0,1,1.86-1.45A3.34,3.34,0,0,1,58.63,96,3.82,3.82,0,0,1,59.07,93.63Z"/><path class="cls-8" d="M70.86,99.33a3.86,3.86,0,0,1,2.21.83,3.36,3.36,0,0,1-4.42,0A3.86,3.86,0,0,1,70.86,99.33Z"/><path class="cls-8" d="M58.29,58.7a3.88,3.88,0,0,1,1.87-1.45A3.36,3.36,0,0,1,57.85,61,3.9,3.9,0,0,1,58.29,58.7Z"/><path class="cls-8" d="M90.37,67.72a3.89,3.89,0,0,1,1.93,1.36A3.35,3.35,0,0,1,88,68,3.92,3.92,0,0,1,90.37,67.72Z"/><path class="cls-8" d="M86.3,58.79a3.85,3.85,0,0,1,2.36,0,3.34,3.34,0,0,1-4.15,1.51A3.85,3.85,0,0,1,86.3,58.79Z"/><path class="cls-8" d="M54,88.88a3.79,3.79,0,0,1,2.35,0,3.35,3.35,0,0,1-4.15,1.5A3.9,3.9,0,0,1,54,88.88Z"/><path class="cls-8" d="M78.55,98.63a3.87,3.87,0,0,1,2.35.05,3.34,3.34,0,0,1-4.16,1.47A3.9,3.9,0,0,1,78.55,98.63Z"/><path class="cls-9" d="M43.37,47.05a3.64,3.64,0,0,1,1.7,1.42,3.64,3.64,0,0,1-2.21.06,3.58,3.58,0,0,1-1.71-1.41A3.63,3.63,0,0,1,43.37,47.05Z"/><path class="cls-10" d="M69.94,68.75a4.27,4.27,0,0,1,1.27-2.31,3.74,3.74,0,0,1-.69,4.87A4.26,4.26,0,0,1,69.94,68.75Z"/><path class="cls-10" d="M53.39,72.84a4.33,4.33,0,0,1,.79-2.51,3.74,3.74,0,0,1,.27,4.92A4.27,4.27,0,0,1,53.39,72.84Z"/><path class="cls-10" d="M57.83,59.06a4.31,4.31,0,0,1,2.63-.19A3.76,3.76,0,0,1,56,60.93,4.29,4.29,0,0,1,57.83,59.06Z"/><path class="cls-10" d="M62,75.73a4.33,4.33,0,0,1,2.42-1,4.34,4.34,0,0,1-1.14,2.38,4.28,4.28,0,0,1-2.42,1A4.24,4.24,0,0,1,62,75.73Z"/><path class="cls-10" d="M49,51.33a4.32,4.32,0,0,1-.15-2.63,3.73,3.73,0,0,1,2,4.5A4.34,4.34,0,0,1,49,51.33Z"/><path class="cls-10" d="M41.17,70.86a4.32,4.32,0,0,1,2.64,0,3.75,3.75,0,0,1-4.63,1.7A4.34,4.34,0,0,1,41.17,70.86Z"/><path class="cls-10" d="M41.58,57.71a4.37,4.37,0,0,1,2.13-1.55,4.29,4.29,0,0,1-.58,2.57A4.25,4.25,0,0,1,41,60.28,4.33,4.33,0,0,1,41.58,57.71Z"/><path class="cls-10" d="M43.63,81.69a4.33,4.33,0,0,1,.59-2.57,4.36,4.36,0,0,1,1.25,2.32A4.31,4.31,0,0,1,44.88,84,4.29,4.29,0,0,1,43.63,81.69Z"/><path class="cls-10" d="M78.68,64.52a4.29,4.29,0,0,1,1.26-2.31,3.75,3.75,0,0,1-.69,4.88A4.31,4.31,0,0,1,78.68,64.52Z"/><path class="cls-10" d="M75.91,54.87a4.29,4.29,0,0,1,1.26-2.31,3.74,3.74,0,0,1-.69,4.87A4.29,4.29,0,0,1,75.91,54.87Z"/><path class="cls-10" d="M61.44,64.45a4.33,4.33,0,0,1,2.11-1.58A3.73,3.73,0,0,1,60.9,67,4.32,4.32,0,0,1,61.44,64.45Z"/><path class="cls-10" d="M56.83,82.09a4.31,4.31,0,0,1,1.53,2.14,4.27,4.27,0,0,1-2.56-.6,4.31,4.31,0,0,1-1.53-2.14A4.27,4.27,0,0,1,56.83,82.09Z"/><path class="cls-10" d="M49.35,65.75A4.31,4.31,0,0,1,47,64.65a4.25,4.25,0,0,1,2.52-.75A4.3,4.3,0,0,1,51.87,65,4.3,4.3,0,0,1,49.35,65.75Z"/><path class="cls-10" d="M82.1,59.12A4.3,4.3,0,0,1,79.7,58a3.73,3.73,0,0,1,4.92.34A4.36,4.36,0,0,1,82.1,59.12Z"/><path class="cls-10" d="M29.59,66.72a4.34,4.34,0,0,1,2.21-1.43,4.32,4.32,0,0,1-.71,2.53,4.26,4.26,0,0,1-2.21,1.43A4.34,4.34,0,0,1,29.59,66.72Z"/><path class="cls-10" d="M73,47a4.26,4.26,0,0,1,2.21-1.43,3.74,3.74,0,0,1-2.92,4A4.32,4.32,0,0,1,73,47Z"/><path class="cls-10" d="M33.54,76.92a4.26,4.26,0,0,1,.05-2.63,3.76,3.76,0,0,1,1.64,4.65A4.27,4.27,0,0,1,33.54,76.92Z"/><path class="cls-10" d="M36.37,62A4.32,4.32,0,0,1,34,60.88a4.3,4.3,0,0,1,2.54-.71,4.32,4.32,0,0,1,2.37,1.14A4.36,4.36,0,0,1,36.37,62Z"/><path class="cls-10" d="M79.93,73.9a4.32,4.32,0,0,1-2.38-1.14,3.73,3.73,0,0,1,4.91.43A4.28,4.28,0,0,1,79.93,73.9Z"/><path class="cls-10" d="M46.11,74.3A4.29,4.29,0,0,1,47.37,72a3.73,3.73,0,0,1-.68,4.88A4.28,4.28,0,0,1,46.11,74.3Z"/><path class="cls-10" d="M36.75,50.83a4.28,4.28,0,0,1,2.35-1.18,4.33,4.33,0,0,1-1,2.44,4.28,4.28,0,0,1-2.35,1.18A4.33,4.33,0,0,1,36.75,50.83Z"/><path class="cls-10" d="M42.65,48a4.29,4.29,0,0,1,2.27-1.33,4.24,4.24,0,0,1-.83,2.49,4.29,4.29,0,0,1-2.27,1.33A4.24,4.24,0,0,1,42.65,48Z"/><path class="cls-10" d="M55.39,53.2a4.27,4.27,0,0,1,1.27-2.31A3.74,3.74,0,0,1,56,55.76,4.26,4.26,0,0,1,55.39,53.2Z"/><path class="cls-10" d="M65.08,51a4.29,4.29,0,0,1,1.26-2.3,3.72,3.72,0,0,1-.68,4.87A4.28,4.28,0,0,1,65.08,51Z"/><path class="cls-10" d="M51.87,88.87a4.24,4.24,0,0,1,.58-2.56,3.73,3.73,0,0,1,.66,4.88A4.31,4.31,0,0,1,51.87,88.87Z"/><path class="cls-10" d="M66.07,85.49a4.33,4.33,0,0,1,2.5-.84,4.3,4.3,0,0,1-1.33,2.28,4.24,4.24,0,0,1-2.49.83A4.31,4.31,0,0,1,66.07,85.49Z"/><path class="cls-10" d="M26.59,59.21a4.33,4.33,0,0,1,.59-2.57,3.74,3.74,0,0,1,.66,4.89A4.29,4.29,0,0,1,26.59,59.21Z"/><path class="cls-10" d="M60.68,44.42a4.27,4.27,0,0,1,2.63-.18,3.74,3.74,0,0,1-4.48,2A4.28,4.28,0,0,1,60.68,44.42Z"/><path class="cls-10" d="M50.87,39.55a4.32,4.32,0,0,1,2.06-1.63,4.29,4.29,0,0,1-.47,2.59,4.32,4.32,0,0,1-2.06,1.63A4.29,4.29,0,0,1,50.87,39.55Z"/><path class="cls-10" d="M44.1,88.36a4.3,4.3,0,0,1,2.06-1.64A3.74,3.74,0,0,1,43.63,91,4.37,4.37,0,0,1,44.1,88.36Z"/><path class="cls-9" d="M63.28,61a3.66,3.66,0,0,1,2.06-.84,3.63,3.63,0,0,1-1,2,3.59,3.59,0,0,1-2.06.83A3.62,3.62,0,0,1,63.28,61Z"/><path class="cls-9" d="M50.29,54.85a3.63,3.63,0,0,1,1.86-1.22,3.64,3.64,0,0,1-.6,2.14A3.59,3.59,0,0,1,49.7,57,3.67,3.67,0,0,1,50.29,54.85Z"/><path class="cls-9" d="M60.53,48.21a3.62,3.62,0,0,1,1.81,1.28,3.15,3.15,0,0,1-4-1.05A3.64,3.64,0,0,1,60.53,48.21Z"/><path class="cls-9" d="M54.4,61.33a3.62,3.62,0,0,1,2.13.62,3.6,3.6,0,0,1-2,.94,3.65,3.65,0,0,1-2.13-.61A3.65,3.65,0,0,1,54.4,61.33Z"/><path class="cls-9" d="M58.85,38.44a3.62,3.62,0,0,1,1.29-1.8,3.16,3.16,0,0,1-1.08,4A3.63,3.63,0,0,1,58.85,38.44Z"/><path class="cls-11" d="M55.11,60.37a3.68,3.68,0,0,1-1-2,3.67,3.67,0,0,1,2,.89,3.61,3.61,0,0,1,.94,2A3.57,3.57,0,0,1,55.11,60.37Z"/><path class="cls-11" d="M77.24,91.31a3.63,3.63,0,0,1-.94-2,3.15,3.15,0,0,1,3,2.89A3.57,3.57,0,0,1,77.24,91.31Z"/><path class="cls-11" d="M54.94,73.58A3.62,3.62,0,0,1,57,72.74a3.13,3.13,0,0,1-3,2.82A3.62,3.62,0,0,1,54.94,73.58Z"/><path class="cls-11" d="M61.31,53.26a3.63,3.63,0,0,1,2.16.48,3.56,3.56,0,0,1-1.94,1.07,3.63,3.63,0,0,1-2.16-.48A3.68,3.68,0,0,1,61.31,53.26Z"/><path class="cls-11" d="M66.65,54.58a3.58,3.58,0,0,1,2.19.34,3.14,3.14,0,0,1-4.06.85A3.59,3.59,0,0,1,66.65,54.58Z"/><path class="cls-11" d="M72.23,64.73a3.62,3.62,0,0,1,2-.84,3.63,3.63,0,0,1-1,2,3.57,3.57,0,0,1-2.05.83A3.62,3.62,0,0,1,72.23,64.73Z"/><path class="cls-11" d="M79.72,68.46a3.62,3.62,0,0,1,2-.84,3.63,3.63,0,0,1-1,2,3.57,3.57,0,0,1-2,.83A3.62,3.62,0,0,1,79.72,68.46Z"/><path class="cls-11" d="M50.94,86.16a3.6,3.6,0,0,1,1.75-1.36,3.15,3.15,0,0,1-2.16,3.54A3.67,3.67,0,0,1,50.94,86.16Z"/><path class="cls-11" d="M62,91.51a3.62,3.62,0,0,1,2.07.78,3.15,3.15,0,0,1-4.15,0A3.63,3.63,0,0,1,62,91.51Z"/><path class="cls-11" d="M50.22,53.33A3.62,3.62,0,0,1,52,52a3.13,3.13,0,0,1-2.16,3.54A3.63,3.63,0,0,1,50.22,53.33Z"/><path class="cls-11" d="M80.35,61.81a3.67,3.67,0,0,1,1.82,1.28,3.64,3.64,0,0,1-2.21.23,3.56,3.56,0,0,1-1.81-1.27A3.57,3.57,0,0,1,80.35,61.81Z"/><path class="cls-11" d="M76.54,53.41a3.6,3.6,0,0,1,2.21,0,3.58,3.58,0,0,1-1.68,1.44,3.62,3.62,0,0,1-2.22,0A3.63,3.63,0,0,1,76.54,53.41Z"/><path class="cls-11" d="M46.15,81.69a3.6,3.6,0,0,1,2.21,0,3.58,3.58,0,0,1-1.68,1.44,3.62,3.62,0,0,1-2.22,0A3.63,3.63,0,0,1,46.15,81.69Z"/><path class="cls-11" d="M60.8,60.33a3.68,3.68,0,0,1,2.22.12,3.65,3.65,0,0,1-1.74,1.37,3.59,3.59,0,0,1-2.22-.12A3.65,3.65,0,0,1,60.8,60.33Z"/><path class="cls-11" d="M49.39,77.08a3.56,3.56,0,0,1,1.75-1.36,3.63,3.63,0,0,1-.42,2.18A3.67,3.67,0,0,1,49,79.26,3.63,3.63,0,0,1,49.39,77.08Z"/><path class="cls-11" d="M81.41,84.52a3.64,3.64,0,0,1,2.06-.84,3.62,3.62,0,0,1-1,2,3.66,3.66,0,0,1-2.06.84A3.62,3.62,0,0,1,81.41,84.52Z"/><path class="cls-11" d="M84.74,76.74a3.64,3.64,0,0,1,2.06-.84,3.62,3.62,0,0,1-1,2,3.66,3.66,0,0,1-2.06.84A3.62,3.62,0,0,1,84.74,76.74Z"/><path class="cls-11" d="M70.19,75.3a3.64,3.64,0,0,1,2.22.09,3.13,3.13,0,0,1-3.94,1.3A3.65,3.65,0,0,1,70.19,75.3Z"/><path class="cls-11" d="M57.8,84.37a3.65,3.65,0,0,1-.14,2.21,3.13,3.13,0,0,1-1.22-4A3.65,3.65,0,0,1,57.8,84.37Z"/><path class="cls-11" d="M61.6,69.71a3.65,3.65,0,0,1-1-2,3.13,3.13,0,0,1,3,2.83A3.59,3.59,0,0,1,61.6,69.71Z"/><path class="cls-11" d="M86.52,82.81a3.66,3.66,0,0,1-1-2,3.67,3.67,0,0,1,2,.85,3.58,3.58,0,0,1,1,2A3.67,3.67,0,0,1,86.52,82.81Z"/><path class="cls-11" d="M48.18,59.84a3.57,3.57,0,0,1,2.2.24,3.56,3.56,0,0,1-1.81,1.27,3.61,3.61,0,0,1-2.21-.24A3.62,3.62,0,0,1,48.18,59.84Z"/><path class="cls-11" d="M87,70.05a3.69,3.69,0,0,1,2.21.24,3.62,3.62,0,0,1-1.82,1.27,3.57,3.57,0,0,1-2.2-.24A3.63,3.63,0,0,1,87,70.05Z"/><path class="cls-11" d="M45.33,68.6a3.58,3.58,0,0,1,1.43-1.69,3.67,3.67,0,0,1,0,2.22,3.63,3.63,0,0,1-1.44,1.69A3.62,3.62,0,0,1,45.33,68.6Z"/><path class="cls-12" d="M49.05,89.33a3.61,3.61,0,0,1,1.2,1.86,3.6,3.6,0,0,1-2.13-.6,3.65,3.65,0,0,1-1.2-1.87A3.65,3.65,0,0,1,49.05,89.33Z"/><path class="cls-12" d="M23,61.6a3.61,3.61,0,0,1,1.2,1.86,3.65,3.65,0,0,1-2.13-.61A3.61,3.61,0,0,1,20.88,61,3.56,3.56,0,0,1,23,61.6Z"/><path class="cls-12" d="M47.47,76.21a3.62,3.62,0,0,1-1.93,1.11,3.14,3.14,0,0,1,2.65-3.2A3.6,3.6,0,0,1,47.47,76.21Z"/><path class="cls-12" d="M43.84,97.19A3.59,3.59,0,0,1,41.63,97a3.6,3.6,0,0,1,1.79-1.32,3.63,3.63,0,0,1,2.21.19A3.61,3.61,0,0,1,43.84,97.19Z"/><path class="cls-12" d="M38.37,96.6a3.59,3.59,0,0,1-2.21,0,3.17,3.17,0,0,1,3.91-1.38A3.57,3.57,0,0,1,38.37,96.6Z"/><path class="cls-12" d="M31.5,87.28a3.65,3.65,0,0,1-1.93,1.1,3.14,3.14,0,0,1,2.65-3.2A3.64,3.64,0,0,1,31.5,87.28Z"/><path class="cls-12" d="M23.58,84.57a3.63,3.63,0,0,1-1.92,1.1,3.16,3.16,0,0,1,2.64-3.2A3.62,3.62,0,0,1,23.58,84.57Z"/><path class="cls-12" d="M49.76,63.22A3.7,3.7,0,0,1,48.2,64.8,3.17,3.17,0,0,1,49.88,61,3.65,3.65,0,0,1,49.76,63.22Z"/><path class="cls-12" d="M38.07,59.38a3.62,3.62,0,0,1-2.16-.5,3.57,3.57,0,0,1,2-1.05,3.62,3.62,0,0,1,2.16.5A3.62,3.62,0,0,1,38.07,59.38Z"/><path class="cls-12" d="M54.83,95.66a3.65,3.65,0,0,1-1.55,1.58A3.14,3.14,0,0,1,55,93.44,3.65,3.65,0,0,1,54.83,95.66Z"/><path class="cls-12" d="M23.83,91.25a3.64,3.64,0,0,1-2-1A3.6,3.6,0,0,1,24,89.7a3.59,3.59,0,0,1,2,1A3.69,3.69,0,0,1,23.83,91.25Z"/><path class="cls-12" d="M28.73,99.06a3.63,3.63,0,0,1-2.2.27,3.16,3.16,0,0,1,3.68-1.92A3.6,3.6,0,0,1,28.73,99.06Z"/><path class="cls-12" d="M55.1,67a3.63,3.63,0,0,1-2.2.27,3.67,3.67,0,0,1,1.48-1.66,3.59,3.59,0,0,1,2.2-.26A3.6,3.6,0,0,1,55.1,67Z"/><path class="cls-12" d="M43.41,90.12a3.62,3.62,0,0,1-2.21.18,3.65,3.65,0,0,1,1.54-1.59A3.62,3.62,0,0,1,45,88.53,3.65,3.65,0,0,1,43.41,90.12Z"/><path class="cls-12" d="M52.5,72A3.58,3.58,0,0,1,51,73.59a3.58,3.58,0,0,1,.13-2.21,3.64,3.64,0,0,1,1.55-1.59A3.61,3.61,0,0,1,52.5,72Z"/><path class="cls-12" d="M19.77,68.88A3.63,3.63,0,0,1,17.85,70a3.16,3.16,0,0,1,2.64-3.2A3.62,3.62,0,0,1,19.77,68.88Z"/><path class="cls-12" d="M17.5,77a3.61,3.61,0,0,1-1.92,1.11A3.62,3.62,0,0,1,16.3,76a3.63,3.63,0,0,1,1.92-1.1A3.52,3.52,0,0,1,17.5,77Z"/><path class="cls-12" d="M32.12,76.53a3.62,3.62,0,0,1-2.21.2,3.13,3.13,0,0,1,3.73-1.81A3.6,3.6,0,0,1,32.12,76.53Z"/><path class="cls-12" d="M43.2,65.9a3.69,3.69,0,0,1-.15-2.22,3.59,3.59,0,0,1,1.57,1.56,3.65,3.65,0,0,1,.16,2.22A3.64,3.64,0,0,1,43.2,65.9Z"/><path class="cls-12" d="M41.37,80.93a3.57,3.57,0,0,1,1.24,1.84,3.16,3.16,0,0,1-3.38-2.41A3.58,3.58,0,0,1,41.37,80.93Z"/><path class="cls-12" d="M14.94,71.25a3.63,3.63,0,0,1,1.23,1.84A3.58,3.58,0,0,1,14,72.52a3.65,3.65,0,0,1-1.24-1.84A3.62,3.62,0,0,1,14.94,71.25Z"/><path class="cls-12" d="M56,88.94a3.61,3.61,0,0,1-2.22,0,3.14,3.14,0,0,1,3.85-1.55A3.64,3.64,0,0,1,56,88.94Z"/><path class="cls-12" d="M16.12,84a3.62,3.62,0,0,1-2.21.06,3.52,3.52,0,0,1,1.63-1.5,3.62,3.62,0,0,1,2.21-.06A3.64,3.64,0,0,1,16.12,84Z"/><path class="cls-12" d="M57.65,79.88a3.6,3.6,0,0,1-1.2,1.86,3.61,3.61,0,0,1-.33-2.19,3.72,3.72,0,0,1,1.2-1.87A3.63,3.63,0,0,1,57.65,79.88Z"/></g></g></svg>