<?xml version="1.0" encoding="utf-8"?>
<!-- Generator: Adobe Illustrator 22.0.1, SVG Export Plug-In . SVG Version: 6.00 Build 0)  -->
<svg version="1.1" xmlns="http://www.w3.org/2000/svg" xmlns:xlink="http://www.w3.org/1999/xlink" x="0px" y="0px" width="100px"
	 height="60px" viewBox="0 0 100 60" style="enable-background:new 0 0 100 60;" xml:space="preserve">
<style type="text/css">
	.st0{clip-path:url(#SVGID_2_);}
	.st1{fill-rule:evenodd;clip-rule:evenodd;fill:#B4DDE7;}
	.st2{fill-rule:evenodd;clip-rule:evenodd;fill:#9BD2D1;}
	.st3{fill-rule:evenodd;clip-rule:evenodd;fill:#C89D8C;}
	.st4{fill-rule:evenodd;clip-rule:evenodd;fill:#AF7258;}
	.st5{fill-rule:evenodd;clip-rule:evenodd;fill:#DEC5BA;}
	.st6{fill-rule:evenodd;clip-rule:evenodd;fill:#664733;}
	.st7{fill-rule:evenodd;clip-rule:evenodd;fill:#452F21;}
	.st8{fill-rule:evenodd;clip-rule:evenodd;fill:#78533A;}
	.st9{fill-rule:evenodd;clip-rule:evenodd;fill:#563A29;}
	.st10{fill-rule:evenodd;clip-rule:evenodd;fill:#996A4D;}
	.st11{fill-rule:evenodd;clip-rule:evenodd;fill:#885F44;}
	.st12{fill-rule:evenodd;clip-rule:evenodd;fill:#39241C;}
	.st13{fill-rule:evenodd;clip-rule:evenodd;fill:#39211C;}
	.st14{fill-rule:evenodd;clip-rule:evenodd;fill:#684B31;}
	.st15{fill-rule:evenodd;clip-rule:evenodd;fill:#CDA798;}
	.st16{fill-rule:evenodd;clip-rule:evenodd;fill:#AC6D53;}
	.st17{fill-rule:evenodd;clip-rule:evenodd;fill:#6D4534;}
	.st18{fill-rule:evenodd;clip-rule:evenodd;fill:#F4F2F0;}
	.st19{fill-rule:evenodd;clip-rule:evenodd;fill:#C1B5A4;}
	.st20{fill-rule:evenodd;clip-rule:evenodd;fill:#E3DCD7;}
	.st21{fill-rule:evenodd;clip-rule:evenodd;fill:#333333;}
	.st22{fill-rule:evenodd;clip-rule:evenodd;fill:#8BC53F;}
	.st23{fill:#80AD3A;}
	.st24{fill-rule:evenodd;clip-rule:evenodd;fill:#E0A122;}
	.st25{fill-rule:evenodd;clip-rule:evenodd;fill:#FBBB21;}
	.st26{fill-rule:evenodd;clip-rule:evenodd;fill:#EDAA24;}
	.st27{fill-rule:evenodd;clip-rule:evenodd;fill:#F9EA7E;}
	.st28{fill-rule:evenodd;clip-rule:evenodd;fill:#BEB5AF;}
	.st29{fill-rule:evenodd;clip-rule:evenodd;fill:#D8D0CA;}
	.st30{fill-rule:evenodd;clip-rule:evenodd;fill:#988575;}
	.st31{fill-rule:evenodd;clip-rule:evenodd;fill:#808080;}
	.st32{fill-rule:evenodd;clip-rule:evenodd;fill:#307A35;}
	.st33{fill-rule:evenodd;clip-rule:evenodd;fill:#348439;}
	.st34{fill-rule:evenodd;clip-rule:evenodd;fill:#F1F1F1;}
	.st35{fill-rule:evenodd;clip-rule:evenodd;fill:#34893C;}
	.st36{fill-rule:evenodd;clip-rule:evenodd;fill:#3B9F49;}
	.st37{fill-rule:evenodd;clip-rule:evenodd;fill:#379140;}
	.st38{fill-rule:evenodd;clip-rule:evenodd;fill:#E48323;}
	.st39{fill-rule:evenodd;clip-rule:evenodd;fill:#E6AB28;}
	.st40{fill-rule:evenodd;clip-rule:evenodd;fill:#ECE9E8;}
	.st41{fill-rule:evenodd;clip-rule:evenodd;fill:#DDD8D5;}
	.st42{fill-rule:evenodd;clip-rule:evenodd;fill:#AEA29D;}
	.st43{fill-rule:evenodd;clip-rule:evenodd;fill:#C6BCB9;}
	.st44{fill-rule:evenodd;clip-rule:evenodd;fill:#E5E5E5;}
	.st45{fill-rule:evenodd;clip-rule:evenodd;fill:#FDD535;}
	.st46{fill-rule:evenodd;clip-rule:evenodd;fill:#EF9818;}
	.st47{fill-rule:evenodd;clip-rule:evenodd;fill:#666666;}
	.st48{fill-rule:evenodd;clip-rule:evenodd;fill:#919191;}
	.st49{fill-rule:evenodd;clip-rule:evenodd;fill:#BBBBBB;}
	.st50{fill-rule:evenodd;clip-rule:evenodd;fill:#D5D5D5;}
	.st51{fill-rule:evenodd;clip-rule:evenodd;fill:#999999;}
	.st52{fill-rule:evenodd;clip-rule:evenodd;fill:#D67E7E;}
	.st53{fill-rule:evenodd;clip-rule:evenodd;}
	.st54{clip-path:url(#SVGID_4_);}
	.st55{clip-path:url(#SVGID_6_);}
	.st56{clip-path:url(#SVGID_8_);}
	.st57{clip-path:url(#SVGID_10_);}
</style>
<g id="_x32__x5F_2">
</g>
<g id="_x31__x5F_2">
	<g>
		<defs>
			<path id="SVGID_3_" d="M100,0H0v50h15c0,5.5,4.5,10,10,10c5.5,0,10-4.5,10-10h65V0z"/>
		</defs>
		<clipPath id="SVGID_2_">
			<use xlink:href="#SVGID_3_"  style="overflow:visible;"/>
		</clipPath>
		<g class="st0">
			<rect x="0" y="0" class="st1" width="100" height="100"/>
			<g>
				<polygon class="st2" points="51.4,50.3 91.1,71.2 45.7,95.1 6,74.3 				"/>
				<g>
					<g>
						<polygon class="st3" points="25.6,20.4 25.6,31.1 18.2,27.3 18.2,16.5 						"/>
						<polygon class="st4" points="25.6,31.1 25.6,20.4 29.3,18.4 29.3,29.2 						"/>
						<polygon class="st5" points="25.6,20.4 18.2,16.5 21.9,14.5 29.3,18.4 29.3,18.4 						"/>
					</g>
					<g>
						<polygon class="st9" points="29.3,38 29.3,54.9 23.7,51.9 23.7,35 						"/>
						<polygon class="st7" points="29.3,54.9 29.3,38 35,35 35,51.9 31.1,68.8 25.5,71.7 						"/>
						<polygon class="st8" points="29.3,38 23.7,35 29.3,32 35,35 						"/>
						<polygon class="st6" points="23.7,51.9 29.3,54.9 25.5,71.7 19.8,68.8 						"/>
					</g>
					<g>
						<polygon class="st9" points="62.1,40.8 62.1,27.3 65,29 65,42.5 						"/>
						<polygon class="st8" points="68.4,21.6 65.5,19.9 72.1,16.5 75.1,18.2 71.5,20 						"/>
						<polygon class="st10" points="62.1,27.3 65.5,19.9 68.4,21.6 65,29 						"/>
						<polygon class="st11" points="63.3,50.2 60.4,48.5 62.1,40.8 65,42.5 						"/>
						<polygon class="st7" points="75.1,18.2 77.1,21.3 74.7,24.3 73.3,22.4 70.3,24 68.1,28.2 68.1,42 66.2,51.6 63.3,50.2 
							65,42.5 65,29 68.4,21.6 71.5,20 						"/>
					</g>
					<g>
						<polygon class="st8" points="31,38.2 58.8,46.6 67.9,51.4 40.1,43 						"/>
						<polygon class="st12" points="40.1,43 41.9,60.2 32.8,55.4 31,38.2 						"/>
						<polygon class="st13" points="40.1,43 67.9,51.4 67.9,62.3 41.9,60.2 						"/>
					</g>
					<g>
						<polygon class="st14" points="55.3,20.9 47.6,25 37.8,30.1 20.3,20.9 37.8,11.7 						"/>
						<polygon class="st9" points="37.8,30.1 37.8,52.9 20.3,43.7 20.3,20.9 						"/>
						<polygon class="st7" points="55.3,20.9 55.3,29 55.3,43.7 47.6,47.7 37.8,52.9 37.8,30.1 47.6,25 						"/>
					</g>
					<g>
						<polygon class="st7" points="37.8,20.9 50.9,14 55.3,20.9 47.6,25 37.8,30.1 						"/>
						<polygon class="st8" points="50.9,14 37.8,20.9 24.7,14 37.8,7.1 						"/>
						<polygon class="st9" points="37.8,20.9 37.8,30.1 20.3,20.9 24.7,14 						"/>
					</g>
					<g>
						<polygon class="st3" points="36.5,39 22.2,31.5 22.2,23.3 36.5,30.9 						"/>
						<g>
							<path class="st3" d="M29.2,45.6l-9-4.7v-2.2l2.3,1.2v0v-3.1l2.2,1.2L27,39v3.1v0l2.3,1.2V45.6z M29.2,49.6l-9-4.7v-3l9,4.7
								V49.6z"/>
							<path class="st4" d="M29.2,43.4l4.7-7.3v6.1l-4.7,3.4V43.4z M27,42.2L27,42.2V39l4.7-4.2L27,42.2z M29.2,49.6v-3l4.7-3.4v5.7
								L29.2,49.6z"/>
							<polygon class="st5" points="31.7,34.8 27,39 24.7,37.9 22.5,36.7 27.2,32.5 							"/>
							<path class="st15" d="M27.2,32.5l-4.7,4.2v3.1v0l-2.3-1.2l4.8-7.3L27.2,32.5z M33.9,36l-4.7,7.3L27,42.2l4.7-7.4L33.9,36
								L33.9,36z"/>
							<polygon class="st16" points="29.2,46.6 20.2,41.9 20.2,40.8 29.2,45.6 							"/>
							<polygon class="st17" points="29.2,46.6 29.2,45.6 33.9,42.2 33.9,43.2 							"/>
						</g>
						<g>
							<g>
								<polygon class="st18" points="27.3,27.1 25.8,27.9 22.8,26.4 24.3,25.6 								"/>
								<polygon class="st19" points="27.3,27.1 27.3,30.7 25.8,31.5 25.8,27.9 								"/>
								<polygon class="st20" points="25.8,27.9 25.8,31.5 22.8,29.9 22.8,26.4 								"/>
							</g>
							<polygon class="st21" points="23.6,29.3 23.6,27.7 24.9,28.4 24.9,30 							"/>
						</g>
						<g>
							<g>
								<polygon class="st18" points="34.7,30.8 33.2,31.6 30.3,30.1 31.8,29.3 								"/>
								<polygon class="st19" points="34.7,30.8 34.7,34.4 33.2,35.2 33.2,31.6 								"/>
								<polygon class="st20" points="33.2,31.6 33.2,35.2 30.3,33.6 30.3,30.1 								"/>
							</g>
							<polygon class="st21" points="31.1,33 31.1,31.4 32.4,32.1 32.4,33.7 							"/>
						</g>
						<g>
							<polygon class="st21" points="23.3,39.5 23.3,38.2 24.3,38.8 24.3,40 							"/>
							<polygon class="st21" points="25.1,40.3 25.1,39 26.2,39.6 26.2,40.9 							"/>
						</g>
					</g>
					<g>
						<polygon class="st7" points="71.4,55.4 71.4,60.8 59.4,67.2 54.8,64.8 54.8,59.4 59.4,61.8 						"/>
						<path class="st8" d="M54.8,59.4c2.8-1.5,5.7-3,8.5-4.5c0.1,0,0.1-0.1,0.2-0.1c0.1,0,0.1-0.1,0.2-0.1l3.1-1.6l4.5,2.4
							l-12.1,6.4L54.8,59.4z"/>
					</g>
					<g>
						<polygon class="st9" points="44.9,64 44.9,47.1 50.5,50.1 50.5,67 						"/>
						<polygon class="st7" points="56.2,47.1 56.2,64 52.3,80.9 46.7,83.9 50.5,67 50.5,50.1 						"/>
						<polygon class="st8" points="56.2,47.1 50.5,50.1 44.9,47.1 50.5,44.1 						"/>
					</g>
					<g>
						<polygon class="st3" points="50.8,34.2 50.8,45 43.4,41.1 43.4,39.2 48,41.6 48,39.7 48,34.8 45.2,33.3 43.4,32.4 43.4,30.3 
													"/>
						<path class="st4" d="M50.8,45V34.2l3.7-1.9v10.8L50.8,45z M48,39.7l-2.8-1.5h0v-4.9l2.9,1.5V39.7z"/>
						<path class="st5" d="M50.8,34.2l-7.4-3.9l3.7-1.9l7.4,3.9v0L50.8,34.2z M43.4,39.2l1.8-1l2.8,1.5v1.9L43.4,39.2z"/>
					</g>
				</g>
			</g>
		</g>
		<g class="st0">
			<rect class="st22" width="100" height="100"/>
			<g id="duck_3_">
				<polygon class="st23" points="100,64.4 41.7,98 9.2,80.8 65.9,49.3 				"/>
				<g>
					<polygon class="st28" points="44.4,73.7 44.4,48.8 71.5,34.7 71.5,63.1 47.8,75.5 					"/>
					<polygon class="st29" points="71.5,34.7 44.4,48.8 20.3,36.3 47.4,22.1 80.4,17.4 					"/>
					<polygon class="st30" points="44.4,48.8 44.4,73.7 20.3,61.2 20.3,36.3 					"/>
					<polygon class="st31" points="71.5,63.1 71.5,34.7 80.4,17.4 					"/>
				</g>
				<g>
					<polygon class="st32" points="36.2,44.5 36.2,17 28.4,13 36.2,8.9 43.9,13 43.9,40.5 					"/>
					<polygon class="st33" points="36.2,44.5 28.4,40.5 28.4,13 36.2,17 					"/>
					<polygon class="st34" points="36.2,44.5 28.4,40.5 28.4,39.1 36.2,43.4 					"/>
				</g>
				<g>
					<polygon class="st35" points="45.3,10 36.2,14.7 36.2,25.5 45.3,20.7 					"/>
					<polygon class="st36" points="45.3,10 36.2,5.2 27.1,10 36.2,14.7 					"/>
					<polygon class="st37" points="36.2,14.7 27.1,10 27.1,20.7 36.2,25.5 					"/>
				</g>
				<g>
					<polygon class="st38" points="17.3,22.7 23.1,25.7 34.6,15.6 34.6,22.4 23.1,28.4 17.3,25.4 					"/>
					<polygon class="st39" points="34.6,15.6 23.1,25.7 17.3,22.7 28.9,12.6 					"/>
				</g>
				<g>
					<g>
						<g>
							<polygon class="st18" points="37.3,15.8 38.4,16.4 40.8,15.2 39.6,14.5 							"/>
							<polygon class="st19" points="37.3,15.8 37.3,18.6 38.4,19.2 38.4,16.4 							"/>
							<polygon class="st20" points="38.4,16.4 38.4,19.2 40.8,18 40.8,15.2 							"/>
						</g>
						<polygon class="st21" points="40.1,17.5 40.1,16.3 39.1,16.8 39.1,18.1 						"/>
					</g>
				</g>
				<g>
					<polygon class="st40" points="65.3,46.4 51.8,53.4 45.8,50.3 69.8,37.8 					"/>
					<polygon class="st41" points="51.8,53.4 51.8,67.6 45.8,64.5 45.8,50.3 					"/>
					<polygon class="st42" points="65.3,60.6 65.3,46.4 69.8,37.8 					"/>
					<polygon class="st43" points="65.3,60.6 51.8,67.6 51.8,53.4 65.3,46.4 					"/>
				</g>
				<polygon class="st44" points="43.9,40.5 36.2,44.5 36.2,43.4 43.9,39.4 				"/>
			</g>
		</g>
		<g class="st0">
			<rect x="0" class="st45" width="100" height="100"/>
			<g>
				<polygon class="st46" points="48.9,58.4 75.5,72.5 39,91.7 12.3,77.7 				"/>
				<g>
					<polygon class="st47" points="30.2,78.3 30.2,42.3 25.3,39.7 30.2,37.1 35.1,39.7 35.1,75.7 					"/>
					<polygon class="st48" points="30.2,78.3 25.3,75.7 25.3,39.7 30.2,42.3 					"/>
				</g>
				<g>
					<polygon class="st47" points="64.3,74.1 64.3,51.9 59.4,49.4 64.3,46.8 69.1,49.4 69.1,71.5 					"/>
					<polygon class="st48" points="64.3,74.1 59.4,71.5 59.4,49.4 64.3,51.9 					"/>
				</g>
				<g>
					<polygon class="st47" points="43.5,85.5 43.5,39.3 38.6,36.8 43.5,34.2 48.4,36.8 48.4,82.9 					"/>
					<polygon class="st48" points="43.5,85.5 38.6,82.9 38.6,36.8 43.5,39.3 					"/>
				</g>
				<g>
					<polygon class="st48" points="67.1,7.6 71.2,9.8 71.2,15.1 67.1,12.9 					"/>
					<polygon class="st47" points="71.2,9.8 75.4,7.6 75.4,12.9 71.2,15.1 					"/>
					<polygon class="st49" points="67.1,7.6 71.2,5.4 75.4,7.6 71.2,9.8 					"/>
				</g>
				<g>
					<polygon class="st48" points="67.1,11.9 67.1,39.9 62.9,37.7 62.9,9.8 					"/>
					<polygon class="st47" points="67.1,39.9 67.1,11.9 71.2,9.8 71.2,37.7 					"/>
					<polygon class="st49" points="71.2,9.8 67.1,11.9 62.9,9.8 67.1,7.6 					"/>
				</g>
				<g>
					<polygon class="st48" points="58.8,35.5 62.9,37.7 62.9,43 58.8,40.9 					"/>
					<polygon class="st47" points="62.9,37.7 67.1,35.5 67.1,40.9 62.9,43 					"/>
					<polygon class="st49" points="58.8,35.5 62.9,33.4 67.1,35.5 62.9,37.7 					"/>
				</g>
				<g>
					<polygon class="st47" points="69.5,59.4 47.6,71 47.6,68.5 47.6,68.5 47.6,61.4 42.8,63.9 36,67.4 36,64.7 36,49.4 55.5,39.2 
						55.5,48.5 69.5,41.1 69.5,41.1 69.5,52.1 					"/>
					<polygon class="st49" points="36,49.4 13.2,37.4 32.7,27.1 46.9,34.7 52.1,31.9 69.5,41.1 55.5,48.5 55.5,39.2 					"/>
					<polygon class="st48" points="36,67.4 13.2,55.4 13.2,52.7 13.2,37.4 36,49.4 36,64.7 					"/>
					<polygon class="st50" points="13.2,55.4 36,67.4 36,74.6 13.2,62.6 					"/>
					<path class="st51" d="M47.6,71l22-11.6v2.5l-22,11.6V71z M36,74.6v-7.1l6.8-3.5l4.7-2.5v7.1L42.8,71L36,74.6z"/>
				</g>
				<g>
					<polygon class="st48" points="28.3,30.6 28.3,40.2 19.5,35.5 19.5,25.9 23.9,24 					"/>
					<polygon class="st49" points="32.8,28.2 28.3,30.6 23.9,24 28.4,21.6 32.8,28.2 					"/>
					<path class="st47" d="M23.9,24l-4.4,2l4.5-2.3l4.4-1.9L23.9,24z M28.3,30.6l4.4-2.3v9.6l-4.4,2.3V30.6z"/>
				</g>
				<g>
					<polygon class="st48" points="17.7,58 19.6,58.9 21.3,62 23.9,61.2 24.9,61.8 24.9,66.8 23.1,65.8 23.1,68.7 21.3,67.8 
						19.5,66.9 19.5,63.9 17.7,63 					"/>
					<polygon class="st49" points="19.6,58.9 17.7,58 20.8,56.4 28,60.2 24.9,61.8 23.9,61.2 					"/>
					<polygon class="st52" points="23.9,61.2 21.3,62 19.6,58.9 					"/>
				</g>
				<g>
					<polygon class="st48" points="39.7,36.4 39.7,46 30.9,41.4 30.9,31.8 35.3,29.8 					"/>
					<polygon class="st49" points="44.1,34.1 39.7,36.4 35.3,29.8 39.7,27.5 44.1,34.1 					"/>
					<path class="st47" d="M35.3,29.8l-4.4,2l4.5-2.3l4.4-1.9L35.3,29.8z M39.7,36.4l4.4-2.3v9.6L39.7,46V36.4z"/>
				</g>
				<g>
					<g>
						<polygon class="st49" points="18.8,45.7 12.4,42.3 15.6,40.6 22,44 						"/>
						<polygon class="st47" points="18.8,45.7 22,44 22,51.7 18.8,53.3 						"/>
						<polygon class="st48" points="12.4,42.3 18.8,45.7 18.8,53.3 12.4,50 						"/>
					</g>
					<polygon class="st53" points="14.3,48.6 14.3,45.2 17.2,46.7 17.2,50.1 					"/>
				</g>
				<g>
					<g>
						<polygon class="st49" points="29.8,51.7 23.4,48.3 26.7,46.6 33,50 						"/>
						<polygon class="st47" points="33,50 33,57.7 29.8,59.4 29.8,51.7 						"/>
						<polygon class="st48" points="23.4,48.3 29.8,51.7 29.8,59.4 23.4,56 						"/>
					</g>
					<polygon class="st53" points="25.3,54.6 25.3,51.2 28.2,52.8 28.2,56.1 					"/>
				</g>
			</g>
		</g>
	</g>
</g>
<g id="_x33__x5F_3">
</g>
<g id="_x32__x5F_3">
</g>
<g id="_x31__x5F_3">
</g>
</svg>
