<?xml version="1.0" encoding="utf-8"?>
<!-- Generator: Adobe Illustrator 22.0.1, SVG Export Plug-In . SVG Version: 6.00 Build 0)  -->
<svg version="1.1" xmlns="http://www.w3.org/2000/svg" xmlns:xlink="http://www.w3.org/1999/xlink" x="0px" y="0px" width="100px"
	 height="43.4px" viewBox="0 0 100 43.4" style="enable-background:new 0 0 100 43.4;" xml:space="preserve">
<style type="text/css">
	.st0{clip-path:url(#SVGID_2_);}
	.st1{fill-rule:evenodd;clip-rule:evenodd;fill:#B4DDE7;}
	.st2{fill-rule:evenodd;clip-rule:evenodd;fill:#9BD2D1;}
	.st3{fill-rule:evenodd;clip-rule:evenodd;fill:#C89D8C;}
	.st4{fill-rule:evenodd;clip-rule:evenodd;fill:#AF7258;}
	.st5{fill-rule:evenodd;clip-rule:evenodd;fill:#DEC5BA;}
	.st6{fill-rule:evenodd;clip-rule:evenodd;fill:#664733;}
	.st7{fill-rule:evenodd;clip-rule:evenodd;fill:#452F21;}
	.st8{fill-rule:evenodd;clip-rule:evenodd;fill:#78533A;}
	.st9{fill-rule:evenodd;clip-rule:evenodd;fill:#563A29;}
	.st10{fill-rule:evenodd;clip-rule:evenodd;fill:#996A4D;}
	.st11{fill-rule:evenodd;clip-rule:evenodd;fill:#885F44;}
	.st12{fill-rule:evenodd;clip-rule:evenodd;fill:#39241C;}
	.st13{fill-rule:evenodd;clip-rule:evenodd;fill:#39211C;}
	.st14{fill-rule:evenodd;clip-rule:evenodd;fill:#684B31;}
	.st15{fill-rule:evenodd;clip-rule:evenodd;fill:#CDA798;}
	.st16{fill-rule:evenodd;clip-rule:evenodd;fill:#AC6D53;}
	.st17{fill-rule:evenodd;clip-rule:evenodd;fill:#6D4534;}
	.st18{fill-rule:evenodd;clip-rule:evenodd;fill:#F4F2F0;}
	.st19{fill-rule:evenodd;clip-rule:evenodd;fill:#C1B5A4;}
	.st20{fill-rule:evenodd;clip-rule:evenodd;fill:#E3DCD7;}
	.st21{fill-rule:evenodd;clip-rule:evenodd;fill:#333333;}
	.st22{fill-rule:evenodd;clip-rule:evenodd;fill:#8BC53F;}
	.st23{fill:#80AD3A;}
	.st24{fill-rule:evenodd;clip-rule:evenodd;fill:#E0A122;}
	.st25{fill-rule:evenodd;clip-rule:evenodd;fill:#FBBB21;}
	.st26{fill-rule:evenodd;clip-rule:evenodd;fill:#EDAA24;}
	.st27{fill-rule:evenodd;clip-rule:evenodd;fill:#F9EA7E;}
	.st28{fill-rule:evenodd;clip-rule:evenodd;fill:#BEB5AF;}
	.st29{fill-rule:evenodd;clip-rule:evenodd;fill:#D8D0CA;}
	.st30{fill-rule:evenodd;clip-rule:evenodd;fill:#988575;}
	.st31{fill-rule:evenodd;clip-rule:evenodd;fill:#808080;}
	.st32{fill-rule:evenodd;clip-rule:evenodd;fill:#307A35;}
	.st33{fill-rule:evenodd;clip-rule:evenodd;fill:#348439;}
	.st34{fill-rule:evenodd;clip-rule:evenodd;fill:#F1F1F1;}
	.st35{fill-rule:evenodd;clip-rule:evenodd;fill:#34893C;}
	.st36{fill-rule:evenodd;clip-rule:evenodd;fill:#3B9F49;}
	.st37{fill-rule:evenodd;clip-rule:evenodd;fill:#379140;}
	.st38{fill-rule:evenodd;clip-rule:evenodd;fill:#E48323;}
	.st39{fill-rule:evenodd;clip-rule:evenodd;fill:#E6AB28;}
	.st40{fill-rule:evenodd;clip-rule:evenodd;fill:#ECE9E8;}
	.st41{fill-rule:evenodd;clip-rule:evenodd;fill:#DDD8D5;}
	.st42{fill-rule:evenodd;clip-rule:evenodd;fill:#AEA29D;}
	.st43{fill-rule:evenodd;clip-rule:evenodd;fill:#C6BCB9;}
	.st44{fill-rule:evenodd;clip-rule:evenodd;fill:#E5E5E5;}
	.st45{fill-rule:evenodd;clip-rule:evenodd;fill:#FDD535;}
	.st46{fill-rule:evenodd;clip-rule:evenodd;fill:#EF9818;}
	.st47{fill-rule:evenodd;clip-rule:evenodd;fill:#666666;}
	.st48{fill-rule:evenodd;clip-rule:evenodd;fill:#919191;}
	.st49{fill-rule:evenodd;clip-rule:evenodd;fill:#BBBBBB;}
	.st50{fill-rule:evenodd;clip-rule:evenodd;fill:#D5D5D5;}
	.st51{fill-rule:evenodd;clip-rule:evenodd;fill:#999999;}
	.st52{fill-rule:evenodd;clip-rule:evenodd;fill:#D67E7E;}
	.st53{fill-rule:evenodd;clip-rule:evenodd;}
	.st54{clip-path:url(#SVGID_4_);}
	.st55{clip-path:url(#SVGID_6_);}
	.st56{clip-path:url(#SVGID_8_);}
	.st57{clip-path:url(#SVGID_10_);}
</style>
<g id="_x32__x5F_2">
</g>
<g id="_x31__x5F_2">
</g>
<g id="_x33__x5F_3">
</g>
<g id="_x32__x5F_3">
</g>
<g id="_x31__x5F_3">
	<g>
		<g>
			<defs>
				<path id="SVGID_9_" d="M0,0v33.3h15c0,5.5,4.5,10,10,10s10-4.5,10-10h65V0H0z"/>
			</defs>
			<clipPath id="SVGID_2_">
				<use xlink:href="#SVGID_9_"  style="overflow:visible;"/>
			</clipPath>
			<g class="st0">
				<rect y="0" class="st45" width="100" height="100"/>
				<g>
					<g>
						<polygon class="st47" points="30.2,78.3 30.2,42.3 25.3,39.7 30.2,37.1 35.1,39.7 35.1,75.7 						"/>
						<polygon class="st48" points="30.2,78.3 25.3,75.7 25.3,39.7 30.2,42.3 						"/>
					</g>
					<g>
						<polygon class="st47" points="43.5,85.5 43.5,39.3 38.6,36.8 43.5,34.2 48.4,36.8 48.4,82.9 						"/>
						<polygon class="st48" points="43.5,85.5 38.6,82.9 38.6,36.8 43.5,39.3 						"/>
					</g>
					<g>
						<polygon class="st48" points="67.1,7.6 71.2,9.8 71.2,15.1 67.1,12.9 						"/>
						<polygon class="st47" points="71.2,9.8 75.4,7.6 75.4,12.9 71.2,15.1 						"/>
						<polygon class="st49" points="67.1,7.6 71.2,5.4 75.4,7.6 71.2,9.8 						"/>
					</g>
					<g>
						<polygon class="st48" points="67.1,11.9 67.1,39.9 62.9,37.7 62.9,9.8 						"/>
						<polygon class="st47" points="67.1,39.9 67.1,11.9 71.2,9.8 71.2,37.7 						"/>
						<polygon class="st49" points="71.2,9.8 67.1,11.9 62.9,9.8 67.1,7.6 						"/>
					</g>
					<g>
						<polygon class="st48" points="58.8,35.5 62.9,37.7 62.9,43 58.8,40.9 						"/>
						<polygon class="st47" points="62.9,37.7 67.1,35.5 67.1,40.9 62.9,43 						"/>
						<polygon class="st49" points="58.8,35.5 62.9,33.4 67.1,35.5 62.9,37.7 						"/>
					</g>
					<g>
						<polygon class="st47" points="69.5,59.4 47.6,71 47.6,68.5 47.6,68.5 47.6,61.4 42.8,63.9 36,67.4 36,64.7 36,49.4 55.5,39.2 
							55.5,48.5 69.5,41.1 69.5,41.1 69.5,52.1 						"/>
						<polygon class="st49" points="36,49.4 13.2,37.4 32.7,27.1 46.9,34.7 52.1,31.9 69.5,41.1 55.5,48.5 55.5,39.2 						"/>
						<polygon class="st48" points="36,67.4 13.2,55.4 13.2,52.7 13.2,37.4 36,49.4 36,64.7 						"/>
					</g>
					<g>
						<polygon class="st48" points="28.3,30.6 28.3,40.2 19.5,35.5 19.5,25.9 23.9,24 						"/>
						<polygon class="st49" points="32.8,28.2 28.3,30.6 23.9,24 28.4,21.6 32.8,28.2 						"/>
						<path class="st47" d="M23.9,24l-4.4,2l4.5-2.3l4.4-1.9L23.9,24z M28.3,30.6l4.4-2.3v9.6l-4.4,2.3V30.6z"/>
					</g>
					<g>
						<polygon class="st48" points="39.7,36.4 39.7,46 30.9,41.4 30.9,31.8 35.3,29.8 						"/>
						<polygon class="st49" points="44.1,34.1 39.7,36.4 35.3,29.8 39.7,27.5 44.1,34.1 						"/>
						<path class="st47" d="M35.3,29.8l-4.4,2l4.5-2.3l4.4-1.9L35.3,29.8z M39.7,36.4l4.4-2.3v9.6L39.7,46V36.4z"/>
					</g>
					<g>
						<g>
							<polygon class="st49" points="18.8,45.7 12.4,42.3 15.6,40.6 22,44 							"/>
							<polygon class="st48" points="12.4,42.3 18.8,45.7 18.8,53.3 12.4,50 							"/>
						</g>
					</g>
				</g>
			</g>
		</g>
	</g>
</g>
</svg>
