<?xml version="1.0" encoding="utf-8"?>
<!-- Generator: Adobe Illustrator 22.0.1, SVG Export Plug-In . SVG Version: 6.00 Build 0)  -->
<svg version="1.1" xmlns="http://www.w3.org/2000/svg" xmlns:xlink="http://www.w3.org/1999/xlink" x="0px" y="0px" width="100px"
	 height="43.4px" viewBox="0 0 100 43.4" style="enable-background:new 0 0 100 43.4;" xml:space="preserve">
<style type="text/css">
	.st0{clip-path:url(#SVGID_2_);}
	.st1{fill-rule:evenodd;clip-rule:evenodd;fill:#B4DDE7;}
	.st2{fill-rule:evenodd;clip-rule:evenodd;fill:#9BD2D1;}
	.st3{fill-rule:evenodd;clip-rule:evenodd;fill:#C89D8C;}
	.st4{fill-rule:evenodd;clip-rule:evenodd;fill:#AF7258;}
	.st5{fill-rule:evenodd;clip-rule:evenodd;fill:#DEC5BA;}
	.st6{fill-rule:evenodd;clip-rule:evenodd;fill:#664733;}
	.st7{fill-rule:evenodd;clip-rule:evenodd;fill:#452F21;}
	.st8{fill-rule:evenodd;clip-rule:evenodd;fill:#78533A;}
	.st9{fill-rule:evenodd;clip-rule:evenodd;fill:#563A29;}
	.st10{fill-rule:evenodd;clip-rule:evenodd;fill:#996A4D;}
	.st11{fill-rule:evenodd;clip-rule:evenodd;fill:#885F44;}
	.st12{fill-rule:evenodd;clip-rule:evenodd;fill:#39241C;}
	.st13{fill-rule:evenodd;clip-rule:evenodd;fill:#39211C;}
	.st14{fill-rule:evenodd;clip-rule:evenodd;fill:#684B31;}
	.st15{fill-rule:evenodd;clip-rule:evenodd;fill:#CDA798;}
	.st16{fill-rule:evenodd;clip-rule:evenodd;fill:#AC6D53;}
	.st17{fill-rule:evenodd;clip-rule:evenodd;fill:#6D4534;}
	.st18{fill-rule:evenodd;clip-rule:evenodd;fill:#F4F2F0;}
	.st19{fill-rule:evenodd;clip-rule:evenodd;fill:#C1B5A4;}
	.st20{fill-rule:evenodd;clip-rule:evenodd;fill:#E3DCD7;}
	.st21{fill-rule:evenodd;clip-rule:evenodd;fill:#333333;}
	.st22{fill-rule:evenodd;clip-rule:evenodd;fill:#8BC53F;}
	.st23{fill:#80AD3A;}
	.st24{fill-rule:evenodd;clip-rule:evenodd;fill:#E0A122;}
	.st25{fill-rule:evenodd;clip-rule:evenodd;fill:#FBBB21;}
	.st26{fill-rule:evenodd;clip-rule:evenodd;fill:#EDAA24;}
	.st27{fill-rule:evenodd;clip-rule:evenodd;fill:#F9EA7E;}
	.st28{fill-rule:evenodd;clip-rule:evenodd;fill:#BEB5AF;}
	.st29{fill-rule:evenodd;clip-rule:evenodd;fill:#D8D0CA;}
	.st30{fill-rule:evenodd;clip-rule:evenodd;fill:#988575;}
	.st31{fill-rule:evenodd;clip-rule:evenodd;fill:#808080;}
	.st32{fill-rule:evenodd;clip-rule:evenodd;fill:#307A35;}
	.st33{fill-rule:evenodd;clip-rule:evenodd;fill:#348439;}
	.st34{fill-rule:evenodd;clip-rule:evenodd;fill:#F1F1F1;}
	.st35{fill-rule:evenodd;clip-rule:evenodd;fill:#34893C;}
	.st36{fill-rule:evenodd;clip-rule:evenodd;fill:#3B9F49;}
	.st37{fill-rule:evenodd;clip-rule:evenodd;fill:#379140;}
	.st38{fill-rule:evenodd;clip-rule:evenodd;fill:#E48323;}
	.st39{fill-rule:evenodd;clip-rule:evenodd;fill:#E6AB28;}
	.st40{fill-rule:evenodd;clip-rule:evenodd;fill:#ECE9E8;}
	.st41{fill-rule:evenodd;clip-rule:evenodd;fill:#DDD8D5;}
	.st42{fill-rule:evenodd;clip-rule:evenodd;fill:#AEA29D;}
	.st43{fill-rule:evenodd;clip-rule:evenodd;fill:#C6BCB9;}
	.st44{fill-rule:evenodd;clip-rule:evenodd;fill:#E5E5E5;}
	.st45{fill-rule:evenodd;clip-rule:evenodd;fill:#FDD535;}
	.st46{fill-rule:evenodd;clip-rule:evenodd;fill:#EF9818;}
	.st47{fill-rule:evenodd;clip-rule:evenodd;fill:#666666;}
	.st48{fill-rule:evenodd;clip-rule:evenodd;fill:#919191;}
	.st49{fill-rule:evenodd;clip-rule:evenodd;fill:#BBBBBB;}
	.st50{fill-rule:evenodd;clip-rule:evenodd;fill:#D5D5D5;}
	.st51{fill-rule:evenodd;clip-rule:evenodd;fill:#999999;}
	.st52{fill-rule:evenodd;clip-rule:evenodd;fill:#D67E7E;}
	.st53{fill-rule:evenodd;clip-rule:evenodd;}
	.st54{clip-path:url(#SVGID_4_);}
	.st55{clip-path:url(#SVGID_6_);}
	.st56{clip-path:url(#SVGID_8_);}
	.st57{clip-path:url(#SVGID_10_);}
</style>
<g id="_x32__x5F_2">
</g>
<g id="_x31__x5F_2">
</g>
<g id="_x33__x5F_3">
</g>
<g id="_x32__x5F_3">
	<g>
		<g>
			<defs>
				<path id="SVGID_7_" d="M35,0C35,0,35,0,35,0c0,5.5-4.5,10-10,10S15,5.5,15,0c0,0,0,0,0,0H0v33.3h15c0,5.5,4.5,10,10,10
					s10-4.5,10-10h65V0H35z"/>
			</defs>
			<clipPath id="SVGID_2_">
				<use xlink:href="#SVGID_7_"  style="overflow:visible;"/>
			</clipPath>
			<g class="st0">
				<rect x="0" y="-33.3" class="st1" width="100" height="100"/>
				<g>
					<polygon class="st2" points="51.4,17 91.1,37.8 45.7,61.8 6,40.9 					"/>
					<g>
						<g>
							<polygon class="st6" points="14.6,36.7 22.2,40.7 22.2,44.8 14.6,40.9 							"/>
							<polygon class="st7" points="22.2,40.7 31.6,35.7 31.6,39.9 22.2,44.8 							"/>
							<polygon class="st8" points="31.6,35.7 22.2,40.7 14.6,36.7 24.1,31.7 31.6,35.7 							"/>
						</g>
						<g>
							<polygon class="st9" points="29.3,4.6 29.3,21.5 23.7,18.5 23.7,1.7 							"/>
							<polygon class="st7" points="29.3,21.5 29.3,4.6 35,1.7 35,18.5 31.1,35.4 25.5,38.4 							"/>
							<polygon class="st8" points="29.3,4.6 23.7,1.7 29.3,-1.3 35,1.7 							"/>
							<polygon class="st6" points="23.7,18.5 29.3,21.5 25.5,38.4 19.8,35.4 							"/>
						</g>
						<g>
							<polygon class="st9" points="62.1,7.5 62.1,-6 65,-4.3 65,9.2 							"/>
							<polygon class="st11" points="63.3,16.9 60.4,15.2 62.1,7.5 65,9.2 							"/>
							<polygon class="st7" points="75.1,-15.1 77.1,-12 74.7,-9 73.3,-10.9 70.3,-9.4 68.1,-5.1 68.1,8.7 66.2,18.2 63.3,16.9 
								65,9.2 65,-4.3 68.4,-11.7 71.5,-13.3 							"/>
						</g>
						<g>
							<polygon class="st8" points="31,4.9 58.8,13.2 67.9,18.1 40.1,9.7 							"/>
							<polygon class="st12" points="40.1,9.7 41.9,26.8 32.8,22 31,4.9 							"/>
							<polygon class="st13" points="40.1,9.7 67.9,18.1 67.9,28.9 41.9,26.8 							"/>
						</g>
						<g>
							<polygon class="st9" points="37.8,-3.2 37.8,19.5 20.3,10.4 20.3,-12.4 							"/>
							<polygon class="st7" points="55.3,-12.4 55.3,-4.4 55.3,10.4 47.6,14.4 37.8,19.5 37.8,-3.2 47.6,-8.4 							"/>
						</g>
						<g>
							<polygon class="st3" points="36.5,5.6 22.2,-1.9 22.2,-10 36.5,-2.5 							"/>
							<g>
								<path class="st3" d="M29.2,12.2l-9-4.7V5.3l2.3,1.2v0V3.4l2.2,1.2L27,5.7v3.1v0l2.3,1.2V12.2z M29.2,16.3l-9-4.7v-3l9,4.7
									V16.3z"/>
								<path class="st4" d="M29.2,10l4.7-7.3v6.1l-4.7,3.4V10z M27,8.9L27,8.9V5.7l4.7-4.2L27,8.9z M29.2,16.3v-3l4.7-3.4v5.7
									L29.2,16.3z"/>
								<polygon class="st5" points="31.7,1.5 27,5.7 24.7,4.5 22.5,3.4 27.2,-0.9 								"/>
								<path class="st15" d="M27.2-0.9l-4.7,4.2v3.1v0l-2.3-1.2L25-2L27.2-0.9z M33.9,2.7L29.2,10L27,8.9l4.7-7.4L33.9,2.7
									L33.9,2.7z"/>
								<polygon class="st16" points="29.2,13.2 20.2,8.5 20.2,7.5 29.2,12.2 								"/>
								<polygon class="st17" points="29.2,13.2 29.2,12.2 33.9,8.8 33.9,9.8 								"/>
							</g>
							<g>
								<g>
									<polygon class="st19" points="34.7,-2.5 34.7,1.1 33.2,1.9 33.2,-1.7 									"/>
									<polygon class="st20" points="33.2,-1.7 33.2,1.9 30.3,0.3 30.3,-3.3 									"/>
								</g>
								<polygon class="st21" points="31.1,-0.3 31.1,-1.9 32.4,-1.2 32.4,0.4 								"/>
							</g>
							<g>
								<polygon class="st21" points="23.3,6.1 23.3,4.9 24.3,5.4 24.3,6.7 								"/>
								<polygon class="st21" points="25.1,7 25.1,5.7 26.2,6.3 26.2,7.6 								"/>
							</g>
						</g>
						<g>
							<polygon class="st6" points="56.9,34.5 64.4,38.5 64.4,42.7 56.9,38.7 							"/>
							<polygon class="st7" points="64.4,38.5 73.9,33.5 73.9,37.7 64.4,42.7 							"/>
							<polygon class="st8" points="73.9,33.5 64.4,38.5 56.9,34.5 66.3,29.5 73.9,33.5 							"/>
						</g>
						<polygon class="st7" points="71.4,30.2 71.4,35.7 59.4,36.6 54.8,34.2 54.8,28.7 66.9,27.8 						"/>
						<g>
							<polygon class="st7" points="71.4,22.1 71.4,27.5 59.4,33.9 54.8,31.5 54.8,26 59.4,28.4 							"/>
							<path class="st8" d="M54.8,26c2.8-1.5,5.7-3,8.5-4.5c0.1,0,0.1-0.1,0.2-0.1c0.1,0,0.1-0.1,0.2-0.1l3.1-1.6l4.5,2.4l-12.1,6.4
								L54.8,26z"/>
						</g>
						<g>
							<polygon class="st9" points="44.9,30.6 44.9,13.8 50.5,16.7 50.5,33.6 							"/>
							<polygon class="st7" points="56.2,13.8 56.2,30.6 52.3,47.5 46.7,50.5 50.5,33.6 50.5,16.7 							"/>
							<polygon class="st8" points="56.2,13.8 50.5,16.7 44.9,13.8 50.5,10.8 							"/>
							<polygon class="st6" points="46.7,50.5 41,47.5 44.9,30.6 50.5,33.6 							"/>
						</g>
						<g>
							<polygon class="st3" points="50.8,0.9 50.8,11.7 43.4,7.8 43.4,5.9 48,8.3 48,6.4 48,1.5 45.2,0 43.4,-1 43.4,-3 							"/>
							<path class="st4" d="M50.8,11.7V0.9l3.7-1.9V9.7L50.8,11.7z M48,6.4l-2.8-1.5h0V0L48,1.5V6.4z"/>
							<path class="st5" d="M50.8,0.9L43.4-3L47.1-5l7.4,3.9v0L50.8,0.9z M43.4,5.9l1.8-1L48,6.4v1.9L43.4,5.9z"/>
						</g>
					</g>
				</g>
			</g>
			<g class="st0">
				<rect x="0" y="-33.3" class="st22" width="100" height="100"/>
				<g id="duck_1_">
					<polygon class="st23" points="100,31.1 41.7,64.7 9.2,47.4 65.9,16 					"/>
					<g>
						<polygon class="st25" points="64.3,46.1 49.9,53.6 40.3,48.7 54.9,41.1 64.3,46.1 						"/>
					</g>
					<g>
						<polygon class="st24" points="33.6,45.3 48.1,37.8 48.1,41.4 33.6,49 						"/>
						<polygon class="st25" points="48.1,37.8 33.6,45.3 24.1,40.4 38.6,32.8 48.1,37.8 						"/>
						<polygon class="st26" points="24.1,40.4 33.6,45.3 33.6,49 24.1,44 						"/>
					</g>
					<g>
						<polygon class="st24" points="55.2,47.7 55.2,34.9 58.8,33 58.8,45.8 						"/>
						<polygon class="st27" points="58.8,33 55.2,34.9 51.6,33 55.2,31.2 						"/>
						<polygon class="st26" points="55.2,34.9 55.2,47.7 51.6,45.8 51.6,33 						"/>
					</g>
					<g>
						<polygon class="st28" points="44.4,40.3 44.4,15.5 71.5,1.4 71.5,29.8 47.8,42.1 						"/>
						<polygon class="st29" points="71.5,1.4 44.4,15.5 20.3,2.9 47.4,-11.2 80.4,-15.9 						"/>
						<polygon class="st30" points="44.4,15.5 44.4,40.3 20.3,27.8 20.3,2.9 						"/>
						<polygon class="st31" points="71.5,29.8 71.5,1.4 80.4,-15.9 						"/>
					</g>
					<g>
						<polygon class="st32" points="36.2,11.2 36.2,-16.3 28.4,-20.4 36.2,-24.4 43.9,-20.4 43.9,7.2 						"/>
						<polygon class="st33" points="36.2,11.2 28.4,7.2 28.4,-20.4 36.2,-16.3 						"/>
						<polygon class="st34" points="36.2,11.2 28.4,7.2 28.4,5.8 36.2,10 						"/>
					</g>
					<g>
						<polygon class="st40" points="65.3,13.1 51.8,20.1 45.8,17 69.8,4.5 						"/>
						<polygon class="st41" points="51.8,20.1 51.8,34.3 45.8,31.1 45.8,17 						"/>
						<polygon class="st42" points="65.3,27.2 65.3,13.1 69.8,4.5 						"/>
						<polygon class="st43" points="65.3,27.2 51.8,34.3 51.8,20.1 65.3,13.1 						"/>
					</g>
					<polygon class="st44" points="43.9,7.2 36.2,11.2 36.2,10 43.9,6 					"/>
				</g>
			</g>
			<g class="st0">
				<rect x="0" y="-33.3" class="st45" width="100" height="100"/>
				<g>
					<polygon class="st46" points="48.9,25 75.5,39.1 39,58.4 12.3,44.4 					"/>
					<g>
						<polygon class="st47" points="30.2,45 30.2,8.9 25.3,6.4 30.2,3.8 35.1,6.4 35.1,42.4 						"/>
						<polygon class="st48" points="30.2,45 25.3,42.4 25.3,6.4 30.2,8.9 						"/>
					</g>
					<g>
						<polygon class="st47" points="64.3,40.8 64.3,18.6 59.4,16.1 64.3,13.4 69.1,16.1 69.1,38.2 						"/>
						<polygon class="st48" points="64.3,40.8 59.4,38.2 59.4,16.1 64.3,18.6 						"/>
					</g>
					<g>
						<polygon class="st47" points="43.5,52.2 43.5,6 38.6,3.5 43.5,0.8 48.4,3.5 48.4,49.6 						"/>
						<polygon class="st48" points="43.5,52.2 38.6,49.6 38.6,3.5 43.5,6 						"/>
					</g>
					<g>
						<polygon class="st48" points="67.1,-21.4 67.1,6.5 62.9,4.4 62.9,-23.6 						"/>
						<polygon class="st47" points="67.1,6.5 67.1,-21.4 71.2,-23.6 71.2,4.4 						"/>
					</g>
					<g>
						<polygon class="st48" points="58.8,2.2 62.9,4.4 62.9,9.7 58.8,7.5 						"/>
						<polygon class="st47" points="62.9,4.4 67.1,2.2 67.1,7.5 62.9,9.7 						"/>
						<polygon class="st49" points="58.8,2.2 62.9,0 67.1,2.2 62.9,4.4 						"/>
					</g>
					<g>
						<polygon class="st47" points="69.5,26.1 47.6,37.6 47.6,35.2 47.6,35.2 47.6,28 42.8,30.5 36,34.1 36,31.4 36,16.1 55.5,5.9 
							55.5,15.2 69.5,7.8 69.5,7.8 69.5,18.8 						"/>
						<polygon class="st49" points="36,16.1 13.2,4.1 32.7,-6.2 46.9,1.3 52.1,-1.4 69.5,7.8 55.5,15.2 55.5,5.9 						"/>
						<polygon class="st48" points="36,34.1 13.2,22.1 13.2,19.4 13.2,4.1 36,16.1 36,31.4 						"/>
						<polygon class="st50" points="13.2,22.1 36,34.1 36,41.2 13.2,29.2 						"/>
						<path class="st51" d="M47.6,37.6l22-11.6v2.5l-22,11.6V37.6z M36,41.2v-7.1l6.8-3.5l4.7-2.5v7.1l-4.7,2.5L36,41.2z"/>
					</g>
					<g>
						<polygon class="st48" points="28.3,-2.8 28.3,6.8 19.5,2.2 19.5,-7.4 23.9,-9.3 						"/>
						<path class="st47" d="M23.9-9.3l-4.4,2L24-9.7l4.4-1.9L23.9-9.3z M28.3-2.8l4.4-2.3v9.6l-4.4,2.3V-2.8z"/>
					</g>
					<g>
						<polygon class="st48" points="17.7,24.6 19.6,25.6 21.3,28.7 23.9,27.9 24.9,28.4 24.9,33.5 23.1,32.5 23.1,35.4 21.3,34.5 
							19.5,33.5 19.5,30.6 17.7,29.7 						"/>
						<polygon class="st47" points="23.1,35.4 23.1,32.5 24.9,33.5 24.9,28.4 28,26.8 28,31.8 26.2,32.8 26.2,33.8 24.9,34.5 
							23.1,35.4 						"/>
						<polygon class="st49" points="19.6,25.6 17.7,24.6 20.8,23 28,26.8 24.9,28.4 23.9,27.9 						"/>
						<polygon class="st52" points="23.9,27.9 21.3,28.7 19.6,25.6 						"/>
					</g>
					<g>
						<polygon class="st48" points="39.7,3.1 39.7,12.7 30.9,8.1 30.9,-1.5 35.3,-3.5 						"/>
						<polygon class="st49" points="44.1,0.8 39.7,3.1 35.3,-3.5 39.7,-5.8 44.1,0.8 						"/>
						<path class="st47" d="M35.3-3.5l-4.4,2l4.5-2.3l4.4-1.9L35.3-3.5z M39.7,3.1l4.4-2.3v9.6l-4.4,2.3V3.1z"/>
					</g>
					<g>
						<g>
							<polygon class="st49" points="18.8,12.4 12.4,9 15.6,7.3 22,10.7 							"/>
							<polygon class="st47" points="18.8,12.4 22,10.7 22,18.4 18.8,20 							"/>
							<polygon class="st48" points="12.4,9 18.8,12.4 18.8,20 12.4,16.6 							"/>
						</g>
						<polygon class="st53" points="14.3,15.3 14.3,11.9 17.2,13.4 17.2,16.8 						"/>
					</g>
					<g>
						<g>
							<polygon class="st49" points="29.8,18.4 23.4,15 26.7,13.3 33,16.7 							"/>
							<polygon class="st47" points="33,16.7 33,24.4 29.8,26 29.8,18.4 							"/>
							<polygon class="st48" points="23.4,15 29.8,18.4 29.8,26 23.4,22.6 							"/>
						</g>
						<polygon class="st53" points="25.3,21.3 25.3,17.9 28.2,19.4 28.2,22.8 						"/>
					</g>
					<g>
						<polygon class="st47" points="27.7,42.7 30.2,41.5 30.2,45 27.7,46.3 						"/>
						<polygon class="st48" points="22.8,40.2 27.7,42.7 27.7,42.7 27.7,46.3 27.7,46.4 25.3,45.1 22.8,43.7 22.8,42.7 						"/>
						<polygon class="st49" points="30.2,41.5 27.7,42.7 27.7,42.7 22.8,40.2 25.3,38.8 						"/>
					</g>
					<g>
						<polygon class="st47" points="61.8,42.1 61.8,38.6 64.3,37.3 64.3,40.8 						"/>
						<polygon class="st48" points="61.8,38.6 61.8,42.1 61.8,42.2 59.4,40.9 56.9,39.5 56.9,38.5 56.9,36 61.8,38.5 						"/>
						<polygon class="st49" points="64.3,37.3 61.8,38.6 61.8,38.5 56.9,36 59.4,34.6 						"/>
					</g>
				</g>
			</g>
		</g>
	</g>
</g>
<g id="_x31__x5F_3">
</g>
</svg>
