<?xml version="1.0" encoding="utf-8"?>
<!-- Generator: Adobe Illustrator 22.0.1, SVG Export Plug-In . SVG Version: 6.00 Build 0)  -->
<svg version="1.1" xmlns="http://www.w3.org/2000/svg" xmlns:xlink="http://www.w3.org/1999/xlink" x="0px" y="0px" width="100px"
	 height="33.4px" viewBox="0 0 100 33.4" style="enable-background:new 0 0 100 33.4;" xml:space="preserve">
<style type="text/css">
	.st0{clip-path:url(#SVGID_2_);}
	.st1{fill-rule:evenodd;clip-rule:evenodd;fill:#B4DDE7;}
	.st2{fill-rule:evenodd;clip-rule:evenodd;fill:#9BD2D1;}
	.st3{fill-rule:evenodd;clip-rule:evenodd;fill:#C89D8C;}
	.st4{fill-rule:evenodd;clip-rule:evenodd;fill:#AF7258;}
	.st5{fill-rule:evenodd;clip-rule:evenodd;fill:#DEC5BA;}
	.st6{fill-rule:evenodd;clip-rule:evenodd;fill:#664733;}
	.st7{fill-rule:evenodd;clip-rule:evenodd;fill:#452F21;}
	.st8{fill-rule:evenodd;clip-rule:evenodd;fill:#78533A;}
	.st9{fill-rule:evenodd;clip-rule:evenodd;fill:#563A29;}
	.st10{fill-rule:evenodd;clip-rule:evenodd;fill:#996A4D;}
	.st11{fill-rule:evenodd;clip-rule:evenodd;fill:#885F44;}
	.st12{fill-rule:evenodd;clip-rule:evenodd;fill:#39241C;}
	.st13{fill-rule:evenodd;clip-rule:evenodd;fill:#39211C;}
	.st14{fill-rule:evenodd;clip-rule:evenodd;fill:#684B31;}
	.st15{fill-rule:evenodd;clip-rule:evenodd;fill:#CDA798;}
	.st16{fill-rule:evenodd;clip-rule:evenodd;fill:#AC6D53;}
	.st17{fill-rule:evenodd;clip-rule:evenodd;fill:#6D4534;}
	.st18{fill-rule:evenodd;clip-rule:evenodd;fill:#F4F2F0;}
	.st19{fill-rule:evenodd;clip-rule:evenodd;fill:#C1B5A4;}
	.st20{fill-rule:evenodd;clip-rule:evenodd;fill:#E3DCD7;}
	.st21{fill-rule:evenodd;clip-rule:evenodd;fill:#333333;}
	.st22{fill-rule:evenodd;clip-rule:evenodd;fill:#8BC53F;}
	.st23{fill:#80AD3A;}
	.st24{fill-rule:evenodd;clip-rule:evenodd;fill:#E0A122;}
	.st25{fill-rule:evenodd;clip-rule:evenodd;fill:#FBBB21;}
	.st26{fill-rule:evenodd;clip-rule:evenodd;fill:#EDAA24;}
	.st27{fill-rule:evenodd;clip-rule:evenodd;fill:#F9EA7E;}
	.st28{fill-rule:evenodd;clip-rule:evenodd;fill:#BEB5AF;}
	.st29{fill-rule:evenodd;clip-rule:evenodd;fill:#D8D0CA;}
	.st30{fill-rule:evenodd;clip-rule:evenodd;fill:#988575;}
	.st31{fill-rule:evenodd;clip-rule:evenodd;fill:#808080;}
	.st32{fill-rule:evenodd;clip-rule:evenodd;fill:#307A35;}
	.st33{fill-rule:evenodd;clip-rule:evenodd;fill:#348439;}
	.st34{fill-rule:evenodd;clip-rule:evenodd;fill:#F1F1F1;}
	.st35{fill-rule:evenodd;clip-rule:evenodd;fill:#34893C;}
	.st36{fill-rule:evenodd;clip-rule:evenodd;fill:#3B9F49;}
	.st37{fill-rule:evenodd;clip-rule:evenodd;fill:#379140;}
	.st38{fill-rule:evenodd;clip-rule:evenodd;fill:#E48323;}
	.st39{fill-rule:evenodd;clip-rule:evenodd;fill:#E6AB28;}
	.st40{fill-rule:evenodd;clip-rule:evenodd;fill:#ECE9E8;}
	.st41{fill-rule:evenodd;clip-rule:evenodd;fill:#DDD8D5;}
	.st42{fill-rule:evenodd;clip-rule:evenodd;fill:#AEA29D;}
	.st43{fill-rule:evenodd;clip-rule:evenodd;fill:#C6BCB9;}
	.st44{fill-rule:evenodd;clip-rule:evenodd;fill:#E5E5E5;}
	.st45{fill-rule:evenodd;clip-rule:evenodd;fill:#FDD535;}
	.st46{fill-rule:evenodd;clip-rule:evenodd;fill:#EF9818;}
	.st47{fill-rule:evenodd;clip-rule:evenodd;fill:#666666;}
	.st48{fill-rule:evenodd;clip-rule:evenodd;fill:#919191;}
	.st49{fill-rule:evenodd;clip-rule:evenodd;fill:#BBBBBB;}
	.st50{fill-rule:evenodd;clip-rule:evenodd;fill:#D5D5D5;}
	.st51{fill-rule:evenodd;clip-rule:evenodd;fill:#999999;}
	.st52{fill-rule:evenodd;clip-rule:evenodd;fill:#D67E7E;}
	.st53{fill-rule:evenodd;clip-rule:evenodd;}
	.st54{clip-path:url(#SVGID_4_);}
	.st55{clip-path:url(#SVGID_6_);}
	.st56{clip-path:url(#SVGID_8_);}
	.st57{clip-path:url(#SVGID_10_);}
</style>
<g id="_x32__x5F_2">
</g>
<g id="_x31__x5F_2">
</g>
<g id="_x33__x5F_3">
	<g>
		<g>
			<defs>
				<path id="SVGID_5_" d="M35,0c0,5.5-4.5,10-10,10S15,5.5,15,0H0v33.3h100V0H35z"/>
			</defs>
			<clipPath id="SVGID_2_">
				<use xlink:href="#SVGID_5_"  style="overflow:visible;"/>
			</clipPath>
			<g class="st0">
				<rect x="0" y="-66.7" class="st1" width="100" height="100"/>
				<g>
					<polygon class="st2" points="51.4,-16.4 91.1,4.5 45.7,28.5 6,7.6 					"/>
					<g>
						<g>
							<polygon class="st6" points="14.6,3.4 22.2,7.3 22.2,11.5 14.6,7.5 							"/>
							<polygon class="st7" points="22.2,7.3 31.6,2.4 31.6,6.5 22.2,11.5 							"/>
							<polygon class="st8" points="31.6,2.4 22.2,7.3 14.6,3.4 24.1,-1.6 31.6,2.3 							"/>
						</g>
						<g>
							<polygon class="st7" points="29.3,-11.8 29.3,-28.7 35,-31.7 35,-14.8 31.1,2.1 25.5,5.1 							"/>
							<polygon class="st6" points="23.7,-14.8 29.3,-11.8 25.5,5.1 19.8,2.1 							"/>
						</g>
						<g>
							<polygon class="st6" points="56.9,1.2 64.4,5.1 64.4,9.3 56.9,5.4 							"/>
							<polygon class="st7" points="64.4,5.1 73.9,0.2 73.9,4.4 64.4,9.3 							"/>
							<polygon class="st8" points="73.9,0.2 64.4,5.1 56.9,1.2 66.3,-3.8 73.9,0.2 							"/>
						</g>
						<polygon class="st7" points="71.4,-3.1 71.4,2.3 59.4,3.3 54.8,0.9 54.8,-4.6 66.9,-5.5 						"/>
						<g>
							<polygon class="st7" points="71.4,-11.3 71.4,-5.8 59.4,0.5 54.8,-1.9 54.8,-7.3 59.4,-4.9 							"/>
						</g>
						<g>
							<polygon class="st6" points="36,15.5 43.6,19.5 43.6,23.6 36,19.7 							"/>
							<polygon class="st7" points="43.6,19.5 53,14.5 53,18.7 43.6,23.6 							"/>
							<polygon class="st8" points="53,14.5 43.6,19.5 36,15.5 45.4,10.5 53,14.5 							"/>
						</g>
						<g>
							<polygon class="st9" points="44.9,-2.7 44.9,-19.6 50.5,-16.6 50.5,0.3 							"/>
							<polygon class="st7" points="56.2,-19.6 56.2,-2.7 52.3,14.2 46.7,17.2 50.5,0.3 50.5,-16.6 							"/>
							<polygon class="st6" points="46.7,17.2 41,14.2 44.9,-2.7 50.5,0.3 							"/>
						</g>
					</g>
				</g>
			</g>
			<g class="st0">
				<rect x="0" y="-66.6" class="st22" width="100" height="100"/>
				<g id="duck_2_">
					<polygon class="st23" points="100,-2.2 41.7,31.4 9.2,14.1 65.9,-17.3 					"/>
					<g>
						<polygon class="st24" points="49.9,20.3 64.3,12.8 64.3,16.4 49.9,24 						"/>
						<polygon class="st25" points="64.3,12.8 49.9,20.3 40.3,15.4 54.9,7.8 64.3,12.8 						"/>
						<polygon class="st26" points="40.3,15.4 49.9,20.3 49.9,24 40.3,19 						"/>
					</g>
					<g>
						<polygon class="st24" points="33.6,12 48.1,4.5 48.1,8.1 33.6,15.7 						"/>
						<polygon class="st25" points="48.1,4.5 33.6,12 24.1,7 38.6,-0.5 48.1,4.4 						"/>
						<polygon class="st26" points="24.1,7 33.6,12 33.6,15.7 24.1,10.7 						"/>
					</g>
					<g>
						<polygon class="st24" points="55.2,14.4 55.2,1.6 58.8,-0.3 58.8,12.5 						"/>
						<polygon class="st27" points="58.8,-0.3 55.2,1.6 51.6,-0.3 55.2,-2.2 						"/>
						<polygon class="st26" points="55.2,1.6 55.2,14.4 51.6,12.5 51.6,-0.3 						"/>
					</g>
					<g>
						<polygon class="st28" points="44.4,7 44.4,-17.8 71.5,-31.9 71.5,-3.5 47.8,8.8 						"/>
						<polygon class="st30" points="44.4,-17.8 44.4,7 20.3,-5.5 20.3,-30.4 						"/>
					</g>
					<g>
						<polygon class="st41" points="51.8,-13.2 51.8,0.9 45.8,-2.2 45.8,-16.3 						"/>
						<polygon class="st43" points="65.3,-6.1 51.8,0.9 51.8,-13.2 65.3,-20.3 						"/>
					</g>
				</g>
			</g>
			<g class="st0">
				<rect x="0" y="-66.7" class="st45" width="100" height="100"/>
				<g>
					<polygon class="st46" points="48.9,-8.3 75.5,5.8 39,25.1 12.3,11 					"/>
					<g>
						<polygon class="st47" points="30.2,11.7 30.2,-24.4 25.3,-26.9 30.2,-29.6 35.1,-26.9 35.1,9 						"/>
						<polygon class="st48" points="30.2,11.7 25.3,9 25.3,-26.9 30.2,-24.4 						"/>
					</g>
					<g>
						<polygon class="st47" points="64.3,7.5 64.3,-14.7 59.4,-17.3 64.3,-19.9 69.1,-17.3 69.1,4.8 						"/>
						<polygon class="st48" points="64.3,7.5 59.4,4.8 59.4,-17.3 64.3,-14.7 						"/>
					</g>
					<g>
						<polygon class="st47" points="43.5,18.9 43.5,-27.3 38.6,-29.9 43.5,-32.5 48.4,-29.9 48.4,16.2 						"/>
						<polygon class="st48" points="43.5,18.9 38.6,16.2 38.6,-29.9 43.5,-27.3 						"/>
					</g>
					<g>
						<polygon class="st47" points="69.5,-7.2 47.6,4.3 47.6,1.8 47.6,1.8 47.6,-5.3 42.8,-2.8 36,0.8 36,-1.9 36,-17.2 55.5,-27.5 
							55.5,-18.1 69.5,-25.5 69.5,-25.5 69.5,-14.6 						"/>
						<polygon class="st48" points="36,0.8 13.2,-11.2 13.2,-13.9 13.2,-29.3 36,-17.2 36,-1.9 						"/>
						<polygon class="st50" points="13.2,-11.2 36,0.8 36,7.9 13.2,-4.1 						"/>
						<path class="st51" d="M47.6,4.3l22-11.6v2.5l-22,11.6V4.3z M36,7.9V0.8l6.8-3.5l4.7-2.5v7.1l-4.7,2.5L36,7.9z"/>
					</g>
					<g>
						<polygon class="st47" points="41,20.2 41,16.6 43.5,15.3 43.5,18.9 						"/>
						<polygon class="st48" points="41,20.2 41,20.2 38.6,18.9 36.1,17.6 36.1,16.6 36.1,14 41,16.6 41,16.6 						"/>
						<polygon class="st49" points="36.1,14 38.6,12.7 43.5,15.3 41,16.6 41,16.6 						"/>
					</g>
					<g>
						<polygon class="st48" points="17.7,-8.7 19.6,-7.7 21.3,-4.6 23.9,-5.5 24.9,-4.9 24.9,0.1 23.1,-0.8 23.1,2.1 21.3,1.1 
							19.5,0.2 19.5,-2.7 17.7,-3.7 						"/>
						<polygon class="st47" points="23.1,2.1 23.1,-0.8 24.9,0.1 24.9,-4.9 28,-6.5 28,-1.5 26.2,-0.6 26.2,0.5 24.9,1.1 23.1,2.1 
													"/>
					</g>
					<g>
						<polygon class="st47" points="27.7,9.4 30.2,8.1 30.2,11.7 27.7,13 						"/>
						<polygon class="st48" points="22.8,6.8 27.7,9.4 27.7,9.4 27.7,13 27.7,13 25.3,11.7 22.8,10.4 22.8,9.4 						"/>
						<polygon class="st49" points="30.2,8.1 27.7,9.4 27.7,9.4 22.8,6.8 25.3,5.5 						"/>
					</g>
					<g>
						<polygon class="st47" points="61.8,8.8 61.8,5.2 64.3,3.9 64.3,7.5 						"/>
						<polygon class="st48" points="61.8,5.2 61.8,8.8 61.8,8.8 59.4,7.5 56.9,6.2 56.9,5.2 56.9,2.7 61.8,5.2 						"/>
						<polygon class="st49" points="64.3,3.9 61.8,5.2 61.8,5.2 56.9,2.7 59.4,1.3 						"/>
					</g>
				</g>
			</g>
		</g>
	</g>
</g>
<g id="_x32__x5F_3">
</g>
<g id="_x31__x5F_3">
</g>
</svg>
