<?xml version="1.0" encoding="utf-8"?>
<!-- Generator: Adobe Illustrator 22.0.1, SVG Export Plug-In . SVG Version: 6.00 Build 0)  -->
<svg version="1.1" xmlns="http://www.w3.org/2000/svg" xmlns:xlink="http://www.w3.org/1999/xlink" x="0px" y="0px" width="100px"
	 height="60px" viewBox="0 0 100 60" style="enable-background:new 0 0 100 60;" xml:space="preserve">
<style type="text/css">
	.st0{clip-path:url(#SVGID_2_);}
	.st1{fill-rule:evenodd;clip-rule:evenodd;fill:#87AB32;}
	.st2{fill-rule:evenodd;clip-rule:evenodd;fill:#4D7524;}
	.st3{fill-rule:evenodd;clip-rule:evenodd;fill:#563A29;}
	.st4{fill-rule:evenodd;clip-rule:evenodd;fill:#452F21;}
	.st5{fill-rule:evenodd;clip-rule:evenodd;fill:#78533A;}
	.st6{fill-rule:evenodd;clip-rule:evenodd;fill:#6B4B36;}
	.st7{fill-rule:evenodd;clip-rule:evenodd;fill:#2E1D16;}
	.st8{fill-rule:evenodd;clip-rule:evenodd;fill:#8A6853;}
	.st9{fill-rule:evenodd;clip-rule:evenodd;fill:#4A2F24;}
	.st10{fill-rule:evenodd;clip-rule:evenodd;fill:#CFA985;}
	.st11{fill-rule:evenodd;clip-rule:evenodd;fill:#A6876A;}
	.st12{fill-rule:evenodd;clip-rule:evenodd;fill:#352B20;}
	.st13{fill-rule:evenodd;clip-rule:evenodd;fill:#946749;}
	.st14{fill-rule:evenodd;clip-rule:evenodd;}
	.st15{fill-rule:evenodd;clip-rule:evenodd;fill:#654D3D;}
	.st16{fill-rule:evenodd;clip-rule:evenodd;fill:#BDAB64;}
	.st17{fill-rule:evenodd;clip-rule:evenodd;fill:#9E8D54;}
	.st18{fill-rule:evenodd;clip-rule:evenodd;fill:#A02B1F;}
	.st19{fill-rule:evenodd;clip-rule:evenodd;fill:#D8371D;}
	.st20{fill-rule:evenodd;clip-rule:evenodd;fill:#BC3019;}
	.st21{fill-rule:evenodd;clip-rule:evenodd;fill:#F9EA7E;}
	.st22{fill-rule:evenodd;clip-rule:evenodd;fill:#BEB5AF;}
	.st23{fill-rule:evenodd;clip-rule:evenodd;fill:#ECE9E8;}
	.st24{fill-rule:evenodd;clip-rule:evenodd;fill:#DDD8D5;}
	.st25{fill-rule:evenodd;clip-rule:evenodd;fill:#A99C9A;}
	.st26{fill-rule:evenodd;clip-rule:evenodd;fill:#F4F2F0;}
	.st27{fill-rule:evenodd;clip-rule:evenodd;fill:#C1B5A4;}
	.st28{fill-rule:evenodd;clip-rule:evenodd;fill:#E3DCD7;}
	.st29{fill-rule:evenodd;clip-rule:evenodd;fill:#333333;}
	.st30{fill-rule:evenodd;clip-rule:evenodd;fill:#C6BCB9;}
	.st31{fill-rule:evenodd;clip-rule:evenodd;fill:#93CDDB;}
	.st32{fill-rule:evenodd;clip-rule:evenodd;fill:#7092B1;}
	.st33{fill-rule:evenodd;clip-rule:evenodd;fill:#4F4743;}
	.st34{fill-rule:evenodd;clip-rule:evenodd;fill:#A09388;}
	.st35{fill-rule:evenodd;clip-rule:evenodd;fill:#ABA398;}
	.st36{fill-rule:evenodd;clip-rule:evenodd;fill:#6D635D;}
	.st37{fill-rule:evenodd;clip-rule:evenodd;fill:#D9D6D0;}
	.st38{fill-rule:evenodd;clip-rule:evenodd;fill:#E9D21B;}
	.st39{fill-rule:evenodd;clip-rule:evenodd;fill:#E6AB28;}
	.st40{fill-rule:evenodd;clip-rule:evenodd;fill:#AC9C8E;}
	.st41{fill-rule:evenodd;clip-rule:evenodd;fill:#383330;}
	.st42{fill-rule:evenodd;clip-rule:evenodd;fill:#443933;}
	.st43{fill-rule:evenodd;clip-rule:evenodd;fill:#443733;}
	.st44{fill-rule:evenodd;clip-rule:evenodd;fill:#FFFFFF;}
	.st45{fill-rule:evenodd;clip-rule:evenodd;fill:#756A64;}
	.st46{fill-rule:evenodd;clip-rule:evenodd;fill:#5E5350;}
	.st47{fill-rule:evenodd;clip-rule:evenodd;fill:#3A3531;}
	.st48{fill-rule:evenodd;clip-rule:evenodd;fill:#77625A;}
	.st49{fill-rule:evenodd;clip-rule:evenodd;fill:#452C21;}
	.st50{fill-rule:evenodd;clip-rule:evenodd;fill:#41332E;}
	.st51{fill-rule:evenodd;clip-rule:evenodd;fill:#725752;}
	.st52{clip-path:url(#SVGID_4_);}
	.st53{clip-path:url(#SVGID_6_);}
	.st54{clip-path:url(#SVGID_8_);}
	.st55{clip-path:url(#SVGID_10_);}
</style>
<g id="_x32__x5F_2">
</g>
<g id="_x31__x5F_2">
	<g>
		<defs>
			<path id="SVGID_3_" d="M100,0H0v50h15c0,5.5,4.5,10,10,10c5.5,0,10-4.5,10-10h65V0z"/>
		</defs>
		<clipPath id="SVGID_2_">
			<use xlink:href="#SVGID_3_"  style="overflow:visible;"/>
		</clipPath>
		<g class="st0">
			<rect y="0" class="st1" width="100" height="100"/>
			<g>
				<g>
					<polygon class="st3" points="41.8,44.5 36.3,41.6 36.3,35.8 41.8,35.9 					"/>
					<polygon class="st4" points="36.9,54.6 41.8,44.5 41.8,35.9 47.3,33 47.2,43.8 42.5,53.2 					"/>
					<polygon class="st5" points="41.8,35.9 36.3,35.8 41.8,32.9 47.3,33 					"/>
					<polygon class="st6" points="36.3,41.6 41.8,44.5 36.9,54.6 31.4,51.7 					"/>
				</g>
				<g>
					<path class="st3" d="M54.7,71.5l-4.4-2.3L49,68.5L46,67l-1.4-0.8l-1.4-0.8l-3-1.6L37,62.3l2.8-29.2l2.2-0.9l2.2,1.2l2.2,1.2
						l2.2,1.1l2.2,1.2l2.2,3.2l1.4,27.1L54.7,71.5z M46.3,37.3l-1.4-0.8l-3-1.6l-1.5,24.5l3,2.6l1.4,0.8h0l1.4,0.8l3,0.5l1.5-24.5
						l-3-1.5L46.3,37.3z"/>
					<polygon class="st5" points="63.9,30.1 50.9,36.8 48.7,35.7 46.5,34.5 44.2,33.3 42,32.2 39.8,33.1 52.8,26.3 55,25.4 
						57.2,26.6 61.6,28.9 					"/>
					<polygon class="st7" points="54.7,71.5 54.5,67.1 53.1,40 66.1,33.3 67.7,64.8 					"/>
					<polygon class="st8" points="46.3,37.3 47.7,38.1 50.7,39.6 49.2,64.1 46.2,63.7 44.8,62.9 44.8,62.9 43.3,62.2 40.3,59.5 
						41.8,35 44.9,36.6 					"/>
					<polygon class="st9" points="53.1,40 50.9,36.8 63.9,30.1 66.1,33.3 					"/>
				</g>
				<g>
					<g>
						<polygon class="st4" points="51.1,23.4 61.4,18.1 63.6,29.8 51.1,36.2 						"/>
						<polygon class="st3" points="51.1,23.4 51.1,36.2 40.3,30.6 40.3,17.8 						"/>
						<polygon class="st5" points="61.4,18.1 51.1,23.4 40.3,17.8 50.5,12.4 						"/>
					</g>
					<g>
						<polygon class="st10" points="43.1,31.1 37.9,28.4 42.4,24.2 48.5,27.4 						"/>
						<polygon class="st11" points="43.1,36.2 43.1,35.3 43.1,34.7 43.1,31.1 48.5,27.4 48.5,34.8 						"/>
						<polygon class="st12" points="37.9,28.4 43.1,31.1 43.1,34.7 43.1,35.3 43.1,36.2 42,35.7 37.9,33.5 						"/>
					</g>
					<g>
						<polygon class="st4" points="52.3,18.8 53.5,18 53.5,21.8 52.3,22.6 						"/>
						<polygon class="st3" points="49.1,17.2 52.3,18.8 52.3,22.6 49.1,20.9 						"/>
						<polygon class="st13" points="53.5,18 52.3,18.8 49.1,17.2 50.3,16.3 						"/>
					</g>
					<g>
						<polygon class="st4" points="44.5,14.9 45.8,14.1 45.8,17.9 44.5,18.7 						"/>
						<polygon class="st3" points="41.3,13.2 44.5,14.9 44.5,18.7 41.3,17 						"/>
						<polygon class="st13" points="45.8,14.1 44.5,14.9 41.3,13.2 42.5,12.4 						"/>
					</g>
					<g>
						<polygon class="st14" points="42,22.7 42,21.5 43,22 43,23.2 						"/>
						<polygon class="st14" points="47.4,25.4 47.4,24.2 48.4,24.8 48.4,26 						"/>
					</g>
					<polygon class="st15" points="48,33.3 48,33.7 43.1,35.3 43.1,34.7 					"/>
				</g>
				<g>
					<polygon class="st3" points="60.2,53 54.7,50.1 54.7,42 60.2,47.6 					"/>
					<polygon class="st4" points="55.3,63.1 60.2,53 60.2,47.6 68.2,43.5 65.6,52.3 60.9,61.7 					"/>
					<polygon class="st5" points="60.2,47.6 54.7,42 62.6,37.9 68.2,43.5 					"/>
					<polygon class="st6" points="54.7,50.1 60.2,53 55.3,63.1 49.7,60.2 					"/>
				</g>
			</g>
		</g>
		<g class="st0">
			<rect class="st16" width="100" height="100"/>
			<g>
				<g>
					<polygon class="st18" points="50.3,82.3 50.3,50.5 52.9,49.1 52.9,81 					"/>
					<polygon class="st21" points="54,50.2 50.4,52.1 46.8,50.2 50.4,48.3 					"/>
					<polygon class="st20" points="50.4,50.4 50.4,82.3 47.7,80.9 47.7,49 					"/>
				</g>
				<g>
					<polygon class="st18" points="59.5,86.6 59.5,54.7 62.1,53.4 62.1,85.2 					"/>
					<polygon class="st21" points="63.2,54.4 59.6,56.3 56,54.4 59.6,52.5 					"/>
					<polygon class="st20" points="59.6,54.7 59.6,86.6 56.9,85.2 56.9,53.3 					"/>
				</g>
				<g>
					<polygon class="st22" points="55.5,56.8 55.5,43.4 69.9,35.8 69.9,51.1 57.3,57.8 					"/>
					<polygon class="st23" points="69.9,35.8 55.5,43.4 42.7,36.7 57.1,29 74.7,26.5 					"/>
					<polygon class="st24" points="55.5,43.4 55.5,56.8 42.7,50.1 42.7,36.7 					"/>
					<polygon class="st25" points="69.9,51.1 69.9,35.8 74.7,26.5 					"/>
				</g>
				<g>
					<polygon class="st22" points="52.1,41.9 52.1,24.3 47.3,21.7 52.1,19.1 57,21.7 57,39.3 					"/>
					<polygon class="st24" points="52.1,41.9 47.3,39.3 47.3,21.7 52.1,24.3 					"/>
				</g>
				<g>
					<polygon class="st22" points="60.8,12.9 51.7,17.7 51.7,28.6 60.8,23.8 					"/>
					<polygon class="st23" points="60.8,12.9 51.7,8 42.5,12.9 51.7,17.7 					"/>
					<polygon class="st24" points="51.7,17.7 42.5,12.9 42.5,23.8 51.7,28.6 					"/>
				</g>
				<g>
					<polygon class="st18" points="24.8,36.9 49.4,19.7 49.4,23.8 					"/>
					<polygon class="st19" points="49.4,19.7 24.8,36.9 45.6,17.7 					"/>
				</g>
				<g>
					<g>
						<g>
							<polygon class="st26" points="52.8,18.8 53.9,19.4 56.3,18.2 55.1,17.5 							"/>
							<polygon class="st27" points="52.8,18.8 52.8,21.6 53.9,22.2 53.9,19.4 							"/>
							<polygon class="st28" points="53.9,19.4 53.9,22.2 56.3,21 56.3,18.2 							"/>
						</g>
						<polygon class="st29" points="55.6,20.6 55.6,19.3 54.6,19.9 54.6,21.1 						"/>
					</g>
				</g>
				<g>
					<polygon class="st23" points="66.7,42.1 59.5,45.9 56.3,44.2 69,37.5 					"/>
					<polygon class="st24" points="59.5,45.9 59.5,53.5 56.3,51.9 56.3,44.2 					"/>
					<polygon class="st29" points="66.7,49.8 66.7,42.1 69,37.5 					"/>
					<polygon class="st30" points="66.7,49.8 59.5,53.5 59.5,45.9 66.7,42.1 					"/>
				</g>
			</g>
		</g>
		<g class="st0">
			<rect class="st31" width="100" height="100"/>
			<g>
				<g>
					<polygon class="st33" points="41.1,4.1 42.7,3.2 42.7,15.1 41.1,15.9 					"/>
					<polygon class="st34" points="42.7,3.2 41.1,4.1 37.9,2.4 39.5,1.5 42.7,3.2 					"/>
					<polygon class="st35" points="40.1,15.4 38.6,14.6 38.6,4.7 40.1,5.5 					"/>
					<polygon class="st36" points="41.1,4.1 41.1,15.9 40.5,15.6 40.2,15.5 40.1,15.4 40.1,5.6 38.6,4.7 38.6,14.6 37.9,14.2 
						37.9,2.4 					"/>
				</g>
				<g>
					<polygon class="st37" points="69.9,35.6 74.3,33.3 78.6,35.6 78.6,62.5 74.3,64.8 74.3,37.9 					"/>
					<polygon class="st35" points="74.3,64.8 69.9,62.5 69.9,35.6 74.3,37.9 					"/>
				</g>
				<g>
					<polygon class="st38" points="67.1,55.9 62.8,58.3 62.8,31.4 58.4,29.1 62.8,26.8 67.1,29.1 					"/>
					<polygon class="st39" points="58.4,29.1 62.8,31.4 62.8,58.3 58.4,55.9 					"/>
					<polygon class="st40" points="62.8,67.9 58.4,65.6 58.4,55.9 62.8,58.3 					"/>
					<polygon class="st37" points="67.1,55.9 67.1,65.6 62.8,67.9 62.8,58.3 					"/>
				</g>
				<g>
					<polygon class="st37" points="46.8,79.5 42.4,81.9 42.4,31.3 38.1,29 42.4,26.7 46.8,29 					"/>
					<polygon class="st35" points="38.1,79.5 38.1,29 42.4,31.3 42.4,81.9 					"/>
				</g>
				<g>
					<polygon class="st37" points="26.6,22.5 30.9,20.2 35.3,22.5 35.3,73 30.9,75.3 30.9,24.8 					"/>
					<polygon class="st35" points="30.9,75.3 26.6,73 26.6,22.5 30.9,24.8 					"/>
				</g>
				<g>
					<polygon class="st38" points="72.7,29.7 72.7,35.9 68,33.4 68,27.2 					"/>
					<polygon class="st41" points="78.2,26.8 72.7,29.7 68,27.2 73.5,24.3 					"/>
					<polygon class="st33" points="72.7,35.9 72.7,29.7 78.2,26.8 78.2,32.9 					"/>
				</g>
				<g>
					<polygon class="st36" points="44.7,52.5 25.4,42.3 60.9,23.5 80.2,33.7 					"/>
					<polygon class="st37" points="44.7,75.6 44.7,52.5 80.2,33.7 80.2,56.9 					"/>
					<polygon class="st35" points="44.7,75.6 25.4,65.5 25.4,42.3 44.7,52.5 					"/>
				</g>
				<g>
					<polygon class="st42" points="54.2,17.1 46.5,21.1 40,24.6 40,16.9 52.7,10.7 					"/>
					<polygon class="st43" points="46.5,21.1 54.2,17.1 54.2,38.4 50,41.4 					"/>
				</g>
				<g>
					<polygon class="st33" points="30.2,30.9 30.2,30.9 43.6,23.8 53.5,29.1 53.5,31.2 53.5,32.7 53.5,34.4 53.5,35.9 53.5,37.7 
						53.5,39.2 53.5,43 40.1,50.1 40.1,36.2 					"/>
					<polygon class="st41" points="40.1,50.1 30.2,44.8 30.2,30.9 40.1,36.2 					"/>
				</g>
				<polygon class="st41" points="44.7,52.5 44.7,62.8 44.7,73.2 25.4,63 25.4,42.3 				"/>
				<g>
					<path class="st33" d="M40.1,36.2V22.3l10.6-5.6l2.9,12.4C51.6,31.4,47.1,33.7,40.1,36.2z"/>
					<path class="st36" d="M50.6,16.7l-10.6,5.6v13.9l-9.9-5.2V19.6V17v0l10.5-5.6L50.6,16.7z M33.4,23.2l4.2-2.3L33.4,23.2z
						 M30.2,19.6l2.4-1.3L30.2,19.6z"/>
					<g>
						<path d="M33.1,23.4c-0.1-0.1,0-0.3,0.1-0.4l0,0l4.1-2.3c0.1-0.1,0.3,0,0.4,0.1l0,0c0.1,0.1,0,0.3-0.1,0.4l0,0l-4.2,2.3
							c0,0-0.1,0-0.1,0l0,0C33.3,23.5,33.2,23.5,33.1,23.4L33.1,23.4z M28.1,20.7c-0.1-0.1,0-0.3,0.1-0.4l0,0l1.8-1l2.4-1.3
							c0.1-0.1,0.3,0,0.4,0.1l0,0c0.1,0.1,0,0.3-0.1,0.4l0,0l-2.4,1.3l-1.8,1c0,0-0.1,0-0.1,0l0,0C28.3,20.9,28.2,20.8,28.1,20.7
							L28.1,20.7z"/>
					</g>
				</g>
				<g>
					<polygon class="st33" points="35.8,38.4 35.8,24.5 40.1,22.3 40.1,36.2 					"/>
					<polygon class="st36" points="40.1,22.3 35.8,24.5 35.8,24.5 33.4,23.2 32.6,22.8 32.1,22.5 30.9,21.9 28.9,20.8 28.4,20.6 
						25.9,19.3 30.1,17 32.6,18.3 35.1,19.6 36.2,20.3 37.6,21 					"/>
					<polygon class="st35" points="35.8,24.5 35.8,38.4 25.9,33.2 25.9,29.9 25.9,19.3 28.4,20.6 28.9,20.8 30.9,21.9 32.1,22.5 
						32.6,22.8 33.4,23.2 35.8,24.5 					"/>
				</g>
				<g>
					<polygon class="st21" points="25.4,32.2 25.3,32.2 25.3,32.2 					"/>
					<polygon class="st37" points="25.3,42.7 25.3,32.2 25.4,32.2 34.6,27.2 34.6,37.8 					"/>
					<polygon class="st44" points="34.6,27.2 25.4,32.2 25.3,32.2 25.3,32.2 25.3,42.7 17.8,38.7 17.8,28.2 27,23.2 28.9,24.2 
						30.8,25.2 32.7,26.2 					"/>
				</g>
				<g>
					<polygon class="st34" points="25.6,32 17.5,27.7 21.7,25.4 29.9,29.7 					"/>
					<polygon class="st45" points="23.9,40.4 15.8,36.1 17.5,27.7 25.6,32 					"/>
					<polygon class="st46" points="23.9,40.4 25.6,32 29.9,29.7 29.9,41.1 25.2,43.6 					"/>
					<polygon class="st47" points="15.8,36.1 23.9,40.4 25.2,43.6 25.1,43.6 17.1,39.3 					"/>
				</g>
				<g>
					<polygon class="st37" points="44.8,23.2 40.2,25.6 40.2,31.1 44.8,28.7 					"/>
					<polygon class="st44" points="40.2,25.6 44.8,23.2 42.5,22 37.9,24.4 					"/>
					<polygon class="st35" points="37.9,24.4 37.9,29.9 40.2,31.1 40.2,25.6 					"/>
				</g>
				<polygon class="st14" points="41.4,26.4 41.4,28.8 43.4,27.7 43.4,25.3 				"/>
				<g>
					<polygon class="st48" points="48.9,5.6 34.8,13 33.1,12.1 34.8,11.2 47.2,4.7 					"/>
					<polygon class="st42" points="34.8,13 48.9,5.6 52.7,10.7 34.8,20.1 					"/>
					<polygon class="st49" points="34.8,13 34.8,20.1 33.1,19.2 33.1,12.1 					"/>
				</g>
				<polygon class="st50" points="20.2,33.8 19.8,35.5 18.2,34.6 18.6,33 				"/>
				<polygon class="st50" points="22.6,35.1 22.3,36.8 20.7,36 21,34.3 				"/>
				<polygon class="st33" points="80.2,33.7 80.2,44 80.2,54.3 44.6,73.1 44.6,52.5 62.5,43.1 				"/>
				<line class="st51" x1="32.9" y1="38.6" x2="31.8" y2="39.2"/>
				<g>
					<polygon class="st33" points="46.7,6.5 48.3,5.7 48.3,17.5 46.7,18.4 					"/>
					<polygon class="st34" points="48.3,5.7 46.7,6.5 43.5,4.8 45.1,4 48.3,5.7 					"/>
					<polygon class="st35" points="45.7,17.9 44.2,17.1 44.3,7.2 45.7,8 					"/>
					<polygon class="st36" points="46.7,6.5 46.7,18.4 46.1,18.1 45.9,17.9 45.7,17.9 45.7,8 44.3,7.2 44.2,17.1 43.5,16.7 
						43.5,4.8 					"/>
				</g>
			</g>
		</g>
	</g>
</g>
<g id="_x33__x5F_3">
</g>
<g id="_x32__x5F_3">
</g>
<g id="_x31__x5F_3">
</g>
</svg>
