<?xml version="1.0" encoding="utf-8"?>
<!-- Generator: Adobe Illustrator 22.0.1, SVG Export Plug-In . SVG Version: 6.00 Build 0)  -->
<svg version="1.1" xmlns="http://www.w3.org/2000/svg" xmlns:xlink="http://www.w3.org/1999/xlink" x="0px" y="0px" width="100px"
	 height="49.9px" viewBox="0 0 100 49.9" style="enable-background:new 0 0 100 49.9;" xml:space="preserve">
<style type="text/css">
	.st0{clip-path:url(#SVGID_2_);}
	.st1{fill-rule:evenodd;clip-rule:evenodd;fill:#87AB32;}
	.st2{fill-rule:evenodd;clip-rule:evenodd;fill:#4D7524;}
	.st3{fill-rule:evenodd;clip-rule:evenodd;fill:#563A29;}
	.st4{fill-rule:evenodd;clip-rule:evenodd;fill:#452F21;}
	.st5{fill-rule:evenodd;clip-rule:evenodd;fill:#78533A;}
	.st6{fill-rule:evenodd;clip-rule:evenodd;fill:#6B4B36;}
	.st7{fill-rule:evenodd;clip-rule:evenodd;fill:#2E1D16;}
	.st8{fill-rule:evenodd;clip-rule:evenodd;fill:#8A6853;}
	.st9{fill-rule:evenodd;clip-rule:evenodd;fill:#4A2F24;}
	.st10{fill-rule:evenodd;clip-rule:evenodd;fill:#CFA985;}
	.st11{fill-rule:evenodd;clip-rule:evenodd;fill:#A6876A;}
	.st12{fill-rule:evenodd;clip-rule:evenodd;fill:#352B20;}
	.st13{fill-rule:evenodd;clip-rule:evenodd;fill:#946749;}
	.st14{fill-rule:evenodd;clip-rule:evenodd;}
	.st15{fill-rule:evenodd;clip-rule:evenodd;fill:#654D3D;}
	.st16{fill-rule:evenodd;clip-rule:evenodd;fill:#BDAB64;}
	.st17{fill-rule:evenodd;clip-rule:evenodd;fill:#9E8D54;}
	.st18{fill-rule:evenodd;clip-rule:evenodd;fill:#A02B1F;}
	.st19{fill-rule:evenodd;clip-rule:evenodd;fill:#D8371D;}
	.st20{fill-rule:evenodd;clip-rule:evenodd;fill:#BC3019;}
	.st21{fill-rule:evenodd;clip-rule:evenodd;fill:#F9EA7E;}
	.st22{fill-rule:evenodd;clip-rule:evenodd;fill:#BEB5AF;}
	.st23{fill-rule:evenodd;clip-rule:evenodd;fill:#ECE9E8;}
	.st24{fill-rule:evenodd;clip-rule:evenodd;fill:#DDD8D5;}
	.st25{fill-rule:evenodd;clip-rule:evenodd;fill:#A99C9A;}
	.st26{fill-rule:evenodd;clip-rule:evenodd;fill:#F4F2F0;}
	.st27{fill-rule:evenodd;clip-rule:evenodd;fill:#C1B5A4;}
	.st28{fill-rule:evenodd;clip-rule:evenodd;fill:#E3DCD7;}
	.st29{fill-rule:evenodd;clip-rule:evenodd;fill:#333333;}
	.st30{fill-rule:evenodd;clip-rule:evenodd;fill:#C6BCB9;}
	.st31{fill-rule:evenodd;clip-rule:evenodd;fill:#93CDDB;}
	.st32{fill-rule:evenodd;clip-rule:evenodd;fill:#7092B1;}
	.st33{fill-rule:evenodd;clip-rule:evenodd;fill:#4F4743;}
	.st34{fill-rule:evenodd;clip-rule:evenodd;fill:#A09388;}
	.st35{fill-rule:evenodd;clip-rule:evenodd;fill:#ABA398;}
	.st36{fill-rule:evenodd;clip-rule:evenodd;fill:#6D635D;}
	.st37{fill-rule:evenodd;clip-rule:evenodd;fill:#D9D6D0;}
	.st38{fill-rule:evenodd;clip-rule:evenodd;fill:#E9D21B;}
	.st39{fill-rule:evenodd;clip-rule:evenodd;fill:#E6AB28;}
	.st40{fill-rule:evenodd;clip-rule:evenodd;fill:#AC9C8E;}
	.st41{fill-rule:evenodd;clip-rule:evenodd;fill:#383330;}
	.st42{fill-rule:evenodd;clip-rule:evenodd;fill:#443933;}
	.st43{fill-rule:evenodd;clip-rule:evenodd;fill:#443733;}
	.st44{fill-rule:evenodd;clip-rule:evenodd;fill:#FFFFFF;}
	.st45{fill-rule:evenodd;clip-rule:evenodd;fill:#756A64;}
	.st46{fill-rule:evenodd;clip-rule:evenodd;fill:#5E5350;}
	.st47{fill-rule:evenodd;clip-rule:evenodd;fill:#3A3531;}
	.st48{fill-rule:evenodd;clip-rule:evenodd;fill:#77625A;}
	.st49{fill-rule:evenodd;clip-rule:evenodd;fill:#452C21;}
	.st50{fill-rule:evenodd;clip-rule:evenodd;fill:#41332E;}
	.st51{fill-rule:evenodd;clip-rule:evenodd;fill:#725752;}
	.st52{clip-path:url(#SVGID_4_);}
	.st53{clip-path:url(#SVGID_6_);}
	.st54{clip-path:url(#SVGID_8_);}
	.st55{clip-path:url(#SVGID_10_);}
</style>
<g id="_x32__x5F_2">
	<g>
		<defs>
			<path id="SVGID_1_" d="M35,0C35,0,35,0,35,0c0,5.5-4.5,10-10,10c-5.5,0-10-4.5-10-10c0,0,0,0,0,0H0v50h100V0H35z"/>
		</defs>
		<clipPath id="SVGID_2_">
			<use xlink:href="#SVGID_1_"  style="overflow:visible;"/>
		</clipPath>
		<g class="st0">
			<rect x="0" y="-50.1" class="st1" width="100" height="100"/>
			<polygon class="st2" points="28.4,22.9 52.6,35.4 73.7,24.4 49.5,11.9 			"/>
			<g>
				<g>
					<polygon class="st4" points="36.9,4.5 41.8,-5.6 41.8,-14.2 47.3,-17.1 47.2,-6.3 42.5,3.1 					"/>
					<polygon class="st6" points="36.3,-8.5 41.8,-5.6 36.9,4.5 31.4,1.6 					"/>
				</g>
				<g>
					<polygon class="st4" points="42.8,22.8 43.1,15.4 47.7,14.2 47.7,21.2 41.7,24.3 					"/>
					<polygon class="st3" points="43.1,15.4 42.8,22.8 37,19.9 37,12.2 40.8,12.2 					"/>
					<polygon class="st5" points="37,19.9 42.8,22.8 41.7,24.3 36,21.3 					"/>
				</g>
				<g>
					<path class="st3" d="M54.7,21.4l-4.4-2.3L49,18.4l-3-1.5l-1.4-0.8l-1.4-0.8l-3-1.6L37,12.2L39.8-17l2.2-0.9l2.2,1.2l2.2,1.2
						l2.2,1.1l2.2,1.2l2.2,3.2L54.5,17L54.7,21.4z M46.3-12.8l-1.4-0.8l-3-1.6L40.3,9.4l3,2.6l1.4,0.8h0l1.4,0.8l3,0.5l1.5-24.5
						l-3-1.5L46.3-12.8z"/>
					<polygon class="st7" points="54.7,21.4 54.5,17 53.1,-10.1 66.1,-16.8 67.7,14.7 					"/>
					<polygon class="st8" points="46.3,-12.8 47.7,-12 50.7,-10.5 49.2,14 46.2,13.6 44.8,12.8 44.8,12.8 43.3,12.1 40.3,9.4 
						41.8,-15.1 44.9,-13.5 					"/>
				</g>
				<g>
					<polygon class="st3" points="54.7,21.4 55.1,29.1 46.8,24.9 46.8,24.9 46,16.9 51.3,16.9 					"/>
					<path class="st7" d="M55.1,29.1l-0.4-7.7c5.1-5.9,9.4-8.1,13-6.7l-1.8,5.5l0,4.6L54,30.9l0.5-0.9L55.1,29.1z"/>
					<polygon class="st5" points="55.1,29.1 54.5,30 54,30.9 45.7,26.6 46.3,25.7 46.8,24.9 46.8,24.9 					"/>
				</g>
				<g>
					<polygon class="st3" points="60.2,2.9 54.7,0 54.7,-8.1 60.2,-2.5 					"/>
					<polygon class="st4" points="55.3,13 60.2,2.9 60.2,-2.5 68.2,-6.6 65.6,2.2 60.9,11.6 					"/>
					<polygon class="st6" points="54.7,0 60.2,2.9 55.3,13 49.7,10.1 					"/>
				</g>
			</g>
		</g>
		<g class="st0">
			<rect y="-50.1" class="st16" width="100" height="100"/>
			<polygon class="st17" points="67.9,24.7 43.5,26.2 33.2,36.1 38.9,48.2 66.7,43.4 74.7,33.2 			"/>
			<g>
				<g>
					<polygon class="st18" points="47.5,35.1 56.8,30.2 56.8,32.6 47.5,37.5 					"/>
					<polygon class="st19" points="56.8,30.2 47.5,35.1 41.3,31.9 50.7,26.9 56.8,30.2 					"/>
					<polygon class="st20" points="41.3,31.9 47.5,35.1 47.5,37.5 41.3,34.3 					"/>
				</g>
				<g>
					<polygon class="st18" points="50.3,32.2 50.3,0.3 52.9,-1 52.9,30.8 					"/>
					<polygon class="st21" points="54,0 50.4,1.9 46.8,0 50.4,-1.9 					"/>
					<polygon class="st20" points="50.4,0.3 50.4,32.2 47.7,30.8 47.7,-1.1 					"/>
				</g>
				<g>
					<polygon class="st18" points="56.7,39.4 66,34.4 66,36.8 56.7,41.8 					"/>
					<polygon class="st19" points="66,34.4 56.7,39.4 50.5,36.1 59.9,31.2 66,34.4 					"/>
					<polygon class="st20" points="50.5,36.1 56.7,39.4 56.7,41.8 50.5,38.5 					"/>
				</g>
				<g>
					<polygon class="st18" points="59.5,36.5 59.5,4.6 62.1,3.3 62.1,35.1 					"/>
					<polygon class="st21" points="63.2,4.3 59.6,6.2 56,4.3 59.6,2.4 					"/>
					<polygon class="st20" points="59.6,4.6 59.6,36.5 56.9,35.1 56.9,3.2 					"/>
				</g>
				<g>
					<polygon class="st22" points="55.5,6.7 55.5,-6.7 69.9,-14.3 69.9,1 57.3,7.7 					"/>
					<polygon class="st24" points="55.5,-6.7 55.5,6.7 42.7,0 42.7,-13.5 					"/>
					<polygon class="st25" points="69.9,1 69.9,-14.3 74.7,-23.6 					"/>
				</g>
				<g>
					<polygon class="st24" points="59.5,-4.2 59.5,3.4 56.3,1.7 56.3,-5.9 					"/>
					<polygon class="st30" points="66.7,-0.4 59.5,3.4 59.5,-4.2 66.7,-8 					"/>
				</g>
			</g>
		</g>
		<g class="st0">
			<rect y="-50" class="st31" width="100" height="100"/>
			<polygon class="st32" points="20.8,35.9 63.6,13.3 85,24.6 42.2,47.3 			"/>
			<g>
				<g>
					<polygon class="st4" points="74.4,28.2 74.4,26.6 74.4,24.4 70,22.1 74.4,19.8 78.7,22.1 78.7,24.3 78.7,25.9 					"/>
					<polygon class="st14" points="70,22.1 74.4,24.4 74.4,26.6 74.4,28.2 70,25.9 70,24.3 					"/>
				</g>
				<g>
					<polygon class="st37" points="69.9,-14.4 74.3,-16.7 78.6,-14.4 78.6,12.5 74.3,14.8 74.3,-12.1 					"/>
					<polygon class="st35" points="74.3,14.8 69.9,12.5 69.9,-14.4 74.3,-12.1 					"/>
					<polygon class="st37" points="74.3,24.5 74.3,14.8 78.6,12.5 78.6,22.1 					"/>
					<polygon class="st35" points="74.3,14.8 74.3,24.5 69.9,22.1 69.9,12.5 					"/>
				</g>
				<g>
					<polygon class="st4" points="62.8,21.7 62.8,20.1 62.8,17.9 58.5,15.6 62.8,13.3 67.2,15.6 67.2,17.7 67.2,19.4 					"/>
					<polygon class="st14" points="58.5,15.6 62.8,17.9 62.8,20.1 62.8,21.7 58.5,19.4 58.5,17.7 					"/>
				</g>
				<g>
					<polygon class="st38" points="67.1,5.9 62.8,8.3 62.8,-18.6 58.4,-20.9 62.8,-23.2 67.1,-20.9 					"/>
					<polygon class="st39" points="58.4,-20.9 62.8,-18.6 62.8,8.3 58.4,5.9 					"/>
					<polygon class="st40" points="62.8,17.9 58.4,15.6 58.4,5.9 62.8,8.3 					"/>
					<polygon class="st37" points="67.1,5.9 67.1,15.6 62.8,17.9 62.8,8.3 					"/>
				</g>
				<g>
					<polygon class="st4" points="42.5,45.4 42.5,43.7 42.5,41.5 38.1,39.2 42.5,36.9 46.9,39.2 46.9,41.4 46.9,43 					"/>
					<polygon class="st14" points="38.1,39.2 42.5,41.5 42.5,43.7 42.5,45.4 38.1,43 38.1,41.4 					"/>
				</g>
				<g>
					<polygon class="st37" points="46.8,29.5 42.4,31.9 42.4,-18.7 38.1,-21 42.4,-23.3 46.8,-21 					"/>
					<polygon class="st35" points="38.1,29.5 38.1,-21 42.4,-18.7 42.4,31.9 					"/>
					<polygon class="st37" points="46.8,29.5 46.8,39.2 42.4,41.5 42.4,31.9 					"/>
					<polygon class="st35" points="38.1,29.5 42.4,31.9 42.4,41.5 38.1,39.2 					"/>
				</g>
				<g>
					<polygon class="st4" points="31,38.8 31,37.2 31,35 26.6,32.7 31,30.4 35.4,32.7 35.4,34.9 35.4,36.5 					"/>
					<polygon class="st14" points="26.6,32.7 31,35 31,37.2 31,38.8 26.6,36.5 26.6,34.9 					"/>
				</g>
				<g>
					<polygon class="st37" points="26.6,-27.5 30.9,-29.8 35.3,-27.5 35.3,23 30.9,25.3 30.9,-25.2 					"/>
					<polygon class="st35" points="30.9,25.3 26.6,23 26.6,-27.5 30.9,-25.2 					"/>
					<polygon class="st37" points="35.3,23 35.3,32.7 30.9,35 30.9,25.3 					"/>
					<polygon class="st35" points="26.6,23 30.9,25.3 30.9,35 26.6,32.7 					"/>
				</g>
				<g>
					<polygon class="st36" points="44.7,2.5 25.4,-7.7 60.9,-26.5 80.2,-16.3 					"/>
					<polygon class="st37" points="44.7,25.6 44.7,2.5 80.2,-16.3 80.2,6.9 					"/>
					<polygon class="st35" points="44.7,25.6 25.4,15.5 25.4,-7.7 44.7,2.5 					"/>
				</g>
				<g>
					<polygon class="st33" points="30.2,-19.1 30.2,-19.1 43.6,-26.2 53.5,-20.9 53.5,-18.8 53.5,-17.3 53.5,-15.6 53.5,-14.1 
						53.5,-12.3 53.5,-10.8 53.5,-7 40.1,0.1 40.1,-13.8 					"/>
					<polygon class="st41" points="40.1,0.1 30.2,-5.2 30.2,-19.1 40.1,-13.8 					"/>
				</g>
				<polygon class="st41" points="44.7,2.5 44.7,12.8 44.7,23.2 25.4,13 25.4,-7.7 				"/>
				<polygon class="st33" points="80.2,-16.3 80.2,-6 80.2,4.3 44.6,23.1 44.6,2.5 62.5,-6.9 				"/>
			</g>
		</g>
	</g>
</g>
<g id="_x31__x5F_2">
</g>
<g id="_x33__x5F_3">
</g>
<g id="_x32__x5F_3">
</g>
<g id="_x31__x5F_3">
</g>
</svg>
