<?xml version="1.0" encoding="utf-8"?>
<!-- Generator: Adobe Illustrator 22.0.1, SVG Export Plug-In . SVG Version: 6.00 Build 0)  -->
<svg version="1.1" xmlns="http://www.w3.org/2000/svg" xmlns:xlink="http://www.w3.org/1999/xlink" x="0px" y="0px" width="100px"
	 height="43.4px" viewBox="0 0 100 43.4" style="enable-background:new 0 0 100 43.4;" xml:space="preserve">
<style type="text/css">
	.st0{clip-path:url(#SVGID_2_);}
	.st1{fill-rule:evenodd;clip-rule:evenodd;fill:#87AB32;}
	.st2{fill-rule:evenodd;clip-rule:evenodd;fill:#4D7524;}
	.st3{fill-rule:evenodd;clip-rule:evenodd;fill:#563A29;}
	.st4{fill-rule:evenodd;clip-rule:evenodd;fill:#452F21;}
	.st5{fill-rule:evenodd;clip-rule:evenodd;fill:#78533A;}
	.st6{fill-rule:evenodd;clip-rule:evenodd;fill:#6B4B36;}
	.st7{fill-rule:evenodd;clip-rule:evenodd;fill:#2E1D16;}
	.st8{fill-rule:evenodd;clip-rule:evenodd;fill:#8A6853;}
	.st9{fill-rule:evenodd;clip-rule:evenodd;fill:#4A2F24;}
	.st10{fill-rule:evenodd;clip-rule:evenodd;fill:#CFA985;}
	.st11{fill-rule:evenodd;clip-rule:evenodd;fill:#A6876A;}
	.st12{fill-rule:evenodd;clip-rule:evenodd;fill:#352B20;}
	.st13{fill-rule:evenodd;clip-rule:evenodd;fill:#946749;}
	.st14{fill-rule:evenodd;clip-rule:evenodd;}
	.st15{fill-rule:evenodd;clip-rule:evenodd;fill:#654D3D;}
	.st16{fill-rule:evenodd;clip-rule:evenodd;fill:#BDAB64;}
	.st17{fill-rule:evenodd;clip-rule:evenodd;fill:#9E8D54;}
	.st18{fill-rule:evenodd;clip-rule:evenodd;fill:#A02B1F;}
	.st19{fill-rule:evenodd;clip-rule:evenodd;fill:#D8371D;}
	.st20{fill-rule:evenodd;clip-rule:evenodd;fill:#BC3019;}
	.st21{fill-rule:evenodd;clip-rule:evenodd;fill:#F9EA7E;}
	.st22{fill-rule:evenodd;clip-rule:evenodd;fill:#BEB5AF;}
	.st23{fill-rule:evenodd;clip-rule:evenodd;fill:#ECE9E8;}
	.st24{fill-rule:evenodd;clip-rule:evenodd;fill:#DDD8D5;}
	.st25{fill-rule:evenodd;clip-rule:evenodd;fill:#A99C9A;}
	.st26{fill-rule:evenodd;clip-rule:evenodd;fill:#F4F2F0;}
	.st27{fill-rule:evenodd;clip-rule:evenodd;fill:#C1B5A4;}
	.st28{fill-rule:evenodd;clip-rule:evenodd;fill:#E3DCD7;}
	.st29{fill-rule:evenodd;clip-rule:evenodd;fill:#333333;}
	.st30{fill-rule:evenodd;clip-rule:evenodd;fill:#C6BCB9;}
	.st31{fill-rule:evenodd;clip-rule:evenodd;fill:#93CDDB;}
	.st32{fill-rule:evenodd;clip-rule:evenodd;fill:#7092B1;}
	.st33{fill-rule:evenodd;clip-rule:evenodd;fill:#4F4743;}
	.st34{fill-rule:evenodd;clip-rule:evenodd;fill:#A09388;}
	.st35{fill-rule:evenodd;clip-rule:evenodd;fill:#ABA398;}
	.st36{fill-rule:evenodd;clip-rule:evenodd;fill:#6D635D;}
	.st37{fill-rule:evenodd;clip-rule:evenodd;fill:#D9D6D0;}
	.st38{fill-rule:evenodd;clip-rule:evenodd;fill:#E9D21B;}
	.st39{fill-rule:evenodd;clip-rule:evenodd;fill:#E6AB28;}
	.st40{fill-rule:evenodd;clip-rule:evenodd;fill:#AC9C8E;}
	.st41{fill-rule:evenodd;clip-rule:evenodd;fill:#383330;}
	.st42{fill-rule:evenodd;clip-rule:evenodd;fill:#443933;}
	.st43{fill-rule:evenodd;clip-rule:evenodd;fill:#443733;}
	.st44{fill-rule:evenodd;clip-rule:evenodd;fill:#FFFFFF;}
	.st45{fill-rule:evenodd;clip-rule:evenodd;fill:#756A64;}
	.st46{fill-rule:evenodd;clip-rule:evenodd;fill:#5E5350;}
	.st47{fill-rule:evenodd;clip-rule:evenodd;fill:#3A3531;}
	.st48{fill-rule:evenodd;clip-rule:evenodd;fill:#77625A;}
	.st49{fill-rule:evenodd;clip-rule:evenodd;fill:#452C21;}
	.st50{fill-rule:evenodd;clip-rule:evenodd;fill:#41332E;}
	.st51{fill-rule:evenodd;clip-rule:evenodd;fill:#725752;}
	.st52{clip-path:url(#SVGID_4_);}
	.st53{clip-path:url(#SVGID_6_);}
	.st54{clip-path:url(#SVGID_8_);}
	.st55{clip-path:url(#SVGID_10_);}
</style>
<g id="_x32__x5F_2">
</g>
<g id="_x31__x5F_2">
</g>
<g id="_x33__x5F_3">
</g>
<g id="_x32__x5F_3">
	<g>
		<g>
			<defs>
				<path id="SVGID_7_" d="M35,0C35,0,35,0,35,0c0,5.5-4.5,10-10,10S15,5.5,15,0c0,0,0,0,0,0H0v33.3h15c0,5.5,4.5,10,10,10
					s10-4.5,10-10h65V0H35z"/>
			</defs>
			<clipPath id="SVGID_2_">
				<use xlink:href="#SVGID_7_"  style="overflow:visible;"/>
			</clipPath>
			<g class="st0">
				<rect y="-33.3" class="st1" width="100" height="100"/>
				<g>
					<polygon class="st2" points="28.4,39.7 52.6,52.2 73.7,41.2 49.5,28.7 					"/>
					<g>
						<g>
							<polygon class="st3" points="41.8,11.1 36.3,8.3 36.3,2.5 41.8,2.6 							"/>
							<polygon class="st4" points="36.9,21.2 41.8,11.1 41.8,2.6 47.3,-0.3 47.2,10.5 42.5,19.9 							"/>
							<polygon class="st5" points="41.8,2.6 36.3,2.5 41.8,-0.4 47.3,-0.3 							"/>
							<polygon class="st6" points="36.3,8.3 41.8,11.1 36.9,21.2 31.4,18.4 							"/>
						</g>
						<g>
							<polygon class="st4" points="42.8,39.6 43.1,32.1 47.7,31 47.7,37.9 41.7,41 							"/>
							<polygon class="st3" points="43.1,32.1 42.8,39.6 37,36.7 37,28.9 40.8,28.9 							"/>
							<polygon class="st5" points="37,36.7 42.8,39.6 41.7,41 36,38.1 							"/>
						</g>
						<g>
							<path class="st3" d="M54.7,38.2l-4.4-2.3L49,35.2l-3-1.5l-1.4-0.8l-1.4-0.8l-3-1.6L37,28.9l2.8-29.2L42-1.1L44.2,0l2.2,1.2
								l2.2,1.1l2.2,1.2l2.2,3.2l1.4,27.1L54.7,38.2z M46.3,4l-1.4-0.8l-3-1.6l-1.5,24.5l3,2.6l1.4,0.8h0l1.4,0.8l3,0.5l1.5-24.5
								l-3-1.5L46.3,4z"/>
							<polygon class="st5" points="63.9,-3.3 50.9,3.5 48.7,2.3 46.5,1.2 44.2,0 42,-1.1 39.8,-0.3 52.8,-7 55,-7.9 57.2,-6.7 
								61.6,-4.4 							"/>
							<polygon class="st7" points="54.7,38.2 54.5,33.7 53.1,6.7 66.1,-0.1 67.7,31.4 							"/>
							<polygon class="st8" points="46.3,4 47.7,4.8 50.7,6.3 49.2,30.8 46.2,30.3 44.8,29.6 44.8,29.6 43.3,28.8 40.3,26.2 
								41.8,1.7 44.9,3.3 							"/>
							<polygon class="st9" points="53.1,6.7 50.9,3.5 63.9,-3.3 66.1,-0.1 							"/>
						</g>
						<g>
							<g>
								<polygon class="st4" points="51.1,-9.9 61.4,-15.2 63.6,-3.6 51.1,2.9 								"/>
								<polygon class="st3" points="51.1,-9.9 51.1,2.9 40.3,-2.8 40.3,-15.6 								"/>
							</g>
							<g>
								<polygon class="st11" points="43.1,2.9 43.1,2 43.1,1.4 43.1,-2.3 48.5,-6 48.5,1.5 								"/>
								<polygon class="st12" points="37.9,-5 43.1,-2.3 43.1,1.4 43.1,2 43.1,2.9 42,2.3 37.9,0.2 								"/>
							</g>
							<polygon class="st15" points="48,0 48,0.3 43.1,2 43.1,1.4 							"/>
						</g>
						<g>
							<polygon class="st3" points="54.7,38.2 55.1,45.9 46.8,41.7 46.8,41.6 46,33.6 51.3,33.6 							"/>
							<path class="st7" d="M55.1,45.9l-0.4-7.7c5.1-5.9,9.4-8.1,13-6.7l-1.8,5.5l0,4.6L54,47.7l0.5-0.9L55.1,45.9z"/>
							<polygon class="st5" points="55.1,45.9 54.5,46.8 54,47.7 45.7,43.4 46.3,42.5 46.8,41.6 46.8,41.7 							"/>
						</g>
						<g>
							<polygon class="st3" points="60.2,19.7 54.7,16.8 54.7,8.7 60.2,14.3 							"/>
							<polygon class="st4" points="55.3,29.8 60.2,19.7 60.2,14.3 68.2,10.2 65.6,19 60.9,28.4 							"/>
							<polygon class="st5" points="60.2,14.3 54.7,8.7 62.6,4.5 68.2,10.2 							"/>
							<polygon class="st6" points="54.7,16.8 60.2,19.7 55.3,29.8 49.7,26.9 							"/>
						</g>
					</g>
				</g>
			</g>
			<g class="st0">
				<rect y="-33.3" class="st16" width="100" height="100"/>
				<polygon class="st17" points="67.9,41.5 43.5,43 33.2,52.9 38.9,65 66.7,60.2 74.7,50 				"/>
				<g>
					<g>
						<polygon class="st18" points="50.3,49 50.3,17.1 52.9,15.8 52.9,47.6 						"/>
						<polygon class="st21" points="54,16.8 50.4,18.7 46.8,16.8 50.4,14.9 						"/>
						<polygon class="st20" points="50.4,17.1 50.4,49 47.7,47.6 47.7,15.7 						"/>
					</g>
					<g>
						<polygon class="st18" points="59.5,53.3 59.5,21.4 62.1,20 62.1,51.9 						"/>
						<polygon class="st21" points="63.2,21.1 59.6,23 56,21.1 59.6,19.2 						"/>
						<polygon class="st20" points="59.6,21.4 59.6,53.3 56.9,51.9 56.9,20 						"/>
					</g>
					<g>
						<polygon class="st22" points="55.5,23.5 55.5,10.1 69.9,2.5 69.9,17.8 57.3,24.5 						"/>
						<polygon class="st23" points="69.9,2.5 55.5,10.1 42.7,3.3 57.1,-4.3 74.7,-6.8 						"/>
						<polygon class="st24" points="55.5,10.1 55.5,23.5 42.7,16.8 42.7,3.3 						"/>
						<polygon class="st25" points="69.9,17.8 69.9,2.5 74.7,-6.8 						"/>
					</g>
					<g>
						<polygon class="st22" points="52.1,8.6 52.1,-9.1 47.3,-11.6 52.1,-14.2 57,-11.6 57,6 						"/>
						<polygon class="st24" points="52.1,8.6 47.3,6 47.3,-11.6 52.1,-9.1 						"/>
					</g>
					<g>
						<polygon class="st18" points="24.8,3.6 49.4,-13.6 49.4,-9.5 						"/>
						<polygon class="st19" points="49.4,-13.6 24.8,3.6 45.6,-15.6 						"/>
					</g>
					<g>
						<polygon class="st23" points="66.7,8.8 59.5,12.6 56.3,10.9 69,4.1 						"/>
						<polygon class="st24" points="59.5,12.6 59.5,20.2 56.3,18.5 56.3,10.9 						"/>
						<polygon class="st29" points="66.7,16.4 66.7,8.8 69,4.1 						"/>
						<polygon class="st30" points="66.7,16.4 59.5,20.2 59.5,12.6 66.7,8.8 						"/>
					</g>
				</g>
			</g>
			<g class="st0">
				<rect y="-33.3" class="st31" width="100" height="100"/>
				<polygon class="st32" points="20.8,52.6 63.6,30 85,41.3 42.2,63.9 				"/>
				<g>
					<g>
						<polygon class="st4" points="74.4,44.9 74.4,43.3 74.4,41.1 70,38.8 74.4,36.5 78.7,38.8 78.7,40.9 78.7,42.6 						"/>
						<polygon class="st14" points="70,38.8 74.4,41.1 74.4,43.3 74.4,44.9 70,42.6 70,40.9 						"/>
					</g>
					<g>
						<polygon class="st37" points="69.9,2.3 74.3,0 78.6,2.3 78.6,29.1 74.3,31.5 74.3,4.6 						"/>
						<polygon class="st35" points="74.3,31.5 69.9,29.1 69.9,2.3 74.3,4.6 						"/>
						<polygon class="st37" points="74.3,41.1 74.3,31.5 78.6,29.1 78.6,38.8 						"/>
						<polygon class="st35" points="74.3,31.5 74.3,41.1 69.9,38.8 69.9,29.1 						"/>
					</g>
					<g>
						<polygon class="st4" points="62.8,38.4 62.8,36.7 62.8,34.5 58.5,32.3 62.8,29.9 67.2,32.3 67.2,34.4 67.2,36.1 						"/>
						<polygon class="st14" points="58.5,32.3 62.8,34.5 62.8,36.7 62.8,38.4 58.5,36.1 58.5,34.4 						"/>
					</g>
					<g>
						<polygon class="st38" points="67.1,22.6 62.8,24.9 62.8,-2 58.4,-4.3 62.8,-6.6 67.1,-4.3 						"/>
						<polygon class="st39" points="58.4,-4.3 62.8,-2 62.8,24.9 58.4,22.6 						"/>
						<polygon class="st40" points="62.8,34.6 58.4,32.3 58.4,22.6 62.8,24.9 						"/>
						<polygon class="st37" points="67.1,22.6 67.1,32.3 62.8,34.6 62.8,24.9 						"/>
					</g>
					<g>
						<polygon class="st37" points="46.8,46.2 42.4,48.5 42.4,-2 38.1,-4.3 42.4,-6.6 46.8,-4.3 						"/>
						<polygon class="st35" points="38.1,46.2 38.1,-4.3 42.4,-2 42.4,48.5 						"/>
					</g>
					<g>
						<polygon class="st37" points="26.6,-10.8 30.9,-13.1 35.3,-10.8 35.3,39.7 30.9,42 30.9,-8.5 						"/>
						<polygon class="st35" points="30.9,42 26.6,39.7 26.6,-10.8 30.9,-8.5 						"/>
						<polygon class="st37" points="35.3,39.7 35.3,49.3 30.9,51.7 30.9,42 						"/>
						<polygon class="st35" points="26.6,39.7 30.9,42 30.9,51.7 26.6,49.3 						"/>
					</g>
					<g>
						<polygon class="st38" points="72.7,-3.6 72.7,2.5 68,0 68,-6.1 						"/>
						<polygon class="st33" points="72.7,2.5 72.7,-3.6 78.2,-6.5 78.2,-0.4 						"/>
					</g>
					<g>
						<polygon class="st36" points="44.7,19.2 25.4,9 60.9,-9.8 80.2,0.4 						"/>
						<polygon class="st37" points="44.7,42.3 44.7,19.2 80.2,0.4 80.2,23.6 						"/>
						<polygon class="st35" points="44.7,42.3 25.4,32.1 25.4,9 44.7,19.2 						"/>
					</g>
					<g>
						<polygon class="st43" points="46.5,-12.2 54.2,-16.2 54.2,5.1 50,8 						"/>
					</g>
					<g>
						<polygon class="st33" points="30.2,-2.4 30.2,-2.4 43.6,-9.5 53.5,-4.2 53.5,-2.2 53.5,-0.7 53.5,1.1 53.5,2.6 53.5,4.4 
							53.5,5.9 53.5,9.7 40.1,16.7 40.1,2.8 						"/>
						<polygon class="st41" points="40.1,16.7 30.2,11.5 30.2,-2.4 40.1,2.8 						"/>
					</g>
					<polygon class="st41" points="44.7,19.2 44.7,29.5 44.7,39.8 25.4,29.6 25.4,9 					"/>
					<g>
						<path class="st33" d="M40.1,2.8v-13.9l10.6-5.6l2.9,12.4C51.6-2,47.1,0.4,40.1,2.8z"/>
						<path class="st36" d="M50.6-16.6l-10.6,5.6V2.8l-9.9-5.2v-11.3v-2.6v0l10.5-5.6L50.6-16.6z M33.4-10.1l4.2-2.3L33.4-10.1z
							 M30.2-13.7l2.4-1.3L30.2-13.7z"/>
					</g>
					<g>
						<polygon class="st33" points="35.8,5.1 35.8,-8.8 40.1,-11.1 40.1,2.8 						"/>
						<polygon class="st35" points="35.8,-8.8 35.8,5.1 25.9,-0.2 25.9,-3.5 25.9,-14 28.4,-12.7 28.9,-12.5 30.9,-11.4 32.1,-10.8 
							32.6,-10.5 33.4,-10.1 35.8,-8.8 						"/>
					</g>
					<g>
						<polygon class="st37" points="25.3,9.4 25.3,-1.1 25.4,-1.1 34.6,-6.1 34.6,4.4 						"/>
						<polygon class="st44" points="34.6,-6.1 25.4,-1.1 25.3,-1.2 25.3,-1.1 25.3,9.4 17.8,5.4 17.8,-5.1 27,-10.1 28.9,-9.1 
							30.8,-8.1 32.7,-7.1 						"/>
					</g>
					<g>
						<polygon class="st45" points="23.9,7.1 15.8,2.8 17.5,-5.6 25.6,-1.3 						"/>
						<polygon class="st46" points="23.9,7.1 25.6,-1.3 29.9,-3.6 29.9,7.7 25.2,10.3 						"/>
						<polygon class="st47" points="15.8,2.8 23.9,7.1 25.2,10.3 25.1,10.3 17.1,6 						"/>
					</g>
					<polygon class="st50" points="20.2,0.5 19.8,2.2 18.2,1.3 18.6,-0.4 					"/>
					<polygon class="st50" points="22.6,1.8 22.3,3.5 20.7,2.6 21,1 					"/>
					<polygon class="st33" points="80.2,0.3 80.2,10.7 80.2,21 44.6,39.8 44.6,19.1 62.5,9.8 					"/>
					<line class="st51" x1="32.9" y1="5.3" x2="31.8" y2="5.9"/>
				</g>
			</g>
		</g>
	</g>
</g>
<g id="_x31__x5F_3">
</g>
</svg>
