<?xml version="1.0" encoding="utf-8"?>
<!-- Generator: Adobe Illustrator 22.0.1, SVG Export Plug-In . SVG Version: 6.00 Build 0)  -->
<svg version="1.1" xmlns="http://www.w3.org/2000/svg" xmlns:xlink="http://www.w3.org/1999/xlink" x="0px" y="0px" width="100px"
	 height="33.4px" viewBox="0 0 100 33.4" style="enable-background:new 0 0 100 33.4;" xml:space="preserve">
<style type="text/css">
	.st0{clip-path:url(#SVGID_2_);}
	.st1{fill-rule:evenodd;clip-rule:evenodd;fill:#B4DDE7;}
	.st2{fill-rule:evenodd;clip-rule:evenodd;fill:#9BD2D1;}
	.st3{fill-rule:evenodd;clip-rule:evenodd;fill:#C89D8C;}
	.st4{fill-rule:evenodd;clip-rule:evenodd;fill:#AF7258;}
	.st5{fill-rule:evenodd;clip-rule:evenodd;fill:#DEC5BA;}
	.st6{fill-rule:evenodd;clip-rule:evenodd;fill:#664733;}
	.st7{fill-rule:evenodd;clip-rule:evenodd;fill:#452F21;}
	.st8{fill-rule:evenodd;clip-rule:evenodd;fill:#78533A;}
	.st9{fill-rule:evenodd;clip-rule:evenodd;fill:#563A29;}
	.st10{fill-rule:evenodd;clip-rule:evenodd;fill:#996A4D;}
	.st11{fill-rule:evenodd;clip-rule:evenodd;fill:#885F44;}
	.st12{fill-rule:evenodd;clip-rule:evenodd;fill:#39241C;}
	.st13{fill-rule:evenodd;clip-rule:evenodd;fill:#39211C;}
	.st14{fill-rule:evenodd;clip-rule:evenodd;fill:#684B31;}
	.st15{fill-rule:evenodd;clip-rule:evenodd;fill:#CDA798;}
	.st16{fill-rule:evenodd;clip-rule:evenodd;fill:#AC6D53;}
	.st17{fill-rule:evenodd;clip-rule:evenodd;fill:#6D4534;}
	.st18{fill-rule:evenodd;clip-rule:evenodd;fill:#F4F2F0;}
	.st19{fill-rule:evenodd;clip-rule:evenodd;fill:#C1B5A4;}
	.st20{fill-rule:evenodd;clip-rule:evenodd;fill:#E3DCD7;}
	.st21{fill-rule:evenodd;clip-rule:evenodd;fill:#333333;}
	.st22{fill-rule:evenodd;clip-rule:evenodd;fill:#8BC53F;}
	.st23{fill:#80AD3A;}
	.st24{fill-rule:evenodd;clip-rule:evenodd;fill:#E0A122;}
	.st25{fill-rule:evenodd;clip-rule:evenodd;fill:#FBBB21;}
	.st26{fill-rule:evenodd;clip-rule:evenodd;fill:#EDAA24;}
	.st27{fill-rule:evenodd;clip-rule:evenodd;fill:#F9EA7E;}
	.st28{fill-rule:evenodd;clip-rule:evenodd;fill:#BEB5AF;}
	.st29{fill-rule:evenodd;clip-rule:evenodd;fill:#D8D0CA;}
	.st30{fill-rule:evenodd;clip-rule:evenodd;fill:#988575;}
	.st31{fill-rule:evenodd;clip-rule:evenodd;fill:#808080;}
	.st32{fill-rule:evenodd;clip-rule:evenodd;fill:#307A35;}
	.st33{fill-rule:evenodd;clip-rule:evenodd;fill:#348439;}
	.st34{fill-rule:evenodd;clip-rule:evenodd;fill:#F1F1F1;}
	.st35{fill-rule:evenodd;clip-rule:evenodd;fill:#34893C;}
	.st36{fill-rule:evenodd;clip-rule:evenodd;fill:#3B9F49;}
	.st37{fill-rule:evenodd;clip-rule:evenodd;fill:#379140;}
	.st38{fill-rule:evenodd;clip-rule:evenodd;fill:#E48323;}
	.st39{fill-rule:evenodd;clip-rule:evenodd;fill:#E6AB28;}
	.st40{fill-rule:evenodd;clip-rule:evenodd;fill:#ECE9E8;}
	.st41{fill-rule:evenodd;clip-rule:evenodd;fill:#DDD8D5;}
	.st42{fill-rule:evenodd;clip-rule:evenodd;fill:#AEA29D;}
	.st43{fill-rule:evenodd;clip-rule:evenodd;fill:#C6BCB9;}
	.st44{fill-rule:evenodd;clip-rule:evenodd;fill:#E5E5E5;}
	.st45{clip-path:url(#SVGID_4_);}
	.st46{clip-path:url(#SVGID_6_);}
	.st47{clip-path:url(#SVGID_8_);}
	.st48{clip-path:url(#SVGID_10_);}
</style>
<g id="_x32__x5F_2">
</g>
<g id="_x31__x5F_2">
</g>
<g id="_x33__x5F_3">
	<g>
		<g>
			<defs>
				<path id="SVGID_5_" d="M35,0c0,5.5-4.5,10-10,10S15,5.5,15,0H0v33.3h100V0H35z"/>
			</defs>
			<clipPath id="SVGID_2_">
				<use xlink:href="#SVGID_5_"  style="overflow:visible;"/>
			</clipPath>
			<g class="st0">
				<rect x="0" y="-66.7" class="st1" width="100" height="100"/>
				<g>
					<polygon class="st2" points="51.4,-16.4 91.1,4.5 45.7,28.5 6,7.6 					"/>
					<g>
						<g>
							<polygon class="st6" points="14.6,3.4 22.2,7.3 22.2,11.5 14.6,7.5 							"/>
							<polygon class="st7" points="22.2,7.3 31.6,2.4 31.6,6.5 22.2,11.5 							"/>
							<polygon class="st8" points="31.6,2.4 22.2,7.3 14.6,3.4 24.1,-1.6 31.6,2.3 							"/>
						</g>
						<g>
							<polygon class="st7" points="29.3,-11.8 29.3,-28.7 35,-31.7 35,-14.8 31.1,2.1 25.5,5.1 							"/>
							<polygon class="st6" points="23.7,-14.8 29.3,-11.8 25.5,5.1 19.8,2.1 							"/>
						</g>
						<g>
							<polygon class="st6" points="56.9,1.2 64.4,5.1 64.4,9.3 56.9,5.4 							"/>
							<polygon class="st7" points="64.4,5.1 73.9,0.2 73.9,4.4 64.4,9.3 							"/>
							<polygon class="st8" points="73.9,0.2 64.4,5.1 56.9,1.2 66.3,-3.8 73.9,0.2 							"/>
						</g>
						<polygon class="st7" points="71.4,-3.1 71.4,2.3 59.4,3.3 54.8,0.9 54.8,-4.6 66.9,-5.5 						"/>
						<g>
							<polygon class="st7" points="71.4,-11.3 71.4,-5.8 59.4,0.5 54.8,-1.9 54.8,-7.3 59.4,-4.9 							"/>
						</g>
						<g>
							<polygon class="st6" points="36,15.5 43.6,19.5 43.6,23.6 36,19.7 							"/>
							<polygon class="st7" points="43.6,19.5 53,14.5 53,18.7 43.6,23.6 							"/>
							<polygon class="st8" points="53,14.5 43.6,19.5 36,15.5 45.4,10.5 53,14.5 							"/>
						</g>
						<g>
							<polygon class="st9" points="44.9,-2.7 44.9,-19.6 50.5,-16.6 50.5,0.3 							"/>
							<polygon class="st7" points="56.2,-19.6 56.2,-2.7 52.3,14.2 46.7,17.2 50.5,0.3 50.5,-16.6 							"/>
							<polygon class="st6" points="46.7,17.2 41,14.2 44.9,-2.7 50.5,0.3 							"/>
						</g>
					</g>
				</g>
			</g>
			<g class="st0">
				<rect x="0" y="-66.6" class="st22" width="100" height="100"/>
				<g id="duck_2_">
					<polygon class="st23" points="100,-2.2 41.7,31.4 9.2,14.1 65.9,-17.3 					"/>
					<g>
						<polygon class="st24" points="49.9,20.3 64.3,12.8 64.3,16.4 49.9,24 						"/>
						<polygon class="st25" points="64.3,12.8 49.9,20.3 40.3,15.4 54.9,7.8 64.3,12.8 						"/>
						<polygon class="st26" points="40.3,15.4 49.9,20.3 49.9,24 40.3,19 						"/>
					</g>
					<g>
						<polygon class="st24" points="33.6,12 48.1,4.5 48.1,8.1 33.6,15.7 						"/>
						<polygon class="st25" points="48.1,4.5 33.6,12 24.1,7 38.6,-0.5 48.1,4.4 						"/>
						<polygon class="st26" points="24.1,7 33.6,12 33.6,15.7 24.1,10.7 						"/>
					</g>
					<g>
						<polygon class="st24" points="55.2,14.4 55.2,1.6 58.8,-0.3 58.8,12.5 						"/>
						<polygon class="st27" points="58.8,-0.3 55.2,1.6 51.6,-0.3 55.2,-2.2 						"/>
						<polygon class="st26" points="55.2,1.6 55.2,14.4 51.6,12.5 51.6,-0.3 						"/>
					</g>
					<g>
						<polygon class="st28" points="44.4,7 44.4,-17.8 71.5,-31.9 71.5,-3.5 47.8,8.8 						"/>
						<polygon class="st30" points="44.4,-17.8 44.4,7 20.3,-5.5 20.3,-30.4 						"/>
					</g>
					<g>
						<polygon class="st41" points="51.8,-13.2 51.8,0.9 45.8,-2.2 45.8,-16.3 						"/>
						<polygon class="st43" points="65.3,-6.1 51.8,0.9 51.8,-13.2 65.3,-20.3 						"/>
					</g>
				</g>
			</g>
		</g>
	</g>
</g>
<g id="_x32__x5F_3">
</g>
<g id="_x31__x5F_3">
</g>
</svg>
