<?xml version="1.0" encoding="utf-8"?>
<!-- Generator: Adobe Illustrator 22.0.1, SVG Export Plug-In . SVG Version: 6.00 Build 0)  -->
<svg version="1.1" xmlns="http://www.w3.org/2000/svg" xmlns:xlink="http://www.w3.org/1999/xlink" x="0px" y="0px" width="100px"
	 height="60px" viewBox="0 0 100 60" style="enable-background:new 0 0 100 60;" xml:space="preserve">
<style type="text/css">
	.st0{clip-path:url(#SVGID_2_);}
	.st1{fill-rule:evenodd;clip-rule:evenodd;fill:#87AB32;}
	.st2{fill-rule:evenodd;clip-rule:evenodd;fill:#4D7524;}
	.st3{fill-rule:evenodd;clip-rule:evenodd;fill:#563A29;}
	.st4{fill-rule:evenodd;clip-rule:evenodd;fill:#452F21;}
	.st5{fill-rule:evenodd;clip-rule:evenodd;fill:#78533A;}
	.st6{fill-rule:evenodd;clip-rule:evenodd;fill:#6B4B36;}
	.st7{fill-rule:evenodd;clip-rule:evenodd;fill:#2E1D16;}
	.st8{fill-rule:evenodd;clip-rule:evenodd;fill:#8A6853;}
	.st9{fill-rule:evenodd;clip-rule:evenodd;fill:#4A2F24;}
	.st10{fill-rule:evenodd;clip-rule:evenodd;fill:#CFA985;}
	.st11{fill-rule:evenodd;clip-rule:evenodd;fill:#A6876A;}
	.st12{fill-rule:evenodd;clip-rule:evenodd;fill:#352B20;}
	.st13{fill-rule:evenodd;clip-rule:evenodd;fill:#946749;}
	.st14{fill-rule:evenodd;clip-rule:evenodd;}
	.st15{fill-rule:evenodd;clip-rule:evenodd;fill:#654D3D;}
	.st16{fill-rule:evenodd;clip-rule:evenodd;fill:#BDAB64;}
	.st17{fill-rule:evenodd;clip-rule:evenodd;fill:#9E8D54;}
	.st18{fill-rule:evenodd;clip-rule:evenodd;fill:#A02B1F;}
	.st19{fill-rule:evenodd;clip-rule:evenodd;fill:#D8371D;}
	.st20{fill-rule:evenodd;clip-rule:evenodd;fill:#BC3019;}
	.st21{fill-rule:evenodd;clip-rule:evenodd;fill:#F9EA7E;}
	.st22{fill-rule:evenodd;clip-rule:evenodd;fill:#BEB5AF;}
	.st23{fill-rule:evenodd;clip-rule:evenodd;fill:#ECE9E8;}
	.st24{fill-rule:evenodd;clip-rule:evenodd;fill:#DDD8D5;}
	.st25{fill-rule:evenodd;clip-rule:evenodd;fill:#A99C9A;}
	.st26{fill-rule:evenodd;clip-rule:evenodd;fill:#F4F2F0;}
	.st27{fill-rule:evenodd;clip-rule:evenodd;fill:#C1B5A4;}
	.st28{fill-rule:evenodd;clip-rule:evenodd;fill:#E3DCD7;}
	.st29{fill-rule:evenodd;clip-rule:evenodd;fill:#333333;}
	.st30{fill-rule:evenodd;clip-rule:evenodd;fill:#C6BCB9;}
	.st31{clip-path:url(#SVGID_4_);}
	.st32{clip-path:url(#SVGID_6_);}
	.st33{clip-path:url(#SVGID_8_);}
	.st34{clip-path:url(#SVGID_10_);}
</style>
<g id="Layer_2">
</g>
<g id="Layer_6">
	<g>
		<defs>
			<path id="SVGID_3_" d="M100,0H0v50h15c0,5.5,4.5,10,10,10c5.5,0,10-4.5,10-10h65V0z"/>
		</defs>
		<clipPath id="SVGID_2_">
			<use xlink:href="#SVGID_3_"  style="overflow:visible;"/>
		</clipPath>
		<g class="st0">
			<rect y="0" class="st1" width="100" height="100"/>
			<g>
				<g>
					<polygon class="st3" points="41.8,44.5 36.3,41.6 36.3,35.8 41.8,35.9 					"/>
					<polygon class="st4" points="36.9,54.6 41.8,44.5 41.8,35.9 47.3,33 47.2,43.8 42.5,53.2 					"/>
					<polygon class="st5" points="41.8,35.9 36.3,35.8 41.8,32.9 47.3,33 					"/>
					<polygon class="st6" points="36.3,41.6 41.8,44.5 36.9,54.6 31.4,51.7 					"/>
				</g>
				<g>
					<path class="st3" d="M54.7,71.5l-4.4-2.3L49,68.5L46,67l-1.4-0.8l-1.4-0.8l-3-1.6L37,62.3l2.8-29.2l2.2-0.9l2.2,1.2l2.2,1.2
						l2.2,1.1l2.2,1.2l2.2,3.2l1.4,27.1L54.7,71.5z M46.3,37.3l-1.4-0.8l-3-1.6l-1.5,24.5l3,2.6l1.4,0.8h0l1.4,0.8l3,0.5l1.5-24.5
						l-3-1.5L46.3,37.3z"/>
					<polygon class="st5" points="63.9,30.1 50.9,36.8 48.7,35.7 46.5,34.5 44.2,33.3 42,32.2 39.8,33.1 52.8,26.3 55,25.4 
						57.2,26.6 61.6,28.9 					"/>
					<polygon class="st7" points="54.7,71.5 54.5,67.1 53.1,40 66.1,33.3 67.7,64.8 					"/>
					<polygon class="st8" points="46.3,37.3 47.7,38.1 50.7,39.6 49.2,64.1 46.2,63.7 44.8,62.9 44.8,62.9 43.3,62.2 40.3,59.5 
						41.8,35 44.9,36.6 					"/>
					<polygon class="st9" points="53.1,40 50.9,36.8 63.9,30.1 66.1,33.3 					"/>
				</g>
				<g>
					<g>
						<polygon class="st4" points="51.1,23.4 61.4,18.1 63.6,29.8 51.1,36.2 						"/>
						<polygon class="st3" points="51.1,23.4 51.1,36.2 40.3,30.6 40.3,17.8 						"/>
						<polygon class="st5" points="61.4,18.1 51.1,23.4 40.3,17.8 50.5,12.4 						"/>
					</g>
					<g>
						<polygon class="st10" points="43.1,31.1 37.9,28.4 42.4,24.2 48.5,27.4 						"/>
						<polygon class="st11" points="43.1,36.2 43.1,35.3 43.1,34.7 43.1,31.1 48.5,27.4 48.5,34.8 						"/>
						<polygon class="st12" points="37.9,28.4 43.1,31.1 43.1,34.7 43.1,35.3 43.1,36.2 42,35.7 37.9,33.5 						"/>
					</g>
					<g>
						<polygon class="st4" points="52.3,18.8 53.5,18 53.5,21.8 52.3,22.6 						"/>
						<polygon class="st3" points="49.1,17.2 52.3,18.8 52.3,22.6 49.1,20.9 						"/>
						<polygon class="st13" points="53.5,18 52.3,18.8 49.1,17.2 50.3,16.3 						"/>
					</g>
					<g>
						<polygon class="st4" points="44.5,14.9 45.8,14.1 45.8,17.9 44.5,18.7 						"/>
						<polygon class="st3" points="41.3,13.2 44.5,14.9 44.5,18.7 41.3,17 						"/>
						<polygon class="st13" points="45.8,14.1 44.5,14.9 41.3,13.2 42.5,12.4 						"/>
					</g>
					<g>
						<polygon class="st14" points="42,22.7 42,21.5 43,22 43,23.2 						"/>
						<polygon class="st14" points="47.4,25.4 47.4,24.2 48.4,24.8 48.4,26 						"/>
					</g>
					<polygon class="st15" points="48,33.3 48,33.7 43.1,35.3 43.1,34.7 					"/>
				</g>
				<g>
					<polygon class="st3" points="60.2,53 54.7,50.1 54.7,42 60.2,47.6 					"/>
					<polygon class="st4" points="55.3,63.1 60.2,53 60.2,47.6 68.2,43.5 65.6,52.3 60.9,61.7 					"/>
					<polygon class="st5" points="60.2,47.6 54.7,42 62.6,37.9 68.2,43.5 					"/>
					<polygon class="st6" points="54.7,50.1 60.2,53 55.3,63.1 49.7,60.2 					"/>
				</g>
			</g>
		</g>
		<g class="st0">
			<rect class="st16" width="100" height="100"/>
			<g>
				<g>
					<polygon class="st18" points="50.3,82.3 50.3,50.5 52.9,49.1 52.9,81 					"/>
					<polygon class="st21" points="54,50.2 50.4,52.1 46.8,50.2 50.4,48.3 					"/>
					<polygon class="st20" points="50.4,50.4 50.4,82.3 47.7,80.9 47.7,49 					"/>
				</g>
				<g>
					<polygon class="st18" points="59.5,86.6 59.5,54.7 62.1,53.4 62.1,85.2 					"/>
					<polygon class="st21" points="63.2,54.4 59.6,56.3 56,54.4 59.6,52.5 					"/>
					<polygon class="st20" points="59.6,54.7 59.6,86.6 56.9,85.2 56.9,53.3 					"/>
				</g>
				<g>
					<polygon class="st22" points="55.5,56.8 55.5,43.4 69.9,35.8 69.9,51.1 57.3,57.8 					"/>
					<polygon class="st23" points="69.9,35.8 55.5,43.4 42.7,36.7 57.1,29 74.7,26.5 					"/>
					<polygon class="st24" points="55.5,43.4 55.5,56.8 42.7,50.1 42.7,36.7 					"/>
					<polygon class="st25" points="69.9,51.1 69.9,35.8 74.7,26.5 					"/>
				</g>
				<g>
					<polygon class="st22" points="52.1,41.9 52.1,24.3 47.3,21.7 52.1,19.1 57,21.7 57,39.3 					"/>
					<polygon class="st24" points="52.1,41.9 47.3,39.3 47.3,21.7 52.1,24.3 					"/>
				</g>
				<g>
					<polygon class="st22" points="60.8,12.9 51.7,17.7 51.7,28.6 60.8,23.8 					"/>
					<polygon class="st23" points="60.8,12.9 51.7,8 42.5,12.9 51.7,17.7 					"/>
					<polygon class="st24" points="51.7,17.7 42.5,12.9 42.5,23.8 51.7,28.6 					"/>
				</g>
				<g>
					<polygon class="st18" points="24.8,36.9 49.4,19.7 49.4,23.8 					"/>
					<polygon class="st19" points="49.4,19.7 24.8,36.9 45.6,17.7 					"/>
				</g>
				<g>
					<g>
						<g>
							<polygon class="st26" points="52.8,18.8 53.9,19.4 56.3,18.2 55.1,17.5 							"/>
							<polygon class="st27" points="52.8,18.8 52.8,21.6 53.9,22.2 53.9,19.4 							"/>
							<polygon class="st28" points="53.9,19.4 53.9,22.2 56.3,21 56.3,18.2 							"/>
						</g>
						<polygon class="st29" points="55.6,20.6 55.6,19.3 54.6,19.9 54.6,21.1 						"/>
					</g>
				</g>
				<g>
					<polygon class="st23" points="66.7,42.1 59.5,45.9 56.3,44.2 69,37.5 					"/>
					<polygon class="st24" points="59.5,45.9 59.5,53.5 56.3,51.9 56.3,44.2 					"/>
					<polygon class="st29" points="66.7,49.8 66.7,42.1 69,37.5 					"/>
					<polygon class="st30" points="66.7,49.8 59.5,53.5 59.5,45.9 66.7,42.1 					"/>
				</g>
			</g>
		</g>
	</g>
</g>
<g id="Layer_5">
</g>
<g id="Layer_3">
</g>
<g id="Layer_7">
</g>
<g id="Layer_8">
</g>
</svg>
