<?xml version="1.0" encoding="utf-8"?>
<!-- Generator: Adobe Illustrator 22.0.1, SVG Export Plug-In . SVG Version: 6.00 Build 0)  -->
<svg version="1.1" xmlns="http://www.w3.org/2000/svg" xmlns:xlink="http://www.w3.org/1999/xlink" x="0px" y="0px" width="100px"
	 height="43.4px" viewBox="0 0 100 43.4" style="enable-background:new 0 0 100 43.4;" xml:space="preserve">
<style type="text/css">
	.st0{clip-path:url(#SVGID_2_);}
	.st1{fill-rule:evenodd;clip-rule:evenodd;fill:#87AB32;}
	.st2{fill-rule:evenodd;clip-rule:evenodd;fill:#4D7524;}
	.st3{fill-rule:evenodd;clip-rule:evenodd;fill:#563A29;}
	.st4{fill-rule:evenodd;clip-rule:evenodd;fill:#452F21;}
	.st5{fill-rule:evenodd;clip-rule:evenodd;fill:#78533A;}
	.st6{fill-rule:evenodd;clip-rule:evenodd;fill:#6B4B36;}
	.st7{fill-rule:evenodd;clip-rule:evenodd;fill:#2E1D16;}
	.st8{fill-rule:evenodd;clip-rule:evenodd;fill:#8A6853;}
	.st9{fill-rule:evenodd;clip-rule:evenodd;fill:#4A2F24;}
	.st10{fill-rule:evenodd;clip-rule:evenodd;fill:#CFA985;}
	.st11{fill-rule:evenodd;clip-rule:evenodd;fill:#A6876A;}
	.st12{fill-rule:evenodd;clip-rule:evenodd;fill:#352B20;}
	.st13{fill-rule:evenodd;clip-rule:evenodd;fill:#946749;}
	.st14{fill-rule:evenodd;clip-rule:evenodd;}
	.st15{fill-rule:evenodd;clip-rule:evenodd;fill:#654D3D;}
	.st16{fill-rule:evenodd;clip-rule:evenodd;fill:#BDAB64;}
	.st17{fill-rule:evenodd;clip-rule:evenodd;fill:#9E8D54;}
	.st18{fill-rule:evenodd;clip-rule:evenodd;fill:#A02B1F;}
	.st19{fill-rule:evenodd;clip-rule:evenodd;fill:#D8371D;}
	.st20{fill-rule:evenodd;clip-rule:evenodd;fill:#BC3019;}
	.st21{fill-rule:evenodd;clip-rule:evenodd;fill:#F9EA7E;}
	.st22{fill-rule:evenodd;clip-rule:evenodd;fill:#BEB5AF;}
	.st23{fill-rule:evenodd;clip-rule:evenodd;fill:#ECE9E8;}
	.st24{fill-rule:evenodd;clip-rule:evenodd;fill:#DDD8D5;}
	.st25{fill-rule:evenodd;clip-rule:evenodd;fill:#A99C9A;}
	.st26{fill-rule:evenodd;clip-rule:evenodd;fill:#F4F2F0;}
	.st27{fill-rule:evenodd;clip-rule:evenodd;fill:#C1B5A4;}
	.st28{fill-rule:evenodd;clip-rule:evenodd;fill:#E3DCD7;}
	.st29{fill-rule:evenodd;clip-rule:evenodd;fill:#333333;}
	.st30{fill-rule:evenodd;clip-rule:evenodd;fill:#C6BCB9;}
	.st31{clip-path:url(#SVGID_4_);}
	.st32{clip-path:url(#SVGID_6_);}
	.st33{clip-path:url(#SVGID_8_);}
	.st34{clip-path:url(#SVGID_10_);}
</style>
<g id="Layer_2">
</g>
<g id="Layer_6">
</g>
<g id="Layer_5">
</g>
<g id="Layer_3">
</g>
<g id="Layer_7">
</g>
<g id="Layer_8">
	<g>
		<g>
			<defs>
				<path id="SVGID_9_" d="M35,0C35,0,35,0,35,0c0,5.5-4.5,10-10,10S15,5.5,15,0c0,0,0,0,0,0H0v33.3h15c0,5.5,4.5,10,10,10
					s10-4.5,10-10h65V0H35z"/>
			</defs>
			<clipPath id="SVGID_2_">
				<use xlink:href="#SVGID_9_"  style="overflow:visible;"/>
			</clipPath>
			<g class="st0">
				<rect y="-33.3" class="st1" width="100" height="100"/>
				<g>
					<polygon class="st2" points="28.4,39.7 52.6,52.2 73.7,41.2 49.5,28.7 					"/>
					<g>
						<g>
							<polygon class="st3" points="41.8,11.1 36.3,8.3 36.3,2.5 41.8,2.6 							"/>
							<polygon class="st4" points="36.9,21.2 41.8,11.1 41.8,2.6 47.3,-0.3 47.2,10.5 42.5,19.9 							"/>
							<polygon class="st5" points="41.8,2.6 36.3,2.5 41.8,-0.4 47.3,-0.3 							"/>
							<polygon class="st6" points="36.3,8.3 41.8,11.1 36.9,21.2 31.4,18.4 							"/>
						</g>
						<g>
							<polygon class="st4" points="42.8,39.6 43.1,32.1 47.7,31 47.7,37.9 41.7,41 							"/>
							<polygon class="st3" points="43.1,32.1 42.8,39.6 37,36.7 37,28.9 40.8,28.9 							"/>
							<polygon class="st5" points="37,36.7 42.8,39.6 41.7,41 36,38.1 							"/>
						</g>
						<g>
							<path class="st3" d="M54.7,38.2l-4.4-2.3L49,35.2l-3-1.5l-1.4-0.8l-1.4-0.8l-3-1.6L37,28.9l2.8-29.2L42-1.1L44.2,0l2.2,1.2
								l2.2,1.1l2.2,1.2l2.2,3.2l1.4,27.1L54.7,38.2z M46.3,4l-1.4-0.8l-3-1.6l-1.5,24.5l3,2.6l1.4,0.8h0l1.4,0.8l3,0.5l1.5-24.5
								l-3-1.5L46.3,4z"/>
							<polygon class="st5" points="63.9,-3.3 50.9,3.5 48.7,2.3 46.5,1.2 44.2,0 42,-1.1 39.8,-0.3 52.8,-7 55,-7.9 57.2,-6.7 
								61.6,-4.4 							"/>
							<polygon class="st7" points="54.7,38.2 54.5,33.7 53.1,6.7 66.1,-0.1 67.7,31.4 							"/>
							<polygon class="st8" points="46.3,4 47.7,4.8 50.7,6.3 49.2,30.8 46.2,30.3 44.8,29.6 44.8,29.6 43.3,28.8 40.3,26.2 
								41.8,1.7 44.9,3.3 							"/>
							<polygon class="st9" points="53.1,6.7 50.9,3.5 63.9,-3.3 66.1,-0.1 							"/>
						</g>
						<g>
							<g>
								<polygon class="st4" points="51.1,-9.9 61.4,-15.2 63.6,-3.6 51.1,2.9 								"/>
								<polygon class="st3" points="51.1,-9.9 51.1,2.9 40.3,-2.8 40.3,-15.6 								"/>
							</g>
							<g>
								<polygon class="st11" points="43.1,2.9 43.1,2 43.1,1.4 43.1,-2.3 48.5,-6 48.5,1.5 								"/>
								<polygon class="st12" points="37.9,-5 43.1,-2.3 43.1,1.4 43.1,2 43.1,2.9 42,2.3 37.9,0.2 								"/>
							</g>
							<polygon class="st15" points="48,0 48,0.3 43.1,2 43.1,1.4 							"/>
						</g>
						<g>
							<polygon class="st3" points="54.7,38.2 55.1,45.9 46.8,41.7 46.8,41.6 46,33.6 51.3,33.6 							"/>
							<path class="st7" d="M55.1,45.9l-0.4-7.7c5.1-5.9,9.4-8.1,13-6.7l-1.8,5.5l0,4.6L54,47.7l0.5-0.9L55.1,45.9z"/>
							<polygon class="st5" points="55.1,45.9 54.5,46.8 54,47.7 45.7,43.4 46.3,42.5 46.8,41.6 46.8,41.7 							"/>
						</g>
						<g>
							<polygon class="st3" points="60.2,19.7 54.7,16.8 54.7,8.7 60.2,14.3 							"/>
							<polygon class="st4" points="55.3,29.8 60.2,19.7 60.2,14.3 68.2,10.2 65.6,19 60.9,28.4 							"/>
							<polygon class="st5" points="60.2,14.3 54.7,8.7 62.6,4.5 68.2,10.2 							"/>
							<polygon class="st6" points="54.7,16.8 60.2,19.7 55.3,29.8 49.7,26.9 							"/>
						</g>
					</g>
				</g>
			</g>
			<g class="st0">
				<rect y="-33.3" class="st16" width="100" height="100"/>
				<polygon class="st17" points="67.9,41.5 43.5,43 33.2,52.9 38.9,65 66.7,60.2 74.7,50 				"/>
				<g>
					<g>
						<polygon class="st18" points="50.3,49 50.3,17.1 52.9,15.8 52.9,47.6 						"/>
						<polygon class="st21" points="54,16.8 50.4,18.7 46.8,16.8 50.4,14.9 						"/>
						<polygon class="st20" points="50.4,17.1 50.4,49 47.7,47.6 47.7,15.7 						"/>
					</g>
					<g>
						<polygon class="st18" points="59.5,53.3 59.5,21.4 62.1,20 62.1,51.9 						"/>
						<polygon class="st21" points="63.2,21.1 59.6,23 56,21.1 59.6,19.2 						"/>
						<polygon class="st20" points="59.6,21.4 59.6,53.3 56.9,51.9 56.9,20 						"/>
					</g>
					<g>
						<polygon class="st22" points="55.5,23.5 55.5,10.1 69.9,2.5 69.9,17.8 57.3,24.5 						"/>
						<polygon class="st23" points="69.9,2.5 55.5,10.1 42.7,3.3 57.1,-4.3 74.7,-6.8 						"/>
						<polygon class="st24" points="55.5,10.1 55.5,23.5 42.7,16.8 42.7,3.3 						"/>
						<polygon class="st25" points="69.9,17.8 69.9,2.5 74.7,-6.8 						"/>
					</g>
					<g>
						<polygon class="st22" points="52.1,8.6 52.1,-9.1 47.3,-11.6 52.1,-14.2 57,-11.6 57,6 						"/>
						<polygon class="st24" points="52.1,8.6 47.3,6 47.3,-11.6 52.1,-9.1 						"/>
					</g>
					<g>
						<polygon class="st18" points="24.8,3.6 49.4,-13.6 49.4,-9.5 						"/>
						<polygon class="st19" points="49.4,-13.6 24.8,3.6 45.6,-15.6 						"/>
					</g>
					<g>
						<polygon class="st23" points="66.7,8.8 59.5,12.6 56.3,10.9 69,4.1 						"/>
						<polygon class="st24" points="59.5,12.6 59.5,20.2 56.3,18.5 56.3,10.9 						"/>
						<polygon class="st29" points="66.7,16.4 66.7,8.8 69,4.1 						"/>
						<polygon class="st30" points="66.7,16.4 59.5,20.2 59.5,12.6 66.7,8.8 						"/>
					</g>
				</g>
			</g>
		</g>
	</g>
</g>
</svg>
