<?xml version="1.0" encoding="utf-8"?>
<!-- Generator: Adobe Illustrator 22.0.1, SVG Export Plug-In . SVG Version: 6.00 Build 0)  -->
<svg version="1.1" xmlns="http://www.w3.org/2000/svg" xmlns:xlink="http://www.w3.org/1999/xlink" x="0px" y="0px" width="100px"
	 height="33.4px" viewBox="0 0 100 33.4" style="enable-background:new 0 0 100 33.4;" xml:space="preserve">
<style type="text/css">
	.st0{clip-path:url(#SVGID_2_);}
	.st1{fill-rule:evenodd;clip-rule:evenodd;fill:#87AB32;}
	.st2{fill-rule:evenodd;clip-rule:evenodd;fill:#4D7524;}
	.st3{fill-rule:evenodd;clip-rule:evenodd;fill:#563A29;}
	.st4{fill-rule:evenodd;clip-rule:evenodd;fill:#452F21;}
	.st5{fill-rule:evenodd;clip-rule:evenodd;fill:#78533A;}
	.st6{fill-rule:evenodd;clip-rule:evenodd;fill:#6B4B36;}
	.st7{fill-rule:evenodd;clip-rule:evenodd;fill:#2E1D16;}
	.st8{fill-rule:evenodd;clip-rule:evenodd;fill:#8A6853;}
	.st9{fill-rule:evenodd;clip-rule:evenodd;fill:#4A2F24;}
	.st10{fill-rule:evenodd;clip-rule:evenodd;fill:#CFA985;}
	.st11{fill-rule:evenodd;clip-rule:evenodd;fill:#A6876A;}
	.st12{fill-rule:evenodd;clip-rule:evenodd;fill:#352B20;}
	.st13{fill-rule:evenodd;clip-rule:evenodd;fill:#946749;}
	.st14{fill-rule:evenodd;clip-rule:evenodd;}
	.st15{fill-rule:evenodd;clip-rule:evenodd;fill:#654D3D;}
	.st16{fill-rule:evenodd;clip-rule:evenodd;fill:#BDAB64;}
	.st17{fill-rule:evenodd;clip-rule:evenodd;fill:#9E8D54;}
	.st18{fill-rule:evenodd;clip-rule:evenodd;fill:#A02B1F;}
	.st19{fill-rule:evenodd;clip-rule:evenodd;fill:#D8371D;}
	.st20{fill-rule:evenodd;clip-rule:evenodd;fill:#BC3019;}
	.st21{fill-rule:evenodd;clip-rule:evenodd;fill:#F9EA7E;}
	.st22{fill-rule:evenodd;clip-rule:evenodd;fill:#BEB5AF;}
	.st23{fill-rule:evenodd;clip-rule:evenodd;fill:#ECE9E8;}
	.st24{fill-rule:evenodd;clip-rule:evenodd;fill:#DDD8D5;}
	.st25{fill-rule:evenodd;clip-rule:evenodd;fill:#A99C9A;}
	.st26{fill-rule:evenodd;clip-rule:evenodd;fill:#F4F2F0;}
	.st27{fill-rule:evenodd;clip-rule:evenodd;fill:#C1B5A4;}
	.st28{fill-rule:evenodd;clip-rule:evenodd;fill:#E3DCD7;}
	.st29{fill-rule:evenodd;clip-rule:evenodd;fill:#333333;}
	.st30{fill-rule:evenodd;clip-rule:evenodd;fill:#C6BCB9;}
	.st31{clip-path:url(#SVGID_4_);}
	.st32{clip-path:url(#SVGID_6_);}
	.st33{clip-path:url(#SVGID_8_);}
	.st34{clip-path:url(#SVGID_10_);}
</style>
<g id="Layer_2">
</g>
<g id="Layer_6">
</g>
<g id="Layer_5">
</g>
<g id="Layer_3">
	<g>
		<g>
			<defs>
				<path id="SVGID_5_" d="M35,0c0,5.5-4.5,10-10,10S15,5.5,15,0H0v33.3h100V0H35z"/>
			</defs>
			<clipPath id="SVGID_2_">
				<use xlink:href="#SVGID_5_"  style="overflow:visible;"/>
			</clipPath>
			<g class="st0">
				<rect y="-66.7" class="st1" width="100" height="100"/>
				<g>
					<polygon class="st2" points="28.4,6.3 52.6,18.9 73.7,7.9 49.5,-4.7 					"/>
					<g>
						<g>
							<polygon class="st4" points="42.8,6.2 43.1,-1.2 47.7,-2.3 47.7,4.6 41.7,7.7 							"/>
							<polygon class="st3" points="43.1,-1.2 42.8,6.2 37,3.4 37,-4.4 40.8,-4.4 							"/>
							<polygon class="st5" points="37,3.4 42.8,6.2 41.7,7.7 36,4.7 							"/>
						</g>
						<g>
							<path class="st3" d="M54.7,4.8l-4.4-2.3L49,1.9l-3-1.5l-1.4-0.8l-1.4-0.8l-3-1.6L37-4.4l2.8-29.2l2.2-0.9l2.2,1.2l2.2,1.2
								l2.2,1.1l2.2,1.2l2.2,3.2l1.4,27.1L54.7,4.8z M46.3-29.3l-1.4-0.8l-3-1.6L40.3-7.1l3,2.6l1.4,0.8h0L46.2-3l3,0.5L50.7-27
								l-3-1.5L46.3-29.3z"/>
							<polygon class="st7" points="54.7,4.8 54.5,0.4 53.1,-26.7 66.1,-33.4 67.7,-1.9 							"/>
						</g>
						<g>
							<polygon class="st3" points="54.7,4.8 55.1,12.5 46.8,8.3 46.8,8.3 46,0.3 51.3,0.3 							"/>
							<path class="st7" d="M55.1,12.5l-0.4-7.7c5.1-5.9,9.4-8.1,13-6.7l-1.8,5.5l0,4.6L54,14.4l0.5-0.9L55.1,12.5z"/>
							<polygon class="st5" points="55.1,12.5 54.5,13.5 54,14.4 45.7,10.1 46.3,9.2 46.8,8.3 46.8,8.3 							"/>
						</g>
					</g>
				</g>
			</g>
			<g class="st0">
				<rect x="0" y="-66.7" class="st16" width="100" height="100"/>
				<polygon class="st17" points="67.9,8.2 43.5,9.7 33.2,19.6 38.9,31.7 66.7,26.8 74.7,16.7 				"/>
				<g>
					<g>
						<polygon class="st18" points="47.5,18.6 56.8,13.6 56.8,16 47.5,21 						"/>
						<polygon class="st19" points="56.8,13.6 47.5,18.6 41.3,15.3 50.7,10.4 56.8,13.6 						"/>
						<polygon class="st20" points="41.3,15.3 47.5,18.6 47.5,21 41.3,17.7 						"/>
					</g>
					<g>
						<polygon class="st18" points="50.3,15.7 50.3,-16.2 52.9,-17.5 52.9,14.3 						"/>
						<polygon class="st20" points="50.4,-16.2 50.4,15.7 47.7,14.3 47.7,-17.6 						"/>
					</g>
					<g>
						<polygon class="st18" points="56.7,22.8 66,17.9 66,20.3 56.7,25.2 						"/>
						<polygon class="st19" points="66,17.9 56.7,22.8 50.5,19.6 59.9,14.6 66,17.9 						"/>
						<polygon class="st20" points="50.5,19.6 56.7,22.8 56.7,25.2 50.5,22 						"/>
					</g>
					<g>
						<polygon class="st18" points="59.5,19.9 59.5,-11.9 62.1,-13.3 62.1,18.6 						"/>
						<polygon class="st20" points="59.6,-12 59.6,19.9 56.9,18.5 56.9,-13.4 						"/>
					</g>
				</g>
			</g>
		</g>
	</g>
</g>
<g id="Layer_7">
</g>
<g id="Layer_8">
</g>
</svg>
