<svg xmlns="http://www.w3.org/2000/svg" viewBox="0 0 117.64 138.07"><defs><style>.cls-1{fill:#ba1357;}.cls-1,.cls-2,.cls-3,.cls-4,.cls-5,.cls-6,.cls-7{fill-rule:evenodd;}.cls-2{fill:#d4145a;}.cls-3{fill:#c6145c;}.cls-4{fill:#31993b;}.cls-5{fill:#39b54a;}.cls-6{fill:#35a53f;}.cls-7{fill:#fcee21;}</style></defs><title>flower</title><g id="Layer_2" data-name="Layer 2"><g id="Layer_2-2" data-name="Layer 2"><polygon class="cls-1" points="117.64 15.37 88.22 30.66 88.22 39.78 117.64 24.48 117.64 15.37"/><polygon class="cls-2" points="117.64 15.37 88.22 0 58.88 15.37 88.22 30.66 117.64 15.37"/><polygon class="cls-3" points="88.22 30.66 58.88 15.37 58.88 24.58 88.22 39.87 88.22 30.66"/><polygon class="cls-1" points="58.77 15.37 29.34 30.66 29.34 39.78 58.77 24.48 58.77 15.37"/><polygon class="cls-2" points="58.77 15.37 29.34 0 0 15.37 29.34 30.66 58.77 15.37"/><polygon class="cls-3" points="29.34 30.66 0 15.37 0 24.58 29.34 39.87 29.34 30.66"/><polygon class="cls-4" points="65.78 43.53 58.79 47.17 58.79 138.07 65.78 134.43 65.78 43.53"/><polygon class="cls-5" points="65.79 43.52 58.79 39.87 51.81 43.52 58.79 47.16 65.79 43.52"/><polygon class="cls-6" points="58.78 47.16 51.8 43.52 51.8 134.26 58.78 137.9 58.78 47.16"/><polygon class="cls-7" points="88.26 37.55 58.77 22.14 29.35 37.55 58.77 52.88 88.26 37.55"/><polygon class="cls-1" points="117.64 46.03 88.22 61.33 88.22 70.44 117.64 55.15 117.64 46.03"/><polygon class="cls-2" points="117.64 46.03 88.22 30.66 58.88 46.03 88.22 61.33 117.64 46.03"/><polygon class="cls-3" points="88.22 61.33 58.88 46.03 58.88 55.24 88.22 70.53 88.22 61.33"/><polygon class="cls-1" points="58.88 46.03 29.46 61.33 29.46 70.44 58.88 55.15 58.88 46.03"/><polygon class="cls-2" points="58.88 46.03 29.46 30.66 0.11 46.03 29.46 61.33 58.88 46.03"/><polygon class="cls-3" points="29.46 61.33 0.11 46.03 0.11 55.24 29.46 70.53 29.46 61.33"/></g></g></svg>