<svg xmlns="http://www.w3.org/2000/svg" viewBox="0 0 80.33 93.97"><defs><style>.cls-1{fill:#005b2d;}.cls-1,.cls-3,.cls-4,.cls-5,.cls-6{fill-rule:evenodd;}.cls-2{fill:#8b6239;}.cls-3{fill:#754c24;}.cls-4{fill:#00833c;}.cls-5{fill:#009145;}.cls-6{fill:#006837;}</style></defs><title>drzewko</title><g id="Layer_2" data-name="Layer 2"><g id="Layer_2-2" data-name="Layer 2"><g id="Drzewko"><polygon class="cls-1" points="19.17 68.96 5.38 76.85 80.33 93.97 40.03 60.66 19.17 68.96"/><rect class="cls-2" x="19.89" y="57.78" width="10.83" height="15.97"/><polygon class="cls-3" points="36.71 69.25 30.72 73.75 30.72 57.78 36.71 54.2 36.71 69.25"/><polygon class="cls-4" points="30.77 32.04 14.98 32.04 0 60.66 43.04 60.66 30.77 32.04"/><polygon class="cls-1" points="35.23 29.06 30.82 32.04 43.09 60.66 54.89 51.43 35.23 29.06"/><polygon class="cls-5" points="23.71 0 4.81 36.13 38.81 36.13 23.71 0"/><polygon class="cls-6" points="23.55 0 38.84 36.13 48.16 28.83 23.55 0"/></g></g></g></svg>