<?xml version="1.0" encoding="UTF-8" standalone="no"?>
<svg
   xmlns:dc="http://purl.org/dc/elements/1.1/"
   xmlns:cc="http://creativecommons.org/ns#"
   xmlns:rdf="http://www.w3.org/1999/02/22-rdf-syntax-ns#"
   xmlns:svg="http://www.w3.org/2000/svg"
   xmlns="http://www.w3.org/2000/svg"
   xmlns:sodipodi="http://sodipodi.sourceforge.net/DTD/sodipodi-0.dtd"
   xmlns:inkscape="http://www.inkscape.org/namespaces/inkscape"
   viewBox="0 0 118.91 99.64"
   version="1.1"
   id="svg411"
   sodipodi:docname="bee_ru.svg"
   inkscape:version="0.92.2 5c3e80d, 2017-08-06">
  <metadata
     id="metadata415">
    <rdf:RDF>
      <cc:Work
         rdf:about="">
        <dc:format>image/svg+xml</dc:format>
        <dc:type
           rdf:resource="http://purl.org/dc/dcmitype/StillImage" />
      </cc:Work>
    </rdf:RDF>
  </metadata>
  <sodipodi:namedview
     pagecolor="#ffffff"
     bordercolor="#666666"
     borderopacity="1"
     objecttolerance="10"
     gridtolerance="10"
     guidetolerance="10"
     inkscape:pageopacity="0"
     inkscape:pageshadow="2"
     inkscape:window-width="1680"
     inkscape:window-height="1006"
     id="namedview413"
     showgrid="false"
     inkscape:zoom="2.3685267"
     inkscape:cx="59.455002"
     inkscape:cy="49.82"
     inkscape:window-x="0"
     inkscape:window-y="522"
     inkscape:window-maximized="1"
     inkscape:current-layer="Layer_3" />
  <defs
     id="defs278">
    <style
       id="style276">.cls-1,.cls-4{fill:#333;}.cls-1,.cls-10,.cls-11,.cls-12,.cls-13,.cls-14,.cls-15,.cls-16,.cls-17,.cls-18,.cls-19,.cls-2,.cls-20,.cls-3,.cls-4,.cls-5,.cls-6,.cls-7,.cls-8,.cls-9{fill-rule:evenodd;}.cls-1{opacity:0.2;}.cls-2{fill:#474747;}.cls-3{fill:#1a1a1a;}.cls-5{fill:#fcee21;}.cls-6{fill:#ead721;}.cls-7{fill:#efdb22;}.cls-8{fill:#5e5e5e;}.cls-9{fill:#515151;}.cls-10{fill:#6f7070;}.cls-11{fill:#2b2b2b;}.cls-12{fill:#f4f2f0;}.cls-13{fill:#c1b5a4;}.cls-14{fill:#e3dcd7;}.cls-15,.cls-18{fill:#e6e6e6;}.cls-15{opacity:0.8;}.cls-16,.cls-19{fill:#b3b3b3;}.cls-16{opacity:0.8;}.cls-17,.cls-20{fill:#ccc;}.cls-17{opacity:0.8;}.cls-18{opacity:0.8;}.cls-19{opacity:0.8;}.cls-20{opacity:0.8;}</style>
  </defs>
  <title
     id="title280">bee_ru</title>
  <g
     id="Layer_2"
     data-name="Layer 2">
    <g
       id="Layer_3"
       data-name="Layer 3">
      <polygon
         class="cls-2"
         points="39.42 76.61 43.71 78.98 43.86 82.07 39.42 79.84 39.42 76.61"
         id="polygon284" />
      <polygon
         class="cls-3"
         points="43.71 78.98 47.5 76.35 47.5 79.89 43.86 82.07 43.71 78.98"
         id="polygon286" />
      <polygon
         class="cls-4"
         points="47.5 76.35 43.71 78.98 39.42 76.61 44.8 74.93 47.5 76.35"
         id="polygon288" />
      <polygon
         class="cls-2"
         points="21.05 79.78 25.34 82.14 25.48 85.23 21.05 83 21.05 79.78"
         id="polygon290" />
      <polygon
         class="cls-3"
         points="25.34 82.14 29.13 79.52 29.13 83.06 25.48 85.23 25.34 82.14"
         id="polygon292" />
      <polygon
         class="cls-4"
         points="29.13 79.52 25.34 82.14 21.05 79.78 26.42 78.1 29.13 79.52"
         id="polygon294" />
      <polygon
         class="cls-2"
         points="22.74 86.31 20.06 85.1 20.06 80.8 20.16 62.59 22.74 64.2 22.74 79.81 22.74 86.31"
         id="polygon296" />
      <polygon
         class="cls-3"
         points="24.86 63.56 25.48 85.22 22.74 86.31 22.74 79.81 22.74 64.2 24.86 63.56"
         id="polygon298" />
      <polygon
         class="cls-2"
         points="52.05 73.59 56.34 75.96 56.48 79.05 52.05 76.82 52.05 73.59"
         id="polygon300" />
      <polygon
         class="cls-3"
         points="56.34 75.96 60.13 73.33 60.13 76.87 56.48 79.05 56.34 75.96"
         id="polygon302" />
      <polygon
         class="cls-4"
         points="60.13 73.33 56.34 75.96 52.05 73.59 57.42 71.91 60.13 73.33"
         id="polygon304" />
      <polygon
         class="cls-5"
         points="37.95 54.95 23.89 62.85 23.87 62.85 23.87 77.93 8.73 70.3 8.73 54.95 20.14 45.84 37.95 54.95"
         id="polygon306" />
      <polygon
         class="cls-6"
         points="9.45 72.25 8.73 70.3 23.87 62.85 23.89 62.85 37.95 54.95 38.33 80.81 27.51 80.77 9.45 72.25"
         id="polygon308" />
      <polygon
         class="cls-7"
         points="8.73 54.95 23.87 62.85 23.87 77.93 8.73 70.3 8.73 54.95"
         id="polygon310" />
      <polygon
         class="cls-8"
         points="88.04 39.64 99 45.47 98.94 59.62 87.98 53.31 88.04 39.64"
         id="polygon312" />
      <polygon
         class="cls-9"
         points="97.59 41.76 114.55 40.3 114.11 49.36 100.24 57.42 97.59 41.76"
         id="polygon314" />
      <polygon
         class="cls-10"
         points="97.59 41.76 85.02 34.76 102.2 33.19 114.55 40.3 97.59 41.76"
         id="polygon316" />
      <path
         class="cls-6"
         d="M78.91,44.6l18.68-2.84L100.24,44V57.42l-2,3L86.75,65.9,79,69.4Z"
         id="path318" />
      <polygon
         class="cls-5"
         points="83.21 33.75 97.59 41.76 78.91 44.6 60.6 35.62 83.21 33.75"
         id="polygon320" />
      <polygon
         class="cls-5"
         points="72.28 46.23 37.95 54.95 20.14 45.84 54.07 37.25 72.28 46.23"
         id="polygon322" />
      <polygon
         class="cls-6"
         points="38.33 80.81 37.95 54.95 72.28 46.23 72.72 71.75 55.66 76.35 38.33 80.81"
         id="polygon324" />
      <polygon
         class="cls-11"
         points="37.95 80.81 31.97 80.81 31.77 58.42 37.95 54.95 37.95 80.81"
         id="polygon326" />
      <polygon
         class="cls-11"
         points="37.95 54.95 31.77 58.42 15.45 49.63 20.23 45.8 37.95 54.95"
         id="polygon328" />
      <polygon
         class="cls-11"
         points="78.91 44.6 72.28 46.23 54.07 37.25 60.6 35.62 78.91 44.6"
         id="polygon330" />
      <polygon
         class="cls-11"
         points="79.03 69.4 72.72 71.75 72.28 46.23 78.91 44.6 79.03 69.4"
         id="polygon332" />
      <polygon
         class="cls-11"
         points="60.68 75.03 52.67 77.09 52.67 51.21 60.68 49.18 60.68 75.03"
         id="polygon334" />
      <polygon
         class="cls-11"
         points="60.68 49.18 52.67 51.21 33.53 42.44 41.68 40.38 60.68 49.18"
         id="polygon336" />
      <g
         id="Nogi">
        <polygon
           class="cls-2"
           points="38.39 65.8 44.9 70.3 44.88 74.2 38.33 70.3 38.39 65.8"
           id="polygon338" />
        <polygon
           class="cls-4"
           points="42.67 68.91 38.39 65.8 42.3 64.53 45.96 67.97 42.67 68.91"
           id="polygon340" />
        <polygon
           class="cls-3"
           points="50.13 89.78 54.26 87.69 54.26 91.23 50.23 92.93 50.13 89.78"
           id="polygon342" />
        <polygon
           class="cls-4"
           points="54.26 87.69 50.13 89.78 46.18 87.95 50.81 85.88 54.26 87.69"
           id="polygon344" />
        <polygon
           class="cls-2"
           points="47.49 94.02 44.81 92.81 44.81 88.52 44.9 70.3 47.49 71.91 47.49 87.52 47.49 94.02"
           id="polygon346" />
        <polygon
           class="cls-3"
           points="49.6 71.27 50.23 92.93 47.49 94.02 47.49 87.52 47.49 71.91 49.6 71.27"
           id="polygon348" />
        <polygon
           class="cls-4"
           points="42.67 68.91 45.96 67.97 49.6 71.27 47.49 71.91 42.67 68.91"
           id="polygon350" />
        <polygon
           class="cls-2"
           points="57.46 60.77 63.96 65.27 63.94 69.17 57.4 65.27 57.46 60.77"
           id="polygon352" />
        <polygon
           class="cls-4"
           points="61.74 63.88 57.46 60.77 61.36 59.5 65.03 62.94 61.74 63.88"
           id="polygon354" />
        <polygon
           class="cls-3"
           points="69.19 83.99 73.32 81.9 73.32 85.43 69.29 87.14 69.19 83.99"
           id="polygon356" />
        <polygon
           class="cls-4"
           points="73.32 81.9 69.19 83.99 65.24 82.16 69.87 80.09 73.32 81.9"
           id="polygon358" />
        <polygon
           class="cls-2"
           points="66.55 88.17 63.86 86.7 63.96 65.27 66.55 66.88 66.55 82.49 66.55 88.17"
           id="polygon360" />
        <polygon
           class="cls-3"
           points="68.67 66.24 69.29 87.14 66.55 88.17 66.55 82.49 66.55 66.88 68.67 66.24"
           id="polygon362" />
        <polygon
           class="cls-4"
           points="61.74 63.88 65.03 62.94 68.67 66.24 66.55 66.88 61.74 63.88"
           id="polygon364" />
        <polygon
           class="cls-2"
           points="74.76 56.55 81.43 62.01 81.41 65.91 74.76 61.23 74.76 56.55"
           id="polygon366" />
        <polygon
           class="cls-4"
           points="81.43 62.01 74.76 56.55 78.8 55.21 82.49 59.67 81.43 62.01"
           id="polygon368" />
        <polygon
           class="cls-3"
           points="86.66 80.09 90.78 78 90.78 81.54 86.76 83.32 86.66 80.09"
           id="polygon370" />
        <polygon
           class="cls-4"
           points="90.78 78 86.66 80.09 82.71 78.26 87.34 76.19 90.78 78"
           id="polygon372" />
        <polygon
           class="cls-2"
           points="81.32 83.17 81.43 62.01 84.02 63.62 84.02 79.22 84.02 84.64 81.32 83.17"
           id="polygon374" />
        <polygon
           class="cls-3"
           points="86.13 62.98 86.76 83.32 84.02 84.64 84.02 79.22 84.02 63.62 86.13 62.98"
           id="polygon376" />
        <polygon
           class="cls-4"
           points="81.43 62.01 82.49 59.67 86.13 62.98 84.02 63.62 81.43 62.01"
           id="polygon378" />
      </g>
      <polygon
         class="cls-8"
         points="99.94 10.75 100.29 35.57 99.05 34.85 99.94 10.75"
         id="polygon381" />
      <polygon
         class="cls-4"
         points="99.94 10.75 100.29 35.57 101.95 35.04 99.94 10.75"
         id="polygon383" />
      <polygon
         class="cls-8"
         points="116.21 19.04 108.01 40.3 106.41 39.37 116.21 19.04"
         id="polygon385" />
      <polygon
         class="cls-4"
         points="116.21 19.04 108.01 40.3 109.8 39.64 116.21 19.04"
         id="polygon387" />
      <polygon
         class="cls-12"
         points="104.73 44.32 107.26 45.59 112.33 43.05 109.76 41.77 104.73 44.32"
         id="polygon389" />
      <polygon
         class="cls-13"
         points="104.73 44.32 104.73 50.1 107.26 51.35 107.26 45.59 104.73 44.32"
         id="polygon391" />
      <polygon
         class="cls-14"
         points="107.26 45.59 107.26 51.35 112.33 48.8 112.33 43.05 107.26 45.59"
         id="polygon393" />
      <polygon
         class="cls-4"
         points="110.87 47.92 110.87 45.37 108.6 46.51 108.6 49.05 110.87 47.92"
         id="polygon395" />
      <polygon
         class="cls-15"
         points="60.94 38.01 53.59 40.52 46.24 43.03 3.78 15.41 6.53 0 30.2 2.5 60.94 38.01"
         id="polygon397" />
      <polygon
         class="cls-16"
         points="60.94 39.75 46.28 44.32 46.24 43.03 60.94 38.01 60.94 39.75"
         id="polygon399" />
      <polygon
         class="cls-17"
         points="46.28 44.32 3.78 17.54 3.78 15.41 46.24 43.03 46.28 44.32"
         id="polygon401" />
      <polygon
         class="cls-18"
         points="118.58 51.98 110.08 61.69 89.24 62.77 71.29 54.69 53.35 46.61 66.13 43.01 92.66 48.16 118.58 51.98"
         id="polygon403" />
      <polygon
         class="cls-19"
         points="110.27 63.22 89.24 64.37 89.24 63.57 89.24 62.77 110.08 61.69 118.58 51.98 118.91 53.56 110.27 63.22"
         id="polygon405" />
      <polygon
         class="cls-20"
         points="89.24 64.37 53.35 47.96 53.35 46.61 89.24 62.77 89.24 64.37"
         id="polygon407" />
    </g>
  </g>
</svg>
