<?xml version="1.0" encoding="UTF-8" standalone="no"?>
<svg
   xmlns:dc="http://purl.org/dc/elements/1.1/"
   xmlns:cc="http://creativecommons.org/ns#"
   xmlns:rdf="http://www.w3.org/1999/02/22-rdf-syntax-ns#"
   xmlns:svg="http://www.w3.org/2000/svg"
   xmlns="http://www.w3.org/2000/svg"
   xmlns:sodipodi="http://sodipodi.sourceforge.net/DTD/sodipodi-0.dtd"
   xmlns:inkscape="http://www.inkscape.org/namespaces/inkscape"
   viewBox="0 0 129.65 110.89"
   version="1.1"
   id="svg270"
   sodipodi:docname="bee_rd.svg"
   inkscape:version="0.92.2 5c3e80d, 2017-08-06">
  <metadata
     id="metadata274">
    <rdf:RDF>
      <cc:Work
         rdf:about="">
        <dc:format>image/svg+xml</dc:format>
        <dc:type
           rdf:resource="http://purl.org/dc/dcmitype/StillImage" />
      </cc:Work>
    </rdf:RDF>
  </metadata>
  <sodipodi:namedview
     pagecolor="#ffffff"
     bordercolor="#666666"
     borderopacity="1"
     objecttolerance="10"
     gridtolerance="10"
     guidetolerance="10"
     inkscape:pageopacity="0"
     inkscape:pageshadow="2"
     inkscape:window-width="640"
     inkscape:window-height="480"
     id="namedview272"
     showgrid="false"
     inkscape:zoom="2.1282352"
     inkscape:cx="64.824997"
     inkscape:cy="55.445"
     inkscape:window-x="0"
     inkscape:window-y="522"
     inkscape:window-maximized="0"
     inkscape:current-layer="Layer_3" />
  <defs
     id="defs143">
    <style
       id="style141">.cls-1,.cls-3{fill:#1a1a1a;}.cls-1,.cls-10,.cls-11,.cls-12,.cls-13,.cls-14,.cls-15,.cls-16,.cls-17,.cls-18,.cls-19,.cls-2,.cls-20,.cls-21,.cls-3,.cls-4,.cls-5,.cls-6,.cls-7,.cls-8,.cls-9{fill-rule:evenodd;}.cls-1{opacity:0.1;}.cls-2{fill:#474747;}.cls-4{fill:#333;}.cls-5{fill:#4d4d4d;}.cls-6{fill:#5e5e5e;}.cls-7{fill:#515151;}.cls-8{fill:#6f7070;}.cls-9{fill:#e8d521;}.cls-10{fill:#fcee21;}.cls-11{fill:#ead721;}.cls-12{fill:#2b2b2b;}.cls-13,.cls-16{fill:#e6e6e6;}.cls-13{opacity:0.8;}.cls-14,.cls-17{fill:#b3b3b3;}.cls-14{opacity:0.8;}.cls-15,.cls-18{fill:#ccc;}.cls-15{opacity:0.8;}.cls-16{opacity:0.8;}.cls-17{opacity:0.8;}.cls-18{opacity:0.8;}.cls-19{fill:#f4f2f0;}.cls-20{fill:#c1b5a4;}.cls-21{fill:#e3dcd7;}</style>
  </defs>
  <title
     id="title145">bee_rd</title>
  <g
     id="Layer_2"
     data-name="Layer 2">
    <g
       id="Layer_3"
       data-name="Layer 3">
      <polygon
         class="cls-2"
         points="74.15 78.93 69.86 81.3 69.71 84.39 74.15 82.16 74.15 78.93"
         id="polygon149" />
      <polygon
         class="cls-3"
         points="69.86 81.3 66.07 78.67 66.07 82.21 69.71 84.39 69.86 81.3"
         id="polygon151" />
      <polygon
         class="cls-4"
         points="66.07 78.67 69.86 81.3 74.15 78.93 68.77 77.26 66.07 78.67"
         id="polygon153" />
      <polygon
         class="cls-2"
         points="91.72 83.35 87.44 85.72 87.29 88.81 91.72 86.58 91.72 83.35"
         id="polygon155" />
      <polygon
         class="cls-3"
         points="87.44 85.72 83.65 83.09 83.65 86.63 87.29 88.81 87.44 85.72"
         id="polygon157" />
      <polygon
         class="cls-4"
         points="83.65 83.09 87.44 85.72 91.72 83.35 86.35 81.67 83.65 83.09"
         id="polygon159" />
      <polygon
         class="cls-5"
         points="75.62 57.27 89.68 65.18 89.7 65.18 89.7 80.25 104.84 75.54 104.84 57.27 93.43 48.16 75.62 57.27"
         id="polygon161" />
      <polygon
         class="cls-4"
         points="90.23 81.98 89.7 65.18 89.68 65.18 75.62 57.27 75.24 83.13 87.44 83.09 90.23 81.98"
         id="polygon163" />
      <polygon
         class="cls-6"
         points="117.79 66.55 106.83 72.38 106.89 86.53 117.85 80.21 117.79 66.55"
         id="polygon165" />
      <polygon
         class="cls-7"
         points="106.83 72.38 89.7 65.18 90.23 81.98 106.89 86.53 106.83 72.38"
         id="polygon167" />
      <polygon
         class="cls-8"
         points="106.83 72.38 117.79 66.55 104.84 57.27 89.7 65.18 106.83 72.38"
         id="polygon169" />
      <path
         class="cls-9"
         d="M33.6,71.3l-6.78-3.07-11.45-5.5-3.86-13L16,44.09l18.53,3.22Z"
         id="path171" />
      <polygon
         class="cls-10"
         points="30.36 36.07 15.98 44.09 34.51 47.31 53.82 38.52 30.36 36.07"
         id="polygon173" />
      <polygon
         class="cls-10"
         points="41.85 49.65 75.62 57.27 93.43 48.16 62.17 40.5 41.85 49.65"
         id="polygon175" />
      <polygon
         class="cls-11"
         points="75.24 83.13 75.62 57.27 41.85 49.65 39.34 73.9 57.91 78.67 75.24 83.13"
         id="polygon177" />
      <polygon
         class="cls-12"
         points="22.06 65.94 26.82 68.23 28.01 45.24 22.64 43.53 22.06 65.94"
         id="polygon179" />
      <polygon
         class="cls-12"
         points="22.64 43.53 28.01 45.24 43.98 37.49 36.64 36.73 22.64 43.53"
         id="polygon181" />
      <polygon
         class="cls-12"
         points="34.51 47.31 41.85 49.65 62.17 40.5 53.82 38.52 34.51 47.31"
         id="polygon183" />
      <polygon
         class="cls-12"
         points="33.6 71.3 39.34 73.9 41.85 49.65 34.46 47.31 33.6 71.3"
         id="polygon185" />
      <polygon
         class="cls-12"
         points="50.69 76.82 57.91 78.67 58.66 53.44 50.86 51.69 50.69 76.82"
         id="polygon187" />
      <polygon
         class="cls-12"
         points="50.86 51.69 58.66 53.44 78.25 44.44 70.02 42.42 50.86 51.69"
         id="polygon189" />
      <g
         id="Nogi">
        <polygon
           class="cls-2"
           points="75.17 68.12 68.67 72.62 68.69 76.52 75.24 72.62 75.17 68.12"
           id="polygon191" />
        <polygon
           class="cls-4"
           points="70.89 71.23 75.17 68.12 71.27 66.85 67.61 70.29 70.89 71.23"
           id="polygon193" />
        <polygon
           class="cls-2"
           points="66.08 95.25 71.44 92.47 68.76 90.84 68.67 72.62 66.08 74.23 66.08 89.84 66.08 95.25"
           id="polygon195" />
        <polygon
           class="cls-3"
           points="63.97 73.59 63.35 93.56 66.08 95.25 66.08 89.84 66.08 74.23 63.97 73.59"
           id="polygon197" />
        <polygon
           class="cls-4"
           points="70.89 71.23 67.61 70.29 63.97 73.59 66.08 74.23 70.89 71.23"
           id="polygon199" />
        <polygon
           class="cls-2"
           points="74.15 91.95 69.86 94.32 69.71 97.41 74.15 95.18 74.15 91.95"
           id="polygon201" />
        <polygon
           class="cls-3"
           points="69.86 94.32 66.07 91.69 66.07 95.23 69.71 97.41 69.86 94.32"
           id="polygon203" />
        <polygon
           class="cls-4"
           points="66.07 91.69 69.86 94.32 74.15 91.95 68.77 90.27 66.07 91.69"
           id="polygon205" />
        <polygon
           class="cls-2"
           points="56.11 63.09 49.6 67.59 49.63 71.49 56.17 67.59 56.11 63.09"
           id="polygon207" />
        <polygon
           class="cls-4"
           points="51.83 66.2 56.11 63.09 52.21 61.82 48.54 65.26 51.83 66.2"
           id="polygon209" />
        <polygon
           class="cls-2"
           points="47.02 90.22 52.38 87.44 49.7 85.8 49.6 67.59 47.02 69.2 47.02 84.81 47.02 90.22"
           id="polygon211" />
        <polygon
           class="cls-3"
           points="44.9 68.56 44.29 88.53 47.02 90.22 47.02 84.81 47.02 69.2 44.9 68.56"
           id="polygon213" />
        <polygon
           class="cls-4"
           points="51.83 66.2 48.54 65.26 44.9 68.56 47.02 69.2 51.83 66.2"
           id="polygon215" />
        <polygon
           class="cls-2"
           points="55.08 86.92 50.8 89.28 50.65 92.38 55.08 90.14 55.08 86.92"
           id="polygon217" />
        <polygon
           class="cls-3"
           points="50.8 89.28 47.01 86.66 47.01 90.19 50.65 92.38 50.8 89.28"
           id="polygon219" />
        <polygon
           class="cls-4"
           points="47.01 86.66 50.8 89.28 55.08 86.92 49.71 85.24 47.01 86.66"
           id="polygon221" />
        <polygon
           class="cls-2"
           points="46.55 61.43 32.14 64.33 32.16 68.23 46.55 66.2 46.55 61.43"
           id="polygon223" />
        <polygon
           class="cls-4"
           points="32.14 64.33 46.55 61.43 42.38 60.42 31.08 61.99 32.14 64.33"
           id="polygon225" />
        <polyline
           class="cls-2"
           points="32.23 82.54 32.14 64.33 29.55 65.94 29.55 81.55 29.55 86.96"
           id="polyline227" />
        <polygon
           class="cls-3"
           points="27.44 65.3 26.82 85.27 29.55 86.96 29.55 81.55 29.55 65.94 27.44 65.3"
           id="polygon229" />
        <polygon
           class="cls-4"
           points="32.14 64.33 31.08 61.99 27.44 65.3 29.55 65.94 32.14 64.33"
           id="polygon231" />
        <polygon
           class="cls-2"
           points="37.62 83.66 33.33 86.02 33.19 89.11 37.62 86.88 37.62 83.66"
           id="polygon233" />
        <polygon
           class="cls-3"
           points="33.33 86.02 29.54 83.4 29.54 86.93 33.19 89.11 33.33 86.02"
           id="polygon235" />
        <polygon
           class="cls-4"
           points="29.54 83.4 33.33 86.02 37.62 83.66 32.24 81.98 29.54 83.4"
           id="polygon237" />
      </g>
      <polygon
         class="cls-13"
         points="69.71 45.85 77.06 48.36 84.41 50.87 98.57 32.77 112.74 14.67 97.01 0 74.15 7 71.93 26.42 69.71 45.85"
         id="polygon240" />
      <polygon
         class="cls-14"
         points="69.71 47.59 84.36 52.16 84.41 50.87 69.71 45.85 69.71 47.59"
         id="polygon242" />
      <polygon
         class="cls-15"
         points="84.36 52.16 112.74 16.79 112.74 14.67 84.41 50.87 84.36 52.16"
         id="polygon244" />
      <polygon
         class="cls-16"
         points="13.19 58.9 21.68 68.61 42.53 69.69 60.47 61.61 78.41 53.53 65.64 49.93 39.1 55.08 13.19 58.9"
         id="polygon246" />
      <polygon
         class="cls-17"
         points="21.5 70.13 42.53 71.29 42.53 70.49 42.53 69.69 21.68 68.61 13.19 58.9 12.85 60.47 21.5 70.13"
         id="polygon248" />
      <polygon
         class="cls-18"
         points="42.53 71.29 78.41 54.88 78.41 53.53 42.53 69.69 42.53 71.29"
         id="polygon250" />
      <polygon
         class="cls-6"
         points="118.14 43 114.37 66.93 115.61 66.22 118.14 43"
         id="polygon252" />
      <polygon
         class="cls-4"
         points="118.14 43 114.37 66.93 113.18 66.01 118.14 43"
         id="polygon254" />
      <polygon
         class="cls-6"
         points="98.55 49.83 106.75 71.09 108.36 70.17 98.55 49.83"
         id="polygon256" />
      <polygon
         class="cls-4"
         points="98.55 49.83 106.75 71.09 105.12 69.83 98.55 49.83"
         id="polygon258" />
      <polygon
         class="cls-19"
         points="104.84 74.28 102.31 75.55 97.24 73 99.81 71.73 104.84 74.28"
         id="polygon260" />
      <polygon
         class="cls-20"
         points="104.84 74.28 104.84 80.06 102.31 81.31 102.31 75.55 104.84 74.28"
         id="polygon262" />
      <polygon
         class="cls-21"
         points="102.31 75.55 102.31 81.31 97.24 78.76 97.24 73 102.31 75.55"
         id="polygon264" />
      <polygon
         class="cls-4"
         points="98.7 77.88 98.7 75.33 100.97 76.47 100.97 79.01 98.7 77.88"
         id="polygon266" />
    </g>
  </g>
</svg>
