<?xml version="1.0" encoding="utf-8"?>
<!-- Generator: Adobe Illustrator 22.0.1, SVG Export Plug-In . SVG Version: 6.00 Build 0)  -->
<svg version="1.1" xmlns="http://www.w3.org/2000/svg" xmlns:xlink="http://www.w3.org/1999/xlink" x="0px" y="0px" width="100px"
	 height="60px" viewBox="0 0 100 60" style="enable-background:new 0 0 100 60;" xml:space="preserve">
<style type="text/css">
	.st0{clip-path:url(#SVGID_2_);}
	.st1{fill-rule:evenodd;clip-rule:evenodd;fill:#E44923;}
	.st2{fill-rule:evenodd;clip-rule:evenodd;fill:#AE3315;}
	.st3{fill-rule:evenodd;clip-rule:evenodd;fill:#F9EA7E;}
	.st4{fill-rule:evenodd;clip-rule:evenodd;fill:#E9D21B;}
	.st5{fill-rule:evenodd;clip-rule:evenodd;fill:#E6AB28;}
	.st6{fill-rule:evenodd;clip-rule:evenodd;fill:#9A886D;}
	.st7{fill-rule:evenodd;clip-rule:evenodd;fill:#554A3C;}
	.st8{fill-rule:evenodd;clip-rule:evenodd;fill:#34433A;}
	.st9{fill-rule:evenodd;clip-rule:evenodd;fill:#E56B4B;}
	.st10{fill-rule:evenodd;clip-rule:evenodd;fill:#CE2020;}
	.st11{fill-rule:evenodd;clip-rule:evenodd;fill:#DF3131;}
	.st12{clip-path:url(#SVGID_4_);}
	.st13{fill-rule:evenodd;clip-rule:evenodd;fill:#BDAB64;}
	.st14{fill-rule:evenodd;clip-rule:evenodd;fill:#9E7B47;}
	.st15{fill-rule:evenodd;clip-rule:evenodd;fill:#C14324;}
	.st16{fill-rule:evenodd;clip-rule:evenodd;fill:#E3D8CE;}
	.st17{fill-rule:evenodd;clip-rule:evenodd;fill:#BDA58E;}
	.st18{fill-rule:evenodd;clip-rule:evenodd;fill:#6A5140;}
	.st19{fill-rule:evenodd;clip-rule:evenodd;fill:#3A2C23;}
	.st20{fill-rule:evenodd;clip-rule:evenodd;fill:#E0D1C9;}
	.st21{fill-rule:evenodd;clip-rule:evenodd;fill:#96341D;}
	.st22{fill-rule:evenodd;clip-rule:evenodd;fill:#D55F11;}
	.st23{fill-rule:evenodd;clip-rule:evenodd;fill:#B39480;}
	.st24{fill-rule:evenodd;clip-rule:evenodd;fill:#DA870C;}
	.st25{fill-rule:evenodd;clip-rule:evenodd;fill:#D07315;}
	.st26{fill-rule:evenodd;clip-rule:evenodd;fill:#554E44;}
	.st27{fill-rule:evenodd;clip-rule:evenodd;fill:#464039;}
	.st28{fill-rule:evenodd;clip-rule:evenodd;fill:#2C2621;}
	.st29{fill-rule:evenodd;clip-rule:evenodd;fill:#F4F2F0;}
	.st30{fill-rule:evenodd;clip-rule:evenodd;fill:#C1B5A4;}
	.st31{fill-rule:evenodd;clip-rule:evenodd;fill:#E3DCD7;}
	.st32{fill-rule:evenodd;clip-rule:evenodd;fill:#333333;}
	.st33{clip-path:url(#SVGID_6_);}
	.st34{clip-path:url(#SVGID_8_);}
	.st35{clip-path:url(#SVGID_10_);}
</style>
<g id="_x32__x5F_2">
</g>
<g id="_x31__x5F_2">
	<g>
		<defs>
			<path id="SVGID_3_" d="M100,0H0v50h15c0,5.5,4.5,10,10,10c5.5,0,10-4.5,10-10h65V0z"/>
		</defs>
		<clipPath id="SVGID_2_">
			<use xlink:href="#SVGID_3_"  style="overflow:visible;"/>
		</clipPath>
		<g class="st0">
			<rect x="0" class="st13" width="100" height="100"/>
			<g>
				<polygon class="st14" points="84.4,62.4 34.9,88.5 10.1,75.5 59.7,49.3 				"/>
				<g>
					<polygon class="st15" points="36.3,56.6 29.9,60 23.5,56.6 29.9,53.2 					"/>
					<polygon class="st16" points="29.9,68.2 23.5,64.8 23.5,56.6 29.9,60 					"/>
					<polygon class="st17" points="29.9,68.2 29.9,60 36.3,56.6 36.3,64.8 					"/>
				</g>
				<g>
					<polygon class="st15" points="39.4,64.9 33,61.5 39.4,58.2 45.8,61.5 					"/>
				</g>
				<g>
					<polygon class="st15" points="61.1,53.1 54.7,56.5 48.3,53.1 48.3,43.6 54.7,40.2 61.1,43.6 					"/>
					<polygon class="st19" points="48.3,53.1 54.7,56.5 61.1,53.1 61.1,60.5 54.7,63.9 48.3,60.5 					"/>
				</g>
				<g>
					<polygon class="st15" points="71.1,48.2 64.7,51.6 58.3,48.2 64.7,44.9 					"/>
					<polygon class="st16" points="58.3,48.2 64.7,51.6 64.7,61.1 58.3,57.7 					"/>
					<polygon class="st17" points="64.7,51.6 71.1,48.2 71.1,57.7 64.7,61.1 					"/>
					<polygon class="st18" points="64.7,61.1 64.7,68.5 58.3,65.1 58.3,57.7 					"/>
					<polygon class="st19" points="64.7,68.5 64.7,61.1 71.1,57.7 71.1,65.1 					"/>
				</g>
				<g>
					<polygon class="st20" points="90.1,29.1 75.9,24.4 97.3,18.5 					"/>
					<polygon class="st21" points="62.8,29.1 90.1,29.1 85.2,42.6 65.1,32.6 					"/>
					<polygon class="st22" points="62.8,29.1 60.7,25.6 75.9,24.4 90.1,29.1 					"/>
					<polygon class="st23" points="97.3,18.5 85.2,42.6 90.1,29.1 					"/>
				</g>
				<g>
					<path class="st15" d="M71.1,45.1L39.4,61.8V46l31.7-16.7V45.1z M31.5,41.8l-8,14.8V37.6L31.5,41.8L31.5,41.8z"/>
					<polygon class="st24" points="71.1,29.3 39.4,46 31.5,41.8 23.5,37.6 55.3,20.9 					"/>
					<polygon class="st16" points="23.5,56.6 31.5,41.8 39.4,61.8 39.4,64.9 					"/>
					<polygon class="st17" points="39.4,61.8 71.1,45.1 71.1,48.2 39.4,64.9 					"/>
					<polygon class="st22" points="39.4,46 39.4,61.8 31.5,41.8 31.5,41.8 					"/>
				</g>
				<g>
					<polygon class="st15" points="39.7,47.6 27.2,54.2 27.2,37.7 39.7,31.2 39.7,31.2 					"/>
					<polygon class="st25" points="27.2,37.7 27.2,54.2 22.9,51.9 18.6,53.3 10.3,49 10.3,28.9 					"/>
					<polygon class="st24" points="39.7,31.2 27.2,37.7 10.3,28.9 22.9,22.3 					"/>
					<polygon class="st16" points="27.2,54.2 27.2,57.8 18.6,53.3 22.9,51.9 					"/>
					<polygon class="st17" points="27.2,54.2 39.7,47.6 39.7,51.3 27.2,57.8 					"/>
				</g>
				<polygon class="st15" points="13,34.4 15.2,33.2 19.6,35.5 19.6,36.3 20.4,35.9 24.8,38.3 24.8,43.5 22.6,44.7 18.2,42.3 
					18.2,41.5 17.4,41.9 13,39.6 				"/>
				<g>
					<polygon class="st15" points="11,51.7 22.9,45.4 22.9,51.9 8.7,56.6 					"/>
					<polygon class="st17" points="8.7,56.6 22.9,51.9 22.9,55.6 8.7,59.3 					"/>
					<polygon class="st16" points="3.3,53.8 8.7,56.6 8.7,59.3 3.3,56.5 					"/>
					<polygon class="st24" points="11,51.7 5.1,48.5 14.3,40.9 22.9,45.4 					"/>
					<polygon class="st26" points="5.1,48.5 11,51.7 8.7,52.9 3.3,50.1 					"/>
					<polygon class="st27" points="8.7,56.6 3.3,53.8 3.3,50.1 8.7,52.9 					"/>
					<polygon class="st28" points="11,51.7 8.7,56.6 8.7,52.9 					"/>
				</g>
				<g>
					<polygon class="st15" points="22.9,19.7 22.9,28.9 19.9,30.4 19.9,21.2 					"/>
					<polygon class="st24" points="19.9,21.2 14,18.1 17,16.6 22.9,19.7 22.9,19.7 					"/>
					<polygon class="st16" points="18.1,29.5 15.4,28.1 15.4,21.6 18.1,23.1 					"/>
					<polygon class="st22" points="19.9,30.4 18.9,29.9 18.4,29.6 18.1,29.5 18.1,23.1 15.4,21.6 15.4,28.1 14,27.4 14,18.1 
						19.9,21.2 					"/>
				</g>
				<g>
					<polygon class="st15" points="29.7,26.3 32.7,24.7 32.7,34 29.7,35.5 					"/>
					<polygon class="st24" points="32.7,24.7 29.7,26.3 23.8,23.2 26.8,21.6 32.7,24.7 					"/>
					<polygon class="st16" points="27.9,34.6 25.2,33.1 25.2,26.7 27.9,28.1 					"/>
					<polygon class="st22" points="29.7,26.3 29.7,35.5 28.7,35 28.2,34.7 27.9,34.6 27.9,28.1 25.2,26.7 25.2,33.1 23.8,32.4 
						23.8,23.2 					"/>
				</g>
				<g>
					<g>
						<g>
							<polygon class="st29" points="18.7,35.2 16.5,36.4 12.1,34.1 14.4,32.9 							"/>
							<polygon class="st30" points="18.7,35.2 18.7,40.5 16.5,41.6 16.5,36.4 							"/>
							<polygon class="st31" points="16.5,36.4 16.5,41.6 12.1,39.3 12.1,34.1 							"/>
						</g>
						<polygon class="st32" points="13.4,38.5 13.4,36.2 15.4,37.2 15.4,39.5 						"/>
					</g>
					<g>
						<g>
							<polygon class="st29" points="23.9,38 21.7,39.1 17.3,36.8 19.5,35.6 							"/>
							<polygon class="st30" points="23.9,38 23.9,43.2 21.7,44.4 21.7,39.1 							"/>
							<polygon class="st31" points="21.7,39.1 21.7,44.4 17.3,42.1 17.3,36.8 							"/>
						</g>
						<polygon class="st32" points="18.5,41.2 18.5,38.9 20.5,39.9 20.5,42.3 						"/>
					</g>
				</g>
			</g>
		</g>
		<g class="st0">
			<rect x="0" y="0" class="st1" width="100" height="100"/>
			<g>
				<g>
					<polygon class="st6" points="51.1,58.6 46.7,60.9 46.7,76.5 42.3,74.2 42.3,58.6 46.7,56.3 					"/>
					<polygon class="st7" points="46.7,76.5 46.7,60.9 51.1,58.6 51.1,74.2 					"/>
				</g>
				<g>
					<polygon class="st5" points="78,34.2 78,58.7 48.3,74.4 48.3,26.9 48.5,26.7 72,14.4 72,31 72,37.3 					"/>
					<polygon class="st4" points="24.6,14.4 48.3,26.9 48.3,74.4 24.6,61.9 					"/>
					<path class="st3" d="M24.6,14.4L48.3,1.9L72,14.4L48.5,26.7l-0.2,0.1L24.6,14.4z M78,34.2l-6,3.1V31L78,34.2z"/>
				</g>
				<g>
					<polygon class="st5" points="62.3,51.5 78.1,43.2 78.1,52.6 62.3,60.9 					"/>
					<polygon class="st3" points="62.3,51.5 54.4,47.3 70.2,39 78.1,43.2 					"/>
					<polygon class="st4" points="54.4,47.3 62.3,51.5 62.3,60.9 54.4,56.7 					"/>
				</g>
				<g>
					<polygon class="st5" points="60.6,27.3 60.6,33.7 55.2,36.5 55.2,30.1 					"/>
					<polygon class="st3" points="60.6,27.3 55.2,30.1 52.5,28.7 57.9,25.9 					"/>
					<polygon class="st4" points="55.2,36.5 52.5,35.1 52.5,28.7 55.2,30.1 					"/>
				</g>
				<polygon class="st8" points="59.1,32.7 59.1,29.9 56.7,31.1 56.7,34 				"/>
				<g>
					<polygon class="st9" points="42.4,36.9 29.4,43.7 19.4,38.4 32.3,31.6 					"/>
					<polygon class="st10" points="29.4,43.7 42.4,36.9 42.4,41.2 29.4,48.1 					"/>
					<polygon class="st11" points="19.4,38.4 29.4,43.7 29.4,48.1 19.4,42.8 					"/>
				</g>
			</g>
		</g>
	</g>
</g>
<g id="_x33__x5F_3">
</g>
<g id="_x32__x5F_3">
</g>
<g id="_x31__x5F_3">
</g>
</svg>
