<?xml version="1.0" encoding="utf-8"?>
<!-- Generator: Adobe Illustrator 22.0.1, SVG Export Plug-In . SVG Version: 6.00 Build 0)  -->
<svg version="1.1" xmlns="http://www.w3.org/2000/svg" xmlns:xlink="http://www.w3.org/1999/xlink" x="0px" y="0px" width="100px"
	 height="49.9px" viewBox="0 0 100 49.9" style="enable-background:new 0 0 100 49.9;" xml:space="preserve">
<style type="text/css">
	.st0{clip-path:url(#SVGID_2_);}
	.st1{fill-rule:evenodd;clip-rule:evenodd;fill:#E44923;}
	.st2{fill-rule:evenodd;clip-rule:evenodd;fill:#AE3315;}
	.st3{fill-rule:evenodd;clip-rule:evenodd;fill:#F9EA7E;}
	.st4{fill-rule:evenodd;clip-rule:evenodd;fill:#E9D21B;}
	.st5{fill-rule:evenodd;clip-rule:evenodd;fill:#E6AB28;}
	.st6{fill-rule:evenodd;clip-rule:evenodd;fill:#9A886D;}
	.st7{fill-rule:evenodd;clip-rule:evenodd;fill:#554A3C;}
	.st8{fill-rule:evenodd;clip-rule:evenodd;fill:#34433A;}
	.st9{fill-rule:evenodd;clip-rule:evenodd;fill:#E56B4B;}
	.st10{fill-rule:evenodd;clip-rule:evenodd;fill:#CE2020;}
	.st11{fill-rule:evenodd;clip-rule:evenodd;fill:#DF3131;}
	.st12{clip-path:url(#SVGID_4_);}
	.st13{fill-rule:evenodd;clip-rule:evenodd;fill:#BDAB64;}
	.st14{fill-rule:evenodd;clip-rule:evenodd;fill:#9E7B47;}
	.st15{fill-rule:evenodd;clip-rule:evenodd;fill:#C14324;}
	.st16{fill-rule:evenodd;clip-rule:evenodd;fill:#E3D8CE;}
	.st17{fill-rule:evenodd;clip-rule:evenodd;fill:#BDA58E;}
	.st18{fill-rule:evenodd;clip-rule:evenodd;fill:#6A5140;}
	.st19{fill-rule:evenodd;clip-rule:evenodd;fill:#3A2C23;}
	.st20{fill-rule:evenodd;clip-rule:evenodd;fill:#E0D1C9;}
	.st21{fill-rule:evenodd;clip-rule:evenodd;fill:#96341D;}
	.st22{fill-rule:evenodd;clip-rule:evenodd;fill:#D55F11;}
	.st23{fill-rule:evenodd;clip-rule:evenodd;fill:#B39480;}
	.st24{fill-rule:evenodd;clip-rule:evenodd;fill:#DA870C;}
	.st25{fill-rule:evenodd;clip-rule:evenodd;fill:#D07315;}
	.st26{fill-rule:evenodd;clip-rule:evenodd;fill:#554E44;}
	.st27{fill-rule:evenodd;clip-rule:evenodd;fill:#464039;}
	.st28{fill-rule:evenodd;clip-rule:evenodd;fill:#2C2621;}
	.st29{fill-rule:evenodd;clip-rule:evenodd;fill:#F4F2F0;}
	.st30{fill-rule:evenodd;clip-rule:evenodd;fill:#C1B5A4;}
	.st31{fill-rule:evenodd;clip-rule:evenodd;fill:#E3DCD7;}
	.st32{fill-rule:evenodd;clip-rule:evenodd;fill:#333333;}
	.st33{clip-path:url(#SVGID_6_);}
	.st34{clip-path:url(#SVGID_8_);}
	.st35{clip-path:url(#SVGID_10_);}
</style>
<g id="_x32__x5F_2">
	<g>
		<defs>
			<path id="SVGID_1_" d="M35,0C35,0,35,0,35,0c0,5.5-4.5,10-10,10c-5.5,0-10-4.5-10-10c0,0,0,0,0,0H0v50h100V0H35z"/>
		</defs>
		<clipPath id="SVGID_2_">
			<use xlink:href="#SVGID_1_"  style="overflow:visible;"/>
		</clipPath>
		<g class="st0">
			<rect x="0" y="-50" class="st1" width="100" height="100"/>
			<g>
				<polygon class="st2" points="54,48.2 44.4,48.2 16.8,33.7 54.8,13.7 87.1,30.8 				"/>
				<g>
					<polygon class="st3" points="32.7,26.6 44.8,20.2 55.1,25.7 43,32 39.2,30 39.2,30 43.4,27.8 40.8,26.4 36.6,28.6 36.6,28.6 
											"/>
					<path class="st4" d="M39.2,30.3V30l3.9,2v3l-3.9-2V30.3z M36.6,31.6l-3.9-2v-3l3.9,2h0V31.6z"/>
					<path class="st5" d="M43,35v-3l12.1-6.4v3L43,35z M39.2,30.3l-2.6,1.3v-3l4.2-2.2l2.6,1.4L39.2,30l0,0V30.3z"/>
				</g>
				<g>
					<polygon class="st3" points="44.3,32.6 56.4,26.2 66.8,31.7 54.7,38 50.8,36 50.8,36 55,33.8 52.4,32.4 48.2,34.7 48.2,34.7 
											"/>
					<path class="st4" d="M50.8,36.3V36l3.9,2v3l-3.9-2V36.3z M48.2,37.6l-3.9-2v-3l3.9,2h0V37.6z"/>
					<path class="st5" d="M54.7,41v-3l12.1-6.4v3L54.7,41z M50.8,36.3l-2.6,1.3v-3l4.2-2.2l2.6,1.4L50.8,36l0,0V36.3z"/>
				</g>
				<g>
					<polygon class="st6" points="51.1,8.6 46.7,10.9 46.7,26.5 42.3,24.2 42.3,8.6 46.7,6.3 					"/>
					<polygon class="st7" points="46.7,26.5 46.7,10.9 51.1,8.6 51.1,24.2 					"/>
				</g>
				<g>
					<polygon class="st6" points="62.3,14.9 57.9,17.2 57.9,32.8 53.6,30.5 53.6,14.9 57.9,12.6 					"/>
					<polygon class="st7" points="57.9,32.8 57.9,17.2 62.3,14.9 62.3,30.5 					"/>
				</g>
				<g>
					<polygon class="st5" points="78,-15.8 78,8.7 48.3,24.4 48.3,-23.1 48.5,-23.3 72,-35.6 72,-19 72,-12.7 					"/>
					<polygon class="st4" points="24.6,-35.6 48.3,-23.1 48.3,24.4 24.6,11.9 					"/>
				</g>
				<g>
					<polygon class="st5" points="62.3,1.5 78.1,-6.8 78.1,2.6 62.3,10.9 					"/>
					<polygon class="st3" points="62.3,1.5 54.4,-2.7 70.2,-11 78.1,-6.8 					"/>
					<polygon class="st4" points="54.4,-2.7 62.3,1.5 62.3,10.9 54.4,6.7 					"/>
				</g>
			</g>
		</g>
	</g>
</g>
<g id="_x31__x5F_2">
</g>
<g id="_x33__x5F_3">
</g>
<g id="_x32__x5F_3">
</g>
<g id="_x31__x5F_3">
</g>
</svg>
