<?xml version="1.0" encoding="utf-8"?>
<!-- Generator: Adobe Illustrator 22.0.1, SVG Export Plug-In . SVG Version: 6.00 Build 0)  -->
<svg version="1.1" xmlns="http://www.w3.org/2000/svg" xmlns:xlink="http://www.w3.org/1999/xlink" x="0px" y="0px" width="100px"
	 height="43.4px" viewBox="0 0 100 43.4" style="enable-background:new 0 0 100 43.4;" xml:space="preserve">
<style type="text/css">
	.st0{clip-path:url(#SVGID_2_);}
	.st1{fill-rule:evenodd;clip-rule:evenodd;fill:#E44923;}
	.st2{fill-rule:evenodd;clip-rule:evenodd;fill:#AE3315;}
	.st3{fill-rule:evenodd;clip-rule:evenodd;fill:#F9EA7E;}
	.st4{fill-rule:evenodd;clip-rule:evenodd;fill:#E9D21B;}
	.st5{fill-rule:evenodd;clip-rule:evenodd;fill:#E6AB28;}
	.st6{fill-rule:evenodd;clip-rule:evenodd;fill:#9A886D;}
	.st7{fill-rule:evenodd;clip-rule:evenodd;fill:#554A3C;}
	.st8{fill-rule:evenodd;clip-rule:evenodd;fill:#34433A;}
	.st9{fill-rule:evenodd;clip-rule:evenodd;fill:#E56B4B;}
	.st10{fill-rule:evenodd;clip-rule:evenodd;fill:#CE2020;}
	.st11{fill-rule:evenodd;clip-rule:evenodd;fill:#DF3131;}
	.st12{clip-path:url(#SVGID_4_);}
	.st13{fill-rule:evenodd;clip-rule:evenodd;fill:#BDAB64;}
	.st14{fill-rule:evenodd;clip-rule:evenodd;fill:#9E7B47;}
	.st15{fill-rule:evenodd;clip-rule:evenodd;fill:#C14324;}
	.st16{fill-rule:evenodd;clip-rule:evenodd;fill:#E3D8CE;}
	.st17{fill-rule:evenodd;clip-rule:evenodd;fill:#BDA58E;}
	.st18{fill-rule:evenodd;clip-rule:evenodd;fill:#6A5140;}
	.st19{fill-rule:evenodd;clip-rule:evenodd;fill:#3A2C23;}
	.st20{fill-rule:evenodd;clip-rule:evenodd;fill:#E0D1C9;}
	.st21{fill-rule:evenodd;clip-rule:evenodd;fill:#96341D;}
	.st22{fill-rule:evenodd;clip-rule:evenodd;fill:#D55F11;}
	.st23{fill-rule:evenodd;clip-rule:evenodd;fill:#B39480;}
	.st24{fill-rule:evenodd;clip-rule:evenodd;fill:#DA870C;}
	.st25{fill-rule:evenodd;clip-rule:evenodd;fill:#D07315;}
	.st26{fill-rule:evenodd;clip-rule:evenodd;fill:#554E44;}
	.st27{fill-rule:evenodd;clip-rule:evenodd;fill:#464039;}
	.st28{fill-rule:evenodd;clip-rule:evenodd;fill:#2C2621;}
	.st29{fill-rule:evenodd;clip-rule:evenodd;fill:#F4F2F0;}
	.st30{fill-rule:evenodd;clip-rule:evenodd;fill:#C1B5A4;}
	.st31{fill-rule:evenodd;clip-rule:evenodd;fill:#E3DCD7;}
	.st32{fill-rule:evenodd;clip-rule:evenodd;fill:#333333;}
	.st33{clip-path:url(#SVGID_6_);}
	.st34{clip-path:url(#SVGID_8_);}
	.st35{clip-path:url(#SVGID_10_);}
</style>
<g id="_x32__x5F_2">
</g>
<g id="_x31__x5F_2">
</g>
<g id="_x33__x5F_3">
</g>
<g id="_x32__x5F_3">
	<g>
		<g>
			<defs>
				<path id="SVGID_7_" d="M35,0C35,0,35,0,35,0c0,5.5-4.5,10-10,10S15,5.5,15,0c0,0,0,0,0,0H0v33.3h15c0,5.5,4.5,10,10,10
					s10-4.5,10-10h65V0H35z"/>
			</defs>
			<clipPath id="SVGID_2_">
				<use xlink:href="#SVGID_7_"  style="overflow:visible;"/>
			</clipPath>
			<g class="st0">
				<rect y="-33.3" class="st13" width="100" height="100"/>
				<g>
					<polygon class="st14" points="84.4,29.1 34.9,55.1 10.1,42.1 59.7,16 					"/>
					<g>
						<polygon class="st15" points="36.3,23.3 29.9,26.6 23.5,23.3 29.9,19.9 						"/>
						<polygon class="st16" points="29.9,34.9 23.5,31.5 23.5,23.3 29.9,26.6 						"/>
						<polygon class="st17" points="29.9,34.9 29.9,26.6 36.3,23.3 36.3,31.5 						"/>
						<polygon class="st18" points="23.5,31.5 29.9,34.9 29.9,43.5 23.5,40.1 						"/>
						<polygon class="st19" points="29.9,43.5 29.9,34.9 36.3,31.5 36.3,40.1 						"/>
					</g>
					<g>
						<polygon class="st15" points="39.4,31.6 33,28.2 39.4,24.8 45.8,28.2 						"/>
						<polygon class="st16" points="39.4,39.7 33,36.3 33,28.2 39.4,31.6 						"/>
						<polygon class="st17" points="45.8,36.3 39.4,39.7 39.4,31.6 45.8,28.2 						"/>
						<polygon class="st18" points="33,36.3 39.4,39.7 39.4,48.5 33,45.1 						"/>
						<polygon class="st19" points="39.4,48.5 39.4,39.7 45.8,36.3 45.8,45.1 						"/>
					</g>
					<g>
						<polygon class="st15" points="61.1,19.7 54.7,23.1 48.3,19.7 48.3,10.3 54.7,6.9 61.1,10.3 						"/>
						<polygon class="st19" points="48.3,19.7 54.7,23.1 61.1,19.7 61.1,27.2 54.7,30.5 48.3,27.2 						"/>
					</g>
					<g>
						<polygon class="st15" points="71.1,14.9 64.7,18.3 58.3,14.9 64.7,11.5 						"/>
						<polygon class="st16" points="58.3,14.9 64.7,18.3 64.7,27.8 58.3,24.4 						"/>
						<polygon class="st17" points="64.7,18.3 71.1,14.9 71.1,24.4 64.7,27.8 						"/>
						<polygon class="st18" points="64.7,27.8 64.7,35.2 58.3,31.8 58.3,24.4 						"/>
						<polygon class="st19" points="64.7,35.2 64.7,27.8 71.1,24.4 71.1,31.8 						"/>
					</g>
					<g>
						<polygon class="st21" points="62.8,-4.2 90.1,-4.2 85.2,9.3 65.1,-0.7 						"/>
						<polygon class="st23" points="97.3,-14.9 85.2,9.3 90.1,-4.2 						"/>
					</g>
					<g>
						<path class="st15" d="M71.1,11.8L39.4,28.5V12.6L71.1-4V11.8z M31.5,8.5l-8,14.8V4.3L31.5,8.5L31.5,8.5z"/>
						<polygon class="st24" points="71.1,-4 39.4,12.6 31.5,8.5 23.5,4.3 55.3,-12.4 						"/>
						<polygon class="st16" points="23.5,23.3 31.5,8.5 39.4,28.5 39.4,31.6 						"/>
						<polygon class="st17" points="39.4,28.5 71.1,11.8 71.1,14.9 39.4,31.6 						"/>
						<polygon class="st22" points="39.4,12.6 39.4,28.5 31.5,8.5 31.5,8.5 						"/>
					</g>
					<g>
						<polygon class="st15" points="39.7,14.3 27.2,20.9 27.2,4.4 39.7,-2.1 39.7,-2.1 						"/>
						<polygon class="st25" points="27.2,4.4 27.2,20.9 22.9,18.6 18.6,20 10.3,15.7 10.3,-4.4 						"/>
						<polygon class="st24" points="39.7,-2.1 27.2,4.4 10.3,-4.4 22.9,-11 						"/>
						<polygon class="st16" points="27.2,20.9 27.2,24.5 18.6,20 22.9,18.6 						"/>
						<polygon class="st17" points="27.2,20.9 39.7,14.3 39.7,18 27.2,24.5 						"/>
					</g>
					<polygon class="st15" points="13,1 15.2,-0.1 19.6,2.2 19.6,3 20.4,2.6 24.8,4.9 24.8,10.2 22.6,11.3 18.2,9 18.2,8.2 
						17.4,8.6 13,6.3 					"/>
					<g>
						<polygon class="st15" points="11,18.3 22.9,12.1 22.9,18.6 8.7,23.3 						"/>
						<polygon class="st17" points="8.7,23.3 22.9,18.6 22.9,22.2 8.7,25.9 						"/>
						<polygon class="st16" points="3.3,20.5 8.7,23.3 8.7,25.9 3.3,23.1 						"/>
						<polygon class="st24" points="11,18.3 5.1,15.2 14.3,7.6 22.9,12.1 						"/>
						<polygon class="st26" points="5.1,15.2 11,18.3 8.7,19.5 3.3,16.7 						"/>
						<polygon class="st27" points="8.7,23.3 3.3,20.5 3.3,16.7 8.7,19.5 						"/>
						<polygon class="st28" points="11,18.3 8.7,23.3 8.7,19.5 						"/>
					</g>
					<g>
						<polygon class="st15" points="29.7,-7.1 32.7,-8.6 32.7,0.6 29.7,2.2 						"/>
						<polygon class="st16" points="27.9,1.2 25.2,-0.2 25.2,-6.7 27.9,-5.2 						"/>
						<polygon class="st22" points="29.7,-7.1 29.7,2.2 28.7,1.6 28.2,1.4 27.9,1.2 27.9,-5.2 25.2,-6.7 25.2,-0.2 23.8,-0.9 
							23.8,-10.1 						"/>
					</g>
					<g>
						<g>
							<g>
								<polygon class="st29" points="18.7,1.9 16.5,3.1 12.1,0.7 14.4,-0.4 								"/>
								<polygon class="st30" points="18.7,1.9 18.7,7.2 16.5,8.3 16.5,3.1 								"/>
								<polygon class="st31" points="16.5,3.1 16.5,8.3 12.1,6 12.1,0.7 								"/>
							</g>
							<polygon class="st32" points="13.4,5.1 13.4,2.8 15.4,3.9 15.4,6.2 							"/>
						</g>
						<g>
							<g>
								<polygon class="st29" points="23.9,4.6 21.7,5.8 17.3,3.5 19.5,2.3 								"/>
								<polygon class="st30" points="23.9,4.6 23.9,9.9 21.7,11 21.7,5.8 								"/>
								<polygon class="st31" points="21.7,5.8 21.7,11 17.3,8.7 17.3,3.5 								"/>
							</g>
							<polygon class="st32" points="18.5,7.9 18.5,5.6 20.5,6.6 20.5,8.9 							"/>
						</g>
					</g>
				</g>
			</g>
			<g class="st0">
				<rect y="-33.3" class="st1" width="100" height="100"/>
				<g>
					<polygon class="st2" points="54,64.9 44.4,64.9 16.8,50.4 54.8,30.4 87.1,47.4 					"/>
					<g>
						<polygon class="st3" points="32.7,43.3 44.8,36.9 55.1,42.3 43,48.7 39.2,46.7 39.2,46.7 43.4,44.4 40.8,43.1 36.6,45.3 
							36.6,45.3 						"/>
						<path class="st4" d="M39.2,47v-0.3l3.9,2v3l-3.9-2V47z M36.6,48.3l-3.9-2v-3l3.9,2h0V48.3z"/>
						<path class="st5" d="M43,51.7v-3l12.1-6.4v3L43,51.7z M39.2,47l-2.6,1.3v-3l4.2-2.2l2.6,1.4l-4.2,2.2l0,0V47z"/>
					</g>
					<g>
						<polygon class="st3" points="44.3,49.3 56.4,42.9 66.8,48.4 54.7,54.7 50.8,52.7 50.8,52.7 55,50.5 52.4,49.1 48.2,51.3 
							48.2,51.3 						"/>
					</g>
					<g>
						<polygon class="st6" points="51.1,25.3 46.7,27.6 46.7,43.2 42.3,40.9 42.3,25.3 46.7,23 						"/>
						<polygon class="st7" points="46.7,43.2 46.7,27.6 51.1,25.3 51.1,40.9 						"/>
					</g>
					<g>
						<polygon class="st6" points="62.3,31.5 57.9,33.8 57.9,49.5 53.6,47.2 53.6,31.5 57.9,29.2 						"/>
						<polygon class="st7" points="57.9,49.5 57.9,33.8 62.3,31.5 62.3,47.2 						"/>
					</g>
					<g>
						<polygon class="st5" points="78,0.8 78,25.4 48.3,41.1 48.3,-6.5 48.5,-6.6 72,-19 72,-2.3 72,4 						"/>
						<polygon class="st4" points="24.6,-19 48.3,-6.5 48.3,41.1 24.6,28.6 						"/>
						<path class="st3" d="M24.6-19l23.7-12.5L72-19L48.5-6.6l-0.2,0.1L24.6-19z M78,0.8L72,4v-6.3L78,0.8z"/>
					</g>
					<g>
						<polygon class="st5" points="62.3,18.1 78.1,9.9 78.1,19.3 62.3,27.5 						"/>
						<polygon class="st3" points="62.3,18.1 54.4,14 70.2,5.7 78.1,9.9 						"/>
						<polygon class="st4" points="54.4,14 62.3,18.1 62.3,27.5 54.4,23.4 						"/>
					</g>
					<g>
						<polygon class="st5" points="60.6,-6.1 60.6,0.4 55.2,3.2 55.2,-3.2 						"/>
						<polygon class="st4" points="55.2,3.2 52.5,1.8 52.5,-4.6 55.2,-3.2 						"/>
					</g>
					<polygon class="st8" points="59.1,-0.6 59.1,-3.5 56.7,-2.2 56.7,0.6 					"/>
					<g>
						<polygon class="st9" points="42.4,3.6 29.4,10.4 19.4,5.1 32.3,-1.8 						"/>
						<polygon class="st10" points="29.4,10.4 42.4,3.6 42.4,7.9 29.4,14.7 						"/>
						<polygon class="st11" points="19.4,5.1 29.4,10.4 29.4,14.7 19.4,9.4 						"/>
					</g>
				</g>
			</g>
		</g>
	</g>
</g>
<g id="_x31__x5F_3">
</g>
</svg>
