<?xml version="1.0" encoding="utf-8"?>
<!-- Generator: Adobe Illustrator 22.0.1, SVG Export Plug-In . SVG Version: 6.00 Build 0)  -->
<svg version="1.1" xmlns="http://www.w3.org/2000/svg" xmlns:xlink="http://www.w3.org/1999/xlink" x="0px" y="0px" width="100px"
	 height="33.4px" viewBox="0 0 100 33.4" style="enable-background:new 0 0 100 33.4;" xml:space="preserve">
<style type="text/css">
	.st0{clip-path:url(#SVGID_2_);}
	.st1{fill-rule:evenodd;clip-rule:evenodd;fill:#E44923;}
	.st2{fill-rule:evenodd;clip-rule:evenodd;fill:#AE3315;}
	.st3{fill-rule:evenodd;clip-rule:evenodd;fill:#F9EA7E;}
	.st4{fill-rule:evenodd;clip-rule:evenodd;fill:#E9D21B;}
	.st5{fill-rule:evenodd;clip-rule:evenodd;fill:#E6AB28;}
	.st6{fill-rule:evenodd;clip-rule:evenodd;fill:#9A886D;}
	.st7{fill-rule:evenodd;clip-rule:evenodd;fill:#554A3C;}
	.st8{fill-rule:evenodd;clip-rule:evenodd;fill:#34433A;}
	.st9{fill-rule:evenodd;clip-rule:evenodd;fill:#E56B4B;}
	.st10{fill-rule:evenodd;clip-rule:evenodd;fill:#CE2020;}
	.st11{fill-rule:evenodd;clip-rule:evenodd;fill:#DF3131;}
	.st12{clip-path:url(#SVGID_4_);}
	.st13{fill-rule:evenodd;clip-rule:evenodd;fill:#BDAB64;}
	.st14{fill-rule:evenodd;clip-rule:evenodd;fill:#9E7B47;}
	.st15{fill-rule:evenodd;clip-rule:evenodd;fill:#C14324;}
	.st16{fill-rule:evenodd;clip-rule:evenodd;fill:#E3D8CE;}
	.st17{fill-rule:evenodd;clip-rule:evenodd;fill:#BDA58E;}
	.st18{fill-rule:evenodd;clip-rule:evenodd;fill:#6A5140;}
	.st19{fill-rule:evenodd;clip-rule:evenodd;fill:#3A2C23;}
	.st20{fill-rule:evenodd;clip-rule:evenodd;fill:#E0D1C9;}
	.st21{fill-rule:evenodd;clip-rule:evenodd;fill:#96341D;}
	.st22{fill-rule:evenodd;clip-rule:evenodd;fill:#D55F11;}
	.st23{fill-rule:evenodd;clip-rule:evenodd;fill:#B39480;}
	.st24{fill-rule:evenodd;clip-rule:evenodd;fill:#DA870C;}
	.st25{fill-rule:evenodd;clip-rule:evenodd;fill:#D07315;}
	.st26{fill-rule:evenodd;clip-rule:evenodd;fill:#554E44;}
	.st27{fill-rule:evenodd;clip-rule:evenodd;fill:#464039;}
	.st28{fill-rule:evenodd;clip-rule:evenodd;fill:#2C2621;}
	.st29{fill-rule:evenodd;clip-rule:evenodd;fill:#F4F2F0;}
	.st30{fill-rule:evenodd;clip-rule:evenodd;fill:#C1B5A4;}
	.st31{fill-rule:evenodd;clip-rule:evenodd;fill:#E3DCD7;}
	.st32{fill-rule:evenodd;clip-rule:evenodd;fill:#333333;}
	.st33{clip-path:url(#SVGID_6_);}
	.st34{clip-path:url(#SVGID_8_);}
	.st35{clip-path:url(#SVGID_10_);}
</style>
<g id="_x32__x5F_2">
</g>
<g id="_x31__x5F_2">
</g>
<g id="_x33__x5F_3">
	<g>
		<g>
			<defs>
				<path id="SVGID_5_" d="M35,0c0,5.5-4.5,10-10,10S15,5.5,15,0H0v33.3h100V0H35z"/>
			</defs>
			<clipPath id="SVGID_2_">
				<use xlink:href="#SVGID_5_"  style="overflow:visible;"/>
			</clipPath>
			<g class="st0">
				<rect x="0" y="-66.7" class="st13" width="100" height="100"/>
				<g>
					<polygon class="st14" points="84.4,-4.3 34.9,21.8 10.1,8.8 59.7,-17.4 					"/>
					<g>
						<polygon class="st16" points="29.9,1.5 23.5,-1.8 23.5,-10.1 29.9,-6.7 						"/>
						<polygon class="st17" points="29.9,1.5 29.9,-6.7 36.3,-10.1 36.3,-1.8 						"/>
						<polygon class="st18" points="23.5,-1.8 29.9,1.5 29.9,10.2 23.5,6.8 						"/>
						<polygon class="st19" points="29.9,10.2 29.9,1.5 36.3,-1.8 36.3,6.8 						"/>
					</g>
					<g>
						<polygon class="st16" points="39.4,6.4 33,3 33,-5.1 39.4,-1.8 						"/>
						<polygon class="st17" points="45.8,3 39.4,6.4 39.4,-1.8 45.8,-5.1 						"/>
						<polygon class="st18" points="33,3 39.4,6.4 39.4,15.1 33,11.7 						"/>
						<polygon class="st19" points="39.4,15.1 39.4,6.4 45.8,3 45.8,11.7 						"/>
					</g>
					<g>
						<polygon class="st18" points="64.7,-5.6 64.7,1.8 58.3,-1.6 58.3,-9 						"/>
						<polygon class="st19" points="64.7,1.8 64.7,-5.6 71.1,-9 71.1,-1.6 						"/>
					</g>
				</g>
			</g>
			<g class="st0">
				<rect x="0" y="-66.7" class="st1" width="100" height="100"/>
				<g>
					<polygon class="st2" points="54,31.6 44.4,31.6 16.8,17 54.8,-3 87.1,14.1 					"/>
					<g>
						<polygon class="st3" points="32.7,10 44.8,3.6 55.1,9 43,15.4 39.2,13.3 39.2,13.3 43.4,11.1 40.8,9.8 36.6,12 36.6,12 						
							"/>
						<path class="st4" d="M39.2,13.7v-0.3l3.9,2v3l-3.9-2V13.7z M36.6,14.9l-3.9-2v-3l3.9,2h0V14.9z"/>
						<path class="st5" d="M43,18.3v-3L55.1,9v3L43,18.3z M39.2,13.7l-2.6,1.3v-3l4.2-2.2l2.6,1.4l-4.2,2.2l0,0V13.7z"/>
					</g>
					<g>
						<polygon class="st3" points="44.3,16 56.4,9.6 66.8,15 54.7,21.4 50.8,19.4 50.8,19.3 55,17.1 52.4,15.8 48.2,18 48.2,18 
													"/>
						<path class="st4" d="M50.8,19.7v-0.3l3.9,2v3l-3.9-2V19.7z M48.2,20.9l-3.9-2v-3l3.9,2h0V20.9z"/>
						<path class="st5" d="M54.7,24.3v-3L66.8,15v3L54.7,24.3z M50.8,19.7l-2.6,1.3v-3l4.2-2.2l2.6,1.4l-4.2,2.2l0,0V19.7z"/>
					</g>
					<g>
						<polygon class="st6" points="51.1,-8.1 46.7,-5.8 46.7,9.9 42.3,7.6 42.3,-8.1 46.7,-10.4 						"/>
						<polygon class="st7" points="46.7,9.9 46.7,-5.8 51.1,-8.1 51.1,7.6 						"/>
					</g>
					<g>
						<polygon class="st6" points="62.3,-1.8 57.9,0.5 57.9,16.1 53.6,13.8 53.6,-1.8 57.9,-4.1 						"/>
						<polygon class="st7" points="57.9,16.1 57.9,0.5 62.3,-1.8 62.3,13.8 						"/>
					</g>
					<g>
						<polygon class="st5" points="78,-32.5 78,-7.9 48.3,7.7 48.3,-39.8 48.5,-39.9 72,-52.3 72,-35.6 72,-29.3 						"/>
						<polygon class="st4" points="24.6,-52.3 48.3,-39.8 48.3,7.7 24.6,-4.7 						"/>
					</g>
				</g>
			</g>
		</g>
	</g>
</g>
<g id="_x32__x5F_3">
</g>
<g id="_x31__x5F_3">
</g>
</svg>
