<?xml version="1.0" encoding="utf-8"?>
<!-- Generator: Adobe Illustrator 22.0.1, SVG Export Plug-In . SVG Version: 6.00 Build 0)  -->
<svg version="1.1" xmlns="http://www.w3.org/2000/svg" xmlns:xlink="http://www.w3.org/1999/xlink" x="0px" y="0px" width="100px"
	 height="60px" viewBox="0 0 100 60" style="enable-background:new 0 0 100 60;" xml:space="preserve">
<style type="text/css">
	.st0{clip-path:url(#SVGID_2_);}
	.st1{fill-rule:evenodd;clip-rule:evenodd;fill:#93CDDB;}
	.st2{fill-rule:evenodd;clip-rule:evenodd;fill:#7092B1;}
	.st3{fill-rule:evenodd;clip-rule:evenodd;fill:#4F4743;}
	.st4{fill-rule:evenodd;clip-rule:evenodd;fill:#A09388;}
	.st5{fill-rule:evenodd;clip-rule:evenodd;fill:#ABA398;}
	.st6{fill-rule:evenodd;clip-rule:evenodd;fill:#6D635D;}
	.st7{fill-rule:evenodd;clip-rule:evenodd;fill:#452F21;}
	.st8{fill-rule:evenodd;clip-rule:evenodd;}
	.st9{fill-rule:evenodd;clip-rule:evenodd;fill:#D9D6D0;}
	.st10{fill-rule:evenodd;clip-rule:evenodd;fill:#E9D21B;}
	.st11{fill-rule:evenodd;clip-rule:evenodd;fill:#E6AB28;}
	.st12{fill-rule:evenodd;clip-rule:evenodd;fill:#AC9C8E;}
	.st13{fill-rule:evenodd;clip-rule:evenodd;fill:#383330;}
	.st14{fill-rule:evenodd;clip-rule:evenodd;fill:#443933;}
	.st15{fill-rule:evenodd;clip-rule:evenodd;fill:#443733;}
	.st16{fill-rule:evenodd;clip-rule:evenodd;fill:#F9EA7E;}
	.st17{fill-rule:evenodd;clip-rule:evenodd;fill:#FFFFFF;}
	.st18{fill-rule:evenodd;clip-rule:evenodd;fill:#756A64;}
	.st19{fill-rule:evenodd;clip-rule:evenodd;fill:#5E5350;}
	.st20{fill-rule:evenodd;clip-rule:evenodd;fill:#3A3531;}
	.st21{fill-rule:evenodd;clip-rule:evenodd;fill:#77625A;}
	.st22{fill-rule:evenodd;clip-rule:evenodd;fill:#452C21;}
	.st23{fill-rule:evenodd;clip-rule:evenodd;fill:#41332E;}
	.st24{fill-rule:evenodd;clip-rule:evenodd;fill:#725752;}
	.st25{fill-rule:evenodd;clip-rule:evenodd;fill:#39B54A;}
	.st26{fill-rule:evenodd;clip-rule:evenodd;fill:#009245;}
	.st27{fill-rule:evenodd;clip-rule:evenodd;fill:#474747;}
	.st28{fill-rule:evenodd;clip-rule:evenodd;fill:#1A1A1A;}
	.st29{fill-rule:evenodd;clip-rule:evenodd;fill:#333333;}
	.st30{fill-rule:evenodd;clip-rule:evenodd;fill:#4D4D4D;}
	.st31{fill-rule:evenodd;clip-rule:evenodd;fill:#5E5E5E;}
	.st32{fill-rule:evenodd;clip-rule:evenodd;fill:#515151;}
	.st33{fill-rule:evenodd;clip-rule:evenodd;fill:#6F7070;}
	.st34{fill-rule:evenodd;clip-rule:evenodd;fill:#E8D521;}
	.st35{fill-rule:evenodd;clip-rule:evenodd;fill:#FCEE21;}
	.st36{fill-rule:evenodd;clip-rule:evenodd;fill:#EAD721;}
	.st37{fill-rule:evenodd;clip-rule:evenodd;fill:#2B2B2B;}
	.st38{opacity:0.7955;fill-rule:evenodd;clip-rule:evenodd;fill:#E6E6E6;}
	.st39{opacity:0.8033;fill-rule:evenodd;clip-rule:evenodd;fill:#B3B3B3;}
	.st40{opacity:0.801;fill-rule:evenodd;clip-rule:evenodd;fill:#CCCCCC;}
	.st41{opacity:0.8045;fill-rule:evenodd;clip-rule:evenodd;fill:#E6E6E6;}
	.st42{opacity:0.7966;fill-rule:evenodd;clip-rule:evenodd;fill:#B3B3B3;}
	.st43{opacity:0.8011;fill-rule:evenodd;clip-rule:evenodd;fill:#CCCCCC;}
	.st44{fill-rule:evenodd;clip-rule:evenodd;fill:#F4F2F0;}
	.st45{fill-rule:evenodd;clip-rule:evenodd;fill:#C1B5A4;}
	.st46{fill-rule:evenodd;clip-rule:evenodd;fill:#E3DCD7;}
	.st47{clip-path:url(#SVGID_4_);}
	.st48{clip-path:url(#SVGID_6_);}
	.st49{clip-path:url(#SVGID_8_);}
	.st50{clip-path:url(#SVGID_10_);}
</style>
<g id="_x32__x5F_2">
</g>
<g id="_x31__x5F_2">
	<g>
		<defs>
			<path id="SVGID_3_" d="M100,0H0v50h15c0,5.5,4.5,10,10,10c5.5,0,10-4.5,10-10h65V0z"/>
		</defs>
		<clipPath id="SVGID_2_">
			<use xlink:href="#SVGID_3_"  style="overflow:visible;"/>
		</clipPath>
		<g class="st0">
			<rect class="st1" width="100" height="100"/>
			<g>
				<g>
					<polygon class="st3" points="41.1,4.1 42.7,3.2 42.7,15.1 41.1,15.9 					"/>
					<polygon class="st4" points="42.7,3.2 41.1,4.1 37.9,2.4 39.5,1.5 42.7,3.2 					"/>
					<polygon class="st5" points="40.1,15.4 38.6,14.6 38.6,4.7 40.1,5.5 					"/>
					<polygon class="st6" points="41.1,4.1 41.1,15.9 40.5,15.6 40.2,15.5 40.1,15.4 40.1,5.6 38.6,4.7 38.6,14.6 37.9,14.2 
						37.9,2.4 					"/>
				</g>
				<g>
					<polygon class="st9" points="69.9,35.6 74.3,33.3 78.6,35.6 78.6,62.5 74.3,64.8 74.3,37.9 					"/>
					<polygon class="st5" points="74.3,64.8 69.9,62.5 69.9,35.6 74.3,37.9 					"/>
				</g>
				<g>
					<polygon class="st10" points="67.1,55.9 62.8,58.3 62.8,31.4 58.4,29.1 62.8,26.8 67.1,29.1 					"/>
					<polygon class="st11" points="58.4,29.1 62.8,31.4 62.8,58.3 58.4,55.9 					"/>
					<polygon class="st12" points="62.8,67.9 58.4,65.6 58.4,55.9 62.8,58.3 					"/>
					<polygon class="st9" points="67.1,55.9 67.1,65.6 62.8,67.9 62.8,58.3 					"/>
				</g>
				<g>
					<polygon class="st9" points="46.8,79.5 42.4,81.9 42.4,31.3 38.1,29 42.4,26.7 46.8,29 					"/>
					<polygon class="st5" points="38.1,79.5 38.1,29 42.4,31.3 42.4,81.9 					"/>
				</g>
				<g>
					<polygon class="st9" points="26.6,22.5 30.9,20.2 35.3,22.5 35.3,73 30.9,75.3 30.9,24.8 					"/>
					<polygon class="st5" points="30.9,75.3 26.6,73 26.6,22.5 30.9,24.8 					"/>
				</g>
				<g>
					<polygon class="st10" points="72.7,29.7 72.7,35.9 68,33.4 68,27.2 					"/>
					<polygon class="st13" points="78.2,26.8 72.7,29.7 68,27.2 73.5,24.3 					"/>
					<polygon class="st3" points="72.7,35.9 72.7,29.7 78.2,26.8 78.2,32.9 					"/>
				</g>
				<g>
					<polygon class="st6" points="44.7,52.5 25.4,42.3 60.9,23.5 80.2,33.7 					"/>
					<polygon class="st9" points="44.7,75.6 44.7,52.5 80.2,33.7 80.2,56.9 					"/>
					<polygon class="st5" points="44.7,75.6 25.4,65.5 25.4,42.3 44.7,52.5 					"/>
				</g>
				<g>
					<polygon class="st14" points="54.2,17.1 46.5,21.1 40,24.6 40,16.9 52.7,10.7 					"/>
					<polygon class="st15" points="46.5,21.1 54.2,17.1 54.2,38.4 50,41.4 					"/>
				</g>
				<g>
					<polygon class="st3" points="30.2,30.9 30.2,30.9 43.6,23.8 53.5,29.1 53.5,31.2 53.5,32.7 53.5,34.4 53.5,35.9 53.5,37.7 
						53.5,39.2 53.5,43 40.1,50.1 40.1,36.2 					"/>
					<polygon class="st13" points="40.1,50.1 30.2,44.8 30.2,30.9 40.1,36.2 					"/>
				</g>
				<polygon class="st13" points="44.7,52.5 44.7,62.8 44.7,73.2 25.4,63 25.4,42.3 				"/>
				<g>
					<path class="st3" d="M40.1,36.2V22.3l10.6-5.6l2.9,12.4C51.6,31.4,47.1,33.7,40.1,36.2z"/>
					<path class="st6" d="M50.6,16.7l-10.6,5.6v13.9l-9.9-5.2V19.6V17v0l10.5-5.6L50.6,16.7z M33.4,23.2l4.2-2.3L33.4,23.2z
						 M30.2,19.6l2.4-1.3L30.2,19.6z"/>
					<g>
						<path d="M33.1,23.4c-0.1-0.1,0-0.3,0.1-0.4l0,0l4.1-2.3c0.1-0.1,0.3,0,0.4,0.1l0,0c0.1,0.1,0,0.3-0.1,0.4l0,0l-4.2,2.3
							c0,0-0.1,0-0.1,0l0,0C33.3,23.5,33.2,23.5,33.1,23.4L33.1,23.4z M28.1,20.7c-0.1-0.1,0-0.3,0.1-0.4l0,0l1.8-1l2.4-1.3
							c0.1-0.1,0.3,0,0.4,0.1l0,0c0.1,0.1,0,0.3-0.1,0.4l0,0l-2.4,1.3l-1.8,1c0,0-0.1,0-0.1,0l0,0C28.3,20.9,28.2,20.8,28.1,20.7
							L28.1,20.7z"/>
					</g>
				</g>
				<g>
					<polygon class="st3" points="35.8,38.4 35.8,24.5 40.1,22.3 40.1,36.2 					"/>
					<polygon class="st6" points="40.1,22.3 35.8,24.5 35.8,24.5 33.4,23.2 32.6,22.8 32.1,22.5 30.9,21.9 28.9,20.8 28.4,20.6 
						25.9,19.3 30.1,17 32.6,18.3 35.1,19.6 36.2,20.3 37.6,21 					"/>
					<polygon class="st5" points="35.8,24.5 35.8,38.4 25.9,33.2 25.9,29.9 25.9,19.3 28.4,20.6 28.9,20.8 30.9,21.9 32.1,22.5 
						32.6,22.8 33.4,23.2 35.8,24.5 					"/>
				</g>
				<g>
					<polygon class="st16" points="25.4,32.2 25.3,32.2 25.3,32.2 					"/>
					<polygon class="st9" points="25.3,42.7 25.3,32.2 25.4,32.2 34.6,27.2 34.6,37.8 					"/>
					<polygon class="st17" points="34.6,27.2 25.4,32.2 25.3,32.2 25.3,32.2 25.3,42.7 17.8,38.7 17.8,28.2 27,23.2 28.9,24.2 
						30.8,25.2 32.7,26.2 					"/>
				</g>
				<g>
					<polygon class="st4" points="25.6,32 17.5,27.7 21.7,25.4 29.9,29.7 					"/>
					<polygon class="st18" points="23.9,40.4 15.8,36.1 17.5,27.7 25.6,32 					"/>
					<polygon class="st19" points="23.9,40.4 25.6,32 29.9,29.7 29.9,41.1 25.2,43.6 					"/>
					<polygon class="st20" points="15.8,36.1 23.9,40.4 25.2,43.6 25.1,43.6 17.1,39.3 					"/>
				</g>
				<g>
					<polygon class="st9" points="44.8,23.2 40.2,25.6 40.2,31.1 44.8,28.7 					"/>
					<polygon class="st17" points="40.2,25.6 44.8,23.2 42.5,22 37.9,24.4 					"/>
					<polygon class="st5" points="37.9,24.4 37.9,29.9 40.2,31.1 40.2,25.6 					"/>
				</g>
				<polygon class="st8" points="41.4,26.4 41.4,28.8 43.4,27.7 43.4,25.3 				"/>
				<g>
					<polygon class="st21" points="48.9,5.6 34.8,13 33.1,12.1 34.8,11.2 47.2,4.7 					"/>
					<polygon class="st14" points="34.8,13 48.9,5.6 52.7,10.7 34.8,20.1 					"/>
					<polygon class="st22" points="34.8,13 34.8,20.1 33.1,19.2 33.1,12.1 					"/>
				</g>
				<polygon class="st23" points="20.2,33.8 19.8,35.5 18.2,34.6 18.6,33 				"/>
				<polygon class="st23" points="22.6,35.1 22.3,36.8 20.7,36 21,34.3 				"/>
				<polygon class="st3" points="80.2,33.7 80.2,44 80.2,54.3 44.6,73.1 44.6,52.5 62.5,43.1 				"/>
				<line class="st24" x1="32.9" y1="38.6" x2="31.8" y2="39.2"/>
				<g>
					<polygon class="st3" points="46.7,6.5 48.3,5.7 48.3,17.5 46.7,18.4 					"/>
					<polygon class="st4" points="48.3,5.7 46.7,6.5 43.5,4.8 45.1,4 48.3,5.7 					"/>
					<polygon class="st5" points="45.7,17.9 44.2,17.1 44.3,7.2 45.7,8 					"/>
					<polygon class="st6" points="46.7,6.5 46.7,18.4 46.1,18.1 45.9,17.9 45.7,17.9 45.7,8 44.3,7.2 44.2,17.1 43.5,16.7 43.5,4.8 
											"/>
				</g>
			</g>
		</g>
		<g class="st0">
			<rect x="0" class="st25" width="100" height="100"/>
			<g>
				<polygon class="st26" points="65.3,50.6 31.4,63 12.7,78.1 22.4,82.9 53.2,77.5 80.6,66 87.9,58.6 80.8,51.6 				"/>
				<g>
					<g>
						<polygon class="st30" points="44,51.3 35.9,56 35.8,56 35.8,64.8 27.1,62.1 27.1,51.3 33.7,46 						"/>
						<polygon class="st29" points="35.5,65.9 35.8,56 35.9,56 44,51.3 44.2,66.5 37.2,66.5 						"/>
					</g>
					<g>
						<polygon class="st31" points="19.5,56.8 25.9,60.2 25.9,68.5 19.5,64.8 						"/>
						<polygon class="st32" points="25.9,60.2 35.8,56 35.5,65.9 25.9,68.5 						"/>
						<polygon class="st33" points="25.9,60.2 19.5,56.8 27.1,51.3 35.8,56 						"/>
					</g>
					<g>
						<path class="st34" d="M67.9,45.5l10.8-1.9l2.6,3.3L79,54.5l-6.7,3.2l-3.9,1.8L67.9,45.5z"/>
						<polygon class="st35" points="70.3,38.9 78.6,43.6 67.9,45.5 56.7,40.3 						"/>
						<g>
							<polygon class="st35" points="63.6,46.8 44,51.3 33.7,46 51.8,41.5 							"/>
							<polygon class="st36" points="44.2,66.5 44,51.3 63.6,46.8 65.1,61.1 54.3,63.9 							"/>
						</g>
					</g>
					<g>
						<polygon class="st37" points="75.1,56.4 72.3,57.8 71.7,44.3 74.8,43.2 						"/>
						<polygon class="st37" points="74.8,43.2 71.7,44.3 62.4,39.7 66.7,39.2 						"/>
						<polygon class="st37" points="67.9,45.5 63.6,46.8 51.8,41.5 56.7,40.3 						"/>
						<polygon class="st37" points="68.4,59.6 65.1,61.1 63.6,46.8 67.9,45.5 						"/>
						<polygon class="st37" points="58.5,62.8 54.3,63.9 53.9,49.1 58.4,48 						"/>
						<polygon class="st37" points="58.4,48 53.9,49.1 42.5,43.8 47.3,42.6 						"/>
					</g>
					<g id="Nogi_4_">
						<g>
							<g>
								<polygon class="st27" points="44.3,57.7 48.1,60.4 48,62.6 44.2,60.4 								"/>
								<polygon class="st29" points="46.8,59.5 44.3,57.7 46.5,57 48.7,59 								"/>
							</g>
							<g>
								<polygon class="st29" points="46.8,59.5 48.7,59 50.8,60.9 49.6,61.3 								"/>
							</g>
						</g>
						<g>
							<g>
								<polygon class="st27" points="55.3,54.7 59.1,57.4 59.1,59.7 55.3,57.4 								"/>
								<polygon class="st29" points="57.8,56.6 55.3,54.7 57.6,54 59.7,56 								"/>
							</g>
							<g>
								<polygon class="st27" points="60.6,70.7 57.5,69.1 59.1,68.1 59.1,57.4 60.6,58.3 60.6,67.5 								"/>
								<polygon class="st28" points="61.9,58 62.2,69.7 60.6,70.7 60.6,67.5 60.6,58.3 								"/>
								<polygon class="st29" points="57.8,56.6 59.7,56 61.9,58 60.6,58.3 								"/>
							</g>
						</g>
						<g>
							<g>
								<polygon class="st27" points="60.9,53.8 69.3,55.5 69.3,57.8 60.9,56.6 								"/>
								<polygon class="st29" points="69.3,55.5 60.9,53.8 63.3,53.2 69.9,54.1 								"/>
							</g>
							<g>
								<polyline class="st27" points="69.2,66.2 69.3,55.5 70.8,56.4 70.8,65.6 70.8,68.8 								"/>
								<polygon class="st28" points="72,56 72.3,67.8 70.8,68.8 70.8,65.6 70.8,56.4 								"/>
								<polygon class="st29" points="69.3,55.5 69.9,54.1 72,56 70.8,56.4 								"/>
							</g>
						</g>
					</g>
					<g>
						<polygon class="st38" points="47.4,44.6 43.2,46.1 38.9,47.6 30.7,36.9 22.5,26.3 31.6,17.6 44.9,21.8 46.2,33.2 						"/>
						<polygon class="st39" points="47.4,45.6 38.9,48.3 38.9,47.6 47.4,44.6 						"/>
						<polygon class="st40" points="38.9,48.3 22.5,27.5 22.5,26.3 38.9,47.6 						"/>
					</g>
					<g>
						<polygon class="st41" points="80.3,52.3 75.3,58 63.2,58.6 52.8,53.9 42.4,49.1 49.8,47 65.2,50 						"/>
						<polygon class="st42" points="75.4,58.9 63.2,59.6 63.2,59.1 63.2,58.6 75.3,58 80.3,52.3 80.5,53.2 						"/>
						<polygon class="st43" points="63.2,59.6 42.4,49.9 42.4,49.1 63.2,58.6 						"/>
					</g>
					<g>
						<polygon class="st31" points="19.3,42.9 21.5,57 20.8,56.6 						"/>
						<polygon class="st29" points="19.3,42.9 21.5,57 22.2,56.5 						"/>
					</g>
					<g>
						<polygon class="st31" points="30.7,47 25.9,59.5 25,58.9 						"/>
						<polygon class="st29" points="30.7,47 25.9,59.5 26.9,58.7 						"/>
					</g>
					<g>
						<g>
							<g>
								<polygon class="st44" points="27.1,61.3 28.5,62.1 31.5,60.6 30,59.8 								"/>
							</g>
						</g>
					</g>
				</g>
			</g>
		</g>
	</g>
</g>
<g id="_x33__x5F_3">
</g>
<g id="_x32__x5F_3">
</g>
<g id="_x31__x5F_3">
</g>
</svg>
