<?xml version="1.0" encoding="utf-8"?>
<!-- Generator: Adobe Illustrator 22.0.1, SVG Export Plug-In . SVG Version: 6.00 Build 0)  -->
<svg version="1.1" xmlns="http://www.w3.org/2000/svg" xmlns:xlink="http://www.w3.org/1999/xlink" x="0px" y="0px" width="100px"
	 height="49.9px" viewBox="0 0 100 49.9" style="enable-background:new 0 0 100 49.9;" xml:space="preserve">
<style type="text/css">
	.st0{clip-path:url(#SVGID_2_);}
	.st1{fill-rule:evenodd;clip-rule:evenodd;fill:#93CDDB;}
	.st2{fill-rule:evenodd;clip-rule:evenodd;fill:#7092B1;}
	.st3{fill-rule:evenodd;clip-rule:evenodd;fill:#4F4743;}
	.st4{fill-rule:evenodd;clip-rule:evenodd;fill:#A09388;}
	.st5{fill-rule:evenodd;clip-rule:evenodd;fill:#ABA398;}
	.st6{fill-rule:evenodd;clip-rule:evenodd;fill:#6D635D;}
	.st7{fill-rule:evenodd;clip-rule:evenodd;fill:#452F21;}
	.st8{fill-rule:evenodd;clip-rule:evenodd;}
	.st9{fill-rule:evenodd;clip-rule:evenodd;fill:#D9D6D0;}
	.st10{fill-rule:evenodd;clip-rule:evenodd;fill:#E9D21B;}
	.st11{fill-rule:evenodd;clip-rule:evenodd;fill:#E6AB28;}
	.st12{fill-rule:evenodd;clip-rule:evenodd;fill:#AC9C8E;}
	.st13{fill-rule:evenodd;clip-rule:evenodd;fill:#383330;}
	.st14{fill-rule:evenodd;clip-rule:evenodd;fill:#443933;}
	.st15{fill-rule:evenodd;clip-rule:evenodd;fill:#443733;}
	.st16{fill-rule:evenodd;clip-rule:evenodd;fill:#F9EA7E;}
	.st17{fill-rule:evenodd;clip-rule:evenodd;fill:#FFFFFF;}
	.st18{fill-rule:evenodd;clip-rule:evenodd;fill:#756A64;}
	.st19{fill-rule:evenodd;clip-rule:evenodd;fill:#5E5350;}
	.st20{fill-rule:evenodd;clip-rule:evenodd;fill:#3A3531;}
	.st21{fill-rule:evenodd;clip-rule:evenodd;fill:#77625A;}
	.st22{fill-rule:evenodd;clip-rule:evenodd;fill:#452C21;}
	.st23{fill-rule:evenodd;clip-rule:evenodd;fill:#41332E;}
	.st24{fill-rule:evenodd;clip-rule:evenodd;fill:#725752;}
	.st25{fill-rule:evenodd;clip-rule:evenodd;fill:#39B54A;}
	.st26{fill-rule:evenodd;clip-rule:evenodd;fill:#009245;}
	.st27{fill-rule:evenodd;clip-rule:evenodd;fill:#474747;}
	.st28{fill-rule:evenodd;clip-rule:evenodd;fill:#1A1A1A;}
	.st29{fill-rule:evenodd;clip-rule:evenodd;fill:#333333;}
	.st30{fill-rule:evenodd;clip-rule:evenodd;fill:#4D4D4D;}
	.st31{fill-rule:evenodd;clip-rule:evenodd;fill:#5E5E5E;}
	.st32{fill-rule:evenodd;clip-rule:evenodd;fill:#515151;}
	.st33{fill-rule:evenodd;clip-rule:evenodd;fill:#6F7070;}
	.st34{fill-rule:evenodd;clip-rule:evenodd;fill:#E8D521;}
	.st35{fill-rule:evenodd;clip-rule:evenodd;fill:#FCEE21;}
	.st36{fill-rule:evenodd;clip-rule:evenodd;fill:#EAD721;}
	.st37{fill-rule:evenodd;clip-rule:evenodd;fill:#2B2B2B;}
	.st38{opacity:0.7955;fill-rule:evenodd;clip-rule:evenodd;fill:#E6E6E6;}
	.st39{opacity:0.8033;fill-rule:evenodd;clip-rule:evenodd;fill:#B3B3B3;}
	.st40{opacity:0.801;fill-rule:evenodd;clip-rule:evenodd;fill:#CCCCCC;}
	.st41{opacity:0.8045;fill-rule:evenodd;clip-rule:evenodd;fill:#E6E6E6;}
	.st42{opacity:0.7966;fill-rule:evenodd;clip-rule:evenodd;fill:#B3B3B3;}
	.st43{opacity:0.8011;fill-rule:evenodd;clip-rule:evenodd;fill:#CCCCCC;}
	.st44{fill-rule:evenodd;clip-rule:evenodd;fill:#F4F2F0;}
	.st45{fill-rule:evenodd;clip-rule:evenodd;fill:#C1B5A4;}
	.st46{fill-rule:evenodd;clip-rule:evenodd;fill:#E3DCD7;}
	.st47{clip-path:url(#SVGID_4_);}
	.st48{clip-path:url(#SVGID_6_);}
	.st49{clip-path:url(#SVGID_8_);}
	.st50{clip-path:url(#SVGID_10_);}
</style>
<g id="_x32__x5F_2">
	<g>
		<defs>
			<path id="SVGID_1_" d="M35,0C35,0,35,0,35,0c0,5.5-4.5,10-10,10c-5.5,0-10-4.5-10-10c0,0,0,0,0,0H0v50h100V0H35z"/>
		</defs>
		<clipPath id="SVGID_2_">
			<use xlink:href="#SVGID_1_"  style="overflow:visible;"/>
		</clipPath>
		<g class="st0">
			<rect y="-50" class="st1" width="100" height="100"/>
			<polygon class="st2" points="20.8,35.9 63.6,13.3 85,24.6 42.2,47.3 			"/>
			<g>
				<g>
					<polygon class="st7" points="74.4,28.2 74.4,26.6 74.4,24.4 70,22.1 74.4,19.8 78.7,22.1 78.7,24.3 78.7,25.9 					"/>
					<polygon class="st8" points="70,22.1 74.4,24.4 74.4,26.6 74.4,28.2 70,25.9 70,24.3 					"/>
				</g>
				<g>
					<polygon class="st9" points="69.9,-14.4 74.3,-16.7 78.6,-14.4 78.6,12.5 74.3,14.8 74.3,-12.1 					"/>
					<polygon class="st5" points="74.3,14.8 69.9,12.5 69.9,-14.4 74.3,-12.1 					"/>
					<polygon class="st9" points="74.3,24.5 74.3,14.8 78.6,12.5 78.6,22.1 					"/>
					<polygon class="st5" points="74.3,14.8 74.3,24.5 69.9,22.1 69.9,12.5 					"/>
				</g>
				<g>
					<polygon class="st7" points="62.8,21.7 62.8,20.1 62.8,17.9 58.5,15.6 62.8,13.3 67.2,15.6 67.2,17.7 67.2,19.4 					"/>
					<polygon class="st8" points="58.5,15.6 62.8,17.9 62.8,20.1 62.8,21.7 58.5,19.4 58.5,17.7 					"/>
				</g>
				<g>
					<polygon class="st10" points="67.1,5.9 62.8,8.3 62.8,-18.6 58.4,-20.9 62.8,-23.2 67.1,-20.9 					"/>
					<polygon class="st11" points="58.4,-20.9 62.8,-18.6 62.8,8.3 58.4,5.9 					"/>
					<polygon class="st12" points="62.8,17.9 58.4,15.6 58.4,5.9 62.8,8.3 					"/>
					<polygon class="st9" points="67.1,5.9 67.1,15.6 62.8,17.9 62.8,8.3 					"/>
				</g>
				<g>
					<polygon class="st7" points="42.5,45.4 42.5,43.7 42.5,41.5 38.1,39.2 42.5,36.9 46.9,39.2 46.9,41.4 46.9,43 					"/>
					<polygon class="st8" points="38.1,39.2 42.5,41.5 42.5,43.7 42.5,45.4 38.1,43 38.1,41.4 					"/>
				</g>
				<g>
					<polygon class="st9" points="46.8,29.5 42.4,31.9 42.4,-18.7 38.1,-21 42.4,-23.3 46.8,-21 					"/>
					<polygon class="st5" points="38.1,29.5 38.1,-21 42.4,-18.7 42.4,31.9 					"/>
					<polygon class="st9" points="46.8,29.5 46.8,39.2 42.4,41.5 42.4,31.9 					"/>
					<polygon class="st5" points="38.1,29.5 42.4,31.9 42.4,41.5 38.1,39.2 					"/>
				</g>
				<g>
					<polygon class="st7" points="31,38.8 31,37.2 31,35 26.6,32.7 31,30.4 35.4,32.7 35.4,34.9 35.4,36.5 					"/>
					<polygon class="st8" points="26.6,32.7 31,35 31,37.2 31,38.8 26.6,36.5 26.6,34.9 					"/>
				</g>
				<g>
					<polygon class="st9" points="26.6,-27.5 30.9,-29.8 35.3,-27.5 35.3,23 30.9,25.3 30.9,-25.2 					"/>
					<polygon class="st5" points="30.9,25.3 26.6,23 26.6,-27.5 30.9,-25.2 					"/>
					<polygon class="st9" points="35.3,23 35.3,32.7 30.9,35 30.9,25.3 					"/>
					<polygon class="st5" points="26.6,23 30.9,25.3 30.9,35 26.6,32.7 					"/>
				</g>
				<g>
					<polygon class="st6" points="44.7,2.5 25.4,-7.7 60.9,-26.5 80.2,-16.3 					"/>
					<polygon class="st9" points="44.7,25.6 44.7,2.5 80.2,-16.3 80.2,6.9 					"/>
					<polygon class="st5" points="44.7,25.6 25.4,15.5 25.4,-7.7 44.7,2.5 					"/>
				</g>
				<g>
					<polygon class="st3" points="30.2,-19.1 30.2,-19.1 43.6,-26.2 53.5,-20.9 53.5,-18.8 53.5,-17.3 53.5,-15.6 53.5,-14.1 
						53.5,-12.3 53.5,-10.8 53.5,-7 40.1,0.1 40.1,-13.8 					"/>
					<polygon class="st13" points="40.1,0.1 30.2,-5.2 30.2,-19.1 40.1,-13.8 					"/>
				</g>
				<polygon class="st13" points="44.7,2.5 44.7,12.8 44.7,23.2 25.4,13 25.4,-7.7 				"/>
				<polygon class="st3" points="80.2,-16.3 80.2,-6 80.2,4.3 44.6,23.1 44.6,2.5 62.5,-6.9 				"/>
			</g>
		</g>
		<g class="st0">
			<rect x="0" y="-50" class="st25" width="100" height="100"/>
			<g>
				<polygon class="st26" points="65.3,0.6 31.4,13 12.7,28.1 22.4,32.9 53.2,27.5 80.6,16 87.9,8.6 80.8,1.6 				"/>
				<g>
					<g>
						<g>
							<polygon class="st27" points="44.9,14.1 47.4,15.5 47.4,17.3 44.9,16 							"/>
							<polygon class="st28" points="47.4,15.5 49.6,13.9 49.6,16 47.4,17.3 							"/>
							<polygon class="st29" points="49.6,13.9 47.4,15.5 44.9,14.1 48,13.1 							"/>
						</g>
						<g>
							<polygon class="st27" points="34.7,16.7 37.2,18.1 37.2,19.9 34.7,18.6 							"/>
							<polygon class="st28" points="37.2,18.1 39.4,16.5 39.4,18.6 37.2,19.9 							"/>
							<polygon class="st29" points="39.4,16.5 37.2,18.1 34.7,16.7 37.8,15.7 							"/>
						</g>
					</g>
					<g>
						<polygon class="st30" points="44,1.3 35.9,6 35.8,6 35.8,14.8 27.1,12.1 27.1,1.3 33.7,-4 						"/>
						<polygon class="st29" points="35.5,15.9 35.8,6 35.9,6 44,1.3 44.2,16.5 37.2,16.5 						"/>
					</g>
					<g>
						<polygon class="st31" points="19.5,6.8 25.9,10.2 25.9,18.5 19.5,14.8 						"/>
						<polygon class="st32" points="25.9,10.2 35.8,6 35.5,15.9 25.9,18.5 						"/>
						<polygon class="st33" points="25.9,10.2 19.5,6.8 27.1,1.3 35.8,6 						"/>
					</g>
					<g>
						<path class="st34" d="M67.9-4.5l10.8-1.9l2.6,3.3L79,4.5l-6.7,3.2l-3.9,1.8L67.9-4.5z"/>
						<g>
							<polygon class="st35" points="63.6,-3.2 44,1.3 33.7,-4 51.8,-8.5 							"/>
							<polygon class="st36" points="44.2,16.5 44,1.3 63.6,-3.2 65.1,11.1 54.3,13.9 							"/>
						</g>
					</g>
					<g>
						<polygon class="st37" points="75.1,6.4 72.3,7.8 71.7,-5.7 74.8,-6.8 						"/>
						<polygon class="st37" points="68.4,9.6 65.1,11.1 63.6,-3.2 67.9,-4.5 						"/>
						<polygon class="st37" points="58.5,12.8 54.3,13.9 53.9,-0.9 58.4,-2 						"/>
					</g>
					<g id="Nogi_5_">
						<g>
							<g>
								<polygon class="st27" points="44.3,7.7 48.1,10.4 48,12.6 44.2,10.4 								"/>
								<polygon class="st29" points="46.8,9.5 44.3,7.7 46.5,7 48.7,9 								"/>
							</g>
							<g>
								<polygon class="st27" points="49.6,23.7 46.4,22 48,21.1 48.1,10.4 49.6,11.3 49.6,20.5 								"/>
								<polygon class="st28" points="50.8,10.9 51.1,22.7 49.6,23.7 49.6,20.5 49.6,11.3 								"/>
								<polygon class="st29" points="46.8,9.5 48.7,9 50.8,10.9 49.6,11.3 								"/>
							</g>
							<g>
								<polygon class="st27" points="44.9,21.7 47.4,23.1 47.4,24.9 44.9,23.6 								"/>
								<polygon class="st28" points="47.4,23.1 49.6,21.6 49.6,23.6 47.4,24.9 								"/>
								<polygon class="st29" points="49.6,21.6 47.4,23.1 44.9,21.7 48,20.7 								"/>
							</g>
						</g>
						<g>
							<g>
								<polygon class="st27" points="55.3,4.7 59.1,7.4 59.1,9.7 55.3,7.4 								"/>
								<polygon class="st29" points="57.8,6.6 55.3,4.7 57.6,4 59.7,6 								"/>
							</g>
							<g>
								<polygon class="st27" points="60.6,20.7 57.5,19.1 59.1,18.1 59.1,7.4 60.6,8.3 60.6,17.5 								"/>
								<polygon class="st28" points="61.9,8 62.2,19.7 60.6,20.7 60.6,17.5 60.6,8.3 								"/>
								<polygon class="st29" points="57.8,6.6 59.7,6 61.9,8 60.6,8.3 								"/>
							</g>
							<g>
								<polygon class="st27" points="55.9,18.8 58.4,20.2 58.5,22 55.9,20.7 								"/>
								<polygon class="st28" points="58.4,20.2 60.6,18.6 60.6,20.7 58.5,22 								"/>
								<polygon class="st29" points="60.6,18.6 58.4,20.2 55.9,18.8 59.1,17.8 								"/>
							</g>
						</g>
						<g>
							<g>
								<polygon class="st27" points="60.9,3.8 69.3,5.5 69.3,7.8 60.9,6.6 								"/>
								<polygon class="st29" points="69.3,5.5 60.9,3.8 63.3,3.2 69.9,4.1 								"/>
							</g>
							<g>
								<polyline class="st27" points="69.2,16.2 69.3,5.5 70.8,6.4 70.8,15.6 70.8,18.8 								"/>
								<polygon class="st28" points="72,6 72.3,17.8 70.8,18.8 70.8,15.6 70.8,6.4 								"/>
								<polygon class="st29" points="69.3,5.5 69.9,4.1 72,6 70.8,6.4 								"/>
							</g>
							<g>
								<polygon class="st27" points="66.1,16.8 68.6,18.2 68.7,20.1 66.1,18.7 								"/>
								<polygon class="st28" points="68.6,18.2 70.8,16.7 70.8,18.8 68.7,20.1 								"/>
								<polygon class="st29" points="70.8,16.7 68.6,18.2 66.1,16.8 69.2,15.9 								"/>
							</g>
						</g>
					</g>
					<g>
						<polygon class="st41" points="80.3,2.3 75.3,8 63.2,8.6 52.8,3.9 42.4,-0.9 49.8,-3 65.2,0 						"/>
						<polygon class="st42" points="75.4,8.9 63.2,9.6 63.2,9.1 63.2,8.6 75.3,8 80.3,2.3 80.5,3.2 						"/>
						<polygon class="st43" points="63.2,9.6 42.4,-0.1 42.4,-0.9 63.2,8.6 						"/>
					</g>
					<g>
						<polygon class="st31" points="19.3,-7.1 21.5,7 20.8,6.6 						"/>
						<polygon class="st29" points="19.3,-7.1 21.5,7 22.2,6.5 						"/>
					</g>
					<g>
						<polygon class="st31" points="30.7,-3 25.9,9.5 25,8.9 						"/>
						<polygon class="st29" points="30.7,-3 25.9,9.5 26.9,8.7 						"/>
					</g>
					<g>
						<g>
							<g>
								<polygon class="st44" points="27.1,11.3 28.5,12.1 31.5,10.6 30,9.8 								"/>
								<polygon class="st45" points="27.1,11.3 27.1,14.7 28.5,15.5 28.5,12.1 								"/>
								<polygon class="st46" points="28.5,12.1 28.5,15.5 31.5,14 31.5,10.6 								"/>
							</g>
							<polygon class="st29" points="30.6,13.4 30.6,11.9 29.3,12.6 29.3,14.1 							"/>
						</g>
					</g>
				</g>
			</g>
		</g>
	</g>
</g>
<g id="_x31__x5F_2">
</g>
<g id="_x33__x5F_3">
</g>
<g id="_x32__x5F_3">
</g>
<g id="_x31__x5F_3">
</g>
</svg>
