<?xml version="1.0" encoding="utf-8"?>
<!-- Generator: Adobe Illustrator 22.0.1, SVG Export Plug-In . SVG Version: 6.00 Build 0)  -->
<svg version="1.1" xmlns="http://www.w3.org/2000/svg" xmlns:xlink="http://www.w3.org/1999/xlink" x="0px" y="0px" width="100px"
	 height="43.4px" viewBox="0 0 100 43.4" style="enable-background:new 0 0 100 43.4;" xml:space="preserve">
<style type="text/css">
	.st0{clip-path:url(#SVGID_2_);}
	.st1{fill-rule:evenodd;clip-rule:evenodd;fill:#93CDDB;}
	.st2{fill-rule:evenodd;clip-rule:evenodd;fill:#7092B1;}
	.st3{fill-rule:evenodd;clip-rule:evenodd;fill:#4F4743;}
	.st4{fill-rule:evenodd;clip-rule:evenodd;fill:#A09388;}
	.st5{fill-rule:evenodd;clip-rule:evenodd;fill:#ABA398;}
	.st6{fill-rule:evenodd;clip-rule:evenodd;fill:#6D635D;}
	.st7{fill-rule:evenodd;clip-rule:evenodd;fill:#452F21;}
	.st8{fill-rule:evenodd;clip-rule:evenodd;}
	.st9{fill-rule:evenodd;clip-rule:evenodd;fill:#D9D6D0;}
	.st10{fill-rule:evenodd;clip-rule:evenodd;fill:#E9D21B;}
	.st11{fill-rule:evenodd;clip-rule:evenodd;fill:#E6AB28;}
	.st12{fill-rule:evenodd;clip-rule:evenodd;fill:#AC9C8E;}
	.st13{fill-rule:evenodd;clip-rule:evenodd;fill:#383330;}
	.st14{fill-rule:evenodd;clip-rule:evenodd;fill:#443933;}
	.st15{fill-rule:evenodd;clip-rule:evenodd;fill:#443733;}
	.st16{fill-rule:evenodd;clip-rule:evenodd;fill:#F9EA7E;}
	.st17{fill-rule:evenodd;clip-rule:evenodd;fill:#FFFFFF;}
	.st18{fill-rule:evenodd;clip-rule:evenodd;fill:#756A64;}
	.st19{fill-rule:evenodd;clip-rule:evenodd;fill:#5E5350;}
	.st20{fill-rule:evenodd;clip-rule:evenodd;fill:#3A3531;}
	.st21{fill-rule:evenodd;clip-rule:evenodd;fill:#77625A;}
	.st22{fill-rule:evenodd;clip-rule:evenodd;fill:#452C21;}
	.st23{fill-rule:evenodd;clip-rule:evenodd;fill:#41332E;}
	.st24{fill-rule:evenodd;clip-rule:evenodd;fill:#725752;}
	.st25{fill-rule:evenodd;clip-rule:evenodd;fill:#39B54A;}
	.st26{fill-rule:evenodd;clip-rule:evenodd;fill:#009245;}
	.st27{fill-rule:evenodd;clip-rule:evenodd;fill:#474747;}
	.st28{fill-rule:evenodd;clip-rule:evenodd;fill:#1A1A1A;}
	.st29{fill-rule:evenodd;clip-rule:evenodd;fill:#333333;}
	.st30{fill-rule:evenodd;clip-rule:evenodd;fill:#4D4D4D;}
	.st31{fill-rule:evenodd;clip-rule:evenodd;fill:#5E5E5E;}
	.st32{fill-rule:evenodd;clip-rule:evenodd;fill:#515151;}
	.st33{fill-rule:evenodd;clip-rule:evenodd;fill:#6F7070;}
	.st34{fill-rule:evenodd;clip-rule:evenodd;fill:#E8D521;}
	.st35{fill-rule:evenodd;clip-rule:evenodd;fill:#FCEE21;}
	.st36{fill-rule:evenodd;clip-rule:evenodd;fill:#EAD721;}
	.st37{fill-rule:evenodd;clip-rule:evenodd;fill:#2B2B2B;}
	.st38{opacity:0.7955;fill-rule:evenodd;clip-rule:evenodd;fill:#E6E6E6;}
	.st39{opacity:0.8033;fill-rule:evenodd;clip-rule:evenodd;fill:#B3B3B3;}
	.st40{opacity:0.801;fill-rule:evenodd;clip-rule:evenodd;fill:#CCCCCC;}
	.st41{opacity:0.8045;fill-rule:evenodd;clip-rule:evenodd;fill:#E6E6E6;}
	.st42{opacity:0.7966;fill-rule:evenodd;clip-rule:evenodd;fill:#B3B3B3;}
	.st43{opacity:0.8011;fill-rule:evenodd;clip-rule:evenodd;fill:#CCCCCC;}
	.st44{fill-rule:evenodd;clip-rule:evenodd;fill:#F4F2F0;}
	.st45{fill-rule:evenodd;clip-rule:evenodd;fill:#C1B5A4;}
	.st46{fill-rule:evenodd;clip-rule:evenodd;fill:#E3DCD7;}
	.st47{clip-path:url(#SVGID_4_);}
	.st48{clip-path:url(#SVGID_6_);}
	.st49{clip-path:url(#SVGID_8_);}
	.st50{clip-path:url(#SVGID_10_);}
</style>
<g id="_x32__x5F_2">
</g>
<g id="_x31__x5F_2">
</g>
<g id="_x33__x5F_3">
</g>
<g id="_x32__x5F_3">
	<g>
		<g>
			<defs>
				<path id="SVGID_7_" d="M35,0C35,0,35,0,35,0c0,5.5-4.5,10-10,10S15,5.5,15,0c0,0,0,0,0,0H0v33.3h15c0,5.5,4.5,10,10,10
					s10-4.5,10-10h65V0H35z"/>
			</defs>
			<clipPath id="SVGID_2_">
				<use xlink:href="#SVGID_7_"  style="overflow:visible;"/>
			</clipPath>
			<g class="st0">
				<rect y="-33.3" class="st1" width="100" height="100"/>
				<polygon class="st2" points="20.8,52.6 63.6,30 85,41.3 42.2,63.9 				"/>
				<g>
					<g>
						<polygon class="st7" points="74.4,44.9 74.4,43.3 74.4,41.1 70,38.8 74.4,36.5 78.7,38.8 78.7,40.9 78.7,42.6 						"/>
						<polygon class="st8" points="70,38.8 74.4,41.1 74.4,43.3 74.4,44.9 70,42.6 70,40.9 						"/>
					</g>
					<g>
						<polygon class="st9" points="69.9,2.3 74.3,0 78.6,2.3 78.6,29.1 74.3,31.5 74.3,4.6 						"/>
						<polygon class="st5" points="74.3,31.5 69.9,29.1 69.9,2.3 74.3,4.6 						"/>
						<polygon class="st9" points="74.3,41.1 74.3,31.5 78.6,29.1 78.6,38.8 						"/>
						<polygon class="st5" points="74.3,31.5 74.3,41.1 69.9,38.8 69.9,29.1 						"/>
					</g>
					<g>
						<polygon class="st7" points="62.8,38.4 62.8,36.7 62.8,34.5 58.5,32.3 62.8,29.9 67.2,32.3 67.2,34.4 67.2,36.1 						"/>
						<polygon class="st8" points="58.5,32.3 62.8,34.5 62.8,36.7 62.8,38.4 58.5,36.1 58.5,34.4 						"/>
					</g>
					<g>
						<polygon class="st10" points="67.1,22.6 62.8,24.9 62.8,-2 58.4,-4.3 62.8,-6.6 67.1,-4.3 						"/>
						<polygon class="st11" points="58.4,-4.3 62.8,-2 62.8,24.9 58.4,22.6 						"/>
						<polygon class="st12" points="62.8,34.6 58.4,32.3 58.4,22.6 62.8,24.9 						"/>
						<polygon class="st9" points="67.1,22.6 67.1,32.3 62.8,34.6 62.8,24.9 						"/>
					</g>
					<g>
						<polygon class="st9" points="46.8,46.2 42.4,48.5 42.4,-2 38.1,-4.3 42.4,-6.6 46.8,-4.3 						"/>
						<polygon class="st5" points="38.1,46.2 38.1,-4.3 42.4,-2 42.4,48.5 						"/>
					</g>
					<g>
						<polygon class="st9" points="26.6,-10.8 30.9,-13.1 35.3,-10.8 35.3,39.7 30.9,42 30.9,-8.5 						"/>
						<polygon class="st5" points="30.9,42 26.6,39.7 26.6,-10.8 30.9,-8.5 						"/>
						<polygon class="st9" points="35.3,39.7 35.3,49.3 30.9,51.7 30.9,42 						"/>
						<polygon class="st5" points="26.6,39.7 30.9,42 30.9,51.7 26.6,49.3 						"/>
					</g>
					<g>
						<polygon class="st10" points="72.7,-3.6 72.7,2.5 68,0 68,-6.1 						"/>
						<polygon class="st3" points="72.7,2.5 72.7,-3.6 78.2,-6.5 78.2,-0.4 						"/>
					</g>
					<g>
						<polygon class="st6" points="44.7,19.2 25.4,9 60.9,-9.8 80.2,0.4 						"/>
						<polygon class="st9" points="44.7,42.3 44.7,19.2 80.2,0.4 80.2,23.6 						"/>
						<polygon class="st5" points="44.7,42.3 25.4,32.1 25.4,9 44.7,19.2 						"/>
					</g>
					<g>
						<polygon class="st15" points="46.5,-12.2 54.2,-16.2 54.2,5.1 50,8 						"/>
					</g>
					<g>
						<polygon class="st3" points="30.2,-2.4 30.2,-2.4 43.6,-9.5 53.5,-4.2 53.5,-2.2 53.5,-0.7 53.5,1.1 53.5,2.6 53.5,4.4 
							53.5,5.9 53.5,9.7 40.1,16.7 40.1,2.8 						"/>
						<polygon class="st13" points="40.1,16.7 30.2,11.5 30.2,-2.4 40.1,2.8 						"/>
					</g>
					<polygon class="st13" points="44.7,19.2 44.7,29.5 44.7,39.8 25.4,29.6 25.4,9 					"/>
					<g>
						<path class="st3" d="M40.1,2.8v-13.9l10.6-5.6l2.9,12.4C51.6-2,47.1,0.4,40.1,2.8z"/>
						<path class="st6" d="M50.6-16.6l-10.6,5.6V2.8l-9.9-5.2v-11.3v-2.6v0l10.5-5.6L50.6-16.6z M33.4-10.1l4.2-2.3L33.4-10.1z
							 M30.2-13.7l2.4-1.3L30.2-13.7z"/>
					</g>
					<g>
						<polygon class="st3" points="35.8,5.1 35.8,-8.8 40.1,-11.1 40.1,2.8 						"/>
						<polygon class="st5" points="35.8,-8.8 35.8,5.1 25.9,-0.2 25.9,-3.5 25.9,-14 28.4,-12.7 28.9,-12.5 30.9,-11.4 32.1,-10.8 
							32.6,-10.5 33.4,-10.1 35.8,-8.8 						"/>
					</g>
					<g>
						<polygon class="st9" points="25.3,9.4 25.3,-1.1 25.4,-1.1 34.6,-6.1 34.6,4.4 						"/>
						<polygon class="st17" points="34.6,-6.1 25.4,-1.1 25.3,-1.2 25.3,-1.1 25.3,9.4 17.8,5.4 17.8,-5.1 27,-10.1 28.9,-9.1 
							30.8,-8.1 32.7,-7.1 						"/>
					</g>
					<g>
						<polygon class="st18" points="23.9,7.1 15.8,2.8 17.5,-5.6 25.6,-1.3 						"/>
						<polygon class="st19" points="23.9,7.1 25.6,-1.3 29.9,-3.6 29.9,7.7 25.2,10.3 						"/>
						<polygon class="st20" points="15.8,2.8 23.9,7.1 25.2,10.3 25.1,10.3 17.1,6 						"/>
					</g>
					<polygon class="st23" points="20.2,0.5 19.8,2.2 18.2,1.3 18.6,-0.4 					"/>
					<polygon class="st23" points="22.6,1.8 22.3,3.5 20.7,2.6 21,1 					"/>
					<polygon class="st3" points="80.2,0.3 80.2,10.7 80.2,21 44.6,39.8 44.6,19.1 62.5,9.8 					"/>
					<line class="st24" x1="32.9" y1="5.3" x2="31.8" y2="5.9"/>
				</g>
			</g>
			<g class="st0">
				<rect y="-33.3" class="st25" width="100" height="100"/>
				<g>
					<polygon class="st26" points="65.3,17.3 31.4,29.7 12.7,44.8 22.4,49.5 53.2,44.2 80.6,32.7 87.9,25.3 80.8,18.3 					"/>
					<g>
						<g>
							<g>
								<polygon class="st27" points="44.9,30.7 47.4,32.1 47.4,34 44.9,32.6 								"/>
								<polygon class="st28" points="47.4,32.1 49.6,30.6 49.6,32.7 47.4,34 								"/>
								<polygon class="st29" points="49.6,30.6 47.4,32.1 44.9,30.7 48,29.8 								"/>
							</g>
							<g>
								<polygon class="st27" points="34.7,33.3 37.2,34.7 37.2,36.6 34.7,35.2 								"/>
								<polygon class="st28" points="37.2,34.7 39.4,33.2 39.4,35.3 37.2,36.6 								"/>
								<polygon class="st29" points="39.4,33.2 37.2,34.7 34.7,33.3 37.8,32.4 								"/>
							</g>
						</g>
						<g>
							<polygon class="st30" points="44,18 35.9,22.7 35.8,22.7 35.8,31.5 27.1,28.7 27.1,18 33.7,12.6 							"/>
							<polygon class="st29" points="35.5,32.5 35.8,22.7 35.9,22.7 44,18 44.2,33.2 37.2,33.2 							"/>
						</g>
						<g>
							<polygon class="st31" points="19.5,23.5 25.9,26.9 25.9,35.2 19.5,31.5 							"/>
							<polygon class="st32" points="25.9,26.9 35.8,22.7 35.5,32.5 25.9,35.2 							"/>
							<polygon class="st33" points="25.9,26.9 19.5,23.5 27.1,18 35.8,22.7 							"/>
						</g>
						<g>
							<path class="st34" d="M67.9,12.2l10.8-1.9l2.6,3.3L79,21.2l-6.7,3.2l-3.9,1.8L67.9,12.2z"/>
							<polygon class="st35" points="70.3,5.5 78.6,10.3 67.9,12.2 56.7,7 							"/>
							<g>
								<polygon class="st35" points="63.6,13.5 44,18 33.7,12.6 51.8,8.1 								"/>
								<polygon class="st36" points="44.2,33.2 44,18 63.6,13.5 65.1,27.8 54.3,30.6 								"/>
							</g>
						</g>
						<g>
							<polygon class="st37" points="75.1,23.1 72.3,24.4 71.7,10.9 74.8,9.9 							"/>
							<polygon class="st37" points="74.8,9.9 71.7,10.9 62.4,6.4 66.7,5.9 							"/>
							<polygon class="st37" points="67.9,12.2 63.6,13.5 51.8,8.1 56.7,7 							"/>
							<polygon class="st37" points="68.4,26.3 65.1,27.8 63.6,13.5 67.9,12.2 							"/>
							<polygon class="st37" points="58.5,29.5 54.3,30.6 53.9,15.8 58.4,14.7 							"/>
							<polygon class="st37" points="58.4,14.7 53.9,15.8 42.5,10.5 47.3,9.3 							"/>
						</g>
						<g id="Nogi_2_">
							<g>
								<g>
									<polygon class="st27" points="44.3,24.4 48.1,27 48,29.3 44.2,27 									"/>
									<polygon class="st29" points="46.8,26.2 44.3,24.4 46.5,23.6 48.7,25.7 									"/>
								</g>
								<g>
									<polygon class="st27" points="49.6,40.3 46.4,38.7 48,37.7 48.1,27 49.6,28 49.6,37.2 									"/>
									<polygon class="st28" points="50.8,27.6 51.1,39.3 49.6,40.3 49.6,37.2 49.6,28 									"/>
									<polygon class="st29" points="46.8,26.2 48.7,25.7 50.8,27.6 49.6,28 									"/>
								</g>
								<g>
									<polygon class="st27" points="44.9,38.4 47.4,39.8 47.4,41.6 44.9,40.3 									"/>
									<polygon class="st28" points="47.4,39.8 49.6,38.2 49.6,40.3 47.4,41.6 									"/>
									<polygon class="st29" points="49.6,38.2 47.4,39.8 44.9,38.4 48,37.4 									"/>
								</g>
							</g>
							<g>
								<g>
									<polygon class="st27" points="55.3,21.4 59.1,24.1 59.1,26.4 55.3,24.1 									"/>
									<polygon class="st29" points="57.8,23.3 55.3,21.4 57.6,20.7 59.7,22.7 									"/>
								</g>
								<g>
									<polygon class="st27" points="60.6,37.4 57.5,35.7 59.1,34.8 59.1,24.1 60.6,25 60.6,34.2 									"/>
									<polygon class="st28" points="61.9,24.6 62.2,36.4 60.6,37.4 60.6,34.2 60.6,25 									"/>
									<polygon class="st29" points="57.8,23.3 59.7,22.7 61.9,24.6 60.6,25 									"/>
								</g>
								<g>
									<polygon class="st27" points="55.9,35.4 58.4,36.8 58.5,38.6 55.9,37.3 									"/>
									<polygon class="st28" points="58.4,36.8 60.6,35.3 60.6,37.4 58.5,38.6 									"/>
									<polygon class="st29" points="60.6,35.3 58.4,36.8 55.9,35.4 59.1,34.5 									"/>
								</g>
							</g>
							<g>
								<g>
									<polygon class="st27" points="60.9,20.5 69.3,22.2 69.3,24.4 60.9,23.3 									"/>
									<polygon class="st29" points="69.3,22.2 60.9,20.5 63.3,19.9 69.9,20.8 									"/>
								</g>
								<g>
									<polyline class="st27" points="69.2,32.9 69.3,22.2 70.8,23.1 70.8,32.3 70.8,35.5 									"/>
									<polygon class="st28" points="72,22.7 72.3,34.5 70.8,35.5 70.8,32.3 70.8,23.1 									"/>
									<polygon class="st29" points="69.3,22.2 69.9,20.8 72,22.7 70.8,23.1 									"/>
								</g>
								<g>
									<polygon class="st27" points="66.1,33.5 68.6,34.9 68.7,36.7 66.1,35.4 									"/>
									<polygon class="st28" points="68.6,34.9 70.8,33.4 70.8,35.4 68.7,36.7 									"/>
									<polygon class="st29" points="70.8,33.4 68.6,34.9 66.1,33.5 69.2,32.5 									"/>
								</g>
							</g>
						</g>
						<g>
							<polygon class="st38" points="47.4,11.3 43.2,12.8 38.9,14.2 30.7,3.6 22.5,-7 31.6,-15.7 44.9,-11.6 46.2,-0.1 							"/>
							<polygon class="st39" points="47.4,12.3 38.9,15 38.9,14.2 47.4,11.3 							"/>
							<polygon class="st40" points="38.9,15 22.5,-5.8 22.5,-7 38.9,14.2 							"/>
						</g>
						<g>
							<polygon class="st41" points="80.3,19 75.3,24.7 63.2,25.3 52.8,20.6 42.4,15.8 49.8,13.7 65.2,16.7 							"/>
							<polygon class="st42" points="75.4,25.6 63.2,26.2 63.2,25.8 63.2,25.3 75.3,24.7 80.3,19 80.5,19.9 							"/>
							<polygon class="st43" points="63.2,26.2 42.4,16.6 42.4,15.8 63.2,25.3 							"/>
						</g>
						<g>
							<polygon class="st31" points="19.3,9.6 21.5,23.7 20.8,23.3 							"/>
							<polygon class="st29" points="19.3,9.6 21.5,23.7 22.2,23.1 							"/>
						</g>
						<g>
							<polygon class="st31" points="30.7,13.6 25.9,26.1 25,25.6 							"/>
							<polygon class="st29" points="30.7,13.6 25.9,26.1 26.9,25.4 							"/>
						</g>
						<g>
							<g>
								<g>
									<polygon class="st44" points="27.1,28 28.5,28.8 31.5,27.3 30,26.5 									"/>
									<polygon class="st45" points="27.1,28 27.1,31.4 28.5,32.1 28.5,28.8 									"/>
									<polygon class="st46" points="28.5,28.8 28.5,32.1 31.5,30.6 31.5,27.3 									"/>
								</g>
								<polygon class="st29" points="30.6,30.1 30.6,28.6 29.3,29.3 29.3,30.8 								"/>
							</g>
						</g>
					</g>
				</g>
			</g>
		</g>
	</g>
</g>
<g id="_x31__x5F_3">
</g>
</svg>
