<?xml version="1.0" encoding="utf-8"?>
<!-- Generator: Adobe Illustrator 22.0.1, SVG Export Plug-In . SVG Version: 6.00 Build 0)  -->
<svg version="1.1" xmlns="http://www.w3.org/2000/svg" xmlns:xlink="http://www.w3.org/1999/xlink" x="0px" y="0px" width="100px"
	 height="43.4px" viewBox="0 0 100 43.4" style="enable-background:new 0 0 100 43.4;" xml:space="preserve">
<style type="text/css">
	.st0{clip-path:url(#SVGID_2_);}
	.st1{fill-rule:evenodd;clip-rule:evenodd;fill:#87AB32;}
	.st2{fill-rule:evenodd;clip-rule:evenodd;fill:#4D7524;}
	.st3{fill-rule:evenodd;clip-rule:evenodd;fill:#563A29;}
	.st4{fill-rule:evenodd;clip-rule:evenodd;fill:#452F21;}
	.st5{fill-rule:evenodd;clip-rule:evenodd;fill:#78533A;}
	.st6{fill-rule:evenodd;clip-rule:evenodd;fill:#6B4B36;}
	.st7{fill-rule:evenodd;clip-rule:evenodd;fill:#2E1D16;}
	.st8{fill-rule:evenodd;clip-rule:evenodd;fill:#8A6853;}
	.st9{fill-rule:evenodd;clip-rule:evenodd;fill:#4A2F24;}
	.st10{fill-rule:evenodd;clip-rule:evenodd;fill:#CFA985;}
	.st11{fill-rule:evenodd;clip-rule:evenodd;fill:#A6876A;}
	.st12{fill-rule:evenodd;clip-rule:evenodd;fill:#352B20;}
	.st13{fill-rule:evenodd;clip-rule:evenodd;fill:#946749;}
	.st14{fill-rule:evenodd;clip-rule:evenodd;}
	.st15{fill-rule:evenodd;clip-rule:evenodd;fill:#654D3D;}
	.st16{clip-path:url(#SVGID_4_);}
	.st17{clip-path:url(#SVGID_6_);}
	.st18{clip-path:url(#SVGID_8_);}
	.st19{clip-path:url(#SVGID_10_);}
</style>
<g id="Layer_2">
</g>
<g id="Layer_6">
</g>
<g id="Layer_5">
</g>
<g id="Layer_3">
</g>
<g id="Layer_7">
</g>
<g id="Layer_8">
	<g>
		<g>
			<defs>
				<path id="SVGID_9_" d="M35,0.1C35,0.1,35,0.1,35,0.1c0,5.5-4.5,10-10,10s-10-4.5-10-10c0,0,0,0,0,0H0v33.3h15
					c0,5.5,4.5,10,10,10s10-4.5,10-10h65V0.1H35z"/>
			</defs>
			<clipPath id="SVGID_2_">
				<use xlink:href="#SVGID_9_"  style="overflow:visible;"/>
			</clipPath>
			<g class="st0">
				<rect y="-33.3" class="st1" width="100" height="100"/>
				<g>
					<polygon class="st2" points="28.4,39.7 52.6,52.3 73.7,41.3 49.5,28.7 					"/>
					<g>
						<g>
							<polygon class="st3" points="41.8,11.2 36.3,8.3 36.3,2.5 41.8,2.6 							"/>
							<polygon class="st4" points="36.9,21.3 41.8,11.2 41.8,2.6 47.3,-0.2 47.2,10.5 42.5,19.9 							"/>
							<polygon class="st5" points="41.8,2.6 36.3,2.5 41.8,-0.3 47.3,-0.2 							"/>
							<polygon class="st6" points="36.3,8.3 41.8,11.2 36.9,21.3 31.4,18.4 							"/>
						</g>
						<g>
							<polygon class="st4" points="42.8,39.6 43.1,32.2 47.7,31.1 47.7,38 41.7,41.1 							"/>
							<polygon class="st3" points="43.1,32.2 42.8,39.6 37,36.8 37,29 40.8,29 							"/>
							<polygon class="st5" points="37,36.8 42.8,39.6 41.7,41.1 36,38.1 							"/>
						</g>
						<g>
							<path class="st3" d="M54.7,38.2L50.4,36L49,35.2l-3-1.5l-1.4-0.8l-1.4-0.8l-3-1.6L37,29l2.8-29.2L42-1.1l2.2,1.2l2.2,1.2
								l2.2,1.1l2.2,1.2l2.2,3.2l1.4,27.1L54.7,38.2z M46.3,4.1l-1.4-0.8l-3-1.6l-1.5,24.5l3,2.6l1.4,0.8h0l1.4,0.8l3,0.5l1.5-24.5
								l-3-1.5L46.3,4.1z"/>
							<polygon class="st5" points="63.9,-3.2 50.9,3.5 48.7,2.4 46.5,1.2 44.2,0.1 42,-1.1 39.8,-0.2 52.8,-7 55,-7.8 57.2,-6.7 
								61.6,-4.4 							"/>
							<polygon class="st7" points="54.7,38.2 54.5,33.8 53.1,6.7 66.1,0 67.7,31.5 							"/>
							<polygon class="st8" points="46.3,4.1 47.7,4.8 50.7,6.4 49.2,30.9 46.2,30.4 44.8,29.7 44.8,29.7 43.3,28.9 40.3,26.3 
								41.8,1.8 44.9,3.3 							"/>
							<polygon class="st9" points="53.1,6.7 50.9,3.5 63.9,-3.2 66.1,0 							"/>
						</g>
						<g>
							<g>
								<polygon class="st4" points="51.1,-9.8 61.4,-15.2 63.6,-3.5 51.1,2.9 								"/>
								<polygon class="st3" points="51.1,-9.8 51.1,2.9 40.3,-2.7 40.3,-15.5 								"/>
							</g>
							<g>
								<polygon class="st11" points="43.1,3 43.1,2 43.1,1.5 43.1,-2.2 48.5,-5.9 48.5,1.6 								"/>
								<polygon class="st12" points="37.9,-4.9 43.1,-2.2 43.1,1.5 43.1,2 43.1,3 42,2.4 37.9,0.2 								"/>
							</g>
							<polygon class="st15" points="48,0 48,0.4 43.1,2 43.1,1.5 							"/>
						</g>
						<g>
							<polygon class="st3" points="54.7,38.2 55.1,45.9 46.8,41.7 46.8,41.7 46,33.7 51.3,33.7 							"/>
							<path class="st7" d="M55.1,45.9l-0.4-7.7c5.1-5.9,9.4-8.1,13-6.7L65.9,37l0,4.6L54,47.8l0.5-0.9L55.1,45.9z"/>
							<polygon class="st5" points="55.1,45.9 54.5,46.8 54,47.8 45.7,43.5 46.3,42.5 46.8,41.7 46.8,41.7 							"/>
						</g>
						<g>
							<polygon class="st3" points="60.2,19.7 54.7,16.9 54.7,8.7 60.2,14.4 							"/>
							<polygon class="st4" points="55.3,29.8 60.2,19.7 60.2,14.4 68.2,10.3 65.6,19 60.9,28.5 							"/>
							<polygon class="st5" points="60.2,14.4 54.7,8.7 62.6,4.6 68.2,10.3 							"/>
							<polygon class="st6" points="54.7,16.9 60.2,19.7 55.3,29.8 49.7,27 							"/>
						</g>
					</g>
				</g>
			</g>
		</g>
	</g>
</g>
</svg>
