<?xml version="1.0" encoding="utf-8"?>
<!-- Generator: Adobe Illustrator 22.0.1, SVG Export Plug-In . SVG Version: 6.00 Build 0)  -->
<svg version="1.1" xmlns="http://www.w3.org/2000/svg" xmlns:xlink="http://www.w3.org/1999/xlink" x="0px" y="0px" width="100px"
	 height="33.4px" viewBox="0 0 100 33.4" style="enable-background:new 0 0 100 33.4;" xml:space="preserve">
<style type="text/css">
	.st0{clip-path:url(#SVGID_2_);}
	.st1{fill-rule:evenodd;clip-rule:evenodd;fill:#87AB32;}
	.st2{fill-rule:evenodd;clip-rule:evenodd;fill:#4D7524;}
	.st3{fill-rule:evenodd;clip-rule:evenodd;fill:#563A29;}
	.st4{fill-rule:evenodd;clip-rule:evenodd;fill:#452F21;}
	.st5{fill-rule:evenodd;clip-rule:evenodd;fill:#78533A;}
	.st6{fill-rule:evenodd;clip-rule:evenodd;fill:#6B4B36;}
	.st7{fill-rule:evenodd;clip-rule:evenodd;fill:#2E1D16;}
	.st8{fill-rule:evenodd;clip-rule:evenodd;fill:#8A6853;}
	.st9{fill-rule:evenodd;clip-rule:evenodd;fill:#4A2F24;}
	.st10{fill-rule:evenodd;clip-rule:evenodd;fill:#CFA985;}
	.st11{fill-rule:evenodd;clip-rule:evenodd;fill:#A6876A;}
	.st12{fill-rule:evenodd;clip-rule:evenodd;fill:#352B20;}
	.st13{fill-rule:evenodd;clip-rule:evenodd;fill:#946749;}
	.st14{fill-rule:evenodd;clip-rule:evenodd;}
	.st15{fill-rule:evenodd;clip-rule:evenodd;fill:#654D3D;}
	.st16{clip-path:url(#SVGID_4_);}
	.st17{clip-path:url(#SVGID_6_);}
	.st18{clip-path:url(#SVGID_8_);}
	.st19{clip-path:url(#SVGID_10_);}
</style>
<g id="Layer_2">
</g>
<g id="Layer_6">
</g>
<g id="Layer_5">
</g>
<g id="Layer_3">
	<g>
		<g>
			<defs>
				<path id="SVGID_5_" d="M35,0c0,5.5-4.5,10-10,10S15,5.5,15,0H0v33.3h100V0H35z"/>
			</defs>
			<clipPath id="SVGID_2_">
				<use xlink:href="#SVGID_5_"  style="overflow:visible;"/>
			</clipPath>
			<g class="st0">
				<rect y="-66.6" class="st1" width="100" height="100"/>
				<g>
					<polygon class="st2" points="28.4,6.3 52.6,18.9 73.7,7.9 49.5,-4.7 					"/>
					<g>
						<g>
							<polygon class="st4" points="42.8,6.2 43.1,-1.2 47.7,-2.3 47.7,4.6 41.7,7.7 							"/>
							<polygon class="st3" points="43.1,-1.2 42.8,6.2 37,3.4 37,-4.4 40.8,-4.4 							"/>
							<polygon class="st5" points="37,3.4 42.8,6.2 41.7,7.7 36,4.7 							"/>
						</g>
						<g>
							<path class="st3" d="M54.7,4.9l-4.4-2.3L49,1.9l-3-1.5l-1.4-0.8l-1.4-0.8l-3-1.6L37-4.4l2.8-29.2l2.2-0.9l2.2,1.2l2.2,1.2
								l2.2,1.1l2.2,1.2l2.2,3.2l1.4,27.1L54.7,4.9z M46.3-29.3l-1.4-0.8l-3-1.6L40.3-7.1l3,2.6l1.4,0.8h0L46.2-3l3,0.5L50.7-27
								l-3-1.5L46.3-29.3z"/>
							<polygon class="st7" points="54.7,4.9 54.5,0.4 53.1,-26.6 66.1,-33.4 67.7,-1.9 							"/>
						</g>
						<g>
							<polygon class="st3" points="54.7,4.9 55.1,12.5 46.8,8.3 46.8,8.3 46,0.3 51.3,0.3 							"/>
							<path class="st7" d="M55.1,12.5l-0.4-7.7c5.1-5.9,9.4-8.1,13-6.7l-1.8,5.5l0,4.6L54,14.4l0.5-0.9L55.1,12.5z"/>
							<polygon class="st5" points="55.1,12.5 54.5,13.5 54,14.4 45.7,10.1 46.3,9.2 46.8,8.3 46.8,8.3 							"/>
						</g>
					</g>
				</g>
			</g>
		</g>
	</g>
</g>
<g id="Layer_7">
</g>
<g id="Layer_8">
</g>
</svg>
