<?xml version="1.0" encoding="utf-8"?>
<!-- Generator: Adobe Illustrator 22.0.1, SVG Export Plug-In . SVG Version: 6.00 Build 0)  -->
<svg version="1.1" xmlns="http://www.w3.org/2000/svg" xmlns:xlink="http://www.w3.org/1999/xlink" x="0px" y="0px" width="100px"
	 height="49.9px" viewBox="0 0 100 49.9" style="enable-background:new 0 0 100 49.9;" xml:space="preserve">
<style type="text/css">
	.st0{clip-path:url(#SVGID_2_);}
	.st1{fill-rule:evenodd;clip-rule:evenodd;fill:#FDD535;}
	.st2{fill-rule:evenodd;clip-rule:evenodd;fill:#EF9818;}
	.st3{fill-rule:evenodd;clip-rule:evenodd;fill:#666666;}
	.st4{fill-rule:evenodd;clip-rule:evenodd;fill:#919191;}
	.st5{fill-rule:evenodd;clip-rule:evenodd;fill:#BBBBBB;}
	.st6{fill-rule:evenodd;clip-rule:evenodd;fill:#D5D5D5;}
	.st7{fill-rule:evenodd;clip-rule:evenodd;fill:#999999;}
	.st8{fill-rule:evenodd;clip-rule:evenodd;fill:#D67E7E;}
	.st9{fill-rule:evenodd;clip-rule:evenodd;}
	.st10{fill-rule:evenodd;clip-rule:evenodd;fill:#B4DDE7;}
	.st11{fill-rule:evenodd;clip-rule:evenodd;fill:#83B3D1;}
	.st12{fill-rule:evenodd;clip-rule:evenodd;fill:#B78C62;}
	.st13{fill-rule:evenodd;clip-rule:evenodd;fill:#D3C19A;}
	.st14{fill-rule:evenodd;clip-rule:evenodd;fill:#684B31;}
	.st15{fill-rule:evenodd;clip-rule:evenodd;fill:#B0894F;}
	.st16{fill-rule:evenodd;clip-rule:evenodd;fill:#F9EA7E;}
	.st17{fill-rule:evenodd;clip-rule:evenodd;fill:#DF3E44;}
	.st18{fill-rule:evenodd;clip-rule:evenodd;fill:#FB597A;}
	.st19{fill-rule:evenodd;clip-rule:evenodd;fill:#FC728D;}
	.st20{fill-rule:evenodd;clip-rule:evenodd;fill:#E9D21B;}
	.st21{fill-rule:evenodd;clip-rule:evenodd;fill:#FFFFFF;}
	.st22{fill-rule:evenodd;clip-rule:evenodd;fill:#B3B3B3;}
	.st23{fill-rule:evenodd;clip-rule:evenodd;fill:#CCCCCC;}
	.st24{fill-rule:evenodd;clip-rule:evenodd;fill:#88775E;}
	.st25{fill-rule:evenodd;clip-rule:evenodd;fill:#42382D;}
	.st26{fill-rule:evenodd;clip-rule:evenodd;fill:#322923;}
	.st27{fill-rule:evenodd;clip-rule:evenodd;fill:#E6AB28;}
	.st28{fill-rule:evenodd;clip-rule:evenodd;fill:#605342;}
	.st29{fill-rule:evenodd;clip-rule:evenodd;fill:#959595;}
	.st30{fill-rule:evenodd;clip-rule:evenodd;fill:#FE929D;}
	.st31{fill-rule:evenodd;clip-rule:evenodd;fill:#DA4765;}
	.st32{fill-rule:evenodd;clip-rule:evenodd;fill:#FF7F86;}
	.st33{fill-rule:evenodd;clip-rule:evenodd;fill:#FE707E;}
	.st34{fill-rule:evenodd;clip-rule:evenodd;fill:#EDE3D6;}
	.st35{fill-rule:evenodd;clip-rule:evenodd;fill:#C8A684;}
	.st36{fill-rule:evenodd;clip-rule:evenodd;fill:#333333;}
	.st37{clip-path:url(#SVGID_4_);}
	.st38{clip-path:url(#SVGID_6_);}
	.st39{clip-path:url(#SVGID_8_);}
	.st40{clip-path:url(#SVGID_10_);}
</style>
<g id="_x32__x5F_2">
	<g>
		<defs>
			<path id="SVGID_1_" d="M35,0C35,0,35,0,35,0c0,5.5-4.5,10-10,10c-5.5,0-10-4.5-10-10c0,0,0,0,0,0H0v50h100V0H35z"/>
		</defs>
		<clipPath id="SVGID_2_">
			<use xlink:href="#SVGID_1_"  style="overflow:visible;"/>
		</clipPath>
		<g class="st0">
			<rect y="-50" class="st1" width="100" height="100"/>
			<g>
				<polygon class="st2" points="48.9,8.4 75.5,22.5 39,41.7 12.3,27.7 				"/>
				<g>
					<polygon class="st3" points="30.2,28.3 30.2,-7.7 25.3,-10.3 30.2,-12.9 35.1,-10.3 35.1,25.7 					"/>
					<polygon class="st4" points="30.2,28.3 25.3,25.7 25.3,-10.3 30.2,-7.7 					"/>
				</g>
				<g>
					<polygon class="st3" points="64.3,24.1 64.3,1.9 59.4,-0.6 64.3,-3.2 69.1,-0.6 69.1,21.5 					"/>
					<polygon class="st4" points="64.3,24.1 59.4,21.5 59.4,-0.6 64.3,1.9 					"/>
				</g>
				<g>
					<polygon class="st3" points="43.5,35.5 43.5,-10.7 38.6,-13.2 43.5,-15.8 48.4,-13.2 48.4,32.9 					"/>
					<polygon class="st4" points="43.5,35.5 38.6,32.9 38.6,-13.2 43.5,-10.7 					"/>
				</g>
				<g>
					<polygon class="st3" points="69.5,9.4 47.6,21 47.6,18.5 47.6,18.5 47.6,11.4 42.8,13.9 36,17.4 36,14.7 36,-0.6 55.5,-10.8 
						55.5,-1.5 69.5,-8.9 69.5,-8.9 69.5,2.1 					"/>
					<polygon class="st4" points="36,17.4 13.2,5.4 13.2,2.7 13.2,-12.6 36,-0.6 36,14.7 					"/>
					<polygon class="st6" points="13.2,5.4 36,17.4 36,24.6 13.2,12.6 					"/>
					<path class="st7" d="M47.6,21l22-11.6v2.5l-22,11.6V21z M36,24.6v-7.1l6.8-3.5l4.7-2.5v7.1L42.8,21L36,24.6z"/>
				</g>
				<g>
					<polygon class="st3" points="41,36.8 41,33.3 43.5,32 43.5,35.5 					"/>
					<polygon class="st4" points="41,36.8 41,36.9 38.6,35.6 36.1,34.2 36.1,33.2 36.1,30.7 41,33.2 41,33.3 					"/>
					<polygon class="st5" points="36.1,30.7 38.6,29.3 43.5,32 41,33.3 41,33.2 					"/>
				</g>
				<g>
					<polygon class="st4" points="17.7,8 19.6,8.9 21.3,12 23.9,11.2 24.9,11.8 24.9,16.8 23.1,15.8 23.1,18.7 21.3,17.8 19.5,16.9 
						19.5,13.9 17.7,13 					"/>
					<polygon class="st3" points="23.1,18.7 23.1,15.8 24.9,16.8 24.9,11.8 28,10.2 28,15.2 26.2,16.1 26.2,17.1 24.9,17.8 
						23.1,18.7 					"/>
					<polygon class="st5" points="19.6,8.9 17.7,8 20.8,6.4 28,10.2 24.9,11.8 23.9,11.2 					"/>
					<polygon class="st8" points="23.9,11.2 21.3,12 19.6,8.9 					"/>
				</g>
				<g>
					<g>
						<polygon class="st3" points="18.8,-4.3 22,-6 22,1.7 18.8,3.3 						"/>
						<polygon class="st4" points="12.4,-7.7 18.8,-4.3 18.8,3.3 12.4,0 						"/>
					</g>
					<polygon class="st9" points="14.3,-1.4 14.3,-4.8 17.2,-3.3 17.2,0.1 					"/>
				</g>
				<g>
					<g>
						<polygon class="st5" points="29.8,1.7 23.4,-1.7 26.7,-3.4 33,0 						"/>
						<polygon class="st3" points="33,0 33,7.7 29.8,9.4 29.8,1.7 						"/>
						<polygon class="st4" points="23.4,-1.7 29.8,1.7 29.8,9.4 23.4,6 						"/>
					</g>
					<polygon class="st9" points="25.3,4.6 25.3,1.2 28.2,2.8 28.2,6.1 					"/>
				</g>
				<g>
					<polygon class="st3" points="27.7,26.1 30.2,24.8 30.2,28.3 27.7,29.7 					"/>
					<polygon class="st4" points="22.8,23.5 27.7,26 27.7,26.1 27.7,29.7 27.7,29.7 25.3,28.4 22.8,27.1 22.8,26 					"/>
					<polygon class="st5" points="30.2,24.8 27.7,26.1 27.7,26 22.8,23.5 25.3,22.2 					"/>
				</g>
				<g>
					<polygon class="st3" points="61.8,25.5 61.8,21.9 64.3,20.6 64.3,24.1 					"/>
					<polygon class="st4" points="61.8,21.9 61.8,25.5 61.8,25.5 59.4,24.2 56.9,22.9 56.9,21.9 56.9,19.3 61.8,21.9 					"/>
					<polygon class="st5" points="64.3,20.6 61.8,21.9 61.8,21.9 56.9,19.3 59.4,18 					"/>
				</g>
			</g>
		</g>
		<g class="st0">
			<rect y="-50" class="st10" width="100" height="100"/>
			<g>
				<polygon class="st11" points="84.9,17.6 39.9,41.3 14.6,27.9 59.6,4.2 				"/>
				<g>
					<polygon class="st12" points="76.6,2.3 76.6,15.8 72.4,18 72.4,4.4 					"/>
					<polygon class="st13" points="72.4,18 67.9,15.6 67.9,2 72.1,-0.2 76.6,2.3 72.4,4.4 					"/>
					<polygon class="st14" points="76.6,15.8 76.6,18.6 72.4,20.8 72.4,18 					"/>
					<polygon class="st15" points="72.4,20.8 67.9,18.4 67.9,15.6 72.4,18 					"/>
				</g>
				<g>
					<polygon class="st12" points="47.8,30.3 43.6,32.5 43.6,18.9 47.8,16.8 					"/>
					<polygon class="st13" points="47.8,16.8 43.6,18.9 43.6,32.5 39.1,30.1 39.1,16.6 43.3,14.4 					"/>
					<polygon class="st14" points="43.6,32.5 47.8,30.3 47.8,33.1 43.6,35.3 					"/>
					<polygon class="st15" points="39.1,30.1 43.6,32.5 43.6,35.3 39.1,32.9 					"/>
				</g>
				<g>
					<polygon class="st12" points="34.3,9.6 34.3,23.2 30.1,25.4 30.1,11.8 					"/>
					<polygon class="st13" points="34.3,9.6 30.1,11.8 30.1,25.4 25.6,23 25.6,9.4 29.8,7.2 					"/>
					<polygon class="st14" points="34.3,23.2 34.3,26 30.1,28.2 30.1,25.4 					"/>
					<polygon class="st15" points="30.1,25.4 30.1,28.2 25.6,25.8 25.6,23 					"/>
				</g>
				<g>
					<polygon class="st16" points="66.2,15.4 64.7,16.2 63,15.4 64.5,14.6 					"/>
					<polygon class="st17" points="66.2,15.4 66.2,18 64.7,18.8 64.7,16.2 					"/>
					<polygon class="st18" points="64.7,16.2 64.7,18.8 63,17.9 63,15.4 					"/>
				</g>
				<g>
					<polygon class="st16" points="61.6,17.9 60,17 61.5,16.2 63.2,17.1 					"/>
					<polygon class="st17" points="61.6,20.5 61.6,17.9 63.2,17.1 63.2,19.7 					"/>
					<polygon class="st18" points="61.6,17.9 61.6,20.5 60,19.6 60,17 					"/>
				</g>
				<g>
					<polygon class="st16" points="58.1,4.4 48,-0.9 57.3,-5.8 67.4,-0.5 					"/>
					<polygon class="st17" points="58.1,20 58.1,4.4 67.4,-0.5 67.4,15.1 					"/>
					<polygon class="st19" points="58.1,4.4 58.1,20 48,14.7 48,-0.9 					"/>
				</g>
				<g>
					<path class="st21" d="M32.8-10.3l17.5,9.2l-7.6,4L25.2-6.3L32.8-10.3z M77.7-15.5l-4.8,2.5v0l-4.4-2.3l-5,2.6l4.3,2.3v0v0
						l-3,1.6v0v0L47.5-18l12.7-6.7L77.7-15.5z"/>
					<polygon class="st23" points="44.6,13.2 42.7,23.6 25.2,14.4 23.5,3.1 25.2,-6.3 42.7,2.9 					"/>
					<path class="st6" d="M64.9-8.7l3-1.6l0.9,5.2l5-2.7l-0.9-5.1l4.8-2.5l1.8,10.3l-4.8,2.5l-5,2.7l-3,1.6l0-0.1v0L64.9-8.7z
						 M42.7,2.9l7.6-4l1.8,10.3l-7.6,4L42.7,2.9z"/>
					<polygon class="st22" points="52.2,9.3 50.9,16.3 65.5,8.6 66.7,1.6 69.7,0 74.7,-2.6 79.5,-5.1 77.7,5.2 64.9,11.9 50.3,19.6 
						42.7,23.6 44.6,13.2 					"/>
					<path class="st25" d="M72.8-12.9l0.9,5.1l-5,2.7l-0.9-5.2L72.8-12.9z M50.3-1.1l14.6-7.7l1.8,10.2v0l0,0.1L52.2,9.3L50.3-1.1z"
						/>
					<polygon class="st26" points="66.7,1.6 65.5,8.6 50.9,16.3 52.2,9.3 					"/>
				</g>
				<g>
					<polygon class="st25" points="42.7,-22.4 55,-28.9 55.1,-28.9 55.1,-3.6 42.7,2.9 					"/>
					<path class="st28" d="M29.6-29.3V-4l-4.3-2.3v-25.3L29.6-29.3z M42.7,2.9l-4.4-2.3v-25.3v0l0,0l4.4,2.3V2.9z"/>
					<polygon class="st23" points="38.3,0.6 33.9,-1.7 29.6,-4 29.6,-29.3 38.3,-24.7 38.3,-24.7 					"/>
				</g>
				<g>
					<polygon class="st29" points="40.5,-12.5 40.5,-2.1 40.5,1.7 38.2,3 38.2,-0.9 38.2,-11.4 					"/>
					<polygon class="st31" points="33.6,1.5 33.6,-9 38.2,-11.4 38.2,-0.9 38.2,3 35.6,4.4 35.6,0.5 					"/>
					<polygon class="st32" points="21.2,-15.5 33.6,-9 33.6,1.5 23.2,-4 21.2,-5 					"/>
					<polygon class="st33" points="23.2,-4 33.6,1.5 35.6,0.5 35.6,4.4 23.2,-2.2 					"/>
				</g>
				<polygon class="st25" points="45.9,6 49.4,4.2 50,7.7 46.6,9.6 				"/>
				<polygon class="st26" points="71.1,3.5 71.6,0.2 74,-1 73.4,2.3 				"/>
				<polygon class="st22" points="63.5,10 64.1,6.7 66.4,5.5 65.8,8.8 				"/>
				<polygon class="st22" points="50.6,16.4 51.2,13.1 53.5,11.9 53,15.2 				"/>
				<polygon class="st21" points="29.6,-0.6 29.6,0.2 26.9,-1.2 26.9,-2 				"/>
			</g>
		</g>
	</g>
</g>
<g id="_x31__x5F_2">
</g>
<g id="_x33__x5F_3">
</g>
<g id="_x32__x5F_3">
</g>
<g id="_x31__x5F_3">
</g>
</svg>
