<?xml version="1.0" encoding="utf-8"?>
<!-- Generator: Adobe Illustrator 22.0.1, SVG Export Plug-In . SVG Version: 6.00 Build 0)  -->
<svg version="1.1" xmlns="http://www.w3.org/2000/svg" xmlns:xlink="http://www.w3.org/1999/xlink" x="0px" y="0px" width="100px"
	 height="33.4px" viewBox="0 0 100 33.4" style="enable-background:new 0 0 100 33.4;" xml:space="preserve">
<style type="text/css">
	.st0{clip-path:url(#SVGID_2_);}
	.st1{fill-rule:evenodd;clip-rule:evenodd;fill:#FDD535;}
	.st2{fill-rule:evenodd;clip-rule:evenodd;fill:#EF9818;}
	.st3{fill-rule:evenodd;clip-rule:evenodd;fill:#666666;}
	.st4{fill-rule:evenodd;clip-rule:evenodd;fill:#919191;}
	.st5{fill-rule:evenodd;clip-rule:evenodd;fill:#BBBBBB;}
	.st6{fill-rule:evenodd;clip-rule:evenodd;fill:#D5D5D5;}
	.st7{fill-rule:evenodd;clip-rule:evenodd;fill:#999999;}
	.st8{fill-rule:evenodd;clip-rule:evenodd;fill:#D67E7E;}
	.st9{fill-rule:evenodd;clip-rule:evenodd;}
	.st10{fill-rule:evenodd;clip-rule:evenodd;fill:#B4DDE7;}
	.st11{fill-rule:evenodd;clip-rule:evenodd;fill:#83B3D1;}
	.st12{fill-rule:evenodd;clip-rule:evenodd;fill:#B78C62;}
	.st13{fill-rule:evenodd;clip-rule:evenodd;fill:#D3C19A;}
	.st14{fill-rule:evenodd;clip-rule:evenodd;fill:#684B31;}
	.st15{fill-rule:evenodd;clip-rule:evenodd;fill:#B0894F;}
	.st16{fill-rule:evenodd;clip-rule:evenodd;fill:#F9EA7E;}
	.st17{fill-rule:evenodd;clip-rule:evenodd;fill:#DF3E44;}
	.st18{fill-rule:evenodd;clip-rule:evenodd;fill:#FB597A;}
	.st19{fill-rule:evenodd;clip-rule:evenodd;fill:#FC728D;}
	.st20{fill-rule:evenodd;clip-rule:evenodd;fill:#E9D21B;}
	.st21{fill-rule:evenodd;clip-rule:evenodd;fill:#FFFFFF;}
	.st22{fill-rule:evenodd;clip-rule:evenodd;fill:#B3B3B3;}
	.st23{fill-rule:evenodd;clip-rule:evenodd;fill:#CCCCCC;}
	.st24{fill-rule:evenodd;clip-rule:evenodd;fill:#88775E;}
	.st25{fill-rule:evenodd;clip-rule:evenodd;fill:#42382D;}
	.st26{fill-rule:evenodd;clip-rule:evenodd;fill:#322923;}
	.st27{fill-rule:evenodd;clip-rule:evenodd;fill:#E6AB28;}
	.st28{fill-rule:evenodd;clip-rule:evenodd;fill:#605342;}
	.st29{fill-rule:evenodd;clip-rule:evenodd;fill:#959595;}
	.st30{fill-rule:evenodd;clip-rule:evenodd;fill:#FE929D;}
	.st31{fill-rule:evenodd;clip-rule:evenodd;fill:#DA4765;}
	.st32{fill-rule:evenodd;clip-rule:evenodd;fill:#FF7F86;}
	.st33{fill-rule:evenodd;clip-rule:evenodd;fill:#FE707E;}
	.st34{fill-rule:evenodd;clip-rule:evenodd;fill:#EDE3D6;}
	.st35{fill-rule:evenodd;clip-rule:evenodd;fill:#C8A684;}
	.st36{fill-rule:evenodd;clip-rule:evenodd;fill:#333333;}
	.st37{clip-path:url(#SVGID_4_);}
	.st38{clip-path:url(#SVGID_6_);}
	.st39{clip-path:url(#SVGID_8_);}
	.st40{clip-path:url(#SVGID_10_);}
</style>
<g id="_x32__x5F_2">
</g>
<g id="_x31__x5F_2">
</g>
<g id="_x33__x5F_3">
	<g>
		<g>
			<defs>
				<path id="SVGID_5_" d="M35,0c0,5.5-4.5,10-10,10S15,5.5,15,0H0v33.3h100V0H35z"/>
			</defs>
			<clipPath id="SVGID_2_">
				<use xlink:href="#SVGID_5_"  style="overflow:visible;"/>
			</clipPath>
			<g class="st0">
				<rect x="0" y="-66.7" class="st1" width="100" height="100"/>
				<g>
					<polygon class="st2" points="48.9,-8.3 75.5,5.8 39,25.1 12.3,11 					"/>
					<g>
						<polygon class="st3" points="30.2,11.7 30.2,-24.4 25.3,-26.9 30.2,-29.6 35.1,-26.9 35.1,9 						"/>
						<polygon class="st4" points="30.2,11.7 25.3,9 25.3,-26.9 30.2,-24.4 						"/>
					</g>
					<g>
						<polygon class="st3" points="64.3,7.5 64.3,-14.7 59.4,-17.3 64.3,-19.9 69.1,-17.3 69.1,4.8 						"/>
						<polygon class="st4" points="64.3,7.5 59.4,4.8 59.4,-17.3 64.3,-14.7 						"/>
					</g>
					<g>
						<polygon class="st3" points="43.5,18.9 43.5,-27.3 38.6,-29.9 43.5,-32.5 48.4,-29.9 48.4,16.2 						"/>
						<polygon class="st4" points="43.5,18.9 38.6,16.2 38.6,-29.9 43.5,-27.3 						"/>
					</g>
					<g>
						<polygon class="st3" points="69.5,-7.2 47.6,4.3 47.6,1.8 47.6,1.8 47.6,-5.3 42.8,-2.8 36,0.8 36,-1.9 36,-17.2 55.5,-27.5 
							55.5,-18.1 69.5,-25.5 69.5,-25.5 69.5,-14.6 						"/>
						<polygon class="st4" points="36,0.8 13.2,-11.2 13.2,-13.9 13.2,-29.3 36,-17.2 36,-1.9 						"/>
						<polygon class="st6" points="13.2,-11.2 36,0.8 36,7.9 13.2,-4.1 						"/>
						<path class="st7" d="M47.6,4.3l22-11.6v2.5l-22,11.6V4.3z M36,7.9V0.8l6.8-3.5l4.7-2.5v7.1l-4.7,2.5L36,7.9z"/>
					</g>
					<g>
						<polygon class="st3" points="41,20.2 41,16.6 43.5,15.3 43.5,18.9 						"/>
						<polygon class="st4" points="41,20.2 41,20.2 38.6,18.9 36.1,17.6 36.1,16.6 36.1,14 41,16.6 41,16.6 						"/>
						<polygon class="st5" points="36.1,14 38.6,12.7 43.5,15.3 41,16.6 41,16.6 						"/>
					</g>
					<g>
						<polygon class="st4" points="17.7,-8.7 19.6,-7.7 21.3,-4.6 23.9,-5.5 24.9,-4.9 24.9,0.1 23.1,-0.8 23.1,2.1 21.3,1.1 
							19.5,0.2 19.5,-2.7 17.7,-3.7 						"/>
						<polygon class="st3" points="23.1,2.1 23.1,-0.8 24.9,0.1 24.9,-4.9 28,-6.5 28,-1.5 26.2,-0.6 26.2,0.5 24.9,1.1 23.1,2.1 
													"/>
					</g>
					<g>
						<polygon class="st3" points="27.7,9.4 30.2,8.1 30.2,11.7 27.7,13 						"/>
						<polygon class="st4" points="22.8,6.8 27.7,9.4 27.7,9.4 27.7,13 27.7,13 25.3,11.7 22.8,10.4 22.8,9.4 						"/>
						<polygon class="st5" points="30.2,8.1 27.7,9.4 27.7,9.4 22.8,6.8 25.3,5.5 						"/>
					</g>
					<g>
						<polygon class="st3" points="61.8,8.8 61.8,5.2 64.3,3.9 64.3,7.5 						"/>
						<polygon class="st4" points="61.8,5.2 61.8,8.8 61.8,8.8 59.4,7.5 56.9,6.2 56.9,5.2 56.9,2.7 61.8,5.2 						"/>
						<polygon class="st5" points="64.3,3.9 61.8,5.2 61.8,5.2 56.9,2.7 59.4,1.3 						"/>
					</g>
				</g>
			</g>
			<g class="st0">
				<rect x="0" y="-66.7" class="st10" width="100" height="100"/>
				<g>
					<polygon class="st11" points="84.9,0.9 39.9,24.7 14.6,11.2 59.6,-12.4 					"/>
					<g>
						<polygon class="st12" points="76.6,-14.4 76.6,-0.9 72.4,1.3 72.4,-12.2 						"/>
						<polygon class="st13" points="72.4,1.3 67.9,-1 67.9,-14.6 72.1,-16.8 76.6,-14.4 72.4,-12.2 						"/>
						<polygon class="st14" points="76.6,-0.9 76.6,1.9 72.4,4.1 72.4,1.3 						"/>
						<polygon class="st15" points="72.4,4.1 67.9,1.8 67.9,-1 72.4,1.3 						"/>
					</g>
					<g>
						<polygon class="st12" points="47.8,13.7 43.6,15.9 43.6,2.3 47.8,0.1 						"/>
						<polygon class="st13" points="47.8,0.1 43.6,2.3 43.6,15.9 39.1,13.5 39.1,-0.1 43.3,-2.3 						"/>
						<polygon class="st14" points="43.6,15.9 47.8,13.7 47.8,16.5 43.6,18.7 						"/>
						<polygon class="st15" points="39.1,13.5 43.6,15.9 43.6,18.7 39.1,16.3 						"/>
					</g>
					<g>
						<polygon class="st12" points="34.3,-7 34.3,6.5 30.1,8.7 30.1,-4.9 						"/>
						<polygon class="st13" points="34.3,-7 30.1,-4.9 30.1,8.7 25.6,6.3 25.6,-7.2 29.8,-9.4 						"/>
						<polygon class="st14" points="34.3,6.5 34.3,9.3 30.1,11.5 30.1,8.7 						"/>
						<polygon class="st15" points="30.1,8.7 30.1,11.5 25.6,9.1 25.6,6.3 						"/>
					</g>
					<g>
						<polygon class="st17" points="66.2,-1.2 66.2,1.3 64.7,2.1 64.7,-0.4 						"/>
						<polygon class="st18" points="64.7,-0.4 64.7,2.1 63,1.3 63,-1.3 						"/>
					</g>
					<g>
						<polygon class="st16" points="61.6,1.2 60,0.4 61.5,-0.4 63.2,0.4 						"/>
						<polygon class="st17" points="61.6,3.8 61.6,1.2 63.2,0.4 63.2,3 						"/>
						<polygon class="st18" points="61.6,1.2 61.6,3.8 60,2.9 60,0.4 						"/>
					</g>
					<g>
						<polygon class="st17" points="58.1,3.4 58.1,-12.3 67.4,-17.2 67.4,-1.5 						"/>
						<polygon class="st19" points="58.1,-12.3 58.1,3.4 48,-1.9 48,-17.6 						"/>
					</g>
					<g>
						<polygon class="st23" points="44.6,-3.4 42.7,6.9 25.2,-2.3 23.5,-13.5 25.2,-22.9 42.7,-13.7 						"/>
						<polygon class="st22" points="52.2,-7.4 50.9,-0.4 65.5,-8.1 66.7,-15.1 69.7,-16.6 74.7,-19.3 79.5,-21.8 77.7,-11.4 
							64.9,-4.7 50.3,3 42.7,6.9 44.6,-3.4 						"/>
					</g>
				</g>
			</g>
		</g>
	</g>
</g>
<g id="_x32__x5F_3">
</g>
<g id="_x31__x5F_3">
</g>
</svg>
