<svg xmlns="http://www.w3.org/2000/svg" xmlns:xlink="http://www.w3.org/1999/xlink" viewBox="0 0 100 100"><defs><style>.cls-1{fill:none;}.cls-2{clip-path:url(#clip-path);}.cls-3{fill:#87ab32;}.cls-4{fill:#4d7524;}.cls-10,.cls-11,.cls-12,.cls-13,.cls-14,.cls-15,.cls-16,.cls-17,.cls-4,.cls-5,.cls-6,.cls-7,.cls-8,.cls-9{fill-rule:evenodd;}.cls-5{fill:#563a29;}.cls-6{fill:#452f21;}.cls-7{fill:#78533a;}.cls-8{fill:#6b4b36;}.cls-9{fill:#2e1d16;}.cls-10{fill:#8a6853;}.cls-11{fill:#4a2f24;}.cls-12{fill:#cfa985;}.cls-13{fill:#a6876a;}.cls-14{fill:#352b20;}.cls-15{fill:#946749;}.cls-17{fill:#654d3d;}</style><clipPath id="clip-path" transform="translate(0)"><path class="cls-1" d="M35,66.66a10,10,0,0,1-20,0H0V100H100V66.66Z"/></clipPath></defs><title>bear_t3</title><g id="Layer_2" data-name="Layer 2"><g id="Layer_3" data-name="Layer 3"><g class="cls-2"><rect class="cls-3" width="100" height="100"/><polygon class="cls-4" points="28.43 72.99 52.62 85.53 73.7 74.55 49.47 61.99 28.43 72.99"/><polygon class="cls-5" points="41.82 44.47 36.3 41.61 36.3 35.82 41.82 35.89 41.82 44.47"/><polygon class="cls-6" points="36.87 54.58 41.82 44.47 41.82 35.89 47.33 33.03 47.2 43.79 42.52 53.21 36.87 54.58"/><polygon class="cls-7" points="41.82 35.89 36.3 35.82 41.82 32.93 47.33 33.03 41.82 35.89"/><polygon class="cls-8" points="36.3 41.61 41.82 44.47 36.87 54.58 31.36 51.72 36.3 41.61"/><polygon class="cls-6" points="42.79 72.88 43.12 65.47 47.7 64.33 47.7 71.27 41.73 74.37 42.79 72.88"/><polygon class="cls-5" points="43.12 65.47 42.79 72.88 36.96 70.03 36.98 62.27 40.76 62.27 43.12 65.47"/><polygon class="cls-7" points="36.96 70.03 42.79 72.88 41.73 74.37 35.99 71.39 36.96 70.03"/><path class="cls-5" d="M54.72,71.5l-4.37-2.28L49,68.52,46,67l-1.45-.75-1.44-.75-3-1.56L37,62.27l2.82-29.2L42,32.19l2.22,1.16,2.22,1.16,2.22,1.14,2.22,1.16L53.11,40l1.4,27.06ZM46.29,37.34l-1.44-.75-3-1.56L40.32,59.55l3,2.63,1.43.75h0l1.44.75,3,.47,1.54-24.52-3-1.54Z" transform="translate(0)"/><polygon class="cls-7" points="63.85 30.08 50.9 36.81 48.68 35.66 46.46 34.51 44.24 33.35 42.02 32.19 39.8 33.07 52.77 26.32 54.99 25.44 57.2 26.6 61.64 28.92 63.85 30.08"/><polygon class="cls-9" points="54.72 71.5 54.51 67.06 53.11 40 66.07 33.27 67.68 64.76 54.72 71.5"/><polygon class="cls-10" points="46.29 37.34 47.74 38.09 50.73 39.63 49.2 64.15 46.2 63.68 44.76 62.93 44.75 62.93 43.32 62.17 40.32 59.55 41.85 35.03 44.85 36.59 46.29 37.34"/><polygon class="cls-11" points="53.11 40 50.9 36.81 63.85 30.08 66.07 33.27 53.11 40"/><polygon class="cls-6" points="51.13 23.42 61.37 18.11 63.59 29.77 51.13 36.22 51.13 23.42"/><polygon class="cls-5" points="51.13 23.42 51.13 36.22 40.27 30.58 40.27 17.77 51.13 23.42"/><polygon class="cls-7" points="61.37 18.11 51.13 23.42 40.27 17.77 50.54 12.45 61.37 18.11"/><polygon class="cls-12" points="43.1 31.07 37.85 28.35 42.39 24.21 48.46 27.38 43.1 31.07"/><polygon class="cls-13" points="43.1 36.24 43.1 35.31 43.1 34.74 43.1 31.07 48.46 27.38 48.46 34.84 43.1 36.24"/><polygon class="cls-14" points="37.85 28.35 43.1 31.07 43.1 34.74 43.1 35.31 43.1 36.24 42.02 35.68 37.85 33.52 37.85 28.35"/><polygon class="cls-6" points="52.28 18.83 53.53 17.97 53.53 21.77 52.28 22.62 52.28 18.83"/><polygon class="cls-5" points="49.06 17.15 52.28 18.83 52.28 22.62 49.06 20.94 49.06 17.15"/><polygon class="cls-15" points="53.53 17.97 52.28 18.83 49.06 17.15 50.33 16.29 53.53 17.97"/><polygon class="cls-6" points="44.5 14.92 45.75 14.06 45.75 17.86 44.5 18.71 44.5 14.92"/><polygon class="cls-5" points="41.28 13.24 44.5 14.92 44.5 18.71 41.28 17.03 41.28 13.24"/><polygon class="cls-15" points="45.75 14.06 44.5 14.92 41.28 13.24 42.55 12.38 45.75 14.06"/><polygon class="cls-16" points="42 22.69 42 21.49 43.03 22.03 43.03 23.23 42 22.69"/><polygon class="cls-16" points="47.36 25.44 47.36 24.24 48.39 24.78 48.39 25.98 47.36 25.44"/><polygon class="cls-17" points="48.03 33.31 48 33.66 43.1 35.31 43.1 34.74 48.03 33.31"/><polygon class="cls-5" points="54.72 71.5 55.09 79.19 46.77 74.98 46.77 74.98 46.01 66.97 51.33 66.97 54.72 71.5"/><path class="cls-9" d="M55.09,79.19l-.37-7.69q7.64-8.79,13-6.74l-1.79,5.48,0,4.59L54,81l.55-.92Z" transform="translate(0)"/><polygon class="cls-7" points="55.09 79.19 54.54 80.12 53.99 81.04 45.72 76.73 46.27 75.82 46.77 74.98 46.77 74.98 55.09 79.19"/><polygon class="cls-5" points="60.2 53 54.69 50.14 54.69 41.98 60.2 47.64 60.2 53"/><polygon class="cls-6" points="55.26 63.11 60.2 53 60.2 47.64 68.16 43.54 65.59 52.31 60.9 61.73 55.26 63.11"/><polygon class="cls-7" points="60.2 47.64 54.69 41.98 62.64 37.86 68.16 43.54 60.2 47.64"/><polygon class="cls-8" points="54.69 50.14 60.2 53 55.26 63.11 49.74 60.24 54.69 50.14"/></g></g></g></svg>