<?xml version="1.0" encoding="utf-8"?>
<!-- Generator: Adobe Illustrator 22.0.1, SVG Export Plug-In . SVG Version: 6.00 Build 0)  -->
<svg version="1.1" xmlns="http://www.w3.org/2000/svg" xmlns:xlink="http://www.w3.org/1999/xlink" x="0px" y="0px" width="100px"
	 height="43.4px" viewBox="0 0 100 43.4" style="enable-background:new 0 0 100 43.4;" xml:space="preserve">
<style type="text/css">
	.st0{clip-path:url(#SVGID_2_);}
	.st1{fill-rule:evenodd;clip-rule:evenodd;fill:#E44923;}
	.st2{fill-rule:evenodd;clip-rule:evenodd;fill:#AE3315;}
	.st3{fill-rule:evenodd;clip-rule:evenodd;fill:#F9EA7E;}
	.st4{fill-rule:evenodd;clip-rule:evenodd;fill:#E9D21B;}
	.st5{fill-rule:evenodd;clip-rule:evenodd;fill:#E6AB28;}
	.st6{fill-rule:evenodd;clip-rule:evenodd;fill:#9A886D;}
	.st7{fill-rule:evenodd;clip-rule:evenodd;fill:#554A3C;}
	.st8{fill-rule:evenodd;clip-rule:evenodd;fill:#34433A;}
	.st9{fill-rule:evenodd;clip-rule:evenodd;fill:#E56B4B;}
	.st10{fill-rule:evenodd;clip-rule:evenodd;fill:#CE2020;}
	.st11{fill-rule:evenodd;clip-rule:evenodd;fill:#DF3131;}
	.st12{clip-path:url(#SVGID_4_);}
	.st13{fill-rule:evenodd;clip-rule:evenodd;fill:#BDAB64;}
	.st14{fill-rule:evenodd;clip-rule:evenodd;fill:#9E7B47;}
	.st15{fill-rule:evenodd;clip-rule:evenodd;fill:#C14324;}
	.st16{fill-rule:evenodd;clip-rule:evenodd;fill:#E3D8CE;}
	.st17{fill-rule:evenodd;clip-rule:evenodd;fill:#BDA58E;}
	.st18{fill-rule:evenodd;clip-rule:evenodd;fill:#6A5140;}
	.st19{fill-rule:evenodd;clip-rule:evenodd;fill:#3A2C23;}
	.st20{fill-rule:evenodd;clip-rule:evenodd;fill:#E0D1C9;}
	.st21{fill-rule:evenodd;clip-rule:evenodd;fill:#96341D;}
	.st22{fill-rule:evenodd;clip-rule:evenodd;fill:#D55F11;}
	.st23{fill-rule:evenodd;clip-rule:evenodd;fill:#B39480;}
	.st24{fill-rule:evenodd;clip-rule:evenodd;fill:#DA870C;}
	.st25{fill-rule:evenodd;clip-rule:evenodd;fill:#D07315;}
	.st26{fill-rule:evenodd;clip-rule:evenodd;fill:#554E44;}
	.st27{fill-rule:evenodd;clip-rule:evenodd;fill:#464039;}
	.st28{fill-rule:evenodd;clip-rule:evenodd;fill:#2C2621;}
	.st29{fill-rule:evenodd;clip-rule:evenodd;fill:#F4F2F0;}
	.st30{fill-rule:evenodd;clip-rule:evenodd;fill:#C1B5A4;}
	.st31{fill-rule:evenodd;clip-rule:evenodd;fill:#E3DCD7;}
	.st32{fill-rule:evenodd;clip-rule:evenodd;fill:#333333;}
	.st33{clip-path:url(#SVGID_6_);}
	.st34{fill:#4FC3F7;}
	.st35{clip-path:url(#SVGID_8_);}
	.st36{clip-path:url(#SVGID_10_);}
	.st37{fill:#FB5778;stroke:#000000;stroke-miterlimit:10;}
	.st38{font-family:'AgencyFB-BlackWide';}
	.st39{font-size:25px;}
</style>
<g id="_x32__x5F_2">
</g>
<g id="_x31__x5F_2">
</g>
<g id="_x33__x5F_3">
</g>
<g id="_x32__x5F_3">
</g>
<g id="_x31__x5F_3">
	<g>
		<g>
			<defs>
				<path id="SVGID_9_" d="M0,0v33.3h15c0,5.5,4.5,10,10,10s10-4.5,10-10h65V0H0z"/>
			</defs>
			<clipPath id="SVGID_2_">
				<use xlink:href="#SVGID_9_"  style="overflow:visible;"/>
			</clipPath>
			<g class="st0">
				<rect y="-0.1" class="st13" width="100" height="100"/>
				<g>
					<g>
						<polygon class="st15" points="61.1,53 54.7,56.3 48.3,53 48.3,43.5 54.7,40.1 61.1,43.5 						"/>
					</g>
					<g>
						<polygon class="st20" points="90.1,29 75.9,24.3 97.3,18.4 						"/>
						<polygon class="st21" points="62.8,29 90.1,29 85.2,42.5 65.1,32.5 						"/>
						<polygon class="st22" points="62.8,29 60.7,25.5 75.9,24.3 90.1,29 						"/>
						<polygon class="st23" points="97.3,18.4 85.2,42.5 90.1,29 						"/>
					</g>
					<g>
						<path class="st15" d="M71.1,45L39.4,61.7V45.9l31.7-16.7V45z M31.5,41.7l-8,14.8V37.5L31.5,41.7L31.5,41.7z"/>
						<polygon class="st24" points="71.1,29.2 39.4,45.9 31.5,41.7 23.5,37.5 55.3,20.8 						"/>
						<polygon class="st16" points="23.5,56.5 31.5,41.7 39.4,61.7 39.4,64.8 						"/>
						<polygon class="st22" points="39.4,45.9 39.4,61.7 31.5,41.7 31.5,41.7 						"/>
					</g>
					<g>
						<polygon class="st15" points="39.7,47.5 27.2,54.1 27.2,37.6 39.7,31.1 39.7,31.1 						"/>
						<polygon class="st25" points="27.2,37.6 27.2,54.1 22.9,51.8 18.6,53.2 10.3,48.9 10.3,28.8 						"/>
						<polygon class="st24" points="39.7,31.1 27.2,37.6 10.3,28.8 22.9,22.2 						"/>
					</g>
					<polygon class="st15" points="13,34.3 15.2,33.1 19.6,35.4 19.6,36.2 20.4,35.8 24.8,38.2 24.8,43.4 22.6,44.6 18.2,42.2 
						18.2,41.4 17.4,41.8 13,39.5 					"/>
					<g>
						<polygon class="st24" points="11,51.5 5.1,48.4 14.3,40.8 22.9,45.3 						"/>
					</g>
					<g>
						<polygon class="st15" points="22.9,19.6 22.9,28.8 19.9,30.3 19.9,21.1 						"/>
						<polygon class="st24" points="19.9,21.1 14,18 17,16.5 22.9,19.6 22.9,19.6 						"/>
						<polygon class="st16" points="18.1,29.4 15.4,28 15.4,21.5 18.1,23 						"/>
						<polygon class="st22" points="19.9,30.3 18.9,29.8 18.4,29.5 18.1,29.4 18.1,23 15.4,21.5 15.4,28 14,27.3 14,18 19.9,21.1 
													"/>
					</g>
					<g>
						<polygon class="st15" points="29.7,26.2 32.7,24.6 32.7,33.9 29.7,35.4 						"/>
						<polygon class="st24" points="32.7,24.6 29.7,26.2 23.8,23.1 26.8,21.5 32.7,24.6 						"/>
						<polygon class="st16" points="27.9,34.5 25.2,33 25.2,26.6 27.9,28 						"/>
						<polygon class="st22" points="29.7,26.2 29.7,35.4 28.7,34.9 28.2,34.6 27.9,34.5 27.9,28 25.2,26.6 25.2,33 23.8,32.3 
							23.8,23.1 						"/>
					</g>
					<g>
						<g>
							<g>
								<polygon class="st29" points="18.7,35.1 16.5,36.3 12.1,34 14.4,32.8 								"/>
								<polygon class="st30" points="18.7,35.1 18.7,40.4 16.5,41.5 16.5,36.3 								"/>
								<polygon class="st31" points="16.5,36.3 16.5,41.5 12.1,39.2 12.1,34 								"/>
							</g>
							<polygon class="st32" points="13.4,38.4 13.4,36 15.4,37.1 15.4,39.4 							"/>
						</g>
						<g>
							<g>
								<polygon class="st29" points="23.9,37.9 21.7,39 17.3,36.7 19.5,35.5 								"/>
								<polygon class="st30" points="23.9,37.9 23.9,43.1 21.7,44.3 21.7,39 								"/>
								<polygon class="st31" points="21.7,39 21.7,44.3 17.3,41.9 17.3,36.7 								"/>
							</g>
							<polygon class="st32" points="18.5,41.1 18.5,38.8 20.5,39.8 20.5,42.2 							"/>
						</g>
					</g>
				</g>
			</g>
			<g class="st0">
				<rect class="st1" width="100" height="100"/>
				<g>
					<g>
						<polygon class="st5" points="78,34.2 78,58.7 48.3,74.4 48.3,26.9 48.5,26.7 72,14.4 72,31 72,37.3 						"/>
						<polygon class="st4" points="24.6,14.4 48.3,26.9 48.3,74.4 24.6,61.9 						"/>
						<path class="st3" d="M24.6,14.4L48.3,1.9L72,14.4L48.5,26.7l-0.2,0.1L24.6,14.4z M78,34.2l-6,3.1V31L78,34.2z"/>
					</g>
					<g>
						<polygon class="st5" points="62.3,51.5 78.1,43.2 78.1,52.6 62.3,60.9 						"/>
						<polygon class="st3" points="62.3,51.5 54.4,47.3 70.2,39 78.1,43.2 						"/>
					</g>
					<g>
						<polygon class="st5" points="60.6,27.3 60.6,33.7 55.2,36.5 55.2,30.1 						"/>
						<polygon class="st3" points="60.6,27.3 55.2,30.1 52.5,28.7 57.9,25.9 						"/>
						<polygon class="st4" points="55.2,36.5 52.5,35.1 52.5,28.7 55.2,30.1 						"/>
					</g>
					<polygon class="st8" points="59.1,32.7 59.1,29.9 56.7,31.1 56.7,34 					"/>
					<g>
						<polygon class="st9" points="42.4,36.9 29.4,43.7 19.4,38.4 32.3,31.6 						"/>
						<polygon class="st10" points="29.4,43.7 42.4,36.9 42.4,41.2 29.4,48.1 						"/>
						<polygon class="st11" points="19.4,38.4 29.4,43.7 29.4,48.1 19.4,42.8 						"/>
					</g>
				</g>
			</g>
			<g class="st0">
				<rect y="0" class="st34" width="100" height="43.3"/>
				<g>
					<text transform="matrix(1 0 0 1 65.0002 26.2501)" class="st37 st38 st39">1</text>
				</g>
			</g>
		</g>
	</g>
</g>
</svg>
